<svg width="206" height="47" viewBox="0 0 206 47" fill="none" xmlns="http://www.w3.org/2000/svg">
<rect width="206" height="47" rx="23.5" fill="url(#paint0_linear_284_47)"/>
<path d="M37.6345 16C42.6334 16 45.4358 18.5339 45.5305 22.2636L41.2132 22.4054C41.0996 20.3379 39.386 18.9797 37.6345 19.0202C35.2298 19.0709 33.4497 20.7838 33.4497 23.5C33.4497 26.2162 35.2297 27.8988 37.6345 27.8988C39.386 27.8986 41.0617 26.6014 41.2511 24.5338L45.5683 24.6352C45.4547 28.4257 42.4819 31 37.6345 31C32.7871 31 29 28.0608 29 23.5C29 18.9189 32.6356 16 37.6345 16ZM59 16.4432V30.6325H47.639V16.4432H59Z" fill="white"/>
<path d="M73.6446 29.256C72.4926 29.256 71.5006 29.016 70.6686 28.536C69.8472 28.056 69.2126 27.3733 68.7646 26.488C68.3272 25.6027 68.1086 24.552 68.1086 23.336C68.1086 22.12 68.3272 21.0693 68.7646 20.184C69.2126 19.288 69.8472 18.6 70.6686 18.12C71.5006 17.6293 72.4926 17.384 73.6446 17.384C74.7966 17.384 75.7832 17.6293 76.6046 18.12C77.4366 18.6 78.0712 19.288 78.5086 20.184C78.9566 21.0693 79.1806 22.12 79.1806 23.336C79.1806 24.552 78.9566 25.6027 78.5086 26.488C78.0712 27.3733 77.4366 28.056 76.6046 28.536C75.7832 29.016 74.7966 29.256 73.6446 29.256ZM73.6286 27.208C74.2686 27.208 74.8126 27.0587 75.2606 26.76C75.7192 26.4507 76.0659 26.008 76.3006 25.432C76.5459 24.856 76.6686 24.1573 76.6686 23.336C76.6686 22.5147 76.5459 21.816 76.3006 21.24C76.0659 20.6533 75.7192 20.2053 75.2606 19.896C74.8126 19.5867 74.2686 19.432 73.6286 19.432C72.9992 19.432 72.4606 19.5867 72.0126 19.896C71.5646 20.2053 71.2179 20.6533 70.9726 21.24C70.7379 21.816 70.6206 22.5147 70.6206 23.336C70.6206 24.1573 70.7379 24.856 70.9726 25.432C71.2179 26.008 71.5646 26.4507 72.0126 26.76C72.4712 27.0587 73.0099 27.208 73.6286 27.208ZM80.7544 31.4V20.424H83.0584L83.1064 22.232L82.9144 22.152C83.1278 21.5333 83.4744 21.0587 83.9544 20.728C84.4344 20.3973 84.9944 20.232 85.6344 20.232C86.4344 20.232 87.1011 20.4293 87.6344 20.824C88.1678 21.2187 88.5678 21.7573 88.8344 22.44C89.1118 23.112 89.2504 23.8693 89.2504 24.712C89.2504 25.544 89.1118 26.3013 88.8344 26.984C88.5678 27.6667 88.1624 28.2053 87.6184 28.6C87.0851 28.9947 86.4184 29.192 85.6184 29.192C85.2024 29.192 84.8131 29.1173 84.4504 28.968C84.0878 28.808 83.7731 28.5893 83.5064 28.312C83.2504 28.0347 83.0638 27.704 82.9464 27.32L83.1544 27.192V31.4H80.7544ZM84.9624 27.352C85.5278 27.352 85.9704 27.1173 86.2904 26.648C86.6211 26.1787 86.7864 25.5333 86.7864 24.712C86.7864 23.8907 86.6211 23.2453 86.2904 22.776C85.9704 22.3067 85.5278 22.072 84.9624 22.072C84.5891 22.072 84.2638 22.1733 83.9864 22.376C83.7198 22.568 83.5118 22.8613 83.3624 23.256C83.2238 23.6507 83.1544 24.136 83.1544 24.712C83.1544 25.288 83.2238 25.7733 83.3624 26.168C83.5118 26.5627 83.7198 26.8613 83.9864 27.064C84.2638 27.256 84.5891 27.352 84.9624 27.352ZM94.4348 29.192C93.5601 29.192 92.7975 29.0107 92.1468 28.648C91.5068 28.2747 91.0055 27.752 90.6428 27.08C90.2908 26.408 90.1148 25.6187 90.1148 24.712C90.1148 23.8053 90.2908 23.0213 90.6428 22.36C91.0055 21.688 91.5068 21.1653 92.1468 20.792C92.7868 20.4187 93.5441 20.232 94.4188 20.232C95.2721 20.232 96.0135 20.4187 96.6428 20.792C97.2721 21.1653 97.7575 21.6987 98.0988 22.392C98.4508 23.0853 98.6268 23.912 98.6268 24.872V25.352H92.5948C92.6268 26.0347 92.8081 26.5413 93.1388 26.872C93.4801 27.2027 93.9281 27.368 94.4828 27.368C94.8881 27.368 95.2241 27.2827 95.4908 27.112C95.7681 26.9413 95.9655 26.68 96.0828 26.328L98.4988 26.472C98.2748 27.3253 97.8001 27.992 97.0748 28.472C96.3495 28.952 95.4695 29.192 94.4348 29.192ZM92.5948 23.88H96.1628C96.1308 23.2507 95.9548 22.7813 95.6348 22.472C95.3255 22.1627 94.9201 22.008 94.4188 22.008C93.9175 22.008 93.5015 22.1733 93.1708 22.504C92.8508 22.824 92.6588 23.2827 92.5948 23.88ZM99.9501 29V20.424H102.11L102.206 22.936L101.902 22.856C101.987 22.216 102.158 21.704 102.414 21.32C102.681 20.936 103.011 20.6587 103.406 20.488C103.801 20.3173 104.233 20.232 104.702 20.232C105.321 20.232 105.843 20.3653 106.27 20.632C106.707 20.8987 107.038 21.2773 107.262 21.768C107.497 22.248 107.614 22.8187 107.614 23.48V29H105.214V24.28C105.214 23.8213 105.177 23.432 105.102 23.112C105.027 22.792 104.894 22.552 104.702 22.392C104.51 22.2213 104.243 22.136 103.902 22.136C103.401 22.136 103.017 22.3227 102.75 22.696C102.483 23.0587 102.35 23.5867 102.35 24.28V29H99.9501ZM113.052 29V20.424H115.452V29H113.052ZM113.004 19.368V17.448H115.484V19.368H113.004ZM117.501 29V20.424H119.661L119.757 22.936L119.453 22.856C119.539 22.216 119.709 21.704 119.965 21.32C120.232 20.936 120.563 20.6587 120.957 20.488C121.352 20.3173 121.784 20.232 122.253 20.232C122.872 20.232 123.395 20.3653 123.821 20.632C124.259 20.8987 124.589 21.2773 124.813 21.768C125.048 22.248 125.165 22.8187 125.165 23.48V29H122.765V24.28C122.765 23.8213 122.728 23.432 122.653 23.112C122.579 22.792 122.445 22.552 122.253 22.392C122.061 22.2213 121.795 22.136 121.453 22.136C120.952 22.136 120.568 22.3227 120.301 22.696C120.035 23.0587 119.901 23.5867 119.901 24.28V29H117.501ZM135.547 29.256C134.513 29.256 133.59 29.0213 132.779 28.552C131.979 28.0827 131.35 27.4053 130.891 26.52C130.443 25.6347 130.219 24.5733 130.219 23.336C130.219 22.1307 130.438 21.0853 130.875 20.2C131.313 19.304 131.937 18.6107 132.747 18.12C133.558 17.6293 134.507 17.384 135.595 17.384C137.078 17.384 138.23 17.752 139.051 18.488C139.883 19.2133 140.417 20.2533 140.651 21.608L138.123 21.704C137.995 20.9893 137.718 20.4347 137.291 20.04C136.865 19.6347 136.299 19.432 135.595 19.432C134.987 19.432 134.47 19.592 134.043 19.912C133.617 20.232 133.291 20.6853 133.067 21.272C132.843 21.8587 132.731 22.5467 132.731 23.336C132.731 24.136 132.843 24.8293 133.067 25.416C133.302 25.992 133.633 26.4347 134.059 26.744C134.486 27.0533 134.993 27.208 135.579 27.208C136.347 27.208 136.939 26.9947 137.355 26.568C137.782 26.1307 138.049 25.528 138.155 24.76L140.699 24.856C140.55 25.784 140.257 26.5733 139.819 27.224C139.382 27.8747 138.806 28.376 138.091 28.728C137.387 29.08 136.539 29.256 135.547 29.256ZM145.941 29.192C145.066 29.192 144.303 29.0107 143.653 28.648C143.002 28.2747 142.495 27.752 142.133 27.08C141.77 26.408 141.589 25.6187 141.589 24.712C141.589 23.8053 141.77 23.0213 142.133 22.36C142.495 21.688 143.002 21.1653 143.653 20.792C144.303 20.4187 145.066 20.232 145.941 20.232C146.815 20.232 147.578 20.4187 148.229 20.792C148.879 21.1653 149.386 21.688 149.749 22.36C150.111 23.0213 150.293 23.8053 150.293 24.712C150.293 25.6187 150.111 26.408 149.749 27.08C149.386 27.752 148.879 28.2747 148.229 28.648C147.578 29.0107 146.815 29.192 145.941 29.192ZM145.941 27.352C146.538 27.352 147.002 27.1227 147.333 26.664C147.663 26.1947 147.829 25.544 147.829 24.712C147.829 23.88 147.663 23.2347 147.333 22.776C147.002 22.3067 146.538 22.072 145.941 22.072C145.343 22.072 144.879 22.3067 144.549 22.776C144.218 23.2347 144.053 23.88 144.053 24.712C144.053 25.544 144.218 26.1947 144.549 26.664C144.879 27.1227 145.343 27.352 145.941 27.352ZM154.683 29.192C153.958 29.192 153.328 29.0107 152.795 28.648C152.272 28.2747 151.867 27.7573 151.579 27.096C151.302 26.424 151.163 25.6293 151.163 24.712C151.163 23.7947 151.307 23.0053 151.595 22.344C151.883 21.672 152.288 21.1547 152.811 20.792C153.344 20.4187 153.968 20.232 154.683 20.232C155.291 20.232 155.814 20.36 156.251 20.616C156.699 20.8613 157.035 21.2027 157.259 21.64V17.64H159.659V29H157.371L157.323 27.736C157.088 28.1947 156.736 28.552 156.267 28.808C155.808 29.064 155.28 29.192 154.683 29.192ZM155.467 27.352C155.851 27.352 156.176 27.2507 156.443 27.048C156.71 26.8453 156.912 26.552 157.051 26.168C157.19 25.7733 157.259 25.288 157.259 24.712C157.259 24.1253 157.19 23.64 157.051 23.256C156.912 22.8613 156.71 22.568 156.443 22.376C156.176 22.1733 155.851 22.072 155.467 22.072C154.902 22.072 154.454 22.312 154.123 22.792C153.792 23.2613 153.627 23.9013 153.627 24.712C153.627 25.512 153.792 26.152 154.123 26.632C154.464 27.112 154.912 27.352 155.467 27.352ZM165.307 29.192C164.433 29.192 163.67 29.0107 163.019 28.648C162.379 28.2747 161.878 27.752 161.515 27.08C161.163 26.408 160.987 25.6187 160.987 24.712C160.987 23.8053 161.163 23.0213 161.515 22.36C161.878 21.688 162.379 21.1653 163.019 20.792C163.659 20.4187 164.417 20.232 165.291 20.232C166.145 20.232 166.886 20.4187 167.515 20.792C168.145 21.1653 168.63 21.6987 168.971 22.392C169.323 23.0853 169.499 23.912 169.499 24.872V25.352H163.467C163.499 26.0347 163.681 26.5413 164.011 26.872C164.353 27.2027 164.801 27.368 165.355 27.368C165.761 27.368 166.097 27.2827 166.363 27.112C166.641 26.9413 166.838 26.68 166.955 26.328L169.371 26.472C169.147 27.3253 168.673 27.992 167.947 28.472C167.222 28.952 166.342 29.192 165.307 29.192ZM163.467 23.88H167.035C167.003 23.2507 166.827 22.7813 166.507 22.472C166.198 22.1627 165.793 22.008 165.291 22.008C164.79 22.008 164.374 22.1733 164.043 22.504C163.723 22.824 163.531 23.2827 163.467 23.88ZM170.823 29V20.424H173.095L173.175 22.92L172.999 22.872C173.137 22.008 173.383 21.384 173.735 21C174.087 20.616 174.572 20.424 175.191 20.424H175.975V22.408H175.191C174.743 22.408 174.375 22.4667 174.087 22.584C173.799 22.7013 173.58 22.888 173.431 23.144C173.292 23.4 173.223 23.7467 173.223 24.184V29H170.823Z" fill="white"/>
<defs>
<linearGradient id="paint0_linear_284_47" x1="0" y1="23.5" x2="206" y2="23.5" gradientUnits="userSpaceOnUse">
<stop stop-color="#9900B1"/>
<stop offset="1" stop-color="#7511E2"/>
</linearGradient>
</defs>
</svg>
