<svg xmlns="http://www.w3.org/2000/svg" width="56" height="46" fill="none" viewBox="0 0 56 46"><g clip-path="url(#clip0)"><path fill="#3D3F48" d="M0 7h56v33H0z"/><path fill="#258BD6" d="M0 40h56v2a4 4 0 01-4 4H4a4 4 0 01-4-4v-2z"/><path fill="#C9D0E2" d="M56 7H0V4a4 4 0 014-4h48a4 4 0 014 4v3z"/><path fill="#696D7A" d="M4.5 5a1.5 1.5 0 100-3 1.5 1.5 0 000 3zM9.5 5a1.5 1.5 0 100-3 1.5 1.5 0 000 3zM14.5 5a1.5 1.5 0 100-3 1.5 1.5 0 000 3z"/><path fill="#C9D0E2" d="M27 18h-6a1 1 0 100 2h6a1 1 0 100-2z"/><path fill="#696D7A" d="M41 18h-6a1 1 0 100 2h6a1 1 0 100-2zM32 19a1 1 0 10-2 0 1 1 0 002 0z"/><path fill="#C9D0E2" d="M48 24a1 1 0 10-2 0 1 1 0 002 0zM39 29a1 1 0 10-2 0 1 1 0 002 0z"/><path fill="#696D7A" d="M22 29a1 1 0 10-2 0 1 1 0 002 0z"/><path fill="#C9D0E2" d="M49 13h-6a1 1 0 100 2h6a1 1 0 100-2zM50 33h-4a1 1 0 100 2h4a1 1 0 100-2zM27 23h-6a1 1 0 100 2h6a1 1 0 100-2zM27 33h-6a1 1 0 100 2h6a1 1 0 100-2z"/><path fill="#696D7A" d="M43 23H31a1 1 0 100 2h12a1 1 0 100-2zM47 28h-5a1 1 0 100 2h5a1 1 0 100-2zM34 28h-9a1 1 0 100 2h9a1 1 0 100-2z"/><path fill="#000" d="M56 7H0v3h56V7z"/><path fill="#696D7A" d="M39 13H21a1 1 0 100 2h18a1 1 0 100-2z"/><path fill="#747986" fill-opacity=".8" d="M17 7H0v33h17V7z"/><path fill="#3C3F48" d="M17 7H0v3h17V7z"/><path fill="#696D7A" d="M42 33H31a1 1 0 100 2h11a1 1 0 100-2z"/></g><defs><clipPath id="clip0"><path fill="#fff" d="M0 0h56v46H0z"/></clipPath></defs></svg>