<svg width="160" height="24" viewBox="0 0 160 24" fill="none" xmlns="http://www.w3.org/2000/svg">
	<g clip-path="url(#clip0_230_2869)">
		<path d="M160 0.649414H140.354V23.3582H160V0.649414Z" fill="#090B0B"/>
		<path d="M90.2695 23.3508H109.75V18.486H97.734V14.0111H108.047V9.69715H97.734V5.35075H109.521V0.647949H90.2695V23.3508Z" fill="#090B0B"/>
		<path d="M28.6479 13.8156L21.1834 13.6536C20.8563 16.962 17.9647 19.0368 14.9302 19.0368C10.7716 19.0368 7.69467 16.2804 7.69467 11.9988C7.69467 7.7172 10.7728 4.92 14.9302 4.8312C17.9647 4.7664 20.9217 6.9396 21.118 10.248L28.5825 10.0212C28.4189 4.0536 23.2778 0 14.9302 0C6.58263 0 0 4.6704 0 12C0 19.3296 6.28584 24 14.9302 24C23.5746 24 28.4516 19.8816 28.6479 13.8156Z" fill="#090B0B"/>
		<path d="M60.1015 12C60.1015 4.7676 54.1863 0 45.6957 0C37.2052 0 31.29 4.7676 31.29 12C31.29 19.2324 37.2052 24 45.6957 24C54.1863 24 60.1015 19.2648 60.1015 12ZM45.6957 4.7676C49.6654 4.7676 52.408 7.7184 52.408 12C52.408 16.2816 49.6666 19.1028 45.6957 19.1028C41.7248 19.1028 38.9847 16.2156 38.9847 12C38.9847 7.7844 41.7551 4.7676 45.6957 4.7676Z" fill="#090B0B"/>
		<path d="M62.7432 23.3508H72.2379C81.4384 23.3508 87.6261 19.1027 87.6261 11.9999C87.6261 4.89715 81.4384 0.647949 72.2379 0.647949H62.7432V23.3508ZM79.998 11.9999C79.998 16.3463 76.7564 18.8112 71.9109 18.8112H70.2743V5.15635H71.9109C76.7564 5.15635 79.998 7.58875 79.998 11.9999Z" fill="#090B0B"/>
		<path d="M113.052 23.3508H120.582V15.7295H122.579C124.969 15.7295 127.096 16.6704 127.719 19.2972L128.44 23.3508H137.05L136.133 18.972C135.245 15.4248 133.099 13.0967 128.571 12.8087V12.6155C133.22 12.6155 136.068 10.5395 136.068 7.19995C136.068 3.14635 131.878 0.647949 125.002 0.647949H113.052V23.3508ZM128.538 8.36755C128.538 10.4759 126.934 11.7407 124.348 11.7407H120.583V5.02675H124.348C126.934 5.02675 128.538 6.29155 128.538 8.36755Z" fill="#090B0B"/>
	</g>
	<defs>
		<clipPath id="clip0_230_2869">
			<rect width="160" height="24" fill="white"/>
		</clipPath>
	</defs>
</svg>
