<svg width="120" height="120" viewBox="0 0 120 120" fill="none" xmlns="http://www.w3.org/2000/svg">
<g clip-path="url(#clip0_291_81)">
<path d="M2.3851 119.063L59.3935 60.6262C59.5695 60.4524 59.6787 60.2222 59.702 59.9759C59.7253 59.7296 59.6612 59.483 59.5209 59.2793C56.0543 54.4394 49.6575 53.6001 47.2866 50.3479C40.2644 40.7151 38.4826 35.2616 35.4647 35.6001C35.2541 35.6304 35.0605 35.7325 34.9166 35.8893L14.3235 56.9999C2.47534 69.1349 0.772844 95.8827 0.465344 118.281C0.464324 118.504 0.530042 118.722 0.654038 118.908C0.778034 119.093 0.95463 119.237 1.16109 119.321C1.36755 119.405 1.59442 119.425 1.81249 119.379C2.03056 119.333 2.23026 119.223 2.3851 119.063Z" fill="#017CEE"/>
<path d="M119.053 117.619L60.6169 60.6066C60.4429 60.4301 60.2123 60.3206 59.9656 60.2973C59.7189 60.274 59.4719 60.3384 59.2679 60.4792C54.4281 63.9477 53.5887 70.3426 50.3365 72.7135C40.7037 79.7357 35.2503 81.5175 35.5887 84.5354C35.6195 84.7453 35.7216 84.9381 35.8779 85.0815L56.9886 105.675C69.1236 117.523 95.8714 119.225 118.27 119.533C118.492 119.533 118.709 119.467 118.893 119.343C119.077 119.22 119.22 119.044 119.304 118.839C119.388 118.634 119.409 118.408 119.364 118.191C119.32 117.974 119.211 117.774 119.053 117.619Z" fill="#00AD46"/>
<path d="M56.9925 105.675C50.3587 99.203 47.2847 86.4009 59.9979 60.0009C39.3298 69.2377 32.0876 81.3788 35.6492 84.855L56.9925 105.675Z" fill="#04D659"/>
<path d="M117.609 0.948092L60.6028 59.3843C60.4265 59.558 60.317 59.7883 60.2937 60.0346C60.2704 60.281 60.3348 60.5277 60.4754 60.7313C63.944 65.5712 70.337 66.4105 72.7098 69.6627C79.7319 79.2955 81.5157 84.749 84.5317 84.4105C84.7423 84.3806 84.9361 84.2783 85.0798 84.1213L105.673 63.0107C117.521 50.8757 119.224 24.1279 119.531 1.72912C119.531 1.50626 119.465 1.28836 119.341 1.10336C119.217 0.918362 119.04 0.774705 118.834 0.690815C118.627 0.606926 118.4 0.58663 118.182 0.632532C117.964 0.678434 117.765 0.788093 117.609 0.948092Z" fill="#00C7D4"/>
<path d="M105.684 63.0103C99.2123 69.6441 86.4103 72.7181 60.0084 60.0049C69.2451 80.673 81.3862 87.9152 84.8625 84.3536L105.684 63.0103Z" fill="#11E1EE"/>
<path d="M0.939104 2.39015L59.3753 59.3967C59.5492 59.5727 59.7794 59.6819 60.0257 59.7052C60.272 59.7285 60.5186 59.6644 60.7223 59.5241C65.5622 56.0556 66.4015 49.6607 69.6537 47.2897C79.2865 40.2676 84.74 38.4858 84.4015 35.4679C84.3708 35.2574 84.2687 35.064 84.1123 34.9198L63.0017 14.3267C50.8667 2.47853 24.1189 0.77603 1.72014 0.468529C1.49682 0.467076 1.2782 0.532634 1.09253 0.656729C0.906857 0.780825 0.762673 0.957754 0.678609 1.16465C0.594545 1.37155 0.574465 1.5989 0.620965 1.81733C0.667465 2.03576 0.778059 2.23543 0.939104 2.39015Z" fill="#E43921"/>
<path d="M63.0112 14.3288C69.645 20.8008 72.719 33.6028 60.0058 60.0047C80.6739 50.768 87.9161 38.625 84.3545 35.1506L63.0112 14.3288Z" fill="#FF7557"/>
<path d="M14.3241 57C20.7961 50.3662 33.5981 47.2922 60 60.0054C50.7633 39.3373 38.6222 32.0951 35.1459 35.6567L14.3241 57Z" fill="#0CB6FF"/>
<path d="M60.0084 62.5436C61.4158 62.5436 62.5567 61.4027 62.5567 59.9953C62.5567 58.5879 61.4158 57.447 60.0084 57.447C58.601 57.447 57.4601 58.5879 57.4601 59.9953C57.4601 61.4027 58.601 62.5436 60.0084 62.5436Z" fill="#4A4848"/>
</g>
<defs>
<clipPath id="clip0_291_81">
<rect width="120" height="120" fill="white"/>
</clipPath>
</defs>
</svg>
