<svg width="256" height="256" viewBox="0 0 256 256" fill="none" xmlns="http://www.w3.org/2000/svg">
<g clip-path="url(#clip0_2201_2)">
<mask id="mask0_2201_2" style="mask-type:luminance" maskUnits="userSpaceOnUse" x="0" y="0" width="256" height="256">
<path d="M256 0H0V256H256V0Z" fill="white"/>
</mask>
<g mask="url(#mask0_2201_2)">
<path d="M5.08818 254.001L126.706 129.336C127.082 128.965 127.315 128.474 127.364 127.949C127.414 127.423 127.277 126.897 126.978 126.462C119.582 116.137 105.936 114.347 100.878 107.409C85.8974 86.8588 82.0962 75.2247 75.658 75.9468C75.2087 76.0115 74.7957 76.2293 74.4887 76.5638L30.5568 121.6C5.28069 147.488 1.6487 204.55 0.992701 252.333C0.990525 252.809 1.13072 253.274 1.39525 253.67C1.65977 254.065 2.03651 254.372 2.47696 254.551C2.91741 254.731 3.4014 254.773 3.86661 254.675C4.33183 254.577 4.75785 254.342 5.08818 254.001Z" fill="#017CEE"/>
<path d="M253.98 250.921L129.316 129.294C128.945 128.918 128.453 128.684 127.927 128.634C127.4 128.585 126.873 128.722 126.438 129.022C116.113 136.422 114.322 150.064 107.384 155.122C86.8345 170.103 75.2005 173.904 75.9225 180.342C75.9882 180.79 76.206 181.201 76.5394 181.507L121.576 225.44C147.464 250.716 204.526 254.347 252.309 255.004C252.783 255.004 253.246 254.863 253.638 254.598C254.031 254.336 254.336 253.961 254.515 253.523C254.694 253.086 254.739 252.604 254.643 252.141C254.549 251.678 254.317 251.251 253.98 250.921Z" fill="#00AD46"/>
<path d="M121.584 225.44C107.432 211.633 100.874 184.322 127.995 128.002C83.9035 147.707 68.4535 173.608 76.0515 181.024L121.584 225.44Z" fill="#04D659"/>
<path d="M250.899 2.02257L129.286 126.686C128.91 127.057 128.676 127.548 128.627 128.074C128.577 128.599 128.714 129.126 129.014 129.56C136.414 139.885 150.052 141.676 155.114 148.614C170.095 169.164 173.9 180.798 180.334 180.076C180.784 180.012 181.197 179.794 181.504 179.459L225.436 134.423C250.711 108.535 254.344 51.4728 254.999 3.68877C254.999 3.21333 254.859 2.74848 254.594 2.35381C254.33 1.95915 253.952 1.65268 253.513 1.47371C253.071 1.29475 252.587 1.25145 252.122 1.34938C251.656 1.4473 251.232 1.68124 250.899 2.02257Z" fill="#00C7D4"/>
<path d="M225.459 134.422C211.653 148.574 184.342 155.132 128.018 128.01C147.723 172.102 173.624 187.552 181.04 179.954L225.459 134.422Z" fill="#11E1EE"/>
<path d="M2.00336 5.09896L126.667 126.713C127.038 127.088 127.529 127.321 128.055 127.371C128.58 127.421 129.106 127.284 129.541 126.985C139.866 119.585 141.656 105.943 148.594 100.885C169.144 85.9042 180.779 82.103 180.056 75.6648C179.991 75.2158 179.773 74.8032 179.439 74.4955L134.404 30.5636C108.516 5.2875 51.4536 1.6555 3.66957 0.999501C3.19315 0.996401 2.72676 1.13626 2.33067 1.40099C1.93456 1.66573 1.62697 2.04318 1.44763 2.48456C1.2683 2.92595 1.22546 3.41096 1.32466 3.87694C1.42386 4.34293 1.65979 4.76889 2.00336 5.09896Z" fill="#E43921"/>
<path d="M134.424 30.5681C148.576 44.375 155.134 71.6859 128.012 128.01C172.104 108.305 187.554 82.3999 179.956 74.9879L134.424 30.5681Z" fill="#FF7557"/>
<path d="M30.5581 121.6C44.365 107.448 71.676 100.89 128 128.011C108.295 83.9195 82.394 68.4695 74.9779 76.0676L30.5581 121.6Z" fill="#0CB6FF"/>
<path d="M128.018 133.426C131.02 133.426 133.454 130.992 133.454 127.99C133.454 124.988 131.02 122.554 128.018 122.554C125.015 122.554 122.582 124.988 122.582 127.99C122.582 130.992 125.015 133.426 128.018 133.426Z" fill="#4A4848"/>
</g>
</g>
<defs>
<clipPath id="clip0_2201_2">
<rect width="256" height="256" fill="white"/>
</clipPath>
</defs>
</svg>
