<svg width="256" height="256" viewBox="0 0 256 256" fill="none" xmlns="http://www.w3.org/2000/svg">
<mask id="mask0_2118_879" style="mask-type:luminance" maskUnits="userSpaceOnUse" x="0" y="2" width="256" height="251">
<path d="M256 2H0V253H256V2Z" fill="white"/>
</mask>
<g mask="url(#mask0_2118_879)">
<path d="M235.385 143.744C246.291 142.904 255.101 150.047 255.939 160.973C256.778 172.319 248.808 181.563 237.902 182.404C227.415 183.244 218.186 175.26 217.348 164.755C216.509 153.409 224.059 145.005 235.385 143.744Z" fill="#86DA2F"/>
<path d="M143.1 116.85C142.261 115.59 142.68 114.329 143.939 113.489C167.849 91.6373 203.505 87.4352 231.19 108.866C238.321 114.749 242.936 126.935 239.16 134.079C237.482 137.021 235.385 138.281 232.868 139.122C226.995 141.643 221.542 144.164 217.767 149.627C213.992 155.09 213.153 161.393 214.831 168.116C216.089 173.579 218.186 179.462 212.733 184.505C209.797 187.446 195.535 189.968 191.759 187.446C190.081 186.186 190.501 184.925 190.92 183.244C192.179 172.739 189.662 163.074 185.887 153.829C184.628 150.467 185.048 148.787 188.404 147.946C194.276 146.265 199.729 143.324 203.924 139.122C213.153 130.297 211.055 118.951 198.89 113.909C189.242 109.707 179.175 110.547 169.527 111.387C160.299 111.808 151.489 114.329 143.1 116.85Z" fill="#86DA2F"/>
<path d="M102.83 233.25C102.83 222.324 111.22 213.92 121.287 213.92C131.354 213.92 141.002 223.165 141.002 233.67C141.002 243.755 132.613 252.58 122.965 253C110.8 253 102.83 245.436 102.83 233.25Z" fill="#24C2FF"/>
<path d="M137.647 127.776C138.905 126.515 139.744 126.935 141.002 127.776C168.688 144.584 182.95 177.781 170.366 210.138C167.01 218.542 156.104 226.947 148.134 224.846C144.778 224.005 143.1 222.324 141.422 220.223C137.647 215.181 133.452 210.558 127.16 208.457C120.448 206.356 114.575 207.617 108.703 210.978C103.669 213.92 98.6352 217.702 92.3431 213.92C88.5678 211.819 82.2756 198.792 83.534 194.59C84.373 192.909 86.0509 192.909 87.7288 192.909C98.2158 191.228 106.605 186.186 114.575 179.462C117.092 177.361 119.19 177.361 121.287 180.303C124.643 185.345 128.838 189.547 134.291 192.489C145.197 198.792 155.684 193.329 156.943 180.723C158.201 170.218 154.426 160.973 151.07 151.728C147.295 143.324 142.68 135.34 137.647 127.776Z" fill="#24C2FF"/>
<path d="M124.223 130.297C122.545 138.701 118.77 146.686 113.736 153.829C98.6353 176.521 76.8224 185.766 49.9758 183.244C40.3278 182.404 32.3578 174.42 31.5188 166.436C31.0993 163.074 31.9383 160.553 34.0357 158.031C36.972 154.249 39.4889 150.888 40.7473 146.265C43.2642 137.021 39.9084 129.457 33.1967 122.733C23.9682 113.489 25.2266 105.084 36.1331 98.3608C37.3915 97.5203 39.0694 96.6799 40.7473 95.8395C43.2642 94.5788 45.3616 94.5788 46.2005 97.5203C49.9758 107.185 57.5264 114.329 65.916 120.212C68.8523 122.733 68.8523 124.414 66.3355 127.356C61.3017 132.818 58.3654 139.542 57.9459 147.106C57.107 156.35 62.5602 162.233 71.7887 162.233C77.6614 162.233 83.1146 160.132 88.1483 157.611C101.152 150.888 111.22 141.223 120.868 131.138C122.126 130.717 122.545 129.877 124.223 130.297Z" fill="#0069DA"/>
<path d="M21.0319 160.132C10.9644 161.393 0.896929 152.989 0.057973 142.483C-0.780983 132.398 7.60857 122.313 17.2566 121.473C28.163 120.212 38.2304 127.776 39.0694 137.861C39.4889 147.526 33.1967 159.292 21.0319 160.132Z" fill="#0069DA"/>
<path d="M132.613 110.547C130.935 111.387 130.096 110.127 129.677 108.866C114.156 79.8713 118.77 43.3125 146.036 21.4613C153.167 15.5783 166.591 14.3177 172.463 20.2007C174.98 22.3018 175.4 24.8231 175.819 27.7646C176.658 34.0678 177.917 40.371 182.111 45.4136C186.726 50.8764 192.598 52.9775 199.31 52.5573C205.183 52.5573 211.055 51.7169 214.831 58.4403C216.928 62.2222 216.089 76.9298 212.733 79.8713C211.055 81.1319 209.797 80.2915 208.538 79.8713C198.89 76.0893 188.823 76.0893 178.755 77.7702C175.4 78.1904 173.722 77.35 173.722 73.5681C173.302 67.2648 172.044 61.3818 168.688 55.919C162.396 44.5732 150.65 44.153 143.1 54.6584C136.808 63.0627 135.13 73.1478 133.452 83.233C131.774 92.0575 132.193 101.302 132.613 110.547Z" fill="#FFCB12"/>
<path d="M197.213 10.5358C207.699 9.69534 217.767 18.0996 218.606 28.605C219.445 38.6902 211.055 48.3551 200.988 49.1956C190.081 50.036 180.433 42.0519 179.594 31.5465C178.756 21.0411 186.306 11.3762 197.213 10.5358Z" fill="#FFCB12"/>
<path d="M55.4292 42.0518C56.2681 42.0518 58.3655 42.472 60.4629 42.8922C75.9836 45.8337 85.6316 40.3709 90.6653 25.6634C94.0211 15.9984 101.152 13.0569 110.381 18.0995C110.8 18.0995 110.8 18.5197 111.22 18.5197C120.868 23.9825 120.868 24.823 114.995 33.2273C109.961 39.9507 107.444 47.5146 106.186 55.4987C105.347 60.1211 103.669 60.9615 99.4743 59.2806C92.7627 56.7593 85.6316 56.7593 78.5004 59.2806C70.5304 61.8019 67.1745 68.9456 69.6914 76.9297C73.0472 87.435 82.2757 92.0574 90.2458 97.5202C98.2159 102.983 107.444 105.925 116.253 109.707C117.512 110.127 119.609 110.127 119.19 112.228C118.77 113.489 117.092 113.489 115.414 113.489C96.538 114.329 78.5004 111.387 63.8187 98.7809C49.976 87.4351 39.9085 73.5679 41.5864 54.238C42.8448 47.9348 47.4591 43.3124 55.4292 42.0518Z" fill="#FF4649"/>
<path d="M87.7288 18.5198C88.9872 29.4454 81.4366 38.6902 70.1107 40.371C60.4627 41.6317 50.3952 33.6476 49.1368 24.4028C47.8784 12.2166 54.59 3.39208 65.9159 2.13143C76.4029 0.87079 86.4703 8.85488 87.7288 18.5198Z" fill="#FF4649"/>
</g>
</svg>
