<svg width="256" height="251" viewBox="0 0 256 251" fill="none" xmlns="http://www.w3.org/2000/svg">
<g clip-path="url(#clip0_2115_1558)">
<path d="M235.385 141.744C246.291 140.904 255.101 148.047 255.939 158.973C256.778 170.319 248.808 179.563 237.902 180.404C227.415 181.244 218.186 173.26 217.348 162.755C216.509 151.409 224.059 143.005 235.385 141.744Z" fill="#86DA2F"/>
<path d="M143.1 114.85C142.261 113.59 142.68 112.329 143.939 111.489C167.849 89.6373 203.505 85.4352 231.19 106.866C238.321 112.749 242.936 124.935 239.16 132.079C237.482 135.021 235.385 136.281 232.868 137.122C226.995 139.643 221.542 142.164 217.767 147.627C213.992 153.09 213.153 159.393 214.831 166.116C216.089 171.579 218.186 177.462 212.733 182.505C209.797 185.446 195.535 187.968 191.759 185.446C190.081 184.186 190.501 182.925 190.92 181.244C192.179 170.739 189.662 161.074 185.887 151.829C184.628 148.467 185.048 146.787 188.404 145.946C194.276 144.265 199.729 141.324 203.924 137.122C213.153 128.297 211.055 116.951 198.89 111.909C189.242 107.707 179.175 108.547 169.527 109.387C160.299 109.808 151.489 112.329 143.1 114.85Z" fill="#86DA2F"/>
<path d="M102.83 231.25C102.83 220.324 111.22 211.92 121.287 211.92C131.354 211.92 141.002 221.165 141.002 231.67C141.002 241.755 132.613 250.58 122.965 251C110.8 251 102.83 243.436 102.83 231.25Z" fill="#24C2FF"/>
<path d="M137.647 125.776C138.905 124.515 139.744 124.935 141.002 125.776C168.688 142.584 182.95 175.781 170.366 208.138C167.01 216.542 156.104 224.947 148.134 222.846C144.778 222.005 143.1 220.324 141.422 218.223C137.647 213.181 133.452 208.558 127.16 206.457C120.448 204.356 114.575 205.617 108.703 208.978C103.669 211.92 98.6352 215.702 92.3431 211.92C88.5678 209.819 82.2756 196.792 83.534 192.59C84.373 190.909 86.0509 190.909 87.7288 190.909C98.2158 189.228 106.605 184.186 114.575 177.462C117.092 175.361 119.19 175.361 121.287 178.303C124.643 183.345 128.838 187.547 134.291 190.489C145.197 196.792 155.684 191.329 156.943 178.723C158.201 168.218 154.426 158.973 151.07 149.728C147.295 141.324 142.68 133.34 137.647 125.776Z" fill="#24C2FF"/>
<path d="M124.223 128.297C122.545 136.701 118.77 144.686 113.736 151.829C98.6353 174.521 76.8224 183.766 49.9758 181.244C40.3278 180.404 32.3578 172.42 31.5188 164.436C31.0993 161.074 31.9383 158.553 34.0357 156.031C36.972 152.249 39.4889 148.888 40.7473 144.265C43.2642 135.021 39.9084 127.457 33.1967 120.733C23.9682 111.489 25.2266 103.084 36.1331 96.3608C37.3915 95.5203 39.0694 94.6799 40.7473 93.8395C43.2642 92.5788 45.3616 92.5788 46.2005 95.5203C49.9758 105.185 57.5264 112.329 65.916 118.212C68.8523 120.733 68.8523 122.414 66.3355 125.356C61.3017 130.818 58.3654 137.542 57.9459 145.106C57.107 154.35 62.5602 160.233 71.7887 160.233C77.6614 160.233 83.1146 158.132 88.1483 155.611C101.152 148.888 111.22 139.223 120.868 129.138C122.126 128.717 122.545 127.877 124.223 128.297Z" fill="#0069DA"/>
<path d="M21.0319 158.132C10.9644 159.393 0.896929 150.989 0.057973 140.483C-0.780983 130.398 7.60857 120.313 17.2566 119.473C28.163 118.212 38.2304 125.776 39.0694 135.861C39.4889 145.526 33.1967 157.292 21.0319 158.132Z" fill="#0069DA"/>
<path d="M132.613 108.547C130.935 109.387 130.096 108.127 129.677 106.866C114.156 77.8713 118.77 41.3125 146.036 19.4613C153.167 13.5783 166.591 12.3177 172.463 18.2007C174.98 20.3018 175.4 22.8231 175.819 25.7646C176.658 32.0678 177.917 38.371 182.111 43.4136C186.726 48.8764 192.598 50.9775 199.31 50.5573C205.183 50.5573 211.055 49.7169 214.831 56.4403C216.928 60.2222 216.089 74.9298 212.733 77.8713C211.055 79.1319 209.797 78.2915 208.538 77.8713C198.89 74.0893 188.823 74.0893 178.755 75.7702C175.4 76.1904 173.722 75.35 173.722 71.5681C173.302 65.2648 172.044 59.3818 168.688 53.919C162.396 42.5732 150.65 42.153 143.1 52.6584C136.808 61.0627 135.13 71.1478 133.452 81.233C131.774 90.0575 132.193 99.3023 132.613 108.547Z" fill="#FFCB12"/>
<path d="M197.213 8.53574C207.699 7.69531 217.767 16.0996 218.606 26.605C219.445 36.6902 211.055 46.3551 200.988 47.1956C190.081 48.036 180.433 40.0519 179.594 29.5465C178.756 19.0411 186.306 9.37617 197.213 8.53574Z" fill="#FFCB12"/>
<path d="M55.4291 40.0519C56.268 40.0519 58.3654 40.4721 60.4628 40.8923C75.9835 43.8338 85.6315 38.371 90.6652 23.6635C94.021 13.9985 101.152 11.057 110.381 16.0996C110.8 16.0996 110.8 16.5198 111.22 16.5198C120.868 21.9826 120.868 22.8231 114.995 31.2274C109.961 37.9508 107.444 45.5147 106.186 53.4988C105.347 58.1212 103.669 58.9616 99.4742 57.2807C92.7626 54.7594 85.6315 54.7594 78.5003 57.2807C70.5303 59.802 67.1744 66.9457 69.6913 74.9298C73.0471 85.4351 82.2756 90.0575 90.2457 95.5203C98.2158 100.983 107.444 103.925 116.253 107.707C117.512 108.127 119.609 108.127 119.19 110.228C118.77 111.489 117.092 111.489 115.414 111.489C96.5379 112.329 78.5003 109.387 63.8186 96.781C49.9759 85.4352 39.9084 71.568 41.5863 52.2381C42.8447 45.9349 47.459 41.3125 55.4291 40.0519Z" fill="#FF4649"/>
<path d="M87.7289 16.5198C88.9873 27.4454 81.4367 36.6902 70.1108 38.371C60.4628 39.6317 50.3953 31.6476 49.1369 22.4028C47.8785 10.2166 54.5901 1.39208 65.916 0.131433C76.403 -1.12921 86.4704 6.85488 87.7289 16.5198Z" fill="#FF4649"/>
</g>
<defs>
<clipPath id="clip0_2115_1558">
<rect width="256" height="251" fill="white"/>
</clipPath>
</defs>
</svg>
