<svg xmlns="http://www.w3.org/2000/svg" id="Layer_1" x="0" y="0" version="1.1" xml:space="preserve" viewBox="0 0 61.028259 59.731277">
  <defs/>
  <style id="style2" type="text/css">
    .st1{fill:#86da2f}.st2{fill:#24c2ff}.st3{fill:#ffcb12}.st4{fill:#0069da}.st5{fill:#ff4649}
  </style>
  <path id="path22" d="M56.11382 33.731278c2.6-.2 4.7 1.5 4.9 4.1.2 2.7-1.7 4.9-4.3 5.1-2.5.2-4.7-1.7-4.9-4.2-.2-2.7 1.6-4.7 4.3-5z" class="st1"/>
  <path id="path24" d="M24.51382 55.031278c0-2.6 2-4.6 4.4-4.6 2.4 0 4.7 2.2 4.7 4.7 0 2.4-2 4.5-4.3 4.6-2.9 0-4.8-1.8-4.8-4.7z" class="st2"/>
  <path id="path26" d="M31.61382 25.831278c-.4.2-.6-.1-.7-.4-3.7-6.9-2.6-15.6000004 3.9-20.8000004 1.7-1.4 4.9-1.7 6.3-.3.6.5.7 1.1.8 1.8.2 1.5.5 3 1.5 4.2000004 1.1 1.3 2.5 1.8 4.1 1.7 1.4 0 2.8-.2 3.7 1.4.5.9.3 4.4-.5 5.1-.4.3-.7.1-1 0-2.3-.9-4.7-.9-7.1-.5-.8.1-1.2-.1-1.2-1-.1-1.5-.4-2.9-1.2-4.2-1.5-2.7-4.3-2.8-6.1-.3-1.5 2-1.9 4.4-2.3 6.8-.4 2.1-.3 4.3-.2 6.5 0 0-.1 0 0 0z" class="st3"/>
  <path id="path28" d="M34.11382 27.331278c-.2-.3-.1-.6.2-.8 5.7-5.2 14.2-6.2 20.8-1.1 1.7 1.4 2.8 4.3 1.9 6-.4.7-.9 1-1.5 1.2-1.4.6-2.7 1.2-3.6 2.5-.9 1.3-1.1 2.8-.7 4.4.3 1.3.8 2.7-.5 3.9-.7.7-4.1 1.3-5 .7-.4-.3-.3-.6-.2-1 .3-2.5-.3-4.8-1.2-7-.3-.8-.2-1.2.6-1.4 1.4-.4 2.7-1.1 3.7-2.1 2.2-2.1 1.7-4.8-1.2-6-2.3-1-4.7-.8-7-.6-2.2.1-4.3.7-6.3 1.3z" class="st1"/>
  <path id="path30" d="M32.81382 29.931278c.3-.3.5-.2.8 0 6.6 4 10 11.9 7 19.6-.8 2-3.4 4-5.3 3.5-.8-.2-1.2-.6-1.6-1.1-.9-1.2-1.9-2.3-3.4-2.8-1.6-.5-3-.2-4.4.6-1.2.7-2.4 1.6-3.9.7-.9-.5-2.4-3.6-2.1-4.6.2-.4.6-.4 1-.4 2.5-.4 4.5-1.6 6.4-3.2.6-.5 1.1-.5 1.6.2.8 1.2 1.8 2.2 3.1 2.9 2.6 1.5 5.1.2 5.4-2.8.3-2.5-.6-4.7-1.4-6.9-.9-2-2-3.9-3.2-5.7z" class="st2"/>
  <path id="path32" d="M29.61382 30.531278c-.4 2-1.3 3.9-2.5 5.6-3.6 5.4-8.8 7.6-15.2 7-2.2999997-.2-4.1999997-2.1-4.3999997-4-.1-.8.1-1.4.6-2 .7-.9 1.3-1.7 1.6-2.8.5999997-2.2-.2-4-1.8-5.6-2.2-2.2-1.9-4.2.7-5.8.3-.2.7-.4 1.1-.6.5999997-.3 1.0999997-.3 1.2999997.4.9 2.3 2.7 4 4.7 5.4.7.6.7 1 .1 1.7-1.2 1.3-1.9 2.9-2 4.7-.2 2.2 1.1 3.6 3.3 3.6 1.4 0 2.7-.5 3.9-1.1 3.1-1.6 5.5-3.9 7.8-6.3.3-.1.4-.3.8-.2z" class="st4"/>
  <path id="path34" d="M13.21382 9.5312776c.2 0 .7.1 1.2.2 3.7.7000004 6-.6 7.2-4.1.8-2.3 2.5-3 4.7-1.8.1 0 .1.1.2.1 2.3 1.3 2.3 1.5.9 3.5-1.2 1.6-1.8 3.4000004-2.1 5.3000004-.2 1.1-.6 1.3-1.6.9-1.6-.6-3.3-.6-5 0-1.9.6-2.7 2.3-2.1 4.2.8 2.5 3 3.6 4.9 4.9 1.9 1.3 4.1 2 6.2 2.9.3.1.8.1.7.6-.1.3-.5.3-.9.3-4.5.2-8.8-.5-12.3-3.5-3.3-2.7-5.6999997-6-5.2999997-10.6.2999997-1.5 1.3999997-2.6000004 3.2999997-2.9000004z" class="st5"/>
  <path id="path36" d="M5.0138203 37.631278c-2.4.3-4.80000003-1.7-5.00000003-4.2-.2-2.4 1.80000003-4.8 4.10000003-5 2.6-.3 5 1.5 5.2 3.9.1 2.3-1.4 5.1-4.3 5.3z" class="st4"/>
  <path id="path38" d="M47.01382 2.0312776c2.5-.2 4.9 1.8 5.1 4.3.2 2.4-1.8 4.7000004-4.2 4.9000004-2.6.2-4.9-1.7000004-5.1-4.2000004-.2-2.5 1.6-4.8 4.2-5z" class="st3"/>
  <path id="path40" d="M20.91382 3.9312776c.3 2.6-1.5 4.8-4.2 5.2-2.3.3-4.7-1.6-5-3.8-.3-2.9 1.3-4.99999996 4-5.29999996 2.5-.3 4.9 1.59999996 5.2 3.89999996z" class="st5"/>
</svg>
