<svg width="256" height="256" viewBox="0 0 256 256" fill="none" xmlns="http://www.w3.org/2000/svg">
<g clip-path="url(#clip0_2115_1892)">
<path d="M145.314 4.21757C134.461 -2.03916 121.062 -2.03916 110.21 4.21757L29.7581 50.6724C18.9057 56.9291 12.2061 68.5567 12.2061 81.0702V173.98C12.2061 186.549 18.9057 198.121 29.7581 204.378L110.21 250.832C121.062 257.089 134.461 257.089 145.314 250.832L225.765 204.378C236.618 198.121 243.318 186.493 243.318 173.98V81.0702C243.318 68.5013 236.618 56.9291 225.765 50.6724L145.314 4.21757Z" fill="url(#paint0_linear_2115_1892)"/>
<path d="M137.84 125.698L130.808 139.762L197.528 178.409L204.56 164.346L137.84 125.698ZM129.036 112.631C127.929 112.022 126.6 112.022 125.548 112.631L113.865 119.386C112.757 119.995 112.093 121.158 112.093 122.431V135.941C112.093 137.215 112.757 138.377 113.865 138.986L125.548 145.742C126.655 146.351 127.984 146.351 129.036 145.742L140.719 138.986C141.826 138.377 142.491 137.215 142.491 135.941V122.431C142.491 121.158 141.826 119.995 140.719 119.386L129.036 112.631ZM122.89 53.7177C127.264 51.2261 132.58 51.2261 136.954 53.7177L191.326 85.1121C195.701 87.6037 198.358 92.2548 198.358 97.2934V160.082C198.358 165.121 195.701 169.716 191.326 172.263L136.954 203.658C132.58 206.149 127.264 206.149 122.89 203.658L68.5173 172.263C64.1431 169.772 61.4854 165.121 61.4854 160.082V97.2934C61.4854 92.2548 64.1431 87.6591 68.5173 85.1121L122.89 53.7177ZM114.086 38.1036L57.0004 71.0483C48.3075 76.0869 42.9366 85.3336 42.9366 95.4108V161.3C42.9366 171.322 48.3075 180.624 57.0004 185.663L114.086 218.608C122.779 223.646 133.465 223.646 142.214 218.608L199.3 185.663C207.993 180.624 213.363 171.377 213.363 161.3V95.4108C213.363 85.389 207.993 76.0869 199.3 71.0483L142.214 38.1036C133.521 33.065 122.835 33.065 114.086 38.1036Z" fill="white"/>
</g>
<defs>
<linearGradient id="paint0_linear_2115_1892" x1="182.743" y1="9.64377" x2="86.567" y2="194.854" gradientUnits="userSpaceOnUse">
<stop stop-color="#2FABFF"/>
<stop offset="0.3" stop-color="#5570FF"/>
<stop offset="0.6" stop-color="#7B36FF"/>
<stop offset="0.8" stop-color="#6A2CDC"/>
<stop offset="1" stop-color="#5921B8"/>
</linearGradient>
<clipPath id="clip0_2115_1892">
<rect width="256" height="256" fill="white"/>
</clipPath>
</defs>
</svg>
