<?xml version="1.0" encoding="UTF-8"?>
<svg id="katman_1" xmlns="http://www.w3.org/2000/svg" version="1.1" xmlns:xlink="http://www.w3.org/1999/xlink" viewBox="0 0 841.9 595.3">
  <!-- Generator: Adobe Illustrator 29.3.1, SVG Export Plug-In . SVG Version: 2.1.0 Build 151)  -->
  <defs>
    <style>
      .st0 {
        fill: #2e3c4e;
      }

      .st1 {
        opacity: 0;
      }

      .st1, .st2, .st3, .st4, .st5, .st6, .st7, .st8 {
        display: none;
      }

      .st9 {
        fill: #7300e5;
      }

      .st10, .st11 {
        fill: #fff;
      }

      .st12 {
        fill: url(#Adsız_degrade_4);
      }

      .st2 {
        opacity: 0;
      }

      .st13 {
        fill: url(#Adsız_degrade_41);
      }

      .st14 {
        fill: #d7c8f9;
      }

      .st15 {
        fill: none;
      }

      .st16 {
        stroke: #d1d1d6;
        stroke-width: .5px;
      }

      .st16, .st17, .st11 {
        fill-opacity: 0;
      }

      .st3 {
        opacity: 0;
      }

      .st17 {
        stroke: #fff;
        stroke-width: 4px;
      }

      .st4 {
        opacity: 0;
      }

      .st5 {
        opacity: 0;
      }

      .st7 {
        opacity: 0;
      }

      .st18 {
        fill: url(#Adsız_degrade_5);
      }

      .st8 {
        opacity: 0;
      }

      .st19 {
        fill: url(#Adsız_degrade_2);
      }
    </style>
    <mask id="mask" x="69.2" y="33.9" width="704" height="528" maskUnits="userSpaceOnUse">
      <g id="lottie-ymehjmywpqh__lottie_element_1058_2">
        <g>
          <rect class="st11" x="69.2" y="33.9" width="704" height="528"/>
          <g class="st3">
            <path class="st14" d="M324.5,185.8v33.5c0,4.4-3.6,8-8,8h-107.8c-4.4,0-8-3.6-8-8v-33.5c0-4.4,3.6-8,8-8h107.8c4.4,0,8,3.6,8,8Z"/>
          </g>
        </g>
      </g>
    </mask>
    <linearGradient id="Adsız_degrade_2" data-name="Adsız degrade 2" x1="68.8" y1="563" x2="-1.8" y2="563.4" gradientTransform="translate(194.4 765.6) scale(1 -1)" gradientUnits="userSpaceOnUse">
      <stop offset="0" stop-color="#fff"/>
      <stop offset=".5" stop-color="#fff" stop-opacity=".7"/>
      <stop offset="1" stop-color="#fff" stop-opacity=".4"/>
    </linearGradient>
    <mask id="mask-1" x="69.2" y="33.9" width="704" height="528" maskUnits="userSpaceOnUse">
      <g id="lottie-ymehjmywpqh__lottie_element_1038_2">
        <g>
          <rect class="st11" x="69.2" y="33.9" width="704" height="528"/>
          <g class="st3">
            <path d="M329.4,427.5v34c0,4.4-3.6,8-8,8h-127.2c-4.4.1-8-3.5-8-7.9v-34c0-4.4,3.6-8,8-8h127.2c4.4-.1,8,3.5,8,7.9Z"/>
          </g>
        </g>
      </g>
    </mask>
    <linearGradient id="Adsız_degrade_4" data-name="Adsız degrade 4" x1="69.7" y1="567.5" x2="-11.4" y2="566.9" gradientTransform="translate(178.6 1012.1) scale(1 -1)" gradientUnits="userSpaceOnUse">
      <stop offset="0" stop-color="#fff"/>
      <stop offset=".5" stop-color="#fff" stop-opacity=".6"/>
      <stop offset="1" stop-color="#fff" stop-opacity=".2"/>
    </linearGradient>
    <mask id="mask-2" x="69.2" y="33.9" width="704" height="528" maskUnits="userSpaceOnUse">
      <g id="lottie-ymehjmywpqh__lottie_element_1018_2">
        <g>
          <rect class="st11" x="69.2" y="33.9" width="704" height="528"/>
          <g class="st3">
            <path class="st9" d="M689.3,383.8v34.2c-.1,4.4-3.7,8-8.1,8h-150.3c-4.4,0-8-3.6-8-8v-34.2c.1-4.4,3.7-8,8.1-8h150.2c4.4,0,8,3.6,8,8Z"/>
          </g>
        </g>
      </g>
    </mask>
    <linearGradient id="Adsız_degrade_41" data-name="Adsız degrade 4" x1="21.7" y1="568.3" x2="163.7" y2="568.3" gradientTransform="translate(551.4 969.2) scale(1 -1)" xlink:href="#Adsız_degrade_4"/>
    <linearGradient id="Adsız_degrade_5" data-name="Adsız degrade 5" x1="56.8" y1="647.8" x2="-1.1" y2="536.3" gradientTransform="translate(349.3 2027.2) scale(3 -3)" gradientUnits="userSpaceOnUse">
      <stop offset="0" stop-color="#2fabff"/>
      <stop offset=".3" stop-color="#5570ff"/>
      <stop offset=".6" stop-color="#7b36ff"/>
      <stop offset=".8" stop-color="#6a2cdc"/>
      <stop offset="1" stop-color="#5921b8"/>
    </linearGradient>
  </defs>
  <rect class="st15" x="69.2" y="33.9" width="704" height="528"/>
  <g class="st5">
    <path class="st17" d="M424.4,138.3c-2.9-1.6-7.6-1.6-10.5,0l-130.4,69.8c-2.9,1.6-5.3,5.5-5.3,8.8v154.3c0,3.3,2.4,7.3,5.2,8.9l130.4,72.3c2.9,1.6,7.6,1.6,10.5,0l131.5-72.1c2.9-1.6,5.3-5.6,5.3-8.9v-151.8c0-3.3-2.4-7.3-5.3-8.9l-131.5-72.5Z"/>
  </g>
  <g class="st2">
    <path class="st17" d="M424.4,138.3c-2.9-1.6-7.6-1.6-10.5,0l-130.4,69.8c-2.9,1.6-5.3,5.5-5.3,8.8v154.3c0,3.3,2.4,7.3,5.2,8.9l130.4,72.3c2.9,1.6,7.6,1.6,10.5,0l131.5-72.1c2.9-1.6,5.3-5.6,5.3-8.9v-151.8c0-3.3-2.4-7.3-5.3-8.9l-131.5-72.5Z"/>
  </g>
  <g class="st1">
    <path class="st17" d="M424.4,138.3c-2.9-1.6-7.6-1.6-10.5,0l-130.4,69.8c-2.9,1.6-5.3,5.5-5.3,8.8v154.3c0,3.3,2.4,7.3,5.2,8.9l130.4,72.3c2.9,1.6,7.6,1.6,10.5,0l131.5-72.1c2.9-1.6,5.3-5.6,5.3-8.9v-151.8c0-3.3-2.4-7.3-5.3-8.9l-131.5-72.5Z"/>
  </g>
  <g class="st5">
    <path class="st17" d="M424.4,138.3c-2.9-1.6-7.6-1.6-10.5,0l-130.4,69.8c-2.9,1.6-5.3,5.5-5.3,8.8v154.3c0,3.3,2.4,7.3,5.2,8.9l130.4,72.3c2.9,1.6,7.6,1.6,10.5,0l131.5-72.1c2.9-1.6,5.3-5.6,5.3-8.9v-151.8c0-3.3-2.4-7.3-5.3-8.9l-131.5-72.5Z"/>
  </g>
  <g class="st4">
    <path class="st17" d="M424.4,139.4c-2.9-1.6-7.6-1.6-10.5,0l-129.6,69.3c-2.9,1.6-5.3,5.5-5.3,8.8v153.3c0,3.3,2.4,7.3,5.2,8.9l129.6,71.9c2.9,1.6,7.6,1.6,10.5,0l130.7-71.6c2.9-1.6,5.3-5.6,5.3-8.9v-150.9c0-3.3-2.4-7.3-5.3-8.9l-130.7-72Z"/>
  </g>
  <g class="st8">
    <path class="st17" d="M424.4,157.4c-2.9-1.6-7.7-1.6-10.6,0l-115.9,61.1c-2.9,1.5-5.3,5.5-5.3,8.8v135.9c0,3.3,2.4,7.3,5.2,8.9l116,64.5c2.9,1.6,7.6,1.6,10.5,0l117.1-63.3c2.9-1.6,5.3-5.5,5.3-8.9v-135c0-3.3-2.4-7.3-5.3-8.8l-117.1-63.2Z"/>
  </g>
  <g class="st3">
    <g>
      <path class="st19" d="M324.5,185.8v33.5c0,4.4-3.6,8-8,8h-107.8c-4.4,0-8-3.6-8-8v-33.5c0-4.4,3.6-8,8-8h107.8c4.4,0,8,3.6,8,8Z"/>
      <path class="st16" d="M324.5,185.8v33.5c0,4.4-3.6,8-8,8h-107.8c-4.4,0-8-3.6-8-8v-33.5c0-4.4,3.6-8,8-8h107.8c4.4,0,8,3.6,8,8Z"/>
    </g>
  </g>
  <g class="st7">
    <g class="st6">
      <path class="st0" d="M236.1,209.6c.2,0,.3-.1.4-.2,0,0,0-.3,0-.5v-1.3c0-.3-.1-.5-.3-.5s-.2,0-.4,0c-.4,0-.8.2-1.3.2-.5,0-.9,0-1.2,0-1.4,0-2.4-.4-3.1-1.1s-1-1.8-1-3.3v-.5c0-1.5.3-2.6,1-3.4s1.7-1.1,3.1-1.1,1.4,0,2.2.3c.2,0,.4,0,.4,0,.2,0,.3-.1.3-.5v-1.3c0-.2,0-.4,0-.5s-.2-.2-.3-.2c-1-.3-1.9-.4-2.9-.4-2.2,0-3.9.6-5.1,1.9-1.2,1.3-1.8,3.1-1.8,5.4s.6,4.1,1.7,5.3c1.2,1.2,2.9,1.8,5.1,1.8s2.2-.1,3.2-.5Z"/>
    </g>
    <g class="st6">
      <path class="st0" d="M240.4,204.7c0-2.1.7-3.2,2.1-3.2s2.1,1,2.1,3.2-.7,3.2-2.1,3.2-2.1-1.1-2.1-3.2ZM246.2,208.7c.9-.9,1.3-2.3,1.3-4s-.4-3-1.3-4c-.9-.9-2.1-1.4-3.7-1.4s-2.8.5-3.7,1.4c-.9.9-1.3,2.3-1.3,4s.5,3,1.3,4c.9.9,2.1,1.4,3.7,1.4s2.8-.5,3.7-1.4Z"/>
    </g>
    <g class="st6">
      <path class="st0" d="M252.3,209.8c.2,0,.3,0,.4-.1,0,0,.1-.2.1-.4v-7.1c.7-.5,1.4-.7,2.2-.7s.9.1,1.1.4c.2.2.4.7.4,1.2v6.2c0,.2,0,.3.1.4,0,0,.2.1.4.1h1.9c.2,0,.3,0,.4-.1,0,0,.1-.2.1-.4v-7.1c0-1-.3-1.7-.8-2.2-.5-.5-1.2-.8-2.2-.8-1.4,0-2.6.5-3.8,1.4l-.2-.7c0-.3-.2-.4-.6-.4h-1.4c-.2,0-.3,0-.4.1,0,0-.1.2-.1.4v9.2c0,.2,0,.3.1.4,0,0,.2.1.4.1h1.9Z"/>
    </g>
    <g class="st6">
      <path class="st0" d="M267.7,209.7c.2,0,.3-.1.3-.2,0,0,0-.2,0-.5v-1c0-.3-.1-.4-.3-.4s-.3,0-.5,0c-.2,0-.4,0-.6,0-.5,0-.9,0-1.1-.3-.2-.2-.3-.5-.3-.9v-4.8h2.3c.2,0,.3,0,.4-.1s.1-.2.1-.4v-1.2c0-.2,0-.3-.1-.4,0,0-.2-.1-.4-.1h-2.3v-2.3c0-.2,0-.3-.1-.4,0,0-.2-.1-.4-.1h-1.4c-.2,0-.3,0-.4.1,0,0-.1.2-.2.4l-.4,2.3-1.1.2c-.2,0-.3,0-.4.2,0,0-.1.2-.1.4v.8c0,.2,0,.3.1.4,0,0,.2.1.4.1h1v4.9c0,1.1.3,1.9.8,2.5.5.5,1.4.8,2.5.8s1.4,0,2-.3Z"/>
    </g>
    <g class="st6">
      <path class="st0" d="M272.5,203.6c0-.8.3-1.3.7-1.7.4-.4.9-.6,1.6-.6,1.1,0,1.7.7,1.7,2v.3h-3.9ZM278.3,209.6c.2,0,.3-.1.4-.2,0,0,0-.2,0-.4v-.9c0-.3-.1-.5-.3-.5s0,0-.1,0h-.1c-1,.3-1.8.4-2.6.4s-1.8-.2-2.3-.6-.8-1-.8-1.9h5.8c.2,0,.3,0,.4,0s.1-.2.2-.4c0-.5,0-1,0-1.4,0-1.3-.4-2.4-1.1-3.1-.7-.7-1.7-1.1-3-1.1s-2.8.5-3.7,1.4c-.9,1-1.3,2.3-1.3,4s.4,3.1,1.3,4c.9.9,2.2,1.4,3.9,1.4s2.2-.2,3.2-.6Z"/>
    </g>
    <g class="st6">
      <path class="st0" d="M283.6,209.8c.2,0,.3,0,.4-.1,0,0,.1-.2.1-.4v-7.1c.7-.5,1.4-.7,2.2-.7s.9.1,1.1.4c.2.2.4.7.4,1.2v6.2c0,.2,0,.3.1.4,0,0,.2.1.4.1h1.9c.2,0,.3,0,.4-.1,0,0,.1-.2.1-.4v-7.1c0-1-.3-1.7-.8-2.2-.5-.5-1.2-.8-2.2-.8-1.4,0-2.6.5-3.8,1.4l-.2-.7c0-.3-.2-.4-.6-.4h-1.4c-.2,0-.3,0-.4.1,0,0-.1.2-.1.4v9.2c0,.2,0,.3.1.4,0,0,.2.1.4.1h1.9Z"/>
    </g>
    <g class="st6">
      <path class="st0" d="M299.1,209.7c.2,0,.3-.1.3-.2,0,0,0-.2,0-.5v-1c0-.3-.1-.4-.3-.4s-.3,0-.5,0c-.2,0-.4,0-.6,0-.5,0-.9,0-1.1-.3-.2-.2-.3-.5-.3-.9v-4.8h2.3c.2,0,.3,0,.4-.1s.1-.2.1-.4v-1.2c0-.2,0-.3-.1-.4,0,0-.2-.1-.4-.1h-2.3v-2.3c0-.2,0-.3-.1-.4,0,0-.2-.1-.4-.1h-1.4c-.2,0-.3,0-.4.1,0,0-.1.2-.2.4l-.4,2.3-1.1.2c-.2,0-.3,0-.4.2,0,0-.1.2-.1.4v.8c0,.2,0,.3.1.4,0,0,.2.1.4.1h1v4.9c0,1.1.3,1.9.8,2.5.5.5,1.4.8,2.5.8s1.4,0,2-.3Z"/>
    </g>
  </g>
  <g class="st3">
    <g>
      <path class="st12" d="M329.4,427.5v34c0,4.4-3.6,8-8,8h-127.2c-4.4.1-8-3.5-8-7.9v-34c0-4.4,3.6-8,8-8h127.2c4.4-.1,8,3.5,8,7.9Z"/>
      <path class="st16" d="M329.4,427.5v34c0,4.4-3.6,8-8,8h-127.2c-4.4.1-8-3.5-8-7.9v-34c0-4.4,3.6-8,8-8h127.2c4.4-.1,8,3.5,8,7.9Z"/>
    </g>
  </g>
  <g class="st7">
    <g class="st6">
      <path class="st0" d="M213.9,439.7h1.7c2.4,0,3.6,1.5,3.6,4.4v.4c0,2.9-1.2,4.4-3.6,4.4h-1.7v-9.2ZM215.9,451.2c2,0,3.6-.6,4.7-1.8,1.1-1.2,1.7-2.9,1.7-5.1s-.6-3.9-1.7-5.1c-1.1-1.2-2.7-1.8-4.8-1.8h-4.5c-.2,0-.3,0-.4.1,0,0-.1.2-.1.4v12.9c0,.2,0,.3.1.4,0,0,.2.1.4.1h4.5Z"/>
    </g>
    <g class="st6">
      <path class="st0" d="M227.4,449.3c-.2-.2-.3-.5-.3-1,0-.9.6-1.4,1.7-1.4s1,0,1.6.1v1.7c-.3.2-.6.5-1,.6s-.7.2-1,.2-.7-.1-1-.3ZM229.1,451.2c.5-.2,1-.5,1.4-.9v.5c.2.2.2.3.3.3,0,0,.2.1.4.1h1.4c.2,0,.3,0,.4-.1,0,0,.1-.2.1-.4v-6.6c0-1.2-.3-2.1-1-2.6-.6-.6-1.6-.8-3-.8s-1.3,0-2,.2c-.7.1-1.2.3-1.7.5-.2,0-.3.2-.4.2,0,0,0,.2,0,.4v.9c0,.3.1.5.3.5s0,0,.1,0c0,0,0,0,.1,0,1.1-.3,2.2-.5,3.1-.5s1.2.1,1.4.3c.2.2.4.7.4,1.3v1c-.8-.2-1.5-.3-2.1-.3s-1.5.1-2.1.4c-.6.3-1.1.6-1.4,1.1-.3.5-.5,1.1-.5,1.7,0,.9.3,1.7.9,2.2.6.6,1.4.8,2.4.8s1-.1,1.6-.3Z"/>
    </g>
    <g class="st6">
      <path class="st0" d="M241.5,451.1c.2,0,.3-.1.3-.2,0,0,0-.2,0-.5v-1c0-.3-.1-.4-.3-.4s-.3,0-.5,0c-.2,0-.4,0-.6,0-.5,0-.9,0-1.1-.3-.2-.2-.3-.5-.3-.9v-4.8h2.3c.2,0,.3,0,.4-.1s.1-.2.1-.4v-1.2c0-.2,0-.3-.1-.4,0,0-.2-.1-.4-.1h-2.3v-2.3c0-.2,0-.3-.1-.4,0,0-.2-.1-.4-.1h-1.4c-.2,0-.3,0-.4.1,0,0-.1.2-.2.4l-.4,2.3-1.1.2c-.2,0-.3,0-.4.2,0,0-.1.2-.1.4v.8c0,.2,0,.3.1.4,0,0,.2.1.4.1h1v4.9c0,1.1.3,1.9.8,2.5.5.5,1.4.8,2.5.8s1.4,0,2-.3Z"/>
    </g>
    <g class="st6">
      <path class="st0" d="M246.6,449.3c-.2-.2-.3-.5-.3-1,0-.9.6-1.4,1.7-1.4s1,0,1.6.1v1.7c-.3.2-.6.5-1,.6s-.7.2-1,.2-.7-.1-1-.3ZM248.3,451.2c.5-.2,1-.5,1.4-.9v.5c.2.2.2.3.3.3,0,0,.2.1.4.1h1.4c.2,0,.3,0,.4-.1,0,0,.1-.2.1-.4v-6.6c0-1.2-.3-2.1-1-2.6-.6-.6-1.6-.8-3-.8s-1.3,0-2,.2c-.7.1-1.2.3-1.7.5-.2,0-.3.2-.4.2,0,0,0,.2,0,.4v.9c0,.3.1.5.3.5s0,0,.1,0c0,0,0,0,.1,0,1.1-.3,2.2-.5,3.1-.5s1.2.1,1.4.3c.2.2.4.7.4,1.3v1c-.8-.2-1.5-.3-2.1-.3s-1.5.1-2.1.4c-.6.3-1.1.6-1.4,1.1-.3.5-.5,1.1-.5,1.7,0,.9.3,1.7.9,2.2.6.6,1.4.8,2.4.8s1-.1,1.6-.3Z"/>
    </g>
    <g class="st6">
      <path class="st0" d="M263,450.8c.6-.4,1.1-1.1,1.5-1.9.4-.8.6-1.8.6-2.9,0-1.6-.4-2.9-1.1-3.8-.8-.9-1.8-1.4-3.1-1.4s-1,.1-1.5.3c-.5.2-1,.5-1.4.8v-4.9c0-.2,0-.3-.1-.4,0,0-.2-.1-.4-.1h-1.9c-.2,0-.3,0-.4.1,0,0-.1.2-.1.4v13.8c0,.2,0,.3.1.4,0,0,.2.1.4.1h1.5c.3,0,.5-.2.6-.4v-.6c.5.4.9.7,1.5.9.5.2,1.1.3,1.7.3s1.6-.2,2.2-.7ZM257.9,448.7v-5.3c.6-.4,1.3-.5,2-.5s1.3.2,1.7.8.5,1.3.5,2.4-.2,1.9-.5,2.4-.9.8-1.6.8-1.4-.2-2-.5Z"/>
    </g>
    <g class="st6">
      <path class="st0" d="M269.8,449.3c-.2-.2-.3-.5-.3-1,0-.9.6-1.4,1.7-1.4s1,0,1.6.1v1.7c-.3.2-.6.5-1,.6s-.7.2-1,.2-.7-.1-1-.3ZM271.5,451.2c.5-.2,1-.5,1.4-.9v.5c.2.2.2.3.3.3,0,0,.2.1.4.1h1.4c.2,0,.3,0,.4-.1,0,0,.1-.2.1-.4v-6.6c0-1.2-.3-2.1-1-2.6-.6-.6-1.6-.8-3-.8s-1.3,0-2,.2c-.7.1-1.2.3-1.7.5-.2,0-.3.2-.4.2,0,0,0,.2,0,.4v.9c0,.3.1.5.3.5s0,0,.1,0c0,0,0,0,.1,0,1.1-.3,2.2-.5,3.1-.5s1.2.1,1.4.3c.2.2.4.7.4,1.3v1c-.8-.2-1.5-.3-2.1-.3s-1.5.1-2.1.4c-.6.3-1.1.6-1.4,1.1-.3.5-.5,1.1-.5,1.7,0,.9.3,1.7.9,2.2.6.6,1.4.8,2.4.8s1-.1,1.6-.3Z"/>
    </g>
    <g class="st6">
      <path class="st0" d="M284.1,450.7c.8-.6,1.1-1.4,1.1-2.4s-.2-1.3-.5-1.7c-.3-.4-.9-.8-1.8-1.2l-1.5-.6c-.5-.2-.8-.4-1-.5-.2-.1-.2-.3-.2-.6s.1-.5.4-.6c.3-.1.6-.2,1.2-.2s1.4,0,1.9.2c.3,0,.5.1.6.1.2,0,.3-.1.3-.5v-.9c0-.2,0-.4,0-.5,0,0-.2-.2-.3-.2-.8-.3-1.7-.5-2.7-.5s-2.2.3-2.9.8c-.7.5-1.1,1.3-1.1,2.2s.2,1.3.5,1.8c.4.5,1,.9,1.8,1.2l1.6.6c.5.2.8.3.9.5.1.2.2.4.2.6,0,.7-.5,1-1.4,1s-1,0-1.5-.1c-.5,0-1-.2-1.5-.3-.1,0-.2,0-.3,0-.2,0-.3.1-.3.5v.9c0,.2,0,.3,0,.4,0,0,.2.2.4.2.9.4,2,.6,3.2.6s2.2-.3,3-.9Z"/>
    </g>
    <g class="st6">
      <path class="st0" d="M289.3,445c0-.8.3-1.3.7-1.7.4-.4.9-.6,1.6-.6,1.1,0,1.7.7,1.7,2v.3h-3.9ZM295.1,451c.2,0,.3-.1.4-.2,0,0,0-.2,0-.4v-.9c0-.3-.1-.5-.3-.5s0,0-.1,0h-.1c-1,.3-1.8.4-2.6.4s-1.8-.2-2.3-.6-.8-1-.8-1.9h5.8c.2,0,.3,0,.4,0s.1-.2.2-.4c0-.5,0-1,0-1.4,0-1.3-.4-2.4-1.1-3.1-.7-.7-1.7-1.1-3-1.1s-2.8.5-3.7,1.4c-.9,1-1.3,2.3-1.3,4s.4,3.1,1.3,4c.9.9,2.2,1.4,3.9,1.4s2.2-.2,3.2-.6Z"/>
    </g>
    <g class="st6">
      <path class="st0" d="M303.8,450.7c.8-.6,1.1-1.4,1.1-2.4s-.2-1.3-.5-1.7c-.3-.4-.9-.8-1.8-1.2l-1.5-.6c-.5-.2-.8-.4-1-.5-.2-.1-.2-.3-.2-.6s.1-.5.4-.6c.3-.1.6-.2,1.2-.2s1.4,0,1.9.2c.3,0,.5.1.6.1.2,0,.3-.1.3-.5v-.9c0-.2,0-.4,0-.5,0,0-.2-.2-.3-.2-.8-.3-1.7-.5-2.7-.5s-2.2.3-2.9.8c-.7.5-1.1,1.3-1.1,2.2s.2,1.3.5,1.8c.4.5,1,.9,1.8,1.2l1.6.6c.5.2.8.3.9.5.1.2.2.4.2.6,0,.7-.5,1-1.4,1s-1,0-1.5-.1c-.5,0-1-.2-1.5-.3-.1,0-.2,0-.3,0-.2,0-.3.1-.3.5v.9c0,.2,0,.3,0,.4,0,0,.2.2.4.2.9.4,2,.6,3.2.6s2.2-.3,3-.9Z"/>
    </g>
  </g>
  <g class="st3">
    <g>
      <path class="st13" d="M689.3,383.8v34.2c-.1,4.4-3.7,8-8.1,8h-150.3c-4.4,0-8-3.6-8-8v-34.2c.1-4.4,3.7-8,8.1-8h150.2c4.4,0,8,3.6,8,8Z"/>
      <path class="st16" d="M689.3,383.8v34.2c-.1,4.4-3.7,8-8.1,8h-150.3c-4.4,0-8-3.6-8-8v-34.2c.1-4.4,3.7-8,8.1-8h150.2c4.4,0,8,3.6,8,8Z"/>
    </g>
  </g>
  <g class="st7">
    <g class="st6">
      <path class="st0" d="M549.5,407.8c.2,0,.4,0,.5-.1,0,0,.2-.2.2-.4l.8-2.6h4.8l.8,2.6c0,.2.2.3.2.4.1,0,.2.1.4.1h2.2c.3,0,.4-.1.4-.3s0-.1,0-.2c0,0,0-.2-.1-.3l-4.4-12.5c0-.2-.1-.3-.2-.4,0,0-.3-.1-.5-.1h-2.2c-.2,0-.3,0-.3,0,0,0-.1,0-.2.2,0,0-.1.2-.2.3l-4.4,12.5c0,.1,0,.2-.1.3,0,.1,0,.2,0,.2,0,.2.1.3.4.3h2.1ZM551.7,402.5l1.7-5.8,1.8,5.8h-3.5Z"/>
    </g>
    <g class="st6">
      <path class="st0" d="M564.9,405.3v-5.3c.6-.4,1.3-.5,2-.5s1.3.2,1.7.8.5,1.3.5,2.4-.2,1.9-.5,2.4-.9.8-1.6.8-1.4-.2-2-.5ZM564.4,412c.2,0,.3,0,.4-.1,0,0,.1-.2.1-.4v-4.4c.3.3.8.5,1.3.7.5.2,1,.3,1.6.3.8,0,1.6-.2,2.2-.7.6-.4,1.1-1.1,1.5-1.9.4-.8.6-1.8.6-2.9,0-1.6-.4-2.9-1.1-3.8-.8-.9-1.8-1.4-3.1-1.4s-1.2.1-1.7.3c-.6.2-1,.5-1.4.9v-.5c-.2-.3-.4-.4-.7-.4h-1.4c-.2,0-.3,0-.4.1,0,0-.1.2-.1.4v13.3c0,.2,0,.3.1.4,0,0,.2.1.4.1h1.9Z"/>
    </g>
    <g class="st6">
      <path class="st0" d="M577.2,405.3v-5.3c.6-.4,1.3-.5,2-.5s1.3.2,1.7.8.5,1.3.5,2.4-.2,1.9-.5,2.4-.9.8-1.6.8-1.4-.2-2-.5ZM576.7,412c.2,0,.3,0,.4-.1,0,0,.1-.2.1-.4v-4.4c.3.3.8.5,1.3.7.5.2,1,.3,1.6.3.8,0,1.6-.2,2.2-.7.6-.4,1.1-1.1,1.5-1.9.4-.8.6-1.8.6-2.9,0-1.6-.4-2.9-1.1-3.8-.8-.9-1.8-1.4-3.1-1.4s-1.2.1-1.7.3c-.6.2-1,.5-1.4.9v-.5c-.2-.3-.4-.4-.7-.4h-1.4c-.2,0-.3,0-.4.1,0,0-.1.2-.1.4v13.3c0,.2,0,.3.1.4,0,0,.2.1.4.1h1.9Z"/>
    </g>
    <g class="st6">
      <path class="st0" d="M590.6,407.8c.2,0,.3-.1.4-.2,0,0,0-.2,0-.5v-1c0-.2,0-.3,0-.3,0,0-.1-.1-.3-.1s-.1,0-.2,0c0,0-.2,0-.3,0-.5,0-.7-.3-.7-1v-11.2c0-.2,0-.3-.1-.4,0,0-.2-.1-.4-.1h-1.9c-.2,0-.3,0-.4.1,0,0-.1.2-.1.4v11.4c0,2,.9,3,2.7,3s1,0,1.4-.2Z"/>
    </g>
    <g class="st6">
      <path class="st0" d="M595.8,395.6c.3-.3.5-.7.5-1.1s-.2-.9-.5-1.1-.7-.4-1.2-.4-.9.1-1.2.4c-.3.3-.5.7-.5,1.1s.1.9.5,1.1c.3.3.7.4,1.2.4s.9-.1,1.2-.4ZM595.5,407.8c.2,0,.3,0,.4-.1,0,0,.1-.2.1-.4v-9.2c0-.2,0-.3-.1-.4,0,0-.2-.1-.4-.1h-1.9c-.2,0-.3,0-.4.1,0,0-.1.2-.1.4v9.2c0,.2,0,.3.1.4,0,0,.2.1.4.1h1.9Z"/>
    </g>
    <g class="st6">
      <path class="st0" d="M604.6,408c.4,0,.8-.2,1.2-.3.2,0,.3-.1.3-.2,0,0,0-.2,0-.4v-1c0-.3-.1-.4-.3-.4s-.2,0-.3,0c-.6.2-1.1.2-1.6.2-.9,0-1.6-.2-2-.7-.4-.5-.6-1.2-.6-2.2v-.3c0-1,.2-1.8.7-2.2.4-.5,1.1-.7,2.1-.7s1,0,1.6.2c0,0,0,0,.1,0,0,0,0,0,.1,0,.2,0,.3-.2.3-.5v-.9c0-.2,0-.4,0-.5,0,0-.2-.2-.4-.2-.7-.3-1.5-.4-2.3-.4-1.6,0-2.9.5-3.8,1.4-.9,1-1.4,2.3-1.4,4s.4,3,1.3,3.9c.9.9,2.1,1.4,3.7,1.4s.8,0,1.2-.1Z"/>
    </g>
    <g class="st6">
      <path class="st0" d="M610.7,405.9c-.2-.2-.3-.5-.3-1,0-.9.6-1.4,1.7-1.4s1,0,1.6.1v1.7c-.3.2-.6.5-1,.6s-.7.2-1,.2-.7-.1-1-.3ZM612.4,407.8c.5-.2,1-.5,1.4-.9v.5c.2.2.2.3.3.3,0,0,.2.1.4.1h1.4c.2,0,.3,0,.4-.1,0,0,.1-.2.1-.4v-6.6c0-1.2-.3-2.1-1-2.6-.6-.6-1.6-.8-3-.8s-1.3,0-2,.2c-.7.1-1.2.3-1.7.5-.2,0-.3.2-.4.2,0,0,0,.2,0,.4v.9c0,.3.1.5.3.5s0,0,.1,0c0,0,0,0,.1,0,1.1-.3,2.2-.5,3.1-.5s1.2.1,1.4.3c.2.2.4.7.4,1.3v1c-.8-.2-1.5-.3-2.1-.3s-1.5.1-2.1.4c-.6.3-1.1.6-1.4,1.1-.3.5-.5,1.1-.5,1.7,0,.9.3,1.7.9,2.2.6.6,1.4.8,2.4.8s1-.1,1.6-.3Z"/>
    </g>
    <g class="st6">
      <path class="st0" d="M624.7,407.7c.2,0,.3-.1.3-.2,0,0,0-.2,0-.5v-1c0-.3-.1-.4-.3-.4s-.3,0-.5,0c-.2,0-.4,0-.6,0-.5,0-.9,0-1.1-.3-.2-.2-.3-.5-.3-.9v-4.8h2.3c.2,0,.3,0,.4-.1s.1-.2.1-.4v-1.2c0-.2,0-.3-.1-.4,0,0-.2-.1-.4-.1h-2.3v-2.3c0-.2,0-.3-.1-.4,0,0-.2-.1-.4-.1h-1.4c-.2,0-.3,0-.4.1,0,0-.1.2-.2.4l-.4,2.3-1.1.2c-.2,0-.3,0-.4.2,0,0-.1.2-.1.4v.8c0,.2,0,.3.1.4,0,0,.2.1.4.1h1v4.9c0,1.1.3,1.9.8,2.5.5.5,1.4.8,2.5.8s1.4,0,2-.3Z"/>
    </g>
    <g class="st6">
      <path class="st0" d="M630.1,395.6c.3-.3.5-.7.5-1.1s-.2-.9-.5-1.1-.7-.4-1.2-.4-.9.1-1.2.4c-.3.3-.5.7-.5,1.1s.1.9.5,1.1c.3.3.7.4,1.2.4s.9-.1,1.2-.4ZM629.9,407.8c.2,0,.3,0,.4-.1,0,0,.1-.2.1-.4v-9.2c0-.2,0-.3-.1-.4,0,0-.2-.1-.4-.1h-1.9c-.2,0-.3,0-.4.1,0,0-.1.2-.1.4v9.2c0,.2,0,.3.1.4,0,0,.2.1.4.1h1.9Z"/>
    </g>
    <g class="st6">
      <path class="st0" d="M635.7,402.7c0-2.1.7-3.2,2.1-3.2s2.1,1,2.1,3.2-.7,3.2-2.1,3.2-2.1-1.1-2.1-3.2ZM641.5,406.7c.9-.9,1.3-2.3,1.3-4s-.4-3-1.3-4c-.9-.9-2.1-1.4-3.7-1.4s-2.8.5-3.7,1.4c-.9.9-1.3,2.3-1.3,4s.5,3,1.3,4c.9.9,2.1,1.4,3.7,1.4s2.8-.5,3.7-1.4Z"/>
    </g>
    <g class="st6">
      <path class="st0" d="M647.6,407.8c.2,0,.3,0,.4-.1,0,0,.1-.2.1-.4v-7.1c.7-.5,1.4-.7,2.2-.7s.9.1,1.1.4c.2.2.4.7.4,1.2v6.2c0,.2,0,.3.1.4,0,0,.2.1.4.1h1.9c.2,0,.3,0,.4-.1,0,0,.1-.2.1-.4v-7.1c0-1-.3-1.7-.8-2.2-.5-.5-1.2-.8-2.2-.8-1.4,0-2.6.5-3.8,1.4l-.2-.7c0-.3-.2-.4-.6-.4h-1.4c-.2,0-.3,0-.4.1,0,0-.1.2-.1.4v9.2c0,.2,0,.3.1.4,0,0,.2.1.4.1h1.9Z"/>
    </g>
    <g class="st6">
      <path class="st0" d="M663.3,407.3c.8-.6,1.1-1.4,1.1-2.4s-.2-1.3-.5-1.7c-.3-.4-.9-.8-1.8-1.2l-1.5-.6c-.5-.2-.8-.4-1-.5-.2-.1-.2-.3-.2-.6s.1-.5.4-.6c.3-.1.6-.2,1.2-.2s1.4,0,1.9.2c.3,0,.5.1.6.1.2,0,.3-.1.3-.5v-.9c0-.2,0-.4,0-.5,0,0-.2-.2-.3-.2-.8-.3-1.7-.5-2.7-.5s-2.2.3-2.9.8c-.7.5-1.1,1.3-1.1,2.2s.2,1.3.5,1.8c.4.5,1,.9,1.8,1.2l1.6.6c.5.2.8.3.9.5.1.2.2.4.2.6,0,.7-.5,1-1.4,1s-1,0-1.5-.1c-.5,0-1-.2-1.5-.3-.1,0-.2,0-.3,0-.2,0-.3.1-.3.5v.9c0,.2,0,.3,0,.4,0,0,.2.2.4.2.9.4,2,.6,3.2.6s2.2-.3,3-.9Z"/>
    </g>
  </g>
  <g>
    <path class="st18" d="M452.1,74c-19.6-11.3-43.8-11.3-63.4,0l-145.3,83.9c-19.6,11.3-31.7,32.3-31.7,54.9v167.8c0,22.7,12.1,43.6,31.7,54.9l145.3,83.9c19.6,11.3,43.8,11.3,63.4,0l145.3-83.9c19.6-11.3,31.7-32.3,31.7-54.9v-167.8c0-22.7-12.1-43.6-31.7-54.9l-145.3-83.9Z"/>
    <path class="st10" d="M438.6,293.4l-12.7,25.4,120.5,69.8,12.7-25.4-120.5-69.8ZM422.7,269.8c-2-1.1-4.4-1.1-6.3,0l-21.1,12.2c-2,1.1-3.2,3.2-3.2,5.5v24.4c0,2.3,1.2,4.4,3.2,5.5l21.1,12.2c2,1.1,4.4,1.1,6.3,0l21.1-12.2c2-1.1,3.2-3.2,3.2-5.5v-24.4c0-2.3-1.2-4.4-3.2-5.5l-21.1-12.2ZM411.6,163.4c7.9-4.5,17.5-4.5,25.4,0l98.2,56.7c7.9,4.5,12.7,12.9,12.7,22v113.4c0,9.1-4.8,17.4-12.7,22l-98.2,56.7c-7.9,4.5-17.5,4.5-25.4,0l-98.2-56.7c-7.9-4.5-12.7-12.9-12.7-22v-113.4c0-9.1,4.8-17.4,12.7-22l98.2-56.7ZM395.7,135.2l-103.1,59.5c-15.7,9.1-25.4,25.8-25.4,44v119c0,18.1,9.7,34.9,25.4,44l103.1,59.5c15.7,9.1,35,9.1,50.8,0l103.1-59.5c15.7-9.1,25.4-25.8,25.4-44v-119c0-18.1-9.7-34.9-25.4-44l-103.1-59.5c-15.7-9.1-35-9.1-50.8,0Z"/>
  </g>
</svg>