<svg width="256" height="256" viewBox="0 0 256 256" fill="none" xmlns="http://www.w3.org/2000/svg">
<g clip-path="url(#clip0_2115_1569)">
<path d="M102.194 32.3462H44.64C39.0335 32.3626 33.6619 34.6103 29.7014 38.5972C25.7408 42.584 23.514 47.9852 23.5086 53.6181C23.3511 59.0777 25.3557 64.3771 29.0826 68.3534C32.8095 72.3298 37.9542 74.6584 43.3879 74.8281H44.014H102.81L102.194 32.3462Z" fill="#073042"/>
<path d="M233.303 221.556H44.5732C38.9872 221.522 33.6404 219.273 29.6957 215.3C25.751 211.326 23.5274 205.948 23.5086 200.335V53.4995C23.4944 56.2961 24.0287 59.0682 25.081 61.6573C26.1333 64.2464 27.6829 66.6019 29.6414 68.5892C31.5999 70.5765 33.9288 72.1568 36.4953 73.2396C39.0617 74.3225 41.8154 74.8868 44.5989 74.9003C45.071 74.9003 45.5379 74.9003 46.0049 74.8591H202.545C202.545 74.8591 233.303 72.1782 233.303 95.4813V221.556Z" fill="#4285F4"/>
<path d="M133.64 119.429C131.15 119.474 128.74 120.317 126.76 121.835C124.78 123.353 123.335 125.467 122.634 127.868C121.934 130.269 122.015 132.832 122.866 135.184C123.716 137.535 125.293 139.553 127.364 140.941C129.436 142.33 131.895 143.017 134.383 142.904C136.871 142.79 139.258 141.881 141.195 140.309C143.133 138.737 144.52 136.584 145.155 134.165C145.79 131.745 145.639 129.185 144.724 126.858C143.841 124.639 142.309 122.741 140.33 121.414C138.351 120.088 136.019 119.396 133.64 119.429Z" fill="black"/>
<path d="M145.263 146.351C148.418 143.977 150.759 140.675 151.962 136.903C153.164 133.131 153.169 129.077 151.974 125.303C150.779 121.528 148.445 118.221 145.295 115.84C142.145 113.459 138.335 112.122 134.395 112.015H135.01C136.123 111.907 137.243 111.907 138.356 112.015V100.199C138.384 99.5302 138.234 98.8665 137.922 98.2757C137.61 97.6849 137.147 97.1883 136.581 96.8371C136.011 96.4982 135.362 96.3193 134.7 96.3193C134.038 96.3193 133.389 96.4982 132.819 96.8371C132.253 97.1883 131.79 97.6849 131.478 98.2757C131.165 98.8665 131.016 99.5302 131.044 100.199V112.221C127.331 112.813 123.875 114.493 121.11 117.052C118.345 119.61 116.395 122.933 115.504 126.602C114.613 130.271 114.821 134.123 116.102 137.673C117.384 141.224 119.681 144.315 122.705 146.557L87.9087 221.282H110.605L126.651 186.941C127.334 185.52 128.402 184.321 129.733 183.483C131.064 182.645 132.603 182.201 134.174 182.203C135.736 182.199 137.266 182.643 138.586 183.482C139.906 184.321 140.96 185.521 141.625 186.941L158.164 221.282H181.147L145.263 146.351ZM133.64 142.985C131.302 142.994 129.014 142.305 127.066 141.006C125.118 139.706 123.598 137.855 122.699 135.686C121.8 133.517 121.562 131.129 122.016 128.825C122.47 126.52 123.595 124.403 125.249 122.742C126.902 121.081 129.009 119.951 131.303 119.495C133.597 119.039 135.974 119.277 138.132 120.181C140.291 121.084 142.133 122.611 143.427 124.568C144.72 126.525 145.406 128.824 145.396 131.173C145.396 134.306 144.158 137.31 141.953 139.525C139.748 141.74 136.758 142.985 133.64 142.985Z" fill="#3870B2"/>
<path d="M89.7559 42.791H170.484V57.6906H89.7559V42.791Z" fill="white"/>
<path d="M127.354 119.429C130.054 119.449 132.663 120.408 134.739 122.142C136.815 123.876 138.229 126.279 138.741 128.943C139.252 131.606 138.83 134.365 137.546 136.751C136.262 139.137 134.195 141.003 131.697 142.031C129.198 143.059 126.423 143.186 123.842 142.391C121.261 141.595 119.033 139.927 117.538 137.668C116.043 135.409 115.373 132.7 115.642 130.001C115.91 127.302 117.1 124.779 119.01 122.862C121.237 120.665 124.233 119.433 127.354 119.429ZM131.972 112.562V100.188C132 99.52 131.851 98.8563 131.539 98.2655C131.227 97.6746 130.763 97.1781 130.197 96.8268C129.628 96.4879 128.978 96.3091 128.316 96.3091C127.654 96.3091 127.005 96.4879 126.436 96.8268C125.87 97.1789 125.407 97.6756 125.095 98.2662C124.783 98.8569 124.633 99.5202 124.66 100.188V112.211C120.947 112.802 117.491 114.483 114.727 117.041C111.962 119.6 110.011 122.923 109.12 126.592C108.229 130.261 108.437 134.113 109.719 137.663C111 141.214 113.297 144.304 116.321 146.547L72.6681 240.992C71.8541 242.653 71.4945 244.501 71.6262 246.348C71.7578 248.194 72.376 249.972 73.4173 251.499C74.4754 253.012 75.9095 254.221 77.5768 255.004C79.2441 255.787 81.0865 256.118 82.9207 255.964C84.7545 255.786 86.5075 255.118 87.998 254.031C89.4885 252.943 90.6624 251.474 91.3979 249.777L120.493 186.941C121.183 185.525 122.252 184.331 123.582 183.493C124.911 182.656 126.447 182.209 128.016 182.203C129.578 182.199 131.109 182.643 132.428 183.482C133.748 184.321 134.802 185.521 135.467 186.941L165.337 249.437C165.93 250.663 166.756 251.761 167.771 252.666C168.785 253.571 169.967 254.267 171.249 254.714C172.531 255.16 173.888 255.348 175.243 255.268C176.597 255.187 177.923 254.84 179.143 254.245C180.364 253.649 181.456 252.819 182.357 251.799C183.258 250.78 183.951 249.593 184.395 248.305C184.84 247.017 185.027 245.653 184.947 244.292C184.867 242.932 184.521 241.6 183.928 240.373L138.967 146.351C141.735 144.131 143.84 141.186 145.049 137.841C146.257 134.495 146.523 130.879 145.816 127.392C145.109 123.904 143.457 120.681 141.042 118.077C138.628 115.472 135.544 113.589 132.131 112.634" fill="#073042"/>
<path d="M158.795 55.9019C157.699 55.9264 156.622 55.6199 155.702 55.022C154.782 54.4241 154.062 53.5624 153.635 52.5485C153.208 51.5347 153.094 50.4154 153.308 49.3357C153.521 48.256 154.053 47.2657 154.833 46.493C155.608 45.7229 156.591 45.1995 157.66 44.9883C158.729 44.7772 159.837 44.8877 160.844 45.306C161.851 45.7243 162.712 46.4319 163.321 47.34C163.929 48.2481 164.258 49.3165 164.265 50.4112C164.265 51.1327 164.123 51.8471 163.848 52.5136C163.573 53.1801 163.17 53.7856 162.662 54.2955C162.154 54.8055 161.551 55.2098 160.888 55.4854C160.224 55.761 159.513 55.9026 158.795 55.9019ZM98.0278 55.9019C96.9376 55.9138 95.8688 55.5981 94.9585 54.9953C94.0482 54.3926 93.3379 53.5303 92.9188 52.5192C92.4996 51.508 92.3908 50.3941 92.6063 49.3203C92.8217 48.2466 93.3516 47.262 94.1279 46.493C94.5892 45.928 95.1567 45.4598 95.798 45.1152C96.4394 44.7705 97.142 44.5562 97.8658 44.4844C98.5896 44.4126 99.3204 44.4847 100.016 44.6966C100.713 44.9086 101.36 45.2562 101.923 45.7196C102.485 46.1831 102.951 46.7532 103.294 47.3976C103.637 48.042 103.85 48.7479 103.922 49.4751C103.993 50.2023 103.921 50.9366 103.711 51.6359C103.5 52.3352 103.154 52.986 102.692 53.5509C102.462 53.8339 102.204 54.0929 101.923 54.3243C101.411 54.8356 100.803 55.2386 100.134 55.5096C99.4653 55.7806 98.749 55.914 98.0278 55.9019ZM160.78 22.5969L171.716 3.52126C171.923 3.00206 171.937 2.42545 171.757 1.89629C171.577 1.36712 171.213 0.920541 170.733 0.637749C170.253 0.354956 169.687 0.254734 169.14 0.355306C168.592 0.455878 168.099 0.750565 167.749 1.18578L156.675 20.5347C147.8 16.5301 138.181 14.4596 128.452 14.4596C118.723 14.4596 109.104 16.5301 100.229 20.5347L89.0734 1.16516C88.871 0.814933 88.5816 0.52346 88.2335 0.319233C87.8854 0.115005 87.4906 0.00501025 87.0875 0C86.6857 0.0199473 86.2944 0.136099 85.9463 0.338776C85.5981 0.541452 85.3033 0.824784 85.0862 1.16516C84.8822 1.5202 84.7748 1.92294 84.7748 2.3329C84.7748 2.74286 84.8822 3.1456 85.0862 3.50063L96.0932 22.5763C86.6118 27.8006 78.5758 35.3168 72.7118 44.4453C66.8479 53.5737 63.3408 64.0266 62.5078 74.8589H194.438C193.592 64.0239 190.071 53.5715 184.195 44.4466C178.318 35.3218 170.271 27.8123 160.78 22.5969Z" fill="#3DDC84"/>
<path d="M214.368 115.583H205.676C205.385 115.583 205.105 115.699 204.899 115.906C204.693 116.113 204.578 116.393 204.578 116.686V254.381C204.577 254.661 204.683 254.931 204.874 255.135C205.065 255.339 205.326 255.462 205.604 255.479H214.558C219.585 255.466 224.401 253.45 227.951 249.874C231.5 246.298 233.493 241.454 233.493 236.404V96.4917C233.493 101.551 231.493 106.403 227.932 109.98C224.372 113.558 219.543 115.567 214.507 115.567L214.368 115.583Z" fill="#073042"/>
</g>
<defs>
<clipPath id="clip0_2115_1569">
<rect width="256" height="256" fill="white"/>
</clipPath>
</defs>
</svg>
