<svg width="256" height="256" viewBox="0 0 256 256" fill="none" xmlns="http://www.w3.org/2000/svg">
<g clip-path="url(#clip0_2115_1579)">
<path d="M129.021 254.991C112.093 255.135 95.3062 251.927 79.6365 245.555C63.9668 239.182 49.7276 229.772 37.7479 217.871C25.7682 205.971 16.2872 191.819 9.85686 176.238C3.42651 160.658 0.175262 143.96 0.292361 127.118C0.40946 110.275 3.89257 93.6237 10.5389 78.1331C17.1853 62.6426 26.8622 48.6222 39.0062 36.888C51.1502 25.1539 65.5189 15.9404 81.2757 9.78398C97.0325 3.62753 113.863 0.651066 130.787 1.02786C164.416 1.58638 196.465 15.3301 219.966 39.2711C243.466 63.2122 256.519 95.4152 256.286 128.88C256.054 162.344 242.554 194.364 218.723 217.979C194.892 241.595 162.655 254.896 129.021 254.991ZM108.702 135.474C109.617 136.384 109.617 136.384 110.468 136.384C129.021 151.294 147.565 165.321 165.231 180.295C168.84 183.496 172.677 186.431 176.713 189.079C177.984 189.957 179.459 190.496 180.999 190.646C182.539 190.795 184.091 190.549 185.508 189.932C186.926 189.315 188.16 188.348 189.095 187.121C190.03 185.894 190.633 184.45 190.848 182.926C190.979 180.834 190.668 178.737 189.933 176.772L155.552 95.049C150.255 82.7422 144.949 69.5616 139.652 57.2639C139.271 56.0204 138.589 54.8891 137.665 53.9699C136.741 53.0508 135.604 52.372 134.355 51.9935C129.058 50.2367 125.526 52.9038 122.873 58.1469C104.329 101.211 86.6627 145.15 68.1093 188.214C68.1093 189.125 67.1944 189.971 67.1944 190.854H84.8605C86.6261 190.854 86.6261 189.944 87.5136 189.097C91.0449 181.187 93.698 172.403 97.2294 164.52C100.516 154.636 104.346 144.94 108.702 135.474Z" fill="black"/>
<path d="M109.551 135.511C106.041 145.246 101.648 154.982 98.1376 164.717C94.6271 172.683 91.1166 181.53 88.4792 189.468C88.1355 189.81 87.7202 190.07 87.2638 190.229C86.8073 190.387 86.3214 190.441 85.8418 190.385H68.2893C68.2893 189.468 69.1988 188.616 69.1988 187.726C87.6334 144.357 105.195 100.108 123.639 56.7383C126.276 51.4306 129.787 48.7722 135.052 50.5414C136.295 50.9226 137.425 51.6061 138.343 52.5318C139.262 53.4575 139.94 54.5968 140.318 55.8491C145.584 68.243 150.859 81.5169 156.124 93.9016L190.365 176.213C191.056 178.808 191.362 181.493 191.275 184.179C191.062 185.714 190.462 187.168 189.533 188.404C188.604 189.639 187.376 190.614 185.967 191.235C184.558 191.856 183.015 192.104 181.484 191.953C179.954 191.803 178.487 191.26 177.224 190.376C173.259 187.643 169.448 184.69 165.81 181.53C147.375 166.486 128.932 152.323 111.37 137.28C110.433 135.511 110.433 135.511 109.551 135.511ZM132.378 77.9876C127.113 92.1507 121.838 105.425 115.699 118.699C114.79 119.615 115.699 120.468 116.609 121.357C129.75 131.972 142.919 141.735 156.124 152.332C158.762 154.102 161.39 156.76 164.027 158.529C153.46 131.972 142.919 105.425 132.388 77.9876H132.378Z" fill="white"/>
<path d="M132.25 77.9961C142.645 105.249 153.902 131.618 164.289 157.996C161.688 156.239 159.096 153.598 156.495 151.841C143.507 141.288 130.483 131.618 117.53 121.074C116.633 120.163 115.799 120.163 116.633 118.433C120.993 105.249 126.186 92.0639 132.25 77.9961Z" fill="black"/>
</g>
<defs>
<clipPath id="clip0_2115_1579">
<rect width="256" height="256" fill="white"/>
</clipPath>
</defs>
</svg>
