<svg width="256" height="256" viewBox="0 0 256 256" fill="none" xmlns="http://www.w3.org/2000/svg">
<mask id="mask0_18_2" style="mask-type:alpha" maskUnits="userSpaceOnUse" x="36" y="36" width="190" height="176">
<path d="M208.186 207.043C218.758 214.972 234.616 209.686 220.079 195.15C176.47 152.862 185.72 36.5714 131.539 36.5714C77.3582 36.5714 86.6085 152.862 42.9994 195.15C27.1416 211.008 44.3208 214.972 54.8928 207.043C95.8591 179.292 93.216 130.397 131.539 130.397C169.862 130.397 167.219 179.292 208.186 207.043Z" fill="black"/>
</mask>
<g mask="url(#mask0_18_2)">
<g filter="url(#filter0_f_18_2)">
<path d="M28.5398 -2.81224C25.3243 25.5162 49.7362 51.5477 83.0653 55.3307C116.394 59.1137 146.02 39.2157 149.235 10.8873C152.451 -17.4411 128.039 -43.4726 94.7097 -47.2557C61.3806 -51.0387 31.7553 -31.1407 28.5398 -2.81224Z" fill="#FFE432"/>
</g>
<g filter="url(#filter1_f_18_2)">
<path d="M157.042 89.8065C165.393 125.759 201.948 147.987 238.692 139.453C275.435 130.919 298.452 94.8551 290.101 58.9023C281.751 22.9495 245.195 0.722108 208.452 9.25608C171.709 17.7901 148.692 53.8537 157.042 89.8065Z" fill="#FC413D"/>
</g>
<g filter="url(#filter2_f_18_2)">
<path d="M-61.5971 113.924C-51.0456 151.028 -3.52569 170.026 44.5416 156.357C92.6089 142.688 123.022 101.528 112.47 64.4237C101.919 27.3194 54.3987 8.32126 6.33139 21.9903C-41.7359 35.6593 -72.1485 76.8193 -61.5971 113.924Z" fill="#00B95C"/>
</g>
<g filter="url(#filter3_f_18_2)">
<path d="M-61.5971 113.924C-51.0456 151.028 -3.52569 170.026 44.5416 156.357C92.6089 142.688 123.022 101.528 112.47 64.4237C101.919 27.3194 54.3987 8.32126 6.33139 21.9903C-41.7359 35.6593 -72.1485 76.8193 -61.5971 113.924Z" fill="#00B95C"/>
</g>
<g filter="url(#filter4_f_18_2)">
<path d="M-23.4543 144.68C2.99672 171.697 48.5513 169.992 78.2946 140.871C108.038 111.751 110.707 66.243 84.2558 39.226C57.8048 12.2089 12.2502 13.9139 -17.4931 43.0341C-47.2364 72.1543 -49.9054 117.663 -23.4543 144.68Z" fill="#00B95C"/>
</g>
<g filter="url(#filter5_f_18_2)">
<path d="M114.934 246.572C123.148 281.936 157.413 304.193 191.467 296.283C225.522 288.374 246.47 253.294 238.256 217.929C230.042 182.565 195.777 160.309 161.723 168.218C127.668 176.128 106.72 211.208 114.934 246.572Z" fill="#3186FF"/>
</g>
<g filter="url(#filter6_f_18_2)">
<path d="M56.8695 -35.8968C39.6704 2.41609 58.4874 48.1809 98.8985 66.3218C139.31 84.4627 186.012 68.1101 203.211 29.7972C220.41 -8.51567 201.593 -54.2805 161.182 -72.4214C120.771 -90.5623 74.0686 -74.2097 56.8695 -35.8968Z" fill="#FBBC04"/>
</g>
<g filter="url(#filter7_f_18_2)">
<path d="M10.7977 333.907C-30.8397 317.562 40.3175 183.079 58.0117 138.006C75.7061 92.9337 123.804 69.646 165.441 85.9916C207.079 102.337 256.431 192.367 238.736 237.439C221.042 282.511 52.4352 350.252 10.7977 333.907Z" fill="#3186FF"/>
</g>
<g filter="url(#filter8_f_18_2)">
<path d="M263.087 166.522C251.939 179.532 222.85 172.898 198.113 151.703C173.376 130.509 162.359 102.78 173.506 89.77C184.653 76.7598 213.743 83.3943 238.48 104.589C263.216 125.783 274.235 153.511 263.087 166.522Z" fill="#749BFF"/>
</g>
<g filter="url(#filter9_f_18_2)">
<path d="M179.874 100.299C225.722 131.313 278.518 133.35 297.797 104.85C317.076 76.3491 295.538 28.1034 249.69 -2.91025C203.842 -33.9239 151.046 -35.9613 131.767 -7.46093C112.488 21.0395 134.026 69.2852 179.874 100.299Z" fill="#FC413D"/>
</g>
<g filter="url(#filter10_f_18_2)">
<path d="M29.3536 49.856C17.9951 77.2562 21.7048 104.823 37.6394 111.429C53.574 118.034 75.6994 101.177 87.0579 73.7768C98.4164 46.3766 94.7067 18.8096 78.7721 12.204C62.8375 5.59849 40.7121 22.4559 29.3536 49.856Z" fill="#FFEE48"/>
</g>
</g>
<defs>
<filter id="filter0_f_18_2" x="10.6289" y="-65.3434" width="156.517" height="138.762" filterUnits="userSpaceOnUse" color-interpolation-filters="sRGB">
<feFlood flood-opacity="0" result="BackgroundImageFix"/>
<feBlend mode="normal" in="SourceGraphic" in2="BackgroundImageFix" result="shape"/>
<feGaussianBlur stdDeviation="8.81321" result="effect1_foregroundBlur_18_2"/>
</filter>
<filter id="filter1_f_18_2" x="70.1163" y="-77.7826" width="306.911" height="304.274" filterUnits="userSpaceOnUse" color-interpolation-filters="sRGB">
<feFlood flood-opacity="0" result="BackgroundImageFix"/>
<feBlend mode="normal" in="SourceGraphic" in2="BackgroundImageFix" result="shape"/>
<feGaussianBlur stdDeviation="42.6073" result="effect1_foregroundBlur_18_2"/>
</filter>
<filter id="filter2_f_18_2" x="-136.129" y="-54.8836" width="323.13" height="288.115" filterUnits="userSpaceOnUse" color-interpolation-filters="sRGB">
<feFlood flood-opacity="0" result="BackgroundImageFix"/>
<feBlend mode="normal" in="SourceGraphic" in2="BackgroundImageFix" result="shape"/>
<feGaussianBlur stdDeviation="36.2203" result="effect1_foregroundBlur_18_2"/>
</filter>
<filter id="filter3_f_18_2" x="-136.129" y="-54.8836" width="323.13" height="288.115" filterUnits="userSpaceOnUse" color-interpolation-filters="sRGB">
<feFlood flood-opacity="0" result="BackgroundImageFix"/>
<feBlend mode="normal" in="SourceGraphic" in2="BackgroundImageFix" result="shape"/>
<feGaussianBlur stdDeviation="36.2203" result="effect1_foregroundBlur_18_2"/>
</filter>
<filter id="filter4_f_18_2" x="-114.111" y="-52.4127" width="289.024" height="288.731" filterUnits="userSpaceOnUse" color-interpolation-filters="sRGB">
<feFlood flood-opacity="0" result="BackgroundImageFix"/>
<feBlend mode="normal" in="SourceGraphic" in2="BackgroundImageFix" result="shape"/>
<feGaussianBlur stdDeviation="36.2203" result="effect1_foregroundBlur_18_2"/>
</filter>
<filter id="filter5_f_18_2" x="44.3115" y="97.7823" width="264.567" height="268.937" filterUnits="userSpaceOnUse" color-interpolation-filters="sRGB">
<feFlood flood-opacity="0" result="BackgroundImageFix"/>
<feBlend mode="normal" in="SourceGraphic" in2="BackgroundImageFix" result="shape"/>
<feGaussianBlur stdDeviation="34.4199" result="effect1_foregroundBlur_18_2"/>
</filter>
<filter id="filter6_f_18_2" x="-11.8908" y="-142.211" width="283.862" height="278.323" filterUnits="userSpaceOnUse" color-interpolation-filters="sRGB">
<feFlood flood-opacity="0" result="BackgroundImageFix"/>
<feBlend mode="normal" in="SourceGraphic" in2="BackgroundImageFix" result="shape"/>
<feGaussianBlur stdDeviation="31.1942" result="effect1_foregroundBlur_18_2"/>
</filter>
<filter id="filter7_f_18_2" x="-57.791" y="25.0517" width="355.939" height="367.062" filterUnits="userSpaceOnUse" color-interpolation-filters="sRGB">
<feFlood flood-opacity="0" result="BackgroundImageFix"/>
<feBlend mode="normal" in="SourceGraphic" in2="BackgroundImageFix" result="shape"/>
<feGaussianBlur stdDeviation="27.8577" result="effect1_foregroundBlur_18_2"/>
</filter>
<filter id="filter8_f_18_2" x="119.301" y="33.2548" width="197.991" height="189.782" filterUnits="userSpaceOnUse" color-interpolation-filters="sRGB">
<feFlood flood-opacity="0" result="BackgroundImageFix"/>
<feBlend mode="normal" in="SourceGraphic" in2="BackgroundImageFix" result="shape"/>
<feGaussianBlur stdDeviation="24.9277" result="effect1_foregroundBlur_18_2"/>
</filter>
<filter id="filter9_f_18_2" x="82.5942" y="-69.6805" width="264.376" height="236.75" filterUnits="userSpaceOnUse" color-interpolation-filters="sRGB">
<feFlood flood-opacity="0" result="BackgroundImageFix"/>
<feBlend mode="normal" in="SourceGraphic" in2="BackgroundImageFix" result="shape"/>
<feGaussianBlur stdDeviation="21.0544" result="effect1_foregroundBlur_18_2"/>
</filter>
<filter id="filter10_f_18_2" x="-29.3456" y="-41.3457" width="175.103" height="206.324" filterUnits="userSpaceOnUse" color-interpolation-filters="sRGB">
<feFlood flood-opacity="0" result="BackgroundImageFix"/>
<feBlend mode="normal" in="SourceGraphic" in2="BackgroundImageFix" result="shape"/>
<feGaussianBlur stdDeviation="26.0583" result="effect1_foregroundBlur_18_2"/>
</filter>
</defs>
</svg>
