<svg width="256" height="256" viewBox="0 0 256 256" fill="none" xmlns="http://www.w3.org/2000/svg">
<g clip-path="url(#clip0_2115_1725)">
<path fill-rule="evenodd" clip-rule="evenodd" d="M114.816 0.29312C112.845 0.41344 111.032 0.62656 110.787 0.768C110.543 0.9088 109.707 1.024 108.931 1.024C108.155 1.024 107.52 1.12896 107.52 1.25696C107.52 1.38496 106.541 1.57184 105.344 1.67104C104.147 1.77088 103.168 1.9392 103.168 2.04544C103.168 2.15104 102.364 2.3168 101.382 2.41408C100.399 2.51072 99.536 2.68672 99.4624 2.80576C99.3888 2.92416 98.6131 3.10464 97.7388 3.2064C96.864 3.30752 95.9712 3.4784 95.7542 3.58528C94.7097 4.10176 93.9904 4.33664 92.9932 4.48768C92.3955 4.57856 91.8483 4.74688 91.7772 4.86208C91.7055 4.97792 91.0713 5.15136 90.368 5.248C89.664 5.34464 89.088 5.51552 89.088 5.62688C89.088 5.73824 88.5721 5.9072 87.9417 6.00192C87.3113 6.096 86.7366 6.2688 86.6649 6.38592C86.5926 6.5024 86.1152 6.67648 85.6032 6.77248C85.0918 6.86848 84.4857 7.04448 84.2566 7.16416C83.2313 7.69792 81.936 8.192 81.5616 8.192C81.3363 8.192 81.152 8.29696 81.152 8.4256C81.152 8.55424 80.6911 8.73664 80.1279 8.832C79.5647 8.92736 79.1039 9.0976 79.1039 9.21088C79.1039 9.32416 78.7871 9.49312 78.3999 9.58656C77.4137 9.82464 76.2879 10.3322 76.2879 10.5382C76.2879 10.6336 75.9423 10.7872 75.5199 10.88C75.0975 10.9728 74.752 11.1443 74.752 11.2621C74.752 11.3792 74.2911 11.5526 73.7279 11.648C73.1647 11.7434 72.7039 11.9168 72.7039 12.0339C72.7039 12.1517 72.3584 12.3232 71.936 12.416C71.5136 12.5088 71.1673 12.6618 71.1673 12.7565C71.1667 12.8506 70.6195 13.1501 69.9513 13.4214C69.2825 13.6922 68.6783 13.9802 68.6079 14.0614C68.5375 14.1421 67.9039 14.496 67.1999 14.848C66.4959 15.2 65.8624 15.5456 65.792 15.616C65.7216 15.6864 65.2319 15.9635 64.7039 16.2323C64.1759 16.5011 63.7439 16.8083 63.7439 16.9158C63.7439 17.0234 63.3984 17.1872 62.976 17.28C62.5536 17.3728 62.2079 17.5424 62.2079 17.6563C62.2079 17.7709 61.9199 17.9366 61.5679 18.025C61.2159 18.1133 60.9279 18.2989 60.9279 18.4371C60.9279 18.5747 60.7609 18.688 60.5568 18.688C60.3526 18.688 60.0934 18.832 59.9808 19.008C59.8681 19.184 59.344 19.5475 58.816 19.8163C58.288 20.0851 57.856 20.3891 57.856 20.4928C57.856 20.5958 57.568 20.7526 57.216 20.841C56.864 20.9293 56.576 21.1149 56.576 21.2531C56.576 21.3907 56.3993 21.504 56.1836 21.504C55.9686 21.504 55.7254 21.6768 55.6447 21.888C55.5635 22.0992 55.342 22.272 55.152 22.272C54.9625 22.272 54.519 22.56 54.167 22.912C53.815 23.264 53.4035 23.552 53.2518 23.552C53.1001 23.552 52.9094 23.7248 52.8287 23.936C52.7475 24.1472 52.5292 24.32 52.343 24.32C52.1568 24.32 51.8521 24.4678 51.6665 24.6483C51.4803 24.8288 50.9248 25.2563 50.432 25.5981C49.9392 25.9398 49.3855 26.4256 49.2012 26.6778C49.0175 26.9299 48.7065 27.136 48.51 27.136C48.3142 27.136 48.0614 27.2838 47.9487 27.465C47.8361 27.6461 47.3984 28.0474 46.976 28.3571C46.0723 29.0195 44.5664 30.3328 42.6016 32.1734C41.8233 32.9024 40.6976 33.8989 40.1011 34.3878C38.704 35.5328 35.5327 38.704 34.3878 40.1011C33.8988 40.6976 32.9024 41.8234 32.1734 42.6016C30.3328 44.5664 29.0195 46.0723 28.3571 46.976C28.0473 47.3984 27.646 47.8362 27.4649 47.9488C27.2838 48.0614 27.136 48.3142 27.136 48.5101C27.136 48.7066 26.9299 49.0176 26.6777 49.2013C26.4255 49.3856 25.9398 49.9392 25.598 50.432C25.2563 50.9248 24.8288 51.4803 24.6483 51.6666C24.4678 51.8522 24.32 52.1568 24.32 52.343C24.32 52.5293 24.1472 52.7475 23.936 52.8288C23.7248 52.9094 23.552 53.1002 23.552 53.2518C23.552 53.4035 23.264 53.815 22.912 54.167C22.56 54.519 22.272 54.9626 22.272 55.152C22.272 55.3421 22.0992 55.5635 21.888 55.6448C21.6768 55.7254 21.5039 55.9686 21.5039 56.1837C21.5039 56.3994 21.3907 56.576 21.2531 56.576C21.1148 56.576 20.9292 56.864 20.8409 57.216C20.7526 57.568 20.5958 57.856 20.4928 57.856C20.3891 57.856 20.0851 58.288 19.8163 58.816C19.5475 59.344 19.184 59.8682 19.008 59.9808C18.832 60.0934 18.688 60.3526 18.688 60.5568C18.688 60.761 18.5747 60.928 18.4371 60.928C18.2988 60.928 18.1132 61.216 18.0249 61.568C17.9366 61.92 17.7708 62.208 17.6563 62.208C17.5424 62.208 17.3728 62.5536 17.28 62.976C17.1872 63.3984 17.0233 63.744 16.9158 63.744C16.8083 63.744 16.5011 64.176 16.2323 64.704C15.9635 65.232 15.6864 65.7216 15.616 65.792C15.5456 65.8624 15.2 66.496 14.848 67.2C14.496 67.904 14.142 68.5376 14.0614 68.608C13.9801 68.6784 13.6921 69.2826 13.4214 69.9514C13.15 70.6195 12.8505 71.1667 12.7564 71.1674C12.6617 71.1674 12.5088 71.5136 12.416 71.936C12.3232 72.3584 12.1427 72.704 12.0147 72.704C11.8867 72.704 11.7081 73.1648 11.6185 73.728C11.5283 74.2912 11.3632 74.752 11.2518 74.752C11.1398 74.752 10.9728 75.0976 10.88 75.52C10.7872 75.9424 10.6336 76.288 10.5382 76.288C10.3321 76.288 9.82459 77.4138 9.58651 78.4C9.49307 78.7872 9.32411 79.104 9.21083 79.104C9.09755 79.104 8.92731 79.5648 8.83195 80.128C8.73659 80.6912 8.55419 81.152 8.42555 81.152C8.29691 81.152 8.19195 81.3363 8.19195 81.5616C8.19195 81.936 7.69787 83.2314 7.16411 84.2566C7.04443 84.4858 6.86843 85.0918 6.77243 85.6032C6.67643 86.1152 6.50235 86.5926 6.38587 86.665C6.26875 86.7366 6.09595 87.3114 6.00187 87.9418C5.90715 88.5722 5.73819 89.088 5.62683 89.088C5.51547 89.088 5.34459 89.664 5.24795 90.368C5.15131 91.0714 4.97787 91.7056 4.86203 91.7773C4.74683 91.8483 4.57851 92.3955 4.48763 92.9933C4.33659 93.9904 4.10171 94.7098 3.58523 95.7542C3.47835 95.9712 3.30747 96.864 3.20635 97.7389C3.10459 98.6131 2.92411 99.3888 2.80571 99.4624C2.68667 99.536 2.51067 100.399 2.41403 101.382C2.31675 102.364 2.15099 103.168 2.04539 103.168C1.93915 103.168 1.77083 104.147 1.67099 105.344C1.57179 106.541 1.38491 107.52 1.25691 107.52C1.12891 107.52 1.02395 108.188 1.02395 109.005C1.02395 109.821 0.920271 110.599 0.794191 110.733C-0.215089 111.8 -0.215089 144.2 0.794191 145.267C0.920271 145.401 1.02395 146.179 1.02395 146.995C1.02395 147.812 1.12891 148.48 1.25691 148.48C1.38491 148.48 1.57179 149.461 1.67163 150.66C1.77147 151.859 1.94299 152.895 2.05243 152.963C2.16187 153.03 2.33275 153.893 2.43195 154.879C2.53115 155.865 2.70395 156.672 2.81659 156.672C2.92923 156.672 3.10459 157.388 3.20635 158.262C3.30747 159.136 3.47835 160.029 3.58523 160.246C4.07419 161.235 4.32763 161.996 4.48443 162.944C4.57787 163.507 4.74427 164.083 4.85435 164.224C4.96507 164.365 5.13467 165.027 5.23131 165.696C5.32795 166.365 5.50267 166.912 5.61851 166.912C5.73499 166.912 5.90715 167.428 6.00187 168.058C6.09595 168.689 6.26875 169.263 6.38587 169.335C6.50235 169.407 6.67643 169.885 6.77243 170.397C6.86843 170.908 7.04443 171.514 7.16411 171.743C7.69787 172.769 8.19195 174.064 8.19195 174.438C8.19195 174.664 8.29691 174.848 8.42555 174.848C8.55419 174.848 8.73659 175.309 8.83195 175.872C8.92731 176.435 9.10971 176.896 9.23835 176.896C9.36699 176.896 9.47195 177.068 9.47195 177.278C9.47195 177.798 10.3155 179.712 10.5446 179.712C10.6457 179.712 10.8044 180.115 10.8966 180.608C10.9894 181.101 11.1545 181.504 11.264 181.504C11.3734 181.504 11.5385 181.907 11.6313 182.4C11.7235 182.893 11.9091 183.296 12.0435 183.296C12.1779 183.296 12.288 183.433 12.288 183.601C12.288 183.896 13.8169 187.133 14.0787 187.392C14.1497 187.462 14.496 188.096 14.848 188.8C15.2 189.504 15.5456 190.138 15.616 190.208C15.6864 190.278 15.9635 190.768 16.2323 191.296C16.5011 191.824 16.8083 192.256 16.9158 192.256C17.0233 192.256 17.1872 192.602 17.28 193.024C17.3728 193.446 17.5424 193.792 17.6563 193.792C17.7708 193.792 17.9366 194.08 18.0249 194.432C18.1132 194.784 18.2988 195.072 18.4371 195.072C18.5747 195.072 18.688 195.239 18.688 195.443C18.688 195.647 18.832 195.907 19.008 196.019C19.184 196.132 19.5475 196.656 19.8163 197.184C20.0851 197.712 20.3891 198.144 20.4928 198.144C20.5958 198.144 20.7526 198.432 20.8409 198.784C20.9292 199.136 21.1148 199.424 21.2531 199.424C21.3907 199.424 21.5039 199.544 21.5039 199.69C21.5039 200.015 22.4883 201.444 23.1039 202.013C23.3503 202.241 23.552 202.541 23.552 202.679C23.552 202.817 23.7804 203.206 24.0595 203.545C24.8499 204.504 24.9344 204.615 25.5948 205.568C25.936 206.061 26.423 206.65 26.6758 206.878C26.9286 207.106 27.136 207.417 27.136 207.569C27.136 207.722 27.2857 207.939 27.4687 208.051C27.6518 208.164 28.0812 208.659 28.4224 209.152C28.7635 209.645 29.4201 210.407 29.8815 210.846C30.3423 211.285 30.72 211.749 30.72 211.877C30.72 212.005 30.9216 212.289 31.168 212.508C31.4144 212.727 31.9219 213.258 32.2956 213.688C32.6694 214.118 33.0726 214.511 33.1916 214.563C33.3107 214.614 33.8687 215.229 34.4319 215.931C35.543 217.315 38.2022 219.974 40.7084 222.208C41.5769 222.982 42.663 223.99 43.1219 224.448C43.5801 224.906 44.0384 225.28 44.1388 225.28C44.24 225.28 44.6892 225.654 45.1372 226.112C45.5852 226.57 46.3398 227.217 46.8134 227.549C47.287 227.882 47.863 228.317 48.0934 228.516C48.3238 228.715 48.9728 229.278 49.536 229.768C50.0992 230.257 50.7615 230.723 51.0079 230.802C51.2543 230.881 51.456 231.046 51.456 231.168C51.456 231.29 51.6979 231.466 51.9929 231.56C52.2886 231.654 52.7295 231.921 52.9727 232.153C53.8489 232.991 54.9017 233.728 55.2236 233.728C55.4041 233.728 55.552 233.847 55.552 233.992C55.552 234.137 55.7535 234.333 55.9999 234.427C56.2463 234.521 56.6419 234.777 56.8793 234.995C57.1161 235.213 57.8649 235.68 58.5433 236.032C59.2211 236.384 59.8681 236.816 59.9808 236.992C60.0934 237.168 60.3526 237.312 60.5568 237.312C60.7609 237.312 60.9279 237.42 60.9279 237.551C60.9279 237.682 61.1871 237.87 61.5039 237.969C61.8207 238.068 62.1375 238.22 62.2079 238.307C62.3366 238.465 63.0963 238.903 64.7679 239.784C65.2607 240.044 65.7216 240.314 65.792 240.384C65.8624 240.454 66.3232 240.728 66.816 240.993C69.5334 242.452 70.5472 242.944 70.8409 242.944C71.0208 242.944 71.1679 243.05 71.1679 243.18C71.1679 243.309 71.5136 243.491 71.936 243.584C72.3584 243.677 72.7039 243.857 72.7039 243.985C72.7039 244.113 73.1647 244.292 73.7279 244.381C74.2911 244.472 74.752 244.646 74.752 244.769C74.752 244.892 74.9248 244.992 75.136 244.992C75.3472 244.992 75.5199 245.107 75.5199 245.248C75.5199 245.389 75.6639 245.505 75.8399 245.505C76.0159 245.507 76.4691 245.668 76.8467 245.866C77.2243 246.063 77.8867 246.301 78.3187 246.396C78.7507 246.491 79.1039 246.664 79.1039 246.782C79.1039 246.899 79.5647 247.073 80.1279 247.168C80.6911 247.263 81.152 247.446 81.152 247.574C81.152 247.703 81.3113 247.808 81.5065 247.808C81.7017 247.808 82.1913 247.98 82.5945 248.191C82.9977 248.401 83.5296 248.573 83.776 248.575C84.0224 248.575 84.224 248.678 84.224 248.803C84.224 248.928 84.7398 249.107 85.3702 249.202C86.0006 249.296 86.5792 249.475 86.656 249.6C86.7328 249.725 87.3113 249.904 87.9417 249.998C88.5721 250.093 89.088 250.262 89.088 250.373C89.088 250.484 89.664 250.655 90.368 250.752C91.072 250.849 91.648 251.032 91.648 251.16C91.648 251.288 91.9289 251.392 92.2726 251.392C92.6163 251.392 92.9593 251.492 93.0348 251.614C93.1104 251.736 93.7465 251.912 94.448 252.006C95.1488 252.099 95.7836 252.273 95.8579 252.393C95.9321 252.513 96.7417 252.692 97.6576 252.79C98.5734 252.888 99.3843 253.068 99.4592 253.189C99.534 253.311 100.399 253.489 101.382 253.586C102.364 253.683 103.168 253.862 103.168 253.985C103.168 254.108 103.663 254.208 104.269 254.208C104.874 254.208 105.48 254.318 105.615 254.453C105.749 254.588 106.838 254.769 108.034 254.856C109.229 254.944 110.438 255.116 110.72 255.24C112.909 256.2 144.757 256.202 145.408 255.242C145.478 255.139 146.57 254.976 147.833 254.881C149.096 254.786 150.243 254.596 150.38 254.458C150.518 254.321 151.119 254.208 151.716 254.208C152.313 254.208 152.866 254.104 152.944 253.978C153.022 253.852 153.893 253.667 154.879 253.568C155.865 253.469 156.672 253.298 156.672 253.188C156.672 253.078 157.419 252.908 158.333 252.81C159.247 252.712 160.058 252.529 160.136 252.403C160.214 252.278 160.851 252.099 161.552 252.006C162.253 251.912 162.89 251.736 162.965 251.614C163.041 251.492 163.384 251.392 163.727 251.392C164.071 251.392 164.352 251.292 164.352 251.169C164.352 251.046 164.928 250.87 165.632 250.776C166.336 250.683 166.912 250.506 166.912 250.383C166.912 250.26 167.488 250.081 168.192 249.984C168.896 249.887 169.472 249.711 169.472 249.592C169.472 249.473 169.99 249.298 170.624 249.203C171.258 249.108 171.776 248.943 171.776 248.836C171.776 248.729 172.237 248.568 172.8 248.477C173.363 248.388 173.824 248.2 173.824 248.061C173.824 247.922 173.983 247.808 174.178 247.808C174.374 247.808 174.863 247.636 175.267 247.425C175.67 247.215 176.202 247.043 176.448 247.041C176.694 247.041 176.896 246.925 176.896 246.784C176.896 246.643 177.098 246.524 177.344 246.519C177.59 246.515 178.253 246.288 178.816 246.016C179.379 245.744 179.984 245.517 180.16 245.513C180.336 245.508 180.48 245.389 180.48 245.248C180.48 245.107 180.71 244.992 180.992 244.992C181.274 244.992 181.504 244.89 181.504 244.765C181.504 244.639 181.907 244.461 182.4 244.369C182.893 244.276 183.296 244.091 183.296 243.956C183.296 243.822 183.44 243.712 183.616 243.712C184.026 243.712 188.69 241.389 189.138 240.963C189.324 240.785 189.641 240.64 189.843 240.64C190.043 240.64 190.208 240.534 190.208 240.404C190.208 240.275 190.554 240.093 190.976 240C191.398 239.907 191.744 239.727 191.744 239.601C191.744 239.474 192.032 239.297 192.384 239.209C192.736 239.121 193.024 238.946 193.024 238.82C193.024 238.694 193.197 238.592 193.408 238.592C193.619 238.592 193.792 238.49 193.792 238.364C193.792 238.238 194.08 238.063 194.432 237.975C194.784 237.887 195.072 237.701 195.072 237.563C195.072 237.425 195.249 237.312 195.464 237.312C195.679 237.312 195.923 237.139 196.003 236.928C196.084 236.717 196.305 236.544 196.495 236.544C196.869 236.544 199.243 235.027 199.381 234.698C199.428 234.587 199.577 234.496 199.712 234.496C199.961 234.496 201.305 233.605 201.931 233.024C202.121 232.848 202.355 232.704 202.451 232.704C202.546 232.703 202.97 232.418 203.392 232.068C203.814 231.72 204.276 231.338 204.419 231.22C204.561 231.102 204.863 230.898 205.089 230.767C205.59 230.475 207.212 229.199 208.078 228.416C208.428 228.099 208.795 227.84 208.893 227.84C208.992 227.84 209.673 227.264 210.407 226.56C211.141 225.856 211.825 225.28 211.926 225.28C212.027 225.28 212.291 225.078 212.511 224.832C212.731 224.586 213.803 223.578 214.893 222.592C217.418 220.308 220.308 217.418 222.592 214.893C223.578 213.803 224.586 212.731 224.832 212.511C225.078 212.291 225.28 212.028 225.28 211.926C225.28 211.825 225.856 211.141 226.56 210.407C227.264 209.673 227.84 208.992 227.84 208.893C227.84 208.795 228.099 208.428 228.416 208.078C229.199 207.212 230.475 205.59 230.767 205.089C230.898 204.863 231.102 204.561 231.22 204.419C231.338 204.276 231.72 203.814 232.068 203.392C232.418 202.97 232.703 202.546 232.704 202.451C232.704 202.355 232.848 202.121 233.024 201.932C233.605 201.305 234.496 199.961 234.496 199.712C234.496 199.577 234.587 199.428 234.698 199.381C235.027 199.243 236.544 196.869 236.544 196.495C236.544 196.305 236.717 196.084 236.928 196.003C237.139 195.923 237.312 195.679 237.312 195.464C237.312 195.249 237.425 195.072 237.563 195.072C237.701 195.072 237.887 194.784 237.975 194.432C238.063 194.08 238.238 193.792 238.363 193.792C238.49 193.792 238.592 193.619 238.592 193.408C238.592 193.197 238.707 193.024 238.848 193.024C238.989 193.024 239.104 192.86 239.104 192.659C239.104 192.457 239.261 192.135 239.454 191.942C239.647 191.75 239.892 191.309 240.001 190.964C240.109 190.619 240.268 190.278 240.354 190.208C240.726 189.905 243.712 184.058 243.712 183.632C243.712 183.447 243.822 183.296 243.956 183.296C244.091 183.296 244.276 182.893 244.369 182.4C244.461 181.907 244.639 181.504 244.765 181.504C244.89 181.504 244.992 181.274 244.992 180.992C244.992 180.71 245.107 180.48 245.248 180.48C245.389 180.48 245.508 180.336 245.513 180.16C245.517 179.984 245.744 179.379 246.016 178.816C246.288 178.253 246.515 177.59 246.519 177.344C246.524 177.098 246.643 176.896 246.784 176.896C246.925 176.896 247.041 176.694 247.041 176.448C247.043 176.202 247.215 175.67 247.425 175.267C247.636 174.863 247.808 174.374 247.808 174.179C247.808 173.983 247.922 173.824 248.061 173.824C248.2 173.824 248.388 173.363 248.477 172.8C248.568 172.237 248.729 171.776 248.836 171.776C248.943 171.776 249.108 171.258 249.202 170.624C249.298 169.99 249.473 169.472 249.592 169.472C249.711 169.472 249.887 168.896 249.984 168.192C250.081 167.488 250.26 166.912 250.383 166.912C250.506 166.912 250.683 166.336 250.776 165.632C250.87 164.928 251.046 164.352 251.169 164.352C251.291 164.352 251.392 164.071 251.392 163.727C251.392 163.384 251.492 163.041 251.614 162.965C251.736 162.89 251.912 162.253 252.006 161.552C252.099 160.851 252.278 160.214 252.403 160.136C252.529 160.058 252.712 159.247 252.81 158.333C252.907 157.42 253.078 156.672 253.188 156.672C253.298 156.672 253.469 155.865 253.568 154.879C253.667 153.893 253.851 153.022 253.978 152.944C254.104 152.866 254.208 152.313 254.208 151.716C254.208 151.119 254.321 150.518 254.458 150.38C254.596 150.243 254.786 149.096 254.881 147.833C254.976 146.57 255.139 145.478 255.242 145.408C256.202 144.757 256.2 112.909 255.24 110.72C255.116 110.438 254.944 109.229 254.856 108.034C254.769 106.838 254.587 105.749 254.453 105.615C254.318 105.48 254.208 104.874 254.208 104.269C254.208 103.663 254.107 103.168 253.985 103.168C253.862 103.168 253.683 102.364 253.586 101.382C253.489 100.399 253.315 99.5373 253.199 99.4656C253.083 99.3939 252.908 98.5862 252.81 97.6704C252.712 96.7546 252.529 95.9418 252.403 95.8643C252.278 95.7862 252.099 95.1488 252.006 94.448C251.912 93.7466 251.736 93.1104 251.614 93.0349C251.492 92.9594 251.392 92.6163 251.392 92.2726C251.392 91.929 251.288 91.648 251.16 91.648C251.032 91.648 250.849 91.072 250.752 90.368C250.655 89.664 250.484 89.088 250.373 89.088C250.262 89.088 250.093 88.5722 249.998 87.9418C249.904 87.3114 249.725 86.7328 249.6 86.656C249.475 86.5792 249.296 86.0006 249.202 85.3702C249.107 84.7398 248.928 84.224 248.803 84.224C248.678 84.224 248.575 84.0224 248.575 83.776C248.573 83.5296 248.401 82.9978 248.191 82.5946C247.98 82.1914 247.808 81.7018 247.808 81.5066C247.808 81.3114 247.703 81.152 247.574 81.152C247.446 81.152 247.263 80.6912 247.168 80.128C247.073 79.5648 246.899 79.104 246.782 79.104C246.664 79.104 246.491 78.7507 246.396 78.3187C246.301 77.8867 246.063 77.2243 245.866 76.8467C245.668 76.4691 245.506 76.016 245.505 75.84C245.505 75.664 245.389 75.52 245.248 75.52C245.107 75.52 244.992 75.3472 244.992 75.136C244.992 74.9248 244.891 74.752 244.769 74.752C244.646 74.752 244.472 74.2912 244.381 73.728C244.292 73.1648 244.113 72.704 243.985 72.704C243.857 72.704 243.677 72.3584 243.584 71.936C243.491 71.5136 243.309 71.168 243.179 71.168C243.05 71.168 242.944 71.0208 242.944 70.841C242.944 70.5472 242.452 69.5334 240.993 66.816C240.728 66.3232 240.454 65.8624 240.384 65.792C240.314 65.7216 240.043 65.2608 239.784 64.768C238.903 63.0963 238.465 62.3366 238.307 62.208C238.22 62.1376 238.068 61.8208 237.969 61.504C237.87 61.1872 237.682 60.928 237.551 60.928C237.419 60.928 237.312 60.761 237.312 60.5568C237.312 60.3526 237.168 60.0934 236.992 59.9808C236.816 59.8682 236.384 59.2211 236.032 58.5434C235.68 57.865 235.19 57.0925 234.944 56.8256C234.698 56.5594 234.496 56.2176 234.496 56.0666C234.496 55.9155 234.323 55.7254 234.112 55.6448C233.901 55.5635 233.728 55.3619 233.728 55.1962C233.728 54.8979 232.967 53.8234 232.153 52.9728C231.921 52.7296 231.654 52.2886 231.56 51.993C231.466 51.6979 231.29 51.456 231.168 51.456C231.046 51.456 230.881 51.2544 230.802 51.008C230.722 50.7616 230.257 50.0992 229.768 49.536C229.278 48.9728 228.715 48.3238 228.516 48.0934C228.317 47.863 227.882 47.287 227.549 46.8134C227.217 46.3398 226.57 45.5853 226.112 45.1373C225.654 44.6893 225.28 44.24 225.28 44.1389C225.28 44.0384 224.906 43.5802 224.448 43.1219C223.99 42.663 222.982 41.577 222.208 40.7085C219.974 38.2022 217.315 35.543 215.931 34.432C215.229 33.8688 214.614 33.3107 214.563 33.1917C214.511 33.0726 214.118 32.6694 213.688 32.2957C213.258 31.9219 212.727 31.4144 212.508 31.168C212.289 30.9216 212.005 30.72 211.877 30.72C211.749 30.72 211.285 30.3424 210.846 29.8816C210.407 29.4202 209.645 28.7635 209.152 28.4224C208.659 28.0813 208.164 27.6518 208.051 27.4688C207.938 27.2858 207.722 27.136 207.569 27.136C207.417 27.136 207.106 26.9286 206.878 26.6758C206.65 26.423 206.061 25.936 205.568 25.5949C204.615 24.9344 204.504 24.8499 203.545 24.0595C203.206 23.7805 202.817 23.552 202.679 23.552C202.541 23.552 202.241 23.3504 202.013 23.104C201.444 22.4883 200.015 21.504 199.69 21.504C199.544 21.504 199.424 21.3907 199.424 21.2531C199.424 21.1149 199.136 20.9293 198.784 20.841C198.432 20.7526 198.144 20.5958 198.144 20.4928C198.144 20.3891 197.712 20.0851 197.184 19.8163C196.656 19.5475 196.132 19.184 196.019 19.008C195.907 18.832 195.647 18.688 195.443 18.688C195.239 18.688 195.072 18.5747 195.072 18.4371C195.072 18.2989 194.784 18.1133 194.432 18.025C194.08 17.9366 193.792 17.7709 193.792 17.6563C193.792 17.5424 193.446 17.3728 193.024 17.28C192.602 17.1872 192.256 17.0234 192.256 16.9158C192.256 16.8083 191.824 16.5011 191.296 16.2323C190.768 15.9635 190.278 15.6864 190.208 15.616C190.138 15.5456 189.504 15.2 188.8 14.848C188.096 14.496 187.462 14.1498 187.392 14.0787C187.133 13.817 183.896 12.288 183.601 12.288C183.433 12.288 183.296 12.1779 183.296 12.0435C183.296 11.9091 182.893 11.7235 182.4 11.6314C181.907 11.5386 181.504 11.3734 181.504 11.264C181.504 11.1546 181.101 10.9894 180.608 10.8966C180.115 10.8045 179.712 10.6458 179.712 10.5446C179.712 10.3155 177.798 9.472 177.278 9.472C177.068 9.472 176.896 9.36704 176.896 9.2384C176.896 9.10976 176.435 8.92736 175.872 8.832C175.309 8.73664 174.848 8.55424 174.848 8.4256C174.848 8.29696 174.664 8.192 174.438 8.192C174.064 8.192 172.769 7.69792 171.743 7.16416C171.514 7.04448 170.908 6.86848 170.397 6.77248C169.885 6.67648 169.407 6.5024 169.335 6.38592C169.263 6.2688 168.689 6.096 168.058 6.00192C167.428 5.9072 166.912 5.73504 166.912 5.61856C166.912 5.50272 166.365 5.328 165.696 5.23136C165.027 5.13472 164.365 4.96512 164.224 4.8544C164.083 4.74432 163.507 4.57792 162.944 4.48448C161.984 4.32576 161.208 4.06528 160.221 3.56992C159.99 3.45472 159.098 3.28064 158.237 3.18272C157.376 3.08544 156.672 2.91712 156.672 2.80896C156.672 2.7008 155.865 2.5312 154.879 2.432C153.893 2.3328 153.03 2.16192 152.963 2.05248C152.895 1.94304 151.859 1.77152 150.66 1.67168C149.461 1.57184 148.48 1.38496 148.48 1.25696C148.48 1.12896 147.812 1.024 146.995 1.024C146.179 1.024 145.401 0.92032 145.267 0.79424C144.543 0.1088 123.517 -0.2368 114.816 0.29312ZM196.097 45.2864C204.558 47.76 219.918 57.3312 222.766 61.9053C225.062 65.591 215.595 74.0275 198.4 83.6211C192.765 86.7648 193.424 86.7078 192.133 84.16C190.984 81.8918 190.509 81.367 188.545 80.1965C186.289 78.8525 185.957 78.471 185.178 76.3347C184.315 73.9686 182.978 72.4749 181.12 71.8029C179.131 71.0829 179.099 71.7107 181.459 65.152C183.884 58.4115 188.015 49.7574 190.368 46.4858L191.581 44.8H193.007C193.792 44.8 195.182 45.0189 196.097 45.2864ZM131.393 47.9802C132.439 48.1798 134.84 48.8794 136.728 49.5334C142.157 51.415 143.713 51.6883 150.575 51.9654C163.108 52.4717 163.784 52.6387 168.525 56.3891C169.82 57.4144 171.476 58.6304 172.204 59.0925C174.28 60.409 174.264 60.1427 172.525 64.4973C170.859 68.6675 168.685 74.6451 168.617 75.2435C168.564 75.7126 172.34 78.0947 174.693 79.0765C175.693 79.4938 176.593 79.9878 176.692 80.1734C176.791 80.3597 177.065 80.9728 177.302 81.536C178.417 84.1926 178.88 84.9542 180.098 86.144C180.819 86.848 182.16 87.8598 183.078 88.393C185.389 89.735 186.621 92.0877 187.013 95.9085C187.112 96.8736 187.327 98.2714 187.492 99.0131L187.789 100.362L191.367 98.2285C198.402 94.032 205.584 90.0634 205.914 90.1901C206.098 90.2605 206.528 91.1648 206.868 92.199C210.849 104.291 196.832 117.203 172.032 124.287C168.781 125.215 166.994 125.686 165.76 125.939C165.197 126.054 163.642 126.386 162.304 126.677C116.861 136.57 59.7049 123.125 51.9603 100.721C50.5945 96.7693 51.1596 93.8093 54.119 89.417C54.8575 88.3213 56.3174 86.1568 57.3631 84.608C58.4083 83.0592 59.5974 80.928 60.0051 79.872C62.2828 73.9674 62.0627 74.1638 70.656 70.3987C75.543 68.2573 78.5497 66.1779 83.3913 61.5923C87.0048 58.1702 87.4713 57.8317 89.5596 57.1162C93.4816 55.7734 96.8211 55.2384 101.12 55.264C107.459 55.3018 112.075 53.9789 116.975 50.72C119.219 49.2269 119.62 49.12 127.104 48.0147C128.371 47.8272 129.427 47.6608 129.45 47.6448C129.472 47.6288 130.347 47.7798 131.393 47.9802ZM53.2479 69.8285C53.2479 69.9366 52.9759 70.4262 52.6431 70.9165C51.9622 71.92 51.2671 73.4112 50.4665 75.5891C49.6415 77.8323 48.7212 79.5366 47.1168 81.792C43.6793 86.6234 42.0736 89.408 41.358 91.776C41.1027 92.6208 40.7936 93.5763 40.6707 93.9002C39.9974 95.6774 40.574 101.481 41.7382 104.641C43.4995 109.423 48.3756 115.684 52.958 119.047C53.4316 119.395 54.1804 119.981 54.622 120.349C60.6969 125.422 78.1708 132.889 89.344 135.186C89.9776 135.316 91.2448 135.61 92.16 135.838C109.768 140.227 138.266 140.875 158.464 137.346C159.661 137.137 161.386 136.846 162.298 136.7C163.211 136.554 164.363 136.327 164.858 136.197C165.354 136.067 166.509 135.786 167.424 135.571C171.104 134.71 173.27 134.159 174.976 133.648C177.586 132.867 181.551 131.585 182.144 131.329C182.426 131.208 183.361 130.876 184.221 130.591C185.083 130.305 186.408 129.795 187.165 129.456C187.924 129.117 188.943 128.68 189.432 128.484C200.084 124.214 210.783 115.827 215.019 108.424C218.73 101.939 219.013 92.576 215.66 87.2646C215.319 86.7245 215.04 86.1805 215.04 86.0563C215.04 85.7043 220.315 81.92 220.806 81.92C222.345 81.92 229.376 89.6019 229.376 91.2832C229.376 91.3709 229.538 91.8054 229.736 92.2496C230.943 94.9523 231.041 95.8029 231.021 103.466C230.998 112.349 230.781 113.875 228.774 119.201C228.555 119.783 228.257 121.165 228.111 122.273C227.744 125.064 227.155 128.559 226.692 130.688C226.478 131.674 226.166 133.228 225.999 134.142C225.311 137.91 216.965 144.163 204.16 150.503C199.464 152.828 198.33 153.355 195.84 154.363C193.899 155.149 193.539 155.299 192.512 155.755C191.373 156.26 186.243 158.088 184.064 158.765C183.149 159.05 181.594 159.544 180.608 159.862C179.622 160.181 178.125 160.634 177.28 160.869C176.435 161.104 175.393 161.407 174.963 161.542C174.532 161.678 173.668 161.898 173.043 162.033C172.417 162.167 171.213 162.458 170.368 162.679C169.523 162.9 168.026 163.248 167.04 163.452C166.054 163.657 164.442 164.003 163.456 164.223C161.678 164.618 161.222 164.699 156.288 165.502C153.673 165.928 148.703 166.571 146.176 166.811C138.315 167.556 135.785 167.68 128.384 167.68C120.967 167.68 118.735 167.571 110.592 166.813C107.553 166.53 100.561 165.565 98.432 165.134C97.728 164.991 96.1728 164.698 94.976 164.481C93.7792 164.264 92.1088 163.919 91.264 163.715C90.4192 163.512 88.9216 163.166 87.936 162.948C86.0294 162.525 85.1187 162.295 83.072 161.717C82.368 161.519 81.0431 161.153 80.1279 160.906C79.2127 160.658 78.2336 160.363 77.952 160.25C77.6704 160.136 76.1152 159.625 74.496 159.113C67.1539 156.794 55.9379 152 50.176 148.719C42.5856 144.397 37.616 140.867 34.0345 137.252L31.5891 134.784L31.1315 131.584C30.8793 129.824 30.5779 127.807 30.4608 127.101C30.3436 126.395 30.1766 124.667 30.0896 123.261C29.8432 119.286 29.7177 118.63 28.9996 117.584C27.0156 114.692 26.5094 111.772 26.5017 103.168L26.496 96.128L27.23 93.888C29.3932 87.2877 35.2147 80.761 44.5683 74.4499C46.7603 72.9709 47.8931 72.2906 51.5839 70.2394C52.6566 69.6429 53.2479 69.497 53.2479 69.8285ZM42.1523 162.565C46.6073 166.797 54.6687 171.868 62.2079 175.181C62.7007 175.397 63.8899 175.93 64.8499 176.364C65.8099 176.797 66.6566 177.152 66.7308 177.152C66.8057 177.152 67.2294 177.311 67.6735 177.506C68.1171 177.7 68.8832 178.006 69.376 178.184C69.8688 178.363 70.6175 178.657 71.0399 178.838C71.4623 179.019 73.7663 179.802 76.1599 180.579C79.9539 181.811 81.5136 182.285 85.12 183.306C85.5424 183.425 86.6944 183.708 87.68 183.934C88.6656 184.16 89.9206 184.464 90.4684 184.61C91.0163 184.755 92.0531 184.984 92.7724 185.119C93.4918 185.253 94.944 185.535 96 185.744C97.056 185.953 98.9568 186.287 100.224 186.487C101.491 186.686 103.277 186.972 104.192 187.123C116.855 189.204 138.93 189.222 152.832 187.162C158.564 186.313 162.488 185.624 165.376 184.961C166.432 184.718 167.699 184.433 168.192 184.328C169.349 184.081 174.235 182.833 175.232 182.531C175.654 182.403 177.21 181.933 178.688 181.487C181.172 180.739 185.028 179.436 186.24 178.936C186.522 178.819 187.386 178.496 188.16 178.217C189.494 177.736 192.108 176.64 194.944 175.373C196.58 174.641 201.775 172.04 202.112 171.783C202.253 171.676 203.032 171.222 203.844 170.776C205.174 170.045 209.15 167.508 209.792 166.981C209.933 166.865 210.797 166.202 211.712 165.505C212.627 164.809 213.722 163.92 214.144 163.529C216.266 161.565 215.307 163.585 211.079 169.984C205.281 178.759 196.711 187.587 189.312 192.406C188.467 192.956 187.718 193.465 187.648 193.536C186.625 194.571 174.859 200.96 173.978 200.96C173.865 200.96 173.411 201.128 172.966 201.332C171.082 202.202 166.214 203.927 163.2 204.793C160.869 205.462 156.258 206.611 155.037 206.827C143.34 208.891 142.089 209 130.048 208.992C119.366 208.986 114.682 208.675 107.264 207.477C105.926 207.261 104.153 206.98 103.323 206.852C101.316 206.544 101.13 206.5 91.0931 203.951C90.4358 203.784 89.8118 203.562 89.7062 203.456C89.6012 203.35 89.3324 203.263 89.1091 203.263C86.9196 203.255 73.8924 197.284 68.736 193.923C67.6096 193.19 66.2169 192.294 65.6409 191.933C65.0649 191.572 64.43 191.123 64.2297 190.934C64.03 190.746 63.1187 190.023 62.2054 189.327C58.4671 186.481 51.838 179.994 50.2131 177.592C50.0012 177.28 49.4995 176.621 49.0975 176.128C48.695 175.635 48.2828 175.117 48.1811 174.976C48.0787 174.835 47.6511 174.259 47.2294 173.695C46.8083 173.132 46.3244 172.44 46.1548 172.159C45.9846 171.878 45.1635 170.554 44.3302 169.216C42.8428 166.828 39.936 161.375 39.936 160.973C39.936 160.547 40.3135 160.819 42.1523 162.565Z" fill="black"/>
<path fill-rule="evenodd" clip-rule="evenodd" d="M51.1999 70.912C50.5663 71.3331 49.9635 71.6781 49.8604 71.6787C49.5494 71.6806 42.958 75.8074 42.496 76.2893C42.4256 76.3629 41.4496 77.113 40.327 77.9558C33.902 82.7789 28.6387 89.5328 27.3625 94.592C26.4153 98.3462 26.8915 112.233 28.0575 114.854C28.2547 115.299 28.416 115.733 28.416 115.821C28.416 115.908 28.8191 116.566 29.3119 117.283C29.9686 118.238 30.2118 118.868 30.222 119.645C30.2553 122.057 30.7699 126.682 31.7075 132.992C31.9628 134.712 32.1344 134.972 34.6022 137.37C40.3014 142.908 53.4771 150.853 62.5919 154.249C63.2959 154.511 63.9295 154.799 63.9999 154.89C64.0703 154.979 64.3583 155.119 64.6399 155.201C64.9215 155.282 65.7855 155.594 66.5599 155.894C67.3343 156.195 68.6591 156.68 69.5039 156.974C70.3487 157.268 71.1552 157.594 71.296 157.7C71.4368 157.806 71.9513 157.978 72.4396 158.083C72.9279 158.188 73.5039 158.361 73.7196 158.468C73.9353 158.575 75.3216 159.036 76.8 159.491C79.6601 160.372 80.1843 160.524 82.494 161.149C83.303 161.367 84.5702 161.71 85.31 161.91C86.0505 162.111 87.5199 162.46 88.5759 162.685C89.6319 162.912 90.8992 163.21 91.392 163.348C94.7628 164.292 105.156 165.917 110.976 166.41C112.666 166.553 114.966 166.8 116.088 166.959C118.81 167.343 137.947 167.345 140.68 166.96C141.802 166.802 144.16 166.552 145.92 166.403C150.493 166.019 152.998 165.677 160.128 164.468C163.738 163.855 169.454 162.601 172.928 161.66C173.773 161.43 174.982 161.13 175.616 160.991C176.25 160.852 176.998 160.64 177.28 160.52C177.562 160.4 178.368 160.134 179.072 159.93C181.799 159.136 185.763 157.88 186.496 157.578C186.918 157.404 187.61 157.138 188.032 156.988C192.148 155.525 194.465 154.616 195.389 154.103C195.633 153.967 195.942 153.856 196.075 153.856C197.377 153.856 210.122 147.18 216.193 143.317C220.307 140.7 225.536 135.903 225.536 134.745C225.536 134.362 225.71 133.293 225.923 132.369C226.136 131.444 226.438 130.127 226.594 129.441C226.751 128.756 226.973 127.546 227.089 126.753C227.204 125.96 227.466 124.16 227.672 122.752C228.045 120.191 228.49 118.369 228.857 117.888C229.107 117.56 229.731 115.507 230.178 113.536C230.762 110.969 230.673 95.7587 230.064 94.08C228.375 89.4202 225.275 85.1853 221.739 82.7091C220.829 82.071 220.314 82.1677 219.204 83.1846C218.955 83.4125 218.181 83.9987 217.483 84.4877C215.149 86.1222 215.248 85.929 216.066 87.2678C218.778 91.7101 219.22 99.0842 217.117 104.832C216.638 106.143 214.433 110.317 213.928 110.87C213.617 111.21 212.831 112.179 212.181 113.024C207.986 118.481 198.448 125.104 189.312 128.906C188.027 129.441 187.315 129.742 186.112 130.259C185.478 130.531 184.038 131.065 182.912 131.446C181.786 131.827 180.634 132.234 180.352 132.351C179.698 132.623 177.802 133.214 175.36 133.905C173.269 134.497 172.001 134.87 171.008 135.188C170.656 135.3 169.85 135.464 169.216 135.551C168.582 135.638 167.834 135.811 167.552 135.934C167.27 136.058 166.406 136.275 165.632 136.416C164.858 136.557 163.245 136.862 162.048 137.094C159.06 137.672 157.407 137.944 155.008 138.253C153.882 138.398 152.269 138.631 151.424 138.771C149.896 139.024 146.417 139.352 140.8 139.773C136.992 140.058 121.312 140.058 117.504 139.773C111.933 139.356 108.413 139.025 106.88 138.775C106.035 138.637 104.365 138.391 103.168 138.228C99.8105 137.772 95.6134 137.02 92.544 136.325C91.5584 136.102 90.2335 135.811 89.5999 135.679C88.9663 135.547 87.9872 135.306 87.424 135.144C86.8608 134.982 85.8815 134.703 85.2479 134.525C81.0214 133.334 78.9644 132.674 74.6239 131.116C72.2899 130.278 71.2607 129.884 70.5279 129.545C70.2463 129.414 69.44 129.059 68.736 128.754C65.8188 127.491 59.9353 124.42 58.7519 123.544C58.3295 123.231 57.2927 122.558 56.4479 122.049C55.6031 121.54 54.6815 120.911 54.3999 120.652C54.1183 120.392 53.1968 119.647 52.352 118.996C49.4336 116.749 43.5199 110.115 43.5199 109.089C43.5199 108.93 43.4272 108.8 43.3132 108.8C43.1993 108.8 42.8915 108.31 42.6284 107.712C42.3654 107.114 41.9481 106.163 41.7004 105.6C38.3379 97.945 39.6697 91.5584 46.6713 81.7587C48.7731 78.8173 48.935 78.5152 50.2982 75.008C51.0265 73.1328 52.3001 70.5421 52.5926 70.3398C53.4591 69.7395 52.1612 70.2733 51.1999 70.912ZM40.9599 162.226C40.9599 162.529 43.0464 166.575 43.9276 167.981C46.1536 171.534 49.3337 176.13 49.9187 176.64C49.9993 176.71 50.3308 177.114 50.6553 177.536C51.6729 178.861 55.0982 182.558 56.8076 184.176C57.71 185.03 58.7615 186.028 59.1455 186.394C59.5289 186.76 60.5766 187.62 61.4732 188.307C62.3705 188.993 63.3343 189.768 63.6159 190.029C63.8975 190.289 64.9343 191.027 65.9199 191.668C66.9055 192.31 68.1728 193.148 68.736 193.532C70.5235 194.75 75.7529 197.582 78.336 198.732C78.8288 198.95 79.9231 199.438 80.7679 199.816C81.6127 200.193 82.9376 200.726 83.712 201C84.4864 201.275 85.3203 201.608 85.5648 201.741C85.8092 201.875 86.1369 201.984 86.2937 201.984C86.4505 201.984 86.9414 202.146 87.3855 202.344C88.142 202.682 89.294 203.034 92.672 203.956C93.4464 204.168 94.3679 204.444 94.7199 204.57C95.4009 204.815 97.0284 205.178 99.3279 205.599C100.102 205.741 100.966 205.954 101.248 206.074C101.53 206.193 102.624 206.409 103.68 206.554C104.736 206.699 106.787 207.003 108.237 207.229C116.996 208.598 138.836 209.158 144.512 208.159C145.357 208.01 147.373 207.704 148.992 207.48C150.611 207.254 152.635 206.905 153.489 206.703C154.342 206.501 155.401 206.336 155.841 206.336C156.282 206.336 156.703 206.236 156.779 206.114C156.854 205.992 157.521 205.811 158.26 205.713C158.998 205.615 159.722 205.443 159.866 205.329C160.01 205.215 160.589 205.041 161.152 204.94C162.257 204.744 166.024 203.606 166.664 203.276C166.88 203.164 167.452 202.986 167.936 202.88C168.42 202.774 168.992 202.59 169.208 202.472C169.423 202.354 170.522 201.896 171.648 201.454C172.774 201.012 174.099 200.479 174.592 200.268C175.565 199.851 181.391 196.973 182.016 196.6C193.695 189.635 201.54 182.688 208.434 173.206C208.955 172.49 209.503 171.765 209.651 171.595C209.799 171.425 209.92 171.218 209.92 171.136C209.92 171.053 210.378 170.365 210.939 169.607C211.499 168.849 212.198 167.788 212.491 167.25C212.785 166.712 213.31 165.782 213.656 165.184C214.276 164.114 214.159 163.691 213.471 164.519C213.279 164.751 212.487 165.406 211.712 165.973C210.938 166.54 210.246 167.072 210.176 167.155C210.03 167.326 206.152 169.871 204.8 170.684C202.143 172.279 196.667 175.076 193.664 176.372C192.96 176.675 192.154 177.03 191.872 177.159C191.59 177.288 190.726 177.631 189.952 177.92C189.178 178.209 188.314 178.545 188.032 178.667C187.75 178.788 186.483 179.257 185.216 179.708C183.949 180.159 182.735 180.618 182.52 180.727C182.304 180.837 181.728 181.006 181.24 181.102C180.751 181.199 180.122 181.381 179.84 181.508C179.279 181.76 175.581 182.87 173.952 183.274C173.389 183.414 172.237 183.715 171.392 183.942C166.434 185.276 159.453 186.628 152.96 187.514C151.552 187.706 149.939 187.928 149.376 188.008C143.858 188.793 139.07 189.028 128.64 189.027C116.036 189.027 113.979 188.873 99.9679 186.887C98.9823 186.748 97.6576 186.518 97.024 186.378C95.8905 186.127 92.9023 185.498 91.6479 185.246C91.2959 185.176 90.2592 184.932 89.344 184.705C88.4288 184.479 87.1673 184.183 86.5414 184.049C85.9155 183.914 85.0515 183.694 84.6214 183.558C84.1913 183.423 83.1488 183.123 82.304 182.892C79.383 182.093 78.206 181.732 77.7913 181.508C77.5622 181.384 76.9561 181.204 76.4447 181.108C75.9327 181.012 75.4515 180.832 75.374 180.707C75.2966 180.582 75.0214 180.48 74.7622 180.48C74.3718 180.48 69.5513 178.743 67.7119 177.939C67.4303 177.816 66.1631 177.288 64.8959 176.766C62.4614 175.763 55.7689 172.568 55.552 172.305C55.4816 172.22 55.1359 172.012 54.7839 171.843C51.5379 170.291 45.4438 166.094 42.416 163.327C41.6153 162.595 40.9599 162.1 40.9599 162.226Z" fill="white"/>
<path fill-rule="evenodd" clip-rule="evenodd" d="M190.437 46.3898C189.304 47.9917 188.138 49.9635 187.8 50.8493C187.478 51.696 188.058 50.8883 188.929 49.28C189.855 47.5693 191.621 45.1514 192.084 44.9632C192.254 44.8934 192.206 44.8314 191.973 44.8205C191.747 44.809 191.056 45.5155 190.437 46.3898ZM194.176 45.0746C194.739 45.2198 195.811 45.5181 196.558 45.7376C197.306 45.9571 197.976 46.0768 198.049 46.0038C198.235 45.8182 195.412 45.0163 194.176 44.9037L193.152 44.8102L194.176 45.0746ZM198.528 46.2925C198.669 46.4294 199.775 46.9485 200.986 47.4458C202.197 47.943 203.619 48.5926 204.147 48.889C204.675 49.1846 206.102 49.9597 207.321 50.6099C208.539 51.2608 210.688 52.5376 212.096 53.447C213.504 54.3565 214.899 55.2525 215.196 55.4368C215.493 55.6218 215.896 55.9283 216.092 56.1184C216.288 56.3085 217.197 57.0349 218.112 57.7325C221.416 60.2502 223.146 62.4461 222.879 63.783C222.548 65.4368 219.73 68.9043 216.96 71.065C216.256 71.6147 215.622 72.1248 215.552 72.1984C214.298 73.5168 202.744 80.9005 196.736 84.2214C195.891 84.6886 194.812 85.289 194.338 85.5558C193.864 85.8227 193.446 86.0064 193.411 85.9648C193.375 85.9226 192.922 85.0624 192.403 84.0538C191.239 81.7856 188.422 79.104 187.205 79.104C186.79 79.104 186.111 78.0608 185.664 76.7354C185.039 74.8851 183.969 73.1277 183.114 72.5485C182.055 71.8304 180.669 71.1866 180.16 71.177C179.914 71.1718 179.716 71.0816 179.72 70.976C179.729 70.768 180.475 68.6662 180.952 67.5034C181.297 66.6618 181.339 65.991 181.011 66.56C180.488 67.4662 179.425 70.9811 179.624 71.152C179.743 71.255 180.416 71.5475 181.12 71.8029C182.978 72.4749 184.315 73.9686 185.178 76.3347C185.957 78.471 186.289 78.8525 188.545 80.1965C190.509 81.367 190.984 81.8918 192.133 84.16C193.326 86.5146 193.219 86.4736 195.263 85.3536C215.087 74.4928 225.223 65.8509 222.766 61.9053C220.836 58.8051 212.027 52.5402 204.032 48.5798C200.957 47.0573 198.088 45.865 198.528 46.2925ZM127.104 48.0147C119.62 49.12 119.219 49.2269 116.975 50.72C112.075 53.9789 107.459 55.3018 101.12 55.264C96.8211 55.2384 93.4816 55.7734 89.5596 57.1162C87.4713 57.8317 87.0048 58.1702 83.3913 61.5923C78.5497 66.1779 75.543 68.2573 70.656 70.3987C62.0627 74.1638 62.2828 73.9674 60.0051 79.872C59.5974 80.928 58.4083 83.0592 57.3632 84.608C56.3174 86.1568 54.8576 88.3213 54.119 89.417C51.1596 93.8093 50.5945 96.7693 51.9603 100.721C56.318 113.328 76.5452 123.779 105.216 128.237C122.447 130.916 145.758 130.28 162.304 126.677C163.642 126.386 165.197 126.054 165.76 125.939C166.994 125.686 168.781 125.215 172.032 124.287C196.832 117.203 210.849 104.291 206.868 92.199C206.528 91.1648 206.098 90.2605 205.914 90.1901C205.584 90.0634 198.403 94.032 191.367 98.2285L187.789 100.362L187.492 99.0131C187.327 98.2714 187.112 96.8736 187.013 95.9085C186.621 92.0877 185.389 89.735 183.078 88.393C182.16 87.8598 180.819 86.848 180.098 86.144C178.88 84.9542 178.417 84.1926 177.302 81.536C177.065 80.9728 176.791 80.3597 176.692 80.1734C176.593 79.9878 175.693 79.4938 174.693 79.0765C172.34 78.0947 168.564 75.7126 168.617 75.2435C168.685 74.6451 170.859 68.6675 172.525 64.4973C174.264 60.1427 174.28 60.409 172.204 59.0925C171.476 58.6304 169.82 57.4144 168.525 56.3891C163.784 52.6387 163.108 52.4717 150.575 51.9654C143.713 51.6883 142.157 51.415 136.728 49.5334C134.021 48.5952 129.695 47.4733 129.45 47.6448C129.427 47.6608 128.371 47.8272 127.104 48.0147ZM186.496 53.248C185.985 54.2624 185.619 55.1437 185.681 55.2064C185.743 55.2685 186.215 54.4922 186.729 53.481C187.243 52.4691 187.61 51.5878 187.544 51.5226C187.478 51.4573 187.007 52.2336 186.496 53.248ZM184.955 56.4845C182.01 63.44 181.132 65.7613 181.361 65.991C181.433 66.0627 181.558 65.9034 181.64 65.6365C181.82 65.0477 183.247 61.257 183.557 60.544C183.68 60.2624 184.025 59.456 184.324 58.752C184.624 58.048 185.043 57.088 185.256 56.6195C185.469 56.1504 185.583 55.7056 185.509 55.6314C185.435 55.5571 185.186 55.9411 184.955 56.4845ZM52.0806 70.0301C51.6038 70.4122 51.607 70.4173 52.16 70.1491C52.8384 69.8202 52.894 70.0608 52.3257 70.8717C52.1004 71.1936 51.9718 71.5136 52.0409 71.5821C52.1651 71.7062 53.248 70.1024 53.248 69.7939C53.248 69.4938 52.5817 69.6288 52.0806 70.0301ZM50.688 70.7373C48.3008 71.9834 41.854 76.1331 41.5558 76.6157C41.4752 76.7456 42.7776 75.9366 44.4486 74.8179C46.1203 73.6992 48.3808 72.2944 49.472 71.6966C50.5632 71.0989 51.456 70.5626 51.456 70.505C51.456 70.3507 51.3907 70.3706 50.688 70.7373ZM51.4649 72.4314C51.1404 73.0374 51.1257 73.2922 51.4252 73.1072C51.6512 72.9677 52.0032 71.936 51.8252 71.936C51.7728 71.936 51.6108 72.1587 51.4649 72.4314ZM50.7161 74.2682C50.5587 74.7206 50.4742 75.136 50.5292 75.1904C50.5843 75.2454 50.7577 74.9197 50.9158 74.4678C51.0732 74.0154 51.1577 73.6 51.1027 73.5456C51.0476 73.4906 50.8742 73.8163 50.7161 74.2682ZM49.7152 76.8512C49.4086 77.577 49.198 78.2118 49.248 78.2611C49.2979 78.311 49.5923 77.7606 49.9027 77.0387C50.2137 76.3168 50.4236 75.6826 50.3699 75.6288C50.3168 75.575 50.0217 76.1254 49.7152 76.8512ZM39.168 78.3821C38.112 79.2269 37.2044 80.0512 37.1513 80.215C37.0982 80.3782 37.4438 80.1574 37.9193 79.7248C38.6163 79.0899 39.6396 78.281 41.1948 77.1347C41.2531 77.0912 41.2531 77.0086 41.1948 76.951C41.136 76.8934 40.224 77.5373 39.168 78.3821ZM47.3209 81.088C45.8329 83.1834 45.303 84.0269 45.7529 83.584C46.3424 83.0035 49.0188 79.104 48.8281 79.104C48.7737 79.104 48.096 79.9968 47.3209 81.088ZM34.4051 82.752C32.6156 84.6016 30.9913 86.5792 30.3558 87.68C29.9187 88.4384 29.9187 88.4397 30.3808 87.8144C31.4931 86.3066 33.4598 83.9872 34.7808 82.624C35.566 81.8144 36.1504 81.152 36.0806 81.152C36.0102 81.152 35.2569 81.872 34.4051 82.752ZM220.072 82.112C220.006 82.2176 220.334 82.304 220.8 82.304C221.266 82.304 221.594 82.2176 221.528 82.112C221.463 82.0064 221.135 81.92 220.8 81.92C220.465 81.92 220.137 82.0064 220.072 82.112ZM218.368 83.3747C216.655 84.6918 216.503 84.9664 218.112 83.8362C218.886 83.2928 219.568 82.8115 219.627 82.768C219.685 82.7238 219.685 82.6432 219.627 82.5882C219.568 82.5338 219.002 82.8877 218.368 83.3747ZM222.336 82.857C224.002 84.5197 226.145 86.352 225.024 85.1558C224.39 84.4794 223.411 83.5706 222.848 83.136C222.285 82.7014 222.054 82.576 222.336 82.857ZM44.8595 84.672C44.1088 85.7555 43.9257 86.217 44.5292 85.504C45.1539 84.7654 45.6403 83.968 45.4662 83.968C45.4009 83.968 45.1276 84.2848 44.8595 84.672ZM215.744 85.2774C215.025 85.8144 214.841 86.375 215.293 86.6541C215.441 86.7456 215.479 86.6362 215.384 86.3885C215.276 86.1069 215.469 85.7638 215.963 85.36C216.873 84.6163 216.712 84.5555 215.744 85.2774ZM216.143 88.1888C216.452 88.8205 216.742 89.2237 216.789 89.0854C216.868 88.8518 215.88 87.04 215.674 87.04C215.624 87.04 215.835 87.5571 216.143 88.1888ZM228.539 90.2816C229.069 91.2902 229.544 92.0755 229.594 92.0262C229.727 91.895 228.66 89.8304 228.077 89.088C227.8 88.736 228.008 89.273 228.539 90.2816ZM217.005 90.24C217.089 90.6624 217.253 91.1808 217.371 91.392C217.754 92.0813 217.622 91.104 217.215 90.24L216.853 89.472L217.005 90.24ZM41.344 90.88C41.248 91.1827 41.2268 91.488 41.2972 91.5584C41.3676 91.6288 41.504 91.4387 41.6 91.136C41.696 90.8333 41.7171 90.528 41.6467 90.4576C41.5763 90.3872 41.44 90.5773 41.344 90.88ZM40.6969 92.9536C40.5414 93.5315 40.4736 94.0634 40.5465 94.1363C40.6195 94.2086 40.7532 93.9379 40.8435 93.5341C40.9337 93.1302 41.0624 92.5984 41.1289 92.352C41.1961 92.1056 41.1897 91.904 41.1148 91.904C41.0406 91.904 40.8524 92.3763 40.6969 92.9536ZM217.81 93.952C218.033 96.4179 218.031 98.8006 217.803 100.736C217.657 101.98 217.677 102.15 217.911 101.632C218.271 100.832 218.26 93.8726 217.896 92.8C217.7 92.2195 217.679 92.5005 217.81 93.952ZM27.2825 93.5866C27.1878 93.9616 27.1603 94.3181 27.2204 94.3782C27.2812 94.4384 27.4073 94.1811 27.5014 93.8054C27.5961 93.4304 27.6236 93.0739 27.5635 93.0138C27.5027 92.9536 27.3766 93.2109 27.2825 93.5866ZM26.7046 95.6538C26.3827 97.177 26.5004 110.579 26.8441 111.488L27.134 112.256L26.9996 111.488C26.7059 109.811 26.5843 98.8621 26.8377 96.8998C27.12 94.713 27.047 94.0333 26.7046 95.6538ZM230.56 95.744C230.768 97.1782 230.913 97.3824 230.908 96.2349C230.906 95.7536 230.789 95.1872 230.648 94.976C230.47 94.7078 230.443 94.9389 230.56 95.744ZM40.2828 97.408C40.2822 98.6752 40.3251 99.2256 40.3788 98.6317C40.4326 98.0378 40.4332 97.001 40.3808 96.3277C40.3276 95.6544 40.2835 96.1408 40.2828 97.408ZM231.019 102.272C231.019 104.947 231.057 106.007 231.103 104.627C231.149 103.247 231.149 101.058 231.103 99.7626C231.056 98.4678 231.018 99.5968 231.019 102.272ZM40.6137 101.376C40.6995 102.01 40.8678 102.758 40.9888 103.04C41.2544 103.661 40.9843 101.82 40.6694 100.864C40.5305 100.443 40.512 100.618 40.6137 101.376ZM217.114 103.578C216.766 104.837 216.945 105.016 217.344 103.808C217.513 103.297 217.59 102.817 217.516 102.743C217.442 102.669 217.261 103.044 217.114 103.578ZM41.3625 104.192C41.4566 104.544 41.6409 105.005 41.7708 105.216C41.936 105.483 41.9564 105.405 41.8374 104.96C41.7433 104.608 41.559 104.147 41.4291 103.936C41.264 103.669 41.2435 103.747 41.3625 104.192ZM216.363 105.715C216.213 106.145 216.145 106.496 216.212 106.496C216.385 106.496 216.868 105.166 216.74 105.039C216.683 104.981 216.513 105.285 216.363 105.715ZM41.991 105.798C41.9776 106.187 43.728 109.451 44.2867 110.08L44.8556 110.72L44.3865 109.952C44.1286 109.53 43.4854 108.378 42.9574 107.392C42.4294 106.406 41.9942 105.689 41.991 105.798ZM214.735 108.853C214.075 109.971 213.704 110.744 213.912 110.572C214.334 110.222 216.176 107.027 216.029 106.901C215.978 106.857 215.396 107.736 214.735 108.853ZM230.707 109.34C230.679 110.13 230.599 111.34 230.529 112.028C230.412 113.181 230.423 113.213 230.668 112.434C230.814 111.969 230.894 110.759 230.846 109.746C230.765 108.068 230.753 108.031 230.707 109.34ZM45.9545 112.325C47.504 114.419 52.5158 119.296 53.1193 119.296C53.2153 119.296 52.7366 118.85 52.055 118.305C50.8371 117.331 47.2832 113.699 45.6153 111.725C45.1488 111.172 45.3011 111.443 45.9545 112.325ZM212.819 111.68C212.241 112.321 211.878 112.896 212.051 112.896C212.113 112.896 212.471 112.493 212.847 112C213.617 110.989 213.602 110.81 212.819 111.68ZM27.1795 112.896C27.1756 113.248 27.271 113.766 27.392 114.048L27.6121 114.56L27.6044 114.048C27.6006 113.766 27.5046 113.248 27.392 112.896L27.1872 112.256L27.1795 112.896ZM209.286 115.71L206.989 118.144L209.403 115.786C210.731 114.489 211.764 113.393 211.7 113.352C211.636 113.31 210.55 114.371 209.286 115.71ZM229.96 115.098C229.803 115.788 229.715 116.392 229.764 116.442C229.907 116.584 230.44 114.426 230.339 114.12C230.289 113.969 230.118 114.41 229.96 115.098ZM27.6614 114.76C27.6364 115.13 28.4313 116.84 28.8339 117.286C29.0534 117.528 29.3894 118.166 29.5808 118.703C29.7856 119.277 29.934 119.469 29.9398 119.168C29.9456 118.886 29.6998 118.253 29.3939 117.76C29.088 117.267 28.576 116.346 28.2566 115.712C27.9366 115.078 27.6691 114.65 27.6614 114.76ZM228.902 118.15C228.571 118.906 228.36 119.676 228.434 119.859C228.518 120.07 228.575 120.024 228.587 119.734C228.599 119.482 228.845 118.811 229.135 118.243C229.425 117.675 229.626 117.112 229.583 116.992C229.54 116.872 229.233 117.393 228.902 118.15ZM205.44 119.068C203.489 120.644 203.19 121.064 204.981 119.713C206.34 118.688 207.091 117.992 206.799 118.025C206.756 118.03 206.144 118.499 205.44 119.068ZM54.272 120.31C54.7648 120.745 55.3984 121.226 55.68 121.379C55.9616 121.531 55.7888 121.297 55.296 120.858C54.8032 120.419 54.1696 119.938 53.888 119.789C53.6064 119.641 53.7792 119.875 54.272 120.31ZM30.014 122.112C30.0102 122.746 30.0934 123.955 30.1984 124.8L30.3884 126.336L30.4038 124.928C30.4121 124.154 30.3296 122.944 30.2195 122.24L30.0204 120.96L30.014 122.112ZM56.448 121.768C56.912 122.243 59.1948 123.674 59.3081 123.561C59.4073 123.462 58.9728 123.169 56.832 121.889C56.48 121.678 56.3072 121.624 56.448 121.768ZM227.722 123.274C227.623 124.067 227.599 124.772 227.67 124.843C227.74 124.913 227.879 124.323 227.978 123.53C228.077 122.737 228.1 122.031 228.03 121.96C227.96 121.89 227.821 122.481 227.722 123.274ZM200 122.909C199.128 123.468 198.845 123.844 199.616 123.42C200.203 123.097 201.124 122.385 200.96 122.38C200.89 122.378 200.458 122.616 200 122.909ZM59.7478 123.859C59.8528 124.028 60.4204 124.409 61.0092 124.704C62.2624 125.332 62.0076 125.017 60.5625 124.152C60.0096 123.821 59.6428 123.689 59.7478 123.859ZM196.288 125.073C195.089 125.697 194.646 126.097 195.52 125.766C196.123 125.539 197.632 124.647 197.632 124.518C197.632 124.373 197.633 124.373 196.288 125.073ZM62.5766 125.581C63.127 125.992 63.5955 126.077 63.3792 125.727C63.3024 125.603 62.9792 125.436 62.6598 125.356C62.1004 125.215 62.0972 125.222 62.5766 125.581ZM63.744 126.079C63.744 126.25 67.3593 128.054 67.4732 127.94C67.5244 127.889 66.7059 127.422 65.655 126.902C64.6041 126.381 63.744 126.012 63.744 126.079ZM193.408 126.598C192.845 126.945 192.467 127.23 192.568 127.231C192.813 127.233 194.816 126.184 194.816 126.054C194.816 125.83 194.385 125.997 193.408 126.598ZM226.979 127.971C226.88 128.588 226.853 129.146 226.919 129.212C227.091 129.384 227.402 127.581 227.268 127.182C227.208 126.999 227.077 127.354 226.979 127.971ZM191.552 127.496C191.235 127.623 190.976 127.789 190.976 127.864C190.976 128.112 191.384 128.005 191.887 127.624C192.453 127.196 192.374 127.165 191.552 127.496ZM30.782 128.896C30.7814 129.459 30.8684 130.266 30.976 130.688C31.2576 131.795 31.2672 130.588 30.9888 129.024L30.784 127.872L30.782 128.896ZM68.352 128.384C68.704 128.585 69.1072 128.75 69.248 128.75C69.3888 128.75 69.216 128.585 68.864 128.384C68.512 128.183 68.1088 128.018 67.968 128.018C67.8272 128.018 68 128.183 68.352 128.384ZM189.723 128.278C189.386 128.413 189.174 128.587 189.252 128.666C189.331 128.744 189.722 128.631 190.122 128.414C190.925 127.978 190.681 127.894 189.723 128.278ZM70.144 129.152C70.496 129.353 70.8992 129.518 71.04 129.518C71.1808 129.518 71.008 129.353 70.656 129.152C70.304 128.951 69.9008 128.786 69.76 128.786C69.6192 128.786 69.792 128.951 70.144 129.152ZM187.968 129.032C187.111 129.377 187.271 129.551 188.16 129.242C188.582 129.094 188.928 128.927 188.928 128.871C188.928 128.719 188.616 128.771 187.968 129.032ZM71.936 129.92C72.288 130.121 72.6912 130.286 72.832 130.286C72.9728 130.286 72.8 130.121 72.448 129.92C72.096 129.719 71.6928 129.554 71.552 129.554C71.4112 129.554 71.584 129.719 71.936 129.92ZM226.456 130.541C226.372 130.974 226.237 131.674 226.155 132.096C226.074 132.518 226.066 132.864 226.138 132.864C226.321 132.864 226.888 130.035 226.735 129.882C226.666 129.812 226.54 130.109 226.456 130.541ZM73.472 130.56C73.6832 130.696 74.0288 130.808 74.24 130.808C74.5811 130.808 74.5811 130.781 74.24 130.56C74.0288 130.424 73.6832 130.312 73.472 130.312C73.1308 130.312 73.1308 130.339 73.472 130.56ZM184.32 130.56C183.979 130.781 183.979 130.808 184.32 130.808C184.531 130.808 184.877 130.696 185.088 130.56C185.429 130.339 185.429 130.312 185.088 130.312C184.877 130.312 184.531 130.424 184.32 130.56ZM75.008 131.029C75.2192 131.159 75.68 131.343 76.032 131.437C76.4768 131.556 76.5548 131.536 76.288 131.371C76.0768 131.241 75.616 131.057 75.264 130.963C74.8192 130.844 74.7411 130.864 75.008 131.029ZM182.912 130.998C182.63 131.066 182.285 131.238 182.144 131.382C181.971 131.557 182.096 131.581 182.528 131.454C183.853 131.065 184.163 130.698 182.912 130.998ZM77.056 131.797C77.2672 131.927 77.728 132.111 78.08 132.205C78.5248 132.324 78.6028 132.304 78.336 132.139C78.1248 132.009 77.664 131.825 77.312 131.731C76.8672 131.612 76.7891 131.632 77.056 131.797ZM180.352 131.969L179.584 132.331L180.352 132.179C180.774 132.095 181.293 131.931 181.504 131.813C182.193 131.43 181.216 131.562 180.352 131.969ZM31.3894 133.12C31.472 133.894 31.6294 134.623 31.7388 134.74C31.8476 134.856 31.831 134.338 31.7004 133.588C31.3702 131.683 31.2096 131.443 31.3894 133.12ZM178.048 132.737L177.28 133.099L178.048 132.947C178.47 132.863 178.989 132.699 179.2 132.581C179.889 132.198 178.912 132.33 178.048 132.737ZM80.896 133.087C81.1072 133.213 81.6832 133.389 82.176 133.476C82.7801 133.583 82.9056 133.563 82.56 133.415C81.7683 133.076 80.4416 132.815 80.896 133.087ZM175.744 133.376L175.232 133.596H175.744C176.026 133.596 176.486 133.497 176.768 133.376L177.28 133.156H176.768C176.486 133.156 176.026 133.255 175.744 133.376ZM225.662 134.447C225.369 136.237 222.969 138.66 217.92 142.263C216.523 143.26 215.724 144.003 216.64 143.454C221.775 140.376 227.128 134.627 225.954 133.453C225.893 133.391 225.761 133.839 225.662 134.447ZM83.968 133.999C84.4608 134.198 85.0368 134.366 85.248 134.372C85.9212 134.393 84.9836 133.967 83.968 133.791L83.072 133.636L83.968 133.999ZM173.86 133.926C173.387 134.062 173.048 134.221 173.107 134.28C173.236 134.409 175.104 133.912 175.104 133.748C175.104 133.597 174.9 133.626 173.86 133.926ZM86.272 134.631C86.8038 134.939 88.5638 135.26 88.064 134.958C87.8528 134.831 87.2768 134.655 86.784 134.568C86.2265 134.468 86.0332 134.493 86.272 134.631ZM170.88 134.794C169.871 135.143 169.869 135.146 170.752 134.996C171.796 134.82 172.864 134.431 172.288 134.436C172.077 134.438 171.443 134.599 170.88 134.794ZM33.9123 137.208C35.0278 138.33 35.975 139.214 36.0172 139.172C36.1126 139.076 32.2156 135.168 32.0243 135.168C31.9475 135.168 32.7968 136.086 33.9123 137.208ZM89.344 135.389C90.2995 135.704 92.1408 135.974 91.52 135.709C91.2384 135.588 90.4896 135.42 89.856 135.334C89.0982 135.232 88.9228 135.251 89.344 135.389ZM167.552 135.556L166.528 135.905L167.552 135.756C168.115 135.674 168.806 135.516 169.088 135.404L169.6 135.201L169.088 135.204C168.806 135.206 168.115 135.364 167.552 135.556ZM92.672 136.192C93.024 136.305 93.5424 136.397 93.824 136.397C94.2291 136.397 94.2028 136.355 93.696 136.192C93.344 136.079 92.8256 135.987 92.544 135.987C92.1388 135.987 92.1651 136.029 92.672 136.192ZM164.736 136.192L164.224 136.412H164.736C165.018 136.412 165.478 136.313 165.76 136.192L166.272 135.972H165.76C165.478 135.972 165.018 136.071 164.736 136.192ZM96.384 136.96C96.8064 137.068 97.3824 137.161 97.664 137.168L98.176 137.18L97.664 136.96C97.3824 136.839 96.8064 136.746 96.384 136.752L95.616 136.765L96.384 136.96ZM160.64 136.96C159.959 137.252 161.026 137.252 162.176 136.96L162.944 136.765L162.048 136.752C161.555 136.746 160.922 136.839 160.64 136.96ZM99.3772 137.459C99.7568 137.578 100.678 137.743 101.425 137.825C102.287 137.919 102.55 137.896 102.144 137.763C101.792 137.647 100.87 137.483 100.096 137.398C99.1648 137.295 98.9216 137.316 99.3772 137.459ZM157.351 137.484C156.668 137.599 156.035 137.769 155.943 137.862C155.764 138.044 157.515 137.823 158.98 137.478C160.179 137.196 159.043 137.201 157.351 137.484ZM104.192 138.225C104.685 138.341 105.894 138.499 106.88 138.575C108.004 138.662 108.364 138.637 107.847 138.51C107.393 138.399 106.184 138.241 105.159 138.161C103.926 138.063 103.599 138.085 104.192 138.225ZM151.942 138.269C151.1 138.392 150.294 138.546 150.15 138.612C149.8 138.772 152.946 138.483 154.24 138.236L155.264 138.04L154.368 138.044C153.875 138.045 152.783 138.147 151.942 138.269ZM110.208 139.001C110.971 139.202 114.615 139.349 114.411 139.171C114.352 139.119 113.21 139.015 111.872 138.938C110.49 138.859 109.771 138.886 110.208 139.001ZM145.408 139.008L143.744 139.176L145.408 139.205C146.323 139.221 147.533 139.139 148.096 139.023L149.12 138.811L148.096 138.826C147.533 138.834 146.323 138.916 145.408 139.008ZM36.3622 139.439C36.368 139.554 37.1328 140.21 38.0614 140.897C38.9907 141.583 39.6844 142.038 39.6032 141.907C39.3536 141.503 36.3513 139.217 36.3622 139.439ZM115.523 139.448C115.913 139.507 116.489 139.505 116.803 139.444C117.118 139.384 116.8 139.335 116.096 139.337C115.392 139.339 115.134 139.389 115.523 139.448ZM141.635 139.448C142.025 139.507 142.601 139.505 142.915 139.444C143.23 139.384 142.912 139.335 142.208 139.337C141.504 139.339 141.246 139.389 141.635 139.448ZM123.428 139.867C126.667 139.99 131.75 139.991 134.948 139.868C140.264 139.663 139.851 139.648 129.152 139.647C118.395 139.647 118.016 139.661 123.428 139.867ZM39.936 142.17C39.936 142.28 42.695 144.293 43.456 144.739C44.4499 145.321 43.5084 144.519 41.856 143.377C40.8 142.646 39.936 142.104 39.936 142.17ZM215.104 144.157C214.232 144.716 213.949 145.092 214.72 144.668C215.307 144.345 216.228 143.633 216.064 143.628C215.994 143.626 215.562 143.864 215.104 144.157ZM212.282 145.892C210.248 147.132 209.927 147.457 211.584 146.6C212.75 145.997 214.326 144.902 214.016 144.911C213.946 144.913 213.165 145.354 212.282 145.892ZM51.456 149.351C51.456 149.548 55.088 151.333 55.2204 151.201C55.2774 151.144 54.5433 150.71 53.5884 150.236C51.4156 149.159 51.456 149.176 51.456 149.351ZM203.58 150.586C202.134 151.3 200.999 151.932 201.057 151.99C201.181 152.114 206.336 149.558 206.336 149.373C206.336 149.21 206.575 149.105 203.58 150.586ZM57.088 152.198C57.088 152.272 57.3472 152.435 57.664 152.56C57.9808 152.685 58.672 152.972 59.2 153.197C60.711 153.842 60.32 153.455 58.7212 152.723C57.1891 152.021 57.088 151.989 57.088 152.198ZM199.808 152.457C199.165 152.767 199.144 152.802 199.68 152.673C200.032 152.588 200.429 152.416 200.563 152.291C200.895 151.981 200.713 152.021 199.808 152.457ZM60.416 153.686C60.416 153.752 60.7878 153.935 61.2422 154.094C61.6966 154.252 61.9558 154.276 61.8182 154.148C61.5264 153.875 60.416 153.509 60.416 153.686ZM194.944 154.487C194.522 154.68 194.349 154.844 194.56 154.85C194.771 154.856 195.232 154.697 195.584 154.496C196.399 154.03 195.955 154.024 194.944 154.487ZM64 155.264C64.352 155.465 64.7552 155.63 64.896 155.63C65.0368 155.63 64.864 155.465 64.512 155.264C64.16 155.063 63.7568 154.898 63.616 154.898C63.4752 154.898 63.648 155.063 64 155.264ZM193.152 155.273C192.509 155.583 192.488 155.618 193.024 155.489C193.376 155.404 193.773 155.232 193.907 155.107C194.239 154.797 194.057 154.837 193.152 155.273ZM65.536 155.861C65.7472 155.991 66.208 156.175 66.56 156.269C67.0048 156.388 67.0828 156.368 66.816 156.203C66.6048 156.073 66.144 155.889 65.792 155.795C65.3472 155.676 65.2691 155.696 65.536 155.861ZM191.259 155.926C190.922 156.061 190.704 156.229 190.775 156.301C190.925 156.45 192.256 155.984 192.256 155.782C192.256 155.597 191.98 155.637 191.259 155.926ZM67.584 156.629C67.7952 156.759 68.256 156.943 68.608 157.037C69.0528 157.156 69.1308 157.136 68.864 156.971C68.6528 156.841 68.192 156.657 67.84 156.563C67.3952 156.444 67.3171 156.464 67.584 156.629ZM189.056 156.801L188.288 157.163L189.056 157.011C189.478 156.927 189.997 156.763 190.208 156.645C190.897 156.262 189.92 156.394 189.056 156.801ZM187.008 157.577C186.368 157.885 186.346 157.921 186.88 157.791C187.605 157.613 188.42 157.197 188.032 157.203C187.891 157.205 187.43 157.373 187.008 157.577ZM71.296 158.079C72.16 158.486 73.1372 158.618 72.448 158.235C72.2368 158.117 71.7184 157.953 71.296 157.869L70.528 157.717L71.296 158.079ZM185.088 158.208C184.747 158.429 184.747 158.456 185.088 158.456C185.299 158.456 185.645 158.344 185.856 158.208C186.197 157.987 186.197 157.96 185.856 157.96C185.645 157.96 185.299 158.072 185.088 158.208ZM73.216 158.682C73.4272 158.806 73.9456 158.982 74.368 159.073C74.8595 159.18 74.9977 159.158 74.752 159.014C74.5408 158.89 74.0224 158.714 73.6 158.623C73.1084 158.516 72.9702 158.538 73.216 158.682ZM183.332 158.758C182.859 158.894 182.52 159.053 182.579 159.112C182.708 159.241 184.576 158.744 184.576 158.58C184.576 158.429 184.372 158.458 183.332 158.758ZM75.52 159.461C75.7312 159.579 76.2496 159.743 76.672 159.827L77.44 159.979L76.672 159.617C75.808 159.21 74.8307 159.078 75.52 159.461ZM180.772 159.526C180.299 159.662 179.96 159.821 180.019 159.88C180.148 160.009 182.016 159.512 182.016 159.348C182.016 159.197 181.812 159.226 180.772 159.526ZM77.952 160.256C78.039 160.397 78.3628 160.504 78.6713 160.494C79.2121 160.477 79.2134 160.468 78.72 160.256C78.0153 159.953 77.7651 159.953 77.952 160.256ZM178.56 160.256L178.048 160.476L178.56 160.49C178.842 160.498 179.245 160.392 179.456 160.256C179.965 159.927 179.325 159.927 178.56 160.256ZM176.384 160.916L175.232 161.27L176.256 161.123C176.819 161.043 177.453 160.876 177.664 160.753C178.196 160.441 177.743 160.499 176.384 160.916ZM39.936 161.137C39.936 161.34 40.0512 161.577 40.192 161.664C40.3328 161.751 40.448 161.69 40.448 161.528C40.448 161.366 41.1104 161.862 41.92 162.631C44.1356 164.735 47.7132 167.548 49.152 168.317C49.8752 168.705 49.0579 168.04 46.5337 166.188C45.1648 165.184 43.1929 163.553 42.1523 162.565C40.1728 160.685 39.936 160.532 39.936 161.137ZM80.512 161.024C80.7936 161.145 81.2544 161.244 81.536 161.244H82.048L81.536 161.024C81.2544 160.903 80.7936 160.804 80.512 160.804H80L80.512 161.024ZM82.432 161.511C82.9638 161.819 84.7238 162.14 84.224 161.838C84.0128 161.711 83.4368 161.535 82.944 161.448C82.3865 161.348 82.1932 161.373 82.432 161.511ZM173.875 161.533C173.411 161.643 172.95 161.817 172.851 161.92C172.626 162.156 174.33 161.81 174.848 161.514C175.304 161.255 175.026 161.26 173.875 161.533ZM85.248 162.26C85.4592 162.389 86.0928 162.565 86.656 162.651C87.8764 162.838 87.1334 162.462 85.76 162.198C85.1756 162.086 84.9977 162.108 85.248 162.26ZM170.624 162.442C169.61 162.792 169.609 162.794 170.496 162.648C170.989 162.568 171.565 162.403 171.776 162.282C172.34 161.961 171.795 162.036 170.624 162.442ZM88.448 163.072C88.7296 163.193 89.248 163.288 89.6 163.284L90.24 163.277L89.6 163.072C89.248 162.959 88.7296 162.863 88.448 162.86L87.936 162.852L88.448 163.072ZM167.311 163.104C166.756 163.234 166.243 163.4 166.169 163.474C165.988 163.654 168.189 163.304 168.832 163.05L169.344 162.849L168.832 162.858C168.55 162.863 167.866 162.974 167.311 163.104ZM214.208 163.452C213.821 163.793 213.504 164.155 213.504 164.257C213.504 164.358 213.811 164.162 214.185 163.821C214.797 163.263 214.849 163.252 214.696 163.712C214.529 164.216 214.532 164.216 214.911 163.727C215.711 162.693 215.267 162.519 214.208 163.452ZM41.3875 164.036C41.4681 164.355 41.6352 164.678 41.7587 164.755C42.1094 164.972 42.0236 164.503 41.6128 163.953C41.2544 163.473 41.2467 163.476 41.3875 164.036ZM91.776 163.84C92.0576 163.961 92.576 164.056 92.928 164.052L93.568 164.045L92.928 163.84C92.576 163.727 92.0576 163.631 91.776 163.628L91.264 163.62L91.776 163.84ZM164.096 163.84L163.456 164.045L164.096 164.052C164.448 164.056 164.966 163.961 165.248 163.84L165.76 163.62L165.248 163.628C164.966 163.631 164.448 163.727 164.096 163.84ZM95.616 164.623C96.9836 164.906 97.9225 164.896 97.024 164.608C96.672 164.495 95.9808 164.405 95.488 164.407L94.592 164.411L95.616 164.623ZM160.256 164.608L159.616 164.813L160.256 164.808C160.608 164.806 161.242 164.716 161.664 164.608L162.432 164.413L161.664 164.408C161.242 164.405 160.608 164.495 160.256 164.608ZM211.531 165.584C210.657 166.244 209.937 166.877 209.931 166.991C209.919 167.217 212.874 165.006 213.124 164.602C213.36 164.22 213.239 164.294 211.531 165.584ZM213.83 165.171C212.616 167.221 211.955 168.448 212.066 168.448C212.26 168.448 214.564 164.559 214.442 164.436C214.381 164.375 214.105 164.705 213.83 165.171ZM98.432 165.086C98.7136 165.205 99.5776 165.37 100.352 165.453C102.061 165.638 101.049 165.27 99.1948 165.033C98.4198 164.934 98.1209 164.955 98.432 165.086ZM156.544 165.256L155.008 165.592L156.544 165.45C157.389 165.371 158.31 165.214 158.592 165.101L159.104 164.897L158.592 164.908C158.31 164.915 157.389 165.071 156.544 165.256ZM42.576 166.272C42.9318 166.976 43.4099 167.782 43.6384 168.064C43.8668 168.346 43.6851 167.885 43.2332 167.04C42.2163 165.135 41.6921 164.524 42.576 166.272ZM103.168 165.857C103.52 165.972 104.672 166.133 105.728 166.216C107.014 166.316 107.31 166.297 106.624 166.157C105.08 165.844 102.416 165.613 103.168 165.857ZM151.59 165.908C150.696 166.024 149.832 166.175 149.67 166.243C149.212 166.436 153.136 166.086 153.856 165.869L154.496 165.676L153.856 165.686C153.504 165.692 152.484 165.792 151.59 165.908ZM109.056 166.65C109.677 166.855 113.089 167.005 112.875 166.819C112.816 166.768 111.789 166.662 110.592 166.583C109.315 166.499 108.68 166.527 109.056 166.65ZM145.408 166.656L144 166.829L145.536 166.845C146.381 166.854 147.36 166.769 147.712 166.656C148.539 166.391 147.571 166.391 145.408 166.656ZM113.856 167.092C114.173 167.154 114.691 167.154 115.008 167.092C115.325 167.032 115.066 166.982 114.432 166.982C113.798 166.982 113.539 167.032 113.856 167.092ZM141.76 167.092C142.077 167.154 142.595 167.154 142.912 167.092C143.229 167.032 142.97 166.982 142.336 166.982C141.702 166.982 141.443 167.032 141.76 167.092ZM117.632 167.456C118.618 167.544 123.456 167.617 128.384 167.617C133.312 167.617 138.15 167.544 139.136 167.456C140.122 167.368 135.283 167.296 128.384 167.296C121.485 167.296 116.646 167.368 117.632 167.456ZM207.744 168.341C206.076 169.432 204.895 170.36 205.824 169.848C206.65 169.393 209.664 167.372 209.664 167.273C209.664 167.093 209.582 167.139 207.744 168.341ZM49.664 168.513C49.664 168.684 51.5257 169.899 53.1641 170.799C55.1699 171.899 54.8243 171.498 52.672 170.227C51.6512 169.624 50.5568 168.963 50.24 168.76C49.9232 168.556 49.664 168.445 49.664 168.513ZM210.688 170.24C210.115 171.085 209.702 171.776 209.773 171.776C209.843 171.776 210.371 171.085 210.944 170.24C211.517 169.395 211.93 168.704 211.859 168.704C211.789 168.704 211.261 169.395 210.688 170.24ZM45.2268 170.708C45.4848 171.176 45.8585 171.695 46.0576 171.86C46.544 172.263 46.0659 171.405 45.2979 170.496L44.7571 169.856L45.2268 170.708ZM202.804 171.316C202.34 171.603 202.008 171.885 202.068 171.945C202.181 172.059 204.032 171.031 204.032 170.854C204.032 170.653 203.636 170.802 202.804 171.316ZM54.784 171.643C54.784 171.71 55.2448 172.001 55.808 172.288C57.0771 172.936 57.152 172.783 55.9212 172.058C54.9836 171.504 54.784 171.431 54.784 171.643ZM200.384 172.689C199.715 173.037 199.168 173.379 199.168 173.449C199.168 173.519 199.744 173.285 200.448 172.928C201.152 172.572 201.728 172.224 201.728 172.156C201.728 171.987 201.751 171.977 200.384 172.689ZM208.902 172.864C206.742 175.847 202.947 180.243 199.843 183.356C197.37 185.834 196.891 186.39 198.331 185.108C201.394 182.381 207.962 174.957 209.276 172.736C209.843 171.778 209.637 171.848 208.902 172.864ZM46.336 172.376C46.336 172.676 47.9763 174.827 48.2137 174.838C48.3308 174.844 48.0512 174.358 47.5916 173.76C46.4787 172.31 46.336 172.152 46.336 172.376ZM61.2729 175.005C61.9558 175.361 62.5702 175.596 62.638 175.527C62.759 175.407 60.512 174.324 60.1913 174.348C60.1036 174.355 60.5907 174.65 61.2729 175.005ZM195.881 174.889C195.27 175.17 194.827 175.456 194.896 175.525C194.965 175.595 195.58 175.361 196.263 175.005C197.733 174.241 197.469 174.16 195.881 174.889ZM48.6073 175.555C48.7398 175.803 49.111 176.235 49.4316 176.515C49.9091 176.932 49.8848 176.85 49.2966 176.064C48.5376 175.048 48.2048 174.803 48.6073 175.555ZM63.488 175.98C64.2009 176.41 64.7622 176.522 64.3712 176.157C64.2374 176.032 63.84 175.854 63.488 175.762L62.848 175.595L63.488 175.98ZM192.64 176.403C191.795 176.813 191.392 177.078 191.744 176.99C192.475 176.808 194.82 175.636 194.432 175.647C194.291 175.652 193.485 175.992 192.64 176.403ZM64.9088 176.611C65.0425 176.736 65.44 176.914 65.792 177.006L66.432 177.173L65.792 176.788C65.079 176.358 64.5177 176.246 64.9088 176.611ZM50.2246 177.592C51.6339 179.741 58.1702 186.195 61.824 189.045C63.7062 190.514 63.744 190.54 63.744 190.379C63.744 190.298 62.8448 189.546 61.7452 188.709C59.6409 187.108 54.1702 181.847 51.4566 178.816C50.574 177.83 50.0198 177.28 50.2246 177.592ZM66.56 177.238C66.56 177.304 66.9318 177.487 67.3862 177.646C67.8406 177.804 68.0998 177.828 67.9622 177.7C67.6704 177.427 66.56 177.061 66.56 177.238ZM187.587 178.408C186.304 178.878 185.537 179.402 186.623 179.067C187.535 178.785 189.361 177.955 189.056 177.96C188.915 177.963 188.254 178.164 187.587 178.408ZM70.4 178.796C71.1129 179.226 71.6742 179.338 71.2832 178.973C71.1494 178.848 70.752 178.67 70.4 178.578L69.76 178.411L70.4 178.796ZM72.064 179.394C72.2048 179.533 72.6656 179.72 73.088 179.811C73.9692 179.999 73.4816 179.633 72.448 179.33C72.0275 179.207 71.8956 179.229 72.064 179.394ZM184.448 179.585L183.68 179.947L184.448 179.796C184.87 179.714 185.325 179.546 185.459 179.423C185.824 179.089 185.336 179.167 184.448 179.585ZM74.24 180.197C74.4512 180.315 74.9696 180.479 75.392 180.563L76.16 180.715L75.392 180.353C74.528 179.946 73.5507 179.814 74.24 180.197ZM182.4 180.361C181.76 180.669 181.738 180.705 182.272 180.575C182.997 180.397 183.812 179.981 183.424 179.987C183.283 179.989 182.822 180.157 182.4 180.361ZM76.544 180.992C76.7552 181.128 77.1008 181.24 77.312 181.24C77.6531 181.24 77.6531 181.213 77.312 180.992C77.1008 180.856 76.7552 180.744 76.544 180.744C76.2028 180.744 76.2028 180.771 76.544 180.992ZM180.224 180.992C179.715 181.321 180.355 181.321 181.12 180.992L181.632 180.772L181.12 180.758C180.838 180.75 180.435 180.856 180.224 180.992ZM78.976 181.76C79.2576 181.881 79.6608 181.98 79.872 181.98C80.1139 181.98 80.0665 181.899 79.744 181.76C79.4624 181.639 79.0592 181.54 78.848 181.54C78.606 181.54 78.6534 181.621 78.976 181.76ZM81.152 182.383C81.6448 182.582 82.2208 182.75 82.432 182.756C83.1052 182.777 82.1676 182.351 81.152 182.175L80.256 182.021L81.152 182.383ZM175.923 182.269C175.459 182.379 174.998 182.553 174.899 182.656C174.674 182.892 176.378 182.546 176.896 182.25C177.352 181.991 177.074 181.996 175.923 182.269ZM83.328 183.001C84.1196 183.34 85.4464 183.601 84.992 183.329C84.7808 183.203 84.2048 183.027 83.712 182.94C83.1078 182.833 82.9824 182.853 83.328 183.001ZM172.928 183.178C171.919 183.527 171.917 183.53 172.8 183.381C173.844 183.205 174.912 182.815 174.336 182.82C174.125 182.822 173.491 182.983 172.928 183.178ZM86.272 183.808C86.4832 183.944 86.944 184.047 87.296 184.035L87.936 184.013L87.296 183.808C86.3091 183.492 85.783 183.492 86.272 183.808ZM169.856 183.941L168.832 184.289L169.856 184.14C170.419 184.058 171.11 183.9 171.392 183.788L171.904 183.585L171.392 183.588C171.11 183.59 170.419 183.749 169.856 183.941ZM89.344 184.576C89.696 184.689 90.2144 184.785 90.496 184.788L91.008 184.796L90.496 184.576C90.2144 184.455 89.696 184.36 89.344 184.364L88.704 184.371L89.344 184.576ZM167.04 184.576L166.528 184.796L167.04 184.788C167.322 184.785 167.84 184.689 168.192 184.576L168.832 184.371L168.192 184.364C167.84 184.36 167.322 184.455 167.04 184.576ZM164.352 185.16C163.718 185.309 163.373 185.469 163.584 185.514C163.795 185.56 164.544 185.435 165.248 185.237C166.739 184.819 166.045 184.758 164.352 185.16ZM92.1811 185.182C92.24 185.234 92.7488 185.353 93.312 185.448C94.0454 185.571 94.2272 185.545 93.952 185.357C93.6064 185.122 91.9244 184.956 92.1811 185.182ZM95.36 185.821C96.0972 186.131 98.2636 186.418 97.792 186.143C97.5808 186.02 96.832 185.849 96.128 185.763C95.3465 185.667 95.047 185.69 95.36 185.821ZM160.541 185.876C159.923 185.998 159.351 186.164 159.27 186.244C159.099 186.415 161.106 186.121 162.048 185.837C162.951 185.565 162.001 185.59 160.541 185.876ZM99.584 186.604C100.874 186.916 103.476 187.166 102.612 186.894C102.235 186.776 101.199 186.613 100.308 186.533C99.143 186.428 98.9401 186.448 99.584 186.604ZM155.904 186.658C155.13 186.784 154.381 186.939 154.24 187.002C153.831 187.185 157.245 186.82 157.952 186.606L158.592 186.412L157.952 186.42C157.6 186.424 156.678 186.531 155.904 186.658ZM104.32 187.392C104.742 187.5 105.491 187.588 105.984 187.588L106.88 187.589L105.856 187.377C104.477 187.092 103.19 187.105 104.32 187.392ZM151.168 187.392L150.4 187.587H151.296C151.789 187.587 152.538 187.5 152.96 187.392L153.728 187.197H152.832C152.339 187.197 151.59 187.284 151.168 187.392ZM193.062 189.315C191.605 190.496 190.28 191.51 190.118 191.568C189.956 191.626 189.886 191.742 189.962 191.825C190.038 191.909 191.42 190.934 193.034 189.658C196.435 186.97 196.248 187.132 195.947 187.152C195.818 187.161 194.52 188.134 193.062 189.315ZM108.096 187.825C108.342 187.889 108.746 187.889 108.992 187.825C109.238 187.76 109.037 187.708 108.544 187.708C108.051 187.708 107.85 187.76 108.096 187.825ZM148.288 187.825C148.534 187.889 148.938 187.889 149.184 187.825C149.43 187.76 149.229 187.708 148.736 187.708C148.243 187.708 148.042 187.76 148.288 187.825ZM110.848 188.171C112.871 188.451 114.495 188.431 112.896 188.147C112.262 188.034 111.226 187.949 110.592 187.959L109.44 187.976L110.848 188.171ZM144.128 188.16L143.232 188.349L144.128 188.357C144.621 188.362 145.658 188.278 146.432 188.171L147.84 187.976L146.432 187.974C145.658 187.973 144.621 188.056 144.128 188.16ZM116.164 188.602C116.625 188.659 117.316 188.657 117.7 188.599C118.085 188.541 117.709 188.494 116.864 188.495C116.019 188.497 115.704 188.545 116.164 188.602ZM139.2 188.601C139.658 188.658 140.406 188.658 140.864 188.601C141.322 188.545 140.947 188.498 140.032 188.498C139.117 188.498 138.742 188.545 139.2 188.601ZM123.489 188.929C126.288 189.023 130.781 189.023 133.473 188.928C137.437 188.789 136.468 188.756 128.384 188.756C120.107 188.757 119.27 188.787 123.489 188.929ZM64.768 191.36C65.2448 191.712 65.6992 191.996 65.7779 191.991C66.0153 191.976 64.4019 190.723 64.142 190.721C64.0096 190.721 64.2912 191.008 64.768 191.36ZM66.432 192.388C66.7136 192.618 67.1744 192.918 67.456 193.057L67.968 193.308L67.456 192.892C67.1744 192.662 66.7136 192.362 66.432 192.223L65.92 191.972L66.432 192.388ZM188.544 192.672C188.122 193.032 188.006 193.208 188.288 193.066C189.053 192.677 189.86 192.016 189.568 192.017C189.427 192.018 188.966 192.312 188.544 192.672ZM68.2681 193.558C68.4332 193.757 68.9516 194.131 69.4201 194.389L70.272 194.859L69.632 194.318C68.7232 193.55 67.8649 193.072 68.2681 193.558ZM183.631 195.783C182.055 196.723 180.808 197.533 180.859 197.585C180.97 197.696 185.815 194.879 186.359 194.387C186.996 193.811 186.593 194.017 183.631 195.783ZM70.4 194.913C70.4 195.106 72.2528 196.12 72.3769 195.996C72.4435 195.93 72.0256 195.635 71.4489 195.341C70.8716 195.046 70.4 194.854 70.4 194.913ZM72.704 196.228C72.704 196.291 73.28 196.636 73.984 196.992C75.4208 197.72 75.7062 197.686 74.432 196.939C73.4739 196.377 72.704 196.06 72.704 196.228ZM75.6288 197.857C75.7056 197.981 76.0288 198.148 76.3481 198.228C76.9075 198.369 76.9107 198.362 76.4313 198.003C75.8809 197.592 75.4124 197.507 75.6288 197.857ZM78.336 199.05C78.336 199.24 81.214 200.472 81.3472 200.339C81.4508 200.234 80.5849 199.812 78.912 199.152C78.5952 199.027 78.336 198.981 78.336 199.05ZM177.216 199.176C176.899 199.303 176.64 199.469 176.64 199.544C176.64 199.792 177.048 199.685 177.551 199.304C178.117 198.876 178.038 198.845 177.216 199.176ZM175.68 199.944C175.363 200.071 175.104 200.237 175.104 200.312C175.104 200.56 175.512 200.453 176.015 200.072C176.581 199.644 176.502 199.613 175.68 199.944ZM81.92 200.661C82.1312 200.791 82.592 200.975 82.944 201.069C83.3888 201.188 83.4668 201.168 83.2 201.003C82.9888 200.873 82.528 200.689 82.176 200.595C81.7312 200.476 81.6531 200.496 81.92 200.661ZM173.696 200.841C173.056 201.149 173.034 201.185 173.568 201.055C174.293 200.877 175.108 200.461 174.72 200.467C174.579 200.469 174.118 200.637 173.696 200.841ZM83.968 201.429C84.1792 201.559 84.64 201.743 84.992 201.837C85.4368 201.956 85.5148 201.936 85.248 201.771C85.0368 201.641 84.576 201.457 84.224 201.363C83.7792 201.244 83.7011 201.264 83.968 201.429ZM171.776 201.62L171.136 202.005L171.776 201.838C172.128 201.746 172.525 201.568 172.659 201.443C173.05 201.078 172.489 201.19 171.776 201.62ZM86.016 202.197C86.2272 202.327 86.688 202.511 87.04 202.605C87.4848 202.725 87.5628 202.704 87.296 202.539C87.0848 202.409 86.624 202.225 86.272 202.131C85.8272 202.012 85.7491 202.032 86.016 202.197ZM168.448 202.88C167.955 203.07 167.725 203.229 167.936 203.233C168.147 203.237 168.666 203.083 169.088 202.889C170.077 202.436 169.617 202.43 168.448 202.88ZM88.064 203.008C88.2752 203.144 88.6208 203.256 88.832 203.256C89.1731 203.256 89.1731 203.229 88.832 203.008C88.6208 202.872 88.2752 202.76 88.064 202.76C87.7228 202.76 87.7228 202.787 88.064 203.008ZM89.728 203.468C89.8688 203.6 90.3872 203.779 90.88 203.866C91.9244 204.049 91.4144 203.684 90.24 203.409C89.758 203.295 89.5673 203.317 89.728 203.468ZM166.144 203.648C165.651 203.838 165.421 203.997 165.632 204.001C165.843 204.005 166.362 203.851 166.784 203.657C167.773 203.204 167.313 203.198 166.144 203.648ZM92.416 204.255C92.6272 204.381 93.2032 204.557 93.696 204.644C94.3001 204.751 94.4256 204.731 94.08 204.583C93.2883 204.245 91.9616 203.983 92.416 204.255ZM163.876 204.326C163.403 204.462 163.064 204.621 163.123 204.68C163.252 204.809 165.12 204.312 165.12 204.148C165.12 203.997 164.916 204.026 163.876 204.326ZM95.104 205.024C95.3856 205.142 96.0768 205.311 96.64 205.4C97.2896 205.501 97.4771 205.481 97.152 205.344C96.8704 205.226 96.1792 205.057 95.616 204.968C94.9664 204.867 94.7788 204.887 95.104 205.024ZM159.872 205.444C158.746 205.772 157.997 206.047 158.208 206.054C158.668 206.07 162.331 205.114 162.516 204.929C162.762 204.684 161.912 204.849 159.872 205.444ZM98.304 205.824C98.656 205.937 99.232 206.029 99.584 206.029H100.224L99.584 205.824C99.232 205.711 98.656 205.619 98.304 205.619H97.664L98.304 205.824ZM100.766 206.324C101.064 206.449 101.871 206.616 102.558 206.697C104.107 206.878 103.069 206.493 101.376 206.259C100.606 206.152 100.404 206.174 100.766 206.324ZM155.933 206.356C155.315 206.478 154.739 206.652 154.653 206.742C154.459 206.945 156.609 206.604 157.312 206.319C157.966 206.055 157.389 206.07 155.933 206.356ZM104.96 207.077C105.312 207.189 106.234 207.349 107.008 207.434C107.83 207.524 108.15 207.505 107.776 207.387C107.424 207.276 106.502 207.115 105.728 207.03C104.906 206.94 104.586 206.959 104.96 207.077ZM152.079 207.127C151.453 207.25 150.82 207.407 150.671 207.476C150.227 207.682 152.916 207.307 153.472 207.085C154.13 206.822 153.542 206.84 152.079 207.127ZM109.952 207.853C110.515 207.969 111.898 208.126 113.024 208.204C114.383 208.297 114.727 208.275 114.048 208.138C113.485 208.025 112.102 207.868 110.976 207.788C109.601 207.692 109.265 207.713 109.952 207.853ZM146.822 207.901C144.671 208.214 144.452 208.392 146.432 208.217C148.512 208.033 150.335 207.664 149.12 207.673C148.698 207.676 147.663 207.779 146.822 207.901ZM117.12 208.65C117.965 208.755 119.462 208.835 120.448 208.828L122.24 208.815L120.448 208.632C119.462 208.531 117.965 208.45 117.12 208.453L115.584 208.46L117.12 208.65ZM139.776 208.64L138.368 208.813L139.904 208.829C140.749 208.838 142.074 208.758 142.848 208.651L144.256 208.456L142.72 208.462C141.875 208.465 140.55 208.545 139.776 208.64ZM126.784 209.087C128.579 209.132 131.517 209.132 133.312 209.087C135.107 209.043 133.638 209.007 130.048 209.007C126.458 209.007 124.989 209.043 126.784 209.087Z" fill="#598D36"/>
<path fill-rule="evenodd" clip-rule="evenodd" d="M192.084 44.9632C191.035 45.3907 187.283 51.8246 185.087 56.96C184.785 57.664 184.367 58.6432 184.156 59.136C183.945 59.6288 183.675 60.2624 183.554 60.544C183.433 60.8256 182.966 62.0352 182.516 63.232C182.065 64.4288 181.595 65.6083 181.472 65.8528C181.349 66.0973 181.248 66.4064 181.248 66.5402C181.248 66.6733 181.115 67.1072 180.952 67.5034C180.475 68.6662 179.729 70.768 179.72 70.976C179.716 71.0816 179.913 71.1718 180.16 71.177C180.669 71.1866 182.055 71.8304 183.114 72.5485C183.969 73.1277 185.039 74.8851 185.664 76.7354C186.111 78.0608 186.79 79.104 187.205 79.104C188.422 79.104 191.239 81.7856 192.403 84.0538C192.921 85.0624 193.375 85.9226 193.41 85.9648C193.446 86.0064 193.864 85.8227 194.338 85.5558C194.812 85.289 195.891 84.6886 196.736 84.2214C202.744 80.9005 214.298 73.5168 215.552 72.1984C215.622 72.1248 216.256 71.6147 216.96 71.065C219.73 68.9043 222.548 65.4368 222.879 63.783C223.146 62.4461 221.416 60.2502 218.112 57.7325C217.197 57.0349 216.288 56.3085 216.092 56.1184C215.896 55.9283 215.493 55.6218 215.196 55.4368C214.899 55.2525 213.504 54.3565 212.096 53.447C210.688 52.5376 208.539 51.2608 207.321 50.6099C206.102 49.9597 204.674 49.1846 204.147 48.889C203.619 48.5926 202.197 47.9418 200.986 47.4432C199.775 46.944 198.669 46.4499 198.528 46.3456C198.239 46.1306 196.76 45.719 194.304 45.1712C192.529 44.775 192.541 44.7763 192.084 44.9632ZM34.8082 82.624L33.1519 84.352L34.8799 82.6957C35.8303 81.7843 36.6079 81.0067 36.6079 80.9677C36.6079 80.7789 36.3474 81.0189 34.8082 82.624ZM224.512 85.12C225.277 85.8944 225.96 86.528 226.031 86.528C226.101 86.528 225.533 85.8944 224.768 85.12C224.003 84.3456 223.32 83.712 223.249 83.712C223.179 83.712 223.747 84.3456 224.512 85.12ZM229.138 91.776C229.138 91.9168 229.303 92.32 229.504 92.672C229.705 93.024 229.87 93.1968 229.87 93.056C229.87 92.9152 229.705 92.512 229.504 92.16C229.303 91.808 229.138 91.6352 229.138 91.776ZM27.1653 94.7629C27.1493 94.9978 27.0693 95.401 26.9887 95.6589C26.8492 96.1037 26.8562 96.1043 27.134 95.6717C27.2946 95.4214 27.3746 95.0182 27.3106 94.7757C27.2069 94.3795 27.1922 94.3782 27.1653 94.7629ZM40.0217 97.536C40.0217 98.592 40.0671 99.024 40.1221 98.496C40.1778 97.968 40.1778 97.104 40.1221 96.576C40.0671 96.048 40.0217 96.48 40.0217 97.536ZM218.45 97.536C218.45 98.4512 218.497 98.8256 218.553 98.368C218.61 97.9104 218.61 97.1616 218.553 96.704C218.497 96.2464 218.45 96.6208 218.45 97.536ZM230.765 102.528C230.765 105.626 230.802 106.858 230.847 105.266C230.892 103.674 230.892 101.14 230.847 99.6339C230.802 98.128 230.765 99.4304 230.765 102.528ZM26.7321 103.04C26.7327 105.997 26.7698 107.171 26.8153 105.65C26.8607 104.129 26.8601 101.709 26.8146 100.274C26.7692 98.8384 26.7321 100.083 26.7321 103.04ZM40.2514 100.352C40.2514 100.845 40.3039 101.046 40.3685 100.8C40.4325 100.554 40.4325 100.15 40.3685 99.904C40.3039 99.6576 40.2514 99.8592 40.2514 100.352ZM230.016 113.92C229.919 114.362 229.892 114.778 229.958 114.843C230.023 114.908 230.15 114.594 230.24 114.144C230.453 113.077 230.246 112.87 230.016 113.92ZM208.64 116.548C207.021 118.122 206.272 118.931 206.976 118.348C208.257 117.286 211.933 113.654 211.705 113.676C211.638 113.682 210.259 114.975 208.64 116.548ZM49.7919 116.736C50.7698 117.722 51.6281 118.528 51.6985 118.528C51.7689 118.528 51.0258 117.722 50.0479 116.736C49.07 115.75 48.2117 114.944 48.1413 114.944C48.0709 114.944 48.814 115.75 49.7919 116.736ZM29.3701 117.684C29.6197 118.065 29.8937 119.016 29.9781 119.796L30.1324 121.216L30.1695 119.936C30.2021 118.782 29.5244 116.992 29.054 116.992C28.9778 116.992 29.1205 117.304 29.3701 117.684ZM227.999 120.202C227.912 120.431 227.853 120.925 227.869 121.301C227.891 121.812 227.949 121.727 228.098 120.96C228.31 119.872 228.264 119.514 227.999 120.202ZM30.2674 122.368C30.2674 122.861 30.3199 123.062 30.3845 122.816C30.4485 122.57 30.4485 122.166 30.3845 121.92C30.3199 121.674 30.2674 121.875 30.2674 122.368ZM227.236 125.238C227.149 125.56 227.09 126.112 227.103 126.464C227.118 126.841 227.22 126.637 227.351 125.968C227.586 124.769 227.503 124.241 227.236 125.238ZM30.638 126.592C30.7193 127.296 30.8281 127.92 30.8805 127.979C31.0604 128.18 30.9247 126.591 30.7071 125.952C30.5605 125.521 30.5381 125.729 30.638 126.592ZM68.6079 128.66C68.6079 128.833 69.9378 129.316 70.0645 129.188C70.1228 129.131 69.8188 128.961 69.3887 128.811C68.9593 128.661 68.6079 128.593 68.6079 128.66ZM226.45 129.683C226.356 130.058 226.328 130.414 226.388 130.474C226.449 130.534 226.575 130.277 226.669 129.901C226.764 129.526 226.792 129.17 226.731 129.11C226.671 129.05 226.545 129.307 226.45 129.683ZM70.3999 129.428C70.3999 129.601 71.7298 130.084 71.8565 129.956C71.9148 129.899 71.6108 129.729 71.1807 129.579C70.7513 129.429 70.3999 129.361 70.3999 129.428ZM31.3996 131.968C31.4853 132.531 31.598 133.04 31.6498 133.099C31.8437 133.318 31.6985 131.948 31.4757 131.456C31.3145 131.099 31.2914 131.254 31.3996 131.968ZM170.112 135.168C169.403 135.348 169.393 135.366 169.984 135.39C170.336 135.404 170.797 135.304 171.008 135.168C171.444 134.886 171.218 134.886 170.112 135.168ZM34.0479 137.088C34.9548 138.003 35.7548 138.752 35.8252 138.752C35.8956 138.752 35.2108 138.003 34.3039 137.088C33.397 136.173 32.597 135.424 32.5266 135.424C32.4562 135.424 33.141 136.173 34.0479 137.088ZM90.8799 135.924C91.0911 136.067 91.4847 136.186 91.7548 136.188C92.4095 136.193 92.2053 136.047 91.2639 135.836C90.7033 135.711 90.5996 135.734 90.8799 135.924ZM166.784 135.936L166.016 136.131L166.705 136.162C167.083 136.179 167.465 136.077 167.552 135.936C167.639 135.795 167.675 135.693 167.631 135.71C167.588 135.727 167.206 135.828 166.784 135.936ZM223.695 137.35C223.034 137.98 222.578 138.496 222.681 138.496C222.785 138.496 223.378 137.978 224 137.344C225.457 135.859 225.253 135.863 223.695 137.35ZM94.2079 136.7C94.4191 136.839 94.8703 136.954 95.2108 136.956C96.0325 136.961 95.8239 136.816 94.7199 136.613C94.0895 136.497 93.9378 136.524 94.2079 136.7ZM163.328 136.704C162.801 136.873 162.778 136.913 163.2 136.931C163.481 136.943 163.885 136.84 164.096 136.704C164.545 136.414 164.233 136.414 163.328 136.704ZM98.3039 137.472C98.6559 137.585 99.1743 137.677 99.4559 137.677C99.861 137.677 99.8348 137.635 99.3279 137.472C98.9759 137.359 98.4575 137.267 98.1759 137.267C97.7708 137.267 97.797 137.309 98.3039 137.472ZM102.784 138.255C104.081 138.523 105.128 138.511 104.064 138.24C103.641 138.132 102.95 138.044 102.528 138.044C101.882 138.043 101.923 138.077 102.784 138.255ZM155.456 138.161C155.702 138.225 156.105 138.225 156.352 138.161C156.598 138.096 156.397 138.044 155.904 138.044C155.411 138.044 155.209 138.096 155.456 138.161ZM107.968 138.932C108.285 138.994 108.803 138.994 109.12 138.932C109.437 138.872 109.177 138.822 108.544 138.822C107.91 138.822 107.651 138.872 107.968 138.932ZM149.443 138.933C149.761 138.995 150.222 138.992 150.467 138.928C150.712 138.864 150.451 138.813 149.888 138.817C149.325 138.819 149.124 138.872 149.443 138.933ZM114.304 139.519C115.08 139.718 117.936 139.855 117.739 139.684C117.68 139.633 116.71 139.531 115.584 139.457C114.422 139.38 113.868 139.407 114.304 139.519ZM141.952 139.52L140.416 139.69L141.824 139.702C142.598 139.709 143.577 139.628 144 139.52C144.984 139.27 144.216 139.27 141.952 139.52ZM120.648 139.965C121.321 140.017 122.358 140.017 122.952 139.963C123.545 139.909 122.995 139.866 121.728 139.867C120.461 139.868 119.974 139.912 120.648 139.965ZM135.496 139.965C136.169 140.017 137.206 140.017 137.8 139.963C138.393 139.909 137.843 139.866 136.576 139.867C135.309 139.868 134.822 139.912 135.496 139.965ZM39.0265 141.29C39.2191 141.601 41.4719 143.188 41.4719 143.012C41.4719 142.948 40.8837 142.474 40.165 141.957C39.4463 141.441 38.9343 141.14 39.0265 141.29ZM69.8879 157.27C69.8879 157.336 70.2597 157.519 70.7141 157.678C71.1685 157.836 71.4277 157.86 71.2901 157.732C70.9983 157.459 69.8879 157.093 69.8879 157.27ZM40.4517 161.58C40.4575 162.092 40.9509 162.811 40.9561 162.315C40.958 162.097 41.4418 162.414 42.1119 163.072C42.7455 163.694 43.2639 164.141 43.2639 164.065C43.2639 163.988 42.6303 163.322 41.8559 162.583C41.0815 161.844 40.4498 161.392 40.4517 161.58ZM84.2239 161.78C84.4351 161.923 84.8287 162.042 85.0988 162.044C85.7535 162.049 85.5493 161.903 84.6079 161.692C84.0473 161.567 83.9436 161.59 84.2239 161.78ZM172.288 161.792C171.761 161.961 171.738 162.001 172.16 162.019C172.441 162.031 172.845 161.928 173.056 161.792C173.505 161.502 173.193 161.502 172.288 161.792ZM87.1679 162.56C87.4495 162.681 87.9103 162.776 88.1919 162.772C88.6034 162.767 88.5785 162.724 88.0639 162.56C87.1884 162.28 86.5157 162.28 87.1679 162.56ZM169.344 162.56C169.021 162.699 168.974 162.78 169.216 162.78C169.427 162.78 169.83 162.681 170.112 162.56C170.434 162.421 170.482 162.34 170.24 162.34C170.029 162.34 169.625 162.439 169.344 162.56ZM90.133 163.164C90.1919 163.215 90.5855 163.333 91.0079 163.428C91.5685 163.553 91.6722 163.53 91.3919 163.34C91.0463 163.106 89.8764 162.943 90.133 163.164ZM214.358 163.648C213.974 164.262 214.024 164.769 214.416 164.239C214.776 163.752 214.895 163.328 214.671 163.328C214.609 163.328 214.468 163.472 214.358 163.648ZM93.461 163.932C93.5199 163.983 93.9135 164.101 94.3359 164.196C94.8965 164.321 95.0002 164.298 94.7199 164.108C94.3743 163.874 93.2044 163.711 93.461 163.932ZM162.304 164.108C162.024 164.298 162.127 164.321 162.688 164.196C163.629 163.985 163.833 163.839 163.179 163.844C162.909 163.846 162.515 163.965 162.304 164.108ZM158.528 164.785C158.774 164.849 159.177 164.849 159.424 164.785C159.67 164.72 159.469 164.668 158.976 164.668C158.483 164.668 158.281 164.72 158.528 164.785ZM101.12 165.368C101.754 165.579 103.608 165.718 103.403 165.539C103.344 165.487 102.662 165.38 101.888 165.3C100.979 165.206 100.706 165.229 101.12 165.368ZM153.92 165.553C154.166 165.617 154.569 165.617 154.816 165.553C155.062 165.488 154.861 165.436 154.368 165.436C153.875 165.436 153.673 165.488 153.92 165.553ZM106.005 165.98C106.064 166.031 106.63 166.141 107.264 166.225C108.033 166.327 108.246 166.302 107.904 166.15C107.415 165.934 105.783 165.788 106.005 165.98ZM148.992 166.144C148.132 166.42 149.061 166.42 150.144 166.144C150.834 165.969 150.847 165.948 150.272 165.944C149.92 165.941 149.344 166.031 148.992 166.144ZM112.917 166.748C112.976 166.799 113.888 166.902 114.944 166.978C116.069 167.058 116.546 167.032 116.096 166.916C115.32 166.714 112.72 166.578 112.917 166.748ZM140.672 166.913C140.236 167.025 140.79 167.052 141.952 166.975C143.078 166.901 144.048 166.799 144.107 166.748C144.304 166.577 141.448 166.714 140.672 166.913ZM121.161 167.357C121.976 167.409 123.243 167.408 123.977 167.356C124.712 167.305 124.045 167.263 122.496 167.264C120.947 167.265 120.347 167.306 121.161 167.357ZM132.937 167.357C133.752 167.409 135.019 167.408 135.753 167.356C136.488 167.305 135.821 167.263 134.272 167.264C132.723 167.265 132.123 167.306 132.937 167.357ZM191.104 177.289C190.461 177.599 190.44 177.634 190.976 177.505C191.328 177.42 191.725 177.248 191.859 177.123C192.191 176.813 192.009 176.853 191.104 177.289ZM50.9439 178.256C50.9439 178.3 51.3183 178.675 51.7759 179.088L52.6079 179.84L51.8559 179.008C51.1551 178.232 50.9439 178.058 50.9439 178.256ZM202.536 180.33C201.67 181.233 200.96 182.058 200.96 182.164C200.96 182.271 200.994 182.309 201.035 182.251C201.077 182.192 201.844 181.366 202.74 180.416C203.636 179.466 204.312 178.688 204.241 178.688C204.171 178.688 203.403 179.427 202.536 180.33ZM72.9599 179.925C73.1711 180.055 73.6319 180.239 73.9839 180.333C74.4287 180.452 74.5068 180.432 74.2399 180.267C74.0287 180.137 73.5679 179.953 73.2159 179.859C72.7711 179.74 72.693 179.76 72.9599 179.925ZM183.68 180.105C183.04 180.413 183.018 180.449 183.552 180.319C184.277 180.141 185.092 179.725 184.704 179.731C184.563 179.733 184.102 179.901 183.68 180.105ZM54.1439 181.76C54.6937 182.323 55.2012 182.784 55.2716 182.784C55.342 182.784 54.9497 182.323 54.3999 181.76C53.8501 181.197 53.3426 180.736 53.2722 180.736C53.2018 180.736 53.5941 181.197 54.1439 181.76ZM79.9999 182.272C80.2815 182.393 80.6847 182.492 80.8959 182.492C81.1378 182.492 81.0905 182.411 80.7679 182.272C80.4863 182.151 80.0831 182.052 79.8719 182.052C79.63 182.052 79.6773 182.133 79.9999 182.272ZM56.9599 184.576C57.5097 185.139 58.0172 185.6 58.0876 185.6C58.158 185.6 57.7657 185.139 57.2159 184.576C56.6661 184.013 56.1586 183.552 56.0882 183.552C56.0178 183.552 56.4101 184.013 56.9599 184.576ZM85.013 183.644C85.0719 183.695 85.4655 183.813 85.8879 183.908C86.4485 184.033 86.5522 184.01 86.2719 183.82C85.9263 183.586 84.7564 183.423 85.013 183.644ZM169.216 184.32C168.689 184.489 168.666 184.529 169.088 184.547C169.37 184.559 169.773 184.456 169.984 184.32C170.433 184.03 170.121 184.03 169.216 184.32ZM197.171 185.636C196.425 186.353 195.856 186.981 195.906 187.032C195.957 187.082 196.621 186.493 197.382 185.722C199.125 183.957 198.979 183.898 197.171 185.636ZM90.8799 185.076C91.0911 185.219 91.4847 185.338 91.7548 185.34C92.4095 185.345 92.2053 185.199 91.2639 184.988C90.7033 184.863 90.5996 184.886 90.8799 185.076ZM165.888 185.088C165.361 185.257 165.338 185.297 165.76 185.315C166.041 185.327 166.445 185.224 166.656 185.088C167.105 184.798 166.793 184.798 165.888 185.088ZM94.4639 185.856C95.3394 186.136 96.0121 186.136 95.3599 185.856C95.0783 185.735 94.6175 185.64 94.3359 185.644C93.9244 185.649 93.9493 185.692 94.4639 185.856ZM162.048 185.856C161.541 186.019 161.515 186.061 161.92 186.061C162.201 186.061 162.72 185.969 163.072 185.856C163.579 185.693 163.605 185.651 163.2 185.651C162.918 185.651 162.4 185.743 162.048 185.856ZM159.232 186.368C158.346 186.554 158.345 186.557 159.104 186.586C159.526 186.603 160.045 186.504 160.256 186.368C160.682 186.093 160.541 186.093 159.232 186.368ZM101.76 187.13C102.249 187.346 103.881 187.492 103.659 187.3C103.6 187.249 103.033 187.139 102.4 187.055C101.631 186.953 101.418 186.978 101.76 187.13ZM154.496 187.136L153.472 187.319L154.368 187.352C154.861 187.37 155.437 187.272 155.648 187.136C156.067 186.865 156.008 186.865 154.496 187.136ZM107.264 187.896C107.898 188.107 109.752 188.246 109.547 188.067C109.488 188.015 108.806 187.908 108.032 187.828C107.123 187.734 106.85 187.757 107.264 187.896ZM148.608 187.904L147.584 188.087L148.608 188.106C149.171 188.116 149.862 188.025 150.144 187.904L150.656 187.684L150.144 187.702C149.862 187.713 149.171 187.803 148.608 187.904ZM113.472 188.6C113.859 188.658 114.493 188.658 114.88 188.6C115.267 188.541 114.95 188.493 114.176 188.493C113.401 188.493 113.085 188.541 113.472 188.6ZM142.144 188.6C142.531 188.658 143.165 188.658 143.552 188.6C143.939 188.541 143.622 188.493 142.848 188.493C142.073 188.493 141.757 188.541 142.144 188.6ZM116.544 188.856C116.931 188.914 117.565 188.914 117.952 188.856C118.339 188.797 118.022 188.749 117.248 188.749C116.473 188.749 116.157 188.797 116.544 188.856ZM138.944 188.857C139.401 188.914 140.15 188.914 140.608 188.857C141.065 188.801 140.691 188.754 139.776 188.754C138.861 188.754 138.486 188.801 138.944 188.857ZM123.08 189.117C123.825 189.169 124.977 189.169 125.64 189.116C126.305 189.063 125.696 189.021 124.288 189.021C122.88 189.022 122.337 189.065 123.08 189.117ZM131.528 189.117C132.273 189.169 133.425 189.169 134.088 189.116C134.753 189.063 134.144 189.021 132.736 189.021C131.328 189.022 130.785 189.065 131.528 189.117ZM190.848 190.88C190.388 191.272 190.294 191.427 190.613 191.268C191.082 191.036 191.962 190.193 191.711 190.217C191.659 190.222 191.27 190.52 190.848 190.88ZM169.536 202.248C168.679 202.593 168.839 202.767 169.728 202.458C170.15 202.31 170.496 202.143 170.496 202.087C170.496 201.935 170.184 201.987 169.536 202.248ZM91.3919 203.738C91.6031 203.862 92.1215 204.038 92.5439 204.129C93.0354 204.236 93.1737 204.214 92.9279 204.07C92.7167 203.946 92.1983 203.77 91.7759 203.679C91.2844 203.572 91.1461 203.594 91.3919 203.738ZM153.984 206.592C153.287 206.769 153.275 206.788 153.856 206.8C154.208 206.806 154.726 206.713 155.008 206.592C155.639 206.321 155.05 206.321 153.984 206.592ZM104 206.769C104.246 206.833 104.649 206.833 104.896 206.769C105.142 206.704 104.941 206.652 104.448 206.652C103.955 206.652 103.753 206.704 104 206.769ZM107.776 207.347C108.415 207.565 110.004 207.7 109.803 207.521C109.744 207.468 109.12 207.359 108.416 207.278C107.553 207.178 107.345 207.201 107.776 207.347ZM149.888 207.36C149.198 207.535 149.185 207.556 149.76 207.56C150.112 207.563 150.688 207.473 151.04 207.36C151.9 207.084 150.971 207.084 149.888 207.36ZM113.429 207.967C113.488 208.02 114.112 208.129 114.816 208.21C115.679 208.31 115.887 208.287 115.456 208.141C114.817 207.923 113.227 207.788 113.429 207.967ZM144.256 208.128C143.571 208.302 143.557 208.323 144.128 208.323C144.48 208.323 145.113 208.236 145.536 208.128C146.221 207.954 146.235 207.933 145.664 207.933C145.312 207.933 144.678 208.02 144.256 208.128ZM119.491 208.565C119.809 208.627 120.27 208.624 120.515 208.56C120.76 208.496 120.499 208.445 119.936 208.449C119.373 208.451 119.172 208.504 119.491 208.565ZM139.84 208.561C140.086 208.625 140.489 208.625 140.736 208.561C140.982 208.496 140.781 208.444 140.288 208.444C139.795 208.444 139.593 208.496 139.84 208.561ZM126.144 208.831C128.432 208.874 132.176 208.874 134.464 208.831C136.752 208.789 134.88 208.755 130.304 208.755C125.728 208.755 123.856 208.789 126.144 208.831Z" fill="#D7BA44"/>
</g>
<defs>
<clipPath id="clip0_2115_1725">
<rect width="256" height="256" fill="white"/>
</clipPath>
</defs>
</svg>
