<svg width="256" height="256" viewBox="0 0 256 256" fill="none" xmlns="http://www.w3.org/2000/svg">
<path d="M224.882 87.2704C223.4 88.4224 197.234 103.194 197.234 136.038C197.234 174.029 230.529 187.469 231.526 187.802C231.372 188.621 226.236 206.208 213.971 224.128C203.034 239.898 191.612 255.642 174.236 255.642C156.86 255.642 152.388 245.53 132.329 245.53C112.782 245.53 105.831 255.974 89.9373 255.974C74.0435 255.974 62.9536 241.382 50.2027 223.462C35.4332 202.419 23.5 169.728 23.5 138.701C23.5 88.9344 55.7988 62.5408 87.5865 62.5408C104.477 62.5408 118.557 73.6512 129.161 73.6512C139.254 73.6512 154.995 61.8752 174.211 61.8752C181.493 61.8752 207.659 62.5408 224.882 87.2704ZM165.088 40.8064C173.035 31.36 178.657 18.2528 178.657 5.1456C178.657 3.328 178.503 1.4848 178.171 0C165.242 0.4864 149.859 8.6272 140.583 19.4048C133.3 27.6992 126.503 40.8064 126.503 54.0928C126.503 56.0896 126.836 58.0864 126.989 58.7264C127.807 58.88 129.135 59.0592 130.464 59.0592C142.065 59.0592 156.656 51.2768 165.088 40.8064Z" fill="black"/>
</svg>
