<svg width="256" height="256" viewBox="0 0 256 256" fill="none" xmlns="http://www.w3.org/2000/svg">
<path d="M144.301 149.971C144.301 159.673 137.826 164.83 127.352 164.83C116.882 164.83 111.122 158.717 111.122 149.971C111.122 149.971 116.882 158.076 127.352 158.076C137.826 158.076 144.304 149.971 144.304 149.971H144.301Z" fill="white"/>
<path d="M128.394 187.795C179.447 187.795 220.837 146.516 220.837 95.5937C220.837 44.6747 179.447 3.396 128.394 3.396C77.3421 3.396 35.9521 44.6747 35.9521 95.5937C35.9521 146.516 77.3421 187.795 128.394 187.795Z" fill="#E2F5FC"/>
<path d="M128.394 172.736C170.124 172.736 203.953 138.997 203.953 97.3758C203.953 55.7544 170.124 22.0151 128.394 22.0151C86.6635 22.0151 52.835 55.7544 52.835 97.3758C52.835 138.997 86.6635 172.736 128.394 172.736Z" fill="#CDECF6"/>
<path d="M100.133 31.361C100.719 31.361 101.299 31.2459 101.841 31.0223C102.382 30.7988 102.874 30.4711 103.289 30.0581C103.703 29.645 104.032 29.1546 104.256 28.6149C104.48 28.0753 104.596 27.4968 104.596 26.9127C104.596 26.3285 104.48 25.7501 104.256 25.2104C104.032 24.6707 103.703 24.1803 103.289 23.7672C102.874 23.3542 102.382 23.0265 101.841 22.803C101.299 22.5794 100.719 22.4644 100.133 22.4644C98.9489 22.4644 97.8137 22.933 96.9767 23.7672C96.1396 24.6014 95.6694 25.7329 95.6694 26.9127C95.6694 28.0924 96.1396 29.2239 96.9767 30.0581C97.8137 30.8923 98.9489 31.361 100.133 31.361ZM66.9265 143.021C67.0475 143.191 67.202 143.335 67.3805 143.444C67.5591 143.553 67.7579 143.625 67.9651 143.655C68.1723 143.685 68.3835 143.673 68.5858 143.62C68.7882 143.566 68.9776 143.472 69.1425 143.344C69.3074 143.215 69.4444 143.054 69.5452 142.872C69.646 142.689 69.7085 142.487 69.7289 142.28C69.7493 142.072 69.7272 141.862 69.664 141.663C69.6008 141.464 69.4977 141.28 69.361 141.122C39.1704 102.667 56.5867 52.8245 90.852 33.2595C91.1874 33.0465 91.4276 32.7128 91.5228 32.3279C91.6179 31.9429 91.5606 31.5362 91.3628 31.1923C91.1651 30.8483 90.842 30.5934 90.4606 30.4806C90.0793 30.3678 89.669 30.4057 89.3149 30.5864C53.6846 50.9259 35.3914 102.852 66.9265 143.021Z" fill="white"/>
<path d="M35.1267 77.2935C35.1267 77.136 35.0956 76.98 35.0351 76.8345C34.9746 76.689 34.886 76.5568 34.7742 76.4454C34.6625 76.334 34.5298 76.2456 34.3838 76.1854C34.2378 76.1251 34.0813 76.0941 33.9232 76.0941C33.7652 76.0941 33.6087 76.1251 33.4627 76.1854C33.3166 76.2456 33.184 76.334 33.0722 76.4454C32.9605 76.5568 32.8718 76.689 32.8113 76.8345C32.7509 76.98 32.7197 77.136 32.7197 77.2935H35.1267ZM32.7197 113.408C32.7197 113.565 32.7509 113.721 32.8113 113.867C32.8718 114.012 32.9605 114.144 33.0722 114.256C33.184 114.367 33.3166 114.456 33.4627 114.516C33.6087 114.576 33.7652 114.607 33.9232 114.607C34.0813 114.607 34.2378 114.576 34.3838 114.516C34.5298 114.456 34.6625 114.367 34.7742 114.256C34.886 114.144 34.9746 114.012 35.0351 113.867C35.0956 113.721 35.1267 113.565 35.1267 113.408H32.7197ZM223.584 77.1222C223.584 76.8041 223.457 76.499 223.231 76.274C223.006 76.0491 222.7 75.9227 222.38 75.9227C222.061 75.9227 221.755 76.0491 221.529 76.274C221.304 76.499 221.177 76.8041 221.177 77.1222H223.584ZM221.177 113.236C221.177 113.554 221.304 113.86 221.529 114.084C221.755 114.309 222.061 114.436 222.38 114.436C222.7 114.436 223.006 114.309 223.231 114.084C223.457 113.86 223.584 113.554 223.584 113.236H221.177ZM128.15 190.533C180.856 190.533 223.584 147.918 223.584 95.354H221.177C221.177 146.595 179.526 188.134 128.15 188.134V190.533ZM223.584 95.354C223.584 42.7832 180.856 0.171387 128.15 0.171387V2.57032C179.526 2.57032 221.177 44.1095 221.177 95.354H223.584ZM128.15 0.171387C75.4438 0.171387 32.7197 42.7866 32.7197 95.354H35.1267C35.1267 44.1061 76.7746 2.57032 128.15 2.57032V0.171387ZM32.7197 95.354C32.7197 147.918 75.4438 190.533 128.15 190.533V188.134C76.778 188.134 35.1267 146.599 35.1267 95.354H32.7197ZM32.7197 77.2935V113.408H35.1267V77.2935H32.7197ZM221.177 77.1222V113.236H223.584V77.1222H221.177Z" fill="#B5D2F3"/>
<path d="M35.9514 77.3588C35.973 76.858 35.8926 76.358 35.7152 75.8889C35.5378 75.4199 35.267 74.9915 34.9191 74.6295C34.5711 74.2675 34.1533 73.9794 33.6907 73.7826C33.2281 73.5858 32.7304 73.4844 32.2274 73.4844C31.7244 73.4844 31.2267 73.5858 30.7641 73.7826C30.3015 73.9794 29.8837 74.2675 29.5357 74.6295C29.1878 74.9915 28.917 75.4199 28.7396 75.8889C28.5622 76.358 28.4818 76.858 28.5034 77.3588V113.833C28.4818 114.334 28.5622 114.834 28.7396 115.303C28.917 115.772 29.1878 116.2 29.5357 116.562C29.8837 116.924 30.3015 117.212 30.7641 117.409C31.2267 117.606 31.7244 117.707 32.2274 117.707C32.7304 117.707 33.2281 117.606 33.6907 117.409C34.1533 117.212 34.5711 116.924 34.9191 116.562C35.267 116.2 35.5378 115.772 35.7152 115.303C35.8926 114.834 35.973 114.334 35.9514 113.833V77.3588ZM228.284 77.3588C228.305 76.858 228.225 76.358 228.048 75.8889C227.87 75.4199 227.599 74.9915 227.252 74.6295C226.904 74.2675 226.486 73.9794 226.023 73.7826C225.561 73.5858 225.063 73.4844 224.56 73.4844C224.057 73.4844 223.559 73.5858 223.097 73.7826C222.634 73.9794 222.216 74.2675 221.868 74.6295C221.52 74.9915 221.249 75.4199 221.072 75.8889C220.895 76.358 220.814 76.858 220.836 77.3588V113.833C220.814 114.334 220.895 114.834 221.072 115.303C221.249 115.772 221.52 116.2 221.868 116.562C222.216 116.924 222.634 117.212 223.097 117.409C223.559 117.606 224.057 117.707 224.56 117.707C225.063 117.707 225.561 117.606 226.023 117.409C226.486 117.212 226.904 116.924 227.252 116.562C227.599 116.2 227.87 115.772 228.048 115.303C228.225 114.834 228.305 114.334 228.284 113.833V77.3588Z" fill="#B5D2F3"/>
<path d="M87.3616 235.698C91.6701 233.951 90.7932 232.203 90.7932 231.332L88.6957 199.615L86.8492 183.748L84.0571 84.6824C84.0571 61.1729 101.501 39.1987 127.83 39.1987C154.159 39.1987 172.793 60.347 172.834 84.6996C172.077 131.732 170.805 149.632 169.027 183.405C168.811 188.021 168.209 195.009 168.01 199.279C167.019 220.41 165.898 230.763 165.898 231.332C165.898 232.206 165.025 233.951 169.33 235.698C173.635 237.446 183.586 239.712 183.586 240.267C183.586 240.815 166.775 240.267 166.775 240.267C157.14 240.267 157.14 233.077 157.14 231.332C157.14 229.585 154.513 199.598 154.513 199.598L153.636 238.32C153.636 240.068 154.513 242.686 160.644 244.434C160.644 244.434 174.024 246.452 174.024 247.179C174.024 247.909 158.017 247.179 158.017 247.179C145.827 247.179 145.827 240.068 145.827 240.068L143.2 208.333C143.2 208.333 142.32 240.064 142.32 244.431C142.32 247.854 142.915 250.472 152.478 252.22C157.096 253.498 166.418 255.082 166.418 255.716C166.418 256.35 145.147 255.716 145.147 255.716C133.761 254.842 132.685 246.977 132.685 246.977L128.37 231.164L124.072 246.98C124.072 246.98 122.321 254.842 110.936 255.716C110.936 255.716 91.6219 256.35 91.6219 255.716C91.6219 255.082 99.3587 253.663 104.279 252.22C110.936 250.27 114.44 247.854 114.44 244.431C114.44 240.064 113.563 208.327 113.563 208.327L110.936 240.061C110.936 240.061 110.936 247.854 98.7466 247.854C98.7466 247.854 81.3819 247.906 81.3819 247.176C81.3819 246.449 96.0439 244.434 96.0439 244.434C102.175 242.686 103.052 240.064 103.052 238.317L102.175 199.591C102.175 199.591 99.5478 229.578 99.5478 231.326C99.5478 233.073 99.5478 240.938 89.913 240.938C89.913 240.938 73.707 240.14 73.707 239.585C73.707 239.036 83.053 237.443 87.3581 235.695L87.3616 235.698Z" fill="#FE733E"/>
<path d="M86.849 183.744C86.849 183.744 85.0507 188.131 80.9863 190.495C76.9254 192.86 72.2145 193.628 67.7822 194.21C67.7822 194.21 73.8754 197.25 81.3267 196.575C85.9963 196.198 87.9563 197.384 88.6921 199.615L86.849 183.747V183.744ZM169.027 183.405C169.027 183.405 171.651 187.791 175.715 190.156C179.78 192.521 184.487 193.292 188.919 193.874C188.919 193.874 182.826 196.914 175.378 196.239C170.709 195.862 168.745 197.044 168.009 199.279L169.027 183.405Z" fill="#FE6446"/>
<path opacity="0.3" d="M169.076 182.661L169.416 177.171C147.905 187.294 127.913 186.229 127.913 186.229C127.913 186.229 107.801 187.068 86.6777 177.123L86.8153 182.459C86.8153 182.459 101.883 191.691 127.913 191.691C153.943 191.691 169.076 182.661 169.076 182.661Z" fill="#FE6446"/>
<path opacity="0.5" d="M110.609 66.5702C111.427 66.5893 112.24 66.4453 113.001 66.1466C113.762 65.8478 114.455 65.4005 115.04 64.8309C115.625 64.2613 116.089 63.5808 116.407 62.8296C116.724 62.0783 116.887 61.2714 116.887 60.4564C116.887 59.6413 116.723 58.8345 116.405 58.0834C116.088 57.3324 115.623 56.6522 115.037 56.0829C114.452 55.5136 113.759 55.0666 112.997 54.7683C112.236 54.4701 111.423 54.3265 110.606 54.346C109.004 54.3842 107.481 55.0452 106.363 56.1876C105.244 57.3301 104.618 58.8634 104.618 60.4598C104.619 62.0562 105.246 63.5892 106.365 64.731C107.485 65.8728 109.008 66.5329 110.609 66.5702Z" fill="#FEA777"/>
<path d="M172.752 85.3537C172.752 85.3537 173.398 77.6977 170.042 68.5818C160.837 43.5609 138.215 38.5232 126.021 39.2326C126.021 39.2326 143.311 47.3752 144.112 73.4345C144.476 84.9904 144.476 85.3537 144.476 85.3537H172.752Z" fill="#FE6B3C"/>
<path d="M144.301 149.971C144.301 159.673 137.826 164.83 127.352 164.83C116.882 164.83 111.122 158.717 111.122 149.971C111.122 149.971 116.882 158.076 127.352 158.076C137.826 158.076 144.304 149.971 144.304 149.971H144.301Z" fill="white"/>
<path d="M144.301 149.971C144.301 159.673 137.826 164.83 127.352 164.83C116.882 164.83 111.122 158.717 111.122 149.971C111.122 149.971 116.882 158.076 127.352 158.076C137.826 158.076 144.304 149.971 144.304 149.971H144.301Z" fill="white"/>
<path d="M144.301 149.971C144.301 159.673 140.384 174.961 127.352 174.961C114.32 174.961 111.122 158.717 111.122 149.971C111.122 149.971 111.122 164.83 127.352 164.83C145.102 164.83 144.304 149.971 144.304 149.971H144.301Z" fill="white"/>
<path d="M144.301 149.971C144.301 159.673 140.384 174.961 127.352 174.961C114.32 174.961 111.122 158.717 111.122 149.971C111.122 149.971 111.122 164.83 127.352 164.83C145.102 164.83 144.304 149.971 144.304 149.971H144.301Z" fill="#070909"/>
<path d="M96.5635 135.111C100.078 135.11 103.558 134.419 106.804 133.078C110.05 131.737 113 129.771 115.484 127.294C117.968 124.816 119.939 121.875 121.282 118.639C122.626 115.403 123.317 111.934 123.316 108.431C123.316 93.6952 111.339 81.752 96.5635 81.752C93.0492 81.7529 89.5695 82.4437 86.3231 83.785C83.0767 85.1263 80.1271 87.0918 77.6429 89.5692C75.1587 92.0467 73.1885 94.9876 71.8448 98.224C70.5011 101.46 69.8102 104.929 69.8115 108.431C69.8115 123.168 81.7915 135.111 96.5635 135.111Z" fill="#FE6446"/>
<path d="M96.4946 129.652C99.2464 129.651 101.971 129.11 104.513 128.059C107.055 127.009 109.365 125.47 111.31 123.53C113.255 121.59 114.798 119.287 115.85 116.753C116.902 114.219 117.443 111.503 117.442 108.76C117.444 106.018 116.903 103.301 115.851 100.767C114.799 98.2322 113.256 95.929 111.311 93.9887C109.366 92.0484 107.056 90.509 104.514 89.4584C101.972 88.4078 99.2467 87.8666 96.4946 87.8657C93.7425 87.8666 91.0176 88.4078 88.4753 89.4584C85.9331 90.509 83.6235 92.0484 81.6783 93.9887C79.733 95.929 78.1904 98.2322 77.1383 100.767C76.0863 103.301 75.5455 106.018 75.5469 108.76C75.546 111.503 76.0871 114.219 77.1393 116.753C78.1916 119.287 79.7343 121.59 81.6795 123.53C83.6246 125.47 85.9342 127.009 88.4761 128.059C91.0181 129.11 93.7428 129.651 96.4946 129.652Z" fill="white"/>
<path d="M95.886 111.471C96.7313 111.471 97.5683 111.305 98.3492 110.982C99.1301 110.66 99.8395 110.187 100.437 109.591C101.035 108.995 101.509 108.288 101.832 107.51C102.155 106.731 102.321 105.897 102.321 105.054C102.321 104.212 102.154 103.378 101.831 102.599C101.507 101.821 101.033 101.114 100.435 100.518C99.8368 99.9229 99.127 99.4505 98.346 99.1283C97.5649 98.8061 96.7278 98.6404 95.8825 98.6406C94.1753 98.6411 92.5382 99.3174 91.3314 100.521C90.1246 101.724 89.4468 103.356 89.4473 105.058C89.4477 106.759 90.1263 108.391 91.3338 109.594C92.5413 110.796 94.1788 111.472 95.886 111.471Z" fill="#090B0B"/>
<path d="M159.547 135.111C163.061 135.11 166.54 134.418 169.786 133.077C173.032 131.735 175.981 129.77 178.465 127.292C180.949 124.815 182.919 121.874 184.263 118.638C185.606 115.402 186.297 111.934 186.296 108.431C186.296 93.6952 174.319 81.752 159.543 81.752C156.029 81.7533 152.55 82.4445 149.304 83.786C146.058 85.1275 143.109 87.093 140.625 89.5705C138.141 92.0479 136.171 94.9886 134.828 98.2248C133.484 101.461 132.794 104.929 132.795 108.431C132.795 123.168 144.771 135.111 159.547 135.111Z" fill="#FE6446"/>
<path d="M158.481 129.614C161.233 129.614 163.958 129.073 166.5 128.023C169.043 126.972 171.353 125.433 173.298 123.494C175.244 121.554 176.787 119.251 177.839 116.716C178.892 114.182 179.433 111.466 179.432 108.723C179.433 105.98 178.892 103.264 177.839 100.729C176.787 98.195 175.244 95.892 173.298 93.9521C171.353 92.0121 169.043 90.4731 166.5 89.4229C163.958 88.3727 161.233 87.832 158.481 87.8315C155.729 87.8324 153.004 88.3735 150.462 89.4239C147.92 90.4743 145.611 92.0133 143.666 93.9533C141.721 95.8932 140.178 98.196 139.126 100.73C138.073 103.264 137.532 105.98 137.533 108.723C137.532 111.465 138.073 114.181 139.126 116.715C140.178 119.25 141.721 121.552 143.666 123.492C145.611 125.432 147.92 126.971 150.462 128.022C153.004 129.072 155.729 129.613 158.481 129.614Z" fill="white"/>
<path d="M158.87 111.471C160.577 111.471 162.214 110.794 163.421 109.59C164.627 108.386 165.304 106.754 165.303 105.053C165.303 103.351 164.623 101.72 163.416 100.517C162.208 99.3148 160.57 98.6397 158.863 98.6406C158.018 98.6409 157.181 98.807 156.4 99.1296C155.619 99.4522 154.909 99.925 154.312 100.521C153.714 101.117 153.24 101.824 152.917 102.603C152.594 103.381 152.428 104.215 152.428 105.058C152.428 105.9 152.595 106.734 152.918 107.513C153.242 108.291 153.716 108.998 154.314 109.594C154.912 110.189 155.622 110.662 156.403 110.984C157.184 111.306 158.021 111.472 158.866 111.471H158.87Z" fill="#090B0B"/>
</svg>
