<svg width="256" height="256" viewBox="0 0 256 256" fill="none" xmlns="http://www.w3.org/2000/svg">
<rect width="256" height="256" fill="white"/>
<path d="M87.4514 120.659C84.4189 117.323 79.8705 117.626 77.7475 121.569L28.6193 219.825C26.7998 223.767 29.5291 228.316 33.7747 228.316H102.008C104.131 228.316 106.254 227.103 107.164 224.981C122.023 194.655 113.229 148.256 87.4514 120.659Z" fill="url(#paint0_linear_3_210)"/>
<path d="M123.241 31.5007C95.9472 74.8668 97.7672 123.086 115.659 159.173C133.855 195.261 147.501 223.161 148.715 224.981C149.625 227.103 151.747 228.316 153.87 228.316H222.104C226.349 228.316 229.381 223.767 227.259 219.825C227.259 219.825 135.371 36.0496 132.945 31.5007C131.126 27.255 125.97 27.255 123.241 31.5007Z" fill="#2684FF"/>
<defs>
<linearGradient id="paint0_linear_3_210" x1="114.26" y1="135.858" x2="62.4838" y2="225.537" gradientUnits="userSpaceOnUse">
<stop stop-color="#0052CC"/>
<stop offset="0.9228" stop-color="#2684FF"/>
</linearGradient>
</defs>
</svg>
