<svg xmlns="http://www.w3.org/2000/svg" width="256" height="256" viewBox="0 0 256 256" fill="none"><g transform="translate(0.0000 0.0000) scale(8.000000)">
 <g id="icon-gradient-blue-atlassian">
  <g id="Group">
   <g id="Group_2">
    <path id="Vector" d="M11.1286 15.0811C10.7647 14.6808 10.2189 14.7172 9.96413 15.1903L4.06875 26.981C3.85041 27.4541 4.17793 28 4.6874 28H12.8754C13.1302 28 13.3849 27.8544 13.4941 27.5997C15.2772 23.9606 14.2219 18.3927 11.1286 15.0811Z" fill="url(#paint0_linear)">
    </path>
    <path id="Vector_2" d="M15.4233 4.38211C12.1481 9.58605 12.3665 15.3723 14.5135 19.7028C16.697 24.0334 18.3346 27.3813 18.4802 27.5997C18.5894 27.8544 18.8441 28 19.0988 28H27.2869C27.7963 28 28.1602 27.4541 27.9055 26.981C27.9055 26.981 16.879 4.92798 16.5878 4.38211C16.3695 3.87263 15.7508 3.87263 15.4233 4.38211Z" fill="#2684FF">
    </path>
   </g>
  </g>
 </g>
 <defs>
  <linearGradient id="paint0_linear" x1="14.3456" y1="16.905" x2="8.13249" y2="27.6665" gradientUnits="userSpaceOnUse">
   <stop stop-color="#0052CC">
   </stop>
   <stop offset="0.9228" stop-color="#2684FF">
   </stop>
  </linearGradient>
 </defs>
</g></svg>