<svg width="256" height="256" viewBox="0 0 256 256" fill="none" xmlns="http://www.w3.org/2000/svg">
<path d="M56.391 216.716C52.9738 216.716 50.0959 216.13 47.7571 214.964C45.4246 213.798 43.6565 212.021 42.4714 209.677C41.2863 207.332 40.678 204.464 40.678 201.095V166.362C40.678 162.08 39.8191 158.965 38.1199 157.021C36.4082 155.084 33.3733 154.06 29.022 153.961C27.6675 153.961 26.5828 153.456 25.7614 152.425C24.9275 151.408 24.5199 150.229 24.5199 148.915C24.5199 147.49 24.9275 146.311 25.7614 145.392C26.5891 144.473 27.6864 143.967 29.022 143.868C33.3733 143.763 36.4082 142.746 38.1199 140.808C39.8316 138.871 40.678 135.805 40.678 131.622V96.8885C40.678 91.7864 42.0325 87.9059 44.7223 85.2593C47.4122 82.6125 51.3059 81.28 56.391 81.28H97.8868C99.4481 81.28 100.733 81.7427 101.774 82.6557C102.809 83.575 103.336 84.7533 103.336 86.1661C103.336 87.4988 102.897 88.6401 102.019 89.6148C101.141 90.5896 99.9747 91.0769 98.5138 91.0769H59.9838C57.7955 91.0769 56.1402 91.6384 55.0053 92.7612C53.8642 93.884 53.2936 95.6176 53.2936 97.9743V132.868C53.2936 135.928 52.6666 138.705 51.4251 141.203C50.1836 143.708 48.522 145.67 46.4466 147.107C44.3712 148.532 41.9446 149.248 39.1419 149.248V148.631C41.9446 148.631 44.3712 149.346 46.4466 150.772C48.522 152.197 50.1836 154.165 51.4251 156.676C52.6666 159.175 53.2936 161.951 53.2936 165.01V200.059C53.2936 202.415 53.8642 204.143 55.0053 205.272C56.1465 206.407 57.8081 206.957 59.9838 206.957H98.5138C99.9622 206.957 101.128 207.444 102.019 208.412C102.909 209.386 103.336 210.534 103.336 211.86C103.336 213.188 102.822 214.322 101.774 215.297C100.733 216.272 99.4418 216.753 97.8868 216.753H56.391V216.716Z" fill="#F8F7F7"/>
<path d="M102.01 86.17C102.01 85.1303 101.637 84.3137 100.89 83.65C100.119 82.9789 99.1572 82.6106 97.8899 82.61H56.3899C51.5317 82.6102 48.0161 83.8724 45.6499 86.2C43.2917 88.5204 41.9999 92.0163 41.9999 96.89V131.62C41.9999 135.935 41.1357 139.397 39.1099 141.69C37.0383 144.032 33.5591 145.065 29.1099 145.18L29.1199 145.19C28.087 145.267 27.324 145.644 26.7499 146.28C26.1755 146.914 25.8499 147.763 25.8499 148.92C25.8507 149.679 26.0186 150.361 26.3699 150.98L26.7899 151.58L26.7999 151.6C27.3574 152.298 28.052 152.64 29.0199 152.64H29.0499C33.5297 152.741 37.0301 153.789 39.1099 156.14L39.1199 156.15C41.1288 158.449 41.9997 161.952 41.9999 166.36V201.1C42.0005 204.311 42.5902 206.963 43.6599 209.08C44.7189 211.173 46.2781 212.744 48.3499 213.78L50.0299 214.47C51.8225 215.072 53.9347 215.39 56.3899 215.39H57.7199V215.43H97.8899C99.1424 215.429 100.1 215.051 100.87 214.33L101.39 213.76C101.823 213.18 102.01 212.557 102.01 211.86C102.01 211.105 101.834 210.452 101.47 209.87L101.04 209.31C100.426 208.643 99.6251 208.28 98.5099 208.28H59.9799C57.5932 208.279 55.5419 207.673 54.0699 206.21C52.5842 204.737 51.9701 202.606 51.9699 200.06V165.01C51.9699 162.139 51.3813 159.569 50.2399 157.27C49.0889 154.943 47.566 153.153 45.6999 151.87C44.6084 151.12 43.3902 150.609 42.0499 150.3C41.1185 150.473 40.1487 150.57 39.1399 150.57H37.8199V147.3H39.1399C40.1482 147.3 41.119 147.397 42.0499 147.57C43.3895 147.261 44.6089 146.759 45.6999 146.01C47.5698 144.713 49.0903 142.929 50.2399 140.61C51.3812 138.312 51.9697 135.741 51.9699 132.87V97.97C51.9706 95.4287 52.5816 93.2877 54.0699 91.82L54.6499 91.31C56.0524 90.2241 57.8774 89.7506 59.9799 89.75H98.5099C99.6399 89.75 100.434 89.3905 101.03 88.73C101.686 88.0013 102.009 87.1751 102.01 86.17ZM104.66 86.17C104.659 87.8268 104.098 89.2811 103 90.5C101.841 91.7864 100.3 92.4 98.5099 92.4H59.9799C58.0146 92.4007 56.7464 92.9039 55.9399 93.7C55.1508 94.4765 54.6206 95.8051 54.6199 97.97V132.87C54.6197 136.115 53.9494 139.094 52.6099 141.79C51.6111 143.805 50.3504 145.517 48.8199 146.91L47.1999 148.2C46.8005 148.474 46.3815 148.714 45.9599 148.94C46.3813 149.166 46.8007 149.406 47.1999 149.68C49.4806 151.247 51.2796 153.4 52.6099 156.09C53.9494 158.787 54.6199 161.764 54.6199 165.01V200.06C54.6201 202.224 55.1464 203.545 55.9399 204.33L56.6399 204.87C57.4302 205.348 58.5096 205.63 59.9799 205.63H98.5099C100.289 205.63 101.824 206.245 102.99 207.51L103 207.52C104.121 208.749 104.66 210.218 104.66 211.86C104.66 213.154 104.27 214.305 103.53 215.31L102.68 216.27C101.37 217.496 99.7433 218.079 97.8899 218.08H55.0599V217.98C52.0548 217.844 49.4127 217.267 47.1699 216.15C44.5809 214.855 42.6006 212.87 41.2899 210.28C39.9907 207.709 39.3505 204.622 39.3499 201.1V166.36C39.3497 162.213 38.5139 159.489 37.1299 157.9L36.5599 157.35C35.1096 156.141 32.6794 155.373 28.9899 155.29C27.2647 155.282 25.7979 154.602 24.7199 153.25C23.6996 151.994 23.1909 150.519 23.1899 148.92C23.1899 147.226 23.6868 145.705 24.7799 144.5C25.8598 143.304 27.286 142.672 28.9199 142.55L28.9899 142.54C33.214 142.439 35.7865 141.451 37.1299 139.93C38.5265 138.348 39.3499 135.67 39.3499 131.62V96.89C39.3499 91.5595 40.7685 87.2829 43.7899 84.31C46.803 81.3457 51.0802 79.9502 56.3899 79.95H97.8899C99.7359 79.9506 101.342 80.5129 102.65 81.66C103.971 82.8347 104.66 84.3842 104.66 86.17Z" fill="#F8F7F7"/>
<path d="M158.129 216.713C156.568 216.713 155.282 216.226 154.241 215.257C153.201 214.282 152.68 213.134 152.68 211.821C152.68 210.507 153.119 209.347 153.996 208.372C154.875 207.397 156.041 206.917 157.501 206.917H196.031C198.22 206.917 199.876 206.367 201.01 205.232C202.151 204.109 202.722 202.375 202.722 200.019V164.97C202.722 161.911 203.349 159.135 204.59 156.636C205.832 154.131 207.493 152.169 209.569 150.732C211.644 149.306 214.071 148.591 216.874 148.591V149.208C214.071 149.208 211.644 148.492 209.569 147.067C207.493 145.642 205.832 143.674 204.59 141.164C203.349 138.665 202.722 135.888 202.722 132.828V97.9343C202.722 95.59 202.151 93.8564 201.01 92.7211C199.869 91.5983 198.207 91.037 196.031 91.037H157.501C156.053 91.037 154.887 90.5496 153.996 89.5748C153.119 88.6124 152.68 87.4587 152.68 86.1262C152.68 84.701 153.194 83.5349 154.241 82.6158C155.276 81.6966 156.568 81.24 158.129 81.24H199.625C204.71 81.24 208.591 82.5726 211.293 85.2192C213.995 87.8659 215.337 91.7464 215.337 96.8485V131.582C215.337 135.765 216.196 138.837 217.896 140.768C219.607 142.706 222.642 143.73 226.993 143.828C228.348 143.927 229.432 144.433 230.255 145.352C231.088 146.271 231.496 147.45 231.496 148.874C231.496 150.207 231.088 151.374 230.255 152.386C229.432 153.403 228.329 153.922 226.993 153.922C222.642 154.02 219.613 155.044 217.896 156.981C216.184 158.919 215.337 162.028 215.337 166.322V201.055C215.337 204.43 214.742 207.28 213.544 209.636C212.347 211.994 210.591 213.746 208.258 214.924C205.919 216.09 203.042 216.676 199.625 216.676H158.129V216.713Z" fill="#F8F7F7"/>
<path d="M151.35 86.13C151.35 84.3393 152.019 82.8001 153.36 81.62L154.4 80.87C155.494 80.2252 156.749 79.91 158.13 79.91H199.62C204.933 79.91 209.196 81.3091 212.22 84.27C215.258 87.2451 216.66 91.5227 216.66 96.85V131.58C216.66 135.627 217.502 138.312 218.89 139.89L219.45 140.44C220.9 141.65 223.33 142.416 227.02 142.5H227.09C228.744 142.621 230.155 143.264 231.23 144.46C232.322 145.664 232.82 147.179 232.82 148.87C232.82 150.495 232.31 151.955 231.28 153.21C230.203 154.544 228.729 155.235 227.01 155.24L227.02 155.25C223.327 155.334 220.903 156.106 219.45 157.32L218.89 157.86C217.496 159.437 216.661 162.149 216.66 166.32V201.06C216.66 204.586 216.045 207.654 214.73 210.24C213.407 212.846 211.445 214.803 208.86 216.11C206.291 217.39 203.183 218 199.62 218H159.46V218.04H158.13C156.264 218.04 154.648 217.445 153.34 216.23C152.057 215.027 151.35 213.533 151.35 211.82C151.351 210.184 151.91 208.702 153.01 207.48C154.173 206.191 155.717 205.59 157.5 205.59H196.03C198.007 205.59 199.269 205.092 200.07 204.29C200.86 203.512 201.4 202.186 201.4 200.02V164.97C201.4 161.725 202.062 158.746 203.4 156.05C204.732 153.364 206.534 151.217 208.81 149.64C209.206 149.369 209.623 149.124 210.04 148.9C209.623 148.676 209.216 148.431 208.82 148.16C206.538 146.594 204.732 144.441 203.4 141.75C202.062 139.054 201.401 136.074 201.4 132.83V97.93C201.4 95.7882 200.872 94.463 200.08 93.67L199.38 93.12C198.586 92.6412 197.497 92.36 196.03 92.36H157.5C155.72 92.3597 154.187 91.7458 153.02 90.47C151.914 89.2564 151.351 87.7811 151.35 86.13ZM154.01 86.13C154.011 87.1407 154.333 87.9704 154.98 88.68C155.594 89.3503 156.388 89.7097 157.5 89.71H196.03C198.426 89.71 200.473 90.3354 201.94 91.78C203.423 93.2567 204.05 95.3951 204.05 97.93V132.83C204.051 135.701 204.639 138.271 205.78 140.57C206.933 142.898 208.453 144.688 210.32 145.97C211.41 146.718 212.623 147.221 213.96 147.53C214.892 147.357 215.862 147.26 216.87 147.26H218.2V150.53H216.87C215.861 150.53 214.892 150.433 213.96 150.26C212.622 150.569 211.411 151.081 210.32 151.83L210.31 151.82C208.44 153.118 206.931 154.91 205.78 157.23C204.639 159.529 204.05 162.098 204.05 164.97V200.02C204.05 202.561 203.436 204.702 201.95 206.17C200.483 207.638 198.43 208.24 196.03 208.24H157.5C156.365 208.24 155.575 208.6 154.98 209.26C154.327 209.987 154.011 210.829 154.01 211.82C154.01 212.735 154.353 213.543 155.15 214.29C155.816 214.907 156.614 215.259 157.62 215.35H199.62C202.888 215.35 205.553 214.789 207.66 213.74L209.12 212.86C210.484 211.884 211.558 210.619 212.36 209.04C213.441 206.916 214.01 204.28 214.01 201.06V166.32C214.011 161.904 214.871 158.397 216.9 156.1C218.984 153.749 222.478 152.702 226.96 152.6L226.99 152.59C227.937 152.59 228.657 152.247 229.22 151.55L229.23 151.54C229.861 150.774 230.17 149.906 230.17 148.87C230.17 148.005 229.983 147.318 229.65 146.76L229.27 146.24C228.703 145.606 227.949 145.228 226.9 145.15C222.45 145.04 218.97 143.992 216.9 141.65C214.891 139.365 214.01 135.896 214.01 131.58V96.85C214.01 91.973 212.727 88.4881 210.36 86.17C207.98 83.8389 204.477 82.57 199.62 82.57H158.13C157.168 82.57 156.383 82.7715 155.73 83.16L155.12 83.61C154.371 84.2677 154.01 85.0717 154.01 86.13Z" fill="#F8F7F7"/>
<path d="M168.801 162.203C176.357 162.203 182.483 156.175 182.483 148.741C182.483 141.308 176.357 135.28 168.801 135.28C161.246 135.28 155.12 141.308 155.12 148.741C155.12 156.175 161.246 162.203 168.801 162.203Z" fill="#F8F7F7"/>
<path d="M181.16 148.74C181.159 142.06 175.643 136.61 168.8 136.61C161.958 136.61 156.45 142.06 156.45 148.74C156.45 155.421 161.957 160.879 168.8 160.88C175.643 160.88 181.16 155.421 181.16 148.74ZM183.81 148.74C183.81 156.927 177.068 163.53 168.8 163.53C160.533 163.529 153.79 156.926 153.79 148.74C153.79 140.555 160.534 133.951 168.8 133.95C177.067 133.95 183.809 140.554 183.81 148.74Z" fill="#F8F7F7"/>
<path d="M92.1614 162.203C99.7169 162.203 105.843 156.175 105.843 148.741C105.843 141.308 99.7169 135.28 92.1614 135.28C84.6059 135.28 78.4799 141.308 78.4799 148.741C78.4799 156.175 84.6059 162.203 92.1614 162.203Z" fill="#F8F7F7"/>
<path d="M104.52 148.74C104.519 142.06 99.0026 136.61 92.1599 136.61C85.3179 136.61 79.8108 142.06 79.8099 148.74C79.8099 155.421 85.3173 160.879 92.1599 160.88C99.0032 160.88 104.52 155.421 104.52 148.74ZM107.17 148.74C107.17 156.927 100.428 163.53 92.1599 163.53C83.8929 163.529 77.1499 156.926 77.1499 148.74C77.1508 140.555 83.8934 133.95 92.1599 133.95C100.427 133.95 107.169 140.554 107.17 148.74Z" fill="#F8F7F7"/>
<path d="M123.333 42.3247L122.286 69.8338C122.286 71.3762 120.805 72.1474 117.846 72.1474C114.887 72.1474 113.407 71.3762 113.407 69.8338C113.144 62.9797 112.931 57.6617 112.755 53.8922C112.668 50.0364 112.58 47.291 112.491 45.6623C112.403 44.0336 112.36 43.0465 112.36 42.7071V42.1951C112.36 40.2271 114.191 39.24 117.846 39.24C121.502 39.24 123.333 40.2702 123.333 42.3247ZM145.541 42.3247L144.495 69.8338C144.495 71.3762 143.015 72.1474 140.056 72.1474C137.096 72.1474 135.615 71.3762 135.615 69.8338C135.352 62.9797 135.139 57.6617 134.964 53.8922C134.876 50.0364 134.788 47.291 134.7 45.6623C134.613 44.0336 134.569 43.0465 134.569 42.7071V42.1951C134.569 40.2271 136.4 39.24 140.056 39.24C143.71 39.24 145.541 40.2702 145.541 42.3247Z" fill="#F8F7F7"/>
<path d="M117.85 37.91C119.758 37.9104 121.401 38.1798 122.61 38.86C123.929 39.6022 124.659 40.8036 124.66 42.32V42.38L123.61 69.88L123.6 69.87C123.595 70.4631 123.46 71.0431 123.13 71.56C122.796 72.0824 122.322 72.4731 121.79 72.75C120.767 73.2828 119.4 73.4696 117.85 73.47C116.299 73.47 114.924 73.2836 113.9 72.75C113.37 72.4732 112.904 72.0817 112.57 71.56C112.239 71.0424 112.096 70.464 112.09 69.87L112.08 69.88C111.817 63.0278 111.606 57.7124 111.43 53.95V53.92C111.343 50.0658 111.257 47.3356 111.17 45.73C111.084 44.1234 111.031 43.0958 111.03 42.71V42.2C111.03 41.4947 111.205 40.8058 111.58 40.2C111.953 39.6012 112.481 39.1438 113.1 38.81C114.304 38.1614 115.947 37.91 117.85 37.91ZM140.06 37.91C141.967 37.9104 143.611 38.1798 144.82 38.86C146.138 39.6023 146.869 40.804 146.87 42.32V42.38L145.82 69.88L145.81 69.87C145.805 70.464 145.661 71.0424 145.33 71.56C144.996 72.0817 144.531 72.4733 144 72.75C142.978 73.283 141.61 73.4696 140.06 73.47C138.509 73.47 137.134 73.2835 136.11 72.75C135.579 72.4734 135.115 72.0817 134.78 71.56C134.449 71.0423 134.296 70.4642 134.29 69.87C134.027 63.0179 133.815 57.7127 133.64 53.95V53.92C133.552 50.0658 133.467 47.3356 133.38 45.73C133.295 44.1249 133.241 43.0959 133.24 42.71V42.2C133.24 41.4947 133.405 40.8058 133.78 40.2C134.153 39.5989 134.69 39.1446 135.31 38.81C136.514 38.1615 138.156 37.91 140.06 37.91ZM113.69 42.71C113.691 43.0079 113.732 43.9509 113.82 45.59C113.909 47.2368 113.994 49.9905 114.08 53.83L114.73 69.78V69.83C114.73 69.9928 114.769 70.0796 114.8 70.13C114.836 70.1858 114.922 70.2815 115.13 70.39C115.586 70.6276 116.443 70.82 117.85 70.82C119.254 70.8196 120.104 70.6272 120.56 70.39C120.769 70.2813 120.855 70.1859 120.89 70.13C120.922 70.0797 120.96 69.9939 120.96 69.83V69.78L122.01 42.32L121.97 41.96C121.894 41.6258 121.692 41.3846 121.31 41.17C120.692 40.8222 119.594 40.5704 117.85 40.57C116.099 40.57 114.986 40.813 114.36 41.15C114.069 41.3072 113.915 41.4639 113.83 41.6C113.748 41.7328 113.69 41.9213 113.69 42.2V42.71ZM135.89 42.71C135.891 43.0079 135.933 43.9496 136.02 45.59C136.109 47.2368 136.203 49.9906 136.29 53.83L136.94 69.78V69.83C136.94 69.9935 136.978 70.0797 137.01 70.13C137.046 70.1859 137.132 70.2813 137.34 70.39C137.797 70.6276 138.653 70.82 140.06 70.82C141.465 70.8195 142.315 70.6273 142.77 70.39C142.979 70.2814 143.065 70.1859 143.1 70.13C143.132 70.0796 143.17 69.9931 143.17 69.83V69.78L144.22 42.32C144.219 41.7884 144.025 41.4547 143.52 41.17C142.902 40.8223 141.804 40.5705 140.06 40.57C138.309 40.57 137.196 40.813 136.57 41.15C136.279 41.3071 136.125 41.4639 136.04 41.6C135.958 41.7327 135.89 41.9213 135.89 42.2V42.71Z" fill="#F8F7F7"/>
</svg>
