<svg width="25" height="25" viewBox="0 0 25 25" fill="none" xmlns="http://www.w3.org/2000/svg">
<rect width="25" height="25"/>
<path d="M5.50694 21.1637C5.17323 21.1637 4.89218 21.1064 4.66378 20.9926C4.436 20.8787 4.26333 20.7052 4.1476 20.4763C4.03187 20.2473 3.97247 19.9672 3.97247 19.6382V16.2463C3.97247 15.8281 3.88859 15.5239 3.72265 15.3341C3.55549 15.1449 3.25912 15.0449 2.83418 15.0353C2.70191 15.0353 2.59598 14.9859 2.51577 14.8853C2.43433 14.7859 2.39453 14.6708 2.39453 14.5425C2.39453 14.4033 2.43433 14.2882 2.51577 14.1984C2.5966 14.1087 2.70375 14.0593 2.83418 14.0496C3.25912 14.0394 3.55549 13.94 3.72265 13.7508C3.88981 13.5616 3.97247 13.2622 3.97247 12.8537V9.46177C3.97247 8.96352 4.10474 8.58456 4.36742 8.3261C4.6301 8.06763 5.01035 7.9375 5.50694 7.9375H9.55926C9.71173 7.9375 9.83725 7.98269 9.9389 8.07185C10.0399 8.16162 10.0914 8.27669 10.0914 8.41466C10.0914 8.5448 10.0485 8.65626 9.96278 8.75145C9.87706 8.84664 9.76316 8.89423 9.62049 8.89423H5.8578C5.6441 8.89423 5.48245 8.94906 5.37162 9.05871C5.26018 9.16836 5.20446 9.33766 5.20446 9.5678V12.9754C5.20446 13.2742 5.14323 13.5454 5.02199 13.7894C4.90075 14.034 4.73848 14.2256 4.53581 14.3659C4.33313 14.5051 4.09616 14.575 3.82246 14.575V14.5147C4.09616 14.5147 4.33313 14.5846 4.53581 14.7238C4.73848 14.863 4.90075 15.0552 5.02199 15.3004C5.14323 15.5444 5.20446 15.8155 5.20446 16.1143V19.537C5.20446 19.7671 5.26018 19.9358 5.37162 20.0461C5.48306 20.1569 5.64533 20.2106 5.8578 20.2106H9.62049C9.76194 20.2106 9.87583 20.2582 9.96278 20.3527C10.0497 20.4479 10.0914 20.56 10.0914 20.6895C10.0914 20.8191 10.0412 20.9299 9.9389 21.0251C9.83725 21.1203 9.71112 21.1673 9.55926 21.1673H5.50694V21.1643V21.1637Z" fill="#F8F7F7" stroke="#F8F7F7" stroke-width="0.259057" stroke-miterlimit="10"/>
<path d="M15.4423 21.1634C15.2898 21.1634 15.1643 21.1158 15.0626 21.0212C14.961 20.926 14.9102 20.8139 14.9102 20.6856C14.9102 20.5573 14.953 20.444 15.0387 20.3488C15.1245 20.2536 15.2384 20.2067 15.381 20.2067H19.1437C19.3574 20.2067 19.5191 20.153 19.6299 20.0422C19.7413 19.9325 19.7971 19.7632 19.7971 19.5331V16.1104C19.7971 15.8116 19.8583 15.5405 19.9795 15.2965C20.1008 15.0519 20.263 14.8603 20.4657 14.7199C20.6684 14.5807 20.9054 14.5108 21.1791 14.5108V14.5711C20.9054 14.5711 20.6684 14.5012 20.4657 14.362C20.263 14.2229 20.1008 14.0307 19.9795 13.7855C19.8583 13.5415 19.7971 13.2703 19.7971 12.9715V9.5639C19.7971 9.33496 19.7413 9.16566 19.6299 9.0548C19.5185 8.94515 19.3562 8.89033 19.1437 8.89033H15.381C15.2396 8.89033 15.1257 8.84273 15.0387 8.74754C14.953 8.65355 14.9102 8.54089 14.9102 8.41076C14.9102 8.27158 14.9604 8.15771 15.0626 8.06795C15.1637 7.97818 15.2898 7.93359 15.4423 7.93359H19.4946C19.9912 7.93359 20.3702 8.06373 20.6341 8.32219C20.898 8.58065 21.029 8.95961 21.029 9.45786V12.8498C21.029 13.2583 21.1129 13.5583 21.2789 13.7469C21.446 13.9361 21.7424 14.0361 22.1673 14.0457C22.2996 14.0554 22.4055 14.1048 22.4858 14.1945C22.5672 14.2843 22.607 14.3994 22.607 14.5385C22.607 14.6687 22.5672 14.7826 22.4858 14.8814C22.4055 14.9808 22.2978 15.0314 22.1673 15.0314C21.7424 15.041 21.4466 15.141 21.2789 15.3302C21.1117 15.5194 21.029 15.823 21.029 16.2424V19.6343C21.029 19.9639 20.9709 20.2422 20.8539 20.4723C20.737 20.7025 20.5655 20.8736 20.3377 20.9887C20.1093 21.1025 19.8283 21.1598 19.4946 21.1598H15.4423V21.1628V21.1634Z" fill="#F8F7F7" stroke="#F8F7F7" stroke-width="0.259057" stroke-miterlimit="10"/>
<path d="M16.4845 15.8401C17.2224 15.8401 17.8206 15.2515 17.8206 14.5255C17.8206 13.7996 17.2224 13.2109 16.4845 13.2109C15.7467 13.2109 15.1484 13.7996 15.1484 14.5255C15.1484 15.2515 15.7467 15.8401 16.4845 15.8401Z" fill="#F8F7F7" stroke="#F8F7F7" stroke-width="0.259057" stroke-miterlimit="10"/>
<path d="M9.00014 15.8401C9.73798 15.8401 10.3362 15.2515 10.3362 14.5255C10.3362 13.7996 9.73798 13.2109 9.00014 13.2109C8.2623 13.2109 7.66406 13.7996 7.66406 14.5255C7.66406 15.2515 8.2623 15.8401 9.00014 15.8401Z" fill="#F8F7F7" stroke="#F8F7F7" stroke-width="0.259057" stroke-miterlimit="10"/>
<path d="M12.0442 4.13327L11.942 6.81971C11.942 6.97033 11.7974 7.04564 11.5084 7.04564C11.2194 7.04564 11.0749 6.97033 11.0749 6.81971C11.0492 6.15036 11.0284 5.63103 11.0112 5.26291C11.0027 4.88637 10.9941 4.61826 10.9855 4.45921C10.9769 4.30016 10.9727 4.20376 10.9727 4.17062V4.12062C10.9727 3.92843 11.1515 3.83203 11.5084 3.83203C11.8654 3.83203 12.0442 3.93264 12.0442 4.13327ZM14.213 4.13327L14.1108 6.81971C14.1108 6.97033 13.9663 7.04564 13.6773 7.04564C13.3883 7.04564 13.2437 6.97033 13.2437 6.81971C13.218 6.15036 13.1972 5.63103 13.1801 5.26291C13.1715 4.88637 13.1629 4.61826 13.1543 4.45921C13.1458 4.30016 13.1415 4.20376 13.1415 4.17062V4.12062C13.1415 3.92843 13.3203 3.83203 13.6773 3.83203C14.0342 3.83203 14.213 3.93264 14.213 4.13327Z" fill="#F8F7F7" stroke="#F8F7F7" stroke-width="0.259057" stroke-miterlimit="10"/>
</svg>
