<svg width="256" height="256" viewBox="0 0 256 256" fill="none" xmlns="http://www.w3.org/2000/svg">
<rect width="256" height="256" fill="white"/>
<g clip-path="url(#clip0_2_170)">
<path d="M56.6008 115.191C89.3384 109.879 114.905 82.6914 120.205 49.8789L122.076 34.2539C122.388 31.4414 120.829 28.0039 117.399 28.3164C92.7681 30.1914 69.6958 38.3164 56.6008 43.6289C50.0532 46.4414 46 52.6914 46 59.5664V111.129C46 114.254 48.8061 116.441 51.6122 116.129L56.6008 115.191Z" fill="black"/>
<path d="M135.795 49.8789C141.095 82.6914 166.662 109.879 199.399 115.191L204.076 116.129C207.194 116.754 209.688 114.254 209.688 111.129V59.5664C209.688 52.6914 205.635 46.4414 199.087 43.6289C186.304 38.3164 163.232 30.1914 138.601 28.3164C135.483 28.0039 133.924 31.4414 134.236 33.9414L135.795 49.8789Z" fill="black"/>
<path d="M199.399 129.566C154.814 138.316 133.924 168.316 133.924 224.566C133.924 227.379 136.73 229.254 139.224 227.691C159.802 213.941 205.011 177.379 209.688 132.066C209.688 126.441 202.829 129.254 199.399 129.566Z" fill="black"/>
<path d="M56.6008 129.566C101.186 138.316 122.076 168.316 122.076 224.566C122.076 227.379 119.27 229.254 116.776 227.691C96.1977 213.941 50.9886 177.691 46.3118 132.066C46.3118 126.441 53.1711 129.254 56.6008 129.566Z" fill="black"/>
</g>
<defs>
<clipPath id="clip0_2_170">
<rect width="164" height="200" fill="white" transform="translate(46 28.3164)"/>
</clipPath>
</defs>
</svg>
