<?xml version="1.0" encoding="UTF-8"?>
<svg width="40px" height="40px" viewBox="0 0 40 40" version="1.1" xmlns="http://www.w3.org/2000/svg" xmlns:xlink="http://www.w3.org/1999/xlink">
    <title>Icon-Architecture-Group/32/AWS-Cloud-logo_32</title>
    <g id="Icon-Architecture-Group/32/AWS-Cloud-logo_32" stroke="none" stroke-width="1" fill="none" fill-rule="evenodd">
        <rect id="Rectangle" fill="#242F3E" x="0" y="0" width="40" height="40"></rect>
        <path d="M32.6982,23.9008 C33.0592,24.3698 32.2982,26.2998 31.9572,27.1638 C31.8532,27.4258 32.0752,27.5288 32.3072,27.3318 C33.8202,26.0478 34.2122,23.3568 33.9012,22.9688 C33.5942,22.5828 30.9502,22.2518 29.3382,23.4008 C29.0892,23.5778 29.1322,23.8218 29.4072,23.7898 C30.3152,23.6778 32.3382,23.4328 32.6982,23.9008 L32.6982,23.9008 Z M31.8562,25.9098 C32.3742,25.5318 31.9302,24.9688 31.4022,25.1898 C27.8892,26.6538 24.0752,27.3628 20.6022,27.3628 C15.4592,27.3628 10.4752,25.9738 6.4462,23.6678 C6.0942,23.4658 5.8332,23.8228 6.1272,24.0818 C9.8602,27.3978 14.7962,29.3908 20.2742,29.3908 C24.1842,29.3908 28.7252,28.1828 31.8562,25.9098 L31.8562,25.9098 Z M29.7122,20.6948 C29.2142,20.6948 28.7272,20.6418 28.2532,20.5338 C27.7772,20.4248 27.4132,20.3018 27.1602,20.1608 C27.0052,20.0768 26.9082,19.9888 26.8692,19.9028 C26.8312,19.8148 26.8112,19.7288 26.8112,19.6428 L26.8112,19.1738 C26.8112,18.9798 26.8842,18.8808 27.0272,18.8808 C27.0822,18.8808 27.1402,18.8938 27.2002,18.9138 C27.2612,18.9368 27.3412,18.9688 27.4412,19.0118 C27.7612,19.1528 28.1082,19.2598 28.4852,19.3358 C28.8612,19.4108 29.2362,19.4488 29.6112,19.4488 C30.2082,19.4488 30.6692,19.3468 30.9952,19.1408 C31.3222,18.9368 31.4842,18.6458 31.4842,18.2678 C31.4842,18.0078 31.3992,17.7928 31.2272,17.6188 C31.0562,17.4448 30.7382,17.2858 30.2752,17.1338 L28.9002,16.7128 C28.2032,16.4968 27.6982,16.1838 27.3832,15.7748 C27.0682,15.3628 26.9112,14.9158 26.9112,14.4278 C26.9112,14.0408 26.9962,13.6988 27.1692,13.4008 C27.3392,13.1038 27.5642,12.8508 27.8452,12.6398 C28.1302,12.4298 28.4592,12.2718 28.8342,12.1618 C29.2082,12.0548 29.6062,11.9998 30.0262,11.9998 C30.2362,11.9998 30.4492,12.0138 30.6662,12.0408 C30.8812,12.0668 31.0852,12.1028 31.2782,12.1458 C31.4712,12.1908 31.6512,12.2388 31.8162,12.2918 C31.9822,12.3468 32.1142,12.4008 32.2152,12.4538 C32.3462,12.5288 32.4392,12.6048 32.4962,12.6808 C32.5512,12.7558 32.5792,12.8578 32.5792,12.9888 L32.5792,13.4248 C32.5792,13.6198 32.5072,13.7158 32.3622,13.7158 C32.2852,13.7158 32.1652,13.6798 31.9982,13.6038 C31.4582,13.3648 30.8482,13.2478 30.1772,13.2478 C29.6352,13.2478 29.2142,13.3338 28.9162,13.5058 C28.6172,13.6798 28.4682,13.9548 28.4682,14.3328 C28.4682,14.5908 28.5622,14.8098 28.7512,14.9878 C28.9392,15.1658 29.2862,15.3358 29.7952,15.4988 L31.1372,15.9208 C31.8222,16.1348 32.3112,16.4328 32.6032,16.8088 C32.8972,17.1878 33.0442,17.6188 33.0442,18.1038 C33.0442,18.5048 32.9612,18.8638 32.7942,19.1818 C32.6282,19.5008 32.3992,19.7718 32.1052,19.9988 C31.8132,20.2258 31.4632,20.3978 31.0542,20.5168 C30.6442,20.6368 30.1972,20.6948 29.7122,20.6948 L29.7122,20.6948 Z M17.5472,20.4508 C17.3812,20.4508 17.2602,20.4238 17.1822,20.3638 C17.1042,20.3028 17.0382,20.1828 16.9832,19.9988 L14.7612,12.8418 C14.7082,12.6578 14.6792,12.5348 14.6792,12.4708 C14.6792,12.3198 14.7572,12.2438 14.9122,12.2438 L15.8392,12.2438 C16.0162,12.2438 16.1402,12.2738 16.2132,12.3338 C16.2842,12.3918 16.3472,12.5118 16.4022,12.6978 L17.9932,18.8178 L19.4702,12.6978 C19.5142,12.5118 19.5742,12.3918 19.6512,12.3338 C19.7282,12.2738 19.8552,12.2438 20.0312,12.2438 L20.7962,12.2438 C20.9712,12.2438 21.0982,12.2738 21.1762,12.3338 C21.2532,12.3918 21.3142,12.5118 21.3582,12.6978 L22.8512,18.8988 L24.4912,12.6978 C24.5462,12.5118 24.6092,12.3918 24.6812,12.3338 C24.7542,12.2738 24.8772,12.2438 25.0542,12.2438 L25.9322,12.2438 C26.0882,12.2438 26.1652,12.3198 26.1652,12.4708 C26.1652,12.5118 26.1582,12.5618 26.1492,12.6148 C26.1362,12.6708 26.1162,12.7458 26.0812,12.8418 L23.7952,19.9988 C23.7402,20.1828 23.6732,20.3028 23.5952,20.3638 C23.5182,20.4238 23.3962,20.4508 23.2312,20.4508 L22.4182,20.4508 C22.2422,20.4508 22.1152,20.4208 22.0382,20.3568 C21.9612,20.2918 21.9002,20.1658 21.8562,19.9838 L20.3802,14.0238 L18.9232,19.9838 C18.8792,20.1658 18.8172,20.2918 18.7402,20.3568 C18.6622,20.4208 18.5362,20.4508 18.3592,20.4508 L17.5472,20.4508 Z M9.9392,19.4488 C10.2502,19.4488 10.5752,19.3918 10.9182,19.2788 C11.2602,19.1648 11.5582,18.9688 11.8122,18.6868 C11.9682,18.5148 12.0742,18.3178 12.1362,18.0958 C12.1962,17.8758 12.2252,17.6088 12.2252,17.2948 L12.2252,16.9068 C11.9512,16.8418 11.6612,16.7908 11.3562,16.7528 C11.0522,16.7158 10.7572,16.6958 10.4692,16.6958 C9.8402,16.6958 9.3692,16.8198 9.0612,17.0688 C8.7522,17.3168 8.5962,17.6718 8.5962,18.1388 C8.5962,18.5698 8.7132,18.8948 8.9452,19.1168 C9.1772,19.3388 9.5092,19.4488 9.9392,19.4488 L9.9392,19.4488 Z M13.7852,18.0408 C13.7852,18.3858 13.8202,18.6598 13.8922,18.8658 C13.9652,19.0718 14.0672,19.2938 14.1992,19.5298 C14.2432,19.6058 14.2652,19.6758 14.2652,19.7388 C14.2652,19.8378 14.2042,19.9298 14.0832,20.0148 L13.4862,20.4048 C13.3982,20.4578 13.3152,20.4858 13.2382,20.4858 C13.1372,20.4858 13.0442,20.4428 12.9562,20.3568 C12.8222,20.2258 12.7102,20.0838 12.6172,19.9268 C12.5212,19.7708 12.4252,19.5878 12.3262,19.3828 C11.5852,20.2358 10.6582,20.6628 9.5422,20.6628 C8.7462,20.6628 8.1162,20.4428 7.6512,19.9988 C7.1882,19.5568 6.9562,18.9628 6.9562,18.2188 C6.9562,17.4318 7.2432,16.7958 7.8192,16.3158 C8.3922,15.8358 9.1672,15.5948 10.1382,15.5948 C10.4592,15.5948 10.7932,15.6198 11.1412,15.6678 C11.4882,15.7158 11.8512,15.7848 12.2252,15.8708 L12.2252,15.1918 C12.2252,14.4898 12.0782,13.9958 11.7792,13.7088 C11.4812,13.4228 10.9682,13.2808 10.2392,13.2808 C9.9062,13.2808 9.5662,13.3198 9.2182,13.4008 C8.8712,13.4818 8.5302,13.5868 8.1992,13.7158 C8.0442,13.7808 7.9332,13.8218 7.8682,13.8378 C7.8022,13.8538 7.7522,13.8618 7.7192,13.8618 C7.5872,13.8618 7.5192,13.7658 7.5192,13.5698 L7.5192,13.1178 C7.5192,12.9658 7.5432,12.8578 7.5872,12.7948 C7.6312,12.7288 7.7192,12.6638 7.8522,12.5998 C8.1832,12.4368 8.5812,12.2968 9.0442,12.1788 C9.5092,12.0598 10.0002,11.9998 10.5202,11.9998 C11.6462,11.9998 12.4722,12.2528 12.9972,12.7528 C13.5212,13.2548 13.7852,14.0128 13.7852,15.0278 L13.7852,18.0408 Z" id="Fill-1" fill="#FFFFFF"></path>
    </g>
</svg>