<svg width="256" height="256" viewBox="0 0 256 256" fill="none" xmlns="http://www.w3.org/2000/svg">
<path fill-rule="evenodd" clip-rule="evenodd" d="M209.268 152.965C211.578 155.967 206.708 168.319 204.525 173.848C203.86 175.525 205.28 176.184 206.765 174.924C216.448 166.706 218.957 149.484 216.967 147C215.002 144.53 198.08 142.412 187.764 149.765C186.17 150.898 186.445 152.46 188.205 152.255C194.016 151.538 206.964 149.97 209.268 152.965ZM203.879 165.823C207.194 163.404 204.352 159.8 200.973 161.215C178.49 170.584 154.08 175.122 131.853 175.122C98.9379 175.122 67.0403 166.232 41.2547 151.474C39.0019 150.181 37.3315 152.466 39.2131 154.124C63.1043 175.346 94.6947 188.101 129.754 188.101C154.778 188.101 183.84 180.37 203.879 165.823Z" fill="white"/>
<path fill-rule="evenodd" clip-rule="evenodd" d="M190.157 132.447C186.97 132.447 183.853 132.108 180.819 131.416C177.773 130.719 175.443 129.932 173.824 129.029C172.832 128.492 172.211 127.928 171.962 127.378C171.719 126.815 171.591 126.264 171.591 125.714V122.712C171.591 121.471 172.058 120.837 172.973 120.837C173.325 120.837 173.696 120.92 174.08 121.048C174.471 121.196 174.983 121.4 175.623 121.676C177.671 122.578 179.891 123.263 182.304 123.749C184.711 124.229 187.111 124.472 189.511 124.472C193.331 124.472 196.282 123.82 198.368 122.501C200.461 121.196 201.498 119.333 201.498 116.914C201.498 115.25 200.954 113.874 199.853 112.76C198.759 111.647 196.723 110.629 193.76 109.656L184.96 106.962C180.499 105.58 177.267 103.576 175.251 100.959C173.235 98.322 172.231 95.4612 172.231 92.338C172.231 89.8612 172.775 87.6724 173.882 85.7652C174.97 83.8644 176.41 82.2452 178.208 80.8948C180.032 79.5508 182.138 78.5396 184.538 77.8356C186.931 77.1508 189.479 76.7988 192.167 76.7988C193.511 76.7988 194.874 76.8884 196.263 77.0612C197.639 77.2276 198.944 77.458 200.179 77.7332C201.415 78.0212 202.567 78.3284 203.623 78.6676C204.685 79.0196 205.53 79.3652 206.176 79.7044C207.015 80.1844 207.61 80.6708 207.975 81.1572C208.327 81.6372 208.506 82.29 208.506 83.1284V85.9188C208.506 87.1668 208.045 87.7812 207.117 87.7812C206.624 87.7812 205.856 87.5508 204.787 87.0644C201.331 85.5348 197.427 84.786 193.133 84.786C189.664 84.786 186.97 85.3364 185.063 86.4372C183.149 87.5508 182.195 89.3108 182.195 91.73C182.195 93.3812 182.797 94.7828 184.007 95.922C185.21 97.0612 187.431 98.1492 190.688 99.1924L199.277 101.893C203.661 103.263 206.791 105.17 208.659 107.576C210.541 110.002 211.482 112.76 211.482 115.864C211.482 118.431 210.951 120.728 209.882 122.764C208.819 124.805 207.354 126.54 205.472 127.992C203.603 129.445 201.363 130.546 198.746 131.308C196.122 132.076 193.261 132.447 190.157 132.447Z" fill="white"/>
<path fill-rule="evenodd" clip-rule="evenodd" d="M112.301 130.885C111.239 130.885 110.464 130.712 109.965 130.328C109.466 129.938 109.043 129.17 108.691 127.992L94.4707 82.1876C94.1315 81.01 93.9459 80.2228 93.9459 79.8132C93.9459 78.8468 94.4451 78.3604 95.4371 78.3604H101.37C102.503 78.3604 103.296 78.5524 103.763 78.9364C104.218 79.3076 104.621 80.0756 104.973 81.266L115.155 120.434L124.608 81.266C124.89 80.0756 125.274 79.3076 125.767 78.9364C126.259 78.5524 127.072 78.3604 128.199 78.3604H133.095C134.215 78.3604 135.027 78.5524 135.527 78.9364C136.019 79.3076 136.41 80.0756 136.691 81.266L146.247 120.952L156.743 81.266C157.095 80.0756 157.498 79.3076 157.959 78.9364C158.426 78.5524 159.213 78.3604 160.346 78.3604H165.965C166.963 78.3604 167.456 78.8468 167.456 79.8132C167.456 80.0756 167.411 80.3956 167.354 80.7348C167.271 81.0932 167.143 81.5732 166.919 82.1876L152.288 127.992C151.936 129.17 151.507 129.938 151.008 130.328C150.515 130.712 149.735 130.885 148.679 130.885H143.475C142.349 130.885 141.536 130.693 141.043 130.284C140.551 129.868 140.16 129.061 139.879 127.896L130.432 89.7524L121.107 127.896C120.826 129.061 120.429 129.868 119.936 130.284C119.437 130.693 118.631 130.885 117.498 130.885H112.301Z" fill="white"/>
<path fill-rule="evenodd" clip-rule="evenodd" d="M63.6099 124.472C65.6003 124.472 67.6803 124.108 69.8755 123.384C72.0643 122.655 73.9715 121.4 75.5971 119.596C76.5955 118.495 77.2739 117.234 77.6707 115.813C78.0547 114.405 78.2403 112.696 78.2403 110.687V108.204C76.4867 107.788 74.6307 107.461 72.6787 107.218C70.7331 106.981 68.8451 106.853 67.0019 106.853C62.9763 106.853 59.9619 107.647 57.9907 109.24C56.0131 110.828 55.0147 113.1 55.0147 116.088C55.0147 118.847 55.7635 120.927 57.2483 122.348C58.7331 123.768 60.8579 124.472 63.6099 124.472ZM88.2243 115.461C88.2243 117.669 88.4483 119.423 88.9091 120.741C89.3763 122.06 90.0291 123.48 90.8739 124.991C91.1555 125.477 91.2963 125.925 91.2963 126.328C91.2963 126.962 90.9059 127.551 90.1315 128.095L86.3107 130.591C85.7475 130.93 85.2163 131.109 84.7235 131.109C84.0771 131.109 83.4819 130.834 82.9187 130.284C82.0611 129.445 81.3443 128.536 80.7491 127.532C80.1347 126.533 79.5203 125.362 78.8867 124.05C74.1443 129.509 68.2115 132.242 61.0691 132.242C55.9747 132.242 51.9427 130.834 48.9667 127.992C46.0035 125.164 44.5187 121.362 44.5187 116.6C44.5187 111.564 46.3555 107.493 50.0419 104.421C53.7091 101.349 58.6691 99.8068 64.8835 99.8068C66.9379 99.8068 69.0755 99.9668 71.3027 100.274C73.5235 100.581 75.8467 101.023 78.2403 101.573V97.2276C78.2403 92.7348 77.2995 89.5732 75.3859 87.7364C73.4787 85.906 70.1955 84.9972 65.5299 84.9972C63.3987 84.9972 61.2227 85.2468 58.9955 85.7652C56.7747 86.2836 54.5923 86.9556 52.4739 87.7812C51.4819 88.1972 50.7715 88.4596 50.3555 88.562C49.9331 88.6644 49.6131 88.7156 49.4019 88.7156C48.5571 88.7156 48.1219 88.1012 48.1219 86.8468V83.954C48.1219 82.9812 48.2755 82.29 48.5571 81.8868C48.8387 81.4644 49.4019 81.0484 50.2531 80.6388C52.3715 79.5956 54.9187 78.6996 57.8819 77.9444C60.8579 77.1828 64.0003 76.7988 67.3283 76.7988C74.5347 76.7988 79.8211 78.418 83.1811 81.618C86.5347 84.8308 88.2243 89.682 88.2243 96.178V115.461Z" fill="white"/>
</svg>
