<svg width="256" height="256" viewBox="0 0 256 256" fill="none" xmlns="http://www.w3.org/2000/svg">
<g clip-path="url(#clip0_2115_1767)">
<path d="M256 0H0V256H256V0Z" fill="#242F3E"/>
<path fill-rule="evenodd" clip-rule="evenodd" d="M209.268 152.965C211.579 155.967 206.708 168.319 204.526 173.848C203.86 175.525 205.281 176.184 206.766 174.924C216.449 166.706 218.958 149.484 216.968 147C215.003 144.53 198.081 142.412 187.764 149.765C186.171 150.898 186.446 152.46 188.206 152.255C194.017 151.538 206.964 149.97 209.268 152.965ZM203.88 165.823C207.195 163.404 204.353 159.8 200.974 161.215C178.491 170.584 154.081 175.122 131.854 175.122C98.9389 175.122 67.0413 166.232 41.2557 151.474C39.0029 150.181 37.3325 152.466 39.2141 154.124C63.1053 175.346 94.6957 188.101 129.755 188.101C154.779 188.101 183.841 180.37 203.88 165.823ZM190.158 132.447C186.971 132.447 183.854 132.108 180.82 131.416C177.774 130.719 175.444 129.932 173.825 129.029C172.833 128.492 172.212 127.928 171.963 127.378C171.72 126.815 171.592 126.264 171.592 125.714V122.712C171.592 121.471 172.059 120.837 172.974 120.837C173.326 120.837 173.697 120.92 174.081 121.048C174.472 121.196 174.984 121.4 175.624 121.676C177.672 122.578 179.892 123.263 182.305 123.749C184.712 124.229 187.112 124.472 189.512 124.472C193.332 124.472 196.283 123.82 198.369 122.501C200.462 121.196 201.499 119.333 201.499 116.914C201.499 115.25 200.955 113.874 199.854 112.76C198.76 111.647 196.724 110.629 193.761 109.656L184.961 106.962C180.5 105.58 177.268 103.576 175.252 100.959C173.236 98.3219 172.232 95.4611 172.232 92.3379C172.232 89.8611 172.776 87.6723 173.883 85.7651C174.971 83.8643 176.411 82.2451 178.209 80.8947C180.033 79.5507 182.139 78.5395 184.539 77.8355C186.932 77.1507 189.48 76.7987 192.168 76.7987C193.512 76.7987 194.875 76.8883 196.264 77.0611C197.64 77.2275 198.945 77.4579 200.18 77.7331C201.416 78.0211 202.568 78.3283 203.624 78.6675C204.686 79.0195 205.531 79.3651 206.177 79.7043C207.016 80.1843 207.611 80.6707 207.976 81.1571C208.328 81.6371 208.507 82.2899 208.507 83.1283V85.9187C208.507 87.1667 208.046 87.7811 207.118 87.7811C206.625 87.7811 205.857 87.5507 204.788 87.0643C201.332 85.5347 197.428 84.7859 193.134 84.7859C189.665 84.7859 186.971 85.3363 185.064 86.4371C183.15 87.5507 182.196 89.3107 182.196 91.7299C182.196 93.3811 182.798 94.7827 184.008 95.9219C185.211 97.0611 187.432 98.1491 190.689 99.1923L199.278 101.893C203.662 103.263 206.792 105.17 208.66 107.576C210.542 110.002 211.483 112.76 211.483 115.864C211.483 118.431 210.952 120.728 209.883 122.764C208.82 124.805 207.355 126.54 205.473 127.992C203.604 129.445 201.364 130.546 198.747 131.308C196.123 132.076 193.262 132.447 190.158 132.447ZM112.302 130.885C111.24 130.885 110.465 130.712 109.966 130.328C109.467 129.938 109.044 129.17 108.692 127.992L94.4717 82.1875C94.1325 81.0099 93.9469 80.2227 93.9469 79.8131C93.9469 78.8467 94.4461 78.3603 95.4381 78.3603H101.371C102.504 78.3603 103.297 78.5523 103.764 78.9363C104.219 79.3075 104.622 80.0755 104.974 81.2659L115.156 120.434L124.609 81.2659C124.891 80.0755 125.275 79.3075 125.768 78.9363C126.26 78.5523 127.073 78.3603 128.2 78.3603H133.096C134.216 78.3603 135.028 78.5523 135.528 78.9363C136.02 79.3075 136.411 80.0755 136.692 81.2659L146.248 120.952L156.744 81.2659C157.096 80.0755 157.499 79.3075 157.96 78.9363C158.427 78.5523 159.214 78.3603 160.347 78.3603H165.966C166.964 78.3603 167.457 78.8467 167.457 79.8131C167.457 80.0755 167.412 80.3955 167.355 80.7347C167.272 81.0931 167.144 81.5731 166.92 82.1875L152.289 127.992C151.937 129.17 151.508 129.938 151.009 130.328C150.516 130.712 149.736 130.885 148.68 130.885H143.476C142.35 130.885 141.537 130.693 141.044 130.284C140.552 129.868 140.161 129.061 139.88 127.896L130.433 89.7523L121.108 127.896C120.827 129.061 120.43 129.868 119.937 130.284C119.438 130.693 118.632 130.885 117.499 130.885H112.302ZM63.6109 124.472C65.6013 124.472 67.6813 124.108 69.8765 123.384C72.0653 122.655 73.9725 121.4 75.5981 119.596C76.5965 118.495 77.2749 117.234 77.6717 115.813C78.0557 114.405 78.2413 112.696 78.2413 110.687V108.204C76.4877 107.788 74.6317 107.461 72.6797 107.218C70.7341 106.981 68.8461 106.853 67.0029 106.853C62.9773 106.853 59.9629 107.647 57.9917 109.24C56.0141 110.828 55.0157 113.1 55.0157 116.088C55.0157 118.847 55.7645 120.927 57.2493 122.348C58.7341 123.768 60.8589 124.472 63.6109 124.472ZM88.2253 115.461C88.2253 117.669 88.4493 119.423 88.9101 120.741C89.3773 122.06 90.0301 123.48 90.8749 124.991C91.1565 125.477 91.2973 125.925 91.2973 126.328C91.2973 126.962 90.9069 127.551 90.1325 128.095L86.3117 130.591C85.7485 130.93 85.2173 131.109 84.7245 131.109C84.0781 131.109 83.4829 130.834 82.9197 130.284C82.0621 129.445 81.3453 128.536 80.7501 127.532C80.1357 126.533 79.5213 125.362 78.8877 124.05C74.1453 129.509 68.2125 132.242 61.0701 132.242C55.9757 132.242 51.9437 130.834 48.9677 127.992C46.0045 125.164 44.5197 121.362 44.5197 116.6C44.5197 111.564 46.3565 107.493 50.0429 104.421C53.7101 101.349 58.6701 99.8067 64.8845 99.8067C66.9389 99.8067 69.0765 99.9667 71.3037 100.274C73.5245 100.581 75.8477 101.023 78.2413 101.573V97.2275C78.2413 92.7347 77.3005 89.5731 75.3869 87.7363C73.4797 85.9059 70.1965 84.9971 65.5309 84.9971C63.3997 84.9971 61.2237 85.2467 58.9965 85.7651C56.7757 86.2835 54.5933 86.9555 52.4749 87.7811C51.4829 88.1971 50.7725 88.4595 50.3565 88.5619C49.9341 88.6643 49.6141 88.7155 49.4029 88.7155C48.5581 88.7155 48.1229 88.1011 48.1229 86.8467V83.9539C48.1229 82.9811 48.2765 82.2899 48.5581 81.8867C48.8397 81.4643 49.4029 81.0483 50.2541 80.6387C52.3725 79.5955 54.9197 78.6995 57.8829 77.9443C60.8589 77.1827 64.0013 76.7987 67.3293 76.7987C74.5357 76.7987 79.8221 78.4179 83.1821 81.6179C86.5357 84.8307 88.2253 89.6819 88.2253 96.1779V115.461Z" fill="white"/>
</g>
<defs>
<clipPath id="clip0_2115_1767">
<rect width="256" height="256" fill="white"/>
</clipPath>
</defs>
</svg>
