<svg width="256" height="256" viewBox="0 0 256 256" fill="none" xmlns="http://www.w3.org/2000/svg">
<path fill-rule="evenodd" clip-rule="evenodd" d="M240.763 156.511C243.974 160.684 237.204 177.853 234.17 185.539C233.245 187.87 235.219 188.786 237.283 187.034C250.743 175.611 254.23 151.673 251.464 148.22C248.733 144.787 225.211 141.843 210.872 152.063C208.656 153.638 209.039 155.809 211.485 155.525C219.562 154.528 237.56 152.348 240.763 156.511ZM233.272 174.384C237.88 171.022 233.929 166.012 229.233 167.979C197.981 181.002 164.051 187.31 133.156 187.31C87.4038 187.31 43.0661 174.953 7.22412 154.439C4.09273 152.642 1.77087 155.818 4.38629 158.122C37.5951 187.621 81.5057 205.35 130.238 205.35C165.022 205.35 205.418 194.604 233.272 174.384Z" fill="#FF9900"/>
<path fill-rule="evenodd" clip-rule="evenodd" d="M214.198 127.991C209.768 127.991 205.436 127.52 201.218 126.558C196.985 125.589 193.746 124.496 191.495 123.24C190.117 122.494 189.253 121.71 188.907 120.945C188.569 120.163 188.392 119.397 188.392 118.633V114.46C188.392 112.735 189.041 111.853 190.313 111.853C190.802 111.853 191.318 111.969 191.851 112.147C192.395 112.352 193.106 112.636 193.996 113.02C196.843 114.273 199.929 115.226 203.283 115.901C206.628 116.568 209.964 116.906 213.3 116.906C218.61 116.906 222.712 116 225.612 114.166C228.521 112.352 229.962 109.763 229.962 106.401C229.962 104.088 229.206 102.175 227.676 100.626C226.155 99.0794 223.325 97.6644 219.206 96.3119L206.974 92.5672C200.774 90.6463 196.281 87.8607 193.479 84.2231C190.677 80.5576 189.281 76.5811 189.281 72.2399C189.281 68.7971 190.037 65.7547 191.576 63.1037C193.088 60.4616 195.09 58.2109 197.589 56.3338C200.125 54.4657 203.052 53.0601 206.388 52.0815C209.714 51.1297 213.256 50.6404 216.992 50.6404C218.86 50.6404 220.755 50.7649 222.686 51.0051C224.598 51.2364 226.412 51.5567 228.129 51.9392C229.847 52.3395 231.448 52.7665 232.916 53.238C234.392 53.7273 235.567 54.2077 236.465 54.6792C237.631 55.3464 238.458 56.0225 238.965 56.6986C239.455 57.3658 239.703 58.2732 239.703 59.4385V63.3172C239.703 65.0519 239.063 65.9059 237.773 65.9059C237.087 65.9059 236.02 65.5857 234.534 64.9096C229.73 62.7834 224.304 61.7426 218.335 61.7426C213.513 61.7426 209.768 62.5077 207.118 64.0378C204.457 65.5857 203.131 68.0321 203.131 71.3948C203.131 73.6899 203.968 75.6381 205.65 77.2216C207.322 78.8051 210.409 80.3174 214.936 81.7675L226.875 85.5213C232.969 87.4256 237.32 90.0763 239.916 93.4207C242.532 96.7928 243.84 100.626 243.84 104.941C243.84 108.509 243.102 111.702 241.616 114.532C240.138 117.369 238.102 119.781 235.486 121.799C232.888 123.819 229.775 125.349 226.137 126.408C222.49 127.476 218.513 127.991 214.198 127.991Z" fill="white"/>
<path fill-rule="evenodd" clip-rule="evenodd" d="M105.978 125.82C104.502 125.82 103.425 125.58 102.731 125.046C102.038 124.504 101.45 123.436 100.961 121.799L81.1944 58.1308C80.7229 56.494 80.4649 55.3997 80.4649 54.8304C80.4649 53.4871 81.1588 52.811 82.5376 52.811H90.7844C92.3592 52.811 93.4615 53.0779 94.1106 53.6117C94.7431 54.1276 95.3033 55.1951 95.7925 56.8498L109.946 111.293L123.085 56.8498C123.477 55.1951 124.011 54.1276 124.696 53.6117C125.38 53.0779 126.51 52.811 128.077 52.811H134.882C136.439 52.811 137.568 53.0779 138.263 53.6117C138.946 54.1276 139.49 55.1951 139.881 56.8498L153.163 112.013L167.753 56.8498C168.242 55.1951 168.802 54.1276 169.443 53.6117C170.092 53.0779 171.186 52.811 172.761 52.811H180.571C181.959 52.811 182.644 53.4871 182.644 54.8304C182.644 55.1951 182.581 55.6399 182.502 56.1114C182.387 56.6096 182.209 57.2768 181.897 58.1308L161.56 121.799C161.071 123.436 160.475 124.504 159.781 125.046C159.096 125.58 158.012 125.82 156.544 125.82H149.31C147.745 125.82 146.615 125.553 145.93 124.985C145.246 124.407 144.702 123.285 144.312 121.666L131.181 68.6459L118.219 121.666C117.828 123.285 117.276 124.407 116.591 124.985C115.898 125.553 114.777 125.82 113.202 125.82H105.978Z" fill="white"/>
<path fill-rule="evenodd" clip-rule="evenodd" d="M38.2978 116.906C41.0645 116.906 43.9557 116.4 47.007 115.394C50.0495 114.381 52.7005 112.636 54.9601 110.128C56.3478 108.598 57.2908 106.845 57.8424 104.87C58.3761 102.913 58.6341 100.537 58.6341 97.745V94.2936C56.1966 93.7154 53.6168 93.2608 50.9035 92.9231C48.1991 92.5936 45.5748 92.4157 43.0127 92.4157C37.4171 92.4157 33.2271 93.5194 30.4872 95.7337C27.7383 97.941 26.3505 101.099 26.3505 105.252C26.3505 109.087 27.3913 111.979 29.4552 113.954C31.5191 115.928 34.4726 116.906 38.2978 116.906ZM72.5119 104.381C72.5119 107.45 72.8232 109.888 73.4637 111.72C74.1131 113.553 75.0205 115.527 76.1948 117.628C76.5862 118.303 76.7819 118.926 76.7819 119.486C76.7819 120.367 76.2393 121.186 75.1629 121.942L69.852 125.412C69.0691 125.883 68.3307 126.132 67.6458 126.132C66.7473 126.132 65.9199 125.749 65.1371 124.985C63.945 123.819 62.9487 122.555 62.1213 121.16C61.2673 119.771 60.4133 118.143 59.5326 116.32C52.9407 123.908 44.6941 127.706 34.7661 127.706C27.6849 127.706 22.0804 125.749 17.9438 121.799C13.825 117.868 11.7611 112.583 11.7611 105.964C11.7611 98.964 14.3142 93.3053 19.4383 89.0352C24.5357 84.7652 31.4301 82.6215 40.0681 82.6215C42.9238 82.6215 45.895 82.8439 48.9908 83.2709C52.0777 83.6976 55.307 84.312 58.6341 85.0765V79.0364C58.6341 72.7914 57.3264 68.3968 54.6665 65.8436C52.0155 63.2994 47.4518 62.0362 40.9666 62.0362C38.0043 62.0362 34.9796 62.3831 31.8838 63.1037C28.7969 63.8243 25.7634 64.7583 22.8188 65.9059C21.4399 66.4842 20.4525 66.8489 19.8742 66.9912C19.2871 67.1336 18.8423 67.2047 18.5487 67.2047C17.3745 67.2047 16.7695 66.3507 16.7695 64.6071V60.5861C16.7695 59.2339 16.983 58.2732 17.3745 57.7127C17.7659 57.1256 18.5487 56.5473 19.7319 55.978C22.6765 54.5279 26.2171 53.2825 30.3359 52.2328C34.4726 51.1741 38.8405 50.6404 43.4664 50.6404C53.4833 50.6404 60.8314 52.8911 65.5018 57.3391C70.1633 61.8049 72.5119 68.548 72.5119 77.5775V104.381Z" fill="white"/>
</svg>
