<svg width="256" height="256" viewBox="0 0 256 256" fill="none" xmlns="http://www.w3.org/2000/svg">
<path d="M75.8744 19.5543C77.4709 14.8237 81.907 11.6389 86.8998 11.6389H160L84.1263 236.452C82.5297 241.182 78.0935 244.366 73.1009 244.366H16.2088C8.24797 244.366 2.63773 236.551 5.18344 229.009L75.8744 19.5543Z" fill="url(#paint0_linear_2115_1897)"/>
<path d="M192.735 162.91H77.529C72.6883 162.91 70.3512 168.839 73.89 172.141L147.918 241.234C150.073 243.245 152.91 244.365 155.857 244.365H221.089L192.735 162.91Z" fill="#0078D4"/>
<path d="M86.8998 11.6389C81.907 11.6389 77.4709 14.8237 75.8744 19.5543L5.18344 229.009C2.63773 236.551 8.24797 244.366 16.2088 244.366H73.1009C78.0935 244.366 82.5297 241.182 84.1263 236.452L98.1798 194.81L147.918 241.233C150.073 243.246 152.91 244.363 155.858 244.363H221.09L192.735 162.908H108.947L160 11.6389H86.8998Z" fill="url(#paint1_linear_2115_1897)"/>
<path d="M180.124 19.5524C178.529 14.822 174.093 11.6371 169.099 11.6371H87.2717H87.6451C92.6376 11.6371 97.074 14.822 98.6704 19.5524L169.361 229.008C171.907 236.55 166.296 244.365 158.336 244.365H157.09H239.791C247.751 244.365 253.362 236.55 250.816 229.008L180.124 19.5524Z" fill="url(#paint2_linear_2115_1897)"/>
<defs>
<linearGradient id="paint0_linear_2115_1897" x1="86.4017" y1="19.6944" x2="10.4985" y2="243.931" gradientUnits="userSpaceOnUse">
<stop stop-color="#114A8B"/>
<stop offset="1" stop-color="#0669BC"/>
</linearGradient>
<linearGradient id="paint1_linear_2115_1897" x1="147.061" y1="162.935" x2="129.522" y2="168.866" gradientUnits="userSpaceOnUse">
<stop stop-opacity="0.3"/>
<stop offset="0.0711768" stop-opacity="0.2"/>
<stop offset="0.321031" stop-opacity="0.1"/>
<stop offset="0.623053" stop-opacity="0.05"/>
<stop offset="1" stop-opacity="0"/>
</linearGradient>
<linearGradient id="paint2_linear_2115_1897" x1="134.522" y1="19.6931" x2="217.839" y2="241.673" gradientUnits="userSpaceOnUse">
<stop stop-color="#3CCBF4"/>
<stop offset="1" stop-color="#2892DF"/>
</linearGradient>
</defs>
</svg>
