<svg width="256" height="256" viewBox="0 0 256 256" fill="none" xmlns="http://www.w3.org/2000/svg">
<g clip-path="url(#clip0_2115_1779)">
<path d="M9.19711 13.0369C8.00244 13.0215 6.81886 13.2678 5.72951 13.7586C4.64013 14.2495 3.67138 14.9728 2.89127 15.878C2.11115 16.7832 1.53858 17.8482 1.21375 18.9983C0.888918 20.1483 0.819704 21.3556 1.01097 22.5352L35.7611 233.546C36.194 236.129 37.5228 238.476 39.5139 240.176C41.505 241.875 44.0311 242.819 46.6486 242.841H213.359C215.321 242.866 217.227 242.185 218.729 240.922C220.232 239.66 221.231 237.9 221.545 235.962L256.296 22.5762C256.487 21.3965 256.417 20.1892 256.093 19.0392C255.768 17.8891 255.195 16.8241 254.415 15.919C253.635 15.0138 252.666 14.2904 251.577 13.7996C250.487 13.3088 249.304 13.0624 248.109 13.0778L9.19711 13.0369ZM155.524 165.543H102.314L87.9068 90.2524H168.417L155.524 165.543Z" fill="#2684FF"/>
<path d="M245.244 90.2525H168.417L155.524 165.543H102.314L39.4855 240.138C41.4769 241.861 44.0158 242.819 46.6483 242.841H213.4C215.362 242.866 217.268 242.185 218.77 240.922C220.273 239.66 221.272 237.9 221.586 235.962L245.244 90.2525Z" fill="url(#paint0_linear_2115_1779)"/>
</g>
<defs>
<linearGradient id="paint0_linear_2115_1779" x1="263.007" y1="111.337" x2="136.016" y2="210.424" gradientUnits="userSpaceOnUse">
<stop offset="0.18" stop-color="#0052CC"/>
<stop offset="1" stop-color="#2684FF"/>
</linearGradient>
<clipPath id="clip0_2115_1779">
<rect width="256" height="256" fill="white"/>
</clipPath>
</defs>
</svg>
