<svg viewBox="0 0 501 450" xmlns="http://www.w3.org/2000/svg">
    <g clip-path="url(#clip0_1917_1001)">
      <path
        d="M17.0206 0.0721333C14.6826 0.0419786 12.3663 0.523969 10.2344 1.48427C8.10245 2.44457 6.20658 3.8599 4.67987 5.63088C3.15316 7.40186 2.03262 9.48557 1.39691 11.7357C0.761211 13.9858 0.625758 16.3479 1.00007 18.6559L69.0071 431.504C69.8544 436.556 72.4548 441.148 76.3515 444.474C80.2481 447.799 85.1919 449.645 90.3144 449.688H416.572C420.412 449.737 424.142 448.405 427.082 445.935C430.023 443.465 431.978 440.021 432.592 436.23L500.6 18.736C500.974 16.428 500.838 14.0659 500.203 11.8158C499.567 9.56568 498.446 7.48197 496.92 5.71098C495.393 3.94 493.497 2.52467 491.365 1.56437C489.233 0.604073 486.917 0.122079 484.579 0.152234L17.0206 0.0721333ZM303.387 298.454H199.254L171.058 151.146H328.619L303.387 298.454Z"
        fill="#2684FF"
      />
      <path
        d="M478.972 151.146H328.619L303.387 298.454H199.254L76.2964 444.401C80.1936 447.771 85.1624 449.645 90.3143 449.688H416.652C420.492 449.737 424.222 448.405 427.162 445.935C430.103 443.465 432.058 440.021 432.673 436.23L478.972 151.146Z"
        fill="url(#paint0_linear_1917_1001)"
      />
    </g>
    <defs>
      <linearGradient
        id="paint0_linear_1917_1001"
        x1="513.736"
        y1="192.398"
        x2="265.258"
        y2="386.327"
        gradientUnits="userSpaceOnUse"
      >
        <stop offset="0.18" stop-color="#0052CC" />
        <stop offset="1" stop-color="#2684FF" />
      </linearGradient>
      <clipPath id="clip0_1917_1001">
        <rect width="501" height="450" fill="white" />
      </clipPath>
    </defs>
  </svg>
