<svg xmlns="http://www.w3.org/2000/svg" width="120" height="120" fill="none" viewBox="0 0 120 120"><g clip-path="url(#clip0_293_450)"><path fill="#DEA66C" d="M58.5288 0.34381L5.96707 27.4409C4.81829 28.1161 4.48575 29.1238 4.49583 30.5849L4.5966 32.4089L60.0907 60.8664L115.454 32.8623C115.454 32.8623 115.514 32.5802 115.514 31.5926C115.514 31.5926 115.464 30.2927 115.172 29.6881C114.849 29.0028 114.164 28.3881 113.721 28.0153C112.542 27.0378 111.363 26.1712 109.357 25.0426C80.6075 8.78835 61.7031 0.414348 61.7031 0.414348C60.4837 -0.0391172 59.476 -0.200349 58.5288 0.34381Z"/><path fill="#B38251" d="M5.32223 92.3671C8.38565 94.3926 13.9784 97.0529 19.6316 100.116C32.772 107.231 49.3789 115.877 57.6421 119.273C58.7606 119.736 59.4257 119.958 60.2017 119.998C60.7761 120.029 61.7233 119.646 61.7233 119.646C61.7233 119.646 60.1815 64.0306 60.0908 60.8563C60.0001 57.7526 58.7002 56.7247 57.5514 55.979C55.7577 54.8302 51.868 53.0365 51.868 53.0365C51.868 53.0365 38.2438 46.2648 24.6399 39.1302C18.1704 35.7343 12.7087 32.2577 6.83378 29.3958C5.75554 28.8819 4.48584 29.5269 4.48584 30.7361V90.9967C4.48584 91.571 4.83854 92.0547 5.32223 92.3671Z"/><path fill="#966239" d="M113.993 92.7198L61.834 119.615C60.9976 120.049 60 119.444 60 118.497L60.0907 60.8765C60.0907 60.3222 59.9194 59.1029 59.7481 58.6192C59.2745 57.2084 60.3023 56.6441 60.7659 56.4123L112.501 29.7687C113.872 29.0633 115.514 30.0609 115.514 31.6027V90.2409C115.514 91.2788 114.93 92.2361 113.993 92.7198Z"/><path fill="#212121" d="M90.6947 43.4231C90.6947 43.4231 62.1062 58.0448 61.6427 59.2843C61.1791 60.5137 84.0741 49.5096 86.7546 48.129C89.7878 46.5671 113.61 33.8297 113.61 32.429C113.62 31.2802 90.6947 43.4231 90.6947 43.4231Z" opacity=".5"/><g opacity=".5"><path fill="#212121" d="M8.41577 89.0316C12.1342 90.906 15.8224 92.8408 20.4175 95.1887C20.4175 94.4732 20.4175 94.1105 20.4175 93.395C15.8425 91.0571 12.1443 89.1324 8.41577 87.2379C8.41577 87.9534 8.41577 88.3162 8.41577 89.0316Z"/><path fill="#212121" d="M16.2456 89.8479C17.2936 90.382 17.8176 90.654 18.8052 91.1579C18.8152 88.034 18.8152 86.4721 18.8253 83.3482C17.8378 82.8443 17.3238 82.5823 16.2859 82.0483C16.2658 85.1721 16.2557 86.724 16.2456 89.8479Z"/><path fill="#212121" d="M9.73584 86.5023C10.6025 86.9457 11.0862 87.1976 12.0737 87.7015C12.0939 84.5877 12.1039 83.0358 12.1241 79.922C11.1265 79.4081 10.6428 79.1662 9.76607 78.7027C9.75599 81.8266 9.74592 83.3885 9.73584 86.5023Z"/><path fill="#212121" d="M14.603 82.1188C16.9913 83.3381 18.261 83.9931 20.3671 85.0613C19.3191 83.1567 18.7447 82.1893 17.5959 80.2344C16.4169 81.0003 15.8022 81.3731 14.603 82.1188Z"/><path fill="#212121" d="M8.41577 78.9445C10.1994 79.8716 11.3986 80.4863 13.7566 81.6956C12.5877 79.7306 12.0032 78.7531 10.9249 76.8284C9.82655 77.6245 9.31263 78.0376 8.41577 78.9445Z"/></g><g opacity=".5"><path fill="#212121" d="M27.5622 97.6475C28.3986 98.0808 28.8319 98.3126 29.6683 98.7459C29.6079 95.0375 29.5776 93.1834 29.5071 89.475C28.7009 89.0518 28.2979 88.8402 27.4917 88.427C27.5219 92.1152 27.532 93.9593 27.5622 97.6475Z"/><path fill="#212121" d="M24.4888 96.9925C27.5522 98.6048 29.9304 99.814 32.8728 101.386C32.8527 100.328 32.0365 99.0482 30.928 98.4536C29.1947 97.5366 28.2072 97.0328 26.4538 96.1158C25.3252 95.5414 24.4888 95.9545 24.4888 96.9925Z"/><path fill="#212121" d="M30.3233 86.5225C30.8373 87.6108 31.0993 88.165 31.6132 89.2533C31.2101 90.1099 30.9985 90.5432 30.5753 91.3897C30.938 91.3594 31.1194 91.3493 31.4822 91.3191C31.9659 90.6742 32.2077 90.3517 32.6713 89.7068C32.2481 88.7092 32.0264 88.2053 31.583 87.2077C32.8124 87.8829 33.417 88.2255 34.5355 88.8805C34.5355 92.488 32.1775 94.0802 28.6304 92.226C25.0833 90.3819 22.7354 86.2605 22.7354 82.6428C25.3755 83.9629 27.1491 84.8295 30.3233 86.5225Z"/></g><path fill="#FFE0B2" d="M97.0231 37.2761C96.5192 36.9032 42.4158 8.63719 42.4158 8.63719L25.6274 17.3135L81.1014 45.9222L81.1316 45.9524L97.3657 37.6388C97.3657 37.6388 97.3355 37.5582 97.2448 37.4575C97.1743 37.397 97.0533 37.3063 97.0231 37.2761Z"/><path fill="#BF9F85" d="M97.285 37.5179C88.0948 42.0425 81.1014 45.9222 81.1014 45.9222C81.3331 46.1539 81.3432 46.4562 81.3432 46.6074C81.313 47.7763 81.2928 48.7034 81.2626 49.8623C81.1215 55.8581 81.0409 61.864 80.8394 67.8598C81.5145 67.4567 82.3308 68.3435 82.9454 67.8598C83.8927 67.1141 85.9081 63.829 86.2104 63.7282C86.6135 63.5972 87.0468 63.698 87.46 63.6779C89.2738 63.5771 93.3349 59.8788 94.2015 59.7075C95.0379 59.5463 97.799 60.0804 97.799 60.0804C97.799 60.0804 97.6075 41.7906 97.537 38.7171C97.5168 37.6288 97.285 37.5179 97.285 37.5179Z"/></g><defs><clipPath id="clip0_293_450"><rect width="120" height="120" fill="#fff"/></clipPath></defs></svg>