<svg width="256" height="256" viewBox="0 0 256 256" fill="none" xmlns="http://www.w3.org/2000/svg">
<path d="M79.7075 66.4673L130.362 117.432L181.017 66.4673L130.362 15.5026L79.7075 66.4673Z" fill="#B4BEC1"/>
<path d="M78.2966 66.4676L130.362 14.0834L182.428 66.4676L130.362 118.852L78.2966 66.4676ZM179.606 66.4669L130.362 16.9218L81.1184 66.4669L130.362 116.012L179.606 66.4669Z" fill="white"/>
<path d="M141.188 127.962L191.843 178.927L242.497 127.962L191.843 76.9974L141.188 127.962Z" fill="#394D54"/>
<path d="M139.777 127.962L191.842 75.5777L243.908 127.963L191.843 180.347L139.777 127.962ZM241.086 127.962L191.843 78.4168L142.599 127.962L191.843 177.507L241.086 127.962Z" fill="white"/>
<path d="M119.939 48.0394H50.7686V116.892H119.939V48.0394Z" fill="#FCE94F"/>
<path d="M209.103 137.839H140.438V207.012H209.103V137.839Z" fill="#B4BEC1"/>
<path d="M68.2258 178.45L119.651 127.806L68.2258 77.1613L16.8004 127.806L68.2258 178.45Z" fill="#4F6A74"/>
<path d="M68.226 179.854L15.3746 127.806L68.226 75.7569L121.077 127.806L68.226 179.854ZM68.2253 78.5657L18.226 127.806L68.2253 177.046L118.225 127.806L68.2253 78.5657Z" fill="white"/>
<path d="M209.611 48.5175H140.715V117.342H209.611V48.5175Z" fill="#4F6A74"/>
<path d="M129.707 239.946L181.133 189.301L129.707 138.657L78.2821 189.301L129.707 239.946Z" fill="#8A9AA0"/>
<path d="M129.708 241.35L76.8563 189.301L129.708 137.253L182.559 189.301L129.708 241.35ZM129.707 140.061L79.7077 189.301L129.707 238.541L179.706 189.301L129.707 140.061Z" fill="white"/>
<path d="M119.939 45.6075H48.2065V116.923H119.939V45.6075Z" fill="#8A9AA0"/>
<path d="M120.94 44.6065V117.923H47.2056V44.6065H120.94ZM49.2075 115.922H118.938V46.6085H49.2075V115.922Z" fill="white"/>
<path d="M212.731 136.838V210.574H139.437V136.838H212.731ZM141.439 208.573H210.73V138.84H141.439V208.573Z" fill="white"/>
<path d="M213.174 45.0259V118.342H139.696V45.0259H213.174ZM141.698 116.341H211.173V47.0279H141.698V116.341Z" fill="white"/>
<path d="M119.942 137.841H48.2124V209.571H119.942V137.841Z" fill="#394D54"/>
<path d="M120.943 136.84V210.572H47.2114V136.84H120.943ZM49.2134 208.57H118.941V138.842H49.2134V208.57Z" fill="white"/>
<path d="M68.226 179.854L15.3746 127.806L68.226 75.7569L121.077 127.806L68.226 179.854ZM68.2253 78.5657L18.226 127.806L68.2253 177.046L118.225 127.806L68.2253 78.5657Z" fill="white"/>
<path d="M78.2952 66.4663L130.361 14.0821L182.427 66.467L130.361 118.851L78.2952 66.4663ZM179.605 66.4663L130.361 16.9212L81.1177 66.4663L130.361 116.011L179.605 66.4663Z" fill="white"/>
<path d="M129.708 241.35L76.8563 189.301L129.708 137.253L182.559 189.301L129.708 241.35ZM129.707 140.061L79.7077 189.301L129.707 238.541L179.706 189.301L129.707 140.061Z" fill="white"/>
<path d="M139.777 127.962L191.843 75.5778L243.908 127.962L191.843 180.346L139.777 127.962ZM241.086 127.961L191.843 78.4162L142.599 127.961L191.843 177.506L241.086 127.961Z" fill="white"/>
</svg>
