<svg xmlns="http://www.w3.org/2000/svg" xmlns:xlink="http://www.w3.org/1999/xlink" id="Layer_1" data-name="Layer 1" viewBox="0 0 128 128" width="128px" height="128px"><defs><linearGradient id="linear-gradient" x1="40.69" x2="83.48" y1="-676.56" y2="-676.56" gradientTransform="matrix(1, 0, 0, -1, 0, -648.86)" gradientUnits="userSpaceOnUse"><stop offset="0" stop-color="#ed358c"/><stop offset=".16" stop-color="#e9388c"/><stop offset=".3" stop-color="#de418c"/><stop offset=".43" stop-color="#cc508c"/><stop offset=".57" stop-color="#b2658d"/><stop offset=".7" stop-color="#90808d"/><stop offset=".83" stop-color="#67a18e"/><stop offset=".95" stop-color="#37c78f"/><stop offset="1" stop-color="#22d88f"/></linearGradient><linearGradient id="linear-gradient-2" x1="32.58" x2="13.76" y1="-665.27" y2="-791.59" gradientTransform="matrix(1, 0, 0, -1, 0, -648.86)" gradientUnits="userSpaceOnUse"><stop offset=".09" stop-color="#22d88f"/><stop offset=".9" stop-color="#029de0"/></linearGradient><linearGradient id="linear-gradient-3" x1="116.68" x2="-12.09" y1="-660.66" y2="-796.66" xlink:href="#linear-gradient-2"/><linearGradient id="linear-gradient-4" x1="73.35" x2="122.29" y1="-739.1" y2="-746.06" xlink:href="#linear-gradient-2"/></defs><title>icon_CLion</title><g><polygon fill="url(#linear-gradient)" points="49.2 51.8 40.6 55.4 48.4 0 77.8 16.2 49.2 51.8"/><polygon fill="url(#linear-gradient-2)" points="44.6 76.8 48.8 0 11.8 23.2 0 94 44.6 76.8"/><polygon fill="url(#linear-gradient-3)" points="125.4 38.4 109 4.8 77.8 16.2 55 41.4 0 94 41.6 124.4 93.6 77.2 125.4 38.4"/><polygon fill="url(#linear-gradient-4)" points="53.8 54.6 46.6 98.4 75.8 121 107.8 128 128 82.4 53.8 54.6"/></g><g><rect width="80" height="80" x="24" y="24"/><rect width="30" height="5" x="31.6" y="89" fill="#fff"/><path fill="#fff" d="M31,51.2h0A16.83,16.83,0,0,1,48.2,34c6.2,0,10,2,13,5.2l-4.6,5.4c-2.6-2.4-5.2-3.8-8.4-3.8-5.6,0-9.6,4.6-9.6,10.4h0c0,5.6,4,10.4,9.6,10.4,3.8,0,6.2-1.6,8.8-3.8l4.6,4.6c-3.4,3.6-7.2,6-13.6,6A17,17,0,0,1,31,51.2"/><path fill="#fff" d="M66.6,34.4H74v27H88.4v6.2H66.6V34.4Z"/></g></svg>
