<svg width="16" height="16" viewBox="0 0 16 16" fill="none" xmlns="http://www.w3.org/2000/svg">
<path d="M5.8667 6.3332L6.20003 0.533203L9.60003 2.39987L5.8667 6.3332Z" fill="url(#paint0_linear)"/>
<path d="M5.8667 6.3332L6.0667 2.73321L9.60003 2.39987L5.8667 6.3332Z" fill="url(#paint1_linear)"/>
<path d="M5.86672 6.3332L6.06672 2.79987L6.20005 0.533203L1.86672 3.19987L0.533386 11.5332L5.86672 6.3332Z" fill="#00FF6A"/>
<path d="M5.8667 6.3332L6.0667 2.7332L1.8667 3.19987L3.40003 8.79987L5.8667 6.3332Z" fill="url(#paint2_linear)"/>
<path d="M5.8667 6.3332L6.20003 0.533203L1.8667 3.19987L3.40003 8.79987L5.8667 6.3332Z" fill="url(#paint3_linear)"/>
<path d="M5.8667 6.19987L5.60004 11.5999L9.40004 14.6665L13.1334 15.4665L15.4667 10.1332L5.8667 6.19987Z" fill="url(#paint4_linear)"/>
<path d="M12.0001 9.99987L8.66675 7.9332L9.06675 7.5332L15.4667 10.1332L12.0001 9.99987Z" fill="url(#paint5_linear)"/>
<path d="M12 9.99988L9.40002 14.6665L13.1334 15.4665L15.4667 10.1332L12 9.99988Z" fill="url(#paint6_linear)"/>
<path d="M5.73337 8.13321L5.60004 11.5999L9.40004 14.6665L5.73337 8.13321Z" fill="url(#paint7_linear)"/>
<path d="M5.8667 8.39987L13.1334 15.4665L9.40003 14.6665L5.8667 8.39987Z" fill="url(#paint8_linear)"/>
<path d="M5.8667 8.39987L13.1334 15.4665L9.40003 14.6665L5.8667 8.39987Z" fill="url(#paint9_linear)"/>
<path d="M0.533386 11.5332L5.86672 6.33321L1.86672 3.19987L0.533386 11.5332Z" fill="url(#paint10_linear)"/>
<path d="M0.533386 11.5332L4.46672 7.53321L1.86672 3.19987L0.533386 11.5332Z" fill="url(#paint11_linear)"/>
<path d="M15.4667 5.66654L13.2667 1.06654L9.60005 2.39988L0.533386 11.5332L5.33339 15.0665L15.4667 5.66654Z" fill="url(#paint12_linear)"/>
<path d="M5.80004 8.39987L5.60004 11.5999L7.4667 13.1332L8.13337 12.4665L5.80004 8.39987Z" fill="url(#paint13_linear)"/>
<path d="M0.533386 11.5332L5.80005 8.39987L5.33339 15.0665L0.533386 11.5332Z" fill="url(#paint14_linear)"/>
<path d="M0.533386 11.5332L5.80005 8.39987L5.33339 15.0665L0.533386 11.5332Z" fill="url(#paint15_linear)"/>
<path d="M3.26672 9.86654L5.80006 8.39987L5.60006 11.5332L3.26672 9.86654Z" fill="url(#paint16_linear)"/>
<path d="M0.533386 11.5332L5.80005 8.39988L13.2667 1.06654L9.60005 2.39988L0.533386 11.5332Z" fill="url(#paint17_linear)"/>
<path d="M0.533386 11.5332L5.73339 8.39988L13.2667 1.06654L9.60005 2.39988L0.533386 11.5332Z" fill="url(#paint18_linear)"/>
<path d="M11.0667 3.19988L13.2667 1.06654L9.60004 2.39988L11.0667 3.19988Z" fill="url(#paint19_linear)"/>
<path d="M15.4667 5.59987L7.46672 13.0665L4.53339 7.53321L9.60005 2.39987L15.4667 5.59987Z" fill="url(#paint20_linear)"/>
<path d="M12.0667 8.73321L5.8667 6.19987L11.2667 9.53321L12.0667 8.73321Z" fill="url(#paint21_linear)"/>
<path d="M11.0667 3.19987L5.80005 8.39987L0.533386 11.5332L4.53339 7.53321L9.60005 2.39987L11.0667 3.19987Z" fill="url(#paint22_linear)"/>
<path d="M11.1334 3.19987L5.80005 8.39987L0.533386 11.5332L4.53339 7.53321L9.60005 2.39987L11.1334 3.19987Z" fill="url(#paint23_linear)"/>
<path d="M11.1334 3.06654L13.2667 1.06654L15.4667 5.66654L11.1334 3.06654Z" fill="url(#paint24_linear)"/>
<path d="M5.93341 6.1332L8.33341 7.3332L9.60008 2.39987L5.93341 6.1332Z" fill="url(#paint25_linear)"/>
<path d="M9.60008 2.39987L6.20008 0.533203L5.93341 6.1332L9.60008 2.39987Z" fill="url(#paint26_linear)"/>
<path d="M12.6666 3.33333H3.33331V12.6667H12.6666V3.33333Z" fill="url(#paint27_linear)"/>
<path d="M8.66663 10.6667H4.66663V11.3333H8.66663V10.6667Z" fill="white"/>
<path d="M8.67511 4.67523H9.57693V7.90675H11.3054V8.65826H8.67511V4.67523Z" fill="white"/>
<path d="M4.46661 6.70425C4.46661 5.57698 5.29328 4.60001 6.57086 4.60001C7.32237 4.60001 7.77328 4.82546 8.14904 5.20122L7.54783 5.87758C7.24722 5.65213 6.94661 5.42667 6.4957 5.42667C5.81934 5.42667 5.36843 5.95273 5.36843 6.6291C5.36843 7.30546 5.81934 7.90667 6.4957 7.90667C6.94661 7.90667 7.24722 7.75637 7.54783 7.45576L8.07389 7.98182C7.69813 8.50788 7.24722 8.73334 6.4957 8.73334C5.29328 8.73334 4.46661 7.83152 4.46661 6.70425Z" fill="white"/>
<defs>
<linearGradient id="paint0_linear" x1="5.8917" y1="3.4326" x2="10.1894" y2="3.4326" gradientUnits="userSpaceOnUse">
<stop stop-color="#FF318C"/>
<stop offset="0.149" stop-color="#FB348C"/>
<stop offset="0.2849" stop-color="#F03C8C"/>
<stop offset="0.4157" stop-color="#DE4A8C"/>
<stop offset="0.5434" stop-color="#C45D8B"/>
<stop offset="0.6689" stop-color="#A2778B"/>
<stop offset="0.7926" stop-color="#79958A"/>
<stop offset="0.9128" stop-color="#49B98A"/>
<stop offset="1" stop-color="#21D789"/>
</linearGradient>
<linearGradient id="paint1_linear" x1="5.37977" y1="4.78727" x2="11.35" y2="2.45667" gradientUnits="userSpaceOnUse">
<stop offset="0.1069" stop-color="#FF318C"/>
<stop offset="0.2181" stop-color="#FB338C"/>
<stop offset="0.3194" stop-color="#F0388E"/>
<stop offset="0.4168" stop-color="#DE4190"/>
<stop offset="0.5114" stop-color="#C44E93"/>
<stop offset="0.6008" stop-color="#A45E97"/>
<stop offset="0.6375" stop-color="#976A96"/>
<stop offset="0.7051" stop-color="#758992"/>
<stop offset="0.7956" stop-color="#3FBC8C"/>
<stop offset="0.8402" stop-color="#21D789"/>
</linearGradient>
<linearGradient id="paint2_linear" x1="5.36117" y1="2.15187" x2="2.09697" y2="8.0164" gradientUnits="userSpaceOnUse">
<stop offset="0.0294109" stop-color="#00FF6A"/>
<stop offset="0.375" stop-color="#21D789"/>
<stop offset="0.9032" stop-color="#009AE5"/>
</linearGradient>
<linearGradient id="paint3_linear" x1="6.15857" y1="4.51627" x2="3.98757" y2="4.70787" gradientUnits="userSpaceOnUse">
<stop offset="0.0294109" stop-color="#A6FF9E"/>
<stop offset="0.6015" stop-color="#21D789" stop-opacity="0"/>
</linearGradient>
<linearGradient id="paint4_linear" x1="8.53824" y1="10.7273" x2="15.5031" y2="11.7176" gradientUnits="userSpaceOnUse">
<stop offset="0.3444" stop-color="#21D789"/>
<stop offset="0.8032" stop-color="#009AE5"/>
<stop offset="0.9931" stop-color="#0855FA"/>
</linearGradient>
<linearGradient id="paint5_linear" x1="8.91288" y1="10.6805" x2="14.2855" y2="7.712" gradientUnits="userSpaceOnUse">
<stop offset="0.0962983" stop-color="#00FF6A"/>
<stop offset="0.9654" stop-color="#00FF6A" stop-opacity="0"/>
</linearGradient>
<linearGradient id="paint6_linear" x1="7.84902" y1="15.3413" x2="16.063" y2="10.8028" gradientUnits="userSpaceOnUse">
<stop stop-color="#42FFFA" stop-opacity="0.5"/>
<stop offset="0.9989" stop-color="#00FF6A" stop-opacity="0"/>
</linearGradient>
<linearGradient id="paint7_linear" x1="10.0914" y1="11.8543" x2="7.1967" y2="11.3435" gradientUnits="userSpaceOnUse">
<stop offset="0.0521494" stop-color="#00FF6A"/>
<stop offset="1" stop-color="#009AE5"/>
</linearGradient>
<linearGradient id="paint8_linear" x1="15.5788" y1="12.5309" x2="6.25017" y2="11.6576" gradientUnits="userSpaceOnUse">
<stop offset="0.1212" stop-color="#21D789" stop-opacity="0"/>
<stop offset="0.7868" stop-color="#00FF6A"/>
</linearGradient>
<linearGradient id="paint9_linear" x1="10.4022" y1="11.2331" x2="8.4591" y2="12.8073" gradientUnits="userSpaceOnUse">
<stop offset="0.0962983" stop-color="#42FFFA"/>
<stop offset="0.9654" stop-color="#42FFFA" stop-opacity="0"/>
</linearGradient>
<linearGradient id="paint10_linear" x1="4.71385" y1="2.99707" x2="0.238587" y2="12.7612" gradientUnits="userSpaceOnUse">
<stop offset="0.0913979" stop-color="#00FF6A"/>
<stop offset="0.759" stop-color="#009AE5"/>
</linearGradient>
<linearGradient id="paint11_linear" x1="1.28852" y1="5.23621" x2="2.90612" y2="11.0681" gradientUnits="userSpaceOnUse">
<stop offset="0.1163" stop-color="#21D789" stop-opacity="0.6"/>
<stop offset="1" stop-color="#009AE5"/>
</linearGradient>
<linearGradient id="paint12_linear" x1="14.275" y1="1.98168" x2="-0.81488" y2="17.9187" gradientUnits="userSpaceOnUse">
<stop offset="0.0913979" stop-color="#21D789"/>
<stop offset="0.9032" stop-color="#009AE5"/>
</linearGradient>
<linearGradient id="paint13_linear" x1="8.15884" y1="14.8239" x2="5.3095" y2="8.65034" gradientUnits="userSpaceOnUse">
<stop offset="0.00994756" stop-color="#009AE5"/>
<stop offset="0.9654" stop-color="#009AE5" stop-opacity="0"/>
</linearGradient>
<linearGradient id="paint14_linear" x1="0.500053" y1="11.7257" x2="5.77959" y2="11.7257" gradientUnits="userSpaceOnUse">
<stop offset="0.0556783" stop-color="#009AE5" stop-opacity="0.4"/>
<stop offset="0.7897" stop-color="#009AE5"/>
</linearGradient>
<linearGradient id="paint15_linear" x1="1.40479" y1="8.49934" x2="5.10825" y2="11.6069" gradientUnits="userSpaceOnUse">
<stop offset="0.1196" stop-color="#42FFFA"/>
<stop offset="0.6743" stop-color="#42FFFA" stop-opacity="0"/>
</linearGradient>
<linearGradient id="paint16_linear" x1="3.29812" y1="9.96827" x2="5.77959" y2="9.96827" gradientUnits="userSpaceOnUse">
<stop offset="0.0556783" stop-color="#009AE5" stop-opacity="0.4"/>
<stop offset="1" stop-color="#087CFA"/>
</linearGradient>
<linearGradient id="paint17_linear" x1="3.04339" y1="11.0129" x2="12.4905" y2="-0.573989" gradientUnits="userSpaceOnUse">
<stop stop-color="#0697DC"/>
<stop offset="0.9032" stop-color="#00FF6A"/>
</linearGradient>
<linearGradient id="paint18_linear" x1="8.77999" y1="7.75521" x2="7.03472" y2="6.41434" gradientUnits="userSpaceOnUse">
<stop offset="0.0962983" stop-color="#6EFFA3"/>
<stop offset="0.6015" stop-color="#21D789" stop-opacity="0"/>
</linearGradient>
<linearGradient id="paint19_linear" x1="12.809" y1="2.44808" x2="10.3826" y2="1.25614" gradientUnits="userSpaceOnUse">
<stop offset="0.0962983" stop-color="#6EFFA3"/>
<stop offset="0.9654" stop-color="#FCF84A" stop-opacity="0"/>
</linearGradient>
<linearGradient id="paint20_linear" x1="14.5102" y1="12.2268" x2="4.54912" y2="2.7766" gradientUnits="userSpaceOnUse">
<stop offset="0.5747" stop-color="#0CAFA3" stop-opacity="0.1365"/>
<stop offset="1" stop-color="#07C3F2" stop-opacity="0.88"/>
</linearGradient>
<linearGradient id="paint21_linear" x1="4.4617" y1="5.76961" x2="12.5468" y2="9.55294" gradientUnits="userSpaceOnUse">
<stop offset="0.4862" stop-color="#087CFA" stop-opacity="0"/>
<stop offset="1" stop-color="#21D789"/>
</linearGradient>
<linearGradient id="paint22_linear" x1="7.46685" y1="8.71134" x2="6.02299" y2="7.5476" gradientUnits="userSpaceOnUse">
<stop offset="0.311" stop-color="#65FFC5" stop-opacity="0.88"/>
<stop offset="0.4437" stop-color="#56F2BE" stop-opacity="0.6801"/>
<stop offset="0.6983" stop-color="#2FD0AD" stop-opacity="0.2969"/>
<stop offset="0.8955" stop-color="#0CB29E" stop-opacity="0"/>
</linearGradient>
<linearGradient id="paint23_linear" x1="6.82119" y1="9.21721" x2="4.69279" y2="5.25841" gradientUnits="userSpaceOnUse">
<stop offset="0.0962983" stop-color="#42FFFA"/>
<stop offset="0.6336" stop-color="#42FFFA" stop-opacity="0"/>
</linearGradient>
<linearGradient id="paint24_linear" x1="16.5202" y1="4.42981" x2="11.9511" y2="2.18528" gradientUnits="userSpaceOnUse">
<stop offset="0.1514" stop-color="#00865B"/>
<stop offset="0.2496" stop-color="#048D64" stop-opacity="0.8794"/>
<stop offset="0.412" stop-color="#0EA07D" stop-opacity="0.6799"/>
<stop offset="0.6187" stop-color="#1FBFA6" stop-opacity="0.426"/>
<stop offset="0.8591" stop-color="#37EADF" stop-opacity="0.1306"/>
<stop offset="0.9654" stop-color="#42FFFA" stop-opacity="0"/>
</linearGradient>
<linearGradient id="paint25_linear" x1="14.2166" y1="1.30521" x2="5.21335" y2="7.43501" gradientUnits="userSpaceOnUse">
<stop offset="0.1446" stop-color="#FF67AA"/>
<stop offset="0.2328" stop-color="#FB69A9" stop-opacity="0.8603"/>
<stop offset="0.3132" stop-color="#F06FA6" stop-opacity="0.7328"/>
<stop offset="0.3907" stop-color="#DE7AA2" stop-opacity="0.6101"/>
<stop offset="0.4663" stop-color="#C48A9B" stop-opacity="0.4903"/>
<stop offset="0.5406" stop-color="#A29E93" stop-opacity="0.3725"/>
<stop offset="0.6139" stop-color="#79B788" stop-opacity="0.2564"/>
<stop offset="0.6864" stop-color="#48D47C" stop-opacity="0.1415"/>
<stop offset="0.7565" stop-color="#10F56E" stop-opacity="0.0303353"/>
<stop offset="0.7757" stop-color="#00FF6A" stop-opacity="0"/>
</linearGradient>
<linearGradient id="paint26_linear" x1="4.89261" y1="3.1688" x2="8.24488" y2="3.58387" gradientUnits="userSpaceOnUse">
<stop offset="0.2258" stop-color="#FF52A0"/>
<stop offset="0.4026" stop-color="#FF4E9E" stop-opacity="0.6404"/>
<stop offset="0.5635" stop-color="#FF4397" stop-opacity="0.3132"/>
<stop offset="0.7175" stop-color="#FF318C" stop-opacity="0"/>
</linearGradient>
<linearGradient id="paint27_linear" x1="3.21592" y1="3.35583" x2="12.4964" y2="12.3649" gradientUnits="userSpaceOnUse">
<stop stop-color="#007859"/>
<stop offset="0.0882966" stop-color="#00533E"/>
<stop offset="0.1921" stop-color="#002F23"/>
<stop offset="0.2894" stop-color="#001510"/>
<stop offset="0.3766" stop-color="#000604"/>
<stop offset="0.4452"/>
<stop offset="0.9138"/>
</linearGradient>
</defs>
</svg>
