<svg width="256" height="256" viewBox="0 0 256 256" fill="none" xmlns="http://www.w3.org/2000/svg">
<g clip-path="url(#clip0_2115_1805)">
<path d="M256 239.702V103.829C256 97.3124 252.116 91.422 246.128 88.8552L96.1652 24.5829C94.138 23.7148 91.9528 23.2656 89.7468 23.2656H16.2909C7.29368 23.2656 0 30.5593 0 39.5565V111.42C0 114.639 0.95418 117.786 2.74153 120.464L88.3548 248.739C91.3756 253.268 96.4608 255.986 101.904 255.986L239.709 255.993C248.706 255.993 256 248.699 256 239.702Z" fill="url(#paint0_linear_2115_1805)"/>
<path d="M232.727 58.0772V16.2909C232.727 7.29368 225.434 0 216.436 0H164.066C163.296 0 162.525 0.055856 161.762 0.162908L13.9869 21.2736C5.96016 22.4186 0 29.2934 0 37.3993V100.091C0 109.091 7.296 116.384 16.2956 116.382L90.4496 116.364C92.1996 116.364 93.938 116.082 95.5972 115.528L221.589 73.53C228.24 71.3124 232.727 65.0892 232.727 58.0772Z" fill="url(#paint1_linear_2115_1805)"/>
<path d="M232.726 63.7904L232.719 16.2886C232.719 7.29368 225.425 0 216.428 0H170.401C165.647 0 161.127 2.07826 158.032 5.68784L27.1949 158.334C24.6652 161.287 23.2734 165.048 23.2734 168.937V216.439C23.2734 225.436 30.5671 232.73 39.5644 232.73H85.5976C90.3524 232.73 94.872 230.651 97.9672 227.042L228.804 74.396C231.336 71.4428 232.726 67.6816 232.726 63.7904Z" fill="#FF318C"/>
<path d="M208 48H48V208H208V48Z" fill="black"/>
<path d="M80.1885 124.644C84.8261 127.316 90.0033 128.656 95.7197 128.656V128.651C100.554 128.651 104.993 127.755 109.032 125.963C113.07 124.171 116.426 121.67 119.1 118.454C121.802 115.211 123.61 111.499 124.52 107.318H112.316C111.518 109.478 110.326 111.387 108.732 113.035C107.166 114.658 105.276 115.91 103.057 116.79C100.84 117.67 98.4217 118.114 95.8045 118.114C92.2777 118.114 89.0913 117.234 86.2477 115.469C83.4021 113.705 81.1689 111.289 79.5485 108.217C77.9553 105.12 77.1597 101.632 77.1597 97.764C77.1597 93.8968 77.9553 90.4248 79.5485 87.3528C81.1713 84.2532 83.4045 81.8212 86.2477 80.0568C89.0913 78.292 92.2777 77.412 95.8045 77.412C98.4193 77.412 100.838 77.8556 103.057 78.7356C105.276 79.6156 107.166 80.884 108.732 82.532C110.326 84.1548 111.518 86.0476 112.316 88.2076H124.52C123.608 84.0272 121.802 80.3312 119.1 77.1152C116.426 73.8716 113.07 71.3552 109.032 69.5632C104.993 67.7712 100.554 66.8752 95.7197 66.8752C90.0009 66.8752 84.8237 68.2236 80.1885 70.9276C75.5505 73.5996 71.9097 77.3 69.2649 82.02C66.6205 86.7128 65.2969 91.9608 65.2969 97.764C65.2969 103.568 66.6205 108.832 69.2649 113.552C71.9117 118.244 75.5529 121.94 80.1885 124.644Z" fill="white"/>
<path d="M144.499 117.133V67.8968H132.894V127.629H172.83V117.133H144.499Z" fill="white"/>
<path d="M67.9763 175.995H131.976V187.995H67.9763V175.995Z" fill="white"/>
</g>
<defs>
<linearGradient id="paint0_linear_2115_1805" x1="15.9255" y1="16.8819" x2="250.747" y2="251.702" gradientUnits="userSpaceOnUse">
<stop offset="0.29" stop-color="#009AE5"/>
<stop offset="0.7" stop-color="#00D980"/>
</linearGradient>
<linearGradient id="paint1_linear_2115_1805" x1="225.515" y1="-2.86953" x2="11.0103" y2="96.582" gradientUnits="userSpaceOnUse">
<stop offset="0.3" stop-color="#FF318C"/>
<stop offset="0.54" stop-color="#009AE5"/>
</linearGradient>
<clipPath id="clip0_2115_1805">
<rect width="256" height="256" fill="white"/>
</clipPath>
</defs>
</svg>
