<svg xmlns="http://www.w3.org/2000/svg" width="64" height="64" fill="none" viewBox="0 0 64 64">
  <defs>
    <linearGradient id="a" x1="3.98138" x2="62.6868" y1="4.22048" y2="62.9254" gradientUnits="userSpaceOnUse">
      <stop offset=".29" stop-color="#009AE5"/>
      <stop offset=".7" stop-color="#00D980"/>
    </linearGradient>
    <linearGradient id="b" x1="56.3788" x2="2.75258" y1="-.71738" y2="24.1455" gradientUnits="userSpaceOnUse">
      <stop offset=".3" stop-color="#FF318C"/>
      <stop offset=".54" stop-color="#009AE5"/>
    </linearGradient>
  </defs>
  <path fill="url(#a)" d="M64 59.9255V25.9572c0-1.6291-.9711-3.1017-2.4681-3.7434L24.0413 6.14572c-.5068-.21702-1.0531-.32931-1.6046-.32931H4.07273C1.82342 5.81641 0 7.63982 0 9.88913V27.8551c0 .8047.238545 1.5913.685382 2.2609L22.0887 62.1847c.7552 1.1322 2.0265 1.8118 3.3874 1.8118l34.4512.0017c2.2493 0 4.0727-1.8234 4.0727-4.0727Z"/>
  <path fill="url(#b)" d="M58.1818 14.5193V4.07273C58.1818 1.82342 56.3584 0 54.1091 0H41.0164c-.1925 0-.3851.013964-.576.040727L3.49673 5.3184C1.49004 5.60465 0 7.32334 0 9.34982V25.0228c0 2.2499 1.824 4.0733 4.07389 4.0728l18.53851-.0047c.4375 0 .8721-.0704 1.2869-.2089l31.4979-10.4995c1.6629-.5544 2.7846-2.1108 2.7846-3.8638v.0006Z"/>
  <path fill="#FF318C" d="m58.1814 15.9476-.0017-11.87545C58.1797 1.82342 56.3562 0 54.1069 0H42.6003c-1.1886 0-2.3185.519564-3.0923 1.42196L6.79872 39.5834c-.63243.7383-.98036 1.6786-.98036 2.6508v11.8755c0 2.2493 1.82342 4.0727 4.07273 4.0727H21.3994c1.1887 0 2.3186-.5196 3.0924-1.422L57.201 18.599c.6331-.7383.9804-1.6786.9804-2.6514Z"/>
  <path fill="#000" d="M52 12H12v40h40V12Z"/>
  <path fill="#fff" d="M20.0471 31.161c1.1594.668 2.4537 1.0029 3.8828 1.0029v-.0011c1.2086 0 2.3183-.2241 3.328-.6721 1.0097-.448 1.8486-1.0731 2.5172-1.8771.6754-.8108 1.1274-1.7388 1.3548-2.784h-3.0508c-.1995.54-.4977 1.0172-.896 1.4292-.3915.4057-.864.7188-1.4189.9388-.5543.22-1.1588.3309-1.8131.3309-.8817 0-1.6783-.22-2.3892-.6612-.7114-.4411-1.2697-1.0451-1.6748-1.8131-.3983-.7743-.5972-1.6463-.5972-2.6132 0-.9668.1989-1.8348.5972-2.6028.4057-.7749.964-1.3829 1.6748-1.824.7109-.4412 1.5075-.6612 2.3892-.6612.6537 0 1.2583.1109 1.8131.3309.5549.22 1.0274.5371 1.4189.9491.3983.4057.6965.8789.896 1.4189h3.0508c-.228-1.0451-.6794-1.9691-1.3548-2.7731-.6686-.8109-1.5075-1.44-2.5172-1.888-1.0097-.448-2.1194-.672-3.328-.672-1.4297 0-2.724.3371-3.8828 1.0131-1.1595.668-2.0697 1.5931-2.7309 2.7731-.6611 1.1732-.992 2.4852-.992 3.936 0 1.4509.3309 2.7669.992 3.9469.6617 1.1731 1.572 2.0971 2.7309 2.7731Z"/>
  <path fill="#fff" d="M36.1248 29.2833V16.9742h-2.9012v14.9331h9.984v-2.624h-7.0828Z"/>
  <path fill="#fff" d="M16.9941 43.9988h16v3h-16v-3Z"/>
</svg>
