<svg width="256" height="256" viewBox="0 0 256 256" fill="none" xmlns="http://www.w3.org/2000/svg">
<rect width="256" height="256" fill="white"/>
<g clip-path="url(#clip0_2_129)">
<path d="M188.97 122.629C210.172 122.629 227.359 139.944 227.359 161.304C227.359 165.111 226.813 168.791 225.795 172.266C225.522 173.2 224.657 173.816 223.691 173.816H170.282C169.49 173.816 168.944 173.016 169.228 172.271L170.249 169.593C173.51 161.001 182.814 153.961 191.421 153.549L207.738 152.707C208.61 152.662 209.294 151.937 209.294 151.058C209.294 150.183 208.617 149.459 207.75 149.408L192.428 148.5C184.191 148.078 180.167 140.737 182.382 133.087L184.932 124.284C185.191 123.388 185.967 122.736 186.891 122.686C187.579 122.648 188.273 122.629 188.97 122.629Z" fill="#FF9910"/>
<path d="M135.903 82.8164C158.012 82.8164 176.583 98.0587 181.836 118.681C182.056 119.547 181.987 120.461 181.672 121.297L177.466 132.452C174.205 141.045 165.824 148.496 156.341 148.496L83.2988 149.341C82.4173 149.352 81.708 150.075 81.7077 150.963C81.7077 151.85 82.4159 152.574 83.2966 152.586L155.311 153.544C163.566 153.544 167.572 161.307 165.358 168.958L164.428 172.177C164.148 173.148 163.265 173.816 162.26 173.816H30.9189C29.7953 173.816 28.8338 172.985 28.7438 171.856C28.6757 171.002 28.641 170.138 28.641 169.266C28.641 152.655 41.2644 139.015 57.3741 137.549C57.0435 136.041 56.868 134.474 56.868 132.866C56.868 120.93 66.4726 111.254 78.3205 111.254C83.0357 111.254 87.3951 112.787 90.9353 115.385C97.2401 96.4551 114.991 82.8164 135.903 82.8164Z" fill="#FF5F08"/>
</g>
<defs>
<clipPath id="clip0_2_129">
<rect width="200" height="91" fill="white" transform="translate(28 82.8164)"/>
</clipPath>
</defs>
</svg>
