<svg width="256" height="256" viewBox="0 0 256 256" fill="none" xmlns="http://www.w3.org/2000/svg">
<g clip-path="url(#clip0_2115_1915)">
<mask id="mask0_2115_1915" style="mask-type:alpha" maskUnits="userSpaceOnUse" x="0" y="0" width="256" height="256">
<path fill-rule="evenodd" clip-rule="evenodd" d="M181.534 254.252C185.566 255.823 190.164 255.722 194.234 253.764L246.94 228.402C252.478 225.737 256 220.132 256 213.983V42.018C256 35.8689 252.478 30.2638 246.94 27.5988L194.234 2.23681C188.893 -0.333132 182.642 0.296344 177.955 3.70419C177.285 4.191 176.647 4.73454 176.049 5.33353L75.1491 97.3862L31.1992 64.0246C27.1078 60.919 21.3853 61.1735 17.5855 64.63L3.48936 77.4525C-1.15853 81.6804 -1.16386 88.9925 3.47784 93.2275L41.5926 128L3.47784 162.773C-1.16386 167.008 -1.15853 174.32 3.48936 178.548L17.5855 191.371C21.3853 194.827 27.1078 195.081 31.1992 191.976L75.1491 158.614L176.049 250.667C177.645 252.264 179.519 253.467 181.534 254.252ZM192.039 69.8852L115.479 128L192.039 186.115V69.8852Z" fill="white"/>
</mask>
<g mask="url(#mask0_2115_1915)">
<path d="M246.941 27.6383L194.194 2.24141C188.088 -0.698271 180.792 0.541751 176 5.33335L3.32436 162.773C-1.32017 167.008 -1.31483 174.32 3.33588 178.548L17.4406 191.37C21.2427 194.827 26.9688 195.081 31.0625 191.976L239.004 34.227C245.98 28.9347 256 33.9103 256 42.6668V42.0544C256 35.9079 252.479 30.3048 246.941 27.6383Z" fill="#0065A9"/>
<g filter="url(#filter0_d_2115_1915)">
<path d="M246.941 228.362L194.194 253.759C188.088 256.699 180.792 255.458 176 250.667L3.32436 93.2273C-1.32017 88.9925 -1.31483 81.6801 3.33588 77.4523L17.4406 64.6298C21.2427 61.1732 26.9688 60.9188 31.0625 64.0243L239.004 221.773C245.98 227.065 256 222.09 256 213.333V213.946C256 220.092 252.479 225.695 246.941 228.362Z" fill="#007ACC"/>
</g>
<g filter="url(#filter1_d_2115_1915)">
<path d="M194.196 253.763C188.089 256.701 180.792 255.459 176 250.667C181.904 256.571 192 252.389 192 244.039V11.9607C192 3.61061 181.904 -0.571143 176 5.33323C180.792 0.541198 188.089 -0.700577 194.196 2.23651L246.934 27.5986C252.476 30.2636 256 35.8687 256 42.0178V213.983C256 220.132 252.476 225.737 246.934 228.402L194.196 253.763Z" fill="#1F9CF0"/>
</g>
<g style="mix-blend-mode:overlay" opacity="0.25">
<path fill-rule="evenodd" clip-rule="evenodd" d="M181.379 254.252C185.411 255.822 190.009 255.722 194.078 253.764L246.784 228.402C252.322 225.737 255.844 220.132 255.844 213.983V42.018C255.844 35.8686 252.323 30.2635 246.784 27.5985L194.078 2.23657C188.737 -0.333374 182.487 0.296101 177.799 3.70392C177.129 4.19076 176.492 4.7343 175.893 5.33329L74.9934 97.3859L31.0436 64.0245C26.9524 60.9187 21.2297 61.1734 17.4299 64.6297L3.33376 77.4522C-1.31413 81.6803 -1.31946 88.9924 3.32224 93.2272L41.4369 128L3.32224 162.773C-1.31946 167.008 -1.31413 174.32 3.33376 178.548L17.4299 191.37C21.2297 194.827 26.9524 195.081 31.0436 191.976L74.9934 158.614L175.893 250.667C177.489 252.264 179.363 253.467 181.379 254.252ZM191.883 69.8851L115.324 128L191.883 186.115V69.8851Z" fill="url(#paint0_linear_2115_1915)"/>
</g>
</g>
</g>
<defs>
<filter id="filter0_d_2115_1915" x="-8.48894" y="53.5224" width="272.822" height="210.149" filterUnits="userSpaceOnUse" color-interpolation-filters="sRGB">
<feFlood flood-opacity="0" result="BackgroundImageFix"/>
<feColorMatrix in="SourceAlpha" type="matrix" values="0 0 0 0 0 0 0 0 0 0 0 0 0 0 0 0 0 0 127 0" result="hardAlpha"/>
<feOffset/>
<feGaussianBlur stdDeviation="4.16667"/>
<feColorMatrix type="matrix" values="0 0 0 0 0 0 0 0 0 0 0 0 0 0 0 0 0 0 0.25 0"/>
<feBlend mode="overlay" in2="BackgroundImageFix" result="effect1_dropShadow_2115_1915"/>
<feBlend mode="normal" in="SourceGraphic" in2="effect1_dropShadow_2115_1915" result="shape"/>
</filter>
<filter id="filter1_d_2115_1915" x="167.667" y="-7.67349" width="96.6667" height="271.347" filterUnits="userSpaceOnUse" color-interpolation-filters="sRGB">
<feFlood flood-opacity="0" result="BackgroundImageFix"/>
<feColorMatrix in="SourceAlpha" type="matrix" values="0 0 0 0 0 0 0 0 0 0 0 0 0 0 0 0 0 0 127 0" result="hardAlpha"/>
<feOffset/>
<feGaussianBlur stdDeviation="4.16667"/>
<feColorMatrix type="matrix" values="0 0 0 0 0 0 0 0 0 0 0 0 0 0 0 0 0 0 0.25 0"/>
<feBlend mode="overlay" in2="BackgroundImageFix" result="effect1_dropShadow_2115_1915"/>
<feBlend mode="normal" in="SourceGraphic" in2="effect1_dropShadow_2115_1915" result="shape"/>
</filter>
<linearGradient id="paint0_linear_2115_1915" x1="127.844" y1="0.659911" x2="127.844" y2="255.34" gradientUnits="userSpaceOnUse">
<stop stop-color="white"/>
<stop offset="1" stop-color="white" stop-opacity="0"/>
</linearGradient>
<clipPath id="clip0_2115_1915">
<rect width="256" height="256" fill="white"/>
</clipPath>
</defs>
</svg>
