<svg width="256" height="256" viewBox="0 0 256 256" fill="none" xmlns="http://www.w3.org/2000/svg">
<path d="M73.6815 64C116.338 64.0001 140.252 85.6012 141.06 117.397L104.22 118.606C103.25 100.98 88.6272 89.4022 73.6815 89.7474C53.1607 90.1795 37.9709 104.782 37.9708 127.938C37.9708 151.093 53.1603 165.437 73.6815 165.437C88.6272 165.436 102.926 154.377 104.543 136.75L141.383 137.615C140.414 169.929 115.046 191.875 73.6815 191.875C32.3167 191.875 0 166.818 0 127.938C0.000151497 88.8837 31.0241 64 73.6815 64ZM256 67.7783V188.742H159.053V67.7783H256Z" fill="white"/>
</svg>
