<svg width="147" height="69" viewBox="0 0 147 69" fill="none" xmlns="http://www.w3.org/2000/svg">
<path d="M42.1553 0C66.561 0 80.2428 11.4346 80.7051 28.2656L59.6279 28.9053C59.0732 19.5751 50.7065 13.4469 42.1553 13.6299C30.4148 13.8586 21.7247 21.5876 21.7246 33.8447C21.7246 46.1021 30.4147 53.6943 42.1553 53.6943C50.7065 53.6943 58.888 47.84 59.8125 38.5098L80.8906 38.9678C80.3358 56.0731 65.8214 67.6904 42.1553 67.6904C18.4891 67.6904 0 54.4261 0 33.8447C0.000157954 13.172 17.7497 5.44151e-05 42.1553 0ZM146.468 2V66.0312H91V2H146.468Z" fill="#090B0B"/>
</svg>
