<svg width="66" height="48" viewBox="0 0 66 48" fill="none" xmlns="http://www.w3.org/2000/svg">
<path d="M64.3029 20.8302C62.9894 20.8302 62.1144 20.0449 62.1144 18.4331V9.17517C62.1144 3.26504 59.7268 0 53.5592 0H50.6941V6.24078H51.5697C53.9968 6.24078 55.1508 7.60467 55.1508 10.0431V18.2264C55.1508 21.7807 56.1853 23.2273 58.4535 23.9713C56.1853 24.6739 55.1508 26.1617 55.1508 29.716C55.1508 31.7412 55.1508 33.7663 55.1508 35.7916C55.1508 37.4861 55.1508 39.1393 54.7131 40.8337C54.2754 42.4044 53.5592 43.8922 52.5644 45.1733C52.0073 45.9174 51.3707 46.5373 50.6545 47.116V47.9425H53.5193C59.687 47.9425 62.0746 44.6774 62.0746 38.7672V29.5094C62.0746 27.8562 62.9103 27.1123 64.2634 27.1123H65.8944V20.8714H64.3029V20.8302Z" fill="#D9D9D9"/>
<path d="M44.8049 9.42443H35.9712C35.7722 9.42443 35.6131 9.25912 35.6131 9.05247V8.34987C35.6131 8.14322 35.7722 7.97791 35.9712 7.97791H44.8447C45.0436 7.97791 45.2028 8.14322 45.2028 8.34987V9.05247C45.2028 9.25912 45.0038 9.42443 44.8049 9.42443Z" fill="#D9D9D9"/>
<path d="M46.3171 18.3513H39.871C39.672 18.3513 39.5128 18.1859 39.5128 17.9792V17.2767C39.5128 17.0701 39.672 16.9047 39.871 16.9047H46.3171C46.5161 16.9047 46.6752 17.0701 46.6752 17.2767V17.9792C46.6752 18.1446 46.5161 18.3513 46.3171 18.3513Z" fill="#D9D9D9"/>
<path d="M48.8636 13.8879H35.9712C35.7722 13.8879 35.6131 13.7226 35.6131 13.5159V12.8133C35.6131 12.6067 35.7722 12.4413 35.9712 12.4413H48.8237C49.0228 12.4413 49.182 12.6067 49.182 12.8133V13.5159C49.182 13.6812 49.0626 13.8879 48.8636 13.8879Z" fill="#D9D9D9"/>
<path d="M25.7449 11.4483C26.6203 11.4483 27.4958 11.531 28.3313 11.7377V10.0431C28.3313 7.64602 29.5251 6.24078 31.9126 6.24078H32.7879V0H29.923C23.7552 0 21.3679 3.26504 21.3679 9.17517V12.2336C22.7605 11.7377 24.2329 11.4483 25.7449 11.4483Z" fill="#D9D9D9"/>
<path d="M51.5695 33.9308C50.9329 28.6819 47.0333 24.3009 42.0196 23.3089C40.6269 23.0197 39.2342 22.9783 37.8813 23.2263C37.8415 23.2263 37.8415 23.1849 37.8018 23.1849C35.6132 18.4321 30.9179 15.291 25.8246 15.291C20.7313 15.291 16.0757 18.3494 13.8474 23.1023C13.8076 23.1023 13.8076 23.1437 13.7678 23.1437C12.3353 22.9783 10.9028 23.0609 9.47035 23.433C4.5362 24.6728 0.795835 28.9711 0.119377 34.1786C0.039787 34.7159 0 35.2532 0 35.7492C0 37.3196 1.03457 38.7662 2.54664 38.9729C4.41683 39.2623 6.04827 37.7743 6.00848 35.8732C6.00848 35.5838 6.00848 35.2532 6.04827 34.9639C6.36659 32.3188 8.31638 30.087 10.863 29.467C11.6589 29.2604 12.4547 29.2191 13.2107 29.3432C15.638 29.6738 18.0255 28.3925 19.06 26.1607C19.8161 24.5075 21.0098 23.0609 22.6015 22.2757C24.3522 21.4077 26.3418 21.2838 28.1723 21.9452C30.0822 22.6477 31.5146 24.1355 32.3901 25.9953C33.3053 27.814 33.743 29.0951 35.6928 29.3432C36.4886 29.467 38.7169 29.4257 39.5526 29.3844C41.184 29.3844 42.8154 29.963 43.9694 31.1616C44.7254 31.9881 45.2825 33.0214 45.5213 34.1786C45.8793 36.0385 45.4417 37.8983 44.3673 39.3035C43.6112 40.2954 42.5767 41.0394 41.4227 41.37C40.8656 41.5354 40.3085 41.5766 39.7514 41.5766C39.4332 41.5766 38.9955 41.5766 38.4782 41.5766C36.8866 41.5766 33.5043 41.5766 30.9576 41.5766C29.2069 41.5766 27.8141 40.1302 27.8141 38.3116V26.2019C27.8141 25.7061 27.4162 25.2928 26.9387 25.2928H25.7052C23.2778 25.334 21.3281 28.1446 21.3281 31.1202C21.3281 34.096 21.3281 41.99 21.3281 41.99C21.3281 45.2137 23.8349 47.8175 26.9387 47.8175C26.9387 47.8175 40.7464 47.7761 40.9452 47.7761C44.1285 47.4454 47.0731 45.751 49.0626 43.1472C51.0522 40.6261 51.9674 37.3196 51.5695 33.9308Z" fill="#D9D9D9"/>
</svg>
