<svg width="256" height="256" viewBox="0 0 256 256" fill="none" xmlns="http://www.w3.org/2000/svg">
<path d="M61.7339 46.7097C67.7499 47.6537 75.3499 49.163 83.4619 51.467C81.6326 56.6777 80.0699 62.155 78.8966 67.771C73.0673 67.7177 67.3073 68.123 61.7659 68.843C61.2379 60.5017 61.3766 52.8377 61.7339 46.7097ZM53.7712 70.1017C53.3126 63.4563 53.2806 57.243 53.4513 51.7817C53.1686 52.059 52.8539 52.2937 52.5713 52.5763C45.9046 59.243 40.4272 66.635 35.8939 74.427C41.1579 72.8697 47.1579 71.323 53.7712 70.1017ZM65.0939 91.3123C68.1819 86.011 71.9152 80.987 76.4486 76.4483C76.6886 76.2083 76.9499 76.011 77.1899 75.7763C72.2032 75.819 67.2592 76.2137 62.4752 76.8537C63.0299 81.6323 63.9366 86.491 65.0939 91.3123ZM58.2886 97.291C56.5019 90.9177 55.2859 84.4483 54.5232 78.155C45.1206 79.947 36.8379 82.4057 30.7312 84.4963C30.6246 84.7363 30.5072 84.9657 30.4006 85.2057C33.0779 91.2003 36.9926 99.0563 42.1552 107.243C47.1472 103.638 52.5446 100.23 58.2886 97.291ZM36.1392 111.814C32.3206 105.83 29.2219 100.08 26.6992 94.9497C23.5366 104.694 21.8193 114.784 21.5312 124.928C25.5739 120.886 30.4912 116.336 36.1392 111.814ZM22.4112 141.995C23.7552 152.246 26.5926 162.304 30.9072 171.883C32.8859 166.39 35.4299 160.123 38.6406 153.616C32.4432 149.702 26.9659 145.654 22.4112 141.995ZM23.0406 134.15C27.8779 138.23 34.2512 143.142 41.6486 147.862C44.5926 142.496 48.0006 137.147 51.9046 132.07C47.6326 127.632 43.7872 122.891 40.3632 118.086C33.2966 123.798 27.3446 129.59 23.0406 134.15ZM46.3366 113.504C49.0352 117.328 52.0593 121.062 55.2966 124.635C55.5899 118.203 56.7099 111.814 58.6939 105.627C54.3633 108.043 50.2032 110.688 46.3366 113.504ZM86.5659 43.403C89.1099 37.2643 91.8352 31.7017 94.4166 26.891C85.5099 29.835 76.8966 33.8937 68.8752 39.2377C74.1872 40.2243 80.1873 41.5523 86.5659 43.403ZM94.7952 46.0003C99.6966 47.7123 104.657 49.7603 109.526 52.139C114.123 46.8163 118.065 42.331 120.71 39.339C116.87 36.155 110.779 31.259 104.374 26.619C101.371 31.8777 97.9419 38.5177 94.7952 46.0003ZM59.5633 189.888C51.8939 189.19 44.8433 187.984 38.9393 186.726C42.8379 192.635 47.3819 198.235 52.5766 203.43C55.3126 206.166 58.1712 208.694 61.1152 211.067C60.3046 204.971 59.6486 197.707 59.5633 189.888ZM203.425 52.571C179.627 28.779 147.291 18.6617 116.187 22.1017C124.619 28.5337 131.334 34.3363 131.825 34.7683L135.915 38.3257L132.294 42.3577C132.209 42.4537 127.515 47.6963 120.721 55.5097C123.142 55.2697 125.569 55.1363 128.001 55.1363C146.667 55.1363 165.339 62.2457 179.553 76.4537C207.979 104.88 207.979 151.131 179.553 179.558C154.923 204.182 116.918 207.43 88.7153 189.382C83.3073 190.166 77.8673 190.523 72.5499 190.523C70.1659 190.523 67.8246 190.438 65.5046 190.32C65.6486 200.294 66.7473 209.344 67.8299 216.011C85.9046 228.379 106.939 234.635 128.006 234.635C155.323 234.635 182.635 224.235 203.43 203.446C245.014 161.835 245.014 94.1657 203.425 52.571ZM81.5792 184.187C79.8192 182.731 78.1019 181.2 76.4539 179.558C72.8753 175.979 69.7499 172.112 67.0726 168.038C66.1712 173.515 65.6859 179.008 65.5473 184.358C70.7633 184.64 76.1712 184.592 81.5792 184.187ZM91.6539 54.0323C90.1499 58.2617 88.8646 62.6777 87.8086 67.1737C92.6619 63.963 97.8352 61.4723 103.169 59.547C103.355 59.3283 103.563 59.0777 103.75 58.859C99.7499 57.0137 95.6859 55.419 91.6539 54.0323ZM55.8406 137.595C52.6086 141.99 49.7019 146.582 47.1792 151.216C51.7926 153.883 56.7206 156.32 61.8352 158.411C58.7846 151.75 56.7793 144.736 55.8406 137.595ZM61.5526 165.243C55.4406 162.912 49.6219 160.059 44.2086 156.96C40.0752 165.419 37.0566 173.51 35.0246 179.766C41.4352 181.318 50.0806 183.008 59.6273 183.92C59.8086 177.819 60.3953 171.526 61.5526 165.243Z" fill="url(#paint0_linear_2115_1929)"/>
<defs>
<linearGradient id="paint0_linear_2115_1929" x1="111.13" y1="22.5822" x2="142.771" y2="219.616" gradientUnits="userSpaceOnUse">
<stop stop-color="#50D133"/>
<stop offset="1" stop-color="#3DA126"/>
</linearGradient>
</defs>
</svg>
