<?xml version="1.0" encoding="UTF-8" standalone="no"?>
<svg
  width="300mm"
  height="207mm"
  viewBox="0 0 300 207"
  version="1.1"
  id="svg1"
  inkscape:version="1.3.2 (091e20ef0f, 2023-11-25)"
  xmlns:inkscape="http://www.inkscape.org/namespaces/inkscape"
  xmlns:sodipodi="http://sodipodi.sourceforge.net/DTD/sodipodi-0.dtd"
  xmlns:xlink="http://www.w3.org/1999/xlink"
  xmlns="http://www.w3.org/2000/svg"
  xmlns:svg="http://www.w3.org/2000/svg"
  xmlns:rdf="http://www.w3.org/1999/02/22-rdf-syntax-ns#"
  xmlns:cc="http://creativecommons.org/ns#"
  xmlns:dc="http://purl.org/dc/elements/1.1/">
 <title
   id="title1">copyparty_logo</title>
 <defs
   id="defs1">
  <linearGradient
    inkscape:collect="always"
    id="linearGradient1">
   <stop
     style="stop-color:#ffcc55;stop-opacity:1"
     offset="0"
     id="stop1" />
   <stop
     style="stop-color:#ffcc00;stop-opacity:1"
     offset="0.2"
     id="stop2" />
   <stop
     style="stop-color:#ff8800;stop-opacity:1"
     offset="1"
     id="stop3" />
  </linearGradient>
  <linearGradient
    inkscape:collect="always"
    xlink:href="#linearGradient1"
    id="linearGradient2"
    x1="15"
    y1="15"
    x2="15"
    y2="143"
    gradientUnits="userSpaceOnUse" />
 </defs>
 <metadata
   id="metadata5">
  <rdf:RDF>
   <cc:Work
     rdf:about="">
    <dc:format>image/svg+xml</dc:format>
    <dc:type
      rdf:resource="http://purl.org/dc/dcmitype/StillImage" />
    <dc:title>copyparty_logo</dc:title>
    <dc:source>github.com/9001/copyparty</dc:source>
   </cc:Work>
  </rdf:RDF>
 </metadata>
 <g
   inkscape:groupmode="layer"
   id="layer1"
   inkscape:label="kassett">
  <rect
    style="fill:#333333"
    id="rect1"
    width="300"
    height="205"
    x="0"
    y="0"
    rx="12"
    ry="12" />
  <rect
    style="fill:url(#linearGradient2)"
    id="rect2"
    width="270"
    height="128"
    x="15"
    y="15"
    rx="8"
    ry="8" />
  <rect
    style="fill:#333333"
    id="rect3"
    width="172"
    height="52"
    x="64"
    y="72"
    rx="26"
    ry="26" />
  <circle
    style="fill:#cccccc"
    id="circle1"
    cx="91"
    cy="98"
    r="18" />
  <circle
    style="fill:#cccccc"
    id="circle2"
    cx="209"
    cy="98"
    r="18" />
  <path
    style="fill:#737373;stroke-width:1px"
    d="m 48,207 10,-39 c 1.79,-6.2 5.6,-7.8 12,-8 60,-1 100,-1 160,0 6.4,0.2 10,1.8 12,8 l 10,39 z"
    id="path1"
    sodipodi:nodetypes="ccccccc" />
 </g>
 <g
   inkscape:groupmode="layer"
   id="layer3"
   inkscape:label="tekst"
   style="display:none">
  <text
    xml:space="preserve"
    style="font-size:38.8056px;line-height:1.25;font-family:Akbar;-inkscape-font-specification:Akbar;letter-spacing:3.70417px;word-spacing:0px;fill:#333333"
    x="47.153069"
    y="55.548954"
    id="text1"><tspan
     sodipodi:role="line"
     id="tspan1"
     x="47.153069"
     y="55.548954"
     style="-inkscape-font-specification:Akbar"
     rotate="0 0">copyparty</tspan></text>
 </g>
 <g
   inkscape:groupmode="layer"
   id="layer4"
   inkscape:label="stensatt">
  <path
    d="m 63.5,50.9 q -0.85,0.93 -4.73,2.3 -3.6,1.3 -4.4,1.3 -3.3,0 -5.1,-2.1 -1.75,-2 -1.75,-5.36 0,-4.6 3.76,-7.64 3.3,-2.7 7.3,-2.7 0.4,0 0.93,0.74 0.54,0.7 0.54,1.16 0,2.06 -2.2,2.7 -1.36,0.4 -4.04,1.16 -2.2,1.16 -2.2,4.4 0,3.2 2.9,3.2 0.85,0 0.85,0 0.54,0 1.44,-0.16 1.1,-0.23 2.9,-0.74 1.8,-0.54 2.13,-0.54 0.4,0 1.75,0.6 z"
    style="fill:#333333"
    id="path11" />
  <path
    d="m 87.6,45 q 0,4.2 -3.7,6.95 -3.2,2.3 -6.87,2.3 -3.4,0 -6,-2.6 -2.5,-2.6 -2.5,-6 0,-3.6 3.14,-6.64 3.2,-3 6.8,-3 3.5,0 6.3,2.76 2.83,2.76 2.83,6.25 z m -3.4,0.16 q 0,-2.25 -1.75,-3.7 -1.7,-1.5 -4,-1.5 -0.1,0 -1.6,1.6 -1.44,1.55 -2.44,1.55 -0.6,0 -0.8,-0.3 -1.16,2.3 -1.16,3 0,2.25 2.13,3.4 1.6,0.9 3.6,0.9 2,0 3.76,-1.1 2.25,-1.4 2.25,-3.84 z"
    style="fill:#333333"
    id="path12" />
  <path
    d="m 112.8,46.8 q 0,2.8 -1.9,4.4 -1.8,1.5 -4.7,1.5 -0.7,0 -2.7,-0.4 -1.9,-0.4 -2.6,-0.4 -2.1,0 -2.1,2.64 0,0.85 0.23,2.6 0.2,1.75 0.2,2.6 0,1.9 -0.77,2.83 -1.44,0 -3,-0.85 -1.46,-9.5 -1.46,-12 0,-3.65 1.75,-8.1 2.37,-6.05 6.45,-6.05 3.7,0 7.3,4.1 3.3,3.84 3.3,7.14 z m -3.8,0.2 q -0.6,-2.2 -2.6,-4.4 -2.3,-2.5 -4.3,-2.5 -1.3,0 -2.33,2.2 -0.9,1.8 -0.9,3.26 0,0.47 0.38,1.24 0.43,0.8 0.85,0.8 1.1,0 3.2,0.3 2.1,0.3 3.2,0.3 0.3,0 1.3,-0.4 1,-0.47 1.3,-0.74 z"
    style="fill:#333333"
    id="path13" />
  <path
    d="m 133,40 q -2.1,4.1 -3.2,7 -0.1,0.3 -1.6,4.5 -0.4,1.36 -1,4.2 -0.5,2.83 -1,4.2 -1,2.83 -2.3,2.64 -1.4,-0.2 -1.6,-1.6 0,-0.2 0,-0.5 0,-0.16 0.3,-1.5 1,-5.04 1,-6.44 0,-0.54 -0.1,-0.74 -1.4,-2.44 -4.1,-7.4 -2.7,-4.97 -2.4,-7.7 1.5,-1.36 2.1,-1.36 0.4,0 1.1,0.6 0.6,0.6 0.7,1.1 0.8,6.2 4.9,11.1 1,-1.8 1.8,-4.04 0.5,-1.4 1.6,-4.15 1.9,-4.46 3.4,-4.46 0.2,0 0.4,0.1 0.9,0.3 1.3,2.8 z"
    style="fill:#333333"
    id="path14" />
  <path
    d="m 157.5,48 q 0,2.8 -1.9,4.4 -1.8,1.5 -4.7,1.5 -0.7,0 -2.7,-0.4 -1.9,-0.4 -2.6,-0.4 -2,0 -2,2.64 0,0.85 0.2,2.6 0.2,1.75 0.2,2.6 0,1.9 -0.7,2.83 -1.5,0 -3,-0.85 -1.5,-9.5 -1.5,-11.95 0,-3.65 1.8,-8.1 2.3,-6.05 6.4,-6.05 3.7,0 7.2,4.1 3.3,3.84 3.3,7.14 z m -3.8,0.2 q -0.6,-2.2 -2.6,-4.4 -2.3,-2.5 -4.3,-2.5 -1.3,0 -2.3,2.2 -0.9,1.8 -0.9,3.26 0,0.47 0.4,1.24 0.4,0.8 0.8,0.8 1.1,0 3.2,0.3 2.1,0.3 3.2,0.3 0.3,0 1.3,-0.4 1,-0.47 1.3,-0.74 z"
    style="fill:#333333"
    id="path15" />
  <path
    d="m 182,53.3 q 0,0.9 -0.6,1.5 -0.6,0.6 -1.4,0.6 -1.6,0 -3,-0.9 -1.4,-0.93 -2.1,-2.3 -0.7,-0.1 -1.5,0.85 -0.9,1.16 -1.1,1.24 -1.2,0.54 -3.9,0.54 -2.2,0 -3.9,-2.44 -1.5,-2.13 -1.5,-4 0,-3.4 3.4,-6.4 3.2,-2.9 6.7,-2.9 0.9,0 1.7,0.6 0.8,0.6 0.8,1.44 0,0.54 -0.4,1.1 2.4,0.9 2.4,2.83 0,0.35 -0.1,1.05 -0.1,0.7 -0.1,1.05 0,0.4 0.1,0.6 0.5,1.3 2.5,3.4 1.9,1.9 1.9,2.2 z m -8.1,-10.1 q -0.4,0 -1.1,-0.1 -0.8,-0.16 -1.1,-0.16 -1.3,0 -3.2,1.94 -1.9,1.94 -1.9,3.3 0,0.8 0.7,1.8 0.9,1.3 2.2,1.3 2.6,0 3.5,-2.9 0.5,-2.6 1,-5.16 z"
    style="fill:#333333"
    id="path16" />
  <path
    d="m 203.8,42.4 q -0.4,0.4 -1.5,0.4 -0.9,0 -2.5,-0.3 -1.7,-0.3 -2.5,-0.3 -4.7,0 -5.5,6.9 -0.3,3.1 -0.4,3.3 -0.4,1 -1.7,2.3 h -1.1 q -0.7,-1.2 -1.3,-4.1 -0.6,-2.76 -0.6,-4.27 0,-1.16 0.1,-1.5 0.2,-0.54 1,-0.54 0.3,0 0.6,0.3 0.4,0.3 0.4,0.3 1.9,-3.53 3.1,-4.6 1.8,-1.7 5.1,-1.7 1.4,0 3.6,0.9 2.8,1.16 3.3,2.8 z"
    style="fill:#333333"
    id="path17" />
  <path
    d="m 229.5,37.16 q 0.3,0.8 0.3,1.44 0,1.86 -2.4,1.86 -1,0 -3.5,-0.5 -2.5,-0.54 -3.4,-0.54 -1.3,0 -1.5,0.1 -0.4,0.2 -0.4,1.2 0,2.2 0.6,6.9 0.7,5.86 1.6,6.13 -0.4,0.35 -0.4,1.1 -1.2,0.7 -2.6,0.7 -1.4,0 -2,-3.9 -0.2,-1.36 -0.5,-7.76 -0.2,-4.6 -0.8,-5.5 -0.3,-0.47 -4.3,-0.35 -1,0 -1.6,0.1 -0.5,0 -0.3,0 -0.8,0 -1.2,-0.7 -0.5,-1.3 -0.5,-1.4 0,-1.44 4.1,-2 1.6,-0.16 4.7,-0.5 0,-0.85 -0.1,-2.56 0,-1.75 0,-2.6 0,-4.35 2.1,-4.35 0.5,0 1.1,0.6 0.6,0.6 0.6,1.1 v 7.9 q 1.1,1.2 5,1.7 3.9,0.5 5.3,1.86 z"
    style="fill:#333333"
    id="path18" />
  <path
    d="m 251.2,40.2 q -2,4.1 -3.2,7 -0.1,0.3 -1.5,4.5 -0.5,1.36 -1,4.2 -0.5,2.83 -1,4.2 -1,2.83 -2.4,2.64 -1.4,-0.2 -1.5,-1.6 -0.1,-0.2 -0.1,-0.5 0,-0.16 0.3,-1.5 1.1,-5.04 1.1,-6.44 0,-0.54 -0.1,-0.74 -1.4,-2.44 -4.1,-7.4 -2.7,-4.97 -2.4,-7.7 1.4,-1.36 2.1,-1.36 0.4,0 1,0.6 0.6,0.6 0.7,1.1 0.9,6.2 4.9,11.1 1,-1.8 1.9,-4.04 0.5,-1.4 1.6,-4.15 1.8,-4.46 3.4,-4.46 0.2,0 0.4,0.1 0.8,0.3 1.2,2.8 z"
    style="fill:#333333"
    id="path19" />
 </g>
 <g
   inkscape:groupmode="layer"
   id="layer5"
   inkscape:label="tagger">
  <g
    id="g1">
   <path
     id="path4"
     style="fill:#333333"
     d="m 111.4,83.335 -9.526,5.5 2.5,4.33 9.526,-5.5 z m -33.775,19.5 -9.526,5.5 2.5,4.33 9.526,-5.5 z"
     sodipodi:nodetypes="cccccccccc" />
   <path
     id="path5"
     style="fill:#333333"
     d="M 88.5,73 V 84 h 5 V 73 Z m 0,39 v 11 h 5 V 112 Z"
     sodipodi:nodetypes="cccccccccc" />
   <path
     id="path6"
     style="fill:#333333"
     d="m 68.1,87.665 9.526,5.5 2.5,-4.33 -9.526,-5.5 z m 33.775,19.5 9.527,5.5 2.5,-4.33 -9.527,-5.5 z"
     sodipodi:nodetypes="cccccccccc" />
  </g>
  <g
    id="g2"
    transform="rotate(30,150,318.19)">
   <path
     id="path7"
     style="fill:#333333"
     d="m 111.4,83.335 -9.526,5.5 2.5,4.33 9.526,-5.5 z m -33.775,19.5 -9.526,5.5 2.5,4.33 9.526,-5.5 z"
     sodipodi:nodetypes="cccccccccc" />
   <path
     id="path8"
     style="fill:#333333"
     d="M 88.5,73 V 84 h 5 V 73 Z m 0,39 v 11 h 5 V 112 Z"
     sodipodi:nodetypes="cccccccccc" />
   <path
     id="path9"
     style="fill:#333333"
     d="m 68.1,87.665 9.526,5.5 2.5,-4.33 -9.526,-5.5 z m 33.775,19.5 9.527,5.5 2.5,-4.33 -9.527,-5.5 z"
     sodipodi:nodetypes="cccccccccc" />
  </g>
 </g>
</svg>
