<svg xmlns="http://www.w3.org/2000/svg" xmlns:xlink="http://www.w3.org/1999/xlink" width="300mm" height="207mm" viewBox="0 0 300 207"><defs><linearGradient id="a"><stop offset="0" style="stop-color:#fc5;stop-opacity:1"/><stop offset=".2" style="stop-color:#fc0;stop-opacity:1"/><stop offset="1" style="stop-color:#f80;stop-opacity:1"/></linearGradient><linearGradient xlink:href="#a" id="b" x1="15" x2="15" y1="15" y2="143" gradientUnits="userSpaceOnUse"/></defs><rect width="300" height="205" rx="12" ry="12" style="fill:#333"/><rect width="270" height="128" x="15" y="15" rx="8" ry="8" style="fill:url(#b)"/><rect width="172" height="52" x="64" y="72" rx="26" ry="26" style="fill:#333"/><circle cx="91" cy="98" r="18" style="fill:#ccc"/><circle cx="209" cy="98" r="18" style="fill:#ccc"/><path d="m48 207 10-39c1.79-6.2 5.6-7.8 12-8 60-1 100-1 160 0 6.4.2 10 1.8 12 8l10 39z" style="fill:#737373;stroke-width:1px"/><path d="M63.5 50.9q-.85.93-4.73 2.3-3.6 1.3-4.4 1.3-3.3 0-5.1-2.1-1.75-2-1.75-5.36 0-4.6 3.76-7.64 3.3-2.7 7.3-2.7.4 0 .93.74.54.7.54 1.16 0 2.06-2.2 2.7-1.36.4-4.04 1.16-2.2 1.16-2.2 4.4 0 3.2 2.9 3.2h.85q.54 0 1.44-.16 1.1-.23 2.9-.74 1.8-.54 2.13-.54.4 0 1.75.6zM87.6 45q0 4.2-3.7 6.95-3.2 2.3-6.87 2.3-3.4 0-6-2.6-2.5-2.6-2.5-6 0-3.6 3.14-6.64 3.2-3 6.8-3 3.5 0 6.3 2.76 2.83 2.76 2.83 6.25zm-3.4.16q0-2.25-1.75-3.7-1.7-1.5-4-1.5-.1 0-1.6 1.6-1.44 1.55-2.44 1.55-.6 0-.8-.3-1.16 2.3-1.16 3 0 2.25 2.13 3.4 1.6.9 3.6.9t3.76-1.1q2.25-1.4 2.25-3.84zM112.8 46.8q0 2.8-1.9 4.4-1.8 1.5-4.7 1.5-.7 0-2.7-.4-1.9-.4-2.6-.4-2.1 0-2.1 2.64 0 .85.23 2.6.2 1.75.2 2.6 0 1.9-.77 2.83-1.44 0-3-.85-1.46-9.5-1.46-12 0-3.65 1.75-8.1 2.37-6.05 6.45-6.05 3.7 0 7.3 4.1 3.3 3.84 3.3 7.14zm-3.8.2q-.6-2.2-2.6-4.4-2.3-2.5-4.3-2.5-1.3 0-2.33 2.2-.9 1.8-.9 3.26 0 .47.38 1.24.43.8.85.8 1.1 0 3.2.3t3.2.3q.3 0 1.3-.4 1-.47 1.3-.74zM133 40q-2.1 4.1-3.2 7-.1.3-1.6 4.5-.4 1.36-1 4.2-.5 2.83-1 4.2-1 2.83-2.3 2.64-1.4-.2-1.6-1.6v-.5q0-.16.3-1.5 1-5.04 1-6.44 0-.54-.1-.74-1.4-2.44-4.1-7.4-2.7-4.97-2.4-7.7 1.5-1.36 2.1-1.36.4 0 1.1.6.6.6.7 1.1.8 6.2 4.9 11.1 1-1.8 1.8-4.04.5-1.4 1.6-4.15 1.9-4.46 3.4-4.46.2 0 .4.1.9.3 1.3 2.8zM157.5 48q0 2.8-1.9 4.4-1.8 1.5-4.7 1.5-.7 0-2.7-.4-1.9-.4-2.6-.4-2 0-2 2.64 0 .85.2 2.6t.2 2.6q0 1.9-.7 2.83-1.5 0-3-.85-1.5-9.5-1.5-11.95 0-3.65 1.8-8.1 2.3-6.05 6.4-6.05 3.7 0 7.2 4.1 3.3 3.84 3.3 7.14zm-3.8.2q-.6-2.2-2.6-4.4-2.3-2.5-4.3-2.5-1.3 0-2.3 2.2-.9 1.8-.9 3.26 0 .47.4 1.24.4.8.8.8 1.1 0 3.2.3t3.2.3q.3 0 1.3-.4 1-.47 1.3-.74zM182 53.3q0 .9-.6 1.5t-1.4.6q-1.6 0-3-.9-1.4-.93-2.1-2.3-.7-.1-1.5.85-.9 1.16-1.1 1.24-1.2.54-3.9.54-2.2 0-3.9-2.44-1.5-2.13-1.5-4 0-3.4 3.4-6.4 3.2-2.9 6.7-2.9.9 0 1.7.6.8.6.8 1.44 0 .54-.4 1.1 2.4.9 2.4 2.83 0 .35-.1 1.05-.1.7-.1 1.05 0 .4.1.6.5 1.3 2.5 3.4 1.9 1.9 1.9 2.2zm-8.1-10.1q-.4 0-1.1-.1-.8-.16-1.1-.16-1.3 0-3.2 1.94-1.9 1.94-1.9 3.3 0 .8.7 1.8.9 1.3 2.2 1.3 2.6 0 3.5-2.9.5-2.6 1-5.16zM203.8 42.4q-.4.4-1.5.4-.9 0-2.5-.3-1.7-.3-2.5-.3-4.7 0-5.5 6.9-.3 3.1-.4 3.3-.4 1-1.7 2.3h-1.1q-.7-1.2-1.3-4.1-.6-2.76-.6-4.27 0-1.16.1-1.5.2-.54 1-.54.3 0 .6.3l.4.3q1.9-3.53 3.1-4.6 1.8-1.7 5.1-1.7 1.4 0 3.6.9 2.8 1.16 3.3 2.8zM229.5 37.16q.3.8.3 1.44 0 1.86-2.4 1.86-1 0-3.5-.5-2.5-.54-3.4-.54-1.3 0-1.5.1-.4.2-.4 1.2 0 2.2.6 6.9.7 5.86 1.6 6.13-.4.35-.4 1.1-1.2.7-2.6.7-1.4 0-2-3.9-.2-1.36-.5-7.76-.2-4.6-.8-5.5-.3-.47-4.3-.35-1 0-1.6.1h-.3q-.8 0-1.2-.7-.5-1.3-.5-1.4 0-1.44 4.1-2 1.6-.16 4.7-.5 0-.85-.1-2.56v-2.6q0-4.35 2.1-4.35.5 0 1.1.6.6.6.6 1.1v7.9q1.1 1.2 5 1.7t5.3 1.86zM251.2 40.2q-2 4.1-3.2 7l-1.5 4.5q-.5 1.36-1 4.2-.5 2.83-1 4.2-1 2.83-2.4 2.64-1.4-.2-1.5-1.6-.1-.2-.1-.5 0-.16.3-1.5 1.1-5.04 1.1-6.44 0-.54-.1-.74-1.4-2.44-4.1-7.4-2.7-4.97-2.4-7.7 1.4-1.36 2.1-1.36.4 0 1 .6t.7 1.1q.9 6.2 4.9 11.1 1-1.8 1.9-4.04.5-1.4 1.6-4.15 1.8-4.46 3.4-4.46.2 0 .4.1.8.3 1.2 2.8zM111.4 83.335l-9.526 5.5 2.5 4.33 9.526-5.5zm-33.775 19.5-9.526 5.5 2.5 4.33 9.526-5.5zM88.5 73v11h5V73Zm0 39v11h5v-11ZM68.1 87.665l9.526 5.5 2.5-4.33-9.526-5.5zm33.775 19.5 9.527 5.5 2.5-4.33-9.527-5.5z" style="fill:#333"/><path d="m111.4 83.335-9.526 5.5 2.5 4.33 9.526-5.5zm-33.775 19.5-9.526 5.5 2.5 4.33 9.526-5.5zM88.5 73v11h5V73Zm0 39v11h5v-11ZM68.1 87.665l9.526 5.5 2.5-4.33-9.526-5.5zm33.775 19.5 9.527 5.5 2.5-4.33-9.527-5.5z" style="fill:#333" transform="rotate(30 150 318.19)"/></svg>