<svg width="256" height="256" viewBox="0 0 256 256" fill="none" xmlns="http://www.w3.org/2000/svg">
<path d="M245.76 39H10.24C4.5846 39 0 43.5939 0 49.2609V204.029C0 209.696 4.5846 214.29 10.24 214.29H245.76C251.415 214.29 256 209.696 256 204.029V49.2609C256 43.5939 251.415 39 245.76 39Z" fill="#333333"/>
<path d="M236.373 51.8262H19.6265C15.8562 51.8262 12.7998 54.8888 12.7998 58.6668V154.435C12.7998 158.213 15.8562 161.275 19.6265 161.275H236.373C240.143 161.275 243.2 158.213 243.2 154.435V58.6668C243.2 54.8888 240.143 51.8262 236.373 51.8262Z" fill="url(#paint0_linear_2115_1813)"/>
<path d="M179.2 100.565H76.7999C64.5466 100.565 54.6133 110.519 54.6133 122.797C54.6133 135.076 64.5466 145.029 76.7999 145.029H179.2C191.453 145.029 201.387 135.076 201.387 122.797C201.387 110.519 191.453 100.565 179.2 100.565Z" fill="#333333"/>
<path d="M77.653 138.188C86.1361 138.188 93.013 131.297 93.013 122.797C93.013 114.297 86.1361 107.406 77.653 107.406C69.1699 107.406 62.293 114.297 62.293 122.797C62.293 131.297 69.1699 138.188 77.653 138.188Z" fill="#CCCCCC"/>
<path d="M178.346 138.188C186.829 138.188 193.706 131.297 193.706 122.797C193.706 114.297 186.829 107.406 178.346 107.406C169.863 107.406 162.986 114.297 162.986 122.797C162.986 131.297 169.863 138.188 178.346 138.188Z" fill="#CCCCCC"/>
<path d="M40.96 216L49.4933 182.652C51.0208 177.351 54.272 175.983 59.7333 175.812C110.933 174.957 145.067 174.957 196.267 175.812C201.728 175.983 204.8 177.351 206.507 182.652L215.04 216H40.96Z" fill="#737373"/>
<path d="M54.187 82.5232C53.7035 83.0533 52.3581 83.7089 50.1508 84.4898C48.1028 85.2309 46.8512 85.6014 46.3961 85.6014C44.5188 85.6014 43.0681 85.0029 42.0441 83.8058C41.0486 82.6657 40.5508 81.1379 40.5508 79.2226C40.5508 76.6004 41.6203 74.4228 43.7593 72.6898C45.6366 71.1507 47.7131 70.3811 49.9886 70.3811C50.2162 70.3811 50.4807 70.592 50.7822 71.0139C51.0894 71.4129 51.243 71.7435 51.243 72.0058C51.243 73.1801 50.6173 73.9496 49.3657 74.3145C48.592 74.5425 47.4429 74.8731 45.9182 75.3063C44.6667 75.9676 44.0409 77.2217 44.0409 79.0687C44.0409 80.8928 44.8658 81.8049 46.5156 81.8049H47.2409C47.5481 81.8049 47.9577 81.7593 48.4697 81.6681C49.0955 81.537 49.9204 81.3261 50.9444 81.0353C51.9684 80.7275 52.5742 80.5736 52.762 80.5736C52.9895 80.5736 53.4873 80.7446 54.2553 81.0866L54.187 82.5232ZM74.7524 77.4782C74.7524 79.8724 73.6999 81.8534 71.595 83.421C69.7746 84.7321 67.8205 85.3877 65.7326 85.3877C63.7984 85.3877 62.0918 84.6466 60.6126 83.1645C59.1904 81.6823 58.4793 79.9722 58.4793 78.034C58.4793 75.9819 59.3725 74.0893 61.1588 72.3563C62.9792 70.6462 64.9134 69.7911 66.9614 69.7911C68.9526 69.7911 70.7446 70.5778 72.3374 72.1511C73.9474 73.7245 74.7524 75.5059 74.7524 77.4953V77.4782ZM71.851 77.615C71.851 76.3324 71.3533 75.2778 70.3577 74.4513C69.3906 73.5962 68.2528 73.1687 66.9444 73.1687C66.8875 73.1687 66.4324 73.6247 65.579 74.5368C64.7598 75.4204 64.0658 75.8621 63.4969 75.8621C63.1556 75.8621 62.928 75.7766 62.8142 75.6056C62.1543 76.9167 61.8244 77.7718 61.8244 78.1708C61.8244 79.4535 62.4302 80.4225 63.642 81.0781C64.5522 81.5911 65.5762 81.8477 66.714 81.8477C67.8518 81.8477 68.9213 81.5341 69.9225 80.9071C71.2025 80.109 71.8425 79.0145 71.8425 77.6236L71.851 77.615ZM96.2564 79.0174C96.2564 80.6135 95.7159 81.8676 94.635 82.7797C93.611 83.6348 92.2742 84.0623 90.6244 84.0623C90.2262 84.0623 89.4582 83.9483 88.3204 83.7203C87.2395 83.4922 86.4999 83.3782 86.1017 83.3782C84.907 83.3782 84.3097 84.1307 84.3097 85.6356C84.3097 86.1202 84.3751 86.8612 84.506 87.8588C84.6198 88.8564 84.6766 89.5975 84.6766 90.082C84.6766 91.1651 84.4576 91.9717 84.0196 92.5019C83.2004 92.5019 82.347 92.2596 81.4596 91.775C80.629 86.3596 80.2137 82.9393 80.2137 81.5142C80.2137 79.4335 80.7115 77.1248 81.707 74.5881C83.0553 71.1393 84.89 69.4149 87.211 69.4149C89.3159 69.4149 91.3924 70.5835 93.4404 72.9207C95.3177 75.1097 96.2564 77.1448 96.2564 79.0259V79.0174ZM93.0137 79.1884C92.6724 77.9343 91.9328 76.6802 90.795 75.4261C89.4866 74.0009 88.2635 73.2884 87.1257 73.2884C86.3862 73.2884 85.7234 73.9154 85.1374 75.1695C84.6254 76.1956 84.3694 77.1248 84.3694 77.9571C84.3694 78.225 84.4775 78.5784 84.6937 79.0174C84.9383 79.4734 85.1801 79.7014 85.419 79.7014C86.0448 79.7014 86.955 79.7869 88.1497 79.9579C89.3444 80.129 90.2546 80.2145 90.8804 80.2145C91.051 80.2145 91.4208 80.1005 91.9897 79.8724C92.5586 79.6045 92.9284 79.3936 93.099 79.2397L93.0137 79.1884ZM113.494 73.2029C112.299 75.5401 111.389 77.5352 110.763 79.1884C110.706 79.3594 110.251 80.642 109.398 83.0362C109.17 83.8115 108.886 85.0086 108.544 86.6275C108.26 88.2407 107.975 89.4378 107.691 90.2188C107.122 91.8321 106.468 92.5845 105.728 92.4762C104.932 92.3622 104.477 91.9062 104.363 91.1081V90.6805C104.363 90.5893 104.448 90.1618 104.619 89.3979C105.188 86.5249 105.472 84.6893 105.472 83.8913C105.472 83.5835 105.444 83.3725 105.387 83.2585C104.591 81.8676 103.424 79.7584 101.888 76.931C100.352 74.0978 99.6697 71.9032 99.8404 70.3469C100.694 69.5717 101.291 69.184 101.632 69.184C101.86 69.184 102.173 69.355 102.571 69.6971C102.912 70.0391 103.111 70.3526 103.168 70.6377C103.623 74.172 105.017 77.3357 107.35 80.129C107.919 79.1029 108.431 77.9514 108.886 76.6745C109.17 75.8764 109.625 74.6935 110.251 73.1259C111.332 70.5835 112.299 69.3123 113.152 69.3123C113.266 69.3123 113.38 69.3408 113.494 69.3978C114.006 69.5688 114.375 70.3669 114.603 71.792L113.494 73.2029ZM134.4 80.0435C134.4 81.6396 133.86 82.8937 132.779 83.8058C131.755 84.6608 130.418 85.0884 128.768 85.0884C128.37 85.0884 127.602 84.9744 126.464 84.7463C125.383 84.5183 124.644 84.4043 124.246 84.4043C123.108 84.4043 122.539 85.1568 122.539 86.6617C122.539 87.1463 122.596 87.8873 122.71 88.8849C122.823 89.8825 122.88 90.6235 122.88 91.1081C122.88 92.1912 122.681 92.9978 122.283 93.5279C121.43 93.5279 120.576 93.2857 119.723 92.8011C118.87 87.3857 118.443 83.9796 118.443 82.583C118.443 80.5023 118.955 78.1936 119.979 75.6569C121.287 72.2081 123.108 70.4837 125.44 70.4837C127.545 70.4837 129.593 71.6523 131.584 73.9895C133.462 76.1785 134.4 78.2136 134.4 80.0948V80.0435ZM131.158 80.2145C130.816 78.9604 130.077 77.7063 128.939 76.4521C127.631 75.027 126.407 74.3145 125.27 74.3145C124.53 74.3145 123.876 74.9415 123.307 76.1956C122.795 77.2217 122.539 78.1509 122.539 78.9832C122.539 79.2511 122.653 79.6045 122.88 80.0435C123.108 80.4995 123.335 80.7275 123.563 80.7275C124.189 80.7275 125.099 80.813 126.294 80.984C127.488 81.155 128.399 81.2406 129.024 81.2406C129.195 81.2406 129.565 81.1265 130.134 80.8985C130.703 80.6306 131.072 80.4197 131.243 80.2658L131.158 80.2145ZM155.307 84.5753C155.307 85.0884 155.136 85.5159 154.795 85.8579C154.454 86.2 154.055 86.371 153.6 86.371C152.69 86.371 151.837 86.1145 151.04 85.6014C150.244 85.0713 149.647 84.4157 149.248 83.6348C148.85 83.5778 148.423 83.82 147.968 84.3616C147.456 85.0228 147.143 85.3763 147.03 85.4219C146.347 85.7297 145.238 85.8836 143.702 85.8836C142.45 85.8836 141.341 85.1881 140.374 83.7972C139.52 82.583 139.094 81.4429 139.094 80.3769C139.094 78.4388 140.061 76.6146 141.995 74.9045C143.815 73.2513 145.721 72.4248 147.712 72.4248C148.224 72.4248 148.708 72.5958 149.163 72.9378C149.618 73.2798 149.846 73.6903 149.846 74.1691C149.846 74.4769 149.732 74.7905 149.504 75.1097C150.87 75.6227 151.552 76.4293 151.552 77.5295C151.552 77.7291 151.524 78.0283 151.467 78.4274C151.41 78.8264 151.382 79.1257 151.382 79.3252C151.382 79.5532 151.41 79.7242 151.467 79.8382C151.751 80.5793 152.463 81.5484 153.6 82.7455C154.681 83.8286 155.222 84.4556 155.222 84.6266L155.307 84.5753ZM148.395 75.9391C148.167 75.9391 147.855 75.9106 147.456 75.8536C147.001 75.7624 146.688 75.7168 146.518 75.7168C145.778 75.7168 144.868 76.2697 143.787 77.3756C142.706 78.4815 142.166 79.4221 142.166 80.1974C142.166 80.6534 142.365 81.1664 142.763 81.7365C143.275 82.4776 143.901 82.8481 144.64 82.8481C146.119 82.8481 147.115 82.0215 147.627 80.3684C147.911 78.8863 148.196 77.4155 148.48 75.9562L148.395 75.9391ZM173.91 75.255C173.682 75.4831 173.255 75.5971 172.63 75.5971C172.118 75.5971 171.407 75.5116 170.496 75.3406C169.529 75.1695 168.818 75.084 168.363 75.084C165.689 75.084 164.125 77.0507 163.67 80.984C163.499 82.7512 163.385 83.6918 163.328 83.8058C163.101 84.3758 162.617 85.0314 161.878 85.7724H160.939C160.541 85.0884 160.171 83.9198 159.83 82.2666C159.488 80.6933 159.318 79.4763 159.318 78.6155C159.318 77.9542 159.346 77.5267 159.403 77.3329C159.517 77.025 159.801 76.8711 160.256 76.8711C160.427 76.8711 160.598 76.9566 160.768 77.1277L161.11 77.3842C162.191 75.3719 163.072 74.0608 163.755 73.4508C164.779 72.4818 166.23 71.9972 168.107 71.9972C168.903 71.9972 169.927 72.2537 171.179 72.7668C172.772 73.428 173.711 74.2261 173.995 75.161L173.91 75.255ZM195.84 70.7745C196.011 71.2305 196.096 71.6409 196.096 72.0058C196.096 73.0661 195.414 73.5962 194.048 73.5962C193.479 73.5962 192.484 73.4537 191.062 73.1687C189.639 72.8608 188.672 72.7069 188.16 72.7069C187.421 72.7069 186.994 72.7354 186.88 72.7924C186.653 72.9064 186.539 73.2485 186.539 73.8185C186.539 75.0726 186.71 77.0393 187.051 79.7185C187.449 83.059 187.904 84.8062 188.416 84.9601C188.189 85.1596 188.075 85.4732 188.075 85.9007C187.392 86.2997 186.653 86.4992 185.856 86.4992C185.06 86.4992 184.491 85.3877 184.15 83.1645C184.036 82.3892 183.894 80.1774 183.723 76.5291C183.609 73.9069 183.382 72.3392 183.04 71.8262C182.87 71.5583 181.647 71.4585 179.371 71.5269C178.802 71.5269 178.347 71.5554 178.006 71.6124H177.75C177.295 71.6124 176.953 71.4129 176.726 71.0139C176.441 70.2728 176.299 69.8738 176.299 69.8168C176.299 68.9959 177.465 68.4259 179.798 68.1066C180.708 68.0154 182.045 67.8729 183.808 67.6791C183.808 67.1946 183.78 66.4649 183.723 65.4901V63.2669C183.723 60.7872 184.32 59.5474 185.515 59.5474C185.799 59.5474 186.112 59.7184 186.454 60.0604C186.795 60.4024 186.966 60.716 186.966 61.001V67.7561C187.591 68.4401 189.014 68.9247 191.232 69.2097C193.451 69.4947 194.959 70.0248 195.755 70.8001L195.84 70.7745ZM214.358 73.3739C213.22 75.7111 212.31 77.7063 211.627 79.3594L210.347 83.2072C210.063 83.9825 209.778 85.1796 209.494 86.7985C209.209 88.4118 208.925 89.6089 208.64 90.3898C208.071 92.0031 207.389 92.7555 206.592 92.6472C205.796 92.5332 205.369 92.0772 205.312 91.2791C205.255 91.1651 205.227 91.0226 205.227 90.8516C205.227 90.7604 205.312 90.3328 205.483 89.569C206.109 86.6959 206.422 84.8604 206.422 84.0623C206.422 83.7545 206.393 83.5435 206.336 83.4295C205.54 82.0386 204.374 79.9294 202.838 77.102C201.302 74.2689 200.619 72.0742 200.79 70.5179C201.586 69.7427 202.183 69.355 202.582 69.355C202.809 69.355 203.094 69.5261 203.435 69.8681C203.776 70.2101 203.975 70.5236 204.032 70.8087C204.544 74.343 205.938 77.5067 208.214 80.3C208.783 79.2739 209.323 78.1224 209.835 76.8455C210.119 76.0474 210.575 74.8646 211.2 73.2969C212.224 70.7545 213.191 69.4833 214.102 69.4833C214.215 69.4833 214.329 69.5118 214.443 69.5688C214.898 69.7398 215.239 70.5379 215.467 71.963L214.358 73.3739ZM95.0617 110.257L86.9329 114.96L89.0662 118.663L97.195 113.96L95.0617 110.257ZM66.2404 126.931L58.1115 131.634L60.2449 135.337L68.3737 130.634L66.2404 126.931ZM75.5204 101.42V110.826H79.787V101.42H75.5204ZM75.5204 134.768V144.174H79.787V134.768H75.5204ZM58.1124 113.96L66.2412 118.663L68.3746 114.96L60.2457 110.257L58.1124 113.96ZM86.9337 130.634L95.0634 135.337L97.1968 131.634L89.067 126.931L86.9337 130.634Z" fill="#333333"/>
<path d="M199.679 120.659L190.293 120.659L190.293 124.935L199.679 124.934L199.679 120.659ZM166.399 120.659L157.013 120.659L157.013 124.935L166.399 124.934L166.399 120.659ZM187.165 103.215L182.472 111.361L186.167 113.499L190.86 105.353L187.165 103.215ZM170.525 132.095L165.832 140.241L169.527 142.379L174.22 134.233L170.525 132.095ZM165.833 105.353L170.526 113.499L174.221 111.361L169.528 103.216L165.833 105.353ZM182.473 134.233L187.166 142.379L190.861 140.242L186.168 132.096L182.473 134.233Z" fill="#333333"/>
<defs>
<linearGradient id="paint0_linear_2115_1813" x1="12.7998" y1="51.8262" x2="12.7998" y2="161.275" gradientUnits="userSpaceOnUse">
<stop stop-color="#FFCC55"/>
<stop offset="0.2" stop-color="#FFCC00"/>
<stop offset="1" stop-color="#FF8800"/>
</linearGradient>
</defs>
</svg>
