<svg width="256" height="256" viewBox="0 0 256 256" fill="none" xmlns="http://www.w3.org/2000/svg">
<rect width="256" height="256" fill="white"/>
<g clip-path="url(#clip0_2_150)">
<path d="M223.5 176.412V141.174L219.69 138.793L128.238 188.793L41.5499 141.174V120.697L128.238 167.84L223.976 115.935V81.1736L220.166 78.7926L128.238 129.269L44.884 83.5545L128.238 37.8402L195.398 74.5069L200.637 71.6497V67.8402L128.238 28.3164L32.5 80.2212V85.4593L128.238 137.84L214.926 90.2212V111.174L128.238 158.793L36.3105 108.316L32.5 110.697V145.935L128.238 197.84L214.926 150.697V171.174L128.238 218.793L36.3105 168.793L32.5 171.174V176.412L128.238 228.316L223.5 176.412Z" fill="#FF3621"/>
</g>
<defs>
<clipPath id="clip0_2_150">
<rect width="191" height="200" fill="white" transform="translate(32.5 28.3164)"/>
</clipPath>
</defs>
</svg>
