<svg width="256" height="256" viewBox="0 0 256 256" fill="none" xmlns="http://www.w3.org/2000/svg">
<g clip-path="url(#clip0_2115_1842)">
<path d="M16.2909 256H152.164C158.68 256 164.571 252.116 167.138 246.128L231.41 96.1652C232.278 94.138 232.727 91.9528 232.727 89.7468V16.2909C232.727 7.29368 225.434 0 216.436 0H144.572C141.354 0 138.208 0.95418 135.529 2.74153L7.25412 88.3524C2.72524 91.3756 0.00698 96.4584 0.00698 101.902L0 239.709C0 248.706 7.29368 256 16.2909 256Z" fill="url(#paint0_linear_2115_1842)"/>
<path d="M197.925 232.727H239.711C248.708 232.727 256.002 225.434 256.002 216.436V164.066C256.002 163.296 255.946 162.525 255.839 161.762L234.728 13.9869C233.581 5.96016 226.708 0 218.6 0H155.908C146.908 0 139.615 7.296 139.617 16.2956L139.636 90.4496C139.636 92.1996 139.918 93.938 140.471 95.5972L182.469 221.589C184.687 228.24 190.913 232.727 197.925 232.727Z" fill="url(#paint1_linear_2115_1842)"/>
<path d="M192.208 232.72L239.71 232.713C248.708 232.713 255.999 225.42 255.999 216.422V170.396C255.999 165.641 253.921 161.122 250.311 158.026L97.6656 27.1871C94.712 24.6573 90.9512 23.2656 87.0624 23.2656H39.5605C30.5632 23.2656 23.2695 30.5593 23.2695 39.5565V85.59C23.2695 90.3448 25.3478 94.864 28.9574 97.9596L181.601 228.796C184.554 231.328 188.317 232.72 192.208 232.72Z" fill="#FF43F2"/>
<path d="M208 48H48V208H208V48Z" fill="black"/>
<path fill-rule="evenodd" clip-rule="evenodd" d="M91.0039 69.4564H67.9763V129.945H91.0039C96.7347 129.945 101.862 128.649 106.384 126.057C110.935 123.464 114.492 119.879 117.057 115.298C119.619 110.69 120.901 105.49 120.901 99.7008C120.901 93.912 119.619 88.7276 117.057 84.1468C114.492 79.5388 110.935 75.9372 106.384 73.3448C101.862 70.7528 96.7347 69.4564 91.0039 69.4564ZM100.336 117.328C97.6283 118.942 94.4759 119.747 90.8743 119.747L79.7715 119.75V79.6544H90.8743C94.4735 79.6544 97.6283 80.4576 100.336 82.0732C103.044 83.6864 105.132 86.0032 106.602 89.0284C108.072 92.0256 108.805 95.5808 108.805 99.7008C108.805 103.821 108.072 107.39 106.602 110.415C105.132 113.412 103.044 115.713 100.336 117.328Z" fill="white"/>
<path d="M141.309 126.92C146.005 129.626 151.247 130.982 157.036 130.982C162.596 130.982 167.607 129.744 172.072 127.265C176.564 124.786 180.094 121.404 182.656 117.111C185.248 112.792 186.544 107.968 186.544 102.638V97.886H160.924V107.174H174.989C174.7 109.416 173.886 111.462 172.546 113.31C170.963 115.498 168.817 117.215 166.109 118.451C163.429 119.689 160.434 120.31 157.122 120.31C153.55 120.31 150.326 119.418 147.444 117.632C144.563 115.845 142.302 113.398 140.66 110.288C139.05 107.151 138.242 103.619 138.242 99.7032C138.242 95.7868 139.047 92.2712 140.66 89.1604C142.304 86.0216 144.565 83.5592 147.444 81.7724C150.324 79.9856 153.55 79.0944 157.122 79.0944C159.543 79.0944 161.804 79.4832 163.906 80.2608C166.01 81.0108 167.838 82.0916 169.394 83.5012C170.979 84.8832 172.231 86.5264 173.152 88.4264H185.769C184.674 84.4804 182.758 80.9968 180.022 77.9716C177.314 74.9468 173.972 72.5972 169.998 70.9284C166.051 69.2596 161.732 68.422 157.036 68.422C151.245 68.422 146.005 69.7876 141.309 72.5256C136.612 75.2312 132.925 78.9784 130.248 83.758C127.57 88.51 126.229 93.824 126.229 99.7008C126.229 105.578 127.57 110.908 130.248 115.688C132.928 120.439 136.615 124.182 141.309 126.92Z" fill="white"/>
<path d="M67.9763 175.999H131.976V187.999H67.9763V175.999Z" fill="white"/>
</g>
<defs>
<linearGradient id="paint0_linear_2115_1842" x1="239.111" y1="15.9278" x2="4.29148" y2="250.747" gradientUnits="userSpaceOnUse">
<stop offset="0.28" stop-color="#7256FF"/>
<stop offset="0.66" stop-color="#00D980"/>
</linearGradient>
<linearGradient id="paint1_linear_2115_1842" x1="258.871" y1="225.515" x2="157.91" y2="7.75448" gradientUnits="userSpaceOnUse">
<stop offset="0.3" stop-color="#FF43F2"/>
<stop offset="0.54" stop-color="#7256FF"/>
</linearGradient>
<clipPath id="clip0_2115_1842">
<rect width="256" height="256" fill="white"/>
</clipPath>
</defs>
</svg>
