<svg xmlns="http://www.w3.org/2000/svg" width="64" height="64" fill="none" viewBox="0 0 64 64">
  <defs>
    <linearGradient id="a" x1="59.7777" x2="1.07287" y1="3.98196" y2="62.6868" gradientUnits="userSpaceOnUse">
      <stop offset=".28" stop-color="#7256FF"/>
      <stop offset=".66" stop-color="#00D980"/>
    </linearGradient>
    <linearGradient id="b" x1="64.7178" x2="39.4774" y1="56.3788" y2="1.93862" gradientUnits="userSpaceOnUse">
      <stop offset=".3" stop-color="#FF43F2"/>
      <stop offset=".54" stop-color="#7256FF"/>
    </linearGradient>
  </defs>
  <path fill="url(#a)" d="M4.07273 64H38.041c1.6291 0 3.1017-.9711 3.7434-2.4681l16.0681-37.4906c.217-.5068.3293-1.0531.3293-1.6046V4.07273C58.1818 1.82342 56.3584 0 54.1091 0h-17.966c-.8046 0-1.5912.238545-2.2609.685382L1.81353 22.0881C.681309 22.8439.001745 24.1146.001745 25.4755L0 59.9273C0 62.1766 1.82342 64 4.07273 64Z"/>
  <path fill="url(#b)" d="M49.4812 58.1818h10.4465c2.2493 0 4.0727-1.8234 4.0727-4.0727V41.0164c0-.1925-.0139-.3851-.0407-.576L58.682 3.49673C58.3952 1.49004 56.6771 0 54.65 0H38.977c-2.2499 0-4.0733 1.824-4.0727 4.07389l.0047 18.53851c0 .4375.0704.8721.2088 1.2869l10.4995 31.4979c.5545 1.6629 2.1109 2.7846 3.8639 2.7846Z"/>
  <path fill="#FF43F2" d="m48.0521 58.18 11.8755-.0017c2.2493 0 4.0722-1.8234 4.0722-4.0727V42.599c0-1.1887-.5196-2.3186-1.422-3.0924L24.4164 6.79677c-.7384-.63244-1.6786-.98036-2.6508-.98036H9.89011c-2.24931 0-4.07273 1.82341-4.07273 4.07272V21.3975c0 1.1887.51957 2.3185 1.42197 3.0924L45.4002 57.1991c.7383.633 1.6786.9804 2.6514.9804l.0005.0005Z"/>
  <path fill="#000" d="M52 12H12v40h40V12Z"/>
  <path fill="#fff" fill-rule="evenodd" d="M22.751 17.3641h-5.7569v15.1222h5.7569c1.4327 0 2.7144-.3241 3.8451-.9721 1.1376-.6481 2.027-1.5444 2.6681-2.6896.6405-1.152.9611-2.4522.9611-3.8994s-.3206-2.7433-.9611-3.8885c-.6411-1.152-1.5305-2.0524-2.6681-2.7005-1.1307-.648-2.4124-.9721-3.8451-.9721Zm2.3331 11.968c-.677.4033-1.4651.6047-2.3655.6047l-2.7757.0006V19.9136h2.7757c.8998 0 1.6885.2008 2.3655.6047.677.4033 1.1989.9825 1.5664 1.7388.3674.7493.5508 1.6381.5508 2.6681s-.1834 1.9222-.5508 2.6785c-.3675.7494-.8894 1.3245-1.5664 1.7284Z" clip-rule="evenodd"/>
  <path fill="#fff" d="M35.3272 31.73c1.174.6764 2.4846 1.0155 3.9318 1.0155 1.3899 0 2.6427-.3096 3.7589-.9293 1.1231-.6197 2.0055-1.4651 2.6461-2.5385.6481-1.0797.9721-2.2856.9721-3.6182v-1.188h-6.405v2.3221h3.5161c-.0722.5605-.2757 1.0719-.6107 1.534-.3958.5468-.9322.9762-1.6092 1.2852-.6701.3095-1.4188.4646-2.2469.4646-.8928 0-1.6989-.2228-2.4193-.6695-.7204-.4467-1.2857-1.0583-1.696-1.836-.4027-.7841-.6046-1.6671-.6046-2.6461 0-.9791.2013-1.858.6046-2.6357.4109-.7847.9762-1.4003 1.696-1.847.7199-.4467 1.5265-.6695 2.4193-.6695.6053 0 1.1706.0972 1.696.2916.526.1875.9831.4577 1.372.8101.3963.3455.7094.7563.9397 1.2313h3.1541c-.2736-.9865-.7528-1.8574-1.4367-2.6137-.677-.7562-1.5126-1.3436-2.5061-1.7608-.9866-.4172-2.0663-.6266-3.2404-.6266-1.4477 0-2.7578.3414-3.9318 1.0259-1.1741.6764-2.0959 1.6132-2.7653 2.8081-.6695 1.188-1.0046 2.5165-1.0046 3.9857 0 1.4692.3351 2.8018 1.0046 3.9967.67 1.1879 1.5918 2.1236 2.7653 2.8081Z"/>
  <path fill="#fff" d="M16.9941 43.9998h16v3h-16v-3Z"/>
</svg>
