<svg width="256" height="256" viewBox="0 0 256 256" fill="none" xmlns="http://www.w3.org/2000/svg">
<g clip-path="url(#clip0_2115_1850)">
<path d="M256 239.702V103.829C256 97.3124 252.116 91.422 246.128 88.8552L96.1652 24.5829C94.138 23.7148 91.9528 23.2656 89.7468 23.2656H16.2909C7.29368 23.2656 0 30.5593 0 39.5565V111.42C0 114.639 0.95418 117.786 2.74153 120.464L88.3548 248.739C91.3756 253.268 96.4608 255.986 101.904 255.986L239.709 255.993C248.706 255.993 256 248.699 256 239.702Z" fill="url(#paint0_linear_2115_1850)"/>
<path d="M232.727 58.0772V16.2909C232.727 7.29368 225.434 0 216.436 0H164.066C163.296 0 162.525 0.055856 161.762 0.162908L13.9869 21.2736C5.96248 22.4186 0 29.2934 0 37.3993V100.091C0 109.091 7.296 116.384 16.2956 116.382L90.4496 116.364C92.1996 116.364 93.938 116.082 95.5972 115.528L221.589 73.53C228.24 71.3124 232.727 65.0892 232.727 58.0772Z" fill="url(#paint1_linear_2115_1850)"/>
<path d="M232.728 63.7904L232.721 16.2886C232.719 7.29368 225.425 0 216.43 0H170.404C165.649 0 161.13 2.07826 158.034 5.68784L27.1949 158.334C24.6652 161.287 23.2734 165.048 23.2734 168.937V216.439C23.2734 225.436 30.5671 232.73 39.5644 232.73H85.5976C90.3524 232.73 94.872 230.651 97.9672 227.042L228.806 74.396C231.339 71.4428 232.728 67.6816 232.728 63.7904Z" fill="#F0EB18"/>
<path d="M208 48H48V208H208V48Z" fill="black"/>
<path fill-rule="evenodd" clip-rule="evenodd" d="M91.2343 67.864H68.3767V127.904H91.2343C96.9231 127.904 102.012 126.617 106.501 124.044C111.018 121.471 114.549 117.933 117.095 113.377C119.638 108.768 120.911 103.622 120.911 97.8848C120.911 92.148 119.638 87.0016 117.095 82.446C114.549 77.8876 111.018 74.2968 106.501 71.7236C102.012 69.1504 96.9231 67.864 91.2343 67.864ZM100.498 115.362C97.8099 116.97 94.6807 117.774 91.1059 117.774L80.0847 117.772V77.9956H91.1059C94.6783 77.9956 97.8099 78.7996 100.498 80.408C103.186 81.9636 105.258 84.2676 106.717 87.2704C108.176 90.2732 108.904 93.8116 108.904 97.8848C108.904 101.958 108.176 105.496 106.717 108.499C105.258 111.502 103.186 113.806 100.498 115.362Z" fill="white"/>
<path d="M137.439 126.564C140.814 128.172 144.674 128.924 149.018 128.924C153.365 128.924 157.227 128.117 160.6 126.509C163.975 124.954 166.589 122.702 168.448 119.915C170.334 117.076 171.278 113.912 171.278 110.374C171.278 107.479 170.635 104.798 169.348 102.386C168.062 99.9204 166.261 97.8828 163.945 96.2216C161.659 94.5076 159.042 93.382 156.097 92.7916L145.889 90.54C144.03 90.1124 142.558 89.3084 141.471 88.2356C140.412 87.1624 139.884 85.768 139.884 84.1068C139.884 82.6596 140.27 81.3728 141.042 80.3C141.813 79.1744 142.886 78.3172 144.258 77.7268C145.659 77.0836 147.274 76.762 149.103 76.762C150.932 76.762 152.547 77.1364 153.949 77.7796C155.378 78.4232 156.478 79.2824 157.25 80.4608C158.022 81.6396 158.408 82.926 158.408 84.3736H170.116C170.086 80.9412 169.172 77.8852 167.37 75.2592C165.599 72.6312 163.111 70.5404 159.908 69.04C156.706 67.5928 153.004 66.8436 148.972 66.8436C144.94 66.8436 141.338 67.5928 138.165 69.148C134.992 70.6508 132.52 72.7944 130.746 75.528C128.975 78.26 128.088 81.318 128.088 84.748C128.088 87.59 128.674 90.1104 129.846 92.4148C131.02 94.666 132.662 96.5408 134.778 98.0964C136.894 99.5964 139.383 100.67 142.241 101.313L152.834 103.672C154.865 104.155 156.45 105.012 157.595 106.298C158.766 107.532 159.352 109.14 159.352 111.07C159.352 112.57 158.923 113.965 158.066 115.144C157.239 116.377 156.051 117.289 154.507 117.986C152.99 118.629 151.302 119.003 149.188 119.003C147.074 119.003 145.2 118.629 143.571 117.878C141.942 117.128 140.669 116.108 139.755 114.769C138.84 113.482 138.383 111.929 138.383 110.213H126.632C126.689 113.859 127.661 117.128 129.547 119.97C131.463 122.812 134.094 125.011 137.439 126.564Z" fill="white"/>
<path d="M67.9763 176.004H131.976V188.004H67.9763V176.004Z" fill="white"/>
</g>
<defs>
<linearGradient id="paint0_linear_2115_1850" x1="15.9278" y1="16.8819" x2="250.747" y2="251.702" gradientUnits="userSpaceOnUse">
<stop offset="0.28" stop-color="#007DFE"/>
<stop offset="0.73" stop-color="#00D980"/>
</linearGradient>
<linearGradient id="paint1_linear_2115_1850" x1="225.515" y1="-2.86952" x2="7.75448" y2="98.0924" gradientUnits="userSpaceOnUse">
<stop offset="0.32" stop-color="#F0EB18"/>
<stop offset="0.55" stop-color="#007DFE"/>
</linearGradient>
<clipPath id="clip0_2115_1850">
<rect width="256" height="256" fill="white"/>
</clipPath>
</defs>
</svg>
