<svg xmlns="http://www.w3.org/2000/svg" fill="none" viewBox="0 0 64 64" width="64px" height="64px"><path fill="url(#paint0_linear)" d="M41.2 0L44.4 40.4L16.5 55.4L0 13L41.2 0Z"/><path fill="url(#paint1_linear)" d="M23.7 36.8L16.5 55.4L0 13L23.7 36.8Z"/><path fill="url(#paint2_linear)" d="M41.1999 0L42.3999 22.3H24.0999L15.8999 7.9L41.1999 0Z"/><path fill="url(#paint3_linear)" d="M34.3 21.2002L64 15.2002V43.3002L43.6 50.9002L35.2001 43.4002L34.3 21.2002Z"/><path fill="#21D789" d="M64 15.2L36.5 44.9L41.2 0L64 15.2Z"/><path fill="url(#paint4_linear)" d="M64 15.2001L48.8 11.6001L43.3 51.3001L64 43.3001V15.2001Z"/><path fill="url(#paint5_linear)" d="M21.8999 12.8999L42.3999 16.0999L63.9999 43.2999L43.2999 51.2999L35.1999 43.3999L21.8999 12.8999Z"/><path fill="url(#paint6_linear)" d="M13.2001 0L42.4001 16.1L32.3001 64H15.3001L0.600098 48.8L13.2001 0Z"/><path fill="url(#paint7_linear)" d="M23.2999 5.6001L10.6999 9.6001L5.8999 28.2001L16.4999 55.4001L36.8999 42.4001L42.3999 16.4001L42.2999 16.1001L23.2999 5.6001Z"/><path fill="url(#paint8_linear)" d="M38.1001 16.6001L42.4001 16.1001L38.1001 16.6001Z"/><path fill="url(#paint9_linear)" d="M20.1001 40.3L28.0001 17.6L13.2001 0L0.600098 48.8L20.1001 40.3Z"/><path fill="url(#paint10_linear)" d="M15.3002 64.0001L5.7002 54.1001L15.3002 64.0001H32.3002H15.3002Z"/><path fill="url(#paint11_linear)" d="M5.8999 28.1998L12.8999 46.1998L16.4999 55.3998L23.6999 36.7998L7.7999 20.7998L5.8999 28.1998Z"/><path fill="url(#paint12_linear)" d="M20.1001 40.2998L32.3001 63.9998H15.3001L0.600098 48.7998L20.1001 40.2998Z"/><path fill="url(#paint13_linear)" d="M20.1001 40.3001L32.3001 64.0001L42.4001 16.1001L28.0001 17.6001L20.1001 40.3001Z"/><path fill="url(#paint14_linear)" d="M36.2001 44.7998L32.3 63.9998H15.3L16.5 55.3998L36.2001 44.7998Z"/><path fill="url(#paint15_linear)" d="M16.5 55.3998L25.4 50.5998L20.1 40.2998L12 43.8998L16.5 55.3998Z"/><path fill="url(#paint16_linear)" d="M25.3999 50.5998L32.2999 63.9998L36.1999 44.7998L25.3999 50.5998Z"/><path fill="url(#paint17_linear)" d="M13.2 0L42.4 16.1L35.5 16.9L28 17.6L13.2 0Z"/><path fill="url(#paint18_linear)" d="M42 15.9001L23.3 5.6001L19 7.0001L28 17.6001L35.5 16.9001L42.1 16.2001L42 15.9001Z"/><path fill="url(#paint19_linear)" d="M39.5 16.4001L42.4 16.1001L39.7 14.6001L39.5 16.4001Z"/><path fill="url(#paint20_linear)" d="M64 43.3001L42.4 16.1001L35.5 16.9001L28 17.6001L64 43.3001Z"/><path fill="url(#paint21_linear)" d="M38.6001 25.2001L48.3001 32.1001L52.0001 28.2001L42.4001 16.1001L39.5001 16.4001L38.6001 25.2001Z"/><path fill="url(#paint22_linear)" d="M46.2 30.5998L64 43.2998L47.2999 22.2998L46.2 30.5998Z"/><path fill="url(#paint23_linear)" d="M64 43.3001L43.3 51.3001L36.5 44.9001L28 17.6001L64 43.3001Z"/><path fill="url(#paint24_linear)" d="M38.6 25.2002L36.5 44.9002L48.3 32.1002L38.6 25.2002Z"/><path fill="url(#paint25_linear)" d="M43.3 51.3001L64 43.3001L46.2001 30.6001L43.3 51.3001Z"/><path fill="url(#paint26_linear)" d="M36.6001 44.7001L36.7001 44.8001L45.5001 35.2001L46.2001 30.6001L37.8001 32.5001L36.6001 44.7001Z"/><path fill="url(#paint27_linear)" d="M43.3 51.3001L36.5 44.9001L28 17.6001L43.3 51.3001Z"/><path fill="url(#paint28_linear)" d="M36.5 44.9L43.3 51.3L37.2 38L36.5 44.9Z"/><path fill="url(#paint29_linear)" d="M41.2 0L36.5 44.9L45.5 35.2L48.8 11.6L41.2 0Z"/><path fill="url(#paint30_linear)" d="M64 15.2L48.7999 11.6L41.2 0L64 15.2Z"/><path fill="url(#paint31_linear)" d="M52 12H12V52H52V12Z"/><g opacity=".3"><path fill="url(#paint32_linear)" d="M12 44.2L15.05 52H21.85L44.15 39.95L41.9 12H12V44.2Z" opacity=".3"/><path fill="url(#paint33_linear)" d="M39.6 12L36.25 44.5L45.25 34.8L48.4 12H39.6Z" opacity=".3"/><path fill="url(#paint34_linear)" d="M52 12.05L51.7 12H48.4L43 50.95L52 47.45V12.05Z" opacity=".3"/><path fill="url(#paint35_linear)" d="M52 34.55L27.7 17.25L36.25 44.5L43 50.95L52 47.45V34.55Z" opacity=".3"/><path fill="url(#paint36_linear)" d="M12 52H34.5L42.15 15.75L35.35 12H12V52Z" opacity=".3"/><path fill="url(#paint37_linear)" d="M12 43.35L19.8 39.95L27.7 17.25L23.3 12H12V43.35Z" opacity=".3"/><path fill="url(#paint38_linear)" d="M27.7 17.25L35.25 16.45L42.15 15.75L41.75 15.55L36.35 12.55L35.35 12H23.3L27.7 17.25Z" opacity=".3"/></g><path fill="#fff" d="M32 44.4502H17V46.9502H32V44.4502Z"/><path fill="#fff" d="M17 17.001H22.8345C27.5625 17.001 30.8821 20.22 30.8821 24.445C30.8821 28.67 27.5625 31.9896 22.8345 31.9896H17V17.001ZM20.3196 20.0188V29.0724H22.8345C25.5506 29.0724 27.3613 27.2616 27.3613 24.5456C27.3613 21.8295 25.5506 20.0188 22.8345 20.0188H20.3196Z"/><path fill="#fff" d="M32.0891 29.9777L34.101 27.5634C35.5093 28.67 36.9177 29.3742 38.6278 29.3742C40.0361 29.3742 40.8409 28.8712 40.8409 27.9658C40.8409 27.1611 40.3379 26.6581 37.823 26.0545C34.8052 25.2498 32.7933 24.445 32.7933 21.4272C32.7933 18.7111 35.0064 16.7998 38.1248 16.7998C40.3379 16.7998 42.2492 17.504 43.7581 18.7111L42.048 21.226C40.7403 20.3206 39.3319 19.7171 38.1248 19.7171C36.8171 19.7171 36.2135 20.3206 36.2135 21.0248C36.2135 22.0307 36.8171 22.3325 39.5331 23.0367C42.6516 23.8414 44.3617 24.948 44.3617 27.5634C44.3617 30.5813 42.048 32.2914 38.829 32.2914C36.2135 32.392 33.8998 31.5872 32.0891 29.9777Z"/><defs><linearGradient id="paint0_linear" x1="49.727" x2="5.283" y1="27.723" y2="27.723" gradientUnits="userSpaceOnUse"><stop offset=".078" stop-color="#21D789"/><stop offset=".873" stop-color="#FCF84A"/></linearGradient><linearGradient id="paint1_linear" x1="16.21" x2="9.867" y1="28.175" y2="32.975" gradientUnits="userSpaceOnUse"><stop offset=".078" stop-color="#fff"/><stop offset=".873" stop-color="#FCF84A"/></linearGradient><linearGradient id="paint2_linear" x1="33.188" x2="39.624" y1="9.221" y2="-.152" gradientUnits="userSpaceOnUse"><stop offset=".095" stop-color="#BBF8AF" stop-opacity="0"/><stop offset="1" stop-color="#21FF79"/></linearGradient><linearGradient id="paint3_linear" x1="49.157" x2="49.157" y1="18.476" y2="71.421" gradientUnits="userSpaceOnUse"><stop offset="0" stop-color="#21D789"/><stop offset="1" stop-color="#087CFA"/></linearGradient><linearGradient id="paint4_linear" x1="69.468" x2="31.54" y1="39.976" y2="23.905" gradientUnits="userSpaceOnUse"><stop offset=".02" stop-color="#21D789" stop-opacity="0"/><stop offset="1" stop-color="#00FF6A"/></linearGradient><linearGradient id="paint5_linear" x1="84.241" x2="21.095" y1="67.216" y2="16.131" gradientUnits="userSpaceOnUse"><stop offset=".105" stop-color="#21D789"/><stop offset=".967" stop-color="#087CFA"/></linearGradient><linearGradient id="paint6_linear" x1="55.333" x2="11.222" y1="-4.926" y2="45.066" gradientUnits="userSpaceOnUse"><stop offset=".235" stop-color="#21D789"/><stop offset=".74" stop-color="#087CFA"/></linearGradient><linearGradient id="paint7_linear" x1="-.462" x2="24.652" y1="13.226" y2="32.169" gradientUnits="userSpaceOnUse"><stop offset=".078" stop-color="#21D789"/><stop offset=".828" stop-color="#087CFA" stop-opacity="0"/></linearGradient><linearGradient id="paint8_linear" x1="40.152" x2="41.071" y1="16.524" y2="15.368" gradientUnits="userSpaceOnUse"><stop offset=".078" stop-color="#21D789" stop-opacity="0"/><stop offset=".873" stop-color="#01D0FF"/></linearGradient><linearGradient id="paint9_linear" x1="8.75" x2="25.461" y1="30.091" y2="9.061" gradientUnits="userSpaceOnUse"><stop offset=".383" stop-color="#087CFA" stop-opacity="0"/><stop offset="1" stop-color="#01EFDB"/></linearGradient><linearGradient id="paint10_linear" x1="18.006" x2="21.234" y1="60.336" y2="56.274" gradientUnits="userSpaceOnUse"><stop offset=".078" stop-color="#21D789" stop-opacity="0"/><stop offset=".873" stop-color="#01D0FF"/></linearGradient><linearGradient id="paint11_linear" x1="15.178" x2="14.835" y1="19.44" y2="31.526" gradientUnits="userSpaceOnUse"><stop offset=".078" stop-color="#21D789"/><stop offset=".828" stop-color="#087CFA" stop-opacity="0"/></linearGradient><linearGradient id="paint12_linear" x1="38.519" x2="9.719" y1="28.117" y2="65.06" gradientUnits="userSpaceOnUse"><stop offset=".235" stop-color="#083FFA"/><stop offset=".74" stop-color="#087CFA"/></linearGradient><linearGradient id="paint13_linear" x1="16.847" x2="44.875" y1="3.522" y2="53.407" gradientUnits="userSpaceOnUse"><stop offset=".246" stop-color="#083FFA"/><stop offset=".913" stop-color="#087CFA"/></linearGradient><linearGradient id="paint14_linear" x1="16.931" x2="31.322" y1="45.56" y2="59.951" gradientUnits="userSpaceOnUse"><stop offset=".235" stop-color="#089FFF"/><stop offset=".74" stop-color="#087CFA" stop-opacity="0"/></linearGradient><linearGradient id="paint15_linear" x1="26.212" x2="16.704" y1="56.525" y2="46.161" gradientUnits="userSpaceOnUse"><stop offset=".153" stop-color="#0832FF"/><stop offset=".914" stop-color="#087CFA" stop-opacity="0"/></linearGradient><linearGradient id="paint16_linear" x1="39.767" x2="28.198" y1="60.907" y2="47.215" gradientUnits="userSpaceOnUse"><stop offset=".153" stop-color="#0832FF"/><stop offset=".914" stop-color="#087CFA" stop-opacity="0"/></linearGradient><linearGradient id="paint17_linear" x1="27.528" x2="27.934" y1="-14.351" y2="19.733" gradientUnits="userSpaceOnUse"><stop offset=".235" stop-color="#21D789"/><stop offset=".825" stop-color="#087CFA"/></linearGradient><linearGradient id="paint18_linear" x1="30.374" x2="29.497" y1="10.004" y2="1.895" gradientUnits="userSpaceOnUse"><stop offset=".095" stop-color="#BBF8AF" stop-opacity="0"/><stop offset="1" stop-color="#21FF79"/></linearGradient><linearGradient id="paint19_linear" x1="41.831" x2="39.031" y1="17.317" y2="14.064" gradientUnits="userSpaceOnUse"><stop offset="0" stop-color="#21D789" stop-opacity="0"/><stop offset=".918" stop-color="#21D789"/></linearGradient><linearGradient id="paint20_linear" x1="57.147" x2="35.715" y1="47.188" y2="15.041" gradientUnits="userSpaceOnUse"><stop offset=".028" stop-color="#21D789"/><stop offset=".929" stop-color="#0860FA"/></linearGradient><linearGradient id="paint21_linear" x1="45.753" x2="43.31" y1="30.152" y2="12.152" gradientUnits="userSpaceOnUse"><stop offset=".076" stop-color="#087CFA" stop-opacity="0"/><stop offset="1" stop-color="#21D789" stop-opacity=".6"/></linearGradient><linearGradient id="paint22_linear" x1="52.077" x2="40.248" y1="32.782" y2="16.453" gradientUnits="userSpaceOnUse"><stop offset=".076" stop-color="#087CFA" stop-opacity="0"/><stop offset="1" stop-color="#4F46C6" stop-opacity=".6"/></linearGradient><linearGradient id="paint23_linear" x1="53.815" x2="32.383" y1="49.41" y2="17.262" gradientUnits="userSpaceOnUse"><stop offset="0" stop-color="#18AFAF"/><stop offset=".659" stop-color="#0860FA"/><stop offset=".998" stop-color="#084CFA"/></linearGradient><linearGradient id="paint24_linear" x1="43.602" x2="35.117" y1="40.368" y2="26.868" gradientUnits="userSpaceOnUse"><stop offset=".076" stop-color="#087CFA" stop-opacity="0"/><stop offset="1" stop-color="#21D789" stop-opacity=".6"/></linearGradient><linearGradient id="paint25_linear" x1="53.504" x2="39.961" y1="47.181" y2="34.554" gradientUnits="userSpaceOnUse"><stop offset=".076" stop-color="#087CFA" stop-opacity="0"/><stop offset="1" stop-color="#21D789" stop-opacity=".6"/></linearGradient><linearGradient id="paint26_linear" x1="40.017" x2="35.335" y1="36.371" y2="32.006" gradientUnits="userSpaceOnUse"><stop offset="0" stop-color="#087CFA" stop-opacity="0"/><stop offset=".855" stop-color="#0841FA"/></linearGradient><linearGradient id="paint27_linear" x1="44.632" x2="25.698" y1="49.825" y2="21.423" gradientUnits="userSpaceOnUse"><stop offset="0" stop-color="#089CFA"/><stop offset=".74" stop-color="#083CFA"/></linearGradient><linearGradient id="paint28_linear" x1="43.291" x2="35.818" y1="51.072" y2="39.863" gradientUnits="userSpaceOnUse"><stop offset="0" stop-color="#087CFA" stop-opacity="0"/><stop offset=".979" stop-color="#0860FA"/></linearGradient><linearGradient id="paint29_linear" x1="42.705" x2="45.705" y1="20.503" y2="6.789" gradientUnits="userSpaceOnUse"><stop offset=".355" stop-color="#BBF8AF" stop-opacity="0"/><stop offset="1" stop-color="#21FF79"/></linearGradient><linearGradient id="paint30_linear" x1="39.765" x2="57.422" y1=".906" y2="14.192" gradientUnits="userSpaceOnUse"><stop offset=".02" stop-color="#BBF8AF" stop-opacity="0"/><stop offset="1" stop-color="#21FF79"/></linearGradient><linearGradient id="paint31_linear" x1="12.336" x2="53.366" y1="12.336" y2="53.366" gradientUnits="userSpaceOnUse"><stop offset=".028" stop-color="#002846"/><stop offset=".137" stop-color="#002038"/><stop offset=".495" stop-color="#000910"/><stop offset=".679"/></linearGradient><linearGradient id="paint32_linear" x1="8.178" x2="40.333" y1="32" y2="32" gradientUnits="userSpaceOnUse"><stop offset=".078" stop-color="#21D789"/><stop offset=".873" stop-color="#FCF84A"/></linearGradient><linearGradient id="paint33_linear" x1="42.825" x2="41.644" y1="41.937" y2="9.179" gradientUnits="userSpaceOnUse"><stop offset="0" stop-color="#218640"/><stop offset=".803" stop-color="#B5FA59"/></linearGradient><linearGradient id="paint34_linear" x1="46.802" x2="48.564" y1="14.348" y2="58.398" gradientUnits="userSpaceOnUse"><stop offset=".235" stop-color="#21D789"/><stop offset="1" stop-color="#083450"/></linearGradient><linearGradient id="paint35_linear" x1="49.909" x2="29.887" y1="48.21" y2="18.177" gradientUnits="userSpaceOnUse"><stop offset="0" stop-color="#021A43"/><stop offset=".659" stop-color="#0860FA"/></linearGradient><linearGradient id="paint36_linear" x1="24.714" x2="28.605" y1="-.048" y2="56.043" gradientUnits="userSpaceOnUse"><stop offset=".235" stop-color="#21D789"/><stop offset=".74" stop-color="#083450"/></linearGradient><linearGradient id="paint37_linear" x1="21.246" x2="17.795" y1="43.404" y2="10.954" gradientUnits="userSpaceOnUse"><stop offset=".227" stop-color="#086C93"/><stop offset=".82" stop-color="#01EFDB"/></linearGradient><linearGradient id="paint38_linear" x1="24.72" x2="44.427" y1="12.502" y2="18.66" gradientUnits="userSpaceOnUse"><stop offset=".251" stop-color="#21D789"/><stop offset=".885" stop-color="#0C515A"/></linearGradient></defs><path fill="#FDB60D" d="M56.1887 64H23.8113C21.7397 64 19.7528 63.1771 18.2879 61.7122C16.823 60.2473 16 58.2604 16 56.1887V47.8113C16 46.7855 16.202 45.7697 16.5946 44.822C16.9872 43.8743 17.5626 43.0132 18.2879 42.2878C19.0133 41.5625 19.8743 40.9872 20.8221 40.5946C21.7698 40.202 22.7855 40 23.8113 40H56.1887C58.2604 40 60.2472 40.8229 61.7121 42.2878C63.177 43.7527 64 45.7396 64 47.8113V56.1887C64 58.2604 63.177 60.2473 61.7121 61.7122C60.2472 63.1771 58.2604 64 56.1887 64Z"/><path fill="#000" d="M24.9124 46.7561H33.1512V48.8945H27.2997V51.1102H32.4492V53.2476H27.2997V55.5415H33.2294V57.679H24.9124V46.7561Z"/><path fill="#000" d="M39.1113 46.679H41.327L46.0082 57.679H43.4959L42.4973 55.2296H37.8791L36.8805 57.679H34.4312L39.1113 46.679ZM41.6399 53.1074L40.1882 49.5651L38.7375 53.1074H41.6399Z"/><path fill="#000" d="M47.6936 46.7561H52.1564C54.7621 46.7561 56.3378 48.3013 56.3378 50.5321V50.5636C56.3378 53.0911 54.372 54.4026 51.9228 54.4026H50.0972V57.6788H47.6936L47.6936 46.7561ZM51.9999 52.2643C52.2361 52.2943 52.4759 52.274 52.7037 52.205C52.9315 52.1359 53.1422 52.0194 53.3219 51.8633C53.5016 51.7072 53.6463 51.5149 53.7466 51.299C53.8468 51.083 53.9004 50.8484 53.9037 50.6104V50.5789C53.9037 49.503 53.155 48.925 51.9532 48.925H50.0972V52.2643H51.9999Z"/></svg>
