<svg xmlns="http://www.w3.org/2000/svg" width="64" height="64" fill="none" viewBox="0 0 64 64">
  <defs>
    <linearGradient id="a" x1="3.98196" x2="62.6868" y1="4.22048" y2="62.9254" gradientUnits="userSpaceOnUse">
      <stop offset=".28" stop-color="#007DFE"/>
      <stop offset=".73" stop-color="#00D980"/>
    </linearGradient>
    <linearGradient id="b" x1="56.3788" x2="1.93862" y1="-.717381" y2="24.5231" gradientUnits="userSpaceOnUse">
      <stop offset=".32" stop-color="#F0EB18"/>
      <stop offset=".55" stop-color="#007DFE"/>
    </linearGradient>
  </defs>
  <path fill="url(#a)" d="M64 59.9255V25.9572c0-1.6291-.9711-3.1017-2.4681-3.7434L24.0413 6.14572c-.5068-.21702-1.0531-.32931-1.6046-.32931H4.07273C1.82342 5.81641 0 7.63982 0 9.88913V27.8551c0 .8047.238545 1.5913.685382 2.2609L22.0887 62.1847c.7552 1.1322 2.0265 1.8118 3.3874 1.8118l34.4512.0017c2.2493 0 4.0727-1.8234 4.0727-4.0727Z"/>
  <path fill="url(#b)" d="M58.1818 14.5193V4.07273C58.1818 1.82342 56.3584 0 54.1091 0H41.0164c-.1925 0-.3851.013964-.576.040727L3.49673 5.3184C1.49062 5.60465 0 7.32334 0 9.34982V25.0228c0 2.2499 1.824 4.0733 4.07389 4.0728l18.53851-.0047c.4375 0 .8721-.0704 1.2869-.2089l31.4979-10.4995c1.6629-.5544 2.7846-2.1108 2.7846-3.8638v.0006Z"/>
  <path fill="#F0EB18" d="m58.182 15.9476-.0018-11.87545C58.1797 1.82342 56.3562 0 54.1075 0H42.6009c-1.1886 0-2.3185.519564-3.0924 1.42196L6.79872 39.5834c-.63243.7383-.98036 1.6786-.98036 2.6508v11.8755c0 2.2493 1.82342 4.0727 4.07273 4.0727H21.3994c1.1887 0 2.3186-.5196 3.0924-1.422L57.2016 18.599c.6331-.7383.9804-1.6786.9804-2.6514Z"/>
  <path fill="#000" d="M52 12H12v40h40V12Z"/>
  <path fill="#fff" fill-rule="evenodd" d="M22.8086 16.966h-5.7144v15.0099h5.7144c1.4222 0 2.6944-.3216 3.8167-.9649 1.1292-.6433 2.012-1.5278 2.6484-2.6668.6358-1.1522.954-2.4388.954-3.873 0-1.4342-.3182-2.7208-.954-3.8597-.6364-1.1396-1.5192-2.0373-2.6484-2.6806-1.1223-.6433-2.3945-.9649-3.8167-.9649Zm2.3159 11.8744c-.672.4021-1.4543.6031-2.348.6031l-2.7553-.0005v-9.9441h2.7553c.8931 0 1.676.201 2.348.6031.672.3889 1.1901.9649 1.5548 1.7156s.5468 1.6353.5468 2.6536c0 1.0184-.1821 1.9029-.5468 2.6536-.3647.7507-.8828 1.3268-1.5548 1.7156Z" clip-rule="evenodd"/>
  <path fill="#fff" d="M34.3597 31.6411c.8438.402 1.8087.5898 2.8949.5898 1.0867 0 2.0522-.2016 2.8954-.6036.8437-.3889 1.4973-.9517 1.962-1.6485.4715-.7099.7076-1.5008.7076-2.3853 0-.7237-.1608-1.394-.4825-1.9971-.3216-.6163-.7719-1.1257-1.3509-1.541-.5715-.4285-1.2257-.7099-1.962-.8575l-2.5519-.5629c-.4647-.1069-.8329-.3079-1.1045-.5761-.2648-.2683-.3969-.6169-.3969-1.0322 0-.3618.0965-.6835.2895-.9517.1929-.2814.4612-.4957.8041-.6433.3503-.1608.7541-.2412 1.2113-.2412.4572 0 .861.0936 1.2114.2544.3572.1609.6323.3757.8253.6703.193.2947.2895.6163.2895.9782h2.927c-.0075-.8581-.2361-1.6221-.6864-2.2786-.4428-.657-1.0649-1.1797-1.8655-1.5548-.8007-.3618-1.726-.5491-2.734-.5491s-1.9087.1873-2.7019.5761c-.7932.3757-1.4112.9116-1.8546 1.595-.4428.683-.6645 1.4475-.6645 2.305 0 .7105.1464 1.3406.4394 1.9167.2935.5628.7041 1.0315 1.2331 1.4204.529.375 1.1511.6433 1.8656.8041l2.6484.5899c.5077.1206.904.3348 1.1901.6565.2929.3084.4394.7105.4394 1.1929 0 .3751-.1074.7237-.3217 1.0184-.2067.3084-.5037.5364-.8897.7105-.3791.1608-.8012.2544-1.3296.2544-.5285 0-.9971-.0936-1.4044-.2814-.4072-.1873-.7254-.4423-.954-.7771-.2286-.3217-.3429-.71-.3429-1.139h-2.9379c.0144.9115.2573 1.7288.7289 2.4393.479.7105 1.1367 1.2602 1.9729 1.6485Z"/>
  <path fill="#fff" d="M16.9941 44.0009h16v3h-16v-3Z"/>
</svg>
