<svg width="256" height="256" viewBox="0 0 256 256" fill="none" xmlns="http://www.w3.org/2000/svg">
<path d="M213.333 154.917C209.096 157.089 204.37 159.047 199.26 160.75C179.869 167.214 154.241 170.667 128 170.667C101.759 170.667 76.1306 167.214 56.7395 160.75C51.6295 159.047 46.904 157.089 42.6666 154.917V202.688C42.669 202.703 42.6735 202.734 42.6874 202.781C42.7193 202.888 42.8088 203.111 43.0103 203.448C43.4345 204.155 44.3186 205.251 45.9999 206.604C49.4251 209.359 55.1498 212.397 63.4895 215.177C80.1054 220.716 103.32 224 128 224C152.68 224 175.894 220.716 192.51 215.177C200.85 212.397 206.575 209.359 210 206.604C211.681 205.251 212.565 204.155 212.989 203.448C213.191 203.111 213.281 202.888 213.312 202.781C213.326 202.734 213.331 202.703 213.333 202.688V154.917ZM213.333 80.2604C209.052 82.4505 204.31 84.4001 199.26 86.0834C180.534 92.3255 155.337 96 128 96C100.663 96 75.4659 92.3255 56.7395 86.0834C51.6901 84.4001 46.9478 82.4505 42.6666 80.2604V128.021C42.669 128.036 42.6735 128.067 42.6874 128.115C42.7193 128.222 42.8088 128.445 43.0103 128.781C43.4345 129.489 44.3186 130.584 45.9999 131.938C49.4251 134.693 55.1498 137.73 63.4895 140.51C80.1054 146.049 103.32 149.333 128 149.333C152.68 149.333 175.894 146.049 192.51 140.51C200.85 137.73 206.575 134.693 210 131.938C211.681 130.584 212.565 129.489 212.989 128.781C213.191 128.445 213.281 128.222 213.312 128.115C213.326 128.067 213.331 128.036 213.333 128.021V80.2604ZM213.302 53.1667C213.265 53.0472 213.171 52.8164 212.958 52.4688C212.506 51.7317 211.582 50.6225 209.854 49.2604C206.332 46.4849 200.575 43.5113 192.51 40.8229C176.492 35.4834 153.682 32 128 32C102.318 32 79.5082 35.4834 63.4895 40.8229C55.4246 43.5113 49.6676 46.4849 46.1458 49.2604C44.418 50.6225 43.4941 51.7317 43.0416 52.4688C42.8285 52.8164 42.7345 53.0472 42.6978 53.1667C42.6642 53.2771 42.6666 53.3256 42.6666 53.3334C42.6666 53.3411 42.6642 53.3896 42.6978 53.5C42.7345 53.6195 42.8285 53.8504 43.0416 54.1979C43.4941 54.935 44.418 56.0442 46.1458 57.4063C49.6676 60.1818 55.4246 63.1554 63.4895 65.8438C79.5082 71.1834 102.318 74.6667 128 74.6667C153.682 74.6667 176.492 71.1834 192.51 65.8438C200.575 63.1554 206.332 60.1818 209.854 57.4063C211.582 56.0442 212.506 54.935 212.958 54.1979C213.171 53.8504 213.265 53.6195 213.302 53.5C213.336 53.3896 213.333 53.3411 213.333 53.3334C213.333 53.3256 213.336 53.2771 213.302 53.1667ZM234.667 202.667C234.667 211.469 229.41 218.362 223.375 223.219C217.243 228.153 208.919 232.197 199.26 235.417C179.869 241.88 154.241 245.333 128 245.333C101.759 245.333 76.1306 241.88 56.7395 235.417C47.0812 232.197 38.7572 228.153 32.6249 223.219C26.9667 218.665 21.9939 212.322 21.3958 204.292L21.3333 202.667V53.3334C21.3333 44.2473 26.8649 37.2865 32.9374 32.5C39.1305 27.6194 47.4335 23.6857 56.7395 20.5834C75.4659 14.3412 100.663 10.6667 128 10.6667C155.337 10.6667 180.534 14.3412 199.26 20.5834C208.566 23.6857 216.869 27.6194 223.062 32.5C229.135 37.2865 234.667 44.2473 234.667 53.3334V202.667Z" fill="white"/>
</svg>
