<svg width="256" height="256" viewBox="0 0 256 256" fill="none" xmlns="http://www.w3.org/2000/svg">
<rect width="256" height="256" fill="white"/>
<g clip-path="url(#clip0_2_88)">
<path fill-rule="evenodd" clip-rule="evenodd" d="M191.094 170.295L174.453 159.327L160.571 182.497L144.425 177.78L130.209 199.462L130.937 206.287L208.232 192.056L203.743 143.798L191.094 170.295ZM119.01 149.488L131.412 147.784C133.418 148.685 134.815 149.028 137.221 149.64C140.968 150.616 145.305 151.552 151.729 148.316C153.224 147.576 156.338 144.731 157.597 143.109L208.407 133.898L213.591 196.584L126.544 212.26L119.01 149.488ZM213.394 126.901L208.379 127.855L198.744 28.3794L34.5631 47.4026L54.7896 211.417L74.007 208.63C72.4723 206.441 70.0827 203.792 66.0019 200.4C60.342 195.702 62.3439 187.721 65.6819 182.682C70.099 174.167 92.8577 163.346 91.5682 149.736C91.1057 144.787 90.3185 138.345 85.7215 133.931C85.5486 135.763 85.8593 137.528 85.8593 137.528C85.8593 137.528 83.9719 135.122 83.0305 131.84C82.0962 130.582 81.3627 130.18 80.37 128.5C79.6622 130.444 79.7556 132.699 79.7556 132.699C79.7556 132.699 78.2116 129.053 77.9617 125.976C77.046 127.354 76.8147 129.97 76.8147 129.97C76.8147 129.97 74.8082 124.224 75.266 121.128C74.3504 118.435 71.6361 113.09 72.4046 100.941C77.4151 104.449 88.4451 103.615 92.7432 97.2853C94.1704 95.1893 95.1468 89.466 92.0307 78.1898C90.0289 70.9586 85.0721 60.1913 83.1403 56.1066L82.9091 56.2723C83.9275 59.5634 86.0275 66.4631 86.8334 69.8079C89.2721 79.9544 89.9261 83.4859 88.7815 88.1635C87.8075 92.2296 85.4716 94.8905 79.5501 97.8642C73.6286 100.847 65.7706 93.588 65.2731 93.1866C59.5198 88.607 55.0699 81.1355 54.5723 77.5059C54.0561 73.5332 56.8639 71.1477 58.2794 67.8986C56.2542 68.4775 53.9954 69.5045 53.9954 69.5045C53.9954 69.5045 56.691 66.7175 60.015 64.3064C61.3908 63.3961 62.199 62.8172 63.6496 61.6128C61.5497 61.5778 59.8445 61.6385 59.8445 61.6385C59.8445 61.6385 63.346 59.7478 66.9759 58.3707C64.32 58.254 61.7786 58.352 61.7786 58.352C61.7786 58.352 69.5921 54.8601 75.7636 52.2973C80.0079 50.5583 84.1541 51.0718 86.483 54.4377C89.5407 58.8468 92.7525 61.2417 99.5593 62.7262C103.738 60.8752 105.009 59.9229 110.26 58.4944C114.883 53.4153 118.513 52.7571 118.513 52.7571C118.513 52.7571 116.712 54.4073 116.231 57.0005C118.851 54.9372 121.725 53.2146 121.725 53.2146C121.725 53.2146 120.613 54.587 119.576 56.7671L119.816 57.1242C122.874 55.292 126.469 53.8471 126.469 53.8471C126.469 53.8471 125.441 55.1449 124.236 56.8255C126.541 56.8068 131.218 56.9235 133.033 57.1289C143.747 57.3647 145.971 45.694 150.082 44.2305C155.231 42.3935 157.532 41.2825 166.305 49.8931C173.834 57.2853 179.716 70.5175 176.796 73.4818C174.348 75.942 169.517 72.5225 164.163 65.8539C161.334 62.3224 159.195 58.1489 158.193 52.8435C157.347 48.3666 154.056 45.7687 154.056 45.7687C154.056 45.7687 155.966 50.0122 155.966 53.7608C155.966 55.8078 156.223 63.4614 159.508 67.7562C159.183 68.3841 159.031 70.8629 158.671 71.3368C154.85 66.7222 146.644 63.4194 145.305 62.4461C149.835 66.155 160.246 74.6746 164.245 82.8394C168.027 90.5607 165.798 97.6378 167.711 99.4701C168.256 99.9952 175.845 109.444 177.305 114.191C179.851 122.466 177.457 131.161 174.123 136.555L164.815 138.004C163.453 137.626 162.535 137.437 161.313 136.73C161.986 135.539 163.325 132.57 163.339 131.959L162.813 131.037C159.916 135.138 155.063 139.12 151.031 141.407C145.754 144.395 139.671 143.935 135.712 142.71C124.474 139.246 113.848 131.658 111.286 129.664C111.286 129.664 111.206 131.256 111.69 131.613C114.523 134.806 121.015 140.583 127.289 144.61L113.913 146.08L120.237 195.279C117.434 195.681 116.997 195.877 113.927 196.313C111.222 186.764 106.048 180.53 100.393 176.898C95.4061 173.695 88.5269 172.974 81.942 174.277L81.5192 174.767C86.0976 174.291 91.5028 174.954 97.0553 178.466C102.505 181.909 106.896 190.802 108.513 196.157C110.582 203 112.014 210.32 106.443 218.079C102.479 223.594 90.9072 226.643 81.5589 220.049C84.056 224.061 87.4314 227.343 91.9747 227.962C98.7207 228.877 105.123 227.707 109.531 223.186C113.294 219.321 115.289 211.238 114.764 202.725L120.718 201.861L122.867 217.141L221.437 205.281L213.394 126.901ZM153.425 85.4069C153.149 86.0348 152.717 86.4456 153.367 88.488L153.406 88.6047L153.509 88.8684L153.78 89.48C154.95 91.8701 156.235 94.1249 158.382 95.2756C158.938 95.1823 159.512 95.1192 160.108 95.0889C162.124 95.0002 163.397 95.32 164.205 95.7541C164.278 95.3527 164.294 94.7644 164.25 93.8985C164.093 90.8711 164.85 85.722 159.027 83.0121C156.828 81.9921 153.745 82.3072 152.717 83.5793C152.904 83.6026 153.072 83.6423 153.203 83.6867C154.757 84.2305 153.703 84.765 153.425 85.4069ZM169.746 113.655C168.982 113.234 165.413 113.4 162.904 113.699C158.125 114.261 152.965 115.919 151.834 116.801C149.779 118.388 150.713 121.156 152.231 122.293C156.49 125.472 160.223 127.603 164.163 127.085C166.583 126.768 168.716 122.94 170.227 119.467C171.262 117.074 171.262 114.493 169.746 113.655ZM127.434 89.1555C128.781 87.8764 120.72 86.1959 114.465 90.458C109.851 93.6021 109.704 100.343 114.121 104.164C114.563 104.542 114.927 104.811 115.268 105.03C116.558 104.423 118.027 103.809 119.718 103.261C122.575 102.334 124.951 101.856 126.903 101.601C127.838 100.558 128.924 98.7208 128.653 95.3947C128.284 90.8828 124.862 91.5994 127.434 89.1555Z" fill="#632CA6"/>
</g>
<defs>
<clipPath id="clip0_2_88">
<rect width="187" height="200" fill="white" transform="translate(34.5 28.3164)"/>
</clipPath>
</defs>
</svg>
