<svg width="82" height="80" xmlns="http://www.w3.org/2000/svg" xmlns:xlink="http://www.w3.org/1999/xlink" xml:space="preserve" overflow="hidden"><g transform="translate(-550 -124)"><g><g><g><g><path d="M551 124 631 124 631 204 551 204Z" fill="#ED7100" fill-rule="evenodd" fill-opacity="1"/><path d="M612.069 162.386C607.327 165.345 600.717 168.353 593.46 170.855 588.339 172.62 583.33 173.978 578.865 174.838 582.727 184.68 589.944 191.037 596.977 189.853 603.514 188.75 608.387 181.093 609.1 170.801L611.096 170.939C610.304 182.347 604.893 190.545 597.309 191.825 596.648 191.937 595.984 191.991 595.323 191.991 587.945 191.991 580.718 185.209 576.871 175.194 575.733 175.38 574.625 175.542 573.584 175.653 572.173 175.803 570.901 175.879 569.769 175.879 565.95 175.879 563.726 175.025 563.141 173.328 562.414 171.218 564.496 168.566 569.328 165.445L570.414 167.125C565.704 170.167 564.814 172.046 565.032 172.677 565.263 173.348 567.279 174.313 573.372 173.665 574.267 173.57 575.216 173.433 576.187 173.28 575.537 171.297 575.014 169.205 574.647 167.028 573.406 159.673 574.056 152.438 576.48 146.654 578.969 140.715 583.031 136.99 587.917 136.166 593.803 135.171 600.075 138.691 604.679 145.579L603.017 146.69C598.862 140.476 593.349 137.28 588.249 138.138 584.063 138.844 580.539 142.143 578.325 147.427 576.046 152.866 575.44 159.709 576.62 166.695 576.988 168.876 577.515 170.966 578.173 172.937 582.618 172.1 587.651 170.742 592.807 168.965 599.927 166.51 606.392 163.572 611.01 160.689 616.207 157.447 617.201 155.444 616.969 154.772 616.769 154.189 615.095 153.299 610.097 153.653L609.957 151.657C615.171 151.289 618.171 152.116 618.86 154.12 619.619 156.32 617.334 159.101 612.069 162.386" fill="#FFFFFF" fill-rule="evenodd" fill-opacity="1"/></g></g></g></g></g></svg>