<svg width="256" height="256" viewBox="0 0 256 256" fill="none" xmlns="http://www.w3.org/2000/svg">
<path fill-rule="evenodd" clip-rule="evenodd" d="M0 0H256V256H0V0Z" fill="#ED7100"/>
<path fill-rule="evenodd" clip-rule="evenodd" d="M195.422 122.836C180.248 132.304 159.096 141.93 135.873 149.936C119.486 155.584 103.457 159.93 89.1692 162.682C101.528 194.176 124.622 214.519 147.128 210.73C168.046 207.2 183.64 182.698 185.921 149.764L192.308 150.205C189.774 186.711 172.459 212.944 148.19 217.04C146.075 217.399 143.95 217.572 141.835 217.572C118.225 217.572 95.0987 195.869 82.7883 163.821C79.1467 164.416 75.6011 164.935 72.2699 165.29C67.7547 165.77 63.6843 166.013 60.0619 166.013C47.8411 166.013 40.7244 163.28 38.8524 157.85C36.526 151.098 43.1884 142.612 58.6508 132.624L62.126 138C47.054 147.735 44.2059 153.748 44.9035 155.767C45.6427 157.914 52.094 161.002 71.5916 158.928C74.4556 158.624 77.4924 158.186 80.5996 157.696C78.5196 151.351 76.8459 144.656 75.6715 137.69C71.7003 114.154 73.7803 91.0021 81.5371 72.4933C89.5019 53.4885 102.5 41.5685 118.136 38.9317C136.971 35.7477 157.041 47.0117 171.774 69.0533L166.456 72.6085C153.16 52.7237 135.518 42.4965 119.198 45.2421C105.803 47.5013 94.526 58.0581 87.4412 74.9669C80.1484 92.3717 78.2092 114.269 81.9852 136.624C83.1628 143.604 84.8491 150.292 86.9547 156.599C101.179 153.92 117.284 149.575 133.784 143.888C156.568 136.032 177.256 126.631 192.033 117.405C208.664 107.031 211.844 100.621 211.102 98.4709C210.462 96.6053 205.105 93.7573 189.112 94.8901L188.664 88.5029C205.348 87.3253 214.948 89.9716 217.153 96.3844C219.582 103.424 212.27 112.324 195.422 122.836Z" fill="white"/>
</svg>
