<svg width="256" height="256" viewBox="0 0 256 256" fill="none" xmlns="http://www.w3.org/2000/svg">
<g clip-path="url(#clip0_2221_50)">
<path d="M148.131 135.257C143.899 135.316 148.932 137.443 154.457 138.296C155.983 137.101 157.368 135.892 158.602 134.717C155.161 135.562 151.659 135.581 148.131 135.257Z" fill="#A80030"/>
<path d="M170.847 129.583C173.368 126.096 175.205 122.279 175.852 118.332C175.287 121.146 173.763 123.575 172.329 126.139C164.418 131.131 171.585 123.174 172.324 120.15C163.817 130.881 171.156 126.585 170.847 129.583Z" fill="#A80030"/>
<path d="M179.233 107.714C179.744 100.075 177.733 102.49 177.057 105.405C177.846 105.816 178.47 110.79 179.233 107.714Z" fill="#A80030"/>
<path d="M132.084 3.30273C134.343 3.70877 136.964 4.02037 136.597 4.56096C139.067 4.01801 139.628 3.51755 132.084 3.30273Z" fill="#A80030"/>
<path d="M136.595 4.56055L134.998 4.89104L136.484 4.75884L136.595 4.56055Z" fill="#A80030"/>
<path d="M207.025 110.611C207.277 117.471 205.023 120.799 202.991 126.691L199.333 128.523C196.34 134.349 199.623 132.222 197.479 136.856C192.807 141.021 183.299 149.887 180.256 150.697C178.035 150.647 181.761 148.069 182.248 147.059C175.993 151.365 177.229 153.522 167.663 156.138L167.382 155.515C143.788 166.641 111.013 144.592 111.444 114.508C111.192 116.418 110.728 115.941 110.205 116.713C108.987 101.234 117.336 85.6871 131.418 79.3393C145.191 72.5052 161.339 75.3097 171.205 84.5256C165.785 77.4106 154.999 69.8684 142.214 70.5742C129.692 70.7725 117.977 78.7491 114.067 87.408C107.652 91.4565 106.907 103.014 104.112 105.129C100.351 132.836 111.187 144.807 129.517 158.888C132.403 160.838 130.33 161.133 130.721 162.618C124.63 159.759 119.053 155.444 114.468 150.161C116.901 153.73 119.527 157.2 122.921 159.927C117.179 157.977 109.508 145.98 107.268 145.492C117.167 163.255 147.429 176.645 163.275 170.002C155.943 170.274 146.628 170.153 138.39 167.101C134.93 165.316 130.224 161.62 131.065 160.928C152.69 169.025 175.03 167.061 193.742 152.026C198.502 148.31 203.702 141.988 205.205 141.901C202.941 145.312 205.591 143.542 203.853 146.554C208.596 138.887 201.792 143.433 208.756 133.313L211.328 136.863C210.372 130.499 219.213 122.77 218.316 112.705C220.344 109.626 220.579 116.017 218.427 123.099C221.413 115.242 219.213 113.979 219.981 107.497C220.81 109.676 221.898 111.992 222.456 114.291C220.511 106.699 224.454 101.506 225.429 97.0937C224.468 96.6664 222.426 100.451 221.96 91.4824C222.028 87.5874 223.041 89.4405 223.432 88.4821C222.668 88.043 220.667 85.0568 219.449 79.3298C220.332 77.9843 221.809 82.8189 223.01 83.0172C222.237 78.4635 220.907 74.991 220.853 71.4972C217.343 64.1462 219.611 72.4769 216.764 68.341C213.029 56.6629 219.863 65.631 220.325 60.3243C225.987 68.5464 229.216 81.2892 230.697 86.5676C229.567 80.1325 227.739 73.898 225.509 67.8666C227.228 68.5913 222.739 54.6257 227.744 63.8747C222.398 44.1586 204.863 25.7362 188.732 17.0915C190.706 18.9021 193.198 21.1754 192.303 21.5318C184.281 16.7445 185.692 16.3715 184.542 14.3484C178.007 11.6832 177.578 14.5632 173.249 14.3531C160.931 7.80471 158.557 8.5011 147.222 4.3983L147.737 6.81324C139.577 4.08905 138.229 7.8472 129.409 6.82268C128.872 6.40248 132.235 5.30242 135.003 4.89875C127.113 5.94216 127.483 3.34073 119.762 5.18675C121.665 3.84827 123.677 2.96303 125.707 1.8252C119.272 2.21706 110.346 5.57862 113.102 2.52158C102.607 7.21454 83.9677 13.8031 73.5082 23.6328L73.1785 21.4303C68.3856 27.1974 52.2783 38.6536 50.9947 46.1227L49.7135 46.4225C47.2193 50.6551 45.606 55.4519 43.6276 59.8073C40.3657 65.3784 38.8465 61.9508 39.3105 62.8242C32.8949 75.8621 29.7083 86.8178 26.9551 95.8024C28.917 98.7414 27.0022 113.495 27.7441 125.303C24.5221 183.621 68.5787 240.243 116.736 253.316C123.794 255.847 134.292 255.75 143.22 256.01C132.685 252.991 131.324 254.409 121.062 250.824C113.66 247.33 112.037 243.34 106.794 238.78L108.869 242.455C98.5865 238.808 102.889 237.941 94.5238 235.286L96.74 232.385C93.4074 232.132 87.9127 226.754 86.4101 223.778L82.7642 223.922C78.3835 218.504 76.0495 214.599 76.219 211.575L75.0414 213.679C73.706 211.382 58.9247 193.361 66.5933 197.556C65.1684 196.25 63.2748 195.431 61.2211 191.692L62.7826 189.902C59.0919 185.143 55.9901 179.043 56.2257 177.011C58.1946 179.676 59.5606 180.174 60.9125 180.63C51.593 157.453 51.0701 179.353 44.0115 157.038L45.5047 156.917C44.3601 155.189 43.6653 153.312 42.7444 151.471L43.3945 144.979C36.6845 137.203 41.5174 111.916 42.4853 98.0474C43.1566 92.4078 48.086 86.4047 51.8355 76.9904L49.551 76.5962C53.9175 68.9619 74.4833 45.9362 84.0077 47.1212C88.6216 41.3117 83.0916 47.1 82.1895 45.6364C92.324 35.1244 95.5106 38.2098 102.35 36.3189C109.727 31.9305 96.0193 38.0304 99.5168 34.6452C112.268 31.3805 108.554 27.2234 125.189 25.5662C126.943 26.5671 121.116 27.1124 119.654 28.4108C130.278 23.2008 153.275 24.3859 168.211 31.3026C185.543 39.4208 205.016 63.4191 205.784 85.9987L206.658 86.2347C206.215 95.2099 208.028 105.59 204.887 115.124L207.025 110.611Z" fill="#A80030"/>
<path d="M101.937 141.081L101.344 144.055C104.125 147.842 106.332 151.945 109.884 154.905C107.328 149.905 105.43 147.84 101.937 141.081Z" fill="#A80030"/>
<path d="M108.512 140.822C107.04 139.191 106.169 137.227 105.194 135.27C106.126 138.709 108.036 141.665 109.814 144.67L108.512 140.822Z" fill="#A80030"/>
<path d="M224.869 115.474L224.247 117.036C223.107 125.152 220.646 133.183 216.873 140.629C221.042 132.772 223.739 124.18 224.869 115.474Z" fill="#A80030"/>
<path d="M132.919 1.26767C135.781 0.217179 139.954 0.691669 142.99 0C139.033 0.332851 135.095 0.531145 131.207 1.03396L132.919 1.26767Z" fill="#A80030"/>
<path d="M32.4572 54.8115C33.1166 60.9303 27.8645 63.3051 33.6206 59.2708C36.706 52.3045 32.4148 57.3469 32.4572 54.8115Z" fill="#A80030"/>
<path d="M25.6934 83.1304C27.0194 79.0512 27.2596 76.6009 27.766 74.2402C24.1013 78.9356 26.0796 79.9365 25.6934 83.1304Z" fill="#A80030"/>
</g>
<defs>
<clipPath id="clip0_2221_50">
<rect width="256" height="256" fill="white"/>
</clipPath>
</defs>
</svg>
