<svg width="256" height="256" viewBox="0 0 256 256" fill="none" xmlns="http://www.w3.org/2000/svg">
<path d="M248 48V176C248 189.2 237.2 200 224 200H32C18.8 200 8 189.2 8 176V48C8 34.8 18.8 24 32 24H224C237.2 24 248 34.8 248 48Z" fill="#2197F3"/>
<path d="M168 216H136V192C136 187.582 132.418 184 128 184C123.582 184 120 187.582 120 192V216H88C83.5824 216 80 219.582 80 224C80 228.418 83.5824 232 88 232H168C172.418 232 176 228.418 176 224C176 219.582 172.418 216 168 216Z" fill="#FFC10A"/>
<path d="M248 136V176C248 189.2 237.2 200 224 200H32C18.8 200 8 189.2 8 176V136H248Z" fill="#3F51B5"/>
</svg>
