<svg width="256" height="256" viewBox="0 0 256 256" fill="none" xmlns="http://www.w3.org/2000/svg">
<g transform="scale(8)">
<path d="M13.8461 2.7571C15.2325 2.22387 16.7675 2.22387 18.1539 2.7571L28.0769 6.57367C29.2355 7.01927 30 8.13239 30 9.3737V22.6265C30 23.8678 29.2355 24.9809 28.0769 25.4265L18.1539 29.2431C16.7675 29.7763 15.2325 29.7763 13.8461 29.2431L3.92306 25.4265C2.76449 24.9809 2 23.8678 2 22.6265V9.3737C2 8.13239 2.76449 7.01927 3.92306 6.57367L13.8461 2.7571ZM9.39418 10.0809C8.88655 9.86331 8.29867 10.0985 8.08111 10.6061C7.86356 11.1137 8.09871 11.7016 8.60634 11.9192L15.0003 14.6594V21C15.0003 21.5523 15.448 22 16.0003 22C16.5525 22 17.0003 21.5523 17.0003 21V14.6594L23.3942 11.9192C23.9018 11.7016 24.137 11.1137 23.9194 10.6061C23.7018 10.0985 23.114 9.86331 22.6063 10.0809L16.0003 12.912L9.39418 10.0809Z" fill="#212121"/>
</g>
</svg>
