<svg width="256" height="256" viewBox="0 0 256 256" fill="none" xmlns="http://www.w3.org/2000/svg">
<g clip-path="url(#clip0_2115_3741)">
<path d="M128.002 255.999V206.431C180.614 206.431 221.28 154.353 201.202 99.0493C193.759 78.5683 177.424 62.2246 156.935 54.79C101.633 34.7201 49.5834 75.3871 49.5744 127.984L49.5655 128.001H-6.10352e-05C-6.10352e-05 44.1831 80.974 -21.0754 168.793 6.34875C207.171 18.3228 237.668 48.8209 249.651 87.2003C277.074 175.031 211.808 255.999 128.002 255.999Z" fill="#0069FF"/>
<path fill-rule="evenodd" clip-rule="evenodd" d="M128.115 206.555H78.6928V157.139L78.7017 157.13H128.106L128.115 157.139V206.555Z" fill="#0069FF"/>
<path fill-rule="evenodd" clip-rule="evenodd" d="M78.682 244.527H40.7148L40.7059 244.518V206.55H78.691V244.518L78.682 244.527Z" fill="#0069FF"/>
<path fill-rule="evenodd" clip-rule="evenodd" d="M40.7363 206.555H8.90785L8.88998 206.546V174.734L8.90785 174.707H40.7184L40.7363 174.716V206.555Z" fill="#0069FF"/>
</g>
<defs>
<clipPath id="clip0_2115_3741">
<rect width="256" height="256" fill="white"/>
</clipPath>
</defs>
</svg>
