<svg xmlns="http://www.w3.org/2000/svg" width="120" height="120" fill="none" viewBox="0 0 120 120"><g clip-path="url(#clip0_293_107)"><path fill="#0080FF" d="M60.285 96.2158V119.197C99.2373 119.197 129.566 81.5665 116.824 40.7488C111.256 22.9113 97.0819 8.73763 79.2444 3.16935C38.4267 -9.5728 0.795288 20.7566 0.795288 59.7089H23.8294C23.8328 59.7089 23.8355 59.7029 23.8355 59.7029C23.8388 35.2575 48.0312 16.3581 73.7321 25.684C83.2536 29.1394 90.8485 36.7329 94.3059 46.2537C103.633 71.9395 84.7622 96.1224 60.3376 96.1571V73.2498L37.3703 73.2485L37.3662 96.2158H60.285ZM37.3622 113.866H19.7183L19.7142 96.2158H37.3662L37.3622 113.866ZM19.7264 96.2158H4.93541C4.92934 96.2158 4.92461 96.2117 4.92461 96.2117V81.4275C4.92461 81.4275 4.92934 81.4167 4.93541 81.4167H19.7156C19.7216 81.4167 19.7264 81.4215 19.7264 81.4215V96.2158Z"/></g><defs><clipPath id="clip0_293_107"><rect width="120" height="120" fill="#fff"/></clipPath></defs></svg>