<svg width="256" height="256" viewBox="0 0 256 256" fill="none" xmlns="http://www.w3.org/2000/svg">
<g clip-path="url(#clip0_2115_1942)">
<path d="M216.857 47.2472C200.037 39.5478 182.281 34.0855 164.042 31C161.546 35.4612 159.288 40.0512 157.277 44.7507C137.848 41.8235 118.091 41.8235 98.6627 44.7507C96.6503 40.0517 94.3921 35.4617 91.8972 31C73.6463 34.1116 55.8785 39.5868 39.0421 47.2875C5.61755 96.7337 -3.44333 144.952 1.08711 192.485C20.6614 206.946 42.5706 217.944 65.8623 225C71.1069 217.947 75.7477 210.465 79.7355 202.632C72.1613 199.804 64.8508 196.314 57.8887 192.204C59.7211 190.875 61.5131 189.506 63.2447 188.177C83.5028 197.703 105.613 202.642 128 202.642C150.386 202.642 172.497 197.703 192.755 188.177C194.507 189.606 196.299 190.976 198.111 192.204C191.135 196.321 183.811 199.817 176.224 202.653C180.207 210.481 184.848 217.957 190.097 225C213.409 217.972 235.335 206.98 254.912 192.506C260.228 137.382 245.831 89.6067 216.857 47.2472ZM85.4741 163.253C72.8493 163.253 62.4192 151.797 62.4192 137.704C62.4192 123.611 72.4868 112.055 85.4338 112.055C98.3808 112.055 108.73 123.611 108.509 137.704C108.287 151.797 98.3405 163.253 85.4741 163.253ZM170.526 163.253C157.881 163.253 147.491 151.797 147.491 137.704C147.491 123.611 157.558 112.055 170.526 112.055C183.493 112.055 193.762 123.611 193.54 137.704C193.319 151.797 183.392 163.253 170.526 163.253Z" fill="#5865F2"/>
</g>
<defs>
<clipPath id="clip0_2115_1942">
<rect width="256" height="256" fill="white"/>
</clipPath>
</defs>
</svg>
