<svg width="256" height="256" viewBox="0 0 256 256" fill="none" xmlns="http://www.w3.org/2000/svg">
<path d="M174.17 0H173.022H45.3259C35.205 0 27 8.18768 27 18.2873V237.713C27 247.812 35.205 256 45.3259 256H209.674C219.795 256 228 247.812 228 237.713V54.8618V53.7168L174.17 0Z" fill="#333333"/>
<path d="M127.494 155.426C142.673 155.426 154.978 143.147 154.978 128C154.978 112.854 142.673 100.575 127.494 100.575C112.315 100.575 100.011 112.854 100.011 128C100.011 143.147 112.315 155.426 127.494 155.426Z" fill="#3FA9F5"/>
<path d="M174.17 35.4295C174.17 45.5291 182.375 53.7168 192.496 53.7168H228L174.17 0V35.4295Z" fill="#3FA9F5"/>
</svg>
