<svg width="256" height="256" viewBox="0 0 256 256" fill="none" xmlns="http://www.w3.org/2000/svg">
<path fill-rule="evenodd" clip-rule="evenodd" d="M128.8 1C73.4 27.8 3.8 166.8 61.8 227.8C115.4 294.8 232.6 230.4 198.6 146.8C155.6 74.8 128.6 71 128.8 1Z" fill="url(#paint0_linear_2115_1957)"/>
<path fill-rule="evenodd" clip-rule="evenodd" d="M128.8 0.400024C73.6 27.2 3.79998 165.8 62 227C83.4 251.8 118 260 137.4 245.2C190.2 207.6 152.2 139 158.2 88.2C136.2 67.8 128.4 22.6 128.8 0.400024Z" fill="url(#paint1_linear_2115_1957)"/>
<path fill-rule="evenodd" clip-rule="evenodd" d="M113.4 8.59998C68.7999 40.4 56.9999 158.6 65.1999 197C81.5999 293.2 215.6 253.6 204.4 164C192.4 105.6 106.8 85.6 113.4 8.59998Z" fill="url(#paint2_linear_2115_1957)"/>
<path fill-rule="evenodd" clip-rule="evenodd" d="M157.6 99.6C178.4 126.4 183 144.8 171.2 155.4C115.8 194.2 48.6001 170.2 63.2001 80.8C44.2001 126 9.00012 193.6 86.6001 203.2C128.2 210.4 194.6 207.2 204.4 171C204 139.2 182.8 125.2 157.6 99.6Z" fill="url(#paint3_linear_2115_1957)"/>
<path fill-rule="evenodd" clip-rule="evenodd" d="M76.2 72.8C70.4 115.2 146.4 228.6 192.8 214.8C157.4 286 79 172.4 64.8 131.4C67.8 109.4 69.2 98.6 76.2 72.8Z" fill="url(#paint4_linear_2115_1957)"/>
<path fill-rule="evenodd" clip-rule="evenodd" d="M120.8 99.4C122.4 115.2 128.6 140.4 120.8 157C113 173.6 77.4001 204 87.2001 230.6C110 280.2 161.4 221.8 161 192.6C163.2 169 147.8 115.2 157.4 87.6L153 82L125.8 74C121.4 80.4 119.8 89 120.8 99.4Z" fill="url(#paint5_linear_2115_1957)"/>
<path fill-rule="evenodd" clip-rule="evenodd" d="M130.6 21.6C72.0001 54.8 96.0001 106.8 98.6001 163.2L136.8 52.4C134 41 132.2 33.4 130.6 21.6Z" fill="url(#paint6_linear_2115_1957)"/>
<path fill-rule="evenodd" clip-rule="evenodd" d="M136.6 52.2C107 75.6 108.4 114.8 99.3999 160.2C115.6 117.6 107.6 83.8 136.6 52.2Z" fill="#330A4C" fill-opacity="0.316"/>
<path fill-rule="evenodd" clip-rule="evenodd" d="M91.6001 239.4C107.6 241.6 115.8 243.8 116.6 245.4C117.2 253.8 94.4001 247.8 91.6001 239.4Z" fill="white"/>
<path fill-rule="evenodd" clip-rule="evenodd" d="M99.5999 21.6C85.7999 37 70.7999 65.2 63.1999 81C61.1999 94 62.1999 112.4 64.3999 128C66.1999 91.6 79.3999 49.6 99.5999 21.6Z" fill="#EDEDED" fill-opacity="0.603"/>
<defs>
<linearGradient id="paint0_linear_2115_1957" x1="124.693" y1="19.7776" x2="115.829" y2="255.569" gradientUnits="userSpaceOnUse">
<stop stop-color="#D9D8DC"/>
<stop offset="1" stop-color="white" stop-opacity="0.385"/>
</linearGradient>
<linearGradient id="paint1_linear_2115_1957" x1="121.128" y1="16.0207" x2="28.5318" y2="218.964" gradientUnits="userSpaceOnUse">
<stop stop-color="#8D67AF" stop-opacity="0.672"/>
<stop offset="1" stop-color="#9F8DAF"/>
</linearGradient>
<linearGradient id="paint2_linear_2115_1957" x1="133.922" y1="85.389" x2="133.922" y2="248.387" gradientUnits="userSpaceOnUse">
<stop stop-color="#26053D" stop-opacity="0.762"/>
<stop offset="1" stop-color="#B7B4B4" stop-opacity="0.278"/>
</linearGradient>
<linearGradient id="paint3_linear_2115_1957" x1="73.4135" y1="90.0002" x2="115.158" y2="200.572" gradientUnits="userSpaceOnUse">
<stop stop-color="#91739F" stop-opacity="0.46"/>
<stop offset="1" stop-color="#32054F" stop-opacity="0.54"/>
</linearGradient>
<linearGradient id="paint4_linear_2115_1957" x1="167.019" y1="232.125" x2="52.6051" y2="137.361" gradientUnits="userSpaceOnUse">
<stop stop-color="#463D49" stop-opacity="0.331"/>
<stop offset="1" stop-color="#340A50" stop-opacity="0.821"/>
</linearGradient>
<linearGradient id="paint5_linear_2115_1957" x1="138.497" y1="83.7094" x2="58.0677" y2="206.088" gradientUnits="userSpaceOnUse">
<stop stop-color="#715383" stop-opacity="0.145"/>
<stop offset="1" stop-color="#F4F4F4" stop-opacity="0.234"/>
</linearGradient>
<linearGradient id="paint6_linear_2115_1957" x1="151.455" y1="113.778" x2="95.544" y2="110.365" gradientUnits="userSpaceOnUse">
<stop stop-color="#A5A1A8" stop-opacity="0.356"/>
<stop offset="1" stop-color="#370C50" stop-opacity="0.582"/>
</linearGradient>
</defs>
</svg>
