<svg width="256" height="256" viewBox="0 0 256 256" fill="none" xmlns="http://www.w3.org/2000/svg">
<g clip-path="url(#clip0_2115_1968)">
<path d="M255.641 128.006C255.641 57.5102 198.493 0.360352 127.998 0.360352C57.5346 0.360352 0.408879 57.4622 0.358887 127.916V226.693C0.396807 242.69 13.371 255.64 29.378 255.64H128.05C198.522 255.612 255.641 198.483 255.641 128.006Z" fill="#294172"/>
<path d="M73.9488 136.243H119.822V182.117C119.822 207.439 99.2711 227.991 73.9488 227.991C48.6266 227.991 28.0752 207.439 28.0752 182.117C28.0752 156.795 48.6266 136.243 73.9488 136.243Z" stroke="#3C6EB4" stroke-width="29.21"/>
<path d="M165.475 136.333H119.601V90.4589C119.601 65.1367 140.153 44.5853 165.475 44.5853C190.797 44.5853 211.349 65.1367 211.349 90.4589C211.349 115.781 190.797 136.333 165.475 136.333Z" stroke="#3C6EB4" stroke-width="29.21"/>
<path d="M133.856 122.275V182.053C133.856 215.135 107.033 241.959 73.9493 241.959C68.9301 241.959 65.3618 241.392 60.7156 240.178C53.9408 238.405 48.4042 232.85 48.4019 226.389C48.4019 218.579 54.0706 212.899 62.5445 212.899C66.5775 212.899 68.041 213.673 73.9493 213.673C91.3915 213.673 105.54 199.545 105.57 182.103V154.627C105.57 152.165 103.57 150.17 101.103 150.17L80.3308 150.166C72.5912 150.166 66.338 143.993 66.338 136.232C66.3339 128.423 72.6554 122.275 80.4785 122.275" fill="white"/>
<path d="M105.568 150.301V90.5232C105.568 57.4407 132.391 30.6173 165.475 30.6173C170.494 30.6173 174.062 31.1839 178.708 32.3984C185.483 34.1714 191.02 39.7261 191.022 46.1871C191.022 53.9966 185.353 59.6773 176.879 59.6773C172.846 59.6773 171.383 58.9029 165.475 58.9029C148.032 58.9029 133.884 73.031 133.854 90.4732V117.949C133.854 120.411 135.854 122.406 138.32 122.406L159.093 122.41C166.833 122.41 173.086 128.583 173.086 136.344C173.09 144.153 166.768 150.301 158.945 150.301" fill="white"/>
<path d="M233.616 233.549L233.616 228.245L231.192 233.804L228.832 228.245L228.833 233.549H227.473V225.174H228.898L231.232 230.524L233.531 225.174H234.974V233.549H233.616ZM223.709 226.577V233.549H222.288V226.577H219.906V225.174H226.089V226.577" fill="#3C6EB4"/>
</g>
<defs>
<clipPath id="clip0_2115_1968">
<rect width="256" height="256" fill="white"/>
</clipPath>
</defs>
</svg>
