<svg width="256" height="256" viewBox="0 0 256 256" fill="none" xmlns="http://www.w3.org/2000/svg">
<rect width="256" height="256" fill="white"/>
<path d="M184.788 65.4188C184.788 51.5222 173.522 40.2562 159.626 40.2562H133.65V90.5805H159.626C173.522 90.5805 184.788 79.3154 184.788 65.4188ZM197.044 65.4188C197.044 86.0848 180.292 102.838 159.626 102.838H121.394V28H159.626C180.292 28 197.044 44.7528 197.044 65.4188Z" fill="black"/>
<path d="M133.65 28V102.838H95.4188C74.7527 102.838 58 86.0848 58 65.4188C58 44.7528 74.7527 28 95.4188 28H133.65ZM70.2562 65.4188C70.2563 79.3154 81.5221 90.5805 95.4188 90.5805H121.394V40.2562H95.4188C81.5221 40.2562 70.2562 51.5222 70.2562 65.4188Z" fill="black"/>
<path d="M133.65 90.5821V165.42H95.4188C74.7527 165.42 58 148.667 58 128.001C58 107.335 74.7527 90.5821 95.4188 90.5821H133.65ZM70.2562 128.001C70.2563 141.898 81.5221 153.163 95.4188 153.163H121.394V102.838H95.4188C81.522 102.838 70.2562 114.104 70.2562 128.001Z" fill="black"/>
<path d="M121.394 190.175V165.419H95.4188C81.5221 165.419 70.2562 176.685 70.2562 190.581C70.2562 204.427 81.6724 215.744 95.6204 215.744C109.793 215.744 121.394 204.245 121.394 190.175ZM133.65 190.175C133.65 211.116 116.459 228 95.6204 228C75.0058 228 58 211.298 58 190.581C58 169.915 74.7527 153.162 95.4188 153.162H133.65V190.175Z" fill="black"/>
<path d="M184.788 128.001C184.788 114.104 173.522 102.838 159.626 102.838H158.813C144.916 102.838 133.65 114.104 133.65 128.001C133.65 141.898 144.916 153.163 158.813 153.163H159.626C173.522 153.163 184.788 141.898 184.788 128.001ZM197.044 128.001C197.044 148.667 180.292 165.42 159.626 165.42H158.813C138.147 165.42 121.394 148.667 121.394 128.001C121.394 107.335 138.147 90.5821 158.813 90.5821H159.626C180.292 90.5821 197.044 107.335 197.044 128.001Z" fill="black"/>
</svg>
