<svg xmlns="http://www.w3.org/2000/svg" width="256" height="256" viewBox="0 0 256 256" fill="none"><g transform="translate(42.6667 0.0000) scale(0.592593)">
 <rect width="95.0226" height="142.534" fill="black" fill-opacity="0" transform="translate(1.46603 2.19946) scale(3)">
 </rect>
 <path d="M144 216C144 176.641 175.907 144.733 215.267 144.733V144.733C254.626 144.733 286.534 176.641 286.534 216V216C286.534 255.36 254.626 287.267 215.267 287.267V287.267C175.907 287.267 144 255.36 144 216V216Z" fill="#1ABCFE">
 </path>
 <path d="M1.46603 358.534C1.46603 319.175 33.3733 287.267 72.733 287.267H144V358.534C144 397.894 112.093 429.801 72.733 429.801V429.801C33.3733 429.801 1.46603 397.894 1.46603 358.534V358.534Z" fill="#0ACF83">
 </path>
 <path d="M144 2.19946V144.733H215.267C254.627 144.733 286.534 112.826 286.534 73.4664V73.4664C286.534 34.1068 254.627 2.19946 215.267 2.19946L144 2.19946Z" fill="#FF7262">
 </path>
 <path d="M1.46603 73.4664C1.46603 112.826 33.3733 144.733 72.733 144.733L144 144.733L144 2.19941L72.733 2.19941C33.3733 2.19941 1.46603 34.1067 1.46603 73.4664V73.4664Z" fill="#F24E1E">
 </path>
 <path d="M1.46603 216C1.46603 255.36 33.3733 287.267 72.733 287.267H144L144 144.733L72.733 144.733C33.3733 144.733 1.46603 176.641 1.46603 216V216Z" fill="#A259FF">
 </path>
</g></svg>