<svg width="256" height="256" viewBox="0 0 256 256" fill="none" xmlns="http://www.w3.org/2000/svg">
<rect width="256" height="256" fill="white"/>
<path d="M127.522 128C127.522 109.778 142.294 95.006 160.516 95.006C178.738 95.006 193.51 109.778 193.51 128C193.51 146.222 178.738 160.994 160.516 160.994C142.294 160.994 127.522 146.222 127.522 128Z" fill="#1ABCFE"/>
<path d="M61.5342 193.988C61.5342 175.766 76.3061 160.994 94.5281 160.994H127.522V193.988C127.522 212.21 112.75 226.982 94.5281 226.982C76.3061 226.982 61.5342 212.21 61.5342 193.988Z" fill="#0ACF83"/>
<path d="M127.522 29.0183V95.006H160.516C178.738 95.006 193.51 80.2343 193.51 62.0122C193.51 43.7902 178.738 29.0183 160.516 29.0183H127.522Z" fill="#FF7262"/>
<path d="M61.5342 62.0122C61.5342 80.2343 76.3061 95.006 94.5281 95.006H127.522V29.0182H94.5281C76.3061 29.0182 61.5342 43.7901 61.5342 62.0122Z" fill="#F24E1E"/>
<path d="M61.5342 128C61.5342 146.222 76.3061 160.994 94.5281 160.994H127.522V95.006H94.5281C76.3061 95.006 61.5342 109.778 61.5342 128Z" fill="#A259FF"/>
</svg>
