<svg width="256" height="256" viewBox="0 0 256 256" fill="none" xmlns="http://www.w3.org/2000/svg">
<g clip-path="url(#clip0_2115_1975)">
<path fill-rule="evenodd" clip-rule="evenodd" d="M128 0.457153C198.4 0.457153 255.543 57.6 255.543 128C255.543 198.4 198.4 255.543 128 255.543C57.5999 255.543 0.457031 198.4 0.457031 128C0.457031 57.6 57.5999 0.457153 128 0.457153Z" fill="#FEFEFE"/>
<path fill-rule="evenodd" clip-rule="evenodd" d="M185.143 75.8857L239.086 144.914C240.457 197.943 170.971 260.114 105.6 235.429L70.8572 190.171L122.971 118.857C122.971 118.857 186.057 75.4286 185.143 75.8857Z" fill="#332C2B" fill-opacity="0.14902"/>
<path fill-rule="evenodd" clip-rule="evenodd" d="M73.6 64.4572H168.686L186.057 75.4286V187.886C186.057 190.171 184.686 191.543 182.4 191.543H73.6C71.3143 191.543 69.9429 190.171 69.9429 187.886V68.1143C69.9429 65.8286 71.3143 64.4572 73.6 64.4572Z" fill="#2BBCFF"/>
<path fill-rule="evenodd" clip-rule="evenodd" d="M73.6 64.4572H168.686L186.057 75.4286V76.3429L169.143 65.8286H73.6C71.7714 65.8286 70.4 67.2 70.4 69.0286V189.257C69.9429 188.8 69.9429 188.343 69.9429 187.886V68.1143C69.9429 65.8286 71.3143 64.4572 73.6 64.4572Z" fill="#53C6FC"/>
<path fill-rule="evenodd" clip-rule="evenodd" d="M107.428 64.9143H159.086V109.714H107.428V64.9143Z" fill="#BDEAFF"/>
<path fill-rule="evenodd" clip-rule="evenodd" d="M84.5714 133.943H170.971C172.343 133.943 173.257 134.857 173.257 135.771V188.8H82.2856V135.771C82.2856 134.857 83.1999 133.943 84.5714 133.943Z" fill="#BDEAFF"/>
<path fill-rule="evenodd" clip-rule="evenodd" d="M82.2856 182.857H173.257V188.8H82.2856V182.857Z" fill="#006498"/>
<path fill-rule="evenodd" clip-rule="evenodd" d="M141.714 71.3143H146.286C147.657 71.3143 149.029 72.2286 149.029 73.6V91.8857C149.029 93.2571 147.657 94.6286 146.286 94.6286H141.714C140.343 94.6286 138.971 93.2571 138.971 91.8857V73.6C138.971 72.2286 140.343 71.3143 141.714 71.3143Z" fill="#006498"/>
<path fill-rule="evenodd" clip-rule="evenodd" d="M84.1142 71.3143C88.6856 71.3143 91.8856 74.5143 91.8856 79.0857C91.8856 83.2 88.6856 86.4 84.1142 86.4C79.9999 86.4 76.3428 83.2 76.3428 79.0857C76.3428 74.5143 79.9999 71.3143 84.1142 71.3143Z" fill="#FEFEFE"/>
<path fill-rule="evenodd" clip-rule="evenodd" d="M90.0572 172.8H165.486C166.4 172.8 166.857 173.257 166.857 174.171C166.857 174.629 166.4 175.543 165.486 175.543H90.0572C89.1429 175.543 88.6858 174.629 88.6858 174.171C88.6858 173.257 89.1429 172.8 90.0572 172.8Z" fill="#006498"/>
<path fill-rule="evenodd" clip-rule="evenodd" d="M90.0572 157.714H165.486C166.4 157.714 166.857 158.171 166.857 159.086C166.857 159.543 166.4 160 165.486 160H90.0572C89.1429 160 88.6858 159.543 88.6858 159.086C88.6858 158.171 89.1429 157.714 90.0572 157.714Z" fill="#006498"/>
<path fill-rule="evenodd" clip-rule="evenodd" d="M90.0572 142.171H165.486C166.4 142.171 166.857 143.086 166.857 143.543C166.857 144.457 166.4 144.914 165.486 144.914H90.0572C89.1429 144.914 88.6858 144.457 88.6858 143.543C88.6858 143.086 89.1429 142.171 90.0572 142.171Z" fill="#006498"/>
<path fill-rule="evenodd" clip-rule="evenodd" d="M75.8858 183.771C77.2572 183.771 78.1715 184.686 78.1715 186.057C78.1715 186.971 77.2572 187.886 75.8858 187.886C74.5144 187.886 73.6001 186.971 73.6001 186.057C73.6001 184.686 74.5144 183.771 75.8858 183.771Z" fill="#FEFEFE"/>
<path fill-rule="evenodd" clip-rule="evenodd" d="M179.657 183.771C181.028 183.771 181.943 184.686 181.943 186.057C181.943 186.971 181.028 187.886 179.657 187.886C178.286 187.886 177.371 186.971 177.371 186.057C177.371 184.686 178.286 183.771 179.657 183.771Z" fill="#FEFEFE"/>
<path fill-rule="evenodd" clip-rule="evenodd" d="M107.429 64.9143H97.8286V109.714H107.429V64.9143Z" fill="#006498"/>
<path fill-rule="evenodd" clip-rule="evenodd" d="M186.057 186.971V187.886C186.057 190.171 184.686 191.543 182.4 191.543H73.6C71.3143 191.543 69.9429 190.171 69.9429 187.886V186.971C69.9429 188.8 71.3143 190.629 73.6 190.629H182.4C184.686 190.629 186.057 188.8 186.057 186.971Z" fill="#0EA5EB"/>
<path fill-rule="evenodd" clip-rule="evenodd" d="M128 0C198.857 0 256 57.1429 256 128C256 198.857 198.857 256 128 256C57.1429 256 0 198.857 0 128C0 57.1429 57.1429 0 128 0ZM128 21.0286C186.971 21.0286 234.971 69.0286 234.971 128C234.971 186.971 186.971 234.971 128 234.971C69.0286 234.971 21.0286 186.971 21.0286 128C21.0286 69.0286 69.0286 21.0286 128 21.0286Z" fill="#2979FF"/>
</g>
<defs>
<clipPath id="clip0_2115_1975">
<rect width="256" height="256" fill="white"/>
</clipPath>
</defs>
</svg>
