<svg width="256" height="256" viewBox="0 0 256 256" fill="none" xmlns="http://www.w3.org/2000/svg">
<rect width="256" height="256" fill="white"/>
<g clip-path="url(#clip0_2_187)">
<path d="M174.469 92.7412C166.79 95.0189 161.001 100.171 156.761 105.768C155.851 106.969 153.954 106.067 154.315 104.594C162.432 71.2425 151.709 43.522 118.281 29.877C116.585 29.1826 114.82 30.7034 115.265 32.481C130.471 93.4842 66.513 88.3387 74.5954 157.494C74.7344 158.681 73.4 159.494 72.4271 158.799C69.397 156.626 66.0126 152.092 63.6914 148.904C63.0103 147.967 61.537 148.231 61.2243 149.349C59.3757 156.029 58.5 162.32 58.5 168.57C58.5 192.874 71.0024 214.268 89.9262 226.67C91.0104 227.379 92.4004 226.365 92.0321 225.122C91.0591 221.858 90.51 218.414 90.4683 214.852C90.4683 212.664 90.6073 210.428 90.9479 208.345C91.7402 203.109 93.5611 198.123 96.6188 193.582C107.106 177.854 128.128 162.66 124.772 142.03C124.556 140.724 126.099 139.863 127.072 140.759C141.882 154.279 144.815 172.465 142.382 188.777C142.174 190.193 143.953 190.95 144.85 189.839C147.115 187.006 149.881 184.52 152.89 182.652C153.641 182.187 154.642 182.541 154.927 183.374C156.601 188.242 159.089 192.811 161.438 197.381C164.246 202.873 165.74 209.144 165.504 215.782C165.386 219.011 164.851 222.136 163.954 225.108C163.572 226.365 164.948 227.413 166.053 226.691C184.991 214.289 197.5 192.895 197.5 168.577C197.5 160.126 196.02 151.842 193.219 144.078C187.347 127.794 172.447 115.566 176.213 94.3453C176.394 93.3314 175.456 92.4495 174.469 92.7412Z" fill="#FA5D19"/>
</g>
<defs>
<clipPath id="clip0_2_187">
<rect width="139" height="200" fill="white" transform="translate(58.5 28.3164)"/>
</clipPath>
</defs>
</svg>
