<svg width="256" height="256" viewBox="0 0 256 256" fill="none" xmlns="http://www.w3.org/2000/svg">
<g clip-path="url(#clip0_2115_1861)">
<path d="M255.976 128C255.976 198.692 198.669 256 127.976 256C57.2844 256 -0.02344 198.692 -0.02344 128C-0.02344 57.3076 57.2844 0 127.976 0C161.2 15.0382 195.957 70.9948 210.512 88.4808C225.067 105.967 262.741 128 244.277 81.7804C252.15 94.2732 255.976 115.001 255.976 128Z" fill="url(#paint0_radial_2115_1861)"/>
<path d="M255.976 128C255.976 198.692 198.669 256 127.976 256C57.2844 256 -0.02344 198.692 -0.02344 128C-0.02344 57.3076 57.2844 0 127.976 0C161.2 15.0382 195.957 70.9948 210.512 88.4808C225.067 105.967 262.741 128 244.277 81.7804C252.15 94.2732 255.976 115.001 255.976 128Z" fill="url(#paint1_radial_2115_1861)"/>
<path d="M255.976 128C255.976 198.692 198.669 256 127.976 256C57.2844 256 -0.02344 198.692 -0.02344 128C-0.02344 57.3076 57.2844 0 127.976 0C161.2 15.0382 195.957 70.9948 210.512 88.4808C225.067 105.967 262.741 128 244.277 81.7804C252.15 94.2732 255.976 115.001 255.976 128Z" fill="url(#paint2_radial_2115_1861)"/>
<path d="M255.976 128C255.976 198.692 198.669 256 127.976 256C57.2844 256 -0.02344 198.692 -0.02344 128C-0.02344 57.3076 57.2844 0 127.976 0C161.2 15.0382 195.957 70.9948 210.512 88.4808C225.067 105.967 262.741 128 244.277 81.7804C252.15 94.2732 255.976 115.001 255.976 128Z" fill="url(#paint3_linear_2115_1861)" fill-opacity="0.3"/>
<path d="M244.354 81.9032C231.743 60.5468 205.61 44.7748 174.203 40.828C183.246 51.778 191.473 63.0092 198.272 72.2936C203.169 78.978 207.325 84.6532 210.512 88.4812C225.068 105.966 262.742 128 244.278 81.7812C244.303 81.822 244.329 81.8624 244.354 81.9032Z" fill="url(#paint4_radial_2115_1861)"/>
<path d="M244.354 81.9032C231.743 60.5468 205.61 44.7748 174.203 40.828C183.246 51.778 191.473 63.0092 198.272 72.2936C203.169 78.978 207.325 84.6532 210.512 88.4812C225.068 105.966 262.742 128 244.278 81.7812C244.303 81.822 244.329 81.8624 244.354 81.9032Z" fill="url(#paint5_radial_2115_1861)"/>
<path d="M117.251 108.026C165.703 97.6816 210.529 115.282 217.373 147.338C224.217 179.394 190.488 213.766 142.036 224.111C93.584 234.456 48.7576 216.856 41.9132 184.8C35.0692 152.744 68.7992 118.371 117.251 108.026Z" fill="url(#paint6_radial_2115_1861)"/>
<path fill-rule="evenodd" clip-rule="evenodd" d="M195.947 189.457C208.64 176.522 214.058 161.96 211.216 148.652C208.376 135.345 197.484 124.266 180.614 117.642C163.798 111.039 141.754 109.232 118.565 114.184C95.3756 119.134 75.9916 129.786 63.3388 142.681C50.6452 155.616 45.2284 170.178 48.0696 183.486C50.9108 196.792 61.8024 207.873 78.672 214.496C95.4876 221.099 117.531 222.906 140.721 217.955C163.91 213.004 183.294 202.352 195.947 189.457ZM142.036 224.112C190.487 213.767 224.216 179.394 217.373 147.338C210.528 115.282 165.702 97.6816 117.251 108.026C68.7984 118.371 35.069 152.744 41.9132 184.8C48.7572 216.856 93.5836 234.456 142.036 224.112Z" fill="url(#paint7_radial_2115_1861)" fill-opacity="0.2"/>
</g>
<defs>
<radialGradient id="paint0_radial_2115_1861" cx="0" cy="0" r="1" gradientUnits="userSpaceOnUse" gradientTransform="translate(86.1096 105.912) rotate(49.385) scale(197.72 197.72)">
<stop offset="0.026042" stop-color="#8DFDFD"/>
<stop offset="0.270833" stop-color="#87FBFB"/>
<stop offset="0.484416" stop-color="#74D6F4"/>
<stop offset="0.931964" stop-color="#0038FF"/>
</radialGradient>
<radialGradient id="paint1_radial_2115_1861" cx="0" cy="0" r="1" gradientUnits="userSpaceOnUse" gradientTransform="translate(87.9764 128) rotate(132.274) scale(95.1428)">
<stop stop-color="#0500FF" stop-opacity="0"/>
<stop offset="1" stop-color="#0100FF" stop-opacity="0.15"/>
</radialGradient>
<radialGradient id="paint2_radial_2115_1861" cx="0" cy="0" r="1" gradientUnits="userSpaceOnUse" gradientTransform="translate(100.776 99.1985) rotate(42.678) scale(167.58 167.58)">
<stop offset="0.520394" stop-color="#FF00E5" stop-opacity="0"/>
<stop offset="1" stop-color="#FF00E5" stop-opacity="0.65"/>
</radialGradient>
<linearGradient id="paint3_linear_2115_1861" x1="255.976" y1="134.4" x2="148.776" y2="137.6" gradientUnits="userSpaceOnUse">
<stop stop-color="#FD3AF5"/>
<stop offset="1" stop-color="#FD3AF5" stop-opacity="0"/>
</linearGradient>
<radialGradient id="paint4_radial_2115_1861" cx="0" cy="0" r="1" gradientUnits="userSpaceOnUse" gradientTransform="translate(129.577 169.6) rotate(-36.2538) scale(148.809 131.668)">
<stop offset="0.777466" stop-color="#001AFF"/>
<stop offset="1" stop-color="#8ACEFF"/>
</radialGradient>
<radialGradient id="paint5_radial_2115_1861" cx="0" cy="0" r="1" gradientUnits="userSpaceOnUse" gradientTransform="translate(176.228 110.862) rotate(-30.5427) scale(69.2728 91.4536)">
<stop offset="0.71875" stop-color="#FA00FF" stop-opacity="0"/>
<stop offset="1" stop-color="#FF00D6" stop-opacity="0.44"/>
</radialGradient>
<radialGradient id="paint6_radial_2115_1861" cx="0" cy="0" r="1" gradientUnits="userSpaceOnUse" gradientTransform="translate(102.375 112.006) rotate(63.435) scale(121.642 279.322)">
<stop stop-color="#0D67A9"/>
<stop offset="1" stop-color="#AEDDFF"/>
</radialGradient>
<radialGradient id="paint7_radial_2115_1861" cx="0" cy="0" r="1" gradientUnits="userSpaceOnUse" gradientTransform="translate(118.375 112.005) rotate(73.835) scale(114.944 224.696)">
<stop stop-color="#0068C9"/>
<stop offset="1" stop-color="white"/>
</radialGradient>
<clipPath id="clip0_2115_1861">
<rect width="256" height="256" fill="white"/>
</clipPath>
</defs>
</svg>
