<svg width="256" height="256" viewBox="0 0 256 256" fill="none" xmlns="http://www.w3.org/2000/svg">
<path fill-rule="evenodd" clip-rule="evenodd" d="M179.016 44.5342H208.494C234.714 44.5342 256 65.777 256 91.9427V195.385C256 221.551 234.714 242.793 208.494 242.793H206.17C192.676 240.687 186.823 236.648 182.303 233.235L144.824 202.482C143.884 201.727 142.713 201.315 141.506 201.315C140.299 201.315 139.128 201.727 138.188 202.482L126.012 212.474L91.7201 184.335C90.7812 183.579 89.611 183.166 88.4043 183.166C87.1976 183.166 86.0274 183.579 85.0886 184.335L37.4481 226.158C27.8595 233.94 21.5178 232.504 17.4049 232.053C6.7817 223.353 0 210.152 0 195.385V91.9427C0 65.777 21.2863 44.5342 47.5102 44.5342H76.9226L76.869 44.652L75.8772 47.5372L75.5691 48.527L74.2339 54.4351L74.0499 55.4723L73.4643 61.3895L73.3862 63.0142L73.3739 63.5833L73.4291 66.2971L73.564 67.8866L73.8936 70.3771L74.3151 72.6167L74.8149 74.6804L75.4633 76.914L77.1464 81.6441L77.7014 83.0622L80.6323 89.2426L81.6671 91.1411L85.0564 96.9467L86.3532 99.041L91.0839 105.992L91.7676 106.913L97.9223 114.908L99.9105 117.368L106.939 125.568L108.383 127.145L114.176 133.365L116.471 135.736L120.263 139.495L119.501 140.13L119.028 140.557C117.738 141.756 116.518 143.028 115.373 144.366C114.823 145.013 114.299 145.682 113.802 146.37C113.043 147.421 112.364 148.527 111.772 149.68C111.469 150.279 111.198 150.892 110.958 151.519C110.341 153.12 109.969 154.805 109.858 156.517L109.836 157.995C109.89 160.079 110.315 162.136 111.092 164.071C111.879 166.033 113.028 167.831 114.478 169.371C115.533 170.492 116.734 171.467 118.048 172.271C119.169 172.955 120.363 173.519 121.603 173.948C124.301 174.861 127.163 175.185 129.997 174.901H130.013C132.431 174.667 134.781 173.97 136.935 172.849C137.865 172.359 138.749 171.788 139.578 171.142C141.954 169.297 143.794 166.855 144.911 164.065C145.784 161.89 146.211 159.566 146.173 157.225L146.105 156.003C145.946 154.388 145.56 152.802 144.957 151.294C144.697 150.638 144.399 149.997 144.068 149.371C143.455 148.221 142.756 147.118 141.98 146.07C141.625 145.591 141.257 145.122 140.877 144.661C139.611 143.154 138.248 141.73 136.798 140.398L135.772 139.527L137.509 137.815L144.973 130.036L147.554 127.208L151.567 122.702L154.178 119.655L157.9 115.131L160.42 111.969L164.121 107.031L165.989 104.476L168.64 100.522L170.847 97.1517L175.006 89.9234L177.385 85.181L177.454 85.0357L179.275 80.636C179.298 80.5794 179.32 80.5212 179.336 80.4616L181.299 74.3561L181.504 73.4658L182.355 68.6056L182.52 67.29L182.571 66.4838L182.629 63.441L182.614 62.8734L182.457 60.1489L182.264 58.0331L181.299 51.9308C181.284 51.8487 181.265 51.7675 181.242 51.6875L180.002 47.1761L179.574 45.9217L179.016 44.5342ZM193.029 173.529C186.886 173.614 181.858 178.632 181.772 184.76C181.863 190.889 186.888 195.903 193.029 195.991C199.168 195.902 204.195 190.889 204.288 184.76C204.199 178.632 199.171 173.614 193.029 173.529Z" fill="url(#paint0_radial_2115_1994)"/>
<path fill-rule="evenodd" clip-rule="evenodd" d="M111.136 238.754L109.149 240.422C107.311 241.932 105.01 242.769 102.629 242.793H47.5096C36.5297 242.807 25.8867 239.01 17.4043 232.052C21.5172 232.504 27.8589 233.94 37.4474 226.158L85.0879 184.335C86.0268 183.578 87.197 183.166 88.4037 183.166C89.6103 183.166 90.7806 183.578 91.7194 184.335L126.011 212.474L138.187 202.481C139.128 201.726 140.298 201.315 141.505 201.315C142.712 201.315 143.883 201.726 144.823 202.481L182.302 233.235C186.823 236.648 192.675 240.686 206.17 242.793H181.238C179.036 242.766 176.896 242.054 175.117 240.758L174.68 240.422L172.83 238.887C172.683 238.707 172.518 238.542 172.339 238.393C162.794 230.486 153.245 222.583 143.69 214.686C143.129 214.221 142.421 213.967 141.691 213.969C140.961 213.97 140.255 214.227 139.696 214.695C139.696 214.695 139.763 214.775 111.511 238.393C111.373 238.508 111.247 238.629 111.136 238.754ZM193.028 173.528C186.885 173.614 181.857 178.632 181.772 184.76C181.862 190.888 186.887 195.903 193.028 195.99C199.167 195.902 204.194 190.888 204.287 184.76C204.198 178.632 199.17 173.614 193.028 173.528ZM120.263 139.495L116.47 135.736L114.175 133.365L108.382 127.145L106.938 125.567L99.9099 117.368L97.9217 114.906L91.7669 106.913L91.0832 105.992L86.3526 99.0406L85.0557 96.9463L81.6664 91.1407L80.6317 89.2422L77.7007 83.0618L77.1458 81.6437L75.4626 76.9136L74.8142 74.6801L74.3145 72.6164L73.8929 70.3752L73.5633 67.8862L73.4284 66.2968L73.3733 63.5829L73.3855 63.0138L73.4637 61.3891L74.0493 55.4703L74.2332 54.4347L75.5684 48.5266L75.8765 47.5368L76.8683 44.6516L77.1857 43.905L78.7646 40.4446L79.8591 38.3855L81.3828 35.8767L82.902 33.6431L83.9842 32.2235L85.2305 30.7243L86.6025 29.2174L87.7782 28.0379L90.6402 25.5245L92.7327 23.8157C92.7833 23.7729 92.8354 23.7346 92.889 23.6979L95.3647 22.0274L97.3315 20.776L101.067 18.8132C101.124 18.7781 101.188 18.7505 101.248 18.723L106.546 16.5293L107.035 16.3457L111.744 14.9704L113.732 14.5252L116.421 13.9867L118.204 13.7159L120.939 13.3763L122.803 13.2111L126.505 13.0153L127.955 13L130.7 13.0566L131.415 13.0964L135.394 13.4268L140.657 14.1672L141.265 14.2942L146.467 15.5854L147.993 16.0397L149.69 16.6256L151.757 17.4058L153.391 18.0973L155.791 19.2263L157.304 20.0019L160.024 21.5944L161.037 22.2171L164.744 24.9172L165.808 25.8381L168.392 28.1879L168.519 28.3148L170.712 30.6616L171.466 31.5106L174.038 34.9221L174.562 35.7374L176.604 39.178L177.219 40.3574L178.37 42.9244L179.573 45.9213L180.001 47.1758L181.241 51.6871C181.264 51.7667 181.283 51.8478 181.298 51.9304L182.264 58.0312L182.457 60.1485L182.613 62.8731L182.629 63.4406L182.57 66.4834L182.52 67.2896L182.354 68.6052L181.503 73.4654L181.298 74.3557L179.336 80.4612C179.318 80.5203 179.298 80.5785 179.274 80.6356L177.453 85.0353L177.384 85.1806L175.005 89.923L170.846 97.1513L168.639 100.521L165.989 104.476L164.12 107.031L160.419 111.969L157.899 115.131L154.177 119.655L151.567 122.702L147.553 127.207L144.972 130.036L137.508 137.815L135.771 139.527L136.797 140.397C138.247 141.73 139.61 143.151 140.876 144.661C141.256 145.121 141.624 145.591 141.98 146.07C142.755 147.118 143.454 148.221 144.068 149.371C144.399 149.994 144.695 150.638 144.957 151.294C145.553 152.801 145.955 154.393 146.105 156.003L146.172 157.225C146.211 159.566 145.781 161.891 144.911 164.065C143.794 166.854 141.953 169.296 139.578 171.14C138.748 171.789 137.864 172.358 136.935 172.849C134.781 173.97 132.43 174.666 130.012 174.9H129.997C127.163 175.185 124.3 174.86 121.602 173.947C120.361 173.518 119.169 172.955 118.048 172.271C116.733 171.467 115.532 170.492 114.477 169.37C113.027 167.83 111.878 166.033 111.091 164.071C110.314 162.136 109.889 160.078 109.836 157.995L109.857 156.517C109.969 154.805 110.34 153.119 110.958 151.519C111.198 150.89 111.47 150.277 111.772 149.68C112.363 148.525 113.044 147.421 113.801 146.37C114.296 145.681 114.824 145.013 115.373 144.366C116.517 143.028 117.737 141.756 119.027 140.556L119.501 140.13L120.263 139.495Z" fill="#24175B"/>
<path fill-rule="evenodd" clip-rule="evenodd" d="M109.149 240.422L139.696 214.695C140.255 214.227 140.962 213.97 141.692 213.968C142.422 213.967 143.129 214.221 143.691 214.686L174.68 240.422C176.565 241.952 178.92 242.79 181.35 242.793H102.518C104.937 242.794 107.281 241.955 109.149 240.422ZM128.164 148.581L128.462 148.669C128.559 148.715 128.64 148.783 128.728 148.843L128.978 149.063C129.594 149.629 130.193 150.224 130.77 150.833C131.176 151.266 131.571 151.711 131.951 152.172C132.434 152.753 132.887 153.364 133.299 153.998C133.477 154.278 133.642 154.561 133.797 154.857C133.932 155.112 134.053 155.377 134.159 155.645C134.346 156.111 134.487 156.604 134.53 157.104L134.521 158.043C134.458 158.892 134.195 159.713 133.752 160.44C133.309 161.166 132.699 161.777 131.973 162.223C131.031 162.791 129.971 163.139 128.875 163.24L127.711 163.274L126.729 163.188C126.27 163.12 125.817 163.011 125.378 162.861C124.931 162.709 124.502 162.508 124.1 162.262L123.333 161.703C122.43 160.932 121.815 159.88 121.587 158.716C121.549 158.52 121.519 158.323 121.497 158.124L121.469 157.228C121.485 156.986 121.521 156.746 121.575 156.506C121.708 155.984 121.902 155.476 122.145 154.994C122.46 154.389 122.818 153.807 123.218 153.255C123.882 152.359 124.603 151.506 125.372 150.7C125.869 150.177 126.376 149.671 126.907 149.181L127.284 148.843C127.546 148.669 127.549 148.669 127.848 148.581H128.164ZM126.234 23.641L126.355 23.6318V128.399L126.093 127.917C122.637 121.537 119.42 115.031 116.449 108.412C114.038 103.056 111.855 97.6011 109.905 92.0614C108.346 87.6477 107.029 83.1526 105.959 78.5961C105.13 74.9781 104.494 71.3066 104.233 67.5968C104.132 66.014 104.102 64.4276 104.142 62.8422C104.167 61.4608 104.224 60.0824 104.31 58.7041C104.448 56.5348 104.668 54.3717 104.987 52.2254C105.24 50.5365 105.551 48.8521 105.938 47.1877C106.244 45.8644 106.598 44.5519 107.004 43.2607C107.59 41.3944 108.292 39.5708 109.109 37.7901C109.408 37.1492 109.73 36.5112 110.066 35.8855C112.092 32.1391 114.842 28.6894 118.445 26.3794C120.785 24.8599 123.456 23.921 126.234 23.641ZM139.846 23.9057L146.908 25.9158C150.194 27.1127 153.321 28.7031 156.222 30.6521C160.166 33.309 163.565 36.6928 166.237 40.6218C167.805 42.957 169.107 45.46 170.117 48.0842C171.586 51.9635 172.495 56.0317 172.816 60.1666C172.91 61.2497 172.964 62.3358 172.985 63.4204C173.01 64.4286 173.003 65.4413 172.922 66.4494C172.722 68.7052 172.296 70.9354 171.653 73.1071C171.136 74.8852 170.525 76.6347 169.823 78.3482C168.95 80.4789 167.981 82.5688 166.918 84.6112C164.563 89.1486 161.853 93.4887 158.954 97.6865C155.36 102.846 151.528 107.836 147.471 112.642C143.064 117.885 138.469 122.967 133.694 127.879C136.935 121.816 139.959 115.64 142.762 109.365C144.32 105.868 145.79 102.333 147.17 98.7634C148.69 94.8432 150.06 90.867 151.277 86.8432C152.187 83.8289 152.975 80.779 153.638 77.7011C154.202 75.0592 154.645 72.3897 154.919 69.7033C155.149 67.4637 155.234 65.2103 155.178 62.963C155.157 61.5878 155.106 60.2132 155.025 58.8402C154.694 53.3146 153.852 47.8073 152.238 42.5081C151.626 40.4986 150.882 38.5316 150.011 36.6198C147.945 32.1268 145.06 27.926 141.157 24.8618L139.846 23.9057Z" fill="white"/>
<defs>
<radialGradient id="paint0_radial_2115_1994" cx="0" cy="0" r="1" gradientUnits="userSpaceOnUse" gradientTransform="translate(135.925 142.801) scale(185.45 185.071)">
<stop stop-color="#BA7BF0"/>
<stop offset="0.45" stop-color="#996BEC"/>
<stop offset="1" stop-color="#5046E4"/>
</radialGradient>
</defs>
</svg>
