<svg width="256" height="256" viewBox="0 0 256 256" fill="none" xmlns="http://www.w3.org/2000/svg">
<path d="M163.955 82.2727H164.83L164.393 81.8383L195 51.4251V50.7734C169.202 28.1807 133.567 20.3602 100.555 30.1358C67.5425 39.9115 42.1822 65.98 33 99C33.4372 98.7828 34.0931 98.5655 34.749 98.5655C46.1174 91.1795 59.6721 86.8347 73.8826 86.8347C78.6923 86.8347 83.2834 87.2692 87.8745 88.1381C88.0931 87.9209 88.3117 87.9209 88.5304 87.9209C108.206 66.4144 141.437 63.8076 164.174 82.2727H163.955Z" fill="#EA4535"/>
<path d="M224.47 98.4526C219.461 79.817 209.009 62.9353 194.418 50L163.278 81.1325C176.344 91.8754 183.966 108.099 183.53 124.981V130.462C220.332 130.462 220.332 185.711 183.53 185.711H128.218V229.56H128L128.218 229.998H183.53C215.324 230.218 243.416 209.609 252.78 179.353C262.143 149.098 250.602 116.211 224.47 98.4526Z" fill="#557EBF"/>
<path d="M73.2409 229.78H131V185.416H73.2409C69.0682 185.416 65.1151 184.537 61.3817 183L28 215.065V215.505C41.177 224.949 56.9893 230 73.4606 230L73.2409 229.78Z" fill="#36A852"/>
<path d="M76.1041 86C43.4657 86.218 14.5511 106.271 4.03674 135.697C-6.47766 165.341 4.03674 197.819 29.8846 217L64.0564 184.522C45.2181 176.458 40.8371 152.917 55.2944 139.185C69.7517 125.235 94.2853 129.594 102.828 147.468L137 114.99C122.543 96.8985 99.9806 86.218 76.1041 86.4359V86Z" fill="#F9BC15"/>
</svg>
