<svg width="256" height="256" viewBox="0 0 256 256" fill="none" xmlns="http://www.w3.org/2000/svg">
<path d="M158.359 193.681L107.599 169.281C102.599 166.881 100.439 160.801 102.879 155.761L127.279 105.001C129.679 100.001 135.759 97.8407 140.799 100.281C147.679 103.601 151.639 105.481 151.639 105.481L151.599 61.8007L158.279 61.7607L158.319 108.601C158.319 108.601 181.279 118.281 191.559 124.641C193.039 125.561 195.639 127.361 196.719 130.401C197.559 132.841 197.519 135.641 196.319 138.121L171.919 188.881C169.439 193.961 163.359 196.121 158.359 193.681Z" fill="white"/>
<path d="M249.08 59.9205C247.44 58.2805 245.24 58.3205 245.24 58.3205C245.24 58.3205 198.36 60.9605 174.08 61.5205C168.76 61.6405 163.48 61.7605 158.24 61.8005C158.24 77.4405 158.24 93.0805 158.24 108.68C156.04 107.64 153.8 106.56 151.6 105.52C151.6 90.9605 151.56 61.8405 151.56 61.8405C139.96 62.0005 115.88 60.9605 115.88 60.9605C115.88 60.9605 59.3202 58.1205 53.1602 57.5605C49.2402 57.3205 44.1603 56.7205 37.5603 58.1605C34.0803 58.8805 24.1602 61.1205 16.0402 68.9205C-1.95975 84.9605 2.64025 110.48 3.20025 114.32C3.88025 119 5.96025 132 15.8803 143.32C34.2003 165.76 73.6403 165.24 73.6403 165.24C73.6403 165.24 78.4803 176.8 85.8803 187.44C95.8803 200.68 106.16 211 116.16 212.24C141.36 212.24 191.72 212.2 191.72 212.2C191.72 212.2 196.52 212.24 203.04 208.08C208.64 204.68 213.64 198.72 213.64 198.72C213.64 198.72 218.8 193.2 226 180.6C228.2 176.72 230.04 172.96 231.64 169.4C231.64 169.4 253.72 122.56 253.72 76.9605C253.28 63.1605 249.88 60.7205 249.08 59.9205ZM50.2403 141.56C39.8803 138.16 35.4802 134.08 35.4802 134.08C35.4802 134.08 27.8403 128.72 24.0003 118.16C17.4003 100.48 23.4402 89.6805 23.4402 89.6805C23.4402 89.6805 26.8002 80.6805 38.8403 77.6805C44.3603 76.2005 51.2403 76.4405 51.2403 76.4405C51.2403 76.4405 54.0803 100.2 57.5203 114.12C60.4003 125.8 67.4403 145.2 67.4403 145.2C67.4403 145.2 57.0003 143.96 50.2403 141.56ZM170.36 184.6C170.36 184.6 167.92 190.4 162.52 190.76C160.2 190.92 158.4 190.28 158.4 190.28C158.4 190.28 158.28 190.24 156.28 189.44L111.12 167.44C111.12 167.44 106.76 165.16 106 161.2C105.12 157.96 107.08 153.96 107.08 153.96L128.8 109.2C128.8 109.2 130.72 105.32 133.68 104C133.92 103.88 134.6 103.6 135.48 103.4C138.72 102.56 142.68 104.52 142.68 104.52L186.96 126C186.96 126 192 128.28 193.08 132.48C193.84 135.44 192.88 138.08 192.36 139.36C189.84 145.52 170.36 184.6 170.36 184.6Z" fill="#609926"/>
<path d="M130.721 152.04C127.441 152.08 124.561 154.36 123.801 157.56C123.041 160.76 124.601 164.08 127.441 165.56C130.521 167.16 134.441 166.28 136.521 163.4C138.561 160.56 138.241 156.64 135.801 154.16L145.401 134.52C146.001 134.56 146.881 134.6 147.881 134.32C149.521 133.96 150.721 132.88 150.721 132.88C152.401 133.6 154.161 134.4 156.001 135.32C157.921 136.28 159.721 137.28 161.361 138.24C161.721 138.44 162.081 138.68 162.481 139C163.121 139.52 163.841 140.24 164.361 141.2C165.121 143.4 163.601 147.16 163.601 147.16C162.681 150.2 156.241 163.4 156.241 163.4C153.001 163.32 150.121 165.4 149.161 168.4C148.121 171.64 149.601 175.32 152.721 176.92C155.841 178.52 159.681 177.6 161.721 174.8C163.721 172.08 163.561 168.28 161.281 165.76C162.041 164.28 162.761 162.8 163.521 161.24C165.521 157.08 168.921 149.08 168.921 149.08C169.281 148.4 171.201 144.96 170.001 140.56C169.001 136 164.961 133.88 164.961 133.88C160.081 130.72 153.281 127.8 153.281 127.8C153.281 127.8 153.281 126.16 152.841 124.96C152.401 123.72 151.721 122.92 151.281 122.44C153.161 118.56 155.041 114.72 156.921 110.84C155.281 110.04 153.681 109.24 152.041 108.4C150.121 112.32 148.161 116.28 146.241 120.2C143.561 120.16 141.081 121.6 139.801 123.96C138.441 126.48 138.721 129.6 140.561 131.88C137.281 138.6 134.001 145.32 130.721 152.04Z" fill="#609926"/>
</svg>
