<svg width="262" height="256" viewBox="0 0 262 256" fill="none" xmlns="http://www.w3.org/2000/svg">
<g clip-path="url(#clip0_2115_2023)">
<path fill-rule="evenodd" clip-rule="evenodd" d="M130.61 0C58.3859 0 0 58.6667 0 131.245C0 189.261 37.4099 238.371 89.3072 255.752C95.7957 257.059 98.1725 252.928 98.1725 249.453C98.1725 246.411 97.9586 235.981 97.9586 225.115C61.6261 232.939 54.0602 209.469 54.0602 209.469C48.2214 194.259 39.57 190.349 39.57 190.349C27.6784 182.309 40.4362 182.309 40.4362 182.309C53.6271 183.179 60.5487 195.781 60.5487 195.781C72.2238 215.771 91.037 210.123 98.6056 206.645C99.6856 198.171 103.148 192.304 106.824 189.045C77.8461 186.003 47.3578 174.704 47.3578 124.291C47.3578 109.949 52.5444 98.216 60.7626 89.0907C59.466 85.832 54.9238 72.3573 62.0619 54.3227C62.0619 54.3227 73.09 50.8453 97.9559 67.7947C108.602 64.9218 119.581 63.4603 130.61 63.448C141.638 63.448 152.88 64.9707 163.261 67.7947C188.129 50.8453 199.157 54.3227 199.157 54.3227C206.296 72.3573 201.751 85.832 200.454 89.0907C208.889 98.216 213.862 109.949 213.862 124.291C213.862 174.704 183.373 185.784 154.179 189.045C158.938 193.173 163.044 200.995 163.044 213.381C163.044 230.981 162.83 245.107 162.83 249.451C162.83 252.928 165.21 257.059 171.696 255.755C223.593 238.368 261.003 189.261 261.003 131.245C261.217 58.6667 202.617 0 130.61 0Z" fill="white"/>
</g>
<defs>
<clipPath id="clip0_2115_2023">
<rect width="262" height="256" fill="white"/>
</clipPath>
</defs>
</svg>
