<svg width="256" height="256" viewBox="0 0 256 256" fill="none" xmlns="http://www.w3.org/2000/svg">
<path d="M158.424 119.191C160.22 113.482 163.134 108.087 167.021 102.983C176.093 91.0142 187.029 84.7805 201.817 82.1623C214.493 79.9181 226.423 81.1649 237.235 88.5207C247.052 95.2532 253.142 104.354 254.757 116.323C256.87 133.154 252.023 146.869 240.466 158.588C232.264 166.942 222.198 172.178 210.641 174.547C207.285 175.17 203.93 175.295 200.699 175.669C189.39 175.419 179.076 172.178 170.377 164.697C164.259 159.392 160.044 152.87 157.95 145.279C156.496 148.223 154.759 151.043 152.73 153.726C143.783 165.57 132.101 172.926 117.313 174.921C105.134 176.542 93.8252 174.173 83.8835 166.692C74.6874 159.71 69.468 150.484 68.101 139.014C66.4854 125.425 70.4621 113.206 78.6641 102.484C87.4874 90.8896 99.1689 83.5337 113.46 80.9155C125.142 78.796 136.326 80.1675 146.392 87.0246C152.979 91.3883 157.701 97.3727 160.808 104.604C161.553 105.726 161.056 106.349 159.565 106.723C151.736 108.718 146.392 110.214 138.687 112.209C136.823 112.708 136.699 112.832 135.083 110.962C133.219 108.843 131.852 107.471 129.243 106.225C121.414 102.36 113.833 103.482 106.75 108.095C98.299 113.58 93.9495 121.684 94.0738 131.783C94.1981 141.757 101.033 149.986 110.85 151.357C119.301 152.479 126.384 149.487 131.977 143.129C133.095 141.757 134.089 140.261 135.332 138.516C130.858 138.516 125.266 138.516 111.348 138.516C108.738 138.516 108.117 136.895 108.986 134.775C110.602 130.91 113.584 124.427 115.324 121.186C115.697 120.438 116.567 119.191 118.431 119.191H158.424ZM19.2621 108.967C18.765 108.967 18.6408 108.718 18.8893 108.344L21.499 104.978C21.7476 104.604 22.3689 104.354 22.866 104.354H67.2311C67.7282 104.354 67.8524 104.729 67.6039 105.103L65.4913 108.344C65.2427 108.718 64.6214 109.092 64.2485 109.092L19.2621 108.967ZM0.497087 120.438C0 120.438 -0.124272 120.188 0.124272 119.814L2.73398 116.448C2.98252 116.074 3.60388 115.825 4.10097 115.825H60.7689C61.266 115.825 61.5146 116.199 61.3903 116.573L60.3961 119.565C60.2718 120.064 59.7748 120.313 59.2777 120.313L0.497087 120.438ZM30.5709 131.908C30.0738 131.908 29.9495 131.534 30.1981 131.16L31.9379 128.043C32.1864 127.669 32.6835 127.295 33.1806 127.295H58.035C58.532 127.295 58.7806 127.669 58.7806 128.167L58.532 131.16C58.532 131.658 58.035 132.032 57.6621 132.032L30.5709 131.908ZM230.276 125.3C230.151 123.679 230.151 122.432 229.903 121.186C227.666 108.843 216.357 101.861 204.551 104.604C192.994 107.222 185.538 114.578 182.804 126.297C180.567 136.022 185.289 145.871 194.237 149.861C201.072 152.853 207.907 152.479 214.493 149.113C224.311 144.001 229.654 136.022 230.276 125.3Z" fill="url(#paint0_linear_2115_2031)"/>
<defs>
<linearGradient id="paint0_linear_2115_2031" x1="52579.3" y1="3763.25" x2="0" y2="3763.25" gradientUnits="userSpaceOnUse">
<stop stop-color="#00A29C"/>
<stop offset="1" stop-color="#00ADD8"/>
</linearGradient>
</defs>
</svg>
