<svg height="77" viewBox="0 0 206 77" width="206" xmlns="http://www.w3.org/2000/svg" xmlns:xlink="http://www.w3.org/1999/xlink"><linearGradient id="a" x1="100%" x2="0%" y1="50%" y2="50%"><stop offset="0" stop-color="#00a29c"/><stop offset="1" stop-color="#00add8"/></linearGradient><path d="m127.481483 31.4343267c1.445351-4.5790807 3.790459-8.9059246 6.918517-13 7.3-9.59999996 16.1-14.59999996 28-16.69999996 10.2-1.8 19.8-.8 28.5 5.1 7.9 5.39999996 12.8 12.69999996 14.1 22.29999996 1.7 13.5-2.2 24.5-11.5 33.9-6.6 6.7-14.7 10.9-24 12.8-2.7.5-5.4.6-8 .9-9.1-.2-17.4-2.8-24.4-8.8-4.923224-4.2556681-8.314592-9.4861534-9.999798-15.5752516-1.1695 2.3617137-2.567865 4.6235348-4.200202 6.7752516-7.2 9.5-16.6 15.4-28.5 17-9.8 1.3-18.9-.6-26.9-6.6-7.4-5.6-11.6-13-12.7-22.2-1.3-10.9 1.9-20.7 8.5-29.3 7.1-9.29999996 16.5-15.19999996 28-17.29999996 9.4-1.70000001 18.4-.6 26.5 4.9 5.3 3.5 9.1 8.29999996 11.6 14.09999996.6.9.2 1.4-1 1.7-6.3 1.6-10.6 2.8-16.8 4.4-1.5.4-1.6.5-2.9-1-1.5-1.7-2.6-2.8-4.7-3.8-6.3-3.1-12.4-2.2-18.1 1.5-6.8 4.4-10.3 10.9-10.2 19 .1 8 5.6 14.6 13.5 15.7 6.8.9 12.5-1.5 17-6.6.9-1.1 1.7-2.3 2.7-3.7-3.6 0-8.1 0-19.3 0-2.1 0-2.6-1.3-1.9-3 1.3-3.1 3.7-8.3 5.1-10.9.3-.6 1-1.6 2.5-1.6zm-111.981483-8.2c-.4 0-.5-.2-.3-.5l2.1-2.7c.2-.3.7-.5 1.1-.5h35.7c.4 0 .5.3.3.6l-1.7 2.6c-.2.3-.7.6-1 .6zm-15.1 9.2c-.4 0-.5-.2-.3-.5l2.1-2.7c.2-.3.7-.5 1.1-.5h45.6c.4 0 .6.3.5.6l-.8 2.4c-.1.4-.5.6-.9.6zm24.2 9.2c-.4 0-.5-.3-.3-.6l1.4-2.5c.2-.3.6-.6 1-.6h20c.4 0 .6.3.6.7l-.2 2.4c0 .4-.4.7-.7.7zm160.7-5.3c-.1-1.3-.1-2.3-.3-3.3-1.8-9.9-10.9-15.5-20.4-13.3-9.3 2.1-15.3 8-17.5 17.4-1.8 7.8 2 15.7 9.2 18.9 5.5 2.4 11 2.1 16.3-.6 7.9-4.1 12.2-10.5 12.7-19.1z" fill="url(#a)"/></svg>
