<svg xmlns="http://www.w3.org/2000/svg" width="64" height="64" fill="none" viewBox="0 0 64 64">
  <defs>
    <linearGradient id="a" x1="63.6351" x2="39.318" y1="54.0451" y2="1.59593" gradientUnits="userSpaceOnUse">
      <stop offset=".24" stop-color="#00D886"/>
      <stop offset=".51" stop-color="#007DFE"/>
    </linearGradient>
    <linearGradient id="b" x1="59.3792" x2=".674325" y1="4.38051" y2="63.0854" gradientUnits="userSpaceOnUse">
      <stop offset=".27" stop-color="#007DFE"/>
      <stop offset=".7" stop-color="#D249FC"/>
    </linearGradient>
  </defs>
  <path fill="#00D886" d="m48.0521 58.18 11.8755-.0017c2.2493 0 4.0722-1.8234 4.0722-4.0727V42.599c0-1.1887-.5196-2.3186-1.422-3.0924L24.4164 6.79677c-.7384-.63244-1.6786-.98036-2.6508-.98036H9.89011c-2.24931 0-4.07273 1.82341-4.07273 4.07272V21.3975c0 1.1887.51957 2.3185 1.42197 3.0924L45.4002 57.1991c.7383.633 1.6786.9804 2.6514.9804l.0005.0005Z"/>
  <path fill="url(#a)" d="M49.4806 58.1818h10.4465c2.2493 0 4.0728-1.8234 4.0728-4.0727V41.0164c0-.1925-.014-.3851-.0408-.576L58.6815 3.49673C58.3952 1.49062 56.6765 0 54.65 0H38.977c-2.2499 0-4.0733 1.824-4.0727 4.07389l.0047 18.53851c0 .4375.0704.8721.2088 1.2869l10.4995 31.4979c.5545 1.6629 2.1109 2.7846 3.8639 2.7846h-.0006Z"/>
  <path fill="url(#b)" d="M4.07273 64H38.041c1.6291 0 3.1017-.9711 3.7434-2.4681l16.0681-37.4906c.217-.5068.3293-1.0531.3293-1.6046V4.07273C58.1818 1.82342 56.3584 0 54.1091 0h-17.966c-.8046 0-1.5912.238545-2.2609.685382L1.81353 22.0881C.681309 22.8439.001745 24.1146.001745 25.4755L0 59.9273C0 62.1766 1.82342 64 4.07273 64Z"/>
  <path fill="#000" d="M52 12H12v40h40V12Z"/>
  <path fill="#fff" d="M19.764 31.6245c1.174.6765 2.4847 1.0155 3.9318 1.0155 1.3899 0 2.6427-.3095 3.7589-.9293 1.1231-.6197 2.005-1.4651 2.6461-2.5384.6481-1.0798.9721-2.2857.9721-3.6183v-1.1879h-6.405v2.3221h3.516c-.0722.5605-.2761 1.0718-.6106 1.5339-.3958.5468-.9322.9762-1.6092 1.2852-.6701.3096-1.4188.4646-2.2469.4646-.8928 0-1.6988-.2227-2.4193-.6695-.7204-.4467-1.2857-1.0583-1.6959-1.836-.4034-.784-.6047-1.667-.6047-2.6461 0-.979.2013-1.858.6047-2.6357.4108-.7846.9761-1.4003 1.6959-1.847.7199-.4467 1.5265-.6695 2.4193-.6695.6053 0 1.1706.0972 1.696.2916.526.1875.9831.4577 1.372.8101.3958.3455.7094.7563.9397 1.2314h3.1542c-.2737-.9866-.7529-1.8575-1.4368-2.6137-.677-.7563-1.5126-1.3436-2.5061-1.7608-.9866-.4172-2.0669-.6267-3.2404-.6267-1.4477 0-2.7583.3414-3.9318 1.0259-1.1741.6765-2.0959 1.6133-2.7653 2.8082-.6695 1.1879-1.0046 2.5165-1.0046 3.9856 0 1.4692.3351 2.8018 1.0046 3.9967.67 1.1879 1.5918 2.1236 2.7653 2.8081Z"/>
  <path fill="#fff" fill-rule="evenodd" d="M36.1829 31.6245c1.181.6765 2.4951 1.0155 3.9422 1.0155 1.4541 0 2.7688-.339 3.9423-1.0155 1.181-.6845 2.1062-1.6202 2.7757-2.8081.6695-1.1949 1.0045-2.5275 1.0045-3.9967 0-1.4691-.335-2.7977-1.0045-3.9856-.6695-1.1949-1.5947-2.1317-2.7757-2.8082C42.8939 17.3414 41.5723 17 40.1251 17c-1.4471 0-2.7612.3414-3.9422 1.0259-1.1735.6765-2.0988 1.6133-2.7758 2.8082-.6695 1.1879-1.0045 2.5165-1.0045 3.9856 0 1.4692.335 2.8018 1.0045 3.9967.6765 1.1879 1.6023 2.1236 2.7758 2.8081Zm6.3621-2.2463c-.7129.4468-1.516.6695-2.4089.6695-.8928 0-1.6994-.2227-2.4193-.6695-.7128-.4536-1.2747-1.0756-1.685-1.8684-.4033-.7991-.6046-1.696-.6046-2.6895 0-.9935.2013-1.8858.6046-2.6785.4103-.7991.9722-1.4217 1.685-1.8684.7199-.4537 1.5265-.6805 2.4193-.6805.8929 0 1.696.2268 2.4089.6805.7129.4467 1.2707 1.0693 1.674 1.8684.4033.7921.6047 1.685.6047 2.6785s-.2014 1.8904-.6047 2.6895c-.4033.7922-.9611 1.4148-1.674 1.8684Z" clip-rule="evenodd"/>
  <path fill="#fff" d="M16.9941 44h16v3h-16v-3Z"/>
</svg>
