<svg width="256" height="256" viewBox="0 0 256 256" fill="none" xmlns="http://www.w3.org/2000/svg">
<g clip-path="url(#clip0_2115_2033)">
<path d="M192.208 232.72L239.71 232.713C248.708 232.713 255.999 225.42 255.999 216.422V170.396C255.999 165.641 253.921 161.122 250.311 158.026L97.6656 27.1871C94.712 24.6573 90.9512 23.2656 87.0624 23.2656H39.5605C30.5632 23.2656 23.2695 30.5593 23.2695 39.5565V85.59C23.2695 90.3448 25.3478 94.864 28.9574 97.9596L181.601 228.796C184.554 231.328 188.317 232.72 192.208 232.72Z" fill="#00D886"/>
<path d="M197.922 232.727H239.708C248.706 232.727 256 225.434 256 216.436V164.066C256 163.296 255.944 162.525 255.836 161.762L234.726 13.9869C233.581 5.96248 226.706 0 218.6 0H155.908C146.908 0 139.615 7.296 139.617 16.2956L139.636 90.4496C139.636 92.1996 139.918 93.938 140.471 95.5972L182.469 221.589C184.687 228.24 190.91 232.727 197.922 232.727Z" fill="url(#paint0_linear_2115_2033)"/>
<path d="M16.2909 256H152.164C158.68 256 164.571 252.116 167.138 246.128L231.41 96.1652C232.278 94.138 232.727 91.9528 232.727 89.7468V16.2909C232.727 7.29368 225.434 0 216.436 0H144.572C141.354 0 138.208 0.95418 135.529 2.74153L7.25412 88.3524C2.72524 91.3756 0.00698 96.4584 0.00698 101.902L0 239.709C0 248.706 7.29368 256 16.2909 256Z" fill="url(#paint1_linear_2115_2033)"/>
<path d="M208 48H48V208H208V48Z" fill="black"/>
<path d="M79.0559 126.498C83.7519 129.204 88.9947 130.56 94.7831 130.56C100.343 130.56 105.354 129.322 109.819 126.843C114.311 124.364 117.839 120.982 120.403 116.689C122.996 112.37 124.292 107.546 124.292 102.216V97.4644H98.6715V106.753H112.736C112.447 108.995 111.631 111.04 110.293 112.888C108.71 115.076 106.564 116.793 103.856 118.029C101.176 119.268 98.1811 119.888 94.8687 119.888C91.2975 119.888 88.0735 118.997 85.1915 117.21C82.3099 115.423 80.0487 112.976 78.4079 109.866C76.7943 106.73 75.9891 103.198 75.9891 99.2812C75.9891 95.3652 76.7943 91.8492 78.4079 88.7384C80.0511 85.6 82.3123 83.1372 85.1915 81.3504C88.0711 79.5636 91.2975 78.6724 94.8687 78.6724C97.2899 78.6724 99.5511 79.0612 101.653 79.8388C103.757 80.5888 105.585 81.6696 107.141 83.0792C108.724 84.4612 109.978 86.1044 110.9 88.0048H123.516C122.422 84.0584 120.505 80.5748 117.769 77.55C115.061 74.5248 111.719 72.1756 107.745 70.5068C103.798 68.838 99.4771 68 94.7831 68C88.9923 68 83.7499 69.3656 79.0559 72.1036C74.3595 74.8096 70.6723 78.5568 67.9947 83.3364C65.3167 88.088 63.9763 93.4024 63.9763 99.2788C63.9763 105.156 65.3167 110.486 67.9947 115.266C70.6747 120.017 74.3619 123.76 79.0559 126.498Z" fill="white"/>
<path fill-rule="evenodd" clip-rule="evenodd" d="M144.732 126.498C149.456 129.204 154.712 130.56 160.5 130.56C166.317 130.56 171.576 129.204 176.27 126.498C180.994 123.76 184.694 120.017 187.372 115.266C190.05 110.486 191.39 105.156 191.39 99.2788C191.39 93.4024 190.05 88.088 187.372 83.3364C184.694 78.5568 180.994 74.8096 176.27 72.1036C171.576 69.3656 166.289 68 160.5 68C154.712 68 149.456 69.3656 144.732 72.1036C140.038 74.8096 136.336 78.5568 133.628 83.3364C130.95 88.088 129.61 93.4024 129.61 99.2788C129.61 105.156 130.95 110.486 133.628 115.266C136.334 120.017 140.038 123.76 144.732 126.498ZM170.18 117.513C167.328 119.3 164.116 120.191 160.544 120.191C156.973 120.191 153.747 119.3 150.867 117.513C148.016 115.698 145.768 113.21 144.127 110.039C142.514 106.843 141.709 103.255 141.709 99.2812C141.709 95.3072 142.514 91.738 144.127 88.5672C145.768 85.3708 148.016 82.8804 150.867 81.0936C153.747 79.2788 156.973 78.3716 160.544 78.3716C164.116 78.3716 167.328 79.2788 170.18 81.0936C173.032 82.8804 175.263 85.3708 176.876 88.5672C178.489 91.7356 179.295 95.3072 179.295 99.2812C179.295 103.255 178.489 106.843 176.876 110.039C175.263 113.208 173.032 115.698 170.18 117.513Z" fill="white"/>
<path d="M67.9763 176H131.976V188H67.9763V176Z" fill="white"/>
</g>
<defs>
<linearGradient id="paint0_linear_2115_2033" x1="254.54" y1="216.18" x2="157.272" y2="6.38372" gradientUnits="userSpaceOnUse">
<stop offset="0.24" stop-color="#00D886"/>
<stop offset="0.51" stop-color="#007DFE"/>
</linearGradient>
<linearGradient id="paint1_linear_2115_2033" x1="237.517" y1="17.522" x2="2.6973" y2="252.342" gradientUnits="userSpaceOnUse">
<stop offset="0.27" stop-color="#007DFE"/>
<stop offset="0.7" stop-color="#D249FC"/>
</linearGradient>
<clipPath id="clip0_2115_2033">
<rect width="256" height="256" fill="white"/>
</clipPath>
</defs>
</svg>
