<svg width="256" height="256" viewBox="0 0 256 256" fill="none" xmlns="http://www.w3.org/2000/svg">
<g clip-path="url(#clip0_2115_2046)">
<path d="M193.864 0H62.1359C27.8192 0 0 27.8192 0 62.1359V193.864C0 228.18 27.8192 256 62.1359 256H193.864C228.18 256 256 228.18 256 193.864V62.1359C256 27.8192 228.18 0 193.864 0Z" fill="white"/>
<path d="M200.921 209.873C209.609 207.988 218.824 202.854 218.824 202.854L202.697 189.569C194.723 183.006 187.938 175.122 182.631 166.263C175.301 154.025 165.171 143.697 153.08 136.13L147.175 132.691C145.152 131.285 143.741 129.092 143.54 126.619C143.411 125.025 143.794 123.599 144.685 122.344C147.76 118.01 163.654 99.1521 166.566 96.7423C170.316 93.6418 174.496 91.0629 178.374 88.1102C178.925 87.6898 179.478 87.2718 180.023 86.8454C180.042 86.8263 180.07 86.8114 180.087 86.7946C181.331 85.8122 182.506 84.7688 183.439 83.5316C186.81 79.6282 187.629 76.1773 187.829 74.6502C187.374 73.1803 186.013 69.894 182.221 66.1029C184.598 66.2488 187.475 68.1282 190.083 70.3395C191.834 67.541 193.667 64.5841 195.498 61.6212C196.721 59.642 194.906 58.1615 194.857 58.1153L194.846 58.113C194.846 58.113 194.846 58.1046 194.844 58.1027C194.798 58.0519 193.317 56.2377 191.341 57.4606C187.119 60.0731 182.9 62.6879 179.147 65.0637C179.147 65.0637 174.698 64.9709 169.432 69.5202C168.193 70.456 167.149 71.6299 166.169 72.8718C166.15 72.8909 166.133 72.9161 166.117 72.9352C165.689 73.4781 165.271 74.0313 164.853 74.5849C161.898 78.4645 159.321 82.6424 156.221 86.3934C153.813 89.3079 134.953 105.199 130.619 108.274C129.364 109.165 127.941 109.549 126.344 109.418C123.873 109.22 121.679 107.807 120.272 105.784L116.833 99.8786C109.266 87.783 98.9383 77.6578 86.6992 70.3269C77.8411 65.0217 69.9589 58.2332 63.395 50.2624L50.106 34.1349C50.106 34.1349 44.9695 43.3476 43.0854 52.0366C45.7063 55.2237 52.5432 63.1334 60.5015 69.174C51.9453 65.1503 45.6201 62.0392 40.6313 59.4374C39.8624 65.127 40.1625 73.7316 40.9543 80.3952C46.355 82.7584 55.5505 86.3994 64.9114 88.3343C57.4239 90.0852 49.2103 90.4039 42.8677 90.2795C43.9853 94.4043 45.5394 98.6115 47.6305 102.844C48.5196 104.802 49.4931 106.713 50.5449 108.584C53.9012 109.507 67.0784 111.427 74.0901 109.851C67.1143 112.342 55.4027 116.526 55.4027 116.526C64.3978 127.717 74.3394 136.822 74.3394 136.822C89.4613 128.691 92.9084 127.58 104.25 120.163C85.8837 135.107 81.1168 141.209 75.9612 147.48L72.3686 152.521C70.5018 155.14 68.8819 157.922 67.5281 160.839C62.9979 170.585 56.5855 191.355 56.5855 191.355C55.4409 194.975 58.0935 197.628 61.6078 196.378C61.6078 196.378 82.3736 189.965 92.1246 185.435C95.0395 184.079 97.8254 182.459 100.442 180.593L105.484 177.002C107.175 175.61 108.857 174.246 110.702 172.637C110.702 172.637 123.394 187.672 136.439 197.563C136.439 197.563 140.624 185.852 143.114 178.875C141.536 185.889 143.456 199.066 144.381 202.42C146.248 203.472 148.163 204.446 150.121 205.334C154.356 207.427 158.56 208.98 162.686 210.097C162.563 203.753 162.88 195.542 164.631 188.054C166.566 197.415 170.204 206.613 172.57 212.011C179.233 212.803 187.838 213.103 193.529 212.334C190.925 207.346 187.815 201.016 183.792 192.465C189.831 200.423 197.741 207.259 200.929 209.88L200.921 209.873Z" fill="black"/>
</g>
<defs>
<clipPath id="clip0_2115_2046">
<rect width="256" height="256" fill="white"/>
</clipPath>
</defs>
</svg>
