<svg width="1648" height="1648" viewBox="0 0 1648 1648" fill="none" xmlns="http://www.w3.org/2000/svg">
<path d="M1248 0H400C179.086 0 0 179.086 0 400V1248C0 1468.91 179.086 1648 400 1648H1248C1468.91 1648 1648 1468.91 1648 1248V400C1648 179.086 1468.91 0 1248 0Z" fill="white"/>
<path d="M1293.43 1351.06C1349.36 1338.92 1408.68 1305.87 1408.68 1305.87L1304.86 1220.35C1253.53 1178.1 1209.85 1127.35 1175.69 1070.32C1128.5 991.535 1063.29 925.049 985.455 876.335L947.439 854.198C934.413 845.144 925.332 831.032 924.039 815.111C923.211 804.845 925.671 795.668 931.41 787.592C951.204 759.692 1053.52 638.291 1072.27 622.778C1096.41 602.819 1123.32 586.217 1148.28 567.209C1151.83 564.503 1155.39 561.812 1158.9 559.067C1159.02 558.944 1159.2 558.848 1159.31 558.74C1167.32 552.416 1174.88 545.699 1180.89 537.734C1202.59 512.606 1207.86 490.391 1209.15 480.56C1206.22 471.098 1197.46 449.942 1173.05 425.537C1188.35 426.476 1206.87 438.575 1223.66 452.81C1234.93 434.795 1246.73 415.76 1258.52 396.686C1266.39 383.945 1254.71 374.414 1254.39 374.117L1254.32 374.102C1254.32 374.102 1254.32 374.048 1254.31 374.036C1254.01 373.709 1244.48 362.03 1231.76 369.902C1204.58 386.72 1177.42 403.553 1153.26 418.847C1153.26 418.847 1124.62 418.25 1090.72 447.536C1082.74 453.56 1076.02 461.117 1069.71 469.112C1069.59 469.235 1069.48 469.397 1069.38 469.52C1066.62 473.015 1063.93 476.576 1061.24 480.14C1042.22 505.115 1025.63 532.01 1005.67 556.157C990.171 574.919 868.758 677.216 840.858 697.013C832.782 702.752 823.617 705.224 813.339 704.381C797.433 703.103 783.306 694.007 774.249 680.984L752.115 642.968C703.401 565.103 636.915 499.922 558.126 452.729C501.102 418.577 450.36 374.876 408.105 323.564L322.557 219.743C322.557 219.743 289.491 279.05 277.362 334.985C294.234 355.502 338.247 406.421 389.478 445.307C334.398 419.405 293.679 399.377 261.564 382.628C256.614 419.255 258.546 474.647 263.643 517.544C298.41 532.757 357.606 556.196 417.867 568.652C369.666 579.923 316.791 581.975 275.961 581.174C283.155 607.727 293.16 634.811 306.621 662.057C312.345 674.66 318.612 686.966 325.383 699.011C346.989 704.954 431.817 717.311 476.955 707.168C432.048 723.2 356.655 750.134 356.655 750.134C414.561 822.179 478.56 880.793 478.56 880.793C575.907 828.449 598.098 821.297 671.109 773.546C552.876 869.753 522.189 909.032 489 949.4L465.873 981.854C453.855 998.714 443.427 1016.62 434.712 1035.4C405.549 1098.14 364.269 1231.85 364.269 1231.85C356.901 1255.15 373.977 1272.23 396.6 1264.18C396.6 1264.18 530.28 1222.9 593.052 1193.74C611.817 1185.01 629.751 1174.58 646.596 1162.57L679.05 1139.45C689.94 1130.49 700.764 1121.71 712.647 1111.35C712.647 1111.35 794.346 1208.14 878.328 1271.81C878.328 1271.81 905.265 1196.42 921.294 1151.51C911.136 1196.66 923.496 1281.49 929.451 1303.08C941.469 1309.85 953.802 1316.12 966.405 1321.84C993.666 1335.31 1020.73 1345.31 1047.29 1352.5C1046.5 1311.66 1048.54 1258.8 1059.81 1210.6C1072.27 1270.86 1095.69 1330.07 1110.92 1364.82C1153.81 1369.92 1209.21 1371.85 1245.84 1366.9C1229.08 1334.79 1209.06 1294.04 1183.16 1238.99C1222.04 1290.22 1272.96 1334.23 1293.48 1351.1L1293.43 1351.06Z" fill="black"/>
</svg>
