<svg width="256" height="256" viewBox="0 0 256 256" fill="none" xmlns="http://www.w3.org/2000/svg">
<rect width="256" height="256" fill="white"/>
<g clip-path="url(#clip0_3_201)">
<path d="M219.074 116.373C218.718 113.165 218.361 109.243 216.935 104.965C215.866 100.687 214.084 96.0526 211.945 91.0615C209.45 86.4269 206.242 81.0793 202.321 76.4448C200.895 74.6622 199.113 72.5232 196.974 70.7406C199.826 59.689 193.409 50.0633 193.409 50.0633C182.716 49.3503 175.943 53.2718 173.448 55.4109C173.092 55.4109 172.735 55.0544 172.022 54.6979C170.24 53.9849 168.458 53.2718 166.319 52.5588C164.18 51.8458 162.398 51.4893 160.259 50.7763C158.12 50.4198 156.338 50.0633 154.199 49.7068C153.843 49.7068 153.487 49.7068 153.13 49.7068C148.496 34.7335 135.307 28.3164 135.307 28.3164C120.336 37.9421 117.485 51.1328 117.485 51.1328C117.485 51.1328 117.485 51.4893 117.485 51.8458C116.772 52.2023 115.702 52.2023 114.989 52.5588C113.92 52.9153 112.851 53.2718 111.425 53.6283C110.355 53.9849 109.286 54.3414 107.86 55.0544C105.722 56.1239 103.226 57.1934 101.088 58.2629C98.9489 59.3324 96.8102 60.7585 94.6715 62.1845C94.315 62.1845 94.315 61.828 94.315 61.828C73.6407 53.9849 55.105 63.6105 55.105 63.6105C53.3227 86.0704 63.3035 99.9742 65.4422 102.47C65.0857 103.896 64.3728 105.322 64.0164 106.748C62.5906 111.739 61.1647 116.73 60.4518 122.078C60.4518 122.791 60.4518 123.504 60.4518 124.217C41.2033 133.842 35.5 153.094 35.5 153.094C51.5405 171.632 70.0761 172.701 70.0761 172.701C72.5713 176.98 75.0665 180.901 78.2746 184.823C79.7004 186.249 80.7697 188.031 82.1956 189.457C76.4923 206.213 82.9085 220.117 82.9085 220.117C100.731 220.83 112.494 212.274 114.989 210.491C116.772 211.204 118.554 211.561 120.336 212.274C125.683 213.7 131.386 214.413 137.09 214.769C138.515 214.769 139.941 214.769 141.367 214.769H142.436H142.793H143.506H144.219C152.774 226.89 167.388 228.316 167.388 228.316C177.725 217.265 178.438 206.213 178.438 203.717C178.438 203.361 178.438 203.361 178.438 203.361V203.004C180.577 201.578 182.716 199.796 184.855 198.013C189.132 194.092 192.697 189.814 195.905 185.179C196.261 184.823 196.618 184.466 196.618 183.753C208.381 184.466 216.935 176.267 216.935 176.267C214.797 163.789 208.024 157.728 206.598 156.659C206.598 156.659 206.598 156.659 206.242 156.659C206.242 155.946 206.242 155.233 206.242 154.52C206.242 153.094 206.242 152.024 206.242 150.598V149.529V149.172V148.816C206.242 148.459 206.242 148.459 206.242 148.459V147.746V146.676C206.242 146.32 206.242 145.963 206.242 145.607C206.242 145.25 206.242 144.894 206.242 144.537V143.468V142.398C205.885 140.972 205.885 139.546 205.529 138.477C204.46 133.129 202.321 128.138 199.469 123.504C196.618 118.869 193.409 114.947 189.488 111.382C185.567 107.817 181.29 105.322 176.656 103.183C172.022 101.044 167.388 99.9742 162.754 99.2611C160.259 98.9046 158.12 98.9046 155.625 98.9046H154.912H154.556H154.199H153.843H153.13C152.774 98.9046 152.417 98.9046 152.061 98.9046C150.991 98.9046 149.566 99.2611 148.496 99.2611C143.862 99.9742 139.228 101.757 135.307 104.252C131.386 106.748 127.822 109.6 125.327 112.808C122.475 116.017 120.336 119.939 118.91 123.504C117.485 127.425 116.772 131.347 116.415 134.912C116.415 135.981 116.415 136.694 116.415 137.764C116.415 138.12 116.415 138.12 116.415 138.477V139.19C116.415 139.546 116.415 140.259 116.415 140.616C116.772 142.398 117.128 144.537 117.485 146.32C118.554 149.885 120.336 153.094 122.118 155.946C124.257 158.798 126.752 160.937 129.248 162.719C131.743 164.502 134.594 165.928 137.446 166.641C140.298 167.354 142.793 167.71 145.645 167.71C146.001 167.71 146.357 167.71 146.714 167.71H147.07H147.427C147.783 167.71 148.14 167.71 148.14 167.71C148.14 167.71 148.14 167.71 148.496 167.71H148.853H149.209C149.566 167.71 149.922 167.71 150.278 167.71C150.635 167.71 150.991 167.71 151.348 167.354C152.061 167.354 152.417 166.997 153.13 166.997C154.199 166.641 155.269 166.284 156.338 165.571C157.408 165.215 158.12 164.502 159.19 163.789C159.546 163.789 159.546 163.432 159.903 163.076C160.972 162.363 160.972 160.937 160.259 160.224C159.546 159.511 158.477 159.154 157.764 159.867C157.408 159.867 157.408 160.224 157.051 160.224C156.338 160.58 155.625 160.937 154.556 161.293C153.843 161.65 152.774 161.65 152.061 162.006C151.704 162.006 150.991 162.006 150.635 162.006C150.278 162.006 150.278 162.006 149.922 162.006C149.566 162.006 149.566 162.006 149.209 162.006C148.853 162.006 148.853 162.006 148.496 162.006C148.14 162.006 147.783 162.006 147.783 162.006H147.427H147.07C146.714 162.006 146.714 162.006 146.357 162.006C144.219 161.65 142.436 161.293 140.298 160.224C138.159 159.511 136.377 158.085 134.594 156.659C132.812 155.233 131.386 153.45 130.317 151.311C129.248 149.172 128.178 147.033 127.822 144.537C127.465 143.468 127.465 142.042 127.465 140.972C127.465 140.616 127.465 140.259 127.465 139.903V139.546V139.19C127.465 138.477 127.465 137.764 127.822 137.051C128.891 131.703 131.386 126.712 135.664 122.791C136.733 121.721 137.803 121.008 138.872 119.939C139.941 119.226 141.367 118.512 142.436 117.799C143.862 117.086 144.932 116.73 146.357 116.373C147.783 116.017 149.209 115.66 150.635 115.66C151.348 115.66 152.061 115.66 152.774 115.66C153.13 115.66 153.13 115.66 153.13 115.66H153.843H154.199H154.912C156.338 115.66 158.12 116.017 159.546 116.373C162.754 117.086 165.606 118.156 168.458 119.582C174.161 122.791 178.795 127.425 181.646 133.486C183.072 136.338 184.142 139.546 184.498 142.755C184.498 143.468 184.855 144.537 184.855 145.25V145.963V146.676C184.855 147.033 184.855 147.033 184.855 147.389C184.855 147.746 184.855 147.746 184.855 148.103V148.816V149.529C184.855 149.885 184.855 150.598 184.855 150.955C184.855 152.024 184.855 152.737 184.498 153.807C184.498 154.52 184.142 155.589 184.142 156.302C184.142 157.015 183.785 158.085 183.429 158.798C183.072 160.58 182.359 162.363 181.646 163.789C180.221 166.997 178.438 170.206 176.3 173.058C172.022 178.762 166.319 183.753 159.546 186.605C156.338 188.031 152.774 189.101 149.209 189.814C147.427 190.17 145.645 190.17 143.862 190.527H143.506H143.149H142.436H142.08C141.011 190.527 140.298 190.527 139.228 190.527C135.307 190.17 131.386 189.457 127.822 188.388C124.257 187.318 120.693 185.892 117.128 184.11C110.355 180.545 104.296 175.553 99.6618 169.493C97.1667 166.641 95.0279 163.432 93.6021 159.867C91.8198 156.659 90.394 153.094 89.6811 149.172C88.6118 145.607 87.8988 141.685 87.8988 138.12V137.407V135.268V134.555V134.199V133.842V133.129V132.773C87.8988 132.416 87.8988 131.703 87.8988 131.347C87.8988 129.564 88.2553 127.782 88.2553 125.643C88.6118 123.86 88.9682 121.721 89.3247 119.939C89.6811 118.156 90.0376 116.017 90.7505 114.234C91.8198 110.669 93.2457 107.104 94.6715 103.539C97.8796 96.7656 101.801 90.705 106.791 86.0704C107.86 85.0009 109.286 83.5749 110.712 82.5054C112.138 81.4358 113.564 80.3663 114.989 79.6533C116.415 78.5838 117.841 77.8708 119.267 77.1578C119.98 76.8013 120.693 76.4447 121.406 76.0882C121.762 76.0882 122.118 75.7317 122.475 75.7317C122.831 75.7317 123.188 75.3752 123.544 75.3752C124.97 74.6622 126.752 74.3057 128.178 73.5927C128.535 73.5927 128.891 73.2362 129.248 73.2362C129.604 73.2362 129.96 72.8797 130.317 72.8797C131.03 72.5232 132.099 72.5232 132.812 72.1667C133.169 72.1667 133.525 71.8102 133.882 71.8102C134.238 71.8102 134.594 71.8102 134.951 71.4537C135.307 71.4537 135.664 71.4537 136.377 71.0972H137.09H137.803C138.159 71.0972 138.515 71.0972 139.228 70.7406C139.585 70.7406 140.298 70.7407 140.654 70.3841C141.011 70.3841 141.724 70.3841 142.08 70.3841C142.436 70.3841 142.793 70.3841 143.149 70.3841H143.862H144.219H144.575C144.932 70.3841 145.645 70.3841 146.001 70.3841H146.714H147.07C147.427 70.3841 147.783 70.3841 148.14 70.3841C149.922 70.3841 151.348 70.3841 153.13 70.3841C156.338 70.3841 159.546 70.7407 162.398 71.4537C168.458 72.5232 174.161 74.6622 179.508 77.1578C184.855 79.6533 189.488 82.8619 193.409 86.0704C193.766 86.4269 193.766 86.4269 194.122 86.7834C194.479 87.1399 194.479 87.1399 194.835 87.4964C195.192 87.853 195.905 88.2095 196.261 88.9225C196.618 89.279 197.33 89.6355 197.687 90.3485C198.043 90.705 198.756 91.418 199.113 91.7745C200.895 93.557 202.321 95.3396 203.747 97.1221C206.598 100.687 209.093 104.609 210.876 108.174C210.876 108.53 211.232 108.53 211.232 108.887C211.232 109.243 211.589 109.243 211.589 109.6C211.945 109.956 211.945 110.313 212.302 111.026C212.658 111.382 212.658 111.739 213.014 112.452C213.371 112.808 213.371 113.165 213.727 113.521C214.44 115.304 215.153 116.73 215.51 118.156C216.223 120.652 216.935 122.791 217.292 124.573C217.648 125.286 218.361 125.643 219.074 125.643C219.787 125.643 220.5 124.93 220.5 124.217C219.431 121.365 219.074 119.226 219.074 116.373Z" fill="url(#paint0_linear_3_201)"/>
</g>
<defs>
<linearGradient id="paint0_linear_3_201" x1="128" y1="272.816" x2="128" y2="90.4512" gradientUnits="userSpaceOnUse">
<stop stop-color="#FFF100"/>
<stop offset="1" stop-color="#F05A28"/>
</linearGradient>
<clipPath id="clip0_3_201">
<rect width="185" height="200" fill="white" transform="translate(35.5 28.3164)"/>
</clipPath>
</defs>
</svg>
