<svg width="192" height="192" viewBox="0 0 192 192" fill="none" xmlns="http://www.w3.org/2000/svg">
<rect width="192" height="192" rx="96" fill="white"/>
<path d="M96.018 96.001L40.0603 128.303L96.018 160.613V96.001Z" fill="black"/>
<path d="M96.018 96.806V32.1941L40.0603 64.4965L96.018 96.806Z" fill="black"/>
<path d="M104.233 96.0012C104.233 93.0613 102.667 90.3515 100.122 88.8851C97.5775 87.4188 94.4436 87.4188 91.8991 88.8851C89.3546 90.3515 87.7876 93.0685 87.7876 96.0012C87.7876 98.941 89.3546 101.651 91.8991 103.117C94.4436 104.583 97.5775 104.583 100.122 103.117C102.667 101.651 104.233 98.9338 104.233 96.0012Z" fill="black"/>
<path d="M151.228 82.9406V86.3118C151.207 86.4627 151.185 86.6136 151.185 86.7646V126.169C151.185 127.211 150.632 128.174 149.726 128.692L97.4627 158.866C96.5643 159.384 95.4501 159.384 94.5516 158.866L42.2885 128.692C41.39 128.174 40.8294 127.211 40.8294 126.169V65.8191C40.8294 64.7768 41.3828 63.8137 42.2885 63.2961L94.5588 33.1286C95.4573 32.6111 96.5714 32.6111 97.4699 33.1286L129.097 51.2421L132.604 53.384L138.053 49.747L133.797 47.2312C133.733 47.1881 133.668 47.1378 133.596 47.1018L132.712 46.5987L132.252 46.3255L132.245 46.3327L97.4555 26.3935C96.5571 25.8688 95.4429 25.8688 94.5445 26.3935L36.4592 59.9322C35.5607 60.4497 35 61.4129 35 62.4552V129.533C35 130.575 35.5535 131.538 36.4592 132.055L94.5445 165.594C95.4429 166.112 96.5571 166.112 97.4555 165.594L155.541 132.055C156.439 131.538 157 130.575 157 129.533V88.1303V86.7646V79.4905L151.228 82.9406Z" fill="black"/>
<path d="M154.47 65.4596C154.47 62.5198 152.903 59.81 150.358 58.3436C147.814 56.8773 144.68 56.8773 142.135 58.3436C139.591 59.81 138.024 62.527 138.024 65.4596C138.024 68.3995 139.591 71.1093 142.135 72.5757C144.68 74.042 147.814 74.042 150.358 72.5757C152.903 71.1093 154.47 68.3995 154.47 65.4596Z" fill="black"/>
</svg>
