<svg role="img" viewBox="0 0 24 24" xmlns="http://www.w3.org/2000/svg" id="Hetzner--Streamline-Simple-Icons" height="24" width="24">
  <desc>
    Hetzner Streamline Icon: https://streamlinehq.com
  </desc>
  <title>Hetzner</title>
  <path d="M0 0v24h24V0H0zm4.602 4.025h2.244c0.509 0 0.716 0.215 0.716 0.717v5.64h8.883v-5.64c0 -0.509 0.215 -0.717 0.717 -0.717h2.229c0.5 0 0.71 0.23 0.724 0.717v14.516c0 0.509 -0.215 0.717 -0.717 0.717h-2.23c-0.51 0 -0.717 -0.215 -0.717 -0.717v-5.735H7.562v5.735c0 0.516 -0.215 0.717 -0.716 0.717H4.602c-0.51 0 -0.717 -0.208 -0.717 -0.717V4.742c0 -0.509 0.207 -0.717 0.717 -0.717z" fill="#d50c2e" stroke-width="1"></path>
</svg>