<svg width="256" height="256" viewBox="0 0 256 256" fill="none" xmlns="http://www.w3.org/2000/svg">
<path d="M48 224C43.7333 224 40 222.4 36.8 219.2C33.6 216 32 212.267 32 208V48C32 43.7333 33.6 40 36.8 36.8C40 33.6 43.7333 32 48 32H208C212.267 32 216 33.6 219.2 36.8C222.4 40 224 43.7333 224 48V208C224 212.267 222.4 216 219.2 219.2C216 222.4 212.267 224 208 224H48ZM48 208H208V48H48V208ZM62.9333 182.133H193.333L154.133 129.867L118.933 175.467L94.1333 141.6L62.9333 182.133Z" fill="white"/>
</svg>
