<svg xmlns="http://www.w3.org/2000/svg" xmlns:xlink="http://www.w3.org/1999/xlink" id="Layer_1" x="0" y="0" version="1.1" viewBox="0 0 70 70" width="70px" height="70px" xml:space="preserve" style="enable-background:new 0 0 70 70"><g><g><linearGradient id="SVGID_1_" x1=".79" x2="33.317" y1="40.089" y2="40.089" gradientUnits="userSpaceOnUse"><stop offset=".258" style="stop-color:#f97a12"/><stop offset=".459" style="stop-color:#b07b58"/><stop offset=".724" style="stop-color:#577bae"/><stop offset=".91" style="stop-color:#1e7ce5"/><stop offset="1" style="stop-color:#087cfa"/></linearGradient><polygon style="fill:url(#SVGID_1_)" points="17.7 54.6 .8 41.2 9.2 25.6 33.3 35"/><linearGradient id="SVGID_2_" x1="25.767" x2="79.424" y1="24.88" y2="54.57" gradientUnits="userSpaceOnUse"><stop offset="0" style="stop-color:#f97a12"/><stop offset=".072" style="stop-color:#cb7a3e"/><stop offset=".154" style="stop-color:#9e7b6a"/><stop offset=".242" style="stop-color:#757b91"/><stop offset=".334" style="stop-color:#537bb1"/><stop offset=".432" style="stop-color:#387ccc"/><stop offset=".538" style="stop-color:#237ce0"/><stop offset=".655" style="stop-color:#147cef"/><stop offset=".792" style="stop-color:#0b7cf7"/><stop offset="1" style="stop-color:#087cfa"/></linearGradient><polygon style="fill:url(#SVGID_2_)" points="70 18.7 68.7 59.2 41.8 70 25.6 59.6 49.3 35 38.9 12.3 48.2 1.1"/><linearGradient id="SVGID_3_" x1="63.228" x2="48.29" y1="42.915" y2="-1.719" gradientUnits="userSpaceOnUse"><stop offset="0" style="stop-color:#fe315d"/><stop offset=".078" style="stop-color:#cb417e"/><stop offset=".16" style="stop-color:#9e4e9b"/><stop offset=".247" style="stop-color:#755bb4"/><stop offset=".339" style="stop-color:#5365ca"/><stop offset=".436" style="stop-color:#386ddb"/><stop offset=".541" style="stop-color:#2374e9"/><stop offset=".658" style="stop-color:#1478f3"/><stop offset=".794" style="stop-color:#0b7bf8"/><stop offset="1" style="stop-color:#087cfa"/></linearGradient><polygon style="fill:url(#SVGID_3_)" points="70 18.7 48.7 43.9 38.9 12.3 48.2 1.1"/><linearGradient id="SVGID_4_" x1="10.72" x2="55.524" y1="16.473" y2="90.58" gradientUnits="userSpaceOnUse"><stop offset="0" style="stop-color:#fe315d"/><stop offset=".04" style="stop-color:#f63462"/><stop offset=".104" style="stop-color:#df3a71"/><stop offset=".167" style="stop-color:#c24383"/><stop offset=".291" style="stop-color:#ad4a91"/><stop offset=".55" style="stop-color:#755bb4"/><stop offset=".917" style="stop-color:#1d76ed"/><stop offset="1" style="stop-color:#087cfa"/></linearGradient><polygon style="fill:url(#SVGID_4_)" points="33.7 58.1 5.6 68.3 10.1 52.5 16 33.1 0 27.7 10.1 0 32.1 2.7 53.7 27.4"/></g><g><rect style="fill:#000" width="43.2" height="43.2" x="13.7" y="13.5"/><rect style="fill:#fff" width="16.2" height="2.7" x="17.7" y="48.6"/><polygon style="fill:#fff" points="29.4 22.4 29.4 19.1 20.4 19.1 20.4 22.4 23 22.4 23 33.7 20.4 33.7 20.4 37 29.4 37 29.4 33.7 26.9 33.7 26.9 22.4"/><path style="fill:#fff" d="M38,37.3c-1.4,0-2.6-0.3-3.5-0.8c-0.9-0.5-1.7-1.2-2.3-1.9l2.5-2.8c0.5,0.6,1,1,1.5,1.3 c0.5,0.3,1.1,0.5,1.7,0.5c0.7,0,1.3-0.2,1.8-0.7c0.4-0.5,0.6-1.2,0.6-2.3V19.1h4v11.7c0,1.1-0.1,2-0.4,2.8c-0.3,0.8-0.7,1.4-1.3,2 c-0.5,0.5-1.2,1-2,1.2C39.8,37.1,39,37.3,38,37.3"/></g></g></svg>
