<svg width="256" height="256" viewBox="0 0 256 256" fill="none" xmlns="http://www.w3.org/2000/svg">
<g clip-path="url(#clip0_2115_2049)">
<path d="M63.7904 23.2656L16.2886 23.2726C7.29136 23.2726 0 30.5663 0 39.5635V85.59C0 90.3448 2.07826 94.864 5.68784 97.9596L158.331 228.799C161.285 231.328 165.046 232.72 168.934 232.72H216.436C225.434 232.72 232.727 225.426 232.727 216.429V170.396C232.727 165.641 230.649 161.122 227.04 158.026L74.396 27.1894C71.4428 24.6573 67.6816 23.2656 63.7904 23.2656Z" fill="#FF8100"/>
<path d="M58.0772 23.2656H16.2909C7.29368 23.2656 0 30.5593 0 39.5565V91.9272C0 92.6976 0.055856 93.468 0.162908 94.2312L21.2713 242.006C22.4186 250.033 29.291 255.993 37.3993 255.993H100.091C109.091 255.993 116.384 248.697 116.382 239.697L116.364 165.544C116.364 163.793 116.082 162.055 115.528 160.396L73.53 34.4039C71.3124 27.7526 65.0892 23.2656 58.0772 23.2656Z" fill="url(#paint0_linear_2115_2049)"/>
<path d="M239.71 0H103.837C97.3204 0 91.43 3.88422 88.8628 9.87228L24.5907 159.835C23.7226 161.862 23.2734 164.047 23.2734 166.253V239.709C23.2734 248.706 30.5671 256 39.5644 256H111.428C114.647 256 117.793 255.046 120.472 253.258L248.747 167.645C253.276 164.624 255.994 159.539 255.994 154.096L256.001 16.2909C256.001 7.29368 248.707 0 239.71 0Z" fill="url(#paint1_linear_2115_2049)"/>
<path d="M208 48H48V208H208V48Z" fill="black"/>
<path d="M68 117.542H79.9152V78.4576H68V68H103.356V78.4576H91.4408V117.542H103.356V128H68V117.542Z" fill="white"/>
<path d="M109.356 117.201H117.971C119.712 117.201 121.264 116.83 122.621 116.087C123.978 115.344 125.027 114.295 125.77 112.938C126.512 111.581 126.884 110.032 126.884 108.288V68H138.583V109.099C138.583 112.7 137.754 115.936 136.097 118.808C134.44 121.679 132.155 123.93 129.24 125.557C126.324 127.186 123.054 128 119.426 128H109.356V117.201Z" fill="white"/>
<path d="M68 176H132V188H68V176Z" fill="white"/>
</g>
<defs>
<linearGradient id="paint0_linear_2115_2049" x1="-2.86953" y1="30.4778" x2="96.582" y2="244.982" gradientUnits="userSpaceOnUse">
<stop offset="0.1" stop-color="#FC801D"/>
<stop offset="0.59" stop-color="#FE2857"/>
</linearGradient>
<linearGradient id="paint1_linear_2115_2049" x1="16.8897" y1="240.074" x2="251.709" y2="5.25263" gradientUnits="userSpaceOnUse">
<stop offset="0.21" stop-color="#FE2857"/>
<stop offset="0.7" stop-color="#007EFF"/>
</linearGradient>
<clipPath id="clip0_2115_2049">
<rect width="256" height="256" fill="white"/>
</clipPath>
</defs>
</svg>
