<svg width="256" height="256" viewBox="0 0 256 256" fill="none" xmlns="http://www.w3.org/2000/svg">
<path d="M135.605 84.5709C143.897 94.1611 133.427 102.791 133.427 102.791C133.427 102.791 154.481 91.8725 144.812 78.1998C135.781 65.4491 128.856 59.1138 166.347 37.2705C166.347 37.2705 107.498 52.0357 135.605 84.5709Z" fill="#E76F00"/>
<path d="M144.813 2C144.813 2 162.675 19.9493 127.872 47.5503C99.9643 69.6911 121.508 82.3151 127.861 96.7386C111.57 81.9735 99.6154 68.9756 107.636 56.8785C119.408 39.1209 152.02 30.5114 144.813 2Z" fill="#E76F00"/>
<path d="M105.052 135.55C105.052 135.55 98.4834 139.387 109.728 140.686C123.35 142.247 130.312 142.023 145.323 139.169C145.323 139.169 149.27 141.655 154.782 143.808C121.13 158.297 78.6207 142.969 105.052 135.55Z" fill="#5382A1"/>
<path d="M100.939 116.644C100.939 116.644 93.5716 122.122 104.824 123.292C119.376 124.8 130.867 124.923 150.752 121.077C150.752 121.077 153.502 123.878 157.827 125.409C117.14 137.361 71.8218 126.352 100.939 116.644Z" fill="#5382A1"/>
<path d="M180.114 149.535C180.114 149.535 184.975 153.559 174.76 156.672C155.336 162.583 93.9138 164.368 76.8511 156.907C70.7175 154.227 82.2197 150.507 85.8379 149.726C89.6113 148.904 91.7676 149.057 91.7676 149.057C84.9464 144.23 47.6782 158.536 72.8372 162.633C141.449 173.811 197.911 157.599 180.114 149.535Z" fill="#5382A1"/>
<path d="M108.211 97.0535C108.211 97.0535 76.9677 104.508 97.1468 107.215C105.667 108.361 122.652 108.102 138.473 106.77C151.403 105.675 164.386 103.345 164.386 103.345C164.386 103.345 159.827 105.306 156.528 107.569C124.801 115.951 63.5111 112.052 81.1558 103.478C96.0779 96.2315 108.211 97.0535 108.211 97.0535Z" fill="#5382A1"/>
<path d="M164.258 128.525C196.509 111.689 181.597 95.5102 171.189 97.6899C168.638 98.2233 167.5 98.6855 167.5 98.6855C167.5 98.6855 168.448 97.1952 170.256 96.55C190.847 89.2778 206.683 117.999 163.609 129.374C163.609 129.374 164.108 128.926 164.258 128.525Z" fill="#5382A1"/>
<path d="M111.379 174.147C142.337 176.138 189.876 173.042 191.002 158.327C191.002 158.327 188.838 163.906 165.417 168.336C138.994 173.331 106.405 172.748 87.0762 169.546C87.0762 169.546 91.033 172.836 111.379 174.147Z" fill="#5382A1"/>
<path d="M189.575 200.537H188.631V200.007H191.173V200.537H190.235V203.185H189.575V200.537ZM194.645 200.676H194.63L193.695 203.185H193.267L192.337 200.676H192.325V203.185H191.704V200.007H192.619L193.481 202.258L194.34 200.007H195.251V203.185H194.644L194.645 200.676Z" fill="#E76F00"/>
<path d="M106.307 230.374C103.386 232.919 100.302 234.347 97.534 234.347C93.5832 234.347 91.4486 231.968 91.4486 228.15C91.4486 224.021 93.7356 221.002 102.911 221.002H106.306L106.307 230.374ZM114.365 239.508V211.235C114.365 204.013 110.265 199.247 100.378 199.247C94.6062 199.247 89.5503 200.679 85.441 202.505L86.6272 207.509C89.8626 206.316 94.0507 205.206 98.1614 205.206C103.857 205.206 106.307 207.509 106.307 212.272V215.845H103.464C89.6268 215.845 83.3848 221.241 83.3848 229.341C83.3848 236.33 87.4982 240.303 95.2433 240.303C100.222 240.303 103.938 238.239 107.412 235.217L108.043 239.508L114.365 239.508Z" fill="#E76F00"/>
<path d="M141.26 239.508H131.209L119.113 199.963H127.89L135.396 224.26L137.064 231.567C140.861 221.002 143.547 210.283 144.89 199.963H153.428C151.14 212.985 147.024 227.278 141.26 239.508Z" fill="#E76F00"/>
<path d="M179.815 230.374C176.889 232.919 173.799 234.347 171.031 234.347C167.087 234.347 164.947 231.968 164.947 228.15C164.947 224.021 167.239 221.002 176.414 221.002H179.815V230.374ZM187.872 239.508V211.235C187.872 204.013 183.761 199.247 173.886 199.247C168.111 199.247 163.053 200.679 158.945 202.505L160.13 207.509C163.366 206.316 167.562 205.206 171.67 205.206C177.361 205.206 179.815 207.509 179.815 212.272V215.845H176.968C163.126 215.845 156.887 221.241 156.887 229.341C156.887 236.33 160.997 240.303 168.741 240.303C173.722 240.303 177.437 238.239 180.917 235.217L181.55 239.508L187.872 239.508Z" fill="#E76F00"/>
<path d="M74.5483 246.224C72.2511 249.593 68.5407 252.259 64.4786 253.767L60.5 249.063C63.5918 247.47 66.2435 244.896 67.4755 242.498C68.5412 240.366 68.9822 237.618 68.9822 231.046V185.899H77.5437V230.428C77.5433 239.213 76.8441 242.763 74.5483 246.224Z" fill="#E76F00"/>
</svg>
