<svg fill="none" height="64" viewBox="0 0 64 64" width="64" xmlns="http://www.w3.org/2000/svg" xmlns:xlink="http://www.w3.org/1999/xlink"><linearGradient id="a" gradientUnits="userSpaceOnUse" x1=".850001" x2="62.62" y1="62.72" y2="1.81"><stop offset="0" stop-color="#ff9419"/><stop offset=".43" stop-color="#ff021d"/><stop offset=".99" stop-color="#e600ff"/></linearGradient><clipPath id="b"><path d="m0 0h64v64h-64z"/></clipPath><g clip-path="url(#b)"><path d="m20.34 3.66-16.68 16.68c-2.34 2.34-3.66 5.52-3.66 8.84v29.82c0 2.76 2.24 5 5 5h29.82c3.32 0 6.49-1.32 8.84-3.66l16.68-16.68c2.34-2.34 3.66-5.52 3.66-8.84v-29.82c0-2.76-2.24-5-5-5h-29.82c-3.32 0-6.49 1.32-8.84 3.66z" fill="url(#a)"/><path d="m48 16h-40v40h40z" fill="#000"/><path d="m30 47h-17v4h17z" fill="#fff"/></g></svg>