<svg width="256" height="256" viewBox="0 0 256 256" fill="none" xmlns="http://www.w3.org/2000/svg">
<g clip-path="url(#clip0_2115_1874)">
<path d="M81.36 14.64L14.64 81.36C5.28 90.72 0 103.44 0 116.72V236C0 247.04 8.96 256 20 256H139.28C152.56 256 165.24 250.72 174.64 241.36L241.36 174.64C250.72 165.28 256 152.56 256 139.28V20C256 8.96 247.04 0 236 0H116.72C103.44 0 90.76 5.28 81.36 14.64Z" fill="url(#paint0_linear_2115_1874)"/>
<path d="M192 64H32V224H192V64Z" fill="black"/>
<path d="M120 188H52V204H120V188Z" fill="white"/>
</g>
<defs>
<linearGradient id="paint0_linear_2115_1874" x1="3.4" y1="250.88" x2="250.48" y2="7.24" gradientUnits="userSpaceOnUse">
<stop stop-color="#FF9419"/>
<stop offset="0.43" stop-color="#FF021D"/>
<stop offset="0.99" stop-color="#E600FF"/>
</linearGradient>
<clipPath id="clip0_2115_1874">
<rect width="256" height="256" fill="white"/>
</clipPath>
</defs>
</svg>
