<svg width="256" height="256" viewBox="0 0 256 256" fill="none" xmlns="http://www.w3.org/2000/svg">
<path d="M115.699 161.246L104.094 164.476C105.105 167.403 105.912 172.655 105.912 179.721V214.451H118.938V177.707C121.361 174.78 123.985 173.363 126.814 173.363C128.222 173.363 129.34 173.662 130.552 174.374L134.084 162.36C132.066 161.451 131.157 161.25 129.237 161.25C127.829 161.25 126.106 161.549 124.996 162.061C122.573 163.273 119.544 165.999 117.628 168.623C117.628 165.696 116.92 163.375 115.708 161.254L115.699 161.246ZM70.8267 144.085H69.4187V214.357H82.9441V183.253H100.011V171.648H82.9441V155.494H104.248L105.058 149.333C93.5263 148.506 82.0801 146.75 70.831 144.081L70.8267 144.085ZM39.2236 223.744L45.4827 231.014C51.5414 228.591 59.1147 223.138 61.1329 214.46C61.8411 211.631 62.0417 209.809 62.0417 200.627V144.183H48.4097V202.138C48.4097 209.711 48.111 212.535 47.0955 215.164C45.7814 218.091 42.6582 221.521 39.2193 223.74L39.2236 223.744ZM162.104 188.105C162.104 200.422 159.68 205.675 154.125 205.675C151.599 205.675 148.774 204.267 147.563 201.434C146.552 198.81 145.941 194.368 145.941 188.309C145.941 183.159 146.445 179.52 147.256 176.704C148.267 173.474 150.788 171.456 153.92 171.456C156.241 171.456 158.264 172.467 159.475 174.187C161.293 176.61 162.099 181.154 162.099 188.122L162.104 188.105ZM170.082 208.299C174.323 203.251 176.243 197.09 176.243 188.203C176.243 179.823 174.528 174.067 170.59 169.216C166.349 163.968 160.896 161.442 153.83 161.442C140.501 161.442 131.618 172.245 131.618 188.604C131.618 204.962 140.408 215.462 153.83 215.462C161.404 215.565 166.349 212.732 170.044 208.294L170.082 208.299ZM207.032 179.221C207.032 183.966 204.203 186.59 199.155 186.59C194.611 186.59 191.582 184.469 191.582 179.221C191.582 174.374 194.411 171.55 199.253 171.55C204.096 171.55 207.032 174.379 207.032 179.221ZM229.952 168.115L224.64 159.573C221.653 162.402 217.976 164.011 214.4 164.011C212.779 164.011 211.874 163.81 208.341 162.901C205.463 162.021 202.468 161.578 199.458 161.587C186.837 161.587 178.658 168.457 178.658 179.157C178.658 186.829 182.093 191.676 189.261 193.596C186.334 194.304 183.202 195.814 181.794 197.534C180.783 198.746 180.28 200.363 180.28 202.278C180.279 203.752 180.626 205.205 181.291 206.519C181.999 207.629 182.912 208.538 184.12 209.045C186.441 209.954 190.178 210.56 195.938 210.667L201.391 210.769C204.924 210.97 206.741 211.58 208.154 212.284C209.468 213.094 210.475 214.908 210.475 216.934C210.475 218.961 209.263 220.975 207.343 222.182C205.628 223.394 202.799 223.898 199.164 223.898C193.208 223.898 189.875 221.679 189.875 217.54C189.875 215.723 190.076 215.322 190.481 214.212H178.603C178.099 215.224 177.493 216.636 177.493 219.46C177.493 222.993 178.808 226.022 181.534 228.646C185.971 232.99 193.246 234.202 200.213 234.202C207.885 234.202 215.36 232.384 219.699 227.537C222.43 224.55 223.637 221.18 223.637 216.836C223.637 212.186 222.323 208.657 219.396 205.73C215.962 202.402 212.028 201.186 204.454 201.079L197.487 200.977C196.173 200.977 195.366 200.474 195.366 199.765C195.366 198.357 197.184 197.141 200.516 195.524L202.436 195.627C212.932 195.627 220.612 189.167 220.612 180.181C220.612 176.747 219.601 174.123 217.685 171.699C219.307 171.9 219.806 171.998 221.013 171.998C224.448 171.998 227.174 170.889 229.999 168.158L229.952 168.115ZM67.3921 82.9952C51.2385 86.9334 40.2305 94.7072 40.2305 103.59C40.2305 109.146 44.4715 114.193 51.439 118.131C49.3185 114.803 48.2091 111.164 48.2091 107.529C48.3115 98.3424 55.4795 89.7579 67.3921 82.9952ZM237.824 117.828C237.824 111.97 234.189 106.62 228.13 102.178C228.634 103.996 229.039 105.813 229.039 107.631C229.039 124.292 205.717 138.628 172.6 144.58C176.456 144.992 180.331 145.194 184.209 145.186C213.794 145.084 237.824 132.873 237.824 117.828ZM218.744 108.74C218.744 102.579 213.496 96.9216 204.506 92.2838C206.626 94.8096 207.736 97.5318 207.736 100.361C207.736 115.209 176.235 127.219 137.263 127.219C98.3937 127.219 66.7905 115.204 66.7905 100.361C66.7909 98.4393 67.3144 96.5543 68.3051 94.9078C62.0459 99.0464 58.5131 103.791 58.5131 108.843C58.5131 124.898 94.3531 137.92 138.581 137.92C182.81 137.92 218.752 124.693 218.752 108.736L218.744 108.74ZM183.808 107.93C167.45 118.426 117.171 122.47 95.5649 108.941C78.6006 98.3382 84.4587 81.4763 35.8955 44.5227C29.5382 39.6759 37.1073 34.526 41.8518 37.8583C46.5963 41.1906 42.2571 41.997 51.8486 51.5883C71.2321 70.9718 71.0315 53.5083 74.0609 60.1643C80.5206 73.9968 94.6561 87.9318 94.6561 87.9318C108.894 97.2203 120.201 99.2384 141.205 85.0048C154.534 76.0192 149.082 99.3408 181.696 82.479C193.609 76.3179 193.105 80.4608 205.222 63.599C210.27 56.6315 219.857 68.9494 208.96 70.6646C204.617 71.3728 197.248 76.1174 194.112 83.5926C189.568 94.8011 191.488 103.078 183.812 107.925L183.808 107.93ZM93.1414 79.4582C89.1009 77.6406 84.8641 70.7755 83.2427 68.0491C87.7867 63.6118 85.9734 56.2304 83.3451 52.1984C80.8193 48.1579 77.6918 49.2715 74.3595 45.5339C70.9249 41.7964 75.6737 32.1068 80.0129 39.5778C96.2262 67.5456 106.97 55.936 120.196 54.2123C132.92 52.591 144.226 59.5627 147.661 39.8764C148.267 36.6466 151.398 35.9383 151.701 41.1906C152 46.5408 154.022 59.4646 160.99 61.0816C167.957 62.7968 173.611 59.4603 175.228 57.647C176.845 55.8336 177.754 56.0256 178.458 60.6336C179.166 65.1776 180.984 71.5392 190.776 64.4736C210.872 50.1376 205.112 44.5824 212.988 40.8492C217.425 38.7287 224.499 45.5936 214.302 50.7478C199.761 58.1163 198.246 67.2043 189.06 72.96C173.615 82.6539 178.36 73.3654 153.519 69.8283C143.928 68.5142 140.898 79.1168 133.423 76.0875C116.356 69.0219 104.346 70.4342 93.1371 79.4155L93.1414 79.4582ZM146.957 27.661C147.563 31.902 148.271 31.7996 149.786 32.0983C151.3 32.5036 153.22 30.0802 153.22 27.8572C153.323 25.5362 152.209 24.1196 149.99 24.222C147.669 24.3244 146.859 25.4338 147.004 27.6567L146.957 27.661ZM221.666 35.2343C223.484 36.9495 228.331 35.8402 229.44 34.526C232.367 31.2962 232.427 29.3762 230.955 27.1575C229.44 25.037 226.304 25.3399 223.181 27.661C220.058 29.982 220.655 34.3255 221.666 35.2343ZM220.352 56.64C218.837 58.6582 218.731 60.1728 219.849 61.2907C221.06 62.5024 223.484 63.5094 225.199 62.1995C226.914 60.7915 226.914 58.7648 225.498 57.0496C223.983 55.232 221.965 55.232 220.348 56.6443L220.352 56.64ZM67.1318 31.4028C69.4529 32.1111 70.5665 34.3298 72.4822 31.8082C73.4934 30.5964 73.5915 28.8812 72.2817 27.0636C71.471 25.9543 67.631 25.1436 66.0225 26.765C64.4139 28.3863 65.9201 31.006 67.1318 31.4156V31.4028ZM19.7804 29.9948C24.0214 32.6188 26.7478 36.557 30.0203 32.9815C31.1297 31.7698 32.4438 29.6535 30.1228 25.4082C28.4076 22.2764 22.8524 21.0647 20.9366 22.2764C18.9185 23.3858 16.4993 27.9298 19.8273 29.9479L19.7804 29.9948ZM58.8545 50.0907C60.1686 51.4987 62.4897 51.4048 63.9019 50.5942C65.2161 49.7835 65.0113 47.6672 63.7014 45.8496C62.8907 44.7403 60.4715 44.1344 58.8545 45.8496C57.2374 47.5648 57.9457 49.0795 58.8545 50.0907Z" fill="#41BF47"/>
</svg>
