<svg width="92px" height="92px" viewBox="0 0 60 60" fill="none" xmlns="http://www.w3.org/2000/svg">
<path d="M27.117 37.792L24.397 38.549C24.634 39.235 24.823 40.466 24.823 42.122V50.262H27.876V41.65C28.444 40.964 29.059 40.632 29.722 40.632C30.052 40.632 30.314 40.702 30.598 40.869L31.426 38.053C30.953 37.84 30.74 37.793 30.29 37.793C29.96 37.793 29.556 37.863 29.296 37.983C28.728 38.267 28.018 38.906 27.569 39.521C27.569 38.835 27.403 38.291 27.119 37.794L27.117 37.792ZM16.6 33.77H16.27V50.24H19.44V42.95H23.44V40.23H19.44V36.444H24.433L24.623 35C21.9202 34.8062 19.2375 34.3945 16.601 33.769L16.6 33.77ZM9.19301 52.44L10.66 54.144C12.08 53.576 13.855 52.298 14.328 50.264C14.494 49.601 14.541 49.174 14.541 47.022V33.793H11.346V47.376C11.346 49.151 11.276 49.813 11.038 50.429C10.73 51.115 9.99801 51.919 9.19201 52.439L9.19301 52.44ZM37.993 44.087C37.993 46.974 37.425 48.205 36.123 48.205C35.531 48.205 34.869 47.875 34.585 47.211C34.348 46.596 34.205 45.555 34.205 44.135C34.205 42.928 34.323 42.075 34.513 41.415C34.75 40.658 35.341 40.185 36.075 40.185C36.619 40.185 37.093 40.422 37.377 40.825C37.803 41.393 37.992 42.458 37.992 44.091L37.993 44.087ZM39.863 48.82C40.857 47.637 41.307 46.193 41.307 44.11C41.307 42.146 40.905 40.797 39.982 39.66C38.988 38.43 37.71 37.838 36.054 37.838C32.93 37.838 30.848 40.37 30.848 44.204C30.848 48.038 32.908 50.499 36.054 50.499C37.829 50.523 38.988 49.859 39.854 48.819L39.863 48.82ZM48.523 42.005C48.523 43.117 47.86 43.732 46.677 43.732C45.612 43.732 44.902 43.235 44.902 42.005C44.902 40.869 45.565 40.207 46.7 40.207C47.835 40.207 48.523 40.87 48.523 42.005ZM53.895 39.402L52.65 37.4C51.95 38.063 51.088 38.44 50.25 38.44C49.87 38.44 49.658 38.393 48.83 38.18C48.1554 37.9736 47.4535 37.8698 46.748 37.872C43.79 37.872 41.873 39.482 41.873 41.99C41.873 43.788 42.678 44.924 44.358 45.374C43.672 45.54 42.938 45.894 42.608 46.297C42.371 46.581 42.253 46.96 42.253 47.409C42.2529 47.7544 42.3341 48.0949 42.49 48.403C42.656 48.663 42.87 48.876 43.153 48.995C43.697 49.208 44.573 49.35 45.923 49.375L47.201 49.399C48.029 49.446 48.455 49.589 48.786 49.754C49.094 49.944 49.33 50.369 49.33 50.844C49.33 51.319 49.046 51.791 48.596 52.074C48.194 52.358 47.531 52.476 46.679 52.476C45.283 52.476 44.502 51.956 44.502 50.986C44.502 50.56 44.549 50.466 44.644 50.206H41.86C41.742 50.443 41.6 50.774 41.6 51.436C41.6 52.264 41.908 52.974 42.547 53.589C43.587 54.607 45.292 54.891 46.925 54.891C48.723 54.891 50.475 54.465 51.492 53.329C52.132 52.629 52.415 51.839 52.415 50.821C52.415 49.731 52.107 48.904 51.421 48.218C50.616 47.438 49.694 47.153 47.919 47.128L46.286 47.104C45.978 47.104 45.789 46.986 45.789 46.82C45.789 46.49 46.215 46.205 46.996 45.826L47.446 45.85C49.906 45.85 51.706 44.336 51.706 42.23C51.706 41.425 51.469 40.81 51.02 40.242C51.4 40.289 51.517 40.312 51.8 40.312C52.605 40.312 53.244 40.052 53.906 39.412L53.895 39.402ZM15.795 19.452C12.009 20.375 9.42901 22.197 9.42901 24.279C9.42901 25.581 10.423 26.764 12.056 27.687C11.559 26.907 11.299 26.054 11.299 25.202C11.323 23.049 13.003 21.037 15.795 19.452ZM55.74 27.616C55.74 26.243 54.888 24.989 53.468 23.948C53.586 24.374 53.681 24.8 53.681 25.226C53.681 29.131 48.215 32.491 40.453 33.886C41.3568 33.9824 42.2651 34.0298 43.174 34.028C50.108 34.004 55.74 31.142 55.74 27.616ZM51.268 25.486C51.268 24.042 50.038 22.716 47.931 21.629C48.428 22.221 48.688 22.859 48.688 23.522C48.688 27.002 41.305 29.817 32.171 29.817C23.061 29.817 15.654 27.001 15.654 23.522C15.6541 23.0717 15.7768 22.6299 16.009 22.244C14.542 23.214 13.714 24.326 13.714 25.51C13.714 29.273 22.114 32.325 32.48 32.325C42.846 32.325 51.27 29.225 51.27 25.485L51.268 25.486ZM43.08 25.296C39.246 27.756 27.462 28.704 22.398 25.533C18.422 23.048 19.795 19.096 8.413 10.435C6.923 9.29903 8.697 8.09203 9.809 8.87303C10.921 9.65403 9.904 9.84303 12.152 12.091C16.695 16.634 16.648 12.541 17.358 14.101C18.872 17.343 22.185 20.609 22.185 20.609C25.522 22.786 28.172 23.259 33.095 19.923C36.219 17.817 34.941 23.283 42.585 19.331C45.377 17.887 45.259 18.858 48.099 14.906C49.282 13.273 51.529 16.16 48.975 16.562C47.957 16.728 46.23 17.84 45.495 19.592C44.43 22.219 44.88 24.159 43.081 25.295L43.08 25.296ZM21.83 18.623C20.883 18.197 19.89 16.588 19.51 15.949C20.575 14.909 20.15 13.179 19.534 12.234C18.942 11.287 18.209 11.548 17.428 10.672C16.623 9.79603 17.736 7.52503 18.753 9.27603C22.553 15.831 25.071 13.11 28.171 12.706C31.153 12.326 33.803 13.96 34.608 9.34603C34.75 8.58903 35.484 8.42303 35.555 9.65403C35.625 10.908 36.099 13.937 37.732 14.316C39.365 14.718 40.69 13.936 41.069 13.511C41.448 13.086 41.661 13.131 41.826 14.211C41.992 15.276 42.418 16.767 44.713 15.111C49.423 11.751 48.073 10.449 49.919 9.57403C50.959 9.07703 52.617 10.686 50.227 11.894C46.819 13.621 46.464 15.751 44.311 17.1C40.691 19.372 41.803 17.195 35.981 16.366C33.733 16.058 33.023 18.543 31.271 17.833C27.271 16.177 24.456 16.508 21.829 18.613L21.83 18.623ZM34.443 6.48303C34.585 7.47703 34.751 7.45303 35.106 7.52303C35.461 7.61803 35.911 7.05003 35.911 6.52903C35.935 5.98503 35.674 5.65303 35.154 5.67703C34.61 5.70103 34.42 5.96103 34.454 6.48203L34.443 6.48303ZM51.953 8.25803C52.379 8.66003 53.515 8.40003 53.775 8.09203C54.461 7.33503 54.475 6.88503 54.13 6.36503C53.775 5.86803 53.04 5.93903 52.308 6.48303C51.576 7.02703 51.716 8.04503 51.953 8.25803ZM51.645 13.275C51.29 13.748 51.265 14.103 51.527 14.365C51.811 14.649 52.379 14.885 52.781 14.578C53.183 14.248 53.183 13.773 52.851 13.371C52.496 12.945 52.023 12.945 51.644 13.276L51.645 13.275ZM15.734 7.36003C16.278 7.52603 16.539 8.04603 16.988 7.45503C17.225 7.17103 17.248 6.76903 16.941 6.34303C16.751 6.08303 15.851 5.89303 15.474 6.27303C15.097 6.65303 15.45 7.26703 15.734 7.36303V7.36003ZM4.63601 7.03003C5.63001 7.64503 6.269 8.56803 7.036 7.73003C7.296 7.44603 7.60401 6.95003 7.06001 5.95503C6.65801 5.22103 5.35601 4.93703 4.90701 5.22103C4.43401 5.48103 3.867 6.54603 4.647 7.01903L4.63601 7.03003ZM13.794 11.74C14.102 12.07 14.646 12.048 14.977 11.858C15.285 11.668 15.237 11.172 14.93 10.746C14.74 10.486 14.173 10.344 13.794 10.746C13.415 11.148 13.581 11.503 13.794 11.74Z" fill="#41BF47"/>
</svg>
