<svg width="256" height="256" viewBox="0 0 256 256" fill="none" xmlns="http://www.w3.org/2000/svg">
<path d="M29.2647 134.701C29.2647 142.522 28.6368 145.072 27.0295 146.949C25.2374 148.561 22.911 149.451 20.5 149.449L21.1278 153.916C24.8653 153.968 28.4924 152.65 31.324 150.212C32.8467 148.355 33.9797 146.211 34.6554 143.908C35.3311 141.604 35.5356 139.188 35.2568 136.804V107.219H29.2647V134.701Z" fill="#4E4E4E"/>
<path d="M73.9515 131.177C73.9515 134.531 73.9515 137.522 74.2177 140.112H68.8986L68.542 134.797C67.4284 136.68 65.8355 138.234 63.9254 139.302C62.0152 140.37 59.8561 140.913 57.6678 140.875C52.4944 140.875 46.3164 138.064 46.3164 126.574V107.495H52.3085V125.365C52.3085 131.579 54.2322 135.735 59.6417 135.735C60.7543 135.747 61.8581 135.537 62.8885 135.118C63.9189 134.698 64.8552 134.077 65.6424 133.291C66.4297 132.506 67.0521 131.571 67.4732 130.541C67.8943 129.512 68.1057 128.409 68.095 127.297V107.269H74.0871V130.997L73.9515 131.177Z" fill="#4E4E4E"/>
<path d="M85.3083 118.126C85.3083 113.97 85.3083 110.572 85.042 107.485H90.4063L90.6775 113.077C91.8724 111.058 93.5929 109.401 95.6556 108.283C97.7183 107.165 100.046 106.627 102.391 106.727C110.352 106.727 116.344 113.388 116.344 123.307C116.344 135.017 109.146 140.825 101.366 140.825C99.3748 140.914 97.3943 140.488 95.6161 139.589C93.8378 138.689 92.3219 137.346 91.215 135.69V153.56H85.3083V118.126ZM91.22 126.84C91.2351 127.648 91.3205 128.457 91.4862 129.25C91.9934 131.234 93.1479 132.992 94.7671 134.246C96.3863 135.501 98.3778 136.18 100.427 136.177C106.735 136.177 110.447 131.042 110.447 123.578C110.447 117.052 106.956 111.465 100.653 111.465C98.1579 111.67 95.8236 112.778 94.0872 114.58C92.3507 116.382 91.3313 118.754 91.22 121.254V126.84Z" fill="#4E4E4E"/>
<path d="M127.022 107.459L134.215 126.72C134.973 128.863 135.782 131.458 136.314 133.381C136.942 131.413 137.615 128.913 138.419 126.584L144.948 107.459H151.252L142.311 130.7C137.841 141.869 135.109 147.636 130.995 151.12C128.924 153.012 126.397 154.337 123.662 154.965L122.185 149.961C124.099 149.331 125.875 148.343 127.419 147.049C129.6 145.273 131.331 143.008 132.472 140.438C132.716 139.993 132.883 139.509 132.964 139.008C132.913 138.469 132.778 137.943 132.562 137.447L120.402 107.369H126.932L127.022 107.459Z" fill="#4E4E4E"/>
<path d="M167.164 98.083V107.47H175.752V111.937H167.164V129.546C167.164 133.567 168.329 135.891 171.634 135.891C172.809 135.911 173.984 135.775 175.125 135.489L175.391 139.957C173.683 140.549 171.875 140.82 170.067 140.76C168.87 140.834 167.672 140.65 166.554 140.218C165.435 139.787 164.423 139.119 163.587 138.26C161.765 135.825 160.934 132.79 161.262 129.767V111.892H156.164V107.424H161.352V99.4684L167.164 98.083Z" fill="#4E4E4E"/>
<path d="M186.787 124.832C186.666 126.348 186.875 127.872 187.401 129.299C187.927 130.726 188.757 132.021 189.833 133.096C190.909 134.171 192.206 135 193.634 135.525C195.062 136.05 196.587 136.258 198.103 136.137C201.17 136.205 204.216 135.627 207.044 134.44L208.073 138.907C204.603 140.337 200.871 141.022 197.119 140.92C194.931 141.071 192.736 140.746 190.686 139.97C188.635 139.193 186.777 137.982 185.239 136.419C183.7 134.857 182.518 132.981 181.774 130.92C181.029 128.858 180.74 126.66 180.926 124.476C180.926 114.643 186.787 106.867 196.355 106.867C207.094 106.867 209.771 116.254 209.771 122.242C209.831 123.161 209.831 124.089 209.771 125.013H186.652L186.787 124.832ZM204.316 120.365C204.489 119.17 204.403 117.952 204.064 116.794C203.726 115.635 203.143 114.562 202.355 113.647C201.567 112.733 200.592 111.997 199.495 111.491C198.399 110.985 197.207 110.719 195.999 110.712C193.542 110.891 191.241 111.979 189.545 113.765C187.85 115.55 186.882 117.904 186.832 120.365H204.316Z" fill="#4E4E4E"/>
<path d="M218.863 117.619C218.863 113.779 218.863 110.471 218.597 107.43H223.961V113.825H224.232C224.794 111.851 225.957 110.102 227.559 108.819C229.161 107.537 231.123 106.784 233.173 106.667C233.738 106.592 234.31 106.592 234.875 106.667V112.253C234.191 112.174 233.5 112.174 232.816 112.253C230.787 112.333 228.856 113.147 227.384 114.545C225.912 115.942 224.999 117.827 224.815 119.848C224.647 120.762 224.556 121.689 224.544 122.619V140.007H218.647V117.659L218.868 117.614L218.863 117.619Z" fill="#4E4E4E"/>
<path d="M216.235 17.6992C216.419 20.7017 215.704 23.6909 214.182 26.2859C212.659 28.881 210.399 30.9643 207.687 32.2705C204.976 33.5767 201.937 34.0466 198.957 33.6204C195.977 33.1941 193.192 31.891 190.956 29.877C188.72 27.8631 187.135 25.2295 186.402 22.3119C185.67 19.3942 185.823 16.3247 186.842 13.4942C187.861 10.6638 189.7 8.20073 192.125 6.41882C194.551 4.63691 197.452 3.61686 200.459 3.48865C202.43 3.37972 204.403 3.66131 206.265 4.31722C208.127 4.97313 209.841 5.99043 211.308 7.3106C212.775 8.63078 213.967 10.2278 214.814 12.0098C215.661 13.7918 216.148 15.7236 216.245 17.6941L216.235 17.6992Z" fill="#767677"/>
<path d="M127.815 192.713C87.573 192.713 52.1979 178.282 33.9102 156.963C41.0075 176.139 53.8122 192.682 70.601 204.365C87.3899 216.048 107.357 222.311 127.815 222.311C148.273 222.311 168.24 216.048 185.029 204.365C201.818 192.682 214.623 176.139 221.72 156.963C203.477 178.282 168.238 192.713 127.815 192.713Z" fill="#F37726"/>
<path d="M127.815 54.0961C168.062 54.0961 203.432 68.5325 221.72 89.8508C214.623 70.6752 201.818 54.1325 185.029 42.4493C168.24 30.766 148.273 24.5029 127.815 24.5029C107.357 24.5029 87.3899 30.766 70.601 42.4493C53.8122 54.1325 41.0075 70.6752 33.9102 89.8508C52.1979 68.4873 87.3922 54.0961 127.815 54.0961Z" fill="#F37726"/>
<path d="M72.4147 234.2C72.6504 237.982 71.7541 241.748 69.8402 245.019C67.9262 248.291 65.0812 250.918 61.6676 252.568C58.2539 254.217 54.4262 254.814 50.6722 254.281C46.9181 253.749 43.4076 252.112 40.5879 249.578C37.7682 247.045 35.767 243.73 34.8393 240.056C33.9115 236.382 34.0992 232.515 35.3784 228.947C36.6576 225.38 38.9705 222.274 42.0223 220.026C45.074 217.777 48.7266 216.487 52.5146 216.32C54.9962 216.187 57.4797 216.545 59.823 217.371C62.1664 218.198 64.3238 219.479 66.1718 221.139C68.0199 222.799 69.5225 224.808 70.5936 227.049C71.6648 229.29 72.2836 231.72 72.4147 234.2V234.2Z" fill="#9E9E9E"/>
<path d="M38.4813 49.2426C36.3133 49.3011 34.1764 48.7178 32.3392 47.5661C30.5019 46.4143 29.0464 44.7455 28.1555 42.7694C27.2646 40.7933 26.9781 38.5981 27.332 36.4597C27.686 34.3214 28.6645 32.3353 30.1447 30.7511C31.6248 29.167 33.5406 28.0554 35.651 27.5563C37.7615 27.0571 39.9725 27.1925 42.0062 27.9456C44.0398 28.6987 45.8054 30.0357 47.0808 31.7887C48.3563 33.5417 49.0847 35.6324 49.1747 37.7979C49.2604 40.727 48.1866 43.5717 46.1864 45.7144C44.1862 47.8571 41.4211 49.1249 38.4913 49.2426H38.4813Z" fill="#616262"/>
</svg>
