<svg xmlns="http://www.w3.org/2000/svg" xmlns:xlink="http://www.w3.org/1999/xlink" version="1.1" id="Layer_1" x="0px" y="0px" viewBox="0 328.5 120 135" width="120px" height="135px" enable-background="new 0 328.5 612 135" xml:space="preserve" style="&#10;">
<polygon fill="#185F85" points="29,434.2 29,439.3 29,446.3 47.4,457.1 51.9,459.7 58.3,463.2 62.7,455.5 64.3,447.3 58.3,441.9   29,425 "/>
<path fill="#0D84BE" d="M116.5,429.8V396c0-11.1,0-22.3,0-33.4l-12.1-0.3l-2.9,3.8l-3.8,7V419L58,442.2v8.9v12.4  C77.4,452,97.1,440.9,116.5,429.8z"/>
<polygon fill="#FFFFFF" points="18.5,385.5 18.5,351.7 0,362.6 0,429.8 18.5,440.3 18.5,406.8 58.3,429.8 58.3,429.8 58.3,408.4   36.9,396 58.3,383.9 58.3,362.6 "/>
<path fill="#1A9BD7" d="M58.3,328.8c19.1,11.1,38.8,22.6,58.3,33.8l-10.8,6l-8,4.5l-39.5-22.9L29,366.7c0-7,0-14.3,0-21.3  L58.3,328.8z"/>

</svg>
