<svg width="256" height="256" viewBox="0 0 256 256" fill="none" xmlns="http://www.w3.org/2000/svg">
<path d="M72.8584 200.438V210.109V223.383L107.665 243.863L116.178 248.794L128.284 255.431L136.608 240.829L139.634 225.28L128.284 215.04L72.8584 182.992V200.438Z" fill="#185F85"/>
<path d="M238.379 192.095V128C238.379 106.951 238.379 85.7125 238.379 64.6637L215.49 64.0947L210.004 71.3007L202.816 84.5748V171.615L127.717 215.609V232.486V256C164.415 234.193 201.681 213.144 238.379 192.095Z" fill="#0D84BE"/>
<path d="M52.9958 108.089V43.9941L18 64.6638V192.095L52.9958 212.006V148.48L128.284 192.095V151.514L87.8025 128L128.284 105.055V64.6638L52.9958 108.089Z" fill="white"/>
<path d="M128.284 0.569336C164.415 21.6182 201.681 43.4257 238.568 64.6642L218.138 76.042L203.005 84.5753L128.284 41.1501L72.8584 72.439C72.8584 59.1649 72.8584 45.3219 72.8584 32.0479L128.284 0.569336Z" fill="#1A9BD7"/>
</svg>
