<svg width="256" height="256" viewBox="0 0 256 256" fill="none" xmlns="http://www.w3.org/2000/svg">
<g clip-path="url(#clip0_2115_2128)">
<path d="M33.5516 69.1918L66.6459 12.0232L199.915 12L232.835 69.7482L232.876 185.256L199.926 242.958L66.6922 243.004L33.2158 185.256L33.5516 69.1918Z" fill="#4D4D4D"/>
<path d="M33.2158 185.238H93.2846L60.2887 127.05L87.1185 69.203L33.5516 69.1914L0 127.519" fill="#EDEDED"/>
<path d="M111.499 185.239H155.397L194.223 128.603L156.075 69.748H104.424L73.3159 126.621L111.499 185.239Z" fill="#E0E0E0"/>
<path d="M0 127.514L33.2216 185.256H93.2846L60.6535 127.711L0 127.514Z" fill="#ACACAC"/>
<path d="M73.9585 127.525L111.499 185.262H155.397L193.615 127.549L73.9585 127.525Z" fill="#9E9E9E"/>
<path d="M88.8263 127.566L77.4899 130.863L66.6226 127.548L111.013 50.543L122.117 69.7595" fill="#00B8E3"/>
<path d="M122.077 185.245L111.024 204.554L81.5372 172.756L66.5996 127.572V127.549H88.8207" fill="#33C6E9"/>
<path d="M66.6229 127.548H66.6055V127.566L55.5008 146.817L44.3555 127.653L55.6571 108.03L88.8208 50.543H111.019" fill="#008AAA"/>
<path d="M188.775 185.239H256L255.96 69.7422H188.77L188.775 185.239Z" fill="#D4D4D4"/>
<path d="M188.775 127.711V185.256H255.878V127.711H188.775Z" fill="#919191"/>
<path d="M111.03 204.571H88.8205L55.5005 146.817L66.6052 127.571L111.03 204.571Z" fill="#00B8E3"/>
<path d="M199.851 127.549L155.449 204.56C151.368 198.556 144.374 185.256 144.374 185.256L177.682 127.543L199.851 127.549Z" fill="#008AAA"/>
<path d="M177.63 204.559L155.449 204.554L199.857 127.548L210.956 108.326L222.078 127.682M199.857 127.548H177.688L144.368 69.7538L155.397 50.5488L182.366 84.8674L199.857 127.548Z" fill="#00B8E3"/>
<path d="M210.95 108.303V108.32L199.851 127.548L155.403 50.5547L177.641 50.5663L210.95 108.303Z" fill="#33C6E9"/>
</g>
<defs>
<clipPath id="clip0_2115_2128">
<rect width="256" height="256" fill="white"/>
</clipPath>
</defs>
</svg>
