<svg width="256" height="256" viewBox="0 0 256 256" fill="none" xmlns="http://www.w3.org/2000/svg">
<g clip-path="url(#clip0_14_12)">
<path d="M0 0V256H256V0H0ZM237.037 237.037H18.963V18.963H237.037V237.037ZM156.444 184.089H180.148V203.052H150.349L137.481 190.184V160.385H156.444V184.089ZM199.111 184.089H180.148V160.385H156.444V141.422H186.243L199.111 154.29V184.089ZM118.519 156.445H99.5556V137.482H118.519V156.445ZM56.8889 137.482H75.8518V180.149H118.519V199.112H69.7566L56.8889 186.244V137.482ZM199.111 99.5556V118.519H137.481V99.5556H158.674V75.8518H137.481V56.8889H164.769L177.637 69.7566V99.5556H199.111ZM75.8518 78.2222H99.5556L118.519 97.1852V118.519H99.5556V97.1852H75.8518V118.519H56.8889V56.8889H75.8518V78.2222ZM118.519 78.2222H99.5556V56.8889H118.519V78.2222Z" fill="black"/>
</g>
<defs>
<clipPath id="clip0_14_12">
<rect width="256" height="256" fill="white"/>
</clipPath>
</defs>
</svg>
