<svg width="256" height="256" viewBox="0 0 256 256" fill="none" xmlns="http://www.w3.org/2000/svg">
<path d="M63.9805 198.038C37.5924 256.61 93.7816 271.296 135.225 237.019C147.403 275.458 193.114 246.785 209.506 217.008C245.637 151.376 231.046 84.4223 227.301 70.6121C201.617 -23.5704 73.2432 -23.6642 51.1472 71.0923C45.9878 87.6742 45.8971 106.534 42.975 126.115C41.5015 135.989 40.4628 142.291 36.6478 152.677C34.4544 158.649 31.4366 163.951 26.6951 172.887C19.3314 186.768 22.4381 213.557 60.3931 199.665L63.9805 198.038Z" fill="white"/>
<path d="M140.24 111.374C129.703 111.374 128.129 98.7616 128.129 91.2431C128.129 84.4574 129.343 79.0653 131.643 75.6474C133.666 72.64 136.559 71.1143 140.24 71.1143C143.922 71.1143 147.079 72.664 149.307 75.7215C151.845 79.2055 153.186 84.5715 153.186 91.2431C153.186 103.849 148.345 111.374 140.24 111.374Z" fill="black"/>
<path d="M183.589 111.374C173.051 111.374 171.477 98.7616 171.477 91.2431C171.477 84.4574 172.692 79.0653 174.991 75.6474C177.013 72.64 179.907 71.1143 183.589 71.1143C187.269 71.1143 190.427 72.664 192.655 75.7215C195.193 79.2055 196.535 84.5715 196.535 91.2431C196.535 103.849 191.695 111.374 183.589 111.374Z" fill="black"/>
</svg>
