<svg xmlns="http://www.w3.org/2000/svg" width="120" height="120" fill="none" viewBox="0 0 120 120"><path fill="#326CE5" d="M59.584 1.79267C58.5232 1.84611 57.4838 2.10914 56.5268 2.56631L14.8089 22.4996C13.7291 23.0152 12.7804 23.7655 12.0331 24.6948C11.2859 25.624 10.7593 26.7083 10.4925 27.867L0.200426 72.6421C-0.0372331 73.6738 -0.0638305 74.7422 0.122208 75.7842C0.308247 76.8262 0.703142 77.8206 1.28352 78.7086C1.42425 78.9256 1.5756 79.1357 1.73704 79.3381L30.6125 115.24C31.3599 116.169 32.3088 116.919 33.3886 117.435C34.4683 117.95 35.6513 118.218 36.8496 118.218L83.156 118.207C84.3539 118.208 85.5366 117.941 86.6164 117.427C87.6962 116.912 88.6452 116.163 89.3932 115.235L118.258 79.3275C119.006 78.398 119.533 77.3133 119.8 76.1541C120.067 74.9948 120.067 73.7908 119.8 72.6315L109.492 27.8564C109.225 26.6976 108.698 25.6133 107.951 24.6841C107.204 23.7549 106.255 23.0046 105.175 22.4889L63.4522 2.56631C62.2485 1.99122 60.9184 1.7252 59.584 1.79267Z"/><path fill="#fff" stroke="#fff" stroke-width=".25" d="M59.9974 17.0302C58.6184 17.0304 57.5002 18.2725 57.5004 19.8047C57.5004 19.8282 57.5052 19.8507 57.5057 19.874C57.5037 20.0822 57.4936 20.333 57.5004 20.5143C57.5333 21.398 57.7259 22.0744 57.8419 22.8886C58.0519 24.6312 58.2279 26.0757 58.1193 27.4184C58.0137 27.9247 57.6407 28.3877 57.3083 28.7095L57.2496 29.766C55.7511 29.8901 54.2426 30.1175 52.7358 30.4596C46.2523 31.9317 40.67 35.2714 36.42 39.7806C36.1442 39.5925 35.6618 39.2464 35.5183 39.1404C35.0725 39.2006 34.6219 39.3381 34.0351 38.9963C32.9176 38.2441 31.8999 37.2058 30.6684 35.9551C30.1041 35.3568 29.6955 34.7871 29.0251 34.2104C28.8728 34.0794 28.6405 33.9023 28.4702 33.7676C27.946 33.3497 27.3278 33.1317 26.7308 33.1113C25.9632 33.085 25.2243 33.3851 24.7407 33.9916C23.881 35.0699 24.1563 36.7179 25.3543 37.6731C25.3664 37.6828 25.3794 37.6903 25.3916 37.6998C25.5562 37.8332 25.7578 38.0042 25.9092 38.1159C26.6206 38.6412 27.2705 38.9101 27.9793 39.3271C29.4727 40.2494 30.7108 41.0141 31.6928 41.9361C32.0763 42.3449 32.1433 43.0652 32.1943 43.3767L32.9946 44.0917C28.7103 50.5392 26.7275 58.5033 27.8993 66.6179L26.8535 66.9221C26.5779 67.278 26.1885 67.838 25.7811 68.0052C24.4963 68.4098 23.0503 68.5584 21.3047 68.7414C20.4851 68.8096 19.7779 68.7689 18.909 68.9335C18.7178 68.9697 18.4514 69.0392 18.2421 69.0882C18.2348 69.0898 18.228 69.0919 18.2208 69.0936C18.2094 69.0962 18.1944 69.1018 18.1834 69.1042C16.7117 69.4598 15.7662 70.8126 16.0706 72.1455C16.375 73.4786 17.8126 74.2893 19.2932 73.9702C19.3039 73.9677 19.3194 73.9673 19.3305 73.9649C19.3473 73.961 19.362 73.9529 19.3786 73.9489C19.585 73.9035 19.8436 73.8531 20.0242 73.8048C20.8784 73.5761 21.4971 73.24 22.265 72.9458C23.9172 72.3532 25.2856 71.8582 26.6188 71.6653C27.1756 71.6217 27.7622 72.0088 28.054 72.1722L29.1424 71.9854C31.6471 79.7509 36.8962 86.0275 43.5428 89.9659L43.0893 91.0543C43.2528 91.477 43.4331 92.0488 43.3113 92.4662C42.8267 93.723 41.9965 95.0496 41.0512 96.5285C40.5935 97.2118 40.125 97.742 39.712 98.5239C39.6131 98.7111 39.4873 98.9985 39.3918 99.1962C38.7501 100.569 39.2208 102.151 40.4536 102.744C41.6941 103.341 43.2339 102.712 43.9003 101.336C43.9013 101.334 43.9047 101.332 43.9056 101.33C43.9063 101.329 43.9049 101.327 43.9056 101.325C44.0005 101.13 44.135 100.874 44.2151 100.69C44.5689 99.8797 44.6866 99.1851 44.9354 98.4012C45.5961 96.7417 45.959 95.0004 46.8685 93.9153C47.1176 93.6182 47.5236 93.504 47.9446 93.3913L48.5101 92.3668C54.3046 94.591 60.7905 95.1878 67.2696 93.7167C68.7476 93.3811 70.1745 92.9468 71.5539 92.4255C71.7129 92.7075 72.0083 93.2494 72.0875 93.3859C72.5153 93.5251 72.9822 93.597 73.3627 94.1596C74.0431 95.3221 74.5084 96.6974 75.0753 98.3586C75.3242 99.1424 75.4471 99.837 75.801 100.647C75.8816 100.832 76.0154 101.092 76.1104 101.288C76.7754 102.668 78.3201 103.3 79.5625 102.702C80.7951 102.108 81.2663 100.526 80.6242 99.1535C80.5288 98.9558 80.3976 98.6684 80.2988 98.4813C79.8857 97.6994 79.4173 97.1744 78.9596 96.4912C78.0142 95.0123 77.2301 93.7837 76.7453 92.5269C76.5427 91.8787 76.7795 91.4756 76.9374 91.0543C76.8429 90.9459 76.6405 90.3338 76.5213 90.0459C83.4287 85.9674 88.5236 79.4568 90.9163 71.9374C91.2394 71.9882 91.801 72.0875 91.9834 72.1241C92.3589 71.8765 92.7042 71.5533 93.3813 71.6066C94.7144 71.7994 96.0828 72.2946 97.735 72.8871C98.503 73.1813 99.1217 73.5228 99.9759 73.7515C100.156 73.7998 100.415 73.8449 100.621 73.8902C100.638 73.8942 100.653 73.9024 100.67 73.9062C100.681 73.9087 100.696 73.9091 100.707 73.9115C102.188 74.2303 103.625 73.42 103.929 72.0868C104.234 70.7539 103.288 69.4008 101.817 69.0456C101.603 68.9969 101.299 68.9142 101.091 68.8748C100.222 68.7103 99.515 68.7509 98.6954 68.6828C96.9497 68.4998 95.5038 68.3511 94.219 67.9465C93.6951 67.7433 93.3224 67.1199 93.1412 66.8634L92.1328 66.5699C92.6556 62.7874 92.5146 58.8508 91.6099 54.912C90.6968 50.9365 89.083 47.3005 86.9307 44.097C87.1894 43.8618 87.6779 43.4293 87.8164 43.302C87.8569 42.854 87.8221 42.3842 88.2859 41.8881C89.2679 40.966 90.506 40.2014 91.9994 39.2791C92.7082 38.8621 93.3635 38.5932 94.0749 38.0679C94.2358 37.9491 94.4554 37.761 94.6244 37.6251C95.8222 36.6696 96.098 35.0217 95.238 33.9436C94.3781 32.8656 92.7116 32.7641 91.5139 33.7195C91.3434 33.8546 91.112 34.0307 90.959 34.1624C90.2886 34.7391 89.8746 35.3088 89.3103 35.9071C88.0789 37.1579 87.0611 38.2014 85.9437 38.9536C85.4595 39.2355 84.7502 39.138 84.4284 39.119L83.4787 39.7966C78.0632 34.1179 70.6899 30.4873 62.7505 29.782C62.7283 29.4493 62.6992 28.8479 62.6918 28.6669C62.3668 28.3558 61.9741 28.0903 61.8755 27.4184C61.7668 26.0757 61.9482 24.6312 62.1582 22.8886C62.2742 22.0744 62.4668 21.398 62.4997 20.5143C62.5072 20.3134 62.4952 20.0219 62.4944 19.8047C62.4942 18.2725 61.3764 17.0301 59.9974 17.0302ZM56.8708 36.3979L56.1292 49.4965L56.0758 49.5231C56.0261 50.695 55.0617 51.6306 53.8776 51.6306C53.3926 51.6306 52.9449 51.4749 52.5811 51.2091L52.5598 51.2198L41.8195 43.6061C45.1204 40.3603 49.3425 37.9616 54.2084 36.8568C55.0973 36.655 55.9857 36.5052 56.8708 36.3979ZM63.1293 36.3979C68.8102 37.0966 74.064 39.669 78.0899 43.6115L67.419 51.1771L67.3816 51.1611C66.4345 51.8529 65.1 51.6813 64.3618 50.7556C64.0594 50.3764 63.9007 49.9306 63.8816 49.4805L63.8709 49.4751L63.1293 36.3979ZM37.9246 48.4987L47.7312 57.2702L47.7205 57.3236C48.6057 58.0931 48.7362 59.4284 47.9979 60.3541C47.6955 60.7333 47.2907 60.9877 46.8562 61.1064L46.8455 61.1491L34.2752 64.7772C33.6354 58.927 35.0142 53.2401 37.9246 48.4987ZM82.0008 48.5041C83.4578 50.8658 84.5612 53.5035 85.2181 56.3632C85.867 59.1885 86.0299 62.0089 85.7623 64.7345L73.1279 61.0957L73.1173 61.0424C71.9859 60.7332 71.2906 59.5823 71.554 58.428C71.6619 57.9551 71.9129 57.5551 72.2529 57.2595L72.2476 57.2329L82.0008 48.5041ZM57.9859 57.9478H62.0035L64.5005 61.0691L63.6041 64.9639L59.9974 66.698L56.3799 64.9586L55.4836 61.0637L57.9859 57.9478ZM70.8657 68.6294C71.0364 68.6208 71.2064 68.6362 71.3726 68.6667L71.3939 68.6401L84.3964 70.8383C82.4935 76.1845 78.8522 80.816 73.9869 83.9155L68.9396 71.724L68.9556 71.7026C68.4919 70.6253 68.9559 69.3619 70.0227 68.8481C70.2958 68.7166 70.5811 68.6438 70.8657 68.6294ZM49.0277 68.6827C50.02 68.6967 50.91 69.3854 51.1405 70.3954C51.2485 70.8683 51.1959 71.3368 51.0178 71.7506L51.0552 71.7986L46.0612 83.8674C41.3921 80.8713 37.6731 76.3852 35.6837 70.881L48.5742 68.6934L48.5955 68.7201C48.7397 68.6936 48.8859 68.6808 49.0277 68.6827ZM59.9173 73.9702C60.263 73.9575 60.6137 74.0284 60.9471 74.1889C61.3841 74.3994 61.7217 74.7307 61.9341 75.128H61.9822L68.3367 86.6099C67.512 86.8863 66.6642 87.1226 65.797 87.3195C60.9371 88.4229 56.0927 88.0886 51.7061 86.5939L58.0446 75.1333H58.0553C58.4356 74.4223 59.1569 73.9981 59.9173 73.9702Z"/></svg>