<svg width="256" height="256" viewBox="0 0 256 256" fill="none" xmlns="http://www.w3.org/2000/svg">
<g clip-path="url(#clip0_2115_2119)">
<path d="M126.613 4.02186C124.349 4.13568 122.132 4.69591 120.091 5.66967L31.0923 48.1263C28.7888 49.2246 26.7649 50.8227 25.1707 52.8019C23.5765 54.7811 22.4532 57.0906 21.884 59.5587L-0.0724239 154.927C-0.57943 157.124 -0.636172 159.4 -0.239289 161.619C0.157594 163.839 1.00004 165.957 2.23818 167.848C2.5384 168.31 2.86129 168.758 3.20568 169.189L64.8067 245.659C66.4012 247.638 68.4254 249.235 70.7289 250.333C73.0325 251.431 75.5562 252.001 78.1126 252L176.9 251.977C179.455 251.979 181.978 251.411 184.282 250.315C186.585 249.22 188.61 247.624 190.205 245.647L251.784 169.166C253.379 167.187 254.503 164.876 255.073 162.407C255.642 159.938 255.642 157.374 255.073 154.904L233.083 59.536C232.513 57.0678 231.39 54.7584 229.796 52.7792C228.202 50.8 226.178 49.2019 223.874 48.1036L134.865 5.66967C132.297 4.44475 129.459 3.87815 126.613 4.02186Z" fill="#326CE5"/>
<path d="M127.495 36.4766C124.553 36.4769 122.167 39.1225 122.168 42.386C122.168 42.4361 122.178 42.4839 122.179 42.5337C122.175 42.9771 122.153 43.5113 122.168 43.8974C122.238 45.7797 122.649 47.2203 122.896 48.9545C123.344 52.6662 123.72 55.7429 123.488 58.6027C123.263 59.6811 122.467 60.6673 121.758 61.3528L121.633 63.6029C118.436 63.8674 115.218 64.3516 112.003 65.0803C98.1717 68.2158 86.2629 75.3292 77.1963 84.9335C76.6079 84.5328 75.5787 83.7956 75.2726 83.5698C74.3216 83.698 73.3603 83.991 72.1083 83.263C69.7245 81.6609 67.5533 79.4494 64.9261 76.7854C63.7223 75.5111 62.8506 74.2976 61.4204 73.0693C61.0956 72.7903 60.5999 72.4131 60.2366 72.1261C59.1185 71.236 57.7996 70.7718 56.526 70.7283C54.8884 70.6723 53.312 71.3115 52.2804 72.6034C50.4464 74.9 51.0336 78.4102 53.5893 80.4447C53.6153 80.4653 53.6429 80.4813 53.669 80.5015C54.0202 80.7857 54.4503 81.1499 54.7731 81.3879C56.2908 82.5067 57.6772 83.0794 59.1894 83.9676C62.3754 85.932 65.0166 87.5608 67.1115 89.5247C67.9296 90.3953 68.0726 91.9295 68.1815 92.593L69.8888 94.1158C60.7489 107.849 56.5189 124.812 59.0187 142.095L56.7878 142.743C56.1998 143.501 55.3689 144.694 54.4999 145.05C51.759 145.912 48.6743 146.229 44.9502 146.618C43.2017 146.764 41.6931 146.677 39.8395 147.027C39.4316 147.105 38.8631 147.253 38.4167 147.357C38.4012 147.36 38.3867 147.365 38.3712 147.368C38.3469 147.374 38.3149 147.386 38.2915 147.391C35.1518 148.149 33.1348 151.03 33.7841 153.869C34.4336 156.708 37.5005 158.435 40.6591 157.755C40.6819 157.75 40.715 157.749 40.7387 157.744C40.7744 157.736 40.8058 157.718 40.8412 157.71C41.2815 157.613 41.8333 157.506 42.2184 157.403C44.0408 156.916 45.3606 156.2 46.999 155.573C50.5237 154.311 53.4429 153.257 56.287 152.846C57.4748 152.753 58.7263 153.578 59.3488 153.926L61.6708 153.528C67.0141 170.068 78.2121 183.437 92.3916 191.825L91.4241 194.143C91.7728 195.044 92.1575 196.262 91.8977 197.151C90.8638 199.828 89.0927 202.653 87.0761 205.803C86.0996 207.258 85.1003 208.388 84.2191 210.053C84.0083 210.452 83.7397 211.064 83.5362 211.485C82.1671 214.41 83.1713 217.778 85.8013 219.042C88.4477 220.314 91.7326 218.973 93.1542 216.042C93.1563 216.038 93.1636 216.035 93.1656 216.031C93.167 216.028 93.1642 216.023 93.1656 216.02C93.3681 215.604 93.6549 215.058 93.8258 214.667C94.5805 212.941 94.8316 211.462 95.3624 209.792C96.7718 206.257 97.5462 202.548 99.4864 200.237C100.018 199.604 100.884 199.361 101.782 199.121L102.989 196.939C115.35 201.676 129.187 202.948 143.009 199.814C146.162 199.099 149.206 198.174 152.149 197.064C152.488 197.665 153.118 198.819 153.287 199.11C154.2 199.406 155.196 199.559 156.007 200.757C157.459 203.234 158.452 206.163 159.661 209.701C160.192 211.371 160.454 212.85 161.209 214.576C161.381 214.97 161.666 215.524 161.869 215.94C163.288 218.88 166.583 220.226 169.234 218.952C171.863 217.687 172.868 214.319 171.499 211.394C171.295 210.973 171.015 210.361 170.804 209.962C169.923 208.297 168.924 207.179 167.947 205.724C165.93 202.574 164.258 199.957 163.224 197.28C162.791 195.899 163.297 195.041 163.633 194.143C163.432 193.913 163 192.609 162.746 191.996C177.482 183.309 188.351 169.441 193.455 153.426C194.144 153.534 195.342 153.745 195.731 153.823C196.533 153.296 197.269 152.607 198.714 152.721C201.558 153.132 204.477 154.186 208.002 155.448C209.64 156.075 210.96 156.802 212.782 157.289C213.167 157.392 213.719 157.488 214.159 157.585C214.195 157.594 214.226 157.611 214.262 157.619C214.286 157.624 214.319 157.625 214.342 157.63C217.5 158.309 220.568 156.583 221.216 153.744C221.865 150.905 219.849 148.023 216.709 147.266C216.252 147.162 215.605 146.986 215.161 146.902C213.307 146.552 211.799 146.638 210.05 146.493C206.326 146.104 203.242 145.787 200.501 144.925C199.383 144.492 198.588 143.165 198.201 142.618L196.05 141.993C197.166 133.937 196.865 125.552 194.935 117.162C192.987 108.695 189.544 100.95 184.952 94.1271C185.504 93.6263 186.546 92.7049 186.842 92.4339C186.928 91.4796 186.854 90.479 187.844 89.4224C189.938 87.4584 192.58 85.8298 195.766 83.8653C197.278 82.977 198.676 82.4045 200.193 81.2856C200.537 81.0326 201.005 80.6319 201.366 80.3424C203.921 78.3073 204.509 74.7972 202.675 72.5011C200.84 70.2049 197.285 69.9887 194.73 72.0238C194.366 72.3114 193.873 72.6866 193.546 72.967C192.116 74.1954 191.233 75.4087 190.029 76.6831C187.402 79.3472 185.231 81.5698 182.847 83.1721C181.814 83.7725 180.301 83.5647 179.614 83.5244L177.588 84.9676C166.035 72.8723 150.305 65.1392 133.368 63.637C133.321 62.9283 133.258 61.6474 133.243 61.2619C132.549 60.5994 131.712 60.0339 131.501 58.6027C131.27 55.7429 131.656 52.6661 132.104 48.9544C132.352 47.2203 132.763 45.7797 132.833 43.8974C132.849 43.4695 132.823 42.8486 132.822 42.3859C132.821 39.1225 130.437 36.4763 127.495 36.4766ZM120.825 77.7286L119.242 105.628L119.129 105.685C119.023 108.18 116.965 110.173 114.439 110.173C113.404 110.173 112.449 109.842 111.673 109.276L111.628 109.298L88.7151 93.0816C95.7571 86.1681 104.764 81.0591 115.145 78.7059C117.041 78.2761 118.936 77.9571 120.825 77.7286ZM134.176 77.7286C146.295 79.2168 157.503 84.6958 166.092 93.093L143.327 109.207L143.248 109.173C141.227 110.647 138.38 110.281 136.805 108.31C136.16 107.502 135.822 106.552 135.781 105.594L135.758 105.582L134.176 77.7286ZM80.4061 103.503L101.327 122.185L101.304 122.299C103.192 123.938 103.471 126.782 101.896 128.754C101.251 129.562 100.387 130.103 99.46 130.356L99.4373 130.447L72.6206 138.175C71.2557 125.714 74.1972 113.601 80.4061 103.503ZM174.435 103.514C177.544 108.544 179.897 114.163 181.299 120.253C182.683 126.271 183.031 132.278 182.46 138.084L155.506 130.333L155.484 130.22C153.07 129.561 151.587 127.11 152.149 124.651C152.379 123.644 152.914 122.792 153.64 122.163L153.628 122.106L174.435 103.514ZM123.204 123.629H131.774L137.101 130.277L135.189 138.572L127.495 142.266L119.777 138.561L117.865 130.265L123.204 123.629ZM150.68 146.38C151.045 146.361 151.407 146.394 151.762 146.459L151.807 146.402L179.546 151.084C175.486 162.472 167.718 172.337 157.339 178.938L146.571 152.971L146.605 152.925C145.616 150.631 146.606 147.94 148.882 146.846C149.465 146.565 150.073 146.41 150.68 146.38ZM104.093 146.493C106.209 146.523 108.108 147.99 108.6 150.141C108.83 151.148 108.718 152.146 108.338 153.028L108.418 153.13L97.7641 178.836C87.8033 172.454 79.8695 162.899 75.6255 151.175L103.125 146.516L103.171 146.573C103.478 146.516 103.79 146.489 104.093 146.493ZM127.324 157.755C128.061 157.728 128.809 157.879 129.521 158.221C130.453 158.669 131.173 159.375 131.626 160.221H131.729L145.285 184.677C143.526 185.266 141.717 185.769 139.867 186.189C129.499 188.539 119.165 187.827 109.807 184.643L123.329 160.233H123.351C124.163 158.718 125.702 157.815 127.324 157.755Z" fill="white"/>
</g>
<defs>
<clipPath id="clip0_2115_2119">
<rect width="256" height="256" fill="white"/>
</clipPath>
</defs>
</svg>
