<svg width="256" height="256" viewBox="0 0 256 256" fill="none" xmlns="http://www.w3.org/2000/svg">
<path d="M253.789 126.997C252.072 120.784 249.073 114.998 244.972 110.031C242.978 99.982 238.728 90.5033 231.706 84.6105C227.344 80.701 222.121 77.8865 216.47 76.3934C215.843 76.2615 215.201 76.478 214.778 76.9608C214.359 77.441 214.228 78.1154 214.437 78.7226C216.202 83.3538 219.096 92.9171 217.807 100.395C216.358 96.8365 214.432 93.4945 212.093 90.4535C208.796 86.1583 206.943 83.7594 207.95 78.6505C208.816 74.2109 214.67 70.5205 221.863 69.2588C222.471 69.112 222.957 68.6516 223.137 68.0494C223.322 67.4472 223.171 66.7927 222.748 66.3323C218.653 62.6219 210.192 56 200.222 56C186.29 56 178.811 63.2042 176.695 75.2935C174.935 85.571 177.668 92.9022 179.676 98.26C180.012 99.116 180.294 99.8949 180.542 100.589C178.918 99.4694 177.011 98.2998 175.056 97.1252C160.681 89.0102 144.448 84.817 127.962 84.9688C111.486 84.822 95.2584 89.0102 80.8879 97.1252C78.86 98.2998 77.0268 99.4744 75.4025 100.589C75.6506 99.8949 75.9375 99.116 76.2682 98.26C78.2815 92.9345 81.0484 85.571 79.2492 75.2935C77.1143 63.2042 69.6543 56 55.7218 56C45.8108 56 37.2712 62.6219 33.2545 66.3995C32.8265 66.8649 32.6807 67.5169 32.8606 68.1166C33.0405 68.7188 33.5268 69.1842 34.1347 69.331C41.332 70.5902 47.187 74.2831 48.0477 78.7176C49.0546 83.8315 47.2017 86.2255 43.9046 90.5232C41.5557 93.5567 39.6348 96.9037 38.1905 100.462C36.9017 92.9544 39.8439 83.4209 41.5604 78.7923C41.7744 78.1801 41.6433 77.5057 41.22 77.0205C40.7922 76.5402 40.1405 76.3262 39.5131 76.468C33.8722 77.9636 28.654 80.7781 24.2919 84.6851C17.2404 90.6501 13.0193 100.047 11.0303 110.105C6.93074 115.067 3.92539 120.846 2.20871 127.072C-1.14193 141.396 -2.20207 156.857 10.3057 171.641C18.3103 181.118 31.1537 186.035 47.0217 186.035C50.3091 186.595 53.514 187.553 56.5679 188.894C68.7547 193.421 89.1794 200.983 128.016 200.983C166.852 200.983 187.297 193.421 199.483 188.894C202.537 187.553 205.742 186.595 209.025 186.035C224.898 186.035 237.721 181.118 245.746 171.641C258.196 156.857 257.141 141.396 253.789 126.997Z" fill="#258C82"/>
<path d="M208.968 177.34C198.158 177.34 181.969 192.286 127.96 192.286C73.9553 192.286 57.7663 177.34 46.9701 177.34C3.77658 177.34 8.62503 136.317 8.62503 136.317C8.62503 136.317 16.6345 156.805 36.9864 156.805C39.4518 156.795 41.9127 156.536 44.3248 156.021C44.7526 155.904 45.0542 155.513 45.0542 155.063C45.0542 154.617 44.7526 154.224 44.3248 154.102C12.8608 144.643 12.5787 107.654 31.2723 89.8488C23.3698 123.68 46.9313 134.224 55.9668 137.081C56.3558 137.193 56.7691 137.031 56.9784 136.68C57.1875 136.337 57.1437 135.886 56.8664 135.593C51.099 129.541 37.8034 112.803 50.7439 95.8337C66.972 74.6415 45.3459 66.4891 45.3459 66.4891C48.6917 65.3643 52.193 64.7621 55.7187 64.7173C61.9629 64.7173 69.0193 67.0067 70.7262 76.8214C73.9212 94.9776 58.3837 101.336 69.5638 115.978C69.7002 116.165 69.914 116.272 70.1474 116.272C70.3761 116.272 70.5901 116.165 70.7312 115.978C70.7312 115.978 90.1297 93.701 127.96 93.701C165.794 93.701 185.139 115.943 185.139 115.943C185.275 116.13 185.494 116.237 185.723 116.237C185.951 116.237 186.17 116.13 186.306 115.943C197.54 101.301 181.949 94.9477 185.139 76.7866C186.905 66.9694 193.961 64.6824 200.151 64.6824C203.677 64.7272 207.179 65.3245 210.52 66.4542C210.52 66.4542 188.918 74.6041 205.107 95.7938C218.052 112.728 204.791 129.521 198.95 135.555C198.673 135.849 198.629 136.297 198.838 136.645C199.047 136.994 199.461 137.16 199.85 137.046C208.895 134.276 232.462 123.648 224.545 89.8189C243.272 107.565 242.941 144.609 211.492 154.067C211.064 154.187 210.763 154.583 210.763 155.028C210.763 155.473 211.064 155.869 211.492 155.986C213.904 156.501 216.365 156.76 218.83 156.77C239.148 156.77 247.135 136.284 247.135 136.284C247.135 136.284 252.161 177.34 208.968 177.34Z" fill="#2CE5B5"/>
<path d="M92.3332 141.199C92.4693 138.397 91.0591 135.745 88.6663 134.299C86.2689 132.855 83.2829 132.855 80.8855 134.299C78.4928 135.745 77.0826 138.397 77.2187 141.199C77.2187 145.39 80.6033 146.632 84.7661 146.632C88.9289 146.632 92.3332 145.445 92.3332 141.199ZM178.72 141.199C178.857 138.397 177.446 135.745 175.054 134.299C172.656 132.855 169.67 132.855 167.273 134.299C164.88 135.745 163.47 138.397 163.606 141.199C163.606 145.39 166.991 146.632 171.173 146.632C175.355 146.632 178.72 145.445 178.72 141.199ZM127.96 171.141C116.386 171.069 105.006 168.098 94.857 162.499C93.8845 161.916 93.2522 160.908 93.1452 159.779C93.0432 158.649 93.4809 157.531 94.327 156.782C95.4259 155.854 96.9725 155.687 98.2417 156.357C104.943 160.102 116.021 162.392 127.96 162.392C139.903 162.392 150.889 160.102 157.698 156.357C158.967 155.687 160.518 155.854 161.612 156.782C162.458 157.531 162.901 158.644 162.794 159.779C162.692 160.903 162.055 161.916 161.082 162.499C150.928 168.103 139.539 171.074 127.96 171.141ZM60.4946 181.17C56.0693 179.388 52.388 176.116 50.0926 171.905C50.0003 171.738 49.8057 171.651 49.6208 171.701C49.4362 171.743 49.3048 171.91 49.3 172.102V173.149C49.3 174.74 48.5463 176.233 47.2721 177.176L46.9317 177.427L49.3 177.671L60.4996 181.17H60.4946ZM195.371 181.17C199.807 179.388 203.493 176.116 205.793 171.905C205.89 171.738 206.085 171.651 206.265 171.701C206.45 171.743 206.586 171.91 206.591 172.102V173.149C206.591 174.74 207.344 176.233 208.619 177.176L208.954 177.427L206.591 177.671L195.371 181.17ZM73.411 113.293C71.5581 115.038 69.8415 116.916 68.2757 118.922C68.159 119.059 67.9594 119.104 67.7989 119.019C67.6337 118.947 67.5413 118.765 67.5705 118.584C67.7989 117.429 68.0276 116.369 68.2025 115.6C68.368 114.846 68.2416 114.052 67.8524 113.383L67.235 112.375L73.411 113.293ZM182.548 113.293C184.396 115.038 186.117 116.916 187.683 118.922C187.795 119.084 188.004 119.139 188.184 119.054C188.359 118.972 188.451 118.775 188.403 118.584C188.16 117.429 187.926 116.369 187.751 115.6C187.591 114.846 187.717 114.052 188.106 113.383L188.724 112.375L182.548 113.293Z" fill="#258C82"/>
</svg>
