<svg width="256" height="256" viewBox="0 0 256 256" fill="none" xmlns="http://www.w3.org/2000/svg">
<path d="M102.984 127.53C102.294 125.033 101.089 122.708 99.4412 120.712C98.6399 116.674 96.932 112.865 94.1101 110.497C92.3572 108.926 90.2584 107.795 87.9876 107.195C87.7355 107.142 87.4776 107.229 87.3075 107.423C87.1395 107.616 87.0867 107.887 87.1707 108.131C87.8801 109.992 89.0429 113.835 88.525 116.84C87.9426 115.41 87.1688 114.067 86.2288 112.845C84.9039 111.119 84.1593 110.155 84.5638 108.102C84.9117 106.318 87.2645 104.835 90.1548 104.328C90.3991 104.269 90.5945 104.084 90.6668 103.842C90.7411 103.6 90.6805 103.337 90.5105 103.152C88.865 101.661 85.4647 99 81.4586 99C75.8598 99 72.8543 101.895 72.0042 106.753C71.2968 110.883 72.395 113.829 73.2021 115.982C73.337 116.326 73.4503 116.639 73.55 116.918C72.8973 116.468 72.1312 115.998 71.3456 115.526C65.569 112.265 59.0459 110.58 52.4212 110.641C45.8004 110.582 39.2792 112.265 33.5045 115.526C32.6896 115.998 31.9529 116.47 31.3002 116.918C31.3999 116.639 31.5152 116.326 31.6481 115.982C32.4571 113.842 33.569 110.883 32.846 106.753C31.9881 101.895 28.9903 99 23.3916 99C19.4089 99 15.9773 101.661 14.3632 103.179C14.1912 103.366 14.1326 103.628 14.2049 103.869C14.2772 104.111 14.4726 104.298 14.7169 104.357C17.6091 104.863 19.9619 106.347 20.3078 108.129C20.7124 110.184 19.9678 111.146 18.6429 112.873C17.699 114.092 16.9271 115.437 16.3467 116.867C15.8288 113.85 17.0111 110.019 17.7009 108.159C17.7869 107.913 17.7342 107.642 17.5641 107.447C17.3922 107.254 17.1303 107.168 16.8782 107.225C14.6114 107.826 12.5145 108.957 10.7616 110.527C7.92799 112.924 6.23175 116.7 5.43248 120.742C3.78509 122.736 2.5774 125.058 1.88756 127.56C0.541121 133.316 0.115105 139.529 5.1413 145.47C8.35791 149.278 13.519 151.254 19.8955 151.254C21.2165 151.479 22.5044 151.864 23.7316 152.403C28.6288 154.222 36.8364 157.261 52.4427 157.261C68.0489 157.261 76.2644 154.222 81.1616 152.403C82.3888 151.864 83.6766 151.479 84.9957 151.254C91.3742 151.254 96.5274 149.278 99.7519 145.47C104.755 139.529 104.331 133.316 102.984 127.53Z" fill="#258C82"/>
<path d="M84.973 147.76C80.6288 147.76 74.1233 153.766 52.42 153.766C30.7186 153.766 24.2131 147.76 19.8747 147.76C2.51755 147.76 4.46588 131.275 4.46588 131.275C4.46588 131.275 7.68445 139.508 15.8628 139.508C16.8535 139.504 17.8424 139.4 18.8117 139.193C18.9836 139.146 19.1048 138.989 19.1048 138.808C19.1048 138.629 18.9836 138.471 18.8117 138.422C6.16799 134.621 6.05464 119.757 13.5666 112.602C10.391 126.197 19.8591 130.434 23.49 131.582C23.6463 131.627 23.8124 131.562 23.8965 131.421C23.9805 131.283 23.9629 131.102 23.8515 130.984C21.5339 128.552 16.1911 121.826 21.3912 115.007C27.9124 106.491 19.222 103.215 19.222 103.215C20.5665 102.763 21.9735 102.521 23.3903 102.503C25.8995 102.503 28.7351 103.423 29.421 107.367C30.7049 114.663 24.4612 117.218 28.9539 123.102C29.0087 123.177 29.0946 123.22 29.1884 123.22C29.2803 123.22 29.3663 123.177 29.423 123.102C29.423 123.102 37.2182 114.15 52.42 114.15C67.6236 114.15 75.3974 123.088 75.3974 123.088C75.4521 123.163 75.5401 123.206 75.6319 123.206C75.7238 123.206 75.8117 123.163 75.8664 123.088C80.3806 117.204 74.1155 114.651 75.3974 107.353C76.1068 103.408 78.9423 102.489 81.43 102.489C82.8468 102.507 84.2539 102.747 85.5964 103.201C85.5964 103.201 76.9158 106.476 83.4214 114.991C88.6234 121.796 83.2943 128.544 80.9473 130.969C80.836 131.087 80.8184 131.267 80.9024 131.407C80.9864 131.547 81.1525 131.614 81.3089 131.568C84.9437 130.455 94.4137 126.184 91.2323 112.59C98.7579 119.721 98.625 134.607 85.9872 138.408C85.8153 138.456 85.6941 138.615 85.6941 138.794C85.6941 138.973 85.8153 139.132 85.9872 139.179C86.9565 139.386 87.9453 139.49 88.9361 139.494C97.1008 139.494 100.31 131.262 100.31 131.262C100.31 131.262 102.33 147.76 84.973 147.76Z" fill="#2CE5B5"/>
<path d="M38.1038 133.237C38.1585 132.111 37.5918 131.045 36.6303 130.464C35.6669 129.884 34.467 129.884 33.5036 130.464C32.5421 131.045 31.9754 132.111 32.0301 133.237C32.0301 134.921 33.3902 135.42 35.063 135.42C36.7358 135.42 38.1038 134.943 38.1038 133.237ZM72.8182 133.237C72.8729 132.111 72.3062 131.045 71.3447 130.464C70.3813 129.884 69.1814 129.884 68.218 130.464C67.2565 131.045 66.6898 132.111 66.7445 133.237C66.7445 134.921 68.1046 135.42 69.7852 135.42C71.4658 135.42 72.8182 134.943 72.8182 133.237ZM52.4202 145.269C47.7692 145.24 43.1964 144.046 39.118 141.796C38.7272 141.562 38.4731 141.157 38.4301 140.703C38.3891 140.249 38.565 139.8 38.905 139.499C39.3466 139.126 39.9681 139.059 40.4781 139.328C43.171 140.833 47.6227 141.753 52.4202 141.753C57.2197 141.753 61.6343 140.833 64.3702 139.328C64.8802 139.059 65.5036 139.126 65.9433 139.499C66.2833 139.8 66.4611 140.247 66.4182 140.703C66.3771 141.155 66.1211 141.562 65.7303 141.796C61.6499 144.048 57.0732 145.242 52.4202 145.269ZM25.3096 149.299C23.5313 148.583 22.052 147.268 21.1296 145.576C21.0925 145.509 21.0143 145.474 20.94 145.494C20.8658 145.511 20.813 145.578 20.8111 145.655V146.076C20.8111 146.715 20.5082 147.315 19.9962 147.694L19.8594 147.795L20.8111 147.893L25.3116 149.299H25.3096ZM79.5093 149.299C81.2916 148.583 82.7728 147.268 83.6972 145.576C83.7363 145.509 83.8144 145.474 83.8867 145.494C83.961 145.511 84.0157 145.578 84.0177 145.655V146.076C84.0177 146.715 84.3206 147.315 84.8326 147.694L84.9674 147.795L84.0177 147.893L79.5093 149.299ZM30.5 122.023C29.7554 122.724 29.0656 123.479 28.4364 124.285C28.3895 124.34 28.3093 124.358 28.2448 124.324C28.1784 124.295 28.1413 124.222 28.153 124.149C28.2448 123.685 28.3367 123.259 28.407 122.95C28.4735 122.647 28.4227 122.328 28.2663 122.059L28.0182 121.654L30.5 122.023ZM74.3561 122.023C75.0987 122.724 75.7905 123.479 76.4197 124.285C76.4647 124.35 76.5487 124.372 76.621 124.338C76.6914 124.305 76.7285 124.226 76.709 124.149C76.6113 123.685 76.5175 123.259 76.4471 122.95C76.3826 122.647 76.4334 122.328 76.5898 122.059L76.8379 121.654L74.3561 122.023ZM127.336 147.567V119.321H133.572V147.567H127.336ZM159.067 147.567H152.829V145.997C151.148 147.464 148.973 148.229 146.749 148.137C144.185 148.176 141.727 147.114 139.988 145.22C138.098 143.191 137.096 140.487 137.201 137.708C137.103 134.937 138.104 132.24 139.988 130.213C141.719 128.305 144.182 127.237 146.749 127.274C148.971 127.184 151.146 127.949 152.829 129.414V127.845H159.067V147.567ZM151.406 141.391C153.306 139.326 153.306 136.136 151.406 134.071C150.527 133.143 149.304 132.626 148.031 132.645C146.751 132.606 145.516 133.127 144.643 134.071C143.742 135.074 143.265 136.392 143.318 137.745C143.259 139.102 143.736 140.428 144.643 141.433C145.516 142.377 146.751 142.896 148.031 142.858C149.309 142.862 150.533 142.329 151.404 141.389L151.406 141.391ZM177.7 147.567L171.321 140.433H170.194V147.567H163.993V119.321H170.229V134.585H171.079L177.274 127.872H184.802L176.225 137.253L185.695 147.567H177.7ZM206.112 139.328H191.776C191.973 140.396 192.505 141.374 193.293 142.117C194.027 142.79 194.993 143.155 195.985 143.138C197.691 143.26 199.313 142.371 200.138 140.862L205.674 141.995C204.951 143.903 203.628 145.519 201.911 146.603C200.113 147.669 198.057 148.206 195.97 148.151C193.238 148.214 190.596 147.161 188.642 145.234C186.633 143.269 185.54 140.542 185.638 137.723C185.544 134.911 186.635 132.187 188.644 130.226C190.6 128.283 193.257 127.221 196.007 127.288C198.67 127.219 201.246 128.252 203.136 130.14C205.106 132.156 206.177 134.891 206.098 137.716L206.112 139.328ZM193.49 133.237C192.71 133.786 192.145 134.59 191.887 135.513H199.954C199.736 134.594 199.214 133.78 198.473 133.202C197.766 132.673 196.902 132.396 196.021 132.415C195.112 132.415 194.227 132.702 193.49 133.237Z" fill="#258C82"/>
<path d="M216.179 132.524H228.413V138.172H216.179V147.589H209.744V121.283H229.908V126.99H216.179V132.524ZM250.708 122.718C252.608 124.022 253.913 126.034 254.339 128.309L248.023 129.6C247.847 128.514 247.261 127.537 246.385 126.876C245.543 126.239 244.513 125.9 243.458 125.912C242.553 125.873 241.66 126.144 240.929 126.683C240.316 127.116 239.952 127.824 239.958 128.579C239.958 129.735 240.665 130.463 242.084 130.776L247.505 131.995C252.264 133.067 254.646 135.62 254.65 139.657C254.753 142.141 253.59 144.507 251.566 145.933C249.313 147.486 246.622 148.269 243.892 148.167C241.162 148.255 238.469 147.528 236.153 146.076C234.101 144.788 232.747 142.631 232.473 140.214L239.122 138.9C239.745 141.482 241.457 142.776 244.261 142.78C245.256 142.845 246.247 142.595 247.095 142.068C247.749 141.634 248.138 140.894 248.13 140.106C248.158 139.559 247.968 139.024 247.605 138.615C247.067 138.162 246.409 137.873 245.713 137.789L240.255 136.611C235.577 135.541 233.239 133.004 233.239 129C233.153 126.644 234.211 124.39 236.073 122.958C237.963 121.471 240.456 120.726 243.552 120.726C246.084 120.628 248.586 121.322 250.71 122.716L250.708 122.718Z" fill="#2CE5B5"/>
</svg>
