<svg xmlns="http://www.w3.org/2000/svg" width="131" height="30" viewBox="0 0 131 30">
    <g fill="none">
        <path fill="#258C82" d="M52.187 14.507c-.353-1.27-.97-2.452-1.813-3.467-.41-2.053-1.284-3.99-2.728-5.194-.897-.799-1.971-1.374-3.133-1.679-.129-.027-.261.017-.348.116-.086.098-.113.236-.07.36.363.946.958 2.9.693 4.428-.298-.727-.694-1.41-1.175-2.031-.678-.878-1.059-1.368-.852-2.412.178-.907 1.382-1.661 2.861-1.919.125-.03.225-.124.262-.247.038-.123.007-.257-.08-.351C44.962 1.353 43.222 0 41.172 0c-2.865 0-4.403 1.472-4.838 3.942-.362 2.1.2 3.598.613 4.693.069.175.127.334.178.476-.334-.229-.726-.468-1.128-.708-2.956-1.658-6.294-2.515-9.684-2.484-3.388-.03-6.725.826-9.68 2.484-.417.24-.794.48-1.128.708.051-.142.11-.301.178-.476.414-1.088.983-2.593.613-4.693C15.857 1.472 14.323 0 11.458 0 9.42 0 7.664 1.353 6.838 2.125c-.088.095-.118.228-.081.351.037.123.137.218.262.248 1.48.257 2.684 1.012 2.861 1.918.207 1.045-.174 1.534-.852 2.412-.483.62-.878 1.304-1.175 2.031-.265-1.534.34-3.482.693-4.428.044-.125.017-.263-.07-.362-.088-.098-.222-.142-.351-.113-1.16.306-2.233.881-3.13 1.679C3.545 7.08 2.677 9 2.268 11.055 1.425 12.069.807 13.25.454 14.522c-.689 2.927-.907 6.086 1.665 9.107 1.646 1.936 4.287 2.941 7.55 2.941.676.114 1.335.31 1.963.584 2.506.925 6.706 2.47 14.692 2.47s12.19-1.545 14.696-2.47c.628-.274 1.287-.47 1.962-.584 3.264 0 5.901-1.005 7.551-2.941 2.56-3.021 2.343-6.18 1.654-9.122z" transform="translate(.01)"/>
        <path fill="#2CE5B5" d="M42.971 24.793c-2.223 0-5.552 3.054-16.658 3.054-11.105 0-14.434-3.054-16.654-3.054-8.882 0-7.885-8.382-7.885-8.382s1.647 4.186 5.832 4.186c.507-.002 1.013-.055 1.509-.16.088-.024.15-.104.15-.196 0-.091-.062-.171-.15-.196-6.47-1.933-6.528-9.491-2.684-13.129-1.625 6.913 3.22 9.067 5.078 9.651.08.023.165-.01.208-.082.043-.07.034-.162-.023-.222-1.186-1.237-3.92-4.657-1.259-8.124 3.337-4.33-1.11-5.996-1.11-5.996.688-.23 1.408-.353 2.133-.362 1.284 0 2.735.468 3.086 2.473.657 3.71-2.538 5.009-.239 8.001.028.038.072.06.12.06.047 0 .091-.022.12-.06 0 0 3.989-4.552 11.768-4.552 7.78 0 11.758 4.545 11.758 4.545.028.038.073.06.12.06s.092-.022.12-.06c2.31-2.992-.896-4.29-.24-8.001.363-2.006 1.814-2.473 3.087-2.473.725.009 1.445.131 2.132.362 0 0-4.442 1.665-1.113 5.995 2.662 3.46-.065 6.891-1.266 8.124-.057.06-.066.152-.023.223.043.071.128.105.208.082 1.86-.566 6.706-2.738 5.078-9.65 3.851 3.626 3.783 11.195-2.684 13.128-.088.024-.15.105-.15.196 0 .091.062.172.15.196.496.105 1.002.158 1.509.16 4.178 0 5.82-4.186 5.82-4.186s1.034 8.389-7.848 8.389z" transform="translate(.01)"/>
        <path fill="#258C82" d="M18.987 17.409c.028-.573-.262-1.115-.754-1.41-.493-.295-1.107-.295-1.6 0-.492.295-.782.837-.754 1.41 0 .856.696 1.11 1.552 1.11.856 0 1.556-.243 1.556-1.11zM36.751 17.409c.028-.573-.262-1.115-.754-1.41-.493-.295-1.107-.295-1.6 0-.492.295-.782.837-.754 1.41 0 .856.696 1.11 1.556 1.11.86 0 1.552-.243 1.552-1.11zM26.313 23.527c-2.38-.015-4.72-.622-6.807-1.766-.2-.119-.33-.325-.352-.556-.021-.231.069-.459.243-.612.226-.19.544-.224.805-.087 1.378.765 3.656 1.233 6.111 1.233 2.456 0 4.715-.468 6.115-1.233.261-.137.58-.103.805.087.174.153.265.38.243.612-.021.23-.152.437-.352.556-2.088 1.145-4.429 1.752-6.81 1.766zM12.44 25.576c-.91-.364-1.667-1.033-2.139-1.893-.019-.034-.059-.052-.097-.042-.038.009-.065.043-.066.082v.214c0 .325-.155.63-.417.823l-.07.051.487.05 2.303.715zM40.175 25.576c.912-.364 1.67-1.033 2.143-1.893.02-.034.06-.052.097-.042.038.009.066.043.067.082v.214c0 .325.155.63.417.823l.069.051-.486.05-2.307.715zM15.096 11.707c-.381.356-.734.74-1.056 1.15-.024.028-.065.037-.098.02-.034-.015-.053-.052-.047-.089.047-.236.094-.453.13-.61.034-.154.008-.316-.072-.453l-.127-.206 1.27.188zM37.538 11.707c.38.356.734.74 1.056 1.15.023.033.066.044.103.027.036-.017.055-.057.045-.096-.05-.236-.098-.453-.134-.61-.033-.154-.007-.316.073-.453l.127-.206-1.27.188zM64.649 24.695L64.649 10.333 67.84 10.333 67.84 24.695zM80.886 24.695h-3.192v-.798c-.86.746-1.973 1.135-3.111 1.088-1.312.02-2.57-.52-3.46-1.483-.967-1.032-1.48-2.407-1.426-3.82-.05-1.409.462-2.78 1.426-3.811.886-.97 2.146-1.513 3.46-1.494 1.137-.046 2.25.343 3.111 1.088v-.798h3.192v10.028zm-3.92-3.14c.972-1.05.972-2.672 0-3.722-.45-.472-1.076-.735-1.727-.725-.655-.02-1.287.245-1.734.725-.461.51-.705 1.18-.678 1.868-.03.69.214 1.364.678 1.875.447.48 1.079.744 1.734.725.654.002 1.28-.269 1.726-.747zM90.421 24.695L87.157 21.068 86.58 21.068 86.58 24.695 83.407 24.695 83.407 10.333 86.598 10.333 86.598 18.094 87.033 18.094 90.203 14.681 94.055 14.681 89.666 19.451 94.512 24.695zM104.96 20.506h-7.336c.101.543.373 1.04.776 1.418.376.342.87.528 1.378.519.873.062 1.703-.39 2.125-1.157l2.833.576c-.37.97-1.047 1.792-1.926 2.343-.92.542-1.972.815-3.04.787-1.398.032-2.75-.503-3.75-1.483-1.028-.999-1.587-2.386-1.537-3.819-.048-1.43.51-2.815 1.538-3.812 1.001-.988 2.361-1.528 3.768-1.494 1.363-.035 2.681.49 3.648 1.45 1.008 1.025 1.556 2.416 1.516 3.852l.008.82zm-6.459-3.097c-.399.279-.688.688-.82 1.157h4.128c-.112-.467-.379-.881-.758-1.175-.362-.269-.804-.41-1.255-.4-.465 0-.918.146-1.295.418z" transform="translate(.01)"/>
        <path fill="#2CE5B5" d="M110.111 17.046L116.371 17.046 116.371 19.918 110.111 19.918 110.111 24.706 106.818 24.706 106.818 11.33 117.136 11.33 117.136 14.232 110.111 14.232zM127.78 12.06c.972.663 1.64 1.686 1.858 2.843l-3.232.656c-.09-.552-.39-1.049-.838-1.385-.431-.324-.958-.496-1.498-.49-.463-.02-.92.118-1.294.392-.314.22-.5.58-.497.964 0 .588.362.958 1.088 1.117l2.774.62c2.435.545 3.654 1.843 3.656 3.896.053 1.263-.542 2.466-1.578 3.191-1.153.79-2.53 1.188-3.927 1.136-1.397.045-2.775-.325-3.96-1.063-1.05-.655-1.743-1.752-1.883-2.981l3.402-.668c.319 1.313 1.195 1.971 2.63 1.973.509.033 1.016-.094 1.45-.362.335-.221.534-.597.53-.998.014-.278-.083-.55-.269-.758-.275-.23-.612-.377-.968-.42l-2.793-.599c-2.394-.544-3.59-1.834-3.59-3.87-.044-1.198.497-2.344 1.45-3.072.967-.756 2.243-1.135 3.827-1.135 1.296-.05 2.576.303 3.663 1.012z" transform="translate(.01)"/>
    </g>
</svg>
