<svg width="256" height="256" viewBox="0 0 256 256" fill="none" xmlns="http://www.w3.org/2000/svg">
<rect width="256" height="256" fill="white"/>
<g clip-path="url(#clip0_2_23)">
<path d="M30.4508 151.046C30.0058 149.149 32.2658 147.954 33.6436 149.332L106.668 222.356C108.046 223.734 106.851 225.994 104.954 225.549C68.103 216.904 39.0956 187.897 30.4508 151.046ZM28.0038 121.778C27.9685 122.345 28.1815 122.898 28.5829 123.299L132.701 227.417C133.102 227.818 133.655 228.032 134.222 227.996C138.96 227.701 143.609 227.076 148.147 226.144C149.676 225.83 150.207 223.952 149.103 222.848L33.1519 106.897C32.0482 105.793 30.1696 106.324 29.8556 107.853C28.9237 112.391 28.2989 117.04 28.0038 121.778ZM36.4219 87.4108C36.0889 88.1584 36.2585 89.032 36.8372 89.6108L166.389 219.163C166.968 219.742 167.842 219.911 168.589 219.578C172.161 217.987 175.623 216.193 178.96 214.21C180.064 213.554 180.235 212.037 179.327 211.129L44.8713 76.6734C43.9631 75.7652 42.4459 75.9356 41.7898 77.0398C39.8072 80.3766 38.013 83.8386 36.4219 87.4108ZM53.3174 64.148C52.5772 63.4078 52.5314 62.2206 53.2288 61.4398C71.559 40.9186 98.2228 28 127.904 28C183.185 28 228 72.8146 228 128.096C228 157.777 215.081 184.441 194.56 202.771C193.78 203.469 192.592 203.423 191.852 202.683L53.3174 64.148Z" fill="#222326"/>
</g>
<defs>
<clipPath id="clip0_2_23">
<rect width="200" height="200" fill="white" transform="translate(28 28)"/>
</clipPath>
</defs>
</svg>
