<svg width="256" height="256" viewBox="0 0 256 256" fill="none" xmlns="http://www.w3.org/2000/svg">
<g clip-path="url(#clip0_2115_2163)">
<path d="M128.417 178.162L0 104.482L68.2478 66.1796L199.311 137.909L128.417 178.162Z" fill="#888888" stroke="white" stroke-miterlimit="10"/>
<path d="M61.8398 140.556L0.277466 104.064L75.9072 61.3047L140.812 95.8464L61.8398 140.556Z" fill="#DCDCDC" stroke="white" stroke-miterlimit="10"/>
<path d="M256 169.666L128.418 243.207V200.169L256 126.628V169.666ZM0.418945 169.666L127.861 243.207V200.169L0.418945 126.628V169.666Z" fill="#DD4814" stroke="white" stroke-miterlimit="10"/>
<path d="M128.14 178.162L0.418945 104.761V126.349L128.14 199.89V178.162ZM128.418 178.162L192.906 141.113V162.702L128.418 199.89V178.162Z" fill="#888888" stroke="white" stroke-miterlimit="10"/>
<path d="M255.999 105.457V83.8685L193.044 119.525V162.702L255.999 127.046V105.457ZM192.905 119.525L128 81.7793V103.507L192.905 141.252V119.525Z" fill="#333333" stroke="white" stroke-miterlimit="10"/>
<path d="M127.583 81.7797L64.6276 45.9844V67.7122L127.583 103.508V81.7797ZM0.418945 82.6153L64.4883 45.8451V67.573L0.418945 104.343V82.6153Z" fill="#DCDCDC" stroke="white" stroke-miterlimit="10"/>
<path d="M63.2343 118.55L127.443 81.7793V103.507L63.2343 140.277V118.55Z" stroke="white" stroke-miterlimit="10"/>
<path d="M193.322 119.386L64.7657 45.9846L125.075 12L255.999 83.7298L193.322 119.386Z" fill="#333333" stroke="white" stroke-miterlimit="10"/>
<path d="M63.2348 118.828L0.418945 82.6145V104.342L63.2348 140.555V118.828Z" stroke="white" stroke-miterlimit="10"/>
</g>
<defs>
<clipPath id="clip0_2115_2163">
<rect width="256" height="256" fill="white"/>
</clipPath>
</defs>
</svg>
