<svg width="256" height="256" viewBox="0 0 256 256" fill="none" xmlns="http://www.w3.org/2000/svg">
<path d="M112 144L74.6667 112C74.6667 112 80.0001 104 88.0001 96C96.0001 88 102.592 86.1227 112 80C130.725 67.8187 146.667 16 170.667 16L112 144Z" fill="url(#paint0_linear_2115_2174)"/>
<path d="M58.6666 176.352L5.33325 138.667L74.6666 112L113.477 141.147L74.6666 171.019L58.6666 176.352Z" fill="url(#paint1_linear_2115_2174)"/>
<path d="M170.667 16C197.333 16 240 160 250.667 197.333C250.667 197.333 213.243 161.973 192 165.333C170.757 168.693 162.827 200.256 140.133 222.699C125.333 237.333 112 240 112 240C112 240 110.901 196.672 85.3334 181.333C72.0001 173.333 58.6667 176 58.6667 176C58.6667 176 90.9281 160.528 109.195 132.405C127.461 104.283 152 16 170.667 16Z" fill="url(#paint2_linear_2115_2174)"/>
<defs>
<linearGradient id="paint0_linear_2115_2174" x1="120.773" y1="58.032" x2="142.704" y2="127.221" gradientUnits="userSpaceOnUse">
<stop stop-color="#4ADDDF"/>
<stop offset="0.699" stop-color="#3F5352"/>
<stop offset="0.863" stop-color="#442729"/>
</linearGradient>
<linearGradient id="paint1_linear_2115_2174" x1="5.33325" y1="144.176" x2="201.467" y2="144.176" gradientUnits="userSpaceOnUse">
<stop stop-color="#4ADDDF"/>
<stop offset="0.792" stop-color="#3F5352"/>
<stop offset="1" stop-color="#442729"/>
</linearGradient>
<linearGradient id="paint2_linear_2115_2174" x1="58.6667" y1="128" x2="250.667" y2="128" gradientUnits="userSpaceOnUse">
<stop offset="0.206" stop-color="#53140F"/>
<stop offset="0.3" stop-color="#84360F"/>
<stop offset="0.413" stop-color="#B85B10"/>
<stop offset="0.511" stop-color="#DF7610"/>
<stop offset="0.59" stop-color="#F68710"/>
<stop offset="0.639" stop-color="#FF8D10"/>
<stop offset="0.729" stop-color="#FD8A10"/>
<stop offset="0.8" stop-color="#F58010"/>
<stop offset="0.865" stop-color="#E86F10"/>
<stop offset="0.925" stop-color="#D65811"/>
<stop offset="0.982" stop-color="#C03A11"/>
<stop offset="1" stop-color="#B72F11"/>
</linearGradient>
</defs>
</svg>
