<svg width="256" height="256" viewBox="0 0 256 256" fill="none" xmlns="http://www.w3.org/2000/svg">
<path d="M0 153.476V116.982H8.32019V121.606C10.4193 117.859 14.9907 115.907 19.1081 115.907C23.9043 115.907 28.098 118.084 30.049 122.357C32.9033 117.558 37.1735 115.907 41.8931 115.907C48.4918 115.907 54.7847 120.108 54.7847 129.782V153.476H46.3926V131.204C46.3926 126.931 44.2171 123.706 39.3446 123.706C34.773 123.706 31.775 127.304 31.775 131.802V153.471H23.2345V131.204C23.2345 127.007 21.1264 123.728 16.1819 123.728C11.5386 123.728 8.61238 127.178 8.61238 131.824V153.494L0 153.476Z" fill="#333333"/>
<path d="M65.4199 153.476V99.1855H74.1176V153.476H65.4199Z" fill="#333333"/>
<path d="M70.625 173.347C72.5802 173.891 74.3379 174.246 78.0687 174.246C85.0044 174.246 93.1852 170.333 95.3384 159.35L104.229 115.314H117.449L119.063 107.988H105.708L107.506 99.2352C108.882 92.4394 112.64 88.9942 118.672 88.9942C120.241 88.9942 119.8 89.1291 121.198 89.3945L123.131 81.8925C121.27 81.3348 119.602 81.0019 115.97 81.0019C112.136 80.9443 108.392 82.1712 105.335 84.4876C101.95 87.1052 99.7165 90.9506 98.6962 95.916L96.1924 107.988H84.3706L83.4041 115.319H94.7315L86.5686 156.036C85.6696 160.655 83.0445 166.178 75.5111 166.178C73.8029 166.178 74.4232 166.047 72.8771 165.795L70.625 173.347Z" fill="#0194E2"/>
<path d="M125.279 153.179H116.586L128.502 98.4023H137.195L125.279 153.179Z" fill="#0194E2"/>
<path d="M168.646 119.272C161.059 113.96 150.729 115.005 144.357 121.728C137.985 128.451 137.491 138.828 143.195 146.127L148.891 141.945C146.064 138.436 145.49 133.619 147.412 129.543C149.335 125.467 153.417 122.849 157.921 122.803V127.255L168.646 119.272Z" fill="#43C9ED"/>
<path d="M147.066 149.81C154.654 155.122 164.984 154.078 171.355 147.354C177.727 140.631 178.221 130.254 172.517 122.955L166.822 127.138C169.649 130.647 170.223 135.464 168.3 139.539C166.377 143.615 162.296 146.233 157.791 146.28V141.827L147.066 149.81Z" fill="#0194E2"/>
<path d="M183.408 116.96H192.906L194.839 141.899L208.364 116.96L217.381 117.09L220.923 141.899L232.839 116.96L241.532 117.09L223.499 153.499H214.806L210.616 127.399L196.772 153.499H187.755L183.408 116.96Z" fill="#0194E2"/>
<path d="M246.774 117.608H244.975V116.982H249.308V117.621H247.511V122.892H246.774V117.608Z" fill="#0194E2"/>
<path d="M250.396 116.982H251.296L252.428 120.131C252.574 120.535 252.708 120.949 252.846 121.363H252.888C253.027 120.949 253.154 120.535 253.292 120.131L254.415 116.982H255.315V122.892H254.615V119.632C254.615 119.114 254.671 118.404 254.709 117.877H254.671L254.222 119.227L253.107 122.29H252.618L251.489 119.231L251.04 117.882H251.005C251.045 118.408 251.103 119.119 251.103 119.636V122.897H250.42L250.396 116.982Z" fill="#0194E2"/>
</svg>
