<svg width="256" height="256" viewBox="0 0 256 256" fill="none" xmlns="http://www.w3.org/2000/svg">
<path d="M14 151.983V118.001H21.8973V122.307C23.8897 118.818 28.2287 117 32.1368 117C36.6892 117 40.6698 119.027 42.5216 123.006C45.2308 118.537 49.284 117 53.7637 117C60.027 117 66 120.912 66 129.92V151.983H58.0345V131.244C58.0345 127.265 55.9696 124.262 51.3447 124.262C47.0055 124.262 44.1599 127.613 44.1599 131.801V151.979H36.0535V131.244C36.0535 127.336 34.0525 124.283 29.3594 124.283C24.9521 124.283 22.1746 127.495 22.1746 131.821V152L14 151.983Z" fill="#333333"/>
<path d="M76 152V101H84V152H76Z" fill="#333333"/>
<path d="M81 171.142C82.8619 171.661 84.5357 172 88.0884 172C94.6931 172 102.483 168.265 104.534 157.782L113 115.752H125.589L127.126 108.759H114.409L116.121 100.405C117.431 93.9185 121.01 90.6302 126.754 90.6302C128.248 90.6302 127.828 90.759 129.159 91.0123L131 83.8519C129.228 83.3196 127.639 83.0019 124.181 83.0019C120.53 82.9469 116.964 84.1179 114.053 86.3288C110.83 88.8272 108.703 92.4975 107.731 97.2368L105.347 108.759H94.0896L93.1692 115.756H103.956L96.1826 154.619C95.3266 159.028 92.8267 164.299 85.6529 164.299C84.0262 164.299 84.6169 164.174 83.1446 163.934L81 171.142Z" fill="#0194E2"/>
<path d="M133.014 152H125L135.986 100H144L133.014 152Z" fill="#0194E2"/>
<path d="M174 119.242C166.779 114.147 156.948 115.15 150.883 121.598C144.819 128.046 144.349 137.999 149.777 145L155.198 140.989C152.508 137.623 151.961 133.003 153.791 129.094C155.621 125.184 159.506 122.673 163.793 122.629V126.899L174 119.242Z" fill="#43C9ED"/>
<path d="M154 148.757C160.964 153.852 170.444 152.851 176.291 146.402C182.139 139.954 182.592 130.001 177.358 123L172.131 127.012C174.726 130.378 175.252 134.998 173.488 138.906C171.723 142.816 167.977 145.327 163.843 145.372V141.101L154 148.757Z" fill="#0194E2"/>
<path d="M188 118H196.988L198.817 141.206L211.615 118L220.147 118.121L223.499 141.206L234.774 118L243 118.121L225.936 152H217.71L213.746 127.714L200.646 152H192.113L188 118Z" fill="#0194E2"/>
<path d="M248.661 118.53H247V118H251V118.541H249.341V123H248.661V118.53Z" fill="#0194E2"/>
<path d="M252 118H252.732L253.652 120.662C253.771 121.003 253.88 121.353 253.992 121.703H254.026C254.139 121.353 254.243 121.003 254.355 120.662L255.268 118H256V122.996H255.431V120.24C255.431 119.802 255.476 119.202 255.507 118.757H255.476L255.111 119.898L254.205 122.487H253.807L252.889 119.901L252.524 118.761H252.495C252.528 119.205 252.575 119.806 252.575 120.243V123H252.02L252 118Z" fill="#0194E2"/>
</svg>
