<svg width="256" height="256" viewBox="0 0 256 256" fill="none" xmlns="http://www.w3.org/2000/svg">
<rect width="256" height="256" fill="white"/>
<g clip-path="url(#clip0_2_160)">
<path d="M145.283 50.5732C136.913 40.6121 129.705 30.4954 128.31 28.3942C128.155 28.2386 127.922 28.2386 127.767 28.3942C126.295 30.4954 119.087 40.6121 110.717 50.5732C38.9525 142.48 122.032 204.503 122.032 204.503L122.73 204.97C123.35 214.542 124.9 228.316 124.9 228.316H128H131.1C131.1 228.316 132.65 214.62 133.27 204.97L133.967 204.425C133.967 204.503 217.047 142.48 145.283 50.5732ZM128 203.102C128 203.102 124.28 199.912 123.272 198.277V198.122L127.767 98.044C127.767 97.7327 128.232 97.7327 128.232 98.044L132.65 198.122V198.277C131.642 199.912 128 203.102 128 203.102Z" fill="#00684A"/>
</g>
<defs>
<clipPath id="clip0_2_160">
<rect width="93" height="200" fill="white" transform="translate(81.5 28.3164)"/>
</clipPath>
</defs>
</svg>
