<svg width="256" height="256" viewBox="0 0 256 256" fill="none" xmlns="http://www.w3.org/2000/svg">
<path d="M3 160.613V111.647H15.288L15.7431 123.431L14.4688 122.883C15.1363 120.265 16.1375 118.042 17.4725 116.214C18.8682 114.387 20.5369 112.987 22.4788 112.012C24.4206 111.038 26.5444 110.55 28.8503 110.55C32.916 110.55 36.1928 111.738 38.6807 114.113C41.2293 116.489 42.8677 119.686 43.5959 123.706L41.8665 123.797C42.4126 120.934 43.3532 118.529 44.6882 116.58C46.0839 114.57 47.7829 113.078 49.7854 112.103C51.7879 111.068 54.0331 110.55 56.5211 110.55C59.9192 110.55 62.8319 111.251 65.2592 112.652C67.6865 114.052 69.5676 116.154 70.9026 118.955C72.2376 121.696 72.9051 125.076 72.9051 129.095V160.613H59.2517V132.932C59.2517 129.095 58.6753 126.233 57.5223 124.345C56.3694 122.396 54.4882 121.422 51.8789 121.422C50.2405 121.422 48.8449 121.878 47.6919 122.792C46.539 123.706 45.6287 125.045 44.9612 126.812C44.3544 128.517 44.051 130.618 44.051 133.115V160.613H31.763V133.115C31.763 129.339 31.2169 126.446 30.1246 124.436C29.0324 122.427 27.1512 121.422 24.4812 121.422C22.8428 121.422 21.4168 121.878 20.2032 122.792C19.0503 123.706 18.1704 125.045 17.5636 126.812C16.9567 128.578 16.6533 130.679 16.6533 133.115V160.613H3ZM99.82 161.709C94.7834 161.709 90.8391 160.095 87.9871 156.867C85.1957 153.579 83.8001 149.011 83.8001 143.164V111.647H97.4534V139.967C97.4534 143.743 98.0299 146.514 99.1828 148.28C100.336 149.985 102.156 150.838 104.644 150.838C107.435 150.838 109.59 149.894 111.107 148.006C112.684 146.057 113.473 143.164 113.473 139.327V111.647H127.127V160.613H114.657L114.292 146.544L116.022 146.91C115.294 151.782 113.564 155.467 110.834 157.964C108.103 160.461 104.432 161.709 99.82 161.709ZM135.135 160.613L152.52 135.764L135.59 111.647H150.063L160.53 127.36L170.634 111.647H185.47L168.631 135.856L185.925 160.613H171.453L160.712 143.986L149.881 160.613H135.135Z" fill="black"/>
<path d="M252.993 94H203.689V160.613H252.993V94Z" fill="black"/>
</svg>
