<svg width="256" height="256" viewBox="0 0 256 256" fill="none" xmlns="http://www.w3.org/2000/svg">
<path d="M154.348 85H228V170H154.348V85Z" fill="black"/>
<path d="M28 170V89.2592H48.2638L49.0143 108.691L46.913 107.787C48.0138 103.469 49.6647 99.8037 51.8665 96.791C54.1677 93.7783 56.9197 91.4685 60.1221 89.8616C63.3241 88.2551 66.8266 87.4517 70.6292 87.4517C77.3337 87.4517 82.7375 89.41 86.8403 93.3263C91.0432 97.243 93.7451 102.515 94.9456 109.143L92.0938 109.294C92.9946 104.574 94.5457 100.607 96.7471 97.3937C99.0487 94.0795 101.85 91.6193 105.153 90.0124C108.455 88.3054 112.158 87.4517 116.26 87.4517C121.864 87.4517 126.667 88.6066 130.67 90.9164C134.673 93.2262 137.775 96.6905 139.977 101.31C142.178 105.829 143.279 111.403 143.279 118.031V170H120.763V124.357C120.763 118.031 119.813 113.311 117.912 110.198C116.01 106.984 112.908 105.377 108.605 105.377C105.903 105.377 103.602 106.131 101.701 107.637C99.7993 109.143 98.2982 111.353 97.1975 114.265C96.1966 117.077 95.6961 120.541 95.6961 124.659V170H75.4324V124.659C75.4324 118.432 74.532 113.662 72.7305 110.348C70.9293 107.034 67.8271 105.377 63.4242 105.377C60.7223 105.377 58.3706 106.131 56.3695 107.637C54.4682 109.143 53.0173 111.353 52.0164 114.265C51.0158 117.177 50.5153 120.642 50.5153 124.659V170H28Z" fill="black"/>
</svg>
