<svg width="256" height="256" viewBox="5.43 8.09 60.83 60.83" fill="none" xmlns="http://www.w3.org/2000/svg">
<path d="M43 27H63V50H43V27Z" fill="black"/>
<path d="M8.69018 50V28.1525H14.1928L14.3966 33.4106L13.826 33.166C14.1249 31.9976 14.5732 31.0057 15.1711 30.1905C15.796 29.3753 16.5433 28.7503 17.4129 28.3155C18.2824 27.8808 19.2335 27.6634 20.2661 27.6634C22.0867 27.6634 23.5541 28.1933 24.6682 29.253C25.8095 30.3128 26.5432 31.7394 26.8692 33.5329L26.0948 33.5736C26.3394 32.2965 26.7606 31.2231 27.3584 30.3536C27.9834 29.4568 28.7442 28.7911 29.6409 28.3563C30.5377 27.8944 31.5431 27.6634 32.6572 27.6634C34.1789 27.6634 35.4832 27.9759 36.5702 28.6009C37.6571 29.2259 38.4995 30.1633 39.0973 31.4133C39.6951 32.6361 39.994 34.1443 39.994 35.9377V50H33.88V37.6496C33.88 35.9377 33.6219 34.6606 33.1056 33.8182C32.5893 32.9486 31.7469 32.5139 30.5784 32.5139C29.8447 32.5139 29.2198 32.7177 28.7035 33.1253C28.1872 33.5329 27.7796 34.1307 27.4807 34.9187C27.2089 35.6796 27.073 36.6171 27.073 37.7312V50H21.5704V37.7312C21.5704 36.0464 21.3259 34.7557 20.8367 33.8589C20.3476 32.9622 19.5052 32.5139 18.3096 32.5139C17.5759 32.5139 16.9373 32.7177 16.3939 33.1253C15.8776 33.5329 15.4836 34.1307 15.2118 34.9187C14.9401 35.7067 14.8042 36.6442 14.8042 37.7312V50H8.69018Z" fill="black"/>
</svg>
