<svg width="256" height="256" viewBox="0 0 256 256" fill="none" xmlns="http://www.w3.org/2000/svg">
<path d="M44.4126 0.457081C42.1652 -0.471239 39.578 0.0414008 37.858 1.75692L24.0625 15.5166L10.267 1.75692C8.547 0.0414008 5.9598 -0.471239 3.71236 0.457081C1.46492 1.3854 0 3.57228 0 5.99916V42.0011C0 45.314 2.69308 48.0001 6.01466 48.0001C9.33625 48.0001 12.0293 45.314 12.0293 42.0011V20.4808L19.8102 28.2414C22.1587 30.5838 25.9673 30.5838 28.3158 28.2414L36.0966 20.4808V42.0011C36.0966 45.314 38.7897 48.0001 42.1113 48.0001C45.4329 48.0001 48.126 45.314 48.126 42.0011V5.99916C48.126 3.57324 46.661 1.3854 44.4136 0.457081H44.4126ZM42.1113 44.978C40.4635 44.978 39.1275 43.6456 39.1275 42.002C39.1275 40.3585 40.4635 39.026 42.1113 39.026C43.7591 39.026 45.095 40.3585 45.095 42.002C45.095 43.6456 43.7591 44.978 42.1113 44.978Z" fill="black" transform="translate(18, 18.29) scale(4.5713)"/>
</svg>
