<?xml version="1.0" encoding="utf-8"?>
<svg xmlns="http://www.w3.org/2000/svg" width="135" height="62" viewBox="0 0 135 62" fill="none">
<path d="M3.168 48V22.272H9.648L9.888 28.464L9.216 28.176C9.568 26.8 10.096 25.632 10.8 24.672C11.536 23.712 12.416 22.976 13.44 22.464C14.464 21.952 15.584 21.696 16.8 21.696C18.944 21.696 20.672 22.32 21.984 23.568C23.328 24.816 24.192 26.496 24.576 28.608L23.664 28.656C23.952 27.152 24.448 25.888 25.152 24.864C25.888 23.808 26.784 23.024 27.84 22.512C28.896 21.968 30.08 21.696 31.392 21.696C33.184 21.696 34.72 22.064 36 22.8C37.28 23.536 38.272 24.64 38.976 26.112C39.68 27.552 40.032 29.328 40.032 31.44V48H32.832V33.456C32.832 31.44 32.528 29.936 31.92 28.944C31.312 27.92 30.32 27.408 28.944 27.408C28.08 27.408 27.344 27.648 26.736 28.128C26.128 28.608 25.648 29.312 25.296 30.24C24.976 31.136 24.816 32.24 24.816 33.552V48H18.336V33.552C18.336 31.568 18.048 30.048 17.472 28.992C16.896 27.936 15.904 27.408 14.496 27.408C13.632 27.408 12.88 27.648 12.24 28.128C11.632 28.608 11.168 29.312 10.848 30.24C10.528 31.168 10.368 32.272 10.368 33.552V48H3.168ZM54.2254 48.576C51.5694 48.576 49.4894 47.728 47.9854 46.032C46.5134 44.304 45.7774 41.904 45.7774 38.832V22.272H52.9774V37.152C52.9774 39.136 53.2814 40.592 53.8894 41.52C54.4974 42.416 55.4574 42.864 56.7694 42.864C58.2414 42.864 59.3774 42.368 60.1774 41.376C61.0094 40.352 61.4254 38.832 61.4254 36.816V22.272H68.6254V48H62.0494L61.8574 40.608L62.7694 40.8C62.3854 43.36 61.4734 45.296 60.0334 46.608C58.5934 47.92 56.6574 48.576 54.2254 48.576ZM72.8486 48L82.0166 34.944L73.0886 22.272H80.7206L86.2406 30.528L91.5686 22.272H99.3926L90.5126 34.992L99.6326 48H92.0006L86.3366 39.264L80.6246 48H72.8486Z" fill="black"/>
<rect x="109" y="13" width="26" height="35" fill="black"/>
</svg>