<svg width="256" height="256" viewBox="0 0 256 256" fill="none" xmlns="http://www.w3.org/2000/svg">
<g clip-path="url(#clip0_2115_2205)">
<path d="M0 0C84.48 0 168.96 0 256 0C256 84.48 256 168.96 256 256C171.52 256 87.04 256 0 256C0 171.52 0 87.04 0 0Z" fill="#020708"/>
<path d="M81.5 98.75C91.5562 98.75 101.612 98.7508 111.668 98.7887C112.988 98.7936 114.309 98.7985 115.63 98.8033C118.445 98.8136 121.259 98.824 124.074 98.8348C124.25 98.8355 124.426 98.8362 124.607 98.8369C124.784 98.8376 124.96 98.8383 125.142 98.839C125.499 98.8403 125.855 98.8417 126.212 98.8431C126.389 98.8438 126.566 98.8444 126.748 98.8451C129.626 98.8562 132.504 98.8664 135.381 98.8762C138.39 98.8864 141.399 98.8974 144.408 98.9092C146.076 98.9157 147.744 98.9219 149.412 98.9273C150.979 98.9323 152.545 98.9384 154.112 98.9451C154.673 98.9474 155.235 98.9493 155.796 98.9509C162.116 98.9685 168.43 99.1261 174.75 99.25C174.75 122.763 174.75 146.275 174.75 170.5C143.978 170.5 113.205 170.5 81.5 170.5C81.5 146.823 81.5 123.145 81.5 98.75Z" fill="#999F9E"/>
<path d="M137.5 111.25C146.823 111.25 156.145 111.25 165.75 111.25C165.75 122.965 165.75 134.68 165.75 146.75C156.427 146.75 147.105 146.75 137.5 146.75C137.5 135.035 137.5 123.32 137.5 111.25Z" fill="#181E23"/>
<path d="M90.5 111.5C99.8225 111.5 109.145 111.5 118.75 111.5C118.75 123.132 118.75 134.765 118.75 146.75C114.403 146.758 114.403 146.758 109.969 146.766C109.076 146.768 108.184 146.77 107.265 146.773C106.117 146.774 106.117 146.774 105.569 146.774C105.21 146.774 104.852 146.775 104.493 146.776C99.8252 146.793 95.1694 146.623 90.5 146.5C90.5 134.95 90.5 123.4 90.5 111.5Z" fill="#181E23"/>
<path d="M173 209.5C173 213.13 173 216.76 173 220.5C143.465 220.5 113.93 220.5 83.5 220.5C83.0705 219.641 83.2201 218.654 83.2256 217.709C83.2259 217.482 83.2263 217.255 83.2267 217.022C83.2281 216.296 83.2312 215.57 83.2344 214.844C83.2356 214.352 83.2368 213.861 83.2378 213.369C83.2406 212.163 83.2449 210.956 83.25 209.75C93.2395 209.718 103.229 209.686 113.218 209.654C114.403 209.651 115.589 209.647 116.774 209.643C117.127 209.642 117.127 209.642 117.488 209.641C121.285 209.629 125.081 209.617 128.877 209.604C132.786 209.592 136.695 209.579 140.604 209.567C142.794 209.56 144.983 209.553 147.173 209.546C155.782 209.518 164.391 209.492 173 209.5Z" fill="#FEFEFE"/>
<path d="M83.5 33.75C112.788 33.75 142.075 33.75 172.25 33.75C172.25 37.215 172.25 40.68 172.25 44.25C142.962 44.25 113.675 44.25 83.5 44.25C83.5 40.785 83.5 37.32 83.5 33.75Z" fill="#FEFEFE"/>
<path d="M123.75 75.5C126.72 75.5 129.69 75.5 132.75 75.5C132.75 80.45 132.75 85.4 132.75 90.5C146.61 90.5 160.47 90.5 174.75 90.5C174.75 93.3875 174.75 96.275 174.75 99.25C165.963 99.2575 157.177 99.2381 148.39 99.2016C146.654 99.1944 144.919 99.1875 143.183 99.1806C140.092 99.1683 137 99.1558 133.908 99.1432C130.915 99.1309 127.923 99.1188 124.93 99.1068C124.743 99.1061 124.557 99.1053 124.365 99.1045C123.43 99.1008 122.495 99.0971 121.559 99.0933C113.873 99.0625 106.186 99.0314 98.5 99C98.5 98.9175 98.5 98.835 98.5 98.75C90.085 98.6262 90.085 98.6262 81.5 98.5C81.5 95.86 81.5 93.22 81.5 90.5C95.4425 90.5 109.385 90.5 123.75 90.5C123.75 85.55 123.75 80.6 123.75 75.5Z" fill="#191F24"/>
<path d="M104.5 196.5C120.175 196.5 135.85 196.5 152 196.5C152 199.47 152 202.44 152 205.5C136.325 205.5 120.65 205.5 104.5 205.5C104.5 202.53 104.5 199.56 104.5 196.5Z" fill="#474B51"/>
<path d="M50 59.75C62.375 59.75 74.75 59.75 87.5 59.75C87.5 63.38 87.5 67.01 87.5 70.75C75.125 70.75 62.75 70.75 50 70.75C50 67.12 50 63.49 50 59.75Z" fill="#FDFEFE"/>
<path d="M169.25 59.75C181.295 59.75 193.34 59.75 205.75 59.75C205.75 63.38 205.75 67.01 205.75 70.75C202.245 70.7569 198.74 70.7627 195.234 70.7656C194.976 70.7658 194.718 70.7661 194.451 70.7663C186.048 70.7724 177.651 70.7081 169.25 70.5C169.25 66.9525 169.25 63.405 169.25 59.75Z" fill="#FEFEFE"/>
<path d="M64.75 47C77.62 47 90.49 47 103.75 47C103.75 50.3825 103.75 53.765 103.75 57.25C90.88 57.25 78.01 57.25 64.75 57.25C64.75 53.8675 64.75 50.485 64.75 47Z" fill="#FEFEFE"/>
<path d="M154.23 46.9682C154.552 46.9675 154.874 46.9668 155.206 46.9661C155.566 46.9666 155.926 46.9671 156.286 46.9676C156.662 46.9673 157.039 46.9668 157.415 46.9663C158.44 46.9652 159.466 46.9656 160.491 46.9664C161.561 46.967 162.632 46.9664 163.703 46.966C165.501 46.9656 167.299 46.9662 169.097 46.9674C171.179 46.9687 173.261 46.9683 175.343 46.9669C177.128 46.9658 178.912 46.9656 180.696 46.9663C181.763 46.9667 182.83 46.9667 183.897 46.9659C184.9 46.9652 185.903 46.9657 186.906 46.9671C187.276 46.9675 187.645 46.9674 188.014 46.9668C188.516 46.9661 189.018 46.9671 189.52 46.9682C189.801 46.9683 190.083 46.9684 190.373 46.9685C191 47 191 47 191.25 47.25C191.25 50.55 191.25 53.85 191.25 57.25C178.462 57.25 165.675 57.25 152.5 57.25C152.5 46.9688 152.5 46.9688 154.23 46.9682Z" fill="#FEFEFE"/>
<path d="M32 88.25C42.8075 88.25 53.615 88.25 64.75 88.25C64.75 92.21 64.75 96.17 64.75 100.25C53.9425 100.25 43.135 100.25 32 100.25C32 96.29 32 92.33 32 88.25Z" fill="#FEFEFE"/>
<path d="M39 73.5C55.9538 73.6238 55.9538 73.6238 73.25 73.75C73.25 77.2975 73.25 80.845 73.25 84.5C73.085 84.5 72.92 84.5 72.75 84.5C72.75 84.665 72.75 84.83 72.75 85C61.6125 85 50.475 85 39 85C39 81.205 39 77.41 39 73.5Z" fill="#FDFEFE"/>
<path d="M183 73.75C194.302 73.75 205.605 73.75 217.25 73.75C217.25 77.2975 217.25 80.845 217.25 84.5C217.085 84.5 216.92 84.5 216.75 84.5C216.75 84.665 216.75 84.83 216.75 85C205.613 85 194.475 85 183 85C183 81.2875 183 77.575 183 73.75Z" fill="#FBFCFC"/>
<path d="M191.25 88.5C202.057 88.5 212.865 88.5 224 88.5C224 92.295 224 96.09 224 100C215.869 100.18 207.743 100.274 199.609 100.266C199.4 100.265 199.191 100.265 198.976 100.265C196.401 100.262 193.825 100.256 191.25 100.25C191.25 96.3725 191.25 92.495 191.25 88.5Z" fill="#FEFEFE"/>
<path d="M118.25 56.5C124.932 56.5 131.615 56.5 138.5 56.5C138.8 69.237 138.8 69.237 138.75 75C137.513 75.2019 136.338 75.2805 135.08 75.2784C134.894 75.2784 134.708 75.2784 134.516 75.2785C133.92 75.2783 133.324 75.2764 132.728 75.2744C132.357 75.274 131.986 75.2738 131.616 75.2737C130.249 75.2723 128.882 75.2689 127.516 75.2656C124.458 75.2605 121.4 75.2553 118.25 75.25C118.25 69.0625 118.25 62.875 118.25 56.5Z" fill="#FB4740"/>
<path d="M29.25 118.5C38.49 118.5 47.73 118.5 57.25 118.5C57.4065 120.222 57.5377 121.871 57.5332 123.588C57.5334 123.794 57.5337 124.001 57.5339 124.213C57.5341 124.643 57.5336 125.073 57.5326 125.503C57.5312 126.164 57.5326 126.824 57.5342 127.485C57.534 127.905 57.5337 128.325 57.5332 128.744C57.5337 128.942 57.5342 129.14 57.5347 129.344C57.5287 130.721 57.5287 130.721 57.25 131C56.8863 131.024 56.5214 131.03 56.1569 131.03C55.921 131.03 55.6851 131.031 55.442 131.031C55.1811 131.03 54.9201 131.029 54.6513 131.028C54.3782 131.028 54.105 131.028 53.8236 131.028C52.9159 131.028 52.0083 131.026 51.1006 131.024C50.4732 131.024 49.8458 131.024 49.2184 131.023C47.7327 131.022 46.247 131.021 44.7613 131.018C42.6081 131.014 40.4548 131.013 38.3016 131.012C35.2844 131.009 32.2672 131.004 29.25 131C29.25 126.875 29.25 122.75 29.25 118.5Z" fill="#FDFDFD"/>
<path d="M198.75 118.5C207.908 118.5 217.065 118.5 226.5 118.5C226.5 130.5 226.5 130.5 226.25 131C217.175 131 208.1 131 198.75 131C198.75 126.875 198.75 122.75 198.75 118.5Z" fill="#FEFEFE"/>
<path d="M107.75 155.5C121.28 155.5 134.81 155.5 148.75 155.5C148.75 158.223 148.75 160.945 148.75 163.75C135.22 163.75 121.69 163.75 107.75 163.75C107.75 161.027 107.75 158.305 107.75 155.5Z" fill="#181E23"/>
<path d="M29.25 103.5C32.8964 103.494 36.5429 103.49 40.1893 103.487C41.8823 103.486 43.5753 103.484 45.2682 103.481C46.9006 103.478 48.5329 103.477 50.1652 103.476C50.7895 103.476 51.4138 103.475 52.0381 103.474C52.9092 103.472 53.7802 103.472 54.6513 103.472C54.9122 103.471 55.1731 103.47 55.442 103.469C55.6779 103.469 55.9139 103.47 56.1569 103.47C56.3632 103.47 56.5695 103.47 56.782 103.469C57.25 103.5 57.25 103.5 57.5 103.75C57.5 107.545 57.5 111.34 57.5 115.25C48.1775 115.25 38.855 115.25 29.25 115.25C29.25 111.373 29.25 107.495 29.25 103.5Z" fill="#FCFCFC"/>
<path d="M226.5 134.25C226.5 138.21 226.5 142.17 226.5 146.25C217.26 146.25 208.02 146.25 198.5 146.25C198.5 142.372 198.5 138.495 198.5 134.5C203.46 134.438 203.46 134.438 205.623 134.411C207.082 134.393 208.541 134.375 210 134.357C215.5 134.287 220.999 134.235 226.5 134.25Z" fill="#FAFAFA"/>
<path d="M29.5 134.5C38.6575 134.5 47.815 134.5 57.25 134.5C57.25 138.378 57.25 142.255 57.25 146.25C48.0925 146.25 38.935 146.25 29.5 146.25C29.5 142.372 29.5 138.495 29.5 134.5Z" fill="#FBFCFC"/>
<path d="M198.75 103.5C207.825 103.5 216.9 103.5 226.25 103.5C226.25 107.295 226.25 111.09 226.25 115C220.496 115.241 214.758 115.281 208.999 115.267C207.81 115.265 206.622 115.263 205.433 115.262C203.122 115.26 200.811 115.255 198.5 115.25C198.494 113.657 198.489 112.064 198.486 110.471C198.485 109.929 198.483 109.386 198.481 108.844C198.478 108.066 198.477 107.288 198.476 106.51C198.474 106.266 198.473 106.023 198.472 105.772C198.472 105.547 198.472 105.321 198.472 105.089C198.471 104.891 198.471 104.692 198.47 104.487C198.5 104 198.5 104 198.75 103.5Z" fill="#FBFCFB"/>
<path d="M38.5 164.5C47.245 164.5 55.99 164.5 65 164.5C65 168.46 65 172.42 65 176.5C56.255 176.5 47.51 176.5 38.5 176.5C38.5 172.54 38.5 168.58 38.5 164.5Z" fill="#FBFCFC"/>
<path d="M191.25 164.5C199.83 164.5 208.41 164.5 217.25 164.5C217.25 168.46 217.25 172.42 217.25 176.5C208.587 176.5 199.925 176.5 191 176.5C191 172.499 191.076 168.497 191.25 164.5Z" fill="#FBFBFB"/>
<path d="M31.25 149.5C33.8906 149.493 36.5312 149.487 39.1719 149.484C39.3659 149.484 39.5599 149.484 39.7597 149.484C45.6788 149.478 51.5836 149.542 57.5 149.75C57.5 153.545 57.5 157.34 57.5 161.25C48.8375 161.25 40.175 161.25 31.25 161.25C31.25 157.373 31.25 153.495 31.25 149.5Z" fill="#FCFDFD"/>
<path d="M198.5 149.5C207.08 149.5 215.66 149.5 224.5 149.5C224.5 153.378 224.5 157.255 224.5 161.25C215.92 161.25 207.34 161.25 198.5 161.25C198.5 157.372 198.5 153.495 198.5 149.5Z" fill="#FBFCFC"/>
<path d="M114 179C123.405 179 132.81 179 142.5 179C142.5 182.135 142.5 185.27 142.5 188.5C133.095 188.5 123.69 188.5 114 188.5C114 185.365 114 182.23 114 179Z" fill="#474B51"/>
<path d="M183 179.75C190.673 179.75 198.345 179.75 206.25 179.75C206.25 183.545 206.25 187.34 206.25 191.25C198.577 191.25 190.905 191.25 183 191.25C183 187.455 183 183.66 183 179.75Z" fill="#FCFDFD"/>
<path d="M50 180C57.6725 180 65.345 180 73.25 180C73.25 183.713 73.25 187.425 73.25 191.25C65.5775 191.25 57.905 191.25 50 191.25C50 187.537 50 183.825 50 180Z" fill="#FEFEFE"/>
<path d="M64.5 117.5C67.305 117.5 70.11 117.5 73 117.5C73.1736 125.032 73.2744 132.56 73.2656 140.094C73.2653 140.372 73.2653 140.372 73.265 140.657C73.2622 142.938 73.2564 145.219 73.25 147.5C70.3625 147.5 67.475 147.5 64.5 147.5C64.5 137.6 64.5 127.7 64.5 117.5Z" fill="#474B50"/>
<path d="M64.75 195.25C72.34 195.25 79.93 195.25 87.75 195.25C87.75 198.797 87.75 202.345 87.75 206C80.16 206 72.57 206 64.75 206C64.75 202.453 64.75 198.905 64.75 195.25Z" fill="#FCFDFD"/>
<path d="M168.5 195.25C176.008 195.25 183.515 195.25 191.25 195.25C191.25 198.797 191.25 202.345 191.25 206C183.742 206 176.235 206 168.5 206C168.5 202.453 168.5 198.905 168.5 195.25Z" fill="#FCFDFD"/>
<path d="M145.5 119.5C149.625 119.5 153.75 119.5 158 119.5C158 125.852 158 132.205 158 138.75C153.875 138.75 149.75 138.75 145.5 138.75C145.5 132.398 145.5 126.045 145.5 119.5Z" fill="#2CCDD4"/>
<path d="M183 117.75C185.64 117.75 188.28 117.75 191 117.75C191 127.568 191 137.385 191 147.5C188.36 147.5 185.72 147.5 183 147.5C183 137.682 183 127.865 183 117.75Z" fill="#474B50"/>
<path d="M98.5 119.5C102.543 119.5 106.585 119.5 110.75 119.5C110.75 125.852 110.75 132.205 110.75 138.75C106.707 138.75 102.665 138.75 98.5 138.75C98.5 132.398 98.5 126.045 98.5 119.5Z" fill="#2DCCD2"/>
<path d="M118 56.25C121.96 56.25 125.92 56.25 130 56.25C130 56.3325 130 56.415 130 56.5C126.122 56.5 122.245 56.5 118.25 56.5C118.25 62.6875 118.25 68.875 118.25 75.25C125.015 75.1675 131.78 75.085 138.75 75C138.667 72.69 138.585 70.38 138.5 68C138.484 65.9369 138.475 63.8754 138.484 61.8125C138.486 61.2904 138.487 60.7682 138.488 60.2461C138.49 58.9974 138.495 57.7487 138.5 56.5C138.582 56.5 138.665 56.5 138.75 56.5C138.895 61.2388 139.028 65.979 139.058 70.7201C139.061 71.1143 139.065 71.5085 139.071 71.9027C139.078 72.4521 139.081 73.0013 139.082 73.5508C139.084 73.8618 139.087 74.1729 139.089 74.4934C139 75.25 139 75.25 138.683 75.6712C138.142 76.0825 137.909 76.0723 137.239 76.0175C136.93 75.9966 136.93 75.9966 136.613 75.9754C136.386 75.9571 136.16 75.9388 135.926 75.9199C133.633 75.7747 131.356 75.7321 129.059 75.752C128.585 75.755 128.585 75.755 128.101 75.7581C126.794 75.767 125.488 75.7775 124.181 75.7928C123.213 75.804 122.245 75.8093 121.277 75.8145C120.831 75.8214 120.831 75.8214 120.376 75.8286C119.968 75.8299 119.968 75.8299 119.551 75.8312C119.191 75.8348 119.191 75.8348 118.824 75.8385C118.54 75.7947 118.54 75.7947 118.25 75.75C117.721 74.9559 117.688 74.7784 117.692 73.8721C117.693 73.6313 117.693 73.3905 117.693 73.1424C117.697 72.8737 117.7 72.605 117.703 72.3281C117.705 72.0454 117.706 71.7627 117.708 71.4714C117.75 66.3972 117.886 61.3227 118 56.25Z" fill="#4C0F0C"/>
<path d="M81.5 98.75C83.6129 98.7441 85.7258 98.7397 87.8387 98.737C88.8205 98.7357 89.8024 98.734 90.7842 98.7311C94.8913 98.7194 98.9869 98.736 103.09 98.936C105.6 99.0567 108.113 99.0911 110.625 99.1406C111.152 99.1515 111.678 99.1624 112.205 99.1733C113.47 99.1995 114.735 99.225 116 99.25C116 99.3325 116 99.415 116 99.5C104.698 99.5 93.395 99.5 81.75 99.5C81.75 100.16 81.75 100.82 81.75 101.5C81.6675 101.5 81.585 101.5 81.5 101.5C81.5 100.592 81.5 99.685 81.5 98.75Z" fill="#6F7576"/>
<path d="M137.75 140.75C137.833 140.75 137.915 140.75 138 140.75C138 142.565 138 144.38 138 146.25C147.075 146.25 156.15 146.25 165.5 146.25C165.624 146.498 165.624 146.498 165.75 146.75C156.427 146.75 147.105 146.75 137.5 146.75C137.583 144.77 137.665 142.79 137.75 140.75Z" fill="#0E1418"/>
<path d="M138.5 56.5C138.583 56.5 138.665 56.5 138.75 56.5C138.895 61.2388 139.028 65.979 139.058 70.7201C139.061 71.1143 139.065 71.5085 139.071 71.9027C139.078 72.4521 139.081 73.0013 139.082 73.5508C139.084 73.8618 139.087 74.1729 139.089 74.4934C139 75.25 139 75.25 138.7 75.73C138.086 76.0983 137.685 76.0638 136.974 76.0186C136.728 76.0049 136.482 75.9912 136.229 75.9771C135.845 75.9497 135.845 75.9497 135.453 75.9219C135.194 75.9066 134.935 75.8913 134.668 75.8755C134.029 75.8372 133.389 75.7952 132.75 75.75C132.667 75.585 132.585 75.42 132.5 75.25C135.594 75.1262 135.594 75.1262 138.75 75C138.709 74.0822 138.668 73.1644 138.625 72.2188C138.416 66.9823 138.478 61.7395 138.5 56.5Z" fill="#390D0B"/>
<path d="M57 149.75C57.165 149.75 57.33 149.75 57.5 149.75C57.5 153.545 57.5 157.34 57.5 161.25C57.17 161.167 56.84 161.085 56.5 161C56.5293 159.438 56.5605 157.876 56.5931 156.314C56.6039 155.782 56.6144 155.25 56.6243 154.719C56.6387 153.956 56.6546 153.193 56.6709 152.431C56.6751 152.191 56.6793 151.952 56.6836 151.705C56.6885 151.485 56.6935 151.265 56.6987 151.038C56.7026 150.843 56.7064 150.648 56.7104 150.448C56.75 150 56.75 150 57 149.75Z" fill="#D1D3D3"/>
<path d="M29.25 130.25C38.16 130.333 47.07 130.415 56.25 130.5C56.25 130.583 56.25 130.665 56.25 130.75C42.885 130.874 42.885 130.874 29.25 131C29.25 130.752 29.25 130.505 29.25 130.25Z" fill="#F5F7F7"/>
<path d="M39.5 73C41.2325 73 42.965 73 44.75 73C44.75 73.2475 44.75 73.495 44.75 73.75C43.0175 73.75 41.285 73.75 39.5 73.75C39.5 73.5025 39.5 73.255 39.5 73Z" fill="#272A2A"/>
</g>
<defs>
<clipPath id="clip0_2115_2205">
<rect width="256" height="256" fill="white"/>
</clipPath>
</defs>
</svg>
