<svg width="256" height="256" viewBox="0 0 256 256" fill="none" xmlns="http://www.w3.org/2000/svg">
<g clip-path="url(#clip0_147_2)">
<path d="M162.358 73H257V182H162.358V73Z" fill="black"/>
<path d="M0 182V78.4618H26.039L27.0034 103.381L24.3033 102.221C25.7177 96.6843 27.8391 91.9835 30.6684 88.1202C33.6255 84.2569 37.1618 81.2949 41.2769 79.2343C45.3914 77.1742 49.8921 76.1439 54.7785 76.1439C63.3938 76.1439 70.3377 78.6552 75.6097 83.6773C81.0105 88.6998 84.4824 95.4606 86.0251 103.96L82.3606 104.153C83.518 98.1008 85.5112 93.0138 88.3401 88.8931C91.2976 84.6431 94.8978 81.4883 99.1411 79.4277C103.385 77.2387 108.143 76.1439 113.415 76.1439C120.615 76.1439 126.788 77.6249 131.931 80.5869C137.075 83.5488 141.061 87.9913 143.89 93.9152C146.719 99.7102 148.133 106.858 148.133 115.357V182H119.201V123.47C119.201 115.357 117.98 109.305 115.536 105.312C113.093 101.191 109.107 99.1311 103.577 99.1311C100.106 99.1311 97.1484 100.097 94.7052 102.029C92.262 103.96 90.3332 106.793 88.9188 110.528C87.6326 114.134 86.9895 118.577 86.9895 123.857V182H60.9506V123.857C60.9506 115.872 59.7936 109.755 57.4787 105.505C55.1642 101.256 51.1779 99.1311 45.5202 99.1311C42.0482 99.1311 39.0263 100.097 36.4548 102.029C34.0117 103.96 32.1472 106.793 30.861 110.528C29.5753 114.262 28.9322 118.705 28.9322 123.857V182H0Z" fill="black"/>
</g>
<defs>
<clipPath id="clip0_147_2">
<rect width="256" height="256" fill="white"/>
</clipPath>
</defs>
</svg>
