<?xml version="1.0" encoding="UTF-8"?>
<svg version="1.1" xmlns="http://www.w3.org/2000/svg" width="1024" height="1024">
<path d="M0 0 C337.92 0 675.84 0 1024 0 C1024 337.92 1024 675.84 1024 1024 C686.08 1024 348.16 1024 0 1024 C0 686.08 0 348.16 0 0 Z " fill="#020708" transform="translate(0,0)"/>
<path d="M0 0 C40.22460379 0 80.4466421 0.00304941 120.67057991 0.15463066 C125.95372492 0.17442425 131.23687063 0.19398844 136.52001762 0.21324348 C147.77834068 0.25435249 159.03666181 0.29592484 170.29497623 0.33933926 C170.99953161 0.34205531 171.70408698 0.34477135 172.42999252 0.34756971 C173.13533008 0.3502892 173.84066764 0.35300869 174.56737906 0.35581058 C175.99454502 0.36131272 177.42171098 0.36681401 178.84887695 0.37231445 C179.55666117 0.37504276 180.26444539 0.37777106 180.99367761 0.38058204 C192.50410753 0.42485496 204.01454726 0.46550406 215.52499563 0.50465261 C227.56090905 0.54564378 239.59680781 0.58979401 251.63269895 0.63687855 C258.30394122 0.66290814 264.97518119 0.68769341 271.64644051 0.70907402 C277.91414179 0.72924498 284.18181589 0.75352717 290.4494915 0.78049088 C292.69376491 0.78952735 294.93804399 0.79730645 297.18232727 0.80341911 C322.46351662 0.87417207 347.71815265 1.5042775 373 2 C373 96.05 373 190.1 373 287 C249.91 287 126.82 287 0 287 C0 192.29 0 97.58 0 0 Z " fill="#999F9E" transform="translate(326,395)"/>
<path d="M0 0 C37.29 0 74.58 0 113 0 C113 46.86 113 93.72 113 142 C75.71 142 38.42 142 0 142 C0 95.14 0 48.28 0 0 Z " fill="#181E23" transform="translate(550,445)"/>
<path d="M0 0 C37.29 0 74.58 0 113 0 C113 46.53 113 93.06 113 141 C95.613125 141.0309375 95.613125 141.0309375 77.875 141.0625 C74.3054248 141.071604 70.73584961 141.08070801 67.05810547 141.09008789 C62.46899414 141.09460449 62.46899414 141.09460449 60.27615356 141.09544373 C58.84198693 141.09691347 57.40782093 141.10027703 55.97366333 141.10557556 C37.3007381 141.17069509 18.67741441 140.49151091 0 140 C0 93.8 0 47.6 0 0 Z " fill="#181E23" transform="translate(362,446)"/>
<path d="M0 0 C0 14.52 0 29.04 0 44 C-118.14 44 -236.28 44 -358 44 C-359.71802382 40.56395235 -359.1196618 36.61561104 -359.09765625 32.8359375 C-359.0962413 31.92872955 -359.09482635 31.02152161 -359.09336853 30.08682251 C-359.08776096 27.18284845 -359.07520718 24.27895085 -359.0625 21.375 C-359.05748598 19.40885528 -359.0529229 17.44270935 -359.04882812 15.4765625 C-359.03778906 10.6510121 -359.02051935 5.82551903 -359 1 C-319.04215869 0.87185681 -279.08431526 0.74439427 -239.12646896 0.61781773 C-234.3862332 0.60280127 -229.64599745 0.58777929 -224.90576172 0.57275391 C-223.49049118 0.56826798 -223.49049118 0.56826798 -222.04662931 0.56369144 C-206.8611473 0.51554559 -191.67566674 0.46695532 -176.49018669 0.41819459 C-160.85514345 0.36800044 -145.22009869 0.3182983 -129.58505249 0.26903296 C-120.82560112 0.24141872 -112.06615054 0.21359008 -103.30670166 0.18519592 C-68.87102254 0.07367311 -34.43592726 -0.03058253 0 0 Z " fill="#FEFEFE" transform="translate(692,838)"/>
<path d="M0 0 C117.15 0 234.3 0 355 0 C355 13.86 355 27.72 355 42 C237.85 42 120.7 42 0 42 C0 28.14 0 14.28 0 0 Z " fill="#FEFEFE" transform="translate(334,135)"/>
<path d="M0 0 C11.88 0 23.76 0 36 0 C36 19.8 36 39.6 36 60 C91.44 60 146.88 60 204 60 C204 71.55 204 83.1 204 95 C168.85263573 95.02994071 133.70661685 94.95253395 98.55956407 94.80645666 C91.61749391 94.77764681 84.67541903 94.75005412 77.7333438 94.72249681 C65.36625264 94.67337442 52.99916523 94.62336685 40.63208008 94.57275391 C28.66105336 94.52376386 16.69002497 94.47522104 4.71899414 94.42724609 C3.97369616 94.4242591 3.22839818 94.4212721 2.46051542 94.41819459 C-1.2806363 94.4032035 -5.02178805 94.38822085 -8.76293981 94.37324238 C-39.50863188 94.25013489 -70.25431782 94.12555501 -101 94 C-101 93.67 -101 93.34 -101 93 C-134.66 92.505 -134.66 92.505 -169 92 C-169 81.44 -169 70.88 -169 60 C-113.23 60 -57.46 60 0 60 C0 40.2 0 20.4 0 0 Z " fill="#191F24" transform="translate(495,302)"/>
<path d="M0 0 C62.7 0 125.4 0 190 0 C190 11.88 190 23.76 190 36 C127.3 36 64.6 36 0 36 C0 24.12 0 12.24 0 0 Z " fill="#474B51" transform="translate(418,786)"/>
<path d="M0 0 C49.5 0 99 0 150 0 C150 14.52 150 29.04 150 44 C100.5 44 51 44 0 44 C0 29.48 0 14.96 0 0 Z " fill="#FDFEFE" transform="translate(200,239)"/>
<path d="M0 0 C48.18 0 96.36 0 146 0 C146 14.52 146 29.04 146 44 C131.979151 44.02742613 117.95836252 44.05097148 103.9375 44.0625 C102.90375118 44.06335602 101.87000237 44.06421204 100.80492783 44.06509399 C67.19004349 44.08969196 33.60574878 43.83234053 0 43 C0 28.81 0 14.62 0 0 Z " fill="#FEFEFE" transform="translate(677,239)"/>
<path d="M0 0 C51.48 0 102.96 0 156 0 C156 13.53 156 27.06 156 41 C104.52 41 53.04 41 0 41 C0 27.47 0 13.94 0 0 Z " fill="#FEFEFE" transform="translate(259,188)"/>
<path d="M0 0 C1.28729507 -0.00281982 2.57459015 -0.00563965 3.90089417 -0.00854492 C5.34078993 -0.00660032 6.78068557 -0.00455213 8.22058105 -0.00241089 C9.72647647 -0.00376487 11.23237154 -0.00554479 12.73826599 -0.00772095 C16.839391 -0.01229564 20.94049097 -0.01050558 25.04161644 -0.00734186 C29.32396896 -0.00481844 33.60631927 -0.00715575 37.88867188 -0.00872803 C45.08150621 -0.01054978 52.2743303 -0.00814327 59.46716309 -0.00338745 C67.79516627 0.00205518 76.12314497 0.00029253 84.45114756 -0.00521386 C91.58828139 -0.00974483 98.72540783 -0.01039561 105.86254263 -0.00777519 C110.13098648 -0.00621233 114.39941881 -0.00601889 118.66786194 -0.00931168 C122.67984227 -0.01219017 126.69179089 -0.01021511 130.70376778 -0.00441742 C132.18045054 -0.0030897 133.65713595 -0.00348413 135.13381767 -0.00568008 C137.1412128 -0.0083911 139.14861372 -0.0043972 141.15600586 0 C142.28205986 0.00037703 143.40811386 0.00075405 144.56829071 0.0011425 C147.07800293 0.12698364 147.07800293 0.12698364 148.07800293 1.12698364 C148.07800293 14.32698364 148.07800293 27.52698364 148.07800293 41.12698364 C96.92800293 41.12698364 45.77800293 41.12698364 -6.92199707 41.12698364 C-6.92199707 0.00231762 -6.92199707 0.00231762 0 0 Z " fill="#FEFEFE" transform="translate(616.9219970703125,187.87301635742188)"/>
<path d="M0 0 C43.23 0 86.46 0 131 0 C131 15.84 131 31.68 131 48 C87.77 48 44.54 48 0 48 C0 32.16 0 16.32 0 0 Z " fill="#FEFEFE" transform="translate(128,353)"/>
<path d="M0 0 C67.815 0.495 67.815 0.495 137 1 C137 15.19 137 29.38 137 44 C136.34 44 135.68 44 135 44 C135 44.66 135 45.32 135 46 C90.45 46 45.9 46 0 46 C0 30.82 0 15.64 0 0 Z " fill="#FDFEFE" transform="translate(156,294)"/>
<path d="M0 0 C45.21 0 90.42 0 137 0 C137 14.19 137 28.38 137 43 C136.34 43 135.68 43 135 43 C135 43.66 135 44.32 135 45 C90.45 45 45.9 45 0 45 C0 30.15 0 15.3 0 0 Z " fill="#FBFCFC" transform="translate(732,295)"/>
<path d="M0 0 C43.23 0 86.46 0 131 0 C131 15.18 131 30.36 131 46 C98.474264 46.72107728 65.97062256 47.09604795 33.4375 47.0625 C32.60141457 47.06164398 31.76532913 47.06078796 30.90390778 47.05990601 C20.60257228 47.04857042 10.30132061 47.02553343 0 47 C0 31.49 0 15.98 0 0 Z " fill="#FEFEFE" transform="translate(765,354)"/>
<path d="M0 0 C26.73 0 53.46 0 81 0 C82.19877676 50.94801223 82.19877676 50.94801223 82 74 C77.05167364 74.80762419 72.35065215 75.12200785 67.32055664 75.11352539 C66.57629897 75.11364593 65.8320413 75.11376646 65.06523037 75.11389065 C62.68017418 75.11315027 60.29519828 75.10556237 57.91015625 75.09765625 C56.42801959 75.09618411 54.9458824 75.09516508 53.46374512 75.09460449 C47.99665543 75.08938309 42.52957691 75.07542183 37.0625 75.0625 C24.831875 75.041875 12.60125 75.02125 0 75 C0 50.25 0 25.5 0 0 Z " fill="#FB4740" transform="translate(473,226)"/>
<path d="M0 0 C36.96 0 73.92 0 112 0 C112.6261198 6.88731776 113.15084094 13.48218949 113.1328125 20.3515625 C113.13376923 21.17707611 113.13472595 22.00258972 113.13571167 22.8531189 C113.1363846 24.57216469 113.13459319 26.29121317 113.13037109 28.01025391 C113.12494037 30.65402778 113.13038111 33.29763707 113.13671875 35.94140625 C113.13605916 37.61979204 113.13478047 39.29817773 113.1328125 40.9765625 C113.13483673 41.76809723 113.13686096 42.55963196 113.13894653 43.37515259 C113.11499765 48.88500235 113.11499765 48.88500235 112 50 C110.54518505 50.0956161 109.08574514 50.12188351 107.62779236 50.12025452 C106.68403244 50.12162918 105.74027252 50.12300385 104.76791382 50.12442017 C103.72422638 50.12082489 102.68053894 50.11722961 101.60522461 50.11352539 C100.51267868 50.11367142 99.42013275 50.11381744 98.29447937 50.1139679 C94.66374767 50.11326822 91.03306654 50.10547329 87.40234375 50.09765625 C84.89270557 50.09579226 82.38306702 50.09436827 79.87342834 50.09336853 C73.93065407 50.08993348 67.98789616 50.08204273 62.04513031 50.07201904 C53.43224996 50.0578058 44.81936343 50.05254739 36.2064743 50.04621124 C24.13763437 50.03649856 12.06884226 50.01734306 0 50 C0 33.5 0 17 0 0 Z " fill="#FDFDFD" transform="translate(117,474)"/>
<path d="M0 0 C36.63 0 73.26 0 111 0 C111 48 111 48 110 50 C73.7 50 37.4 50 0 50 C0 33.5 0 17 0 0 Z " fill="#FEFEFE" transform="translate(795,474)"/>
<path d="M0 0 C54.12 0 108.24 0 164 0 C164 10.89 164 21.78 164 33 C109.88 33 55.76 33 0 33 C0 22.11 0 11.22 0 0 Z " fill="#181E23" transform="translate(431,622)"/>
<path d="M0 0 C14.58571527 -0.0225479 29.17141907 -0.04091327 43.75714779 -0.05181217 C50.52910421 -0.05697491 57.30104905 -0.06401718 64.07299805 -0.07543945 C70.60224426 -0.08644714 77.13148294 -0.09227625 83.66073799 -0.09487724 C86.15793612 -0.09673199 88.65513355 -0.10035354 91.15232658 -0.10573006 C94.63664069 -0.11293684 98.12090431 -0.1139911 101.60522461 -0.11352539 C102.64891205 -0.11712067 103.69259949 -0.12071594 104.76791382 -0.12442017 C105.71167374 -0.1230455 106.65543365 -0.12167084 107.62779236 -0.12025452 C108.45279708 -0.12117631 109.2778018 -0.1220981 110.12780666 -0.12304783 C112 0 112 0 113 1 C113 16.18 113 31.36 113 47 C75.71 47 38.42 47 0 47 C0 31.49 0 15.98 0 0 Z " fill="#FCFCFC" transform="translate(117,414)"/>
<path d="M0 0 C0 15.84 0 31.68 0 48 C-36.96 48 -73.92 48 -112 48 C-112 32.49 -112 16.98 -112 1 C-92.15950898 0.75043408 -92.15950898 0.75043408 -83.5078125 0.64453125 C-77.67218771 0.57308961 -71.83656856 0.50132395 -66.00097656 0.42724609 C-43.99861261 0.14838814 -22.0044946 -0.06103882 0 0 Z " fill="#FAFAFA" transform="translate(906,537)"/>
<path d="M0 0 C36.63 0 73.26 0 111 0 C111 15.51 111 31.02 111 47 C74.37 47 37.74 47 0 47 C0 31.49 0 15.98 0 0 Z " fill="#FBFCFC" transform="translate(118,538)"/>
<path d="M0 0 C36.3 0 72.6 0 110 0 C110 15.18 110 30.36 110 46 C86.98227311 46.96572558 64.03031552 47.12476904 40.99664307 47.06866455 C36.24190736 47.05823048 31.48716586 47.05382501 26.73242188 47.04882812 C17.48826669 47.03826689 8.24413623 47.02131845 -1 47 C-1.02529825 40.62793828 -1.04284496 34.25588946 -1.05493164 27.88378906 C-1.05996891 25.71483883 -1.06679891 23.545892 -1.07543945 21.37695312 C-1.08753151 18.26431437 -1.09323428 15.1517204 -1.09765625 12.0390625 C-1.10281754 11.065065 -1.10797882 10.0910675 -1.11329651 9.08755493 C-1.11337204 8.18677216 -1.11344757 7.28598938 -1.11352539 6.35791016 C-1.115746 5.56293121 -1.11796661 4.76795227 -1.12025452 3.94888306 C-1 2 -1 2 0 0 Z " fill="#FBFCFB" transform="translate(795,414)"/>
<path d="M0 0 C34.98 0 69.96 0 106 0 C106 15.84 106 31.68 106 48 C71.02 48 36.04 48 0 48 C0 32.16 0 16.32 0 0 Z " fill="#FBFCFC" transform="translate(154,658)"/>
<path d="M0 0 C34.32 0 68.64 0 104 0 C104 15.84 104 31.68 104 48 C69.35 48 34.7 48 -1 48 C-1 31.99652815 -0.6951464 15.9883671 0 0 Z " fill="#FBFBFB" transform="translate(765,658)"/>
<path d="M0 0 C10.56252046 -0.02735617 21.1249617 -0.05092969 31.6875 -0.0625 C32.46348038 -0.06335602 33.23946075 -0.06421204 34.03895569 -0.06509399 C57.71503621 -0.08818645 81.33439347 0.16962784 105 1 C105 16.18 105 31.36 105 47 C70.35 47 35.7 47 0 47 C0 31.49 0 15.98 0 0 Z " fill="#FCFDFD" transform="translate(125,598)"/>
<path d="M0 0 C34.32 0 68.64 0 104 0 C104 15.51 104 31.02 104 47 C69.68 47 35.36 47 0 47 C0 31.49 0 15.98 0 0 Z " fill="#FBFCFC" transform="translate(794,598)"/>
<path d="M0 0 C37.62 0 75.24 0 114 0 C114 12.54 114 25.08 114 38 C76.38 38 38.76 38 0 38 C0 25.46 0 12.92 0 0 Z " fill="#474B51" transform="translate(456,716)"/>
<path d="M0 0 C30.69 0 61.38 0 93 0 C93 15.18 93 30.36 93 46 C62.31 46 31.62 46 0 46 C0 30.82 0 15.64 0 0 Z " fill="#FCFDFD" transform="translate(732,719)"/>
<path d="M0 0 C30.69 0 61.38 0 93 0 C93 14.85 93 29.7 93 45 C62.31 45 31.62 45 0 45 C0 30.15 0 15.3 0 0 Z " fill="#FEFEFE" transform="translate(200,720)"/>
<path d="M0 0 C11.22 0 22.44 0 34 0 C34.6943434 30.12954393 35.09747148 60.23833134 35.0625 90.375 C35.06121597 91.48948643 35.06121597 91.48948643 35.05990601 92.62648773 C35.04860423 101.7510267 35.02558276 110.87548153 35 120 C23.45 120 11.9 120 0 120 C0 80.4 0 40.8 0 0 Z " fill="#474B50" transform="translate(258,470)"/>
<path d="M0 0 C30.36 0 60.72 0 92 0 C92 14.19 92 28.38 92 43 C61.64 43 31.28 43 0 43 C0 28.81 0 14.62 0 0 Z " fill="#FCFDFD" transform="translate(259,781)"/>
<path d="M0 0 C30.03 0 60.06 0 91 0 C91 14.19 91 28.38 91 43 C60.97 43 30.94 43 0 43 C0 28.81 0 14.62 0 0 Z " fill="#FCFDFD" transform="translate(674,781)"/>
<path d="M0 0 C16.5 0 33 0 50 0 C50 25.41 50 50.82 50 77 C33.5 77 17 77 0 77 C0 51.59 0 26.18 0 0 Z " fill="#2CCDD4" transform="translate(582,478)"/>
<path d="M0 0 C10.56 0 21.12 0 32 0 C32 39.27 32 78.54 32 119 C21.44 119 10.88 119 0 119 C0 79.73 0 40.46 0 0 Z " fill="#474B50" transform="translate(732,471)"/>
<path d="M0 0 C16.17 0 32.34 0 49 0 C49 25.41 49 50.82 49 77 C32.83 77 16.66 77 0 77 C0 51.59 0 26.18 0 0 Z " fill="#2DCCD2" transform="translate(394,478)"/>
<path d="M0 0 C15.84 0 31.68 0 48 0 C48 0.33 48 0.66 48 1 C32.49 1 16.98 1 1 1 C1 25.75 1 50.5 1 76 C28.06 75.67 55.12 75.34 83 75 C82.67 65.76 82.34 56.52 82 47 C81.93702338 38.74754429 81.90172306 30.50164687 81.9375 22.25 C81.94254243 20.16145945 81.94710032 18.07291767 81.95117188 15.984375 C81.96192066 10.98955155 81.97902162 5.99479052 82 1 C82.33 1 82.66 1 83 1 C83.57831229 19.95510799 84.11107346 38.91589618 84.23217773 57.88024902 C84.24403757 59.45720133 84.26110851 61.03412324 84.28344727 62.61096191 C84.31307026 64.8085447 84.32331211 67.00536665 84.328125 69.203125 C84.3374707 70.44739258 84.34681641 71.69166016 84.35644531 72.97363281 C84 76 84 76 82.73034668 77.68478394 C80.56608158 79.32981626 79.63802574 79.28920572 76.95800781 79.06982422 C75.71830231 78.98657394 75.71830231 78.98657394 74.45355225 78.90164185 C73.54591125 78.82839691 72.63827026 78.75515198 71.703125 78.6796875 C62.53186675 78.09888659 53.42327768 77.92843278 44.234375 78.0078125 C42.339151 78.0199881 42.339151 78.0199881 40.40563965 78.03240967 C35.17784805 78.06788344 29.95020985 78.1100683 24.72265625 78.17138672 C20.85162217 78.21602536 16.98061225 78.23702797 13.109375 78.2578125 C11.32536285 78.28574387 11.32536285 78.28574387 9.50531006 78.3142395 C7.87024506 78.31942093 7.87024506 78.31942093 6.20214844 78.32470703 C4.76279938 78.33922409 4.76279938 78.33922409 3.29437256 78.35403442 C2.15865814 78.17878738 2.15865814 78.17878738 1 78 C-1.11766624 74.82350064 -1.24885987 74.11349575 -1.23046875 70.48828125 C-1.22917969 69.52510986 -1.22789062 68.56193848 -1.2265625 67.56958008 C-1.21367187 66.49474365 -1.20078125 65.41990723 -1.1875 64.3125 C-1.18105469 63.18158936 -1.17460937 62.05067871 -1.16796875 60.88549805 C-1.00069226 40.5888483 -0.4546929 20.29067045 0 0 Z " fill="#4C0F0C" transform="translate(472,225)"/>
<path d="M0 0 C8.45159814 -0.02350035 16.90318192 -0.04110214 25.35480499 -0.05181217 C29.28212158 -0.05696064 33.20941531 -0.06390567 37.13671875 -0.07543945 C53.56520732 -0.12238185 69.94755695 -0.05605073 86.36132812 0.74389648 C96.40041688 1.22706882 106.45208983 1.36454744 116.5 1.5625 C118.60677558 1.60589009 120.71354645 1.64950917 122.8203125 1.69335938 C127.88015843 1.79819282 132.94005639 1.8999973 138 2 C138 2.33 138 2.66 138 3 C92.79 3 47.58 3 1 3 C1 5.64 1 8.28 1 11 C0.67 11 0.34 11 0 11 C0 7.37 0 3.74 0 0 Z " fill="#6F7576" transform="translate(326,395)"/>
<path d="M0 0 C0.33 0 0.66 0 1 0 C1 7.26 1 14.52 1 22 C37.3 22 73.6 22 111 22 C111.495 22.99 111.495 22.99 112 24 C74.71 24 37.42 24 -1 24 C-0.67 16.08 -0.34 8.16 0 0 Z " fill="#0E1418" transform="translate(551,563)"/>
<path d="M0 0 C0.33 0 0.66 0 1 0 C1.57831229 18.95510799 2.11107346 37.91589618 2.23217773 56.88024902 C2.24403757 58.45720133 2.26110851 60.03412324 2.28344727 61.61096191 C2.31307026 63.8085447 2.32331211 66.00536665 2.328125 68.203125 C2.3374707 69.44739258 2.34681641 70.69166016 2.35644531 71.97363281 C2 75 2 75 0.79858398 76.92016602 C-1.65515594 78.39334257 -3.26106965 78.2550765 -6.10546875 78.07421875 C-7.08837891 78.01943359 -8.07128906 77.96464844 -9.08398438 77.90820312 C-10.62022461 77.79895508 -10.62022461 77.79895508 -12.1875 77.6875 C-13.22326172 77.62626953 -14.25902344 77.56503906 -15.32617188 77.50195312 C-17.88531957 77.34864013 -20.44267045 77.1807893 -23 77 C-23.33 76.34 -23.66 75.68 -24 75 C-11.625 74.505 -11.625 74.505 1 74 C0.835 70.32875 0.67 66.6575 0.5 62.875 C-0.33621628 41.9290255 -0.08802477 20.95802133 0 0 Z " fill="#390D0B" transform="translate(554,226)"/>
<path d="M0 0 C0.66 0 1.32 0 2 0 C2 15.18 2 30.36 2 46 C0.68 45.67 -0.64 45.34 -2 45 C-1.88269497 38.75188831 -1.75785931 32.50396027 -1.62768555 26.25610352 C-1.58426577 24.12885993 -1.54259607 22.0015799 -1.50268555 19.87426758 C-1.44515293 16.82361849 -1.38141033 13.77315411 -1.31640625 10.72265625 C-1.29969376 9.76537125 -1.28298126 8.80808624 -1.26576233 7.8217926 C-1.24581711 6.94095505 -1.22587189 6.06011749 -1.20532227 5.15258789 C-1.18977798 4.37315323 -1.1742337 3.59371857 -1.15821838 2.79066467 C-1 1 -1 1 0 0 Z " fill="#D1D3D3" transform="translate(228,599)"/>
<path d="M0 0 C35.64 0.33 71.28 0.66 108 1 C108 1.33 108 1.66 108 2 C54.54 2.495 54.54 2.495 0 3 C0 2.01 0 1.02 0 0 Z " fill="#F5F7F7" transform="translate(117,521)"/>
<path d="M0 0 C6.93 0 13.86 0 21 0 C21 0.99 21 1.98 21 3 C14.07 3 7.14 3 0 3 C0 2.01 0 1.02 0 0 Z " fill="#272A2A" transform="translate(158,292)"/>
</svg>
