<svg width="256" height="256" viewBox="0 0 256 256" fill="none" xmlns="http://www.w3.org/2000/svg">
<rect width="256" height="256" fill="white"/>
<path d="M82.0625 186.875H80.1875L70.8125 177.5V175.625L85.1875 161.25H95.1875L96.5938 162.656V172.5L82.0625 186.875Z" fill="#32E6E2"/>
<path d="M70.8125 80.3125V78.4375L80.1875 69.0625H82.0625L96.4375 83.4375V93.4375L95.1875 94.6875H85.1875L70.8125 80.3125Z" fill="#32E6E2"/>
<path d="M153.781 156.562H140.031L138.781 155.312V123.281C138.781 117.5 136.594 113.125 129.719 112.969C126.125 112.812 122.063 112.969 117.844 113.125L117.219 113.75V155.312L116.125 156.406H102.375L101.125 155.312V100.469L102.219 99.375H133.156C145.188 99.375 154.875 109.062 154.875 121.094V155.312L153.781 156.562Z" fill="#32E6E2"/>
<path d="M83.9375 135.937H29.0937L28 134.844V121.094L29.0937 120H83.9375L85.0312 121.094V134.844L83.9375 135.937Z" fill="#32E6E2"/>
<path d="M226.906 135.937H172.062L170.969 134.844V121.094L172.062 120H226.906L228 121.094V134.844L226.906 135.937Z" fill="#32E6E2"/>
<path d="M120.031 82.1875V41.0937L121.125 40H134.875L135.969 41.0937V82.1875L135.031 83.4375H121.281L120.031 82.1875Z" fill="#32E6E2"/>
<path d="M120.031 214.844V173.594L121.125 172.5H134.875L135.969 173.594V214.688L134.875 215.781H121.125L120.031 214.844Z" fill="#32E6E2"/>
</svg>
