<svg width="256" height="256" viewBox="0 0 256 256" fill="none" xmlns="http://www.w3.org/2000/svg">
<path d="M0 47.9562C40.2359 50.6283 72.4755 82.9473 75.0049 123.222H121.993C119.382 56.9717 66.2234 3.71503 0 0.961426V47.9562Z" fill="#0DC09D"/>
<path d="M75.2701 133.94C72.5979 174.173 40.2767 206.41 0 208.94V255.924C66.254 253.313 119.514 200.158 122.268 133.94H75.2701Z" fill="#0DC09D"/>
<path d="M179.711 122.946C182.383 82.7127 214.704 50.4753 254.981 47.946V0.961426C188.727 3.57224 135.467 56.727 132.713 122.946H179.711Z" fill="#0DC09D"/>
<path d="M254.981 208.93C214.745 206.257 182.506 173.939 179.976 133.665H132.988C135.599 199.914 188.758 253.171 254.981 255.924V208.93Z" fill="#0DC09D"/>
</svg>
