<svg width="251" height="251" viewBox="0 0 251 251" fill="none" xmlns="http://www.w3.org/2000/svg">
<path d="M0 47.0195C39.45 49.6394 71.06 81.3272 73.54 120.815H119.61C117.05 55.8589 64.93 3.64245 0 0.942627V47.0195Z" fill="#0DC09D"/>
<path d="M73.8 131.324C71.18 170.771 39.49 202.379 0 204.859V250.926C64.96 248.366 117.18 196.249 119.88 131.324H73.8Z" fill="#0DC09D"/>
<path d="M176.201 120.545C178.821 81.0972 210.511 49.4894 250.001 47.0095V0.942627C185.041 3.50245 132.821 55.619 130.121 120.545H176.201Z" fill="#0DC09D"/>
<path d="M250.001 204.849C210.551 202.229 178.941 170.542 176.461 131.054H130.391C132.951 196.01 185.071 248.226 250.001 250.926V204.849Z" fill="#0DC09D"/>
</svg>
