<svg width="256" height="256" viewBox="0 0 256 256" fill="none" xmlns="http://www.w3.org/2000/svg">
<g clip-path="url(#clip0_2115_2254)">
<path fill-rule="evenodd" clip-rule="evenodd" d="M78.3875 131.09L140.74 239.082L112.085 239.351L95.4385 210.338L78.6731 239.196L64.4356 239.19L57.1436 226.594L81.0291 185.53L64.0734 156.028L78.3875 131.09Z" fill="url(#paint0_linear_2115_2254)"/>
<path fill-rule="evenodd" clip-rule="evenodd" d="M100.893 86.6058L38.5306 194.592L23.9704 169.915L40.7775 140.994L7.3987 140.906L0.284805 128.575L7.54909 115.963L55.0604 116.113L72.1357 86.6806L100.893 86.6058Z" fill="url(#paint1_linear_2115_2254)"/>
<path fill-rule="evenodd" clip-rule="evenodd" d="M105.678 172.929L230.393 172.935L216.298 197.882L182.845 197.789L199.458 226.735L192.334 239.06L177.778 239.076L154.152 197.862L120.121 197.793L105.678 172.929Z" fill="url(#paint2_linear_2115_2254)"/>
<path fill-rule="evenodd" clip-rule="evenodd" d="M178.266 125.612L115.913 17.6198L144.568 17.3511L161.215 46.3646L177.98 17.5061L192.218 17.5117L199.51 30.1079L175.624 71.1724L192.58 100.674L178.266 125.612Z" fill="url(#paint3_linear_2115_2254)"/>
<path fill-rule="evenodd" clip-rule="evenodd" d="M78.3875 131.09L140.74 239.082L112.085 239.351L95.4385 210.338L78.6731 239.196L64.4356 239.19L57.1436 226.594L81.0291 185.53L64.0734 156.028L78.3875 131.09Z" fill="url(#paint4_linear_2115_2254)"/>
<path fill-rule="evenodd" clip-rule="evenodd" d="M150.719 83.5248L26.0036 83.5187L40.0982 58.5725L73.5519 58.6652L56.9385 29.719L64.0621 17.3937L78.6184 17.3777L102.244 58.5921L136.275 58.6611L150.719 83.5248Z" fill="url(#paint5_linear_2115_2254)"/>
<path fill-rule="evenodd" clip-rule="evenodd" d="M155.619 170.079L217.982 62.0924L232.542 86.7698L215.735 115.691L249.114 115.778L256.228 128.109L248.964 140.721L201.452 140.571L184.377 170.004L155.619 170.079Z" fill="url(#paint6_linear_2115_2254)"/>
</g>
<defs>
<linearGradient id="paint0_linear_2115_2254" x1="58.8435" y1="134.482" x2="104.496" y2="213.452" gradientUnits="userSpaceOnUse">
<stop stop-color="#699AD7"/>
<stop offset="0.243452" stop-color="#7EB1DD"/>
<stop offset="1" stop-color="#7EBAE4"/>
</linearGradient>
<linearGradient id="paint1_linear_2115_2254" x1="88.1836" y1="71.3789" x2="42.6303" y2="150.407" gradientUnits="userSpaceOnUse">
<stop stop-color="#699AD7"/>
<stop offset="0.243452" stop-color="#7EB1DD"/>
<stop offset="1" stop-color="#7EBAE4"/>
</linearGradient>
<linearGradient id="paint2_linear_2115_2254" x1="98.8436" y1="191.548" x2="190.071" y2="191.491" gradientUnits="userSpaceOnUse">
<stop stop-color="#699AD7"/>
<stop offset="0.243452" stop-color="#7EB1DD"/>
<stop offset="1" stop-color="#7EBAE4"/>
</linearGradient>
<linearGradient id="paint3_linear_2115_2254" x1="197.81" y1="122.22" x2="152.157" y2="43.25" gradientUnits="userSpaceOnUse">
<stop stop-color="#699AD7"/>
<stop offset="0.243452" stop-color="#7EB1DD"/>
<stop offset="1" stop-color="#7EBAE4"/>
</linearGradient>
<linearGradient id="paint4_linear_2115_2254" x1="63.5632" y1="131.796" x2="108.406" y2="211.073" gradientUnits="userSpaceOnUse">
<stop stop-color="#415E9A"/>
<stop offset="0.231686" stop-color="#4A6BAF"/>
<stop offset="1" stop-color="#5277C3"/>
</linearGradient>
<linearGradient id="paint5_linear_2115_2254" x1="157.52" y1="70.3357" x2="66.4315" y2="69.5378" gradientUnits="userSpaceOnUse">
<stop stop-color="#415E9A"/>
<stop offset="0.231686" stop-color="#4A6BAF"/>
<stop offset="1" stop-color="#5277C3"/>
</linearGradient>
<linearGradient id="paint6_linear_2115_2254" x1="163.643" y1="182.562" x2="209.867" y2="104.082" gradientUnits="userSpaceOnUse">
<stop stop-color="#415E9A"/>
<stop offset="0.231686" stop-color="#4A6BAF"/>
<stop offset="1" stop-color="#5277C3"/>
</linearGradient>
<clipPath id="clip0_2115_2254">
<rect width="256" height="256" fill="white"/>
</clipPath>
</defs>
</svg>
