<svg width="256" height="256" viewBox="0 0 256 256" fill="none" xmlns="http://www.w3.org/2000/svg">
<path d="M127.037 206.001C126.195 206.001 125.36 205.779 124.622 205.352L116.934 200.776C115.785 200.131 116.346 199.902 116.725 199.771C118.256 199.232 118.566 199.11 120.2 198.177C120.372 198.079 120.597 198.114 120.773 198.218L126.679 201.741C126.892 201.857 127.195 201.857 127.393 201.741L150.421 188.378C150.635 188.257 150.773 188.007 150.773 187.752V161.038C150.773 160.771 150.635 160.534 150.417 160.401L127.397 147.049C127.184 146.922 126.902 146.922 126.688 147.049L103.673 160.401C103.45 160.528 103.308 160.777 103.308 161.032V187.747C103.308 188.002 103.447 188.245 103.666 188.367L109.972 192.029C113.396 193.75 115.489 191.722 115.489 189.682V163.315C115.489 162.939 115.783 162.649 116.157 162.649H119.074C119.437 162.649 119.737 162.939 119.737 163.315V189.694C119.737 194.283 117.247 196.92 112.918 196.92C111.586 196.92 110.537 196.92 107.609 195.471L101.568 191.971C100.075 191.102 99.1523 189.479 99.1523 187.747V161.032C99.1523 159.294 100.075 157.671 101.568 156.814L124.619 143.445C126.078 142.616 128.015 142.616 129.462 143.445L152.485 156.819C153.972 157.683 154.9 159.3 154.9 161.038V187.752C154.9 189.485 153.972 191.102 152.485 191.971L129.462 205.34C128.724 205.769 127.888 205.989 127.035 205.989" fill="#689F63"/>
<path d="M134.15 187.593C124.074 187.593 121.961 182.943 121.961 179.043C121.961 178.672 122.258 178.377 122.628 178.377H125.602C125.931 178.377 126.208 178.617 126.259 178.943C126.709 181.99 128.046 183.527 134.139 183.527C138.993 183.527 141.057 182.425 141.057 179.837C141.057 178.348 140.469 177.241 132.929 176.5C126.623 175.874 122.726 174.477 122.726 169.407C122.726 164.736 126.646 161.954 133.211 161.954C140.584 161.954 144.239 164.527 144.7 170.056C144.717 170.247 144.648 170.432 144.521 170.571C144.394 170.705 144.216 170.786 144.031 170.786H141.039C140.728 170.786 140.457 170.566 140.394 170.264C139.673 167.06 137.932 166.034 133.2 166.034C127.902 166.034 127.286 167.888 127.286 169.279C127.286 170.965 128.012 171.458 135.16 172.408C142.238 173.353 145.599 174.686 145.599 179.687C145.599 184.728 141.414 187.62 134.116 187.62M162.166 159.289H162.938C163.572 159.289 163.693 158.843 163.693 158.582C163.693 157.898 163.226 157.898 162.967 157.898H162.172L162.166 159.289ZM161.226 157.098H162.938C163.526 157.098 164.679 157.098 164.679 158.42C164.679 159.341 164.091 159.532 163.74 159.648C164.425 159.694 164.472 160.146 164.564 160.784C164.61 161.184 164.685 161.873 164.823 162.105H163.768C163.74 161.873 163.578 160.598 163.578 160.529C163.509 160.245 163.411 160.106 163.059 160.106H162.189V162.111H161.226V157.098ZM159.168 159.59C159.168 161.665 160.834 163.345 162.881 163.345C164.944 163.345 166.61 161.63 166.61 159.59C166.61 157.51 164.921 155.858 162.875 155.858C160.857 155.858 159.163 157.487 159.163 159.584M167.325 159.602C167.325 162.059 165.325 164.064 162.886 164.064C160.465 164.064 158.448 162.082 158.448 159.602C158.448 157.075 160.511 155.14 162.886 155.14C165.279 155.14 167.319 157.081 167.319 159.602" fill="#689F63"/>
<path fill-rule="evenodd" clip-rule="evenodd" d="M55.7248 101.472C55.7248 100.406 55.1657 99.4269 54.2503 98.8967L29.8346 84.7745C29.4225 84.5312 28.9608 84.4037 28.4927 84.3863H28.2402C27.7721 84.4037 27.3104 84.5312 26.8913 84.7745L2.47684 98.8967C1.56722 99.4298 1 100.409 1 101.475L1.05361 139.513C1.05361 140.04 1.32454 140.533 1.78569 140.794C2.23531 141.072 2.80022 141.072 3.24984 140.794L17.7646 132.437C18.6811 131.889 19.2403 130.92 19.2403 129.864V112.094C19.2403 111.034 19.7994 110.055 20.7131 109.527L26.8925 105.95C27.3513 105.683 27.8551 105.551 28.3682 105.551C28.8731 105.551 29.3885 105.682 29.8346 105.949L36.0112 109.526C36.9254 110.053 37.4869 111.032 37.4869 112.093V129.862C37.4869 130.916 38.0535 131.89 38.9654 132.434L53.4709 140.785C53.9263 141.057 54.493 141.057 54.9466 140.785C55.3939 140.524 55.6776 140.032 55.6776 139.504L55.7248 101.472ZM170.937 121.277C170.937 121.542 170.796 121.787 170.568 121.918L162.182 126.778C161.954 126.909 161.673 126.909 161.445 126.778L153.058 121.918C152.828 121.786 152.689 121.541 152.689 121.277V111.544C152.689 111.279 152.828 111.034 153.053 110.901L161.434 106.033C161.665 105.9 161.947 105.9 162.178 106.033L170.565 110.901C170.795 111.034 170.934 111.279 170.934 111.544L170.937 121.277ZM173.202 49.1876C172.744 48.9315 172.187 48.9384 171.735 49.2033C171.286 49.4698 171.008 49.9566 171.008 50.4839V88.1506C171.008 88.5215 170.812 88.8634 170.493 89.0488C170.176 89.2343 169.781 89.2343 169.461 89.0488L163.345 85.5076C162.434 84.9779 161.312 84.9779 160.398 85.5076L135.974 99.6778C135.062 100.205 134.499 101.184 134.499 102.239V130.588C134.499 131.648 135.062 132.622 135.974 133.155L160.398 147.335C161.31 147.862 162.433 147.862 163.348 147.335L187.771 133.149C188.682 132.616 189.247 131.642 189.247 130.582V59.9307C189.247 58.8552 188.665 57.866 187.731 57.3404L173.202 49.1876ZM254.533 111.288C255.441 110.758 255.999 109.78 255.999 108.725V101.855C255.999 100.798 255.44 99.8227 254.531 99.2907L230.263 85.128C229.347 84.5949 228.222 84.5949 227.306 85.128L202.888 99.2965C201.971 99.8296 201.412 100.803 201.412 101.864V130.201C201.412 131.267 201.983 132.252 202.9 132.779L227.162 146.681C228.055 147.197 229.151 147.203 230.056 146.699L244.732 138.499C245.193 138.238 245.487 137.746 245.487 137.212C245.487 136.679 245.204 136.181 244.743 135.92L220.175 121.746C219.714 121.485 219.432 120.993 219.432 120.465V111.576C219.432 111.045 219.708 110.556 220.17 110.292L227.813 105.859C228.269 105.592 228.828 105.592 229.283 105.859L236.932 110.292C237.388 110.552 237.67 111.045 237.67 111.572V118.561C237.67 119.088 237.953 119.581 238.408 119.847C238.864 120.108 239.428 120.108 239.884 119.842L254.533 111.288Z" fill="#333333"/>
<path fill-rule="evenodd" clip-rule="evenodd" d="M228.427 109.962C228.6 109.859 228.817 109.859 228.992 109.962L233.678 112.679C233.853 112.781 233.961 112.969 233.961 113.172V118.613C233.961 118.816 233.853 119.004 233.678 119.106L228.992 121.824C228.817 121.926 228.6 121.926 228.427 121.824L223.743 119.106C223.565 119.004 223.455 118.816 223.455 118.613V113.172C223.455 112.969 223.559 112.781 223.738 112.679L228.427 109.962Z" fill="#689F63"/>
<mask id="mask0_2115_2262" style="mask-type:luminance" maskUnits="userSpaceOnUse" x="67" y="84" width="56" height="64">
<path d="M93.6475 85.27L69.3621 99.3614C68.4525 99.8888 67.8945 100.862 67.8945 101.915V130.117C67.8945 131.17 68.4525 132.143 69.3621 132.67L93.6493 146.773C94.5571 147.298 95.6766 147.298 96.5833 146.773L120.866 132.67C121.771 132.143 122.331 131.17 122.331 130.117V101.915C122.331 100.862 121.771 99.8888 120.861 99.3614L96.581 85.27C96.1256 85.0075 95.6184 84.876 95.1111 84.876C94.6038 84.876 94.0966 85.0075 93.6412 85.27" fill="white"/>
</mask>
<g mask="url(#mask0_2115_2262)">
<path d="M146.871 96.9684L78.4394 63.248L43.3516 135.205L111.782 168.927L146.871 96.9684Z" fill="url(#paint0_linear_2115_2262)"/>
</g>
<mask id="mask1_2115_2262" style="mask-type:luminance" maskUnits="userSpaceOnUse" x="68" y="84" width="54" height="64">
<path d="M68.4961 131.907C68.7284 132.21 69.0189 132.473 69.3608 132.67L90.1933 144.767L93.6634 146.772C94.1822 147.073 94.7737 147.201 95.3547 147.157C95.5484 147.141 95.7421 147.105 95.9311 147.051L121.545 99.904C121.349 99.6896 121.119 99.5099 120.862 99.3593L104.96 90.128L96.5548 85.2661C96.3162 85.127 96.0574 85.0285 95.7939 84.959L68.4961 131.907Z" fill="white"/>
</mask>
<g mask="url(#mask1_2115_2262)">
<path d="M38.9082 106.942L87.2282 172.687L151.132 125.223L102.809 59.4805L38.9082 106.942Z" fill="url(#paint1_linear_2115_2262)"/>
</g>
<mask id="mask2_2115_2262" style="mask-type:luminance" maskUnits="userSpaceOnUse" x="69" y="84" width="54" height="64">
<path d="M94.8209 84.8919C94.4134 84.9324 94.015 85.0599 93.6479 85.2697L69.4316 99.3205L95.5443 147.134C95.9075 147.082 96.2649 146.96 96.5877 146.772L120.873 132.67C121.622 132.233 122.135 131.494 122.291 130.656L95.6712 84.94C95.4752 84.9011 95.2792 84.8809 95.0774 84.8809C94.9967 84.8809 94.916 84.8849 94.8353 84.8924" fill="white"/>
</mask>
<g mask="url(#mask2_2115_2262)">
<path d="M69.4316 84.8809V147.135H122.281V84.8809H69.4316Z" fill="url(#paint2_linear_2115_2262)"/>
</g>
<defs>
<linearGradient id="paint0_linear_2115_2262" x1="112.635" y1="80.0552" x2="77.25" y2="151.86" gradientUnits="userSpaceOnUse">
<stop offset="0.3" stop-color="#3E863D"/>
<stop offset="0.5" stop-color="#55934F"/>
<stop offset="0.8" stop-color="#5AAD45"/>
</linearGradient>
<linearGradient id="paint1_linear_2115_2262" x1="63.3578" y1="140.191" x2="127.502" y2="93.0457" gradientUnits="userSpaceOnUse">
<stop offset="0.57" stop-color="#3E863D"/>
<stop offset="0.72" stop-color="#619857"/>
<stop offset="1" stop-color="#76AC64"/>
</linearGradient>
<linearGradient id="paint2_linear_2115_2262" x1="69.4495" y1="116.01" x2="122.291" y2="116.01" gradientUnits="userSpaceOnUse">
<stop offset="0.16" stop-color="#6BBF47"/>
<stop offset="0.38" stop-color="#79B461"/>
<stop offset="0.47" stop-color="#75AC64"/>
<stop offset="0.7" stop-color="#659E5A"/>
<stop offset="0.9" stop-color="#3E863D"/>
</linearGradient>
</defs>
</svg>
