<svg width="256" height="256" viewBox="0 0 256 256" fill="none" xmlns="http://www.w3.org/2000/svg">
<g clip-path="url(#clip0_2115_2295)">
<path d="M213.333 0H42.6666C19.1025 0 0 19.1023 0 42.6663V213.333C0 236.897 19.1025 256 42.6666 256H213.333C236.898 256 256 236.897 256 213.333V42.6663C256 19.1023 236.898 0 213.333 0Z" fill="#494949"/>
<path d="M42.6667 0C19.0294 0 0 19.0293 0 42.6667V213.333C0 236.97 19.0294 256 42.6667 256H106.667C189.397 256 256 165.611 256 53.3333V42.6667C256 19.0293 236.971 0 213.333 0H42.6667Z" fill="#313131"/>
<path d="M66.5969 66.6667C69.5533 66.6667 72.0688 67.7978 74.1435 70.0597C76.27 72.2666 77.3483 74.9423 77.3332 78.0873V114.666H66.6666V77.9125C66.6666 77.5285 66.485 77.3334 66.122 77.3334H40.5445C40.1814 77.3334 39.9999 77.5264 39.9999 77.9125V114.666H29.3333V66.6667H66.5969Z" fill="black"/>
<path d="M93.403 66.6668H119.93C122.887 66.6668 125.402 67.7978 127.477 70.0597C129.603 72.2666 130.667 74.9423 130.667 78.0873V103.246C130.667 106.391 129.603 109.095 127.477 111.357C125.402 113.563 122.887 114.666 119.93 114.666H93.403C90.4466 114.666 87.9051 113.563 85.7786 111.357C83.7039 109.095 82.6666 106.391 82.6666 103.246V78.0873C82.6666 74.9423 83.7039 72.2666 85.7786 70.0597C87.9051 67.7978 90.4466 66.6668 93.403 66.6668ZM119.455 77.3334H93.8778C93.5148 77.3334 93.3333 77.5253 93.3333 77.9125V103.421C93.3333 103.805 93.5148 104 93.8778 104H119.455C119.818 104 120 103.808 120 103.421V77.9125C120 77.5285 119.818 77.3334 119.455 77.3334Z" fill="black"/>
<path d="M66.6666 176.296L92.0965 130.666H104L71.9999 189.333H61.3333L29.3333 130.666H41.2366L66.6666 176.296Z" fill="black"/>
<path d="M157.333 173.333V130.666H168V189.333H157.333L120 146.666V189.333H109.333V130.666H120L157.333 173.333Z" fill="black"/>
<path d="M232 141.333H184.545C184.181 141.333 184 141.525 184 141.903V178.097C184 178.475 184.181 178.666 184.545 178.666H232V189.333H184.147C181.139 189.333 178.572 188.247 176.445 186.074C174.371 183.847 173.333 181.158 173.333 178.007V141.992C173.333 138.842 174.371 136.18 176.445 134.007C178.572 131.78 181.139 130.666 184.147 130.666H232V141.333Z" fill="black"/>
<path d="M63.9304 64C66.8868 64 69.4023 65.131 71.4769 67.3929C73.6035 69.5998 74.6818 72.2755 74.6667 75.4206V112H64.0001V75.2458C64.0001 74.8618 63.8185 74.6667 63.4555 74.6667H37.878C37.5149 74.6667 37.3334 74.8596 37.3334 75.2458V112H26.6667V64H63.9304Z" fill="#008000"/>
<path d="M90.7365 64H117.264C120.22 64 122.736 65.131 124.81 67.3929C126.937 69.5998 128 72.2755 128 75.4206V100.579C128 103.724 126.937 106.428 124.81 108.69C122.736 110.897 120.22 112 117.264 112H90.7365C87.7801 112 85.2386 110.897 83.1121 108.69C81.0374 106.428 80.0001 103.724 80.0001 100.579V75.4206C80.0001 72.2755 81.0374 69.5998 83.1121 67.3929C85.2386 65.131 87.7801 64 90.7365 64ZM116.789 74.6667H91.2113C90.8482 74.6667 90.6667 74.8586 90.6667 75.2458V100.754C90.6667 101.138 90.8483 101.333 91.2113 101.333H116.789C117.152 101.333 117.333 101.141 117.333 100.754V75.2458C117.333 74.8618 117.152 74.6667 116.789 74.6667Z" fill="#008000"/>
<path d="M64.0001 173.63L89.43 128H101.333L69.3334 186.666H58.6667L26.6667 128H38.5701L64.0001 173.63Z" fill="#FFFF00"/>
<path d="M154.667 170.666V128H165.333V186.666H154.667L117.333 144V186.666H106.667V128H117.333L154.667 170.666Z" fill="#FFFF00"/>
<path d="M229.333 138.666H181.878C181.515 138.666 181.333 138.859 181.333 139.237V175.43C181.333 175.809 181.515 176 181.878 176H229.333V186.666H181.481C178.473 186.666 175.905 185.58 173.779 183.407C171.704 181.18 170.667 178.491 170.667 175.341V139.326C170.667 136.176 171.704 133.514 173.779 131.341C175.905 129.114 178.473 128 181.481 128H229.333V138.666Z" fill="#FFFF00"/>
</g>
<defs>
<clipPath id="clip0_2115_2295">
<rect width="256" height="256" fill="white"/>
</clipPath>
</defs>
</svg>
