<svg width="256" height="256" viewBox="0 0 256 256" fill="none" xmlns="http://www.w3.org/2000/svg">
<g clip-path="url(#clip0_2115_2315)">
<path fill-rule="evenodd" clip-rule="evenodd" d="M140.597 1.6254L135.314 66.6413C132.876 66.2349 130.438 66.2349 127.594 66.2349C124.343 66.2349 121.092 66.6413 118.248 67.0476L115.403 35.7587C115.403 34.946 116.216 33.727 117.029 33.727H122.311L119.873 2.03175C119.873 1.21905 120.686 0 121.498 0H138.971C140.19 0 141.003 0.812698 140.597 1.6254ZM96.7111 4.87619C96.3048 4.06349 95.4921 3.25079 94.6794 3.65714L78.4254 9.75238C77.2064 10.1587 76.8 11.3778 77.2064 12.1905L90.6159 41.0413L85.7397 43.073C84.927 43.4794 84.5206 44.2921 84.927 45.5111L98.3365 73.9556C103.213 71.1111 108.495 69.0794 114.184 67.8603L96.7111 4.87619ZM56.8889 23.1619L94.6794 76.3936C89.8032 79.6444 85.7397 83.3016 82.0825 87.3651L58.9206 65.0159C58.1079 64.2032 58.1079 62.9841 58.9206 62.5778L62.9841 59.327L40.6349 36.5714C39.8222 35.7587 39.8222 34.5397 40.6349 34.1333L54.0444 23.1619C54.8571 21.9429 56.0762 22.3492 56.8889 23.1619ZM25.1937 53.6381C24.381 53.2317 23.1619 53.2317 22.7556 54.0444L14.2222 69.0794C13.8159 69.8921 14.2222 71.1111 15.0349 71.5175L43.8857 85.3333L41.0413 89.8032C40.6349 90.6159 41.0413 91.8349 41.854 92.2413L70.7048 105.244C72.7365 99.9619 75.581 95.0857 78.8317 90.6159L25.1937 53.6381ZM3.65714 94.6794C3.65714 93.8667 4.87619 93.054 5.68889 93.4603L68.673 109.714C67.0476 114.997 66.2349 120.686 65.8286 126.375L34.1333 123.937C33.3206 123.937 32.5079 123.124 32.5079 121.905L33.3206 116.622L2.4381 113.778C1.6254 113.778 0.812698 112.965 0.812698 111.746L3.65714 94.6794ZM1.6254 137.346C0.406349 137.346 0 138.159 0 139.378L3.25079 156.444C3.25079 157.257 4.46984 158.07 5.28254 157.663L36.1651 149.536L36.9778 154.819C36.9778 155.632 38.1968 156.444 39.0095 156.038L69.4857 147.505C67.8603 142.222 66.6413 136.533 66.2349 130.844L1.6254 137.346ZM11.7841 182.451C11.3778 181.638 11.7841 180.419 12.5968 180.013L71.5175 151.975C73.5492 157.257 76.8 162.133 80.4571 166.603L54.8571 184.889C54.0444 185.295 52.8254 185.295 52.419 184.483L48.7619 180.013L22.3492 198.298C21.5365 198.705 20.3175 198.705 19.9111 197.892L11.7841 182.451ZM82.8952 170.26L36.9778 216.584C36.1651 217.397 36.1651 218.616 36.9778 219.022L50.3873 229.994C51.2 230.806 52.4191 230.4 52.8254 229.587L71.5175 203.581L75.581 207.238C76.3937 208.051 77.6127 207.644 78.0191 206.832L95.8984 180.825C91.0222 177.981 86.5524 174.324 82.8952 170.26ZM73.9556 244.216C73.1429 243.81 72.7365 242.997 73.1429 241.778L99.9619 182.857C104.838 185.295 110.527 187.327 115.81 188.546L107.683 219.022C107.276 219.835 106.463 220.648 105.651 220.241L100.775 218.21L92.2413 249.092C91.8349 249.905 91.0222 250.717 90.2095 250.311L73.9556 244.216ZM120.279 189.359L114.997 254.375C114.997 255.187 115.81 256.406 116.622 256.406H134.095C134.908 256.406 135.721 255.594 135.721 254.375L133.283 222.679H138.565C139.378 222.679 140.19 221.867 140.19 220.648L137.346 189.359C134.095 189.765 131.251 190.171 128 190.171C125.562 189.765 122.717 189.765 120.279 189.359ZM183.263 13.8159C183.67 13.0032 183.264 11.7841 182.451 11.3778L166.197 5.28254C165.384 4.87619 164.165 5.68889 164.165 6.50159L155.632 37.3841L150.756 35.3524C149.943 34.946 148.724 35.7587 148.724 36.5714L140.597 67.0476C146.286 68.2667 151.568 70.2984 156.444 72.7365L183.263 13.8159ZM219.022 39.4159L173.105 85.7397C169.448 81.6762 164.978 78.019 160.102 75.1746L177.981 49.1683C178.387 48.3556 179.606 48.3556 180.419 48.7619L184.483 52.419L203.175 26.4127C203.581 25.6 204.8 25.6 205.613 26.0063L219.022 36.9778C219.429 37.7905 219.429 39.0095 219.022 39.4159ZM243.403 75.9873C244.216 75.581 244.622 74.3619 244.216 73.5492L235.683 58.5143C235.276 57.7016 234.057 57.2952 233.244 58.1079L206.832 76.3936L203.987 71.9238C203.581 71.1111 202.362 70.7048 201.549 71.5175L175.949 89.3968C179.606 93.8667 182.451 98.7429 184.889 104.025L243.403 75.9873ZM252.749 99.5555L255.594 116.622C255.594 117.435 255.187 118.654 253.968 118.654L189.359 124.749C188.952 119.06 187.733 113.371 186.108 108.089L216.584 99.5555C217.397 99.1492 218.616 99.9619 218.616 100.775L219.429 106.057L250.311 97.9302C251.53 97.9302 252.343 98.7429 252.749 99.5555ZM249.905 162.54C250.717 162.946 251.937 162.133 251.937 161.321L254.781 144.254C254.781 143.441 254.375 142.222 253.156 142.222L221.46 139.378L222.273 134.095C222.273 133.283 221.867 132.063 220.648 132.063L188.952 129.625C188.952 135.314 187.733 141.003 186.108 146.286L249.905 162.54ZM233.244 201.549C232.838 202.362 231.619 202.768 230.806 201.956L177.168 164.978C180.419 160.508 183.263 155.632 185.295 150.349L214.146 163.352C214.959 163.759 215.365 164.978 214.959 165.79L212.114 170.667L240.965 184.483C241.778 184.889 242.184 186.108 241.778 186.921L233.244 201.549ZM161.321 179.606L199.111 232.838C199.517 233.651 200.737 233.651 201.549 233.244L214.959 222.273C215.771 221.46 215.771 220.648 214.959 219.835L192.61 197.079L196.673 193.829C197.486 193.016 197.486 192.203 196.673 191.39L174.324 169.041C170.667 173.105 166.197 176.762 161.321 179.606ZM161.321 251.936C160.508 252.343 159.289 251.53 159.289 250.717L142.222 188.14C147.911 186.921 153.194 184.889 158.07 182.044L171.479 210.489C171.886 211.302 171.479 212.521 170.667 212.927L165.79 214.959L179.2 243.81C179.606 244.622 179.2 245.841 178.387 246.248L161.321 251.936Z" fill="white"/>
</g>
<defs>
<clipPath id="clip0_2115_2315">
<rect width="256" height="256" fill="white"/>
</clipPath>
</defs>
</svg>
