<svg width="256" height="256" viewBox="0 0 256 256" fill="none" xmlns="http://www.w3.org/2000/svg">
<path d="M52.0785 143.66L51.9437 143.564C50.0697 142.209 47.1412 139.497 45.36 137.824C36.5782 129.572 25.2327 120.039 22.7114 107.713C21.0316 99.5012 26.817 93.046 34.73 91.8417C43.0847 90.5702 50.0967 94.0482 57.9142 96.223C66.672 98.6592 78.381 101.139 87.114 97.5307C96.6675 93.5835 99.5285 78.7585 102.057 69.6582C103.124 65.9325 104.222 62.2155 105.35 58.508C108.639 47.4165 114.437 27.1657 127.878 24.712C134.426 23.817 138.701 27.6357 142.167 32.5577C145.875 37.8215 146.966 42.5607 149.094 48.34C153.608 60.5987 155.06 78.18 161.825 89.1755C163.052 91.1772 164.653 92.9237 166.54 94.3195C175.268 100.704 190.654 96.7077 199.895 93.151C202.6 92.1032 205.277 90.9835 207.921 89.793C214.347 86.8857 222.323 82.657 229.037 87.489C231.463 89.2355 233.179 92.9135 233.368 95.8547C234.577 114.668 220.092 129.173 207.093 140.471L201.057 145.66C197.89 148.37 195.497 150.282 193.053 153.762C187.375 161.849 190.007 170.229 192.915 178.739C196.102 188.063 200.041 197.369 200.63 207.332C200.982 213.502 200.463 220.775 196.544 225.86C194.271 228.811 190.928 230.414 187.255 230.767C172.921 232.004 158.808 220.145 147.861 212.249C143.939 209.42 139.294 205.839 134.922 204.167C132.429 203.19 129.727 202.875 127.077 203.253C120.313 204.189 114.048 210.477 108.648 214.76C97.7927 223.373 82.7827 234.77 68.0212 230.21C62.4287 228.483 59.4725 221.614 59.1715 216.297C58.7885 210.424 59.6825 203.9 60.6655 198.087C60.5442 197.994 60.226 197.84 60.082 197.792C57.0517 196.773 54.5537 199.188 52.3452 200.736C48.9105 203.144 42.293 208.267 37.888 206.394C31.2307 203.567 35.7875 192.442 36.6555 187.291C36.8455 186.168 37.2232 184.951 37.061 183.83C36.9272 182.903 36.5407 182.032 35.9445 181.309C35.0587 180.217 33.8292 179.466 32.7072 178.559C29.5652 176.019 25.015 173.07 23.2119 169.372C22.5872 168.09 22.5236 166.338 23.1102 165.045C25.6065 160.022 33.8922 159.759 38.6697 159.141C43.1737 158.559 46.8405 158.911 48.2832 153.703C48.5227 152.839 48.9907 151.743 49.2922 150.872C50.1362 148.432 51.014 146.012 52.0785 143.66Z" fill="#F53B9D"/>
<path d="M52.0785 143.66C52.4595 142.26 54.7027 139.385 56.1702 138.71C60.0505 136.925 62.6572 139.471 64.443 142.656C67.008 147.231 67.609 152.442 70.3245 156.837C70.8202 157.639 72.1445 158.343 73.027 158.605C75.313 159.232 77.6267 159.241 79.9392 159.443C83.277 159.734 87.8132 160.313 90.65 162.083C91.5517 162.646 92.3555 163.635 92.983 164.43C93.3995 167.177 93.4347 168.547 91.7015 170.984C90.449 172.746 88.8487 174.143 87.3417 175.663C86.388 176.347 85.9585 176.623 85.1792 177.497C78.7065 182.729 79.5705 183.675 81.8447 191.533C82.526 193.888 82.6207 196.049 83.143 198.253L83.3002 199.652C83.1307 200.617 82.931 202.455 82.5302 203.23C80.1982 207.292 76.421 206.605 72.6937 205.155C70.8417 204.564 66.3407 201.58 64.606 200.441C63.2005 199.52 62.3577 198.684 60.6655 198.087C60.5442 197.994 60.226 197.84 60.082 197.792C57.0517 196.773 54.5537 199.188 52.3452 200.736C48.9105 203.144 42.293 208.267 37.888 206.394C31.2307 203.567 35.7875 192.442 36.6555 187.291C36.8455 186.168 37.2232 184.951 37.061 183.83C36.9272 182.903 36.5407 182.032 35.9445 181.309C35.0587 180.217 33.8292 179.466 32.7072 178.559C29.5652 176.019 25.015 173.07 23.2119 169.372C22.5872 168.09 22.5236 166.338 23.1102 165.045C25.6065 160.022 33.8922 159.759 38.6697 159.141C43.1737 158.559 46.8405 158.911 48.2832 153.703C48.5227 152.839 48.9907 151.743 49.2922 150.872C50.1362 148.432 51.014 146.012 52.0785 143.66Z" fill="#4DC5A0"/>
<path d="M42.1932 194.124C47.567 193.817 45.9405 200.858 41.929 201.96C41.218 201.981 40.555 202.036 39.9202 201.722C37.321 200.436 38.4185 196.85 40.1575 195.301C40.9535 194.591 41.2527 194.444 42.1932 194.124Z" fill="#26A079"/>
<path d="M74.0072 194.128C74.7782 194.06 75.1175 194.03 75.8422 194.339C77.2252 194.941 78.317 196.061 78.8837 197.458C79.6382 199.363 79.4062 201.099 77.34 201.835C76.9527 201.879 76.5625 201.891 76.1732 201.874C73.1845 201.749 72.0465 198.32 72.1925 195.773C72.7665 194.92 73.151 194.639 74.0072 194.128Z" fill="#26A079"/>
<path d="M57.712 143.055C58.2965 143.01 58.8907 143.032 59.4782 143.04C61.8467 144.479 61.8937 148.204 59.2605 149.407C55.2592 150.314 54.979 143.963 57.712 143.055Z" fill="#26A079"/>
<path d="M28.5095 165.03C29.5455 164.976 30.312 164.888 31.2615 165.415C32.896 166.32 33.023 167.815 32.1702 169.319C31.8185 169.559 31.3722 169.807 31.001 170.025C27.3785 170.673 25.2847 166.648 28.5095 165.03Z" fill="#26A079"/>
<path d="M86.0817 164.903C86.9255 164.849 87.5637 164.923 88.371 165.159C90.0857 167.178 89.8522 169.166 87.1512 170.031C83.3055 170.183 82.5255 166.439 86.0817 164.903Z" fill="#26A079"/>
<path d="M54.8555 180.309C56.8535 180.246 55.7635 182.227 57.3347 183.141C57.9187 183.449 59.0372 183.405 59.6242 183.195C61.14 182.656 60.3275 180.672 62.0357 180.187C63.041 180.411 62.9085 181.576 62.7235 182.336C62.6017 182.67 62.441 183.061 62.2387 183.351C61.5367 184.375 60.4337 185.052 59.2035 185.217C57.9775 185.396 56.7327 185.05 55.775 184.264C54.634 183.333 53.6987 181.585 54.8555 180.309Z" fill="black"/>
<path d="M57.5485 150.866C58.6965 150.792 60.061 150.871 60.6625 151.973C61.608 153.703 60.959 155.116 59.42 155.98C58.8485 156.027 58.2695 155.992 57.695 155.974C55.9962 155.002 56.0042 154.278 56.0565 152.48C56.5277 151.66 56.759 151.379 57.5485 150.866Z" fill="#26A079"/>
<path d="M69.9852 189.219C72.6605 188.934 73.1042 190.518 72.9772 192.772C72.4027 193.388 72.1345 193.646 71.3752 194.008C70.2635 194.053 69.229 193.831 68.6162 192.796C68.279 192.226 68.2005 191.538 68.401 190.907C68.6872 189.983 69.1807 189.63 69.9852 189.219Z" fill="#26A079"/>
<path d="M46.2292 189.209C49.1055 189.007 49.351 190.424 49.155 192.844C48.5892 193.363 48.21 193.593 47.5667 194.01C44.1665 194.089 43.44 190.766 46.2292 189.209Z" fill="#26A079"/>
<path d="M35.412 167.712C38.4152 167.683 38.9697 170.789 36.3602 172.145C35.8797 172.207 35.3562 172.211 34.907 172.007C34.3455 171.749 33.9185 171.266 33.731 170.677C33.5112 170.015 33.587 169.29 33.9385 168.688C34.3227 168.029 34.7197 167.882 35.412 167.712Z" fill="#26A079"/>
<path d="M80.4415 167.715C80.539 167.709 80.6367 167.706 80.7345 167.703C82.9562 167.653 83.0815 169.089 83.0247 170.858C82.4955 171.596 82.2672 171.798 81.4407 172.163C81.028 172.166 80.7222 172.161 80.3177 172.054C79.7337 171.901 79.243 171.506 78.97 170.967C78.2382 169.547 79.149 168.319 80.4415 167.715Z" fill="#26A079"/>
<path d="M82.5302 203.23C87.9122 206.941 86.51 213.566 83.2745 218.186C80.5 222.147 74.585 225.571 70.0552 222.462C65.3875 219.257 67.3597 212.023 70.0987 208.236C70.9 207.127 71.8915 206.199 72.6937 205.155C76.421 206.605 80.1982 207.292 82.5302 203.23Z" fill="#E60C7F"/>
<path d="M83.143 198.253C83.0947 197.144 83.0852 196.474 83.5157 195.41C84.461 193.075 86.4802 191.687 89.009 191.691C92.1967 191.697 94.5462 194.296 94.359 197.452C94.1885 200.998 91.4335 203.297 87.932 202.933C85.9975 202.732 85.0007 201.843 83.8507 200.393C83.6577 200.154 83.474 199.906 83.3002 199.652L83.143 198.253Z" fill="#E60C7F"/>
<path d="M87.3417 175.663C87.2685 177.311 86.5085 177.258 85.1792 177.497C85.9585 176.623 86.388 176.347 87.3417 175.663Z" fill="#E60C7F"/>
<path d="M180.36 201.884C186.176 201.021 191.271 207.888 191.97 213.029C192.585 217.559 190.9 222.116 185.783 222.672C182.691 222.704 181.659 222.263 179.102 220.555C172.983 216.468 170.605 202.953 180.36 201.884Z" fill="#E60C7F"/>
<path d="M128.274 33.246C138.206 32.3745 140.076 47.6302 134.353 53.1917C133.089 54.4212 132.293 54.724 130.605 55.0972C126.132 55.8462 123.106 52.684 121.855 48.7307C120.665 45.0867 121.007 41.1155 122.802 37.7282C124.106 35.2777 125.644 34.037 128.274 33.246Z" fill="#E60C7F"/>
<path d="M220.872 93.2585C233.113 92.802 228.393 110.827 216.465 112.743C213.68 112.797 210.698 112.144 209.526 109.213C206.859 102.542 214.318 93.7425 220.872 93.2585Z" fill="#E60C7F"/>
<path d="M35.812 98.741C48.3885 97.9822 54.8932 114.028 42.957 115.871C30.5385 116.306 23.7273 100.581 35.812 98.741Z" fill="#E60C7F"/>
<path d="M128.425 58.4652C132.496 57.8095 136.321 60.5967 136.945 64.673C137.569 68.7492 134.751 72.5527 130.67 73.1442C126.635 73.7292 122.883 70.9497 122.265 66.9187C121.649 62.8877 124.398 59.1137 128.425 58.4652Z" fill="#E60C7F"/>
<path d="M128.39 76.6357C131.854 75.9695 135.206 78.224 135.893 81.683C136.582 85.142 134.35 88.5082 130.895 89.2187C127.409 89.936 124.005 87.6782 123.311 84.1877C122.616 80.6972 124.895 77.3082 128.39 76.6357Z" fill="#E60C7F"/>
<path d="M119.76 148.773C120.481 148.705 121.115 148.619 121.716 149.094C122.579 149.774 122.627 150.962 122.878 151.948C123.467 154.262 125.07 155.803 127.415 156.188C130.339 156.667 133.364 155.731 134.607 152.822C135.191 151.636 134.888 149.785 136.134 148.995C137.112 148.376 138.507 148.681 139.034 149.745C139.658 151.001 139.214 152.642 138.831 153.902C137.027 158.763 132.01 161.438 126.989 160.582C124.544 160.195 121.594 158.556 120.223 156.423C118.859 154.303 117.043 150.542 119.76 148.773Z" fill="black"/>
<path d="M201.806 109.237C204.984 108.861 207.868 111.13 208.249 114.308C208.63 117.485 206.366 120.372 203.189 120.758C200.004 121.145 197.11 118.874 196.728 115.689C196.345 112.504 198.621 109.614 201.806 109.237Z" fill="#E60C7F"/>
<path d="M162.153 180.231C165.291 180.06 167.97 182.472 168.129 185.61C168.288 188.75 165.865 191.419 162.727 191.565C159.605 191.711 156.952 189.305 156.794 186.184C156.636 183.062 159.032 180.401 162.153 180.231Z" fill="#E60C7F"/>
<path d="M170.29 191.796C173.335 191.115 176.357 193.022 177.054 196.064C177.751 199.104 175.86 202.137 172.823 202.85C169.764 203.567 166.704 201.66 166.002 198.596C165.299 195.534 167.223 192.483 170.29 191.796Z" fill="#E60C7F"/>
<path d="M95.987 180.428C99.0092 179.656 102.084 181.483 102.85 184.507C103.615 187.532 101.78 190.603 98.7545 191.362C95.7385 192.118 92.6792 190.289 91.9162 187.275C91.153 184.26 92.9742 181.198 95.987 180.428Z" fill="#E60C7F"/>
<path d="M186.77 116.711C189.765 116.072 192.711 117.976 193.357 120.969C194.003 123.962 192.104 126.913 189.113 127.565C186.113 128.219 183.151 126.314 182.503 123.312C181.856 120.31 183.767 117.353 186.77 116.711Z" fill="#E60C7F"/>
<path d="M55.2587 110.518C58.2705 110.262 60.9275 112.477 61.2192 115.485C61.5107 118.494 59.3285 121.177 56.3237 121.505C54.348 121.72 52.4087 120.857 51.247 119.244C50.0852 117.631 49.8805 115.518 50.711 113.712C51.541 111.906 53.2782 110.686 55.2587 110.518Z" fill="#E60C7F"/>
<path d="M68.3642 116.607C71.3535 116.458 73.893 118.771 74.0222 121.761C74.1517 124.752 71.8217 127.276 68.8305 127.385C65.8672 127.494 63.3717 125.191 63.2435 122.228C63.1155 119.265 65.4025 116.755 68.3642 116.607Z" fill="#E60C7F"/>
<path d="M153.572 112.333C163.429 111.684 171.936 119.174 172.542 129.037C173.147 138.9 165.621 147.377 155.759 147.938C145.957 148.498 137.548 141.027 136.946 131.225C136.344 121.423 143.776 112.978 153.572 112.333Z" fill="#FEFEFE"/>
<path d="M154.969 116.157C162.688 116.262 168.86 122.605 168.757 130.326C168.654 138.047 162.315 144.223 154.597 144.123C146.875 144.022 140.697 137.678 140.8 129.954C140.903 122.229 147.247 116.052 154.969 116.157Z" fill="black"/>
<path d="M148.759 120.937C151.126 120.635 153.296 122.295 153.623 124.66C153.951 127.025 152.315 129.213 149.955 129.566C148.405 129.798 146.85 129.179 145.883 127.946C144.916 126.712 144.686 125.054 145.281 123.604C145.876 122.154 147.204 121.135 148.759 120.937Z" fill="#FEFEFE"/>
<path d="M102.23 112.333C112.087 111.684 120.594 119.174 121.2 129.037C121.806 138.9 114.28 147.377 104.417 147.938C94.616 148.498 86.2065 141.027 85.6045 131.225C85.0025 121.423 92.4342 112.978 102.23 112.333Z" fill="#FEFEFE"/>
<path d="M103.628 116.157C111.346 116.262 117.518 122.605 117.416 130.326C117.313 138.047 110.974 144.223 103.255 144.123C95.5332 144.022 89.3555 137.678 89.4585 129.954C89.5612 122.229 95.9057 116.052 103.628 116.157Z" fill="black"/>
<path d="M97.4172 120.937C99.7847 120.635 101.954 122.295 102.282 124.66C102.61 127.025 100.973 129.213 98.613 129.566C97.0632 129.798 95.5085 129.179 94.5415 127.946C93.5747 126.712 93.3447 125.054 93.9397 123.604C94.5347 122.154 95.8627 121.135 97.4172 120.937Z" fill="#FEFEFE"/>
<path d="M48.1097 164.135C52.4722 163.847 56.237 167.163 56.5052 171.528C56.7732 175.893 53.4425 179.644 49.0777 179.893C44.74 180.14 41.0182 176.834 40.7517 172.496C40.4855 168.158 43.7745 164.42 48.1097 164.135Z" fill="#FEFEFE"/>
<path d="M48.7282 165.827C52.144 165.874 54.8757 168.681 54.8302 172.098C54.7847 175.515 51.9792 178.248 48.5632 178.204C45.146 178.159 42.4117 175.352 42.4572 171.933C42.503 168.515 45.3107 165.781 48.7282 165.827Z" fill="black"/>
<path d="M45.9797 167.943C47.0275 167.809 47.9877 168.544 48.1327 169.59C48.2777 170.637 47.5535 171.605 46.509 171.762C45.823 171.864 45.135 171.591 44.707 171.045C44.279 170.499 44.1775 169.765 44.4407 169.123C44.704 168.481 45.2917 168.031 45.9797 167.943Z" fill="#FEFEFE"/>
<path d="M67.875 164.135C72.2375 163.847 76.0022 167.163 76.2705 171.528C76.5385 175.893 73.2077 179.644 68.843 179.893C64.5052 180.14 60.7835 176.834 60.517 172.496C60.2507 168.158 63.5397 164.42 67.875 164.135Z" fill="#FEFEFE"/>
<path d="M68.4935 165.827C71.9095 165.874 74.6412 168.681 74.5957 172.098C74.5502 175.515 71.7447 178.248 68.3287 178.204C64.9112 178.159 62.1772 175.352 62.2227 171.933C62.2682 168.515 65.0762 165.781 68.4935 165.827Z" fill="black"/>
<path d="M65.745 167.943C66.793 167.809 67.753 168.544 67.898 169.59C68.043 170.637 67.319 171.605 66.2742 171.762C65.5885 171.864 64.9002 171.591 64.4725 171.045C64.0445 170.499 63.9427 169.765 64.206 169.123C64.4695 168.481 65.0572 168.031 65.745 167.943Z" fill="#FEFEFE"/>
</svg>
