<svg width="1024" height="1024" viewBox="0 0 1024 1024" fill="none" xmlns="http://www.w3.org/2000/svg">
<path d="M208.314 574.639L207.775 574.256C200.279 568.835 188.565 557.989 181.44 551.295C146.313 518.29 100.931 480.158 90.8455 430.852C84.1266 398.005 107.268 372.184 138.92 367.367C172.339 362.281 200.387 376.193 231.657 384.892C266.688 394.637 313.524 404.556 348.456 390.123C386.67 374.334 398.114 315.034 408.23 278.633C412.496 263.73 416.887 248.862 421.401 234.032C434.557 189.666 457.748 108.663 511.512 98.8481C537.704 95.2681 554.804 110.543 568.668 130.231C583.499 151.286 587.863 170.243 596.376 193.36C614.434 242.395 620.239 312.72 647.301 356.702C652.208 364.709 658.611 371.695 666.16 377.278C701.071 402.818 762.618 386.831 799.582 372.604C810.401 368.413 821.107 363.934 831.682 359.172C857.388 347.543 889.292 330.628 916.148 349.956C925.853 356.942 932.715 371.654 933.473 383.419C938.309 458.672 880.367 516.694 828.371 561.885L804.227 582.642C791.561 593.479 781.987 601.127 772.211 615.046C749.499 647.394 760.027 680.915 771.659 714.956C784.409 752.252 800.162 789.474 802.52 829.328C803.928 854.006 801.851 883.098 786.177 903.439C777.085 915.244 763.713 921.657 749.022 923.069C691.683 928.018 635.234 880.581 591.446 848.996C575.758 837.682 557.176 823.356 539.688 816.667C529.716 812.762 518.907 811.499 508.308 813.01C481.254 816.756 456.192 841.906 434.594 859.038C391.171 893.491 331.131 939.08 272.085 920.838C249.715 913.93 237.89 886.456 236.686 865.189C235.154 841.695 238.73 815.601 242.662 792.35C242.177 791.976 240.904 791.359 240.328 791.167C228.207 787.093 218.215 796.752 209.381 802.944C195.642 812.575 169.172 833.066 151.552 825.577C124.923 814.268 143.15 769.769 146.622 749.165C147.382 744.671 148.893 739.806 148.244 735.321C147.709 731.612 146.163 728.127 143.778 725.237C140.235 720.868 135.317 717.865 130.829 714.236C118.261 704.077 100.06 692.281 92.8478 677.487C90.3487 672.361 90.0943 665.35 92.4409 660.181C102.426 640.088 135.569 639.035 154.679 636.566C172.695 634.237 187.362 635.644 193.133 614.812C194.091 611.356 195.963 606.973 197.169 603.489C200.545 593.727 204.056 584.05 208.314 574.639Z" fill="#F53B9D"/>
<path d="M208.315 574.639C209.839 569.041 218.811 557.539 224.681 554.841C240.202 547.698 250.629 557.885 257.772 570.622C268.032 588.923 270.436 609.77 281.298 627.347C283.281 630.556 288.578 633.371 292.108 634.419C301.252 636.926 310.507 636.963 319.757 637.772C333.108 638.937 351.253 641.252 362.6 648.334C366.207 650.583 369.422 654.54 371.932 657.721C373.598 668.708 373.739 674.189 366.806 683.937C361.796 690.985 355.395 696.57 349.367 702.65C345.552 705.386 343.834 706.49 340.717 709.989C314.826 730.915 318.282 734.699 327.379 766.13C330.104 775.55 330.483 784.198 332.572 793.014L333.201 798.608C332.523 802.467 331.724 809.82 330.121 812.921C320.793 829.169 305.684 826.419 290.775 820.619C283.367 818.257 265.363 806.321 258.424 801.765C252.802 798.08 249.431 794.736 242.662 792.35C242.177 791.976 240.905 791.359 240.329 791.167C228.207 787.093 218.215 796.751 209.382 802.944C195.643 812.574 169.172 833.065 151.552 825.577C124.924 814.268 143.151 769.768 146.623 749.165C147.383 744.67 148.894 739.806 148.245 735.321C147.709 731.612 146.164 728.127 143.778 725.237C140.236 720.868 135.317 717.865 130.829 714.236C118.262 704.077 100.061 692.281 92.8483 677.487C90.3493 672.361 90.0949 665.349 92.4414 660.181C102.426 640.088 135.57 639.035 154.68 636.566C172.695 634.236 187.362 635.644 193.133 614.812C194.091 611.355 195.963 606.973 197.169 603.488C200.545 593.727 204.056 584.05 208.315 574.639Z" fill="#4DC5A0"/>
<path d="M168.773 776.494C190.268 775.269 183.762 803.431 167.716 807.841C164.872 807.925 162.22 808.145 159.681 806.887C149.284 801.742 153.674 787.402 160.63 781.204C163.814 778.365 165.011 777.776 168.773 776.494Z" fill="#26A079"/>
<path d="M296.029 776.514C299.113 776.242 300.47 776.121 303.369 777.355C308.901 779.764 313.268 784.245 315.535 789.834C318.553 797.453 317.625 804.394 309.36 807.341C307.811 807.514 306.25 807.566 304.693 807.495C292.738 806.995 288.186 793.281 288.77 783.09C291.066 779.68 292.604 778.557 296.029 776.514Z" fill="#26A079"/>
<path d="M230.848 572.221C233.186 572.039 235.563 572.128 237.913 572.16C247.387 577.918 247.575 592.815 237.042 597.628C221.037 601.257 219.916 575.851 230.848 572.221Z" fill="#26A079"/>
<path d="M114.038 660.12C118.182 659.905 121.248 659.554 125.046 661.659C131.584 665.279 132.092 671.261 128.681 677.276C127.274 678.235 125.489 679.227 124.004 680.101C109.514 682.693 101.139 666.594 114.038 660.12Z" fill="#26A079"/>
<path d="M344.327 659.611C347.702 659.395 350.255 659.69 353.484 660.635C360.343 668.712 359.409 676.664 348.605 680.125C333.222 680.733 330.102 665.756 344.327 659.611Z" fill="#26A079"/>
<path d="M219.422 721.238C227.414 720.985 223.054 728.908 229.339 732.566C231.675 733.796 236.149 733.618 238.497 732.781C244.56 730.625 241.31 722.688 248.143 720.747C252.164 721.645 251.634 726.303 250.894 729.343C250.407 730.681 249.764 732.243 248.955 733.403C246.147 737.5 241.735 740.209 236.814 740.868C231.91 741.584 226.931 740.199 223.1 737.056C218.536 733.333 214.795 726.341 219.422 721.238Z" fill="black"/>
<path d="M230.194 603.465C234.786 603.166 240.244 603.484 242.65 607.89C246.432 614.812 243.836 620.462 237.68 623.919C235.394 624.106 233.078 623.966 230.78 623.895C223.985 620.009 224.017 617.113 224.226 609.92C226.111 606.641 227.036 605.514 230.194 603.465Z" fill="#26A079"/>
<path d="M279.941 756.874C290.642 755.737 292.417 762.07 291.909 771.088C289.611 773.553 288.538 774.586 285.501 776.032C281.054 776.214 276.916 775.325 274.465 771.186C273.116 768.903 272.802 766.153 273.604 763.628C274.749 759.933 276.723 758.52 279.941 756.874Z" fill="#26A079"/>
<path d="M184.917 756.836C196.422 756.027 197.404 761.696 196.62 771.378C194.357 773.454 192.84 774.371 190.267 776.041C176.666 776.354 173.76 763.066 184.917 756.836Z" fill="#26A079"/>
<path d="M141.648 670.85C153.661 670.733 155.879 683.156 145.441 688.581C143.519 688.829 141.425 688.843 139.628 688.029C137.382 686.996 135.674 685.064 134.924 682.707C134.045 680.059 134.348 677.16 135.754 674.751C137.291 672.117 138.879 671.528 141.648 670.85Z" fill="#26A079"/>
<path d="M321.766 670.859C322.156 670.836 322.547 670.822 322.938 670.812C331.825 670.611 332.326 676.355 332.099 683.431C329.982 686.383 329.069 687.192 325.763 688.651C324.112 688.665 322.889 688.642 321.271 688.216C318.935 687.604 316.972 686.023 315.88 683.866C312.953 678.188 316.596 673.277 321.766 670.859Z" fill="#26A079"/>
<path d="M330.121 812.921C351.649 827.762 346.04 854.263 333.098 872.743C322 888.589 298.34 902.284 280.221 889.847C261.55 877.027 269.439 848.094 280.395 832.944C283.6 828.51 287.566 824.796 290.775 820.62C305.684 826.419 320.793 829.17 330.121 812.921Z" fill="#E60C7F"/>
<path d="M332.571 793.015C332.378 788.576 332.341 785.896 334.063 781.64C337.844 772.299 345.921 766.747 356.036 766.766C368.787 766.79 378.185 777.182 377.436 789.806C376.754 803.992 365.734 813.188 351.728 811.733C343.99 810.929 340.003 807.374 335.403 801.574C334.631 800.615 333.896 799.624 333.201 798.609L332.571 793.015Z" fill="#E60C7F"/>
<path d="M349.366 702.65C349.073 709.245 346.033 709.03 340.716 709.989C343.833 706.49 345.552 705.387 349.366 702.65Z" fill="#E60C7F"/>
<path d="M721.44 807.537C744.705 804.085 765.083 831.55 767.88 852.116C770.34 870.235 763.601 888.463 743.133 890.689C730.766 890.815 726.636 889.052 716.407 882.218C691.931 865.872 682.418 811.812 721.44 807.537Z" fill="#E60C7F"/>
<path d="M513.098 132.984C552.826 129.498 560.305 190.521 537.414 212.767C532.358 217.685 529.173 218.896 522.419 220.389C504.529 223.385 492.424 210.736 487.42 194.923C482.662 180.347 484.028 164.462 491.208 150.913C496.423 141.111 502.578 136.148 513.098 132.984Z" fill="#E60C7F"/>
<path d="M883.488 373.034C932.453 371.208 913.571 443.307 865.859 450.972C854.718 451.19 842.791 448.575 838.104 436.854C827.436 410.169 857.272 374.97 883.488 373.034Z" fill="#E60C7F"/>
<path d="M143.248 394.964C193.554 391.929 219.573 456.112 171.828 463.485C122.154 465.224 94.9093 402.326 143.248 394.964Z" fill="#E60C7F"/>
<path d="M513.701 233.861C529.983 231.238 545.286 242.387 547.779 258.692C550.277 274.997 539.005 290.211 522.681 292.577C506.54 294.917 491.531 283.799 489.062 267.675C486.597 251.551 497.593 236.455 513.701 233.861Z" fill="#E60C7F"/>
<path d="M513.561 306.543C527.415 303.878 540.824 312.896 543.574 326.732C546.329 340.568 537.4 354.033 523.579 356.875C509.636 359.744 496.021 350.713 493.243 336.751C490.464 322.789 499.58 309.233 513.561 306.543Z" fill="#E60C7F"/>
<path d="M479.039 595.093C481.923 594.822 484.459 594.476 486.863 596.375C490.315 599.097 490.507 603.849 491.512 607.792C493.87 617.048 500.282 623.212 509.66 624.751C521.358 626.669 533.458 622.922 538.43 611.286C540.764 606.543 539.552 599.139 544.538 595.982C548.448 593.503 554.028 594.723 556.138 598.98C558.631 604.003 556.858 610.57 555.324 615.607C548.107 635.051 528.041 645.752 507.957 642.328C498.177 640.78 486.377 634.223 480.891 625.691C475.437 617.212 468.172 602.17 479.039 595.093Z" fill="black"/>
<path d="M807.225 436.948C819.938 435.444 831.472 444.519 832.997 457.23C834.521 469.941 825.462 481.486 812.754 483.031C800.017 484.579 788.441 475.497 786.912 462.758C785.382 450.018 794.484 438.456 807.225 436.948Z" fill="#E60C7F"/>
<path d="M648.611 720.924C661.165 720.241 671.88 729.886 672.517 742.44C673.153 754.998 663.461 765.676 650.908 766.261C638.42 766.845 627.807 757.22 627.175 744.736C626.544 732.248 636.128 721.602 648.611 720.924Z" fill="#E60C7F"/>
<path d="M681.16 767.186C693.339 764.46 705.43 772.088 708.218 784.254C711.005 796.414 703.442 808.547 691.291 811.4C679.055 814.267 666.815 806.639 664.008 794.384C661.197 782.135 668.891 769.932 681.16 767.186Z" fill="#E60C7F"/>
<path d="M383.948 721.71C396.037 718.623 408.338 725.934 411.4 738.029C414.462 750.129 407.121 762.412 395.018 765.447C382.954 768.473 370.717 761.158 367.665 749.1C364.612 737.042 371.897 724.793 383.948 721.71Z" fill="#E60C7F"/>
<path d="M747.081 466.845C759.059 464.286 770.846 471.905 773.428 483.876C776.014 495.847 768.418 507.65 756.454 510.26C744.452 512.877 732.605 505.255 730.014 493.248C727.423 481.241 735.07 469.411 747.081 466.845Z" fill="#E60C7F"/>
<path d="M221.035 442.073C233.082 441.05 243.71 449.907 244.877 461.941C246.043 473.974 237.314 484.708 225.295 486.019C217.392 486.88 209.635 483.426 204.988 476.974C200.341 470.524 199.522 462.072 202.844 454.848C206.164 447.625 213.113 442.745 221.035 442.073Z" fill="#E60C7F"/>
<path d="M273.457 466.429C285.414 465.832 295.572 475.085 296.089 487.046C296.607 499.008 287.287 509.104 275.322 509.542C263.469 509.977 253.487 500.763 252.974 488.912C252.462 477.062 261.61 467.019 273.457 466.429Z" fill="#E60C7F"/>
<path d="M614.288 449.332C653.717 446.734 687.743 476.697 690.166 516.149C692.589 555.601 662.486 589.506 623.035 591.753C583.83 593.992 550.193 564.106 547.784 524.899C545.377 485.692 575.104 451.913 614.288 449.332Z" fill="#FEFEFE"/>
<path d="M619.877 464.629C650.751 465.05 675.441 490.422 675.029 521.305C674.618 552.189 649.261 576.894 618.388 576.492C587.5 576.09 562.789 550.712 563.2 519.815C563.612 488.918 588.99 464.208 619.877 464.629Z" fill="black"/>
<path d="M595.036 483.748C604.506 482.54 613.184 489.181 614.494 498.64C615.805 508.099 609.26 516.852 599.819 518.265C593.62 519.193 587.4 516.718 583.533 511.784C579.665 506.85 578.746 500.217 581.126 494.417C583.506 488.617 588.818 484.542 595.036 483.748Z" fill="#FEFEFE"/>
<path d="M408.921 449.332C448.35 446.734 482.376 476.697 484.799 516.149C487.222 555.601 457.119 589.506 417.669 591.753C378.464 593.992 344.826 564.106 342.418 524.899C340.01 485.692 369.737 451.913 408.921 449.332Z" fill="#FEFEFE"/>
<path d="M414.511 464.629C445.384 465.05 470.074 490.422 469.663 521.305C469.251 552.189 443.895 576.894 413.021 576.492C382.133 576.09 357.422 550.712 357.834 519.815C358.245 488.918 383.623 464.208 414.511 464.629Z" fill="black"/>
<path d="M389.669 483.748C399.139 482.54 407.817 489.181 409.128 498.64C410.439 508.099 403.894 516.852 394.452 518.265C388.253 519.193 382.034 516.718 378.166 511.784C374.299 506.85 373.379 500.217 375.759 494.417C378.139 488.617 383.451 484.542 389.669 483.748Z" fill="#FEFEFE"/>
<path d="M192.439 656.54C209.889 655.39 224.948 668.65 226.021 686.111C227.093 703.571 213.77 718.576 196.311 719.571C178.96 720.562 164.073 707.335 163.007 689.983C161.942 672.632 175.098 657.682 192.439 656.54Z" fill="#FEFEFE"/>
<path d="M194.913 663.309C208.576 663.496 219.503 674.725 219.321 688.393C219.139 702.06 207.917 712.994 194.253 712.816C180.584 712.638 169.647 701.407 169.829 687.733C170.012 674.059 181.243 663.123 194.913 663.309Z" fill="black"/>
<path d="M183.919 671.771C188.11 671.236 191.951 674.176 192.531 678.362C193.111 682.548 190.214 686.422 186.036 687.047C183.292 687.458 180.54 686.363 178.828 684.179C177.116 681.995 176.71 679.06 177.763 676.493C178.816 673.926 181.167 672.123 183.919 671.771Z" fill="#FEFEFE"/>
<path d="M271.5 656.54C288.95 655.39 304.009 668.65 305.082 686.111C306.154 703.571 292.831 718.576 275.372 719.571C258.021 720.562 243.134 707.335 242.068 689.983C241.003 672.632 254.159 657.682 271.5 656.54Z" fill="#FEFEFE"/>
<path d="M273.974 663.309C287.638 663.496 298.565 674.725 298.383 688.393C298.201 702.06 286.979 712.994 273.315 712.816C259.645 712.638 248.709 701.407 248.891 687.733C249.073 674.059 260.305 663.123 273.974 663.309Z" fill="black"/>
<path d="M262.98 671.771C267.172 671.236 271.012 674.176 271.592 678.362C272.172 682.548 269.276 686.422 265.097 687.047C262.354 687.458 259.601 686.363 257.89 684.179C256.178 681.995 255.771 679.06 256.824 676.493C257.878 673.926 260.229 672.123 262.98 671.771Z" fill="#FEFEFE"/>
</svg>
