<svg width="256" height="256" viewBox="0 0 256 256" fill="none" xmlns="http://www.w3.org/2000/svg">
<g clip-path="url(#clip0_2115_2318)">
<path d="M237.673 104.758C240.536 96.1384 241.526 87.0068 240.577 77.9737C239.629 68.9406 236.763 60.2138 232.173 52.3765C225.367 40.5304 214.975 31.1515 202.496 25.5921C190.016 20.0326 176.093 18.5798 162.735 21.4432C155.146 13.0012 145.469 6.70474 134.676 3.18624C123.883 -0.332254 112.354 -0.948929 101.248 1.39815C90.1411 3.74524 79.8476 8.97344 71.4011 16.5577C62.9546 24.1419 56.6523 33.8151 53.1274 44.6058C44.2278 46.4308 35.8203 50.1342 28.4666 55.4687C21.113 60.8032 14.9826 67.6458 10.4852 75.5392C3.6056 87.3656 0.66529 101.073 2.0894 114.681C3.5135 128.288 9.22822 141.09 18.4074 151.236C15.5344 159.852 14.5345 168.982 15.4746 178.015C16.4146 187.049 19.2728 195.777 23.858 203.617C30.6723 215.468 41.0732 224.848 53.5616 230.408C66.05 235.967 79.9811 237.418 93.3471 234.551C99.3765 241.341 106.785 246.767 115.078 250.465C123.372 254.164 132.358 256.051 141.439 256C155.131 256.013 168.473 251.674 179.539 243.61C190.605 235.547 198.822 224.176 203.005 211.138C211.903 209.31 220.309 205.605 227.663 200.271C235.016 194.936 241.147 188.095 245.647 180.204C252.445 168.395 255.335 154.738 253.903 141.188C252.471 127.637 246.79 114.885 237.673 104.758ZM141.439 239.245C130.225 239.263 119.363 235.332 110.757 228.143L112.271 227.285L163.239 197.865C164.508 197.121 165.561 196.059 166.295 194.785C167.03 193.511 167.42 192.068 167.428 190.597V118.737L188.975 131.202C189.081 131.256 189.174 131.334 189.244 131.431C189.314 131.527 189.361 131.639 189.38 131.757V191.304C189.353 204.011 184.293 216.189 175.309 225.174C166.324 234.159 154.145 239.218 141.439 239.245ZM38.3914 195.241C32.7676 185.53 30.7484 174.147 32.689 163.094L34.2036 164.003L85.2223 193.424C86.4847 194.165 87.9218 194.555 89.3855 194.555C90.8492 194.555 92.2863 194.165 93.5487 193.424L155.872 157.493V182.372C155.866 182.501 155.831 182.627 155.77 182.741C155.709 182.854 155.622 182.953 155.518 183.028L103.893 212.802C92.8759 219.149 79.7903 220.864 67.5093 217.572C55.2284 214.279 44.756 206.248 38.3914 195.241ZM24.9684 84.2197C30.6312 74.4466 39.5693 66.9923 50.2004 63.1765V123.733C50.1812 125.196 50.555 126.638 51.2828 127.907C52.0106 129.176 53.0657 130.227 54.338 130.949L116.358 166.729L94.8106 179.192C94.6939 179.254 94.5639 179.287 94.4319 179.287C94.2999 179.287 94.1698 179.254 94.0532 179.192L42.53 149.47C31.5334 143.096 23.5108 132.623 20.2193 120.346C16.9277 108.069 18.6354 94.9884 24.9684 83.968V84.2197ZM201.996 125.348L139.774 89.216L161.271 76.8C161.388 76.7381 161.518 76.7057 161.65 76.7057C161.782 76.7057 161.912 76.7381 162.029 76.8L213.552 106.574C221.43 111.119 227.852 117.812 232.069 125.871C236.286 133.93 238.123 143.022 237.366 152.085C236.61 161.149 233.29 169.811 227.796 177.059C222.301 184.307 214.858 189.842 206.336 193.019V132.462C206.291 131.001 205.868 129.578 205.106 128.33C204.345 127.083 203.274 126.056 201.996 125.348ZM223.443 93.1018L221.928 92.193L171.011 62.5205C169.741 61.7752 168.295 61.3822 166.822 61.3822C165.35 61.3822 163.904 61.7752 162.633 62.5205L100.363 98.4501V73.5722C100.349 73.4458 100.37 73.318 100.424 73.2026C100.477 73.0871 100.561 72.9882 100.665 72.9162L152.189 43.1925C160.085 38.6434 169.114 36.4366 178.219 36.8305C187.324 37.2243 196.128 40.2023 203.602 45.4163C211.077 50.6303 216.912 57.8647 220.426 66.2734C223.94 74.682 224.986 83.9173 223.444 92.8992L223.443 93.1018ZM88.6026 137.205L67.0559 124.791C66.9481 124.727 66.8559 124.639 66.7859 124.534C66.7158 124.43 66.6696 124.311 66.6506 124.187V64.7914C66.6624 55.6797 69.268 46.7596 74.1626 39.0741C79.0572 31.3886 86.0386 25.2553 94.2905 21.3913C102.542 17.5273 111.724 16.0924 120.761 17.2542C129.799 18.4159 138.318 22.1265 145.325 27.952L143.81 28.8106L92.8426 58.2293C91.574 58.9733 90.5208 60.0345 89.7864 61.3086C89.052 62.5827 88.6617 64.0259 88.6538 65.4965L88.6026 137.205ZM100.31 111.974L128.065 95.9765L155.872 111.974V143.968L128.166 159.965L100.361 143.968L100.31 111.974Z" fill="black"/>
</g>
<defs>
<clipPath id="clip0_2115_2318">
<rect width="256" height="256" fill="white"/>
</clipPath>
</defs>
</svg>
