<svg width="256" height="256" viewBox="0 0 256 256" fill="none" xmlns="http://www.w3.org/2000/svg">
<rect width="256" height="256" fill="white"/>
<g clip-path="url(#clip0_2_104)">
<path d="M88.408 175.059H59V228.316H88.408V175.059Z" fill="#048A24"/>
<path d="M169.423 38.145C153.746 29.6878 142.761 28.3164 117.015 28.3164H59V149.574H88.408H92.1841H116.786C139.672 149.574 156.836 148.202 171.94 138.145C188.418 127.288 197 109.116 197 88.0878C197 65.4593 186.473 47.2878 169.423 38.145ZM123.537 124.202H88.408V54.2593L121.592 54.0307C151.801 53.8021 166.905 64.3164 166.905 88.4307C166.905 114.374 148.139 124.202 123.537 124.202Z" fill="#048A24"/>
</g>
<defs>
<clipPath id="clip0_2_104">
<rect width="138" height="200" fill="white" transform="translate(59 28.3164)"/>
</clipPath>
</defs>
</svg>
