<svg width="256" height="256" viewBox="0 0 256 256" fill="none" xmlns="http://www.w3.org/2000/svg">
<path d="M147.191 192.605C144.529 201.673 130.618 205.567 116.114 201.302C101.609 197.045 92.0091 186.252 94.6701 177.178C97.3312 168.11 111.25 164.216 125.747 168.487C140.258 172.738 149.858 183.53 147.191 192.605ZM127.997 27.9094C61.0263 27.9094 6.73413 74.4475 6.73413 131.845C6.73413 139.034 7.58971 146.047 9.20656 152.817C21.1914 173.432 29.4845 160.416 67.3657 141.472C105.948 122.178 67.3657 168.42 53.892 195.367C49.7489 203.66 51.999 210.673 57.6647 216.413C77.5114 228.566 101.751 235.788 127.997 235.788C194.975 235.788 249.26 189.257 249.26 131.845C249.26 74.4475 194.975 27.9094 127.997 27.9094Z" fill="#D99E82"/>
<path d="M94.3158 80.8421C94.3158 92.0051 85.2682 101.053 74.1052 101.053C62.9423 101.053 53.8947 92.0051 53.8947 80.8421C53.8947 69.6792 62.9423 60.6316 74.1052 60.6316C85.2682 60.6316 94.3158 69.6792 94.3158 80.8421Z" fill="#5C913B"/>
<path d="M161.684 67.3685C161.684 78.5314 152.63 87.579 141.474 87.579C130.311 87.579 121.263 78.5314 121.263 67.3685C121.263 56.2055 130.311 47.158 141.474 47.158C152.63 47.158 161.684 56.2055 161.684 67.3685Z" fill="#226699"/>
<path d="M222.316 107.789C222.316 118.952 213.262 128 202.105 128C190.949 128 181.895 118.952 181.895 107.789C181.895 96.6264 190.949 87.5789 202.105 87.5789C213.262 87.5789 222.316 96.6264 222.316 107.789Z" fill="#DD2E44"/>
<path d="M215.579 168.421C215.579 179.577 206.525 188.632 195.368 188.632C184.212 188.632 175.158 179.577 175.158 168.421C175.158 157.265 184.212 148.21 195.368 148.21C206.525 148.21 215.579 157.265 215.579 168.421Z" fill="#FFCC4D"/>
</svg>
