<svg version="1.1" id="Layer_1" xmlns="http://www.w3.org/2000/svg" xmlns:xlink="http://www.w3.org/1999/xlink" x="0px" y="0px"
	 width="100%" viewBox="0 0 138 138" enable-background="new 0 0 138 138" xml:space="preserve">
<path fill="#336994" opacity="1.000000" stroke="none" 
	d="
M1.000000,129.000000 
	C1.000000,89.979103 1.000000,50.958210 1.327571,11.655912 
	C4.770095,7.916339 7.885047,4.458170 11.000000,1.000000 
	C50.020893,1.000000 89.041786,1.000000 128.344070,1.327616 
	C132.083633,4.770154 135.541824,7.885076 139.000000,10.999999 
	C139.000000,50.020893 139.000000,89.041786 138.672409,128.343994 
	C135.229874,132.083527 132.114929,135.541763 129.000000,139.000000 
	C89.979103,139.000000 50.958210,139.000000 11.658446,138.673218 
	C7.919719,135.230957 4.459859,132.115479 1.000000,129.000000 
M85.238411,107.421593 
	C90.875648,107.580460 96.572563,108.336281 102.138306,107.779922 
	C115.748695,106.419395 124.188316,98.065720 125.084351,84.503479 
	C125.861755,72.736855 125.642487,60.894501 125.604134,49.086456 
	C125.560326,35.598877 127.491066,37.813797 113.951866,37.524429 
	C110.397118,37.448448 107.037498,37.296333 108.072426,42.916447 
	C97.217049,34.611969 84.178986,34.832027 74.970093,42.891296 
	C66.355316,50.430611 64.213821,64.293411 70.213326,74.400940 
	C74.007545,80.793152 79.818878,84.521500 87.009789,85.826950 
	C94.152290,87.123619 101.043861,86.315674 107.066795,80.612900 
	C107.279228,89.513298 103.592171,94.008675 96.087860,94.026878 
	C91.525726,94.037949 86.799644,93.300743 82.434387,91.962769 
	C75.894676,89.958298 76.002312,89.608131 72.909966,95.574226 
	C72.451080,96.459557 72.029419,97.367363 71.519829,98.222641 
	C69.927818,100.894577 70.883133,102.741089 73.529373,103.709412 
	C77.099617,105.015877 80.761070,106.073105 85.238411,107.421593 
M62.083935,36.428299 
	C52.130817,30.162085 42.207195,29.637751 33.732994,35.646606 
	C30.996424,34.344456 29.198381,33.033836 27.224651,32.666050 
	C24.811272,32.216343 22.235100,32.733513 19.757116,32.515980 
	C15.762293,32.165276 14.679805,33.918732 14.716024,37.741142 
	C14.880052,55.052090 14.787467,72.365463 14.787348,89.677963 
	C14.787258,102.716812 14.786749,102.577408 27.629978,102.525642 
	C31.589708,102.509674 32.948364,101.158249 32.786217,97.285255 
	C32.555058,91.763855 32.727425,86.225563 32.727425,80.292732 
	C45.300751,87.032494 56.702290,85.950127 63.889091,77.803108 
	C57.560249,65.115181 57.982117,52.903484 67.399742,40.554913 
	C65.821663,39.335556 64.246277,38.118275 62.083935,36.428299 
z"/>
<path fill="#000000" opacity="1.000000" stroke="none" 
	d="
M10.513435,1.000000 
	C7.885047,4.458170 4.770095,7.916339 1.327571,11.187254 
	C1.000000,7.747543 1.000000,4.495087 1.000000,1.000000 
	C4.006597,1.000000 7.016734,1.000000 10.513435,1.000000 
z"/>
<path fill="#000000" opacity="1.000000" stroke="none" 
	d="
M139.000000,10.513434 
	C135.541824,7.885076 132.083633,4.770154 128.812729,1.327616 
	C132.252457,1.000000 135.504913,1.000000 139.000000,1.000000 
	C139.000000,4.006597 139.000000,7.016734 139.000000,10.513434 
z"/>
<path fill="#000000" opacity="1.000000" stroke="none" 
	d="
M1.000000,129.486572 
	C4.459859,132.115479 7.919719,135.230957 11.189789,138.673218 
	C7.747546,139.000000 4.495092,139.000000 1.000000,139.000000 
	C1.000000,135.993408 1.000000,132.983276 1.000000,129.486572 
z"/>
<path fill="#000000" opacity="1.000000" stroke="none" 
	d="
M129.486572,139.000000 
	C132.114929,135.541763 135.229874,132.083527 138.672409,128.812653 
	C139.000000,132.252457 139.000000,135.504898 139.000000,139.000000 
	C135.993408,139.000000 132.983276,139.000000 129.486572,139.000000 
z"/>
<path fill="#FBFCFD" opacity="1.000000" stroke="none" 
	d="
M84.810898,107.329437 
	C80.761070,106.073105 77.099617,105.015877 73.529373,103.709412 
	C70.883133,102.741089 69.927818,100.894577 71.519829,98.222641 
	C72.029419,97.367363 72.451080,96.459557 72.909966,95.574226 
	C76.002312,89.608131 75.894676,89.958298 82.434387,91.962769 
	C86.799644,93.300743 91.525726,94.037949 96.087860,94.026878 
	C103.592171,94.008675 107.279228,89.513298 107.066795,80.612900 
	C101.043861,86.315674 94.152290,87.123619 87.009789,85.826950 
	C79.818878,84.521500 74.007545,80.793152 70.213326,74.400940 
	C64.213821,64.293411 66.355316,50.430611 74.970093,42.891296 
	C84.178986,34.832027 97.217049,34.611969 108.072426,42.916447 
	C107.037498,37.296333 110.397118,37.448448 113.951866,37.524429 
	C127.491066,37.813797 125.560326,35.598877 125.604134,49.086456 
	C125.642487,60.894501 125.861755,72.736855 125.084351,84.503479 
	C124.188316,98.065720 115.748695,106.419395 102.138306,107.779922 
	C96.572563,108.336281 90.875648,107.580460 84.810898,107.329437 
M85.235130,63.062717 
	C87.279205,69.251350 90.509727,71.886673 96.174843,71.986847 
	C101.352997,72.078407 105.620186,69.358902 107.014359,64.938522 
	C108.314392,60.816608 107.712524,56.975330 104.439995,54.001442 
	C100.804794,50.697987 96.473366,50.122074 91.931786,51.839943 
	C87.182693,53.636299 85.030685,57.248024 85.235130,63.062717 
z"/>
<path fill="#FCFDFD" opacity="1.000000" stroke="none" 
	d="
M62.377411,36.664646 
	C64.246277,38.118275 65.821663,39.335556 67.399742,40.554913 
	C57.982117,52.903484 57.560249,65.115181 63.889091,77.803108 
	C56.702290,85.950127 45.300751,87.032494 32.727425,80.292732 
	C32.727425,86.225563 32.555058,91.763855 32.786217,97.285255 
	C32.948364,101.158249 31.589708,102.509674 27.629978,102.525642 
	C14.786749,102.577408 14.787258,102.716812 14.787348,89.677963 
	C14.787467,72.365463 14.880052,55.052090 14.716024,37.741142 
	C14.679805,33.918732 15.762293,32.165276 19.757116,32.515980 
	C22.235100,32.733513 24.811272,32.216343 27.224651,32.666050 
	C29.198381,33.033836 30.996424,34.344456 33.732994,35.646606 
	C42.207195,29.637751 52.130817,30.162085 62.377411,36.664646 
M48.737335,47.499859 
	C41.815445,44.762360 36.398506,46.485588 33.628422,52.306282 
	C31.315847,57.165619 32.114952,63.577332 35.582947,67.227219 
	C38.958889,70.780228 43.167469,71.456642 47.454041,69.598961 
	C52.420231,67.446739 54.826603,63.037674 53.929722,57.881142 
	C53.324982,54.404251 50.958687,51.233757 48.737335,47.499859 
z"/>
<path fill="#376B95" opacity="1.000000" stroke="none" 
	d="
M85.199783,62.669739 
	C85.030685,57.248024 87.182693,53.636299 91.931786,51.839943 
	C96.473366,50.122074 100.804794,50.697987 104.439995,54.001442 
	C107.712524,56.975330 108.314392,60.816608 107.014359,64.938522 
	C105.620186,69.358902 101.352997,72.078407 96.174843,71.986847 
	C90.509727,71.886673 87.279205,69.251350 85.199783,62.669739 
z"/>
<path fill="#376B95" opacity="1.000000" stroke="none" 
	d="
M49.058868,47.713028 
	C50.958687,51.233757 53.324982,54.404251 53.929722,57.881142 
	C54.826603,63.037674 52.420231,67.446739 47.454041,69.598961 
	C43.167469,71.456642 38.958889,70.780228 35.582947,67.227219 
	C32.114952,63.577332 31.315847,57.165619 33.628422,52.306282 
	C36.398506,46.485588 41.815445,44.762360 49.058868,47.713028 
z"/>
</svg>