<svg width="128" height="128" viewBox="0 0 128 128" fill="none" xmlns="http://www.w3.org/2000/svg">
<rect width="128" height="128" rx="64" fill="#7577AB"/>
<path d="M23.579 50.123H37.783C41.952 50.158 44.973 51.36 46.846 53.727C48.719 56.094 49.337 59.327 48.701 63.426C48.454 65.299 47.906 67.136 47.058 68.938C46.245 70.74 45.115 72.365 43.666 73.814C41.899 75.651 40.009 76.817 37.995 77.312C35.981 77.807 33.896 78.054 31.741 78.054H25.381L23.367 88.124H16L23.579 50.123ZM29.78 56.165L26.6 72.065C26.812 72.1 27.024 72.118 27.236 72.118C27.483 72.118 27.731 72.118 27.978 72.118C31.37 72.153 34.197 71.818 36.458 71.111C38.719 70.369 40.239 67.79 41.016 63.373C41.652 59.663 41.016 57.525 39.108 56.96C37.235 56.395 34.886 56.13 32.059 56.165C31.635 56.2 31.229 56.218 30.84 56.218C30.487 56.218 30.116 56.218 29.727 56.218L29.78 56.165Z" fill="black"/>
<path d="M57.093 40H64.407L62.34 50.123H68.912C72.516 50.194 75.201 50.936 76.968 52.349C78.77 53.762 79.3 56.448 78.558 60.405L75.007 78.054H67.587L70.979 61.2C71.332 59.433 71.226 58.179 70.661 57.437C70.096 56.695 68.877 56.324 67.004 56.324L61.121 56.271L56.775 78.054H49.461L57.093 40Z" fill="black"/>
<path d="M86.412 50.123H100.616C104.785 50.158 107.806 51.36 109.679 53.727C111.552 56.094 112.17 59.327 111.534 63.426C111.287 65.299 110.739 67.136 109.891 68.938C109.078 70.74 107.948 72.365 106.499 73.814C104.732 75.651 102.842 76.817 100.828 77.312C98.814 77.807 96.729 78.054 94.574 78.054H88.214L86.2 88.124H78.833L86.412 50.123ZM92.613 56.165L89.433 72.065C89.645 72.1 89.857 72.118 90.069 72.118C90.316 72.118 90.564 72.118 90.811 72.118C94.203 72.153 97.03 71.818 99.291 71.111C101.552 70.369 103.072 67.79 103.849 63.373C104.485 59.663 103.849 57.525 101.941 56.96C100.068 56.395 97.719 56.13 94.892 56.165C94.468 56.2 94.062 56.218 93.673 56.218C93.32 56.218 92.949 56.218 92.56 56.218L92.613 56.165Z" fill="black"/>
</svg>
