<svg width="256" height="256" viewBox="0 0 256 256" fill="none" xmlns="http://www.w3.org/2000/svg">
<g clip-path="url(#clip0_2115_2360)">
<path d="M232.728 63.7904L232.721 16.2886C232.719 7.29368 225.425 0 216.43 0H170.404C165.649 0 161.13 2.07826 158.034 5.68784L27.1949 158.334C24.6652 161.287 23.2734 165.048 23.2734 168.937V216.439C23.2734 225.436 30.5671 232.73 39.5644 232.73H85.5976C90.3524 232.73 94.872 230.651 97.9672 227.042L228.804 74.396C231.336 71.4428 232.728 67.6816 232.728 63.7904Z" fill="#D249FC"/>
<path d="M232.727 58.0772V16.2909C232.727 7.29368 225.434 0 216.436 0H164.066C163.296 0 162.525 0.055856 161.762 0.162908L13.9869 21.2736C5.96248 22.4186 0 29.2934 0 37.3993V100.091C0 109.091 7.296 116.384 16.2956 116.382L90.4496 116.364C92.1996 116.364 93.938 116.082 95.5972 115.528L221.589 73.53C228.24 71.3124 232.727 65.0892 232.727 58.0772Z" fill="url(#paint0_linear_2115_2360)"/>
<path d="M256 239.702V103.829C256 97.3124 252.116 91.422 246.128 88.8552L96.1652 24.5829C94.138 23.7148 91.9528 23.2656 89.7468 23.2656H16.2909C7.29368 23.2656 0 30.5593 0 39.5565V111.42C0 114.639 0.95418 117.786 2.74153 120.464L88.3548 248.739C91.3756 253.268 96.4608 255.986 101.904 255.986L239.709 255.993C248.706 255.993 256 248.699 256 239.702Z" fill="url(#paint1_linear_2115_2360)"/>
<path d="M208 48H48V208H208V48Z" fill="black"/>
<path fill-rule="evenodd" clip-rule="evenodd" d="M93.1688 69.3208H67.9812V128.003H79.424V105.828H92.8368C97.0268 105.828 100.703 105.074 103.86 103.565C107.046 102.029 109.492 99.8756 111.196 97.1088C112.927 94.3424 113.794 91.0732 113.794 87.4688C113.794 83.8648 112.941 80.6944 111.236 77.9548C109.559 75.2152 107.156 73.0932 104.026 71.5844C100.896 70.0752 97.276 69.3208 93.1688 69.3208ZM97.442 95.2676C96.0164 95.966 94.3412 96.3164 92.4124 96.3164H79.4176V78.8372H92.4124C94.3412 78.8372 96.0164 79.1988 97.442 79.9264C98.8952 80.6224 100.011 81.6284 100.795 82.9444C101.578 84.2264 101.969 85.794 101.969 87.5544C101.969 89.3148 101.576 90.8664 100.795 92.2072C100.013 93.5228 98.8952 94.54 97.442 95.2676Z" fill="white"/>
<path d="M128.57 126.705C132.007 128.241 135.876 129.011 140.181 129.011C144.51 129.011 148.393 128.243 151.831 126.707C155.269 125.171 157.95 123.034 159.879 120.294C161.808 117.528 162.771 114.384 162.771 110.863C162.771 108.013 162.156 105.388 160.927 102.983C159.699 100.551 157.952 98.5237 155.688 96.9049C153.454 95.2857 150.87 94.2077 147.935 93.6781L136.283 91.4977C134.437 91.1361 132.998 90.4061 131.965 89.3173C130.93 88.2013 130.413 86.8289 130.413 85.2101C130.413 83.8113 130.833 82.5849 131.67 81.5209C132.508 80.4293 133.682 79.5761 135.192 78.9629C136.7 78.3501 138.364 78.0401 140.264 78.0401C142.164 78.0401 143.868 78.3589 145.377 79.0033C146.886 79.6165 148.06 80.4857 148.898 81.6017C149.765 82.7177 150.198 84.0065 150.198 85.4569H161.641C161.614 82.1045 160.664 79.1449 158.792 76.5717C156.948 73.9713 154.391 71.9437 151.121 70.4929C147.879 69.0401 144.192 68.3125 140.138 68.3125C136.085 68.3125 132.438 69.0513 129.198 70.5333C125.983 72.0177 123.454 74.0813 121.611 76.7377C119.794 79.3941 118.887 82.4233 118.887 85.8345C118.887 88.6009 119.446 91.1157 120.564 93.3793C121.682 95.6157 123.274 97.4865 125.343 98.9953C127.438 100.477 129.896 101.483 132.719 102.013L144.748 104.319C146.731 104.712 148.283 105.55 149.401 106.834C150.546 108.092 151.119 109.659 151.119 111.53C151.119 113.039 150.658 114.379 149.736 115.554C148.815 116.728 147.528 117.649 145.88 118.32C144.259 118.964 142.415 119.283 140.347 119.283C138.169 119.283 136.211 118.922 134.48 118.194C132.773 117.467 131.419 116.461 130.413 115.176C129.436 113.863 128.947 112.37 128.947 110.692H117.461C117.517 114.272 118.523 117.456 120.479 120.249C122.435 123.016 125.132 125.169 128.57 126.705Z" fill="white"/>
<path d="M67.9764 176.006H131.976V188.006H67.9764V176.006Z" fill="white"/>
</g>
<defs>
<linearGradient id="paint0_linear_2115_2360" x1="225.515" y1="-2.86953" x2="11.0103" y2="96.584" gradientUnits="userSpaceOnUse">
<stop offset="0.16" stop-color="#D249FC"/>
<stop offset="0.55" stop-color="#FF2D90"/>
</linearGradient>
<linearGradient id="paint1_linear_2115_2360" x1="15.9278" y1="16.8819" x2="250.747" y2="251.704" gradientUnits="userSpaceOnUse">
<stop offset="0.3" stop-color="#FF2D90"/>
<stop offset="0.7" stop-color="#7256FF"/>
</linearGradient>
<clipPath id="clip0_2115_2360">
<rect width="256" height="256" fill="white"/>
</clipPath>
</defs>
</svg>
