<svg xmlns="http://www.w3.org/2000/svg" xmlns:xlink="http://www.w3.org/1999/xlink" id="Layer_1" x="0" y="0" version="1.1" viewBox="0 0 70 70" width="70px" height="70px" xml:space="preserve" style="enable-background:new 0 0 70 70"><g><g><linearGradient id="SVGID_1_" x1=".558" x2="29.947" y1="46.846" y2="8.026" gradientUnits="userSpaceOnUse"><stop offset=".016" style="stop-color:#765af8"/><stop offset=".382" style="stop-color:#b345f1"/><stop offset=".758" style="stop-color:#fa3293"/><stop offset=".941" style="stop-color:#ff318c"/></linearGradient><polygon style="fill:url(#SVGID_1_)" points="39.6 15.2 36.3 5.2 11.9 0 0 13.5 37.2 32.5"/><linearGradient id="SVGID_2_" x1="2.73" x2="32.072" y1="48.379" y2="9.621" gradientUnits="userSpaceOnUse"><stop offset=".016" style="stop-color:#765af8"/><stop offset=".382" style="stop-color:#b345f1"/><stop offset=".758" style="stop-color:#fa3293"/><stop offset=".941" style="stop-color:#ff318c"/></linearGradient><polygon style="fill:url(#SVGID_2_)" points="28 41.4 27.3 20.6 0 13.5 6.7 53.6 28 53.4"/><linearGradient id="SVGID_3_" x1="50.857" x2="34.274" y1="46.405" y2="7.048" gradientUnits="userSpaceOnUse"><stop offset=".183" style="stop-color:#765af8"/><stop offset=".238" style="stop-color:#8655f6"/><stop offset=".345" style="stop-color:#9f4cf3"/><stop offset=".443" style="stop-color:#ae47f2"/><stop offset=".522" style="stop-color:#b345f1"/></linearGradient><polygon style="fill:url(#SVGID_3_)" points="22.1 41 23.4 24.5 43.2 4.2 60.9 7.4 70 30.1 60.5 39.5 45 37 35.4 47.1"/><linearGradient id="SVGID_4_" x1="63.266" x2="24.698" y1="57.339" y2="27.516" gradientUnits="userSpaceOnUse"><stop offset=".016" style="stop-color:#765af8"/><stop offset=".382" style="stop-color:#b345f1"/></linearGradient><polygon style="fill:url(#SVGID_4_)" points="43.2 4.2 14.8 29.4 20.3 61.8 43.9 70 70 54.4"/></g><g><rect style="fill:#000" width="43.2" height="43.2" x="13.4" y="13.4"/><rect style="fill:#fff" width="16.2" height="2.7" x="17.5" y="48.5"/><path style="fill:#fff" d="M17.3,19h7.3c4.3,0,6.9,2.5,6.9,6.2v0.1c0,4.2-3.2,6.3-7.3,6.3h-3l0,5.4h-3.9L17.3,19z M24.4,28 c2,0,3.1-1.2,3.1-2.7v-0.1c0-1.8-1.2-2.7-3.2-2.7h-3V28H24.4z"/><path style="fill:#fff" d="M32.5,34.4l2.3-2.8c1.6,1.3,3.3,2.2,5.4,2.2c1.6,0,2.6-0.6,2.6-1.7V32c0-1-0.6-1.5-3.6-2.3 c-3.6-0.9-6-1.9-6-5.5v-0.1c0-3.3,2.6-5.4,6.3-5.4c2.6,0,4.9,0.8,6.7,2.3l-2.1,3c-1.6-1.1-3.2-1.8-4.7-1.8c-1.5,0-2.3,0.7-2.3,1.6 v0.1c0,1.2,0.8,1.6,3.9,2.4c3.6,1,5.7,2.3,5.7,5.4v0.1c0,3.6-2.7,5.6-6.6,5.6C37.4,37.3,34.7,36.3,32.5,34.4"/></g></g></svg>
