<svg width="256" height="256" viewBox="0 0 256 256" fill="none" xmlns="http://www.w3.org/2000/svg">
<path d="M189.092 6.98145H66.9097C33.8128 6.98145 6.98242 33.8118 6.98242 66.9087V189.091C6.98242 222.187 33.8128 249.018 66.9097 249.018H189.092C222.188 249.018 249.019 222.187 249.019 189.091V66.9087C249.019 33.8118 222.188 6.98145 189.092 6.98145Z" fill="#3A78B1"/>
<path d="M48.6406 217.368V113.455C48.6406 76.8004 79.1279 29.8477 131.666 29.8477C184.204 29.8477 215.506 70.4004 215.506 111.942C215.506 183.273 147.666 195.2 147.666 195.2C147.666 195.2 151.855 188.509 151.855 178.037C151.855 167.564 147.201 161.746 147.201 161.746C147.201 161.746 182.11 152.437 182.11 111.128C182.11 69.8186 151.273 62.8367 132.073 62.8367C98.9097 62.8367 80.6988 91.0549 80.6988 111.884V217.717C80.6988 232.786 70.517 231.622 70.517 231.622H59.3461C59.3461 231.622 48.6406 231.622 48.6406 217.426V217.368Z" fill="white"/>
<path d="M119.214 206.313C134.638 206.313 147.142 193.809 147.142 178.385C147.142 162.961 134.638 150.458 119.214 150.458C103.791 150.458 91.2871 162.961 91.2871 178.385C91.2871 193.809 103.791 206.313 119.214 206.313Z" fill="white"/>
</svg>
