<svg width="256" height="256" viewBox="0 0 256 256" fill="none" xmlns="http://www.w3.org/2000/svg">
<g clip-path="url(#clip0_2115_2372)">
<path d="M189.83 186.36C191.46 172.79 190.97 170.81 201.07 173L203.64 173.23C211.41 173.58 221.57 171.98 227.64 169.21C240.49 163.25 248.11 153.29 235.44 155.91C206.54 161.87 204.44 152.08 204.44 152.08C234.97 106.78 247.74 49.2802 236.71 35.2102C206.67 -3.18985 154.66 14.9702 153.79 15.4502L153.51 15.5002C147.81 14.3002 141.51 13.6002 134.21 13.5002C121.13 13.3002 111.21 16.9302 103.67 22.6402C103.67 22.6402 10.9001 -15.5798 15.2101 70.7102C16.1301 89.0702 41.5101 209.71 71.8101 173.21C82.9001 159.87 93.6001 148.6 93.6001 148.6C98.9001 152.13 105.27 153.93 111.94 153.28L112.46 152.84C112.306 154.569 112.377 156.31 112.67 158.02C104.87 166.74 107.17 168.27 91.5701 171.48C75.7901 174.73 85.0701 180.52 91.1101 182.04C98.4501 183.88 115.43 186.48 126.91 170.42L126.45 172.25C129.51 174.7 129.3 189.85 129.75 200.67C130.2 211.49 130.91 221.6 133.12 227.55C135.33 233.5 137.92 248.85 158.42 244.55C175.55 240.88 188.65 235.59 189.85 186.45" fill="black"/>
<path d="M184.439 0.00554417C203.287 0.229175 227.471 5.9591 245.174 28.5876H245.17C250.329 35.1733 251.488 44.6536 251.357 53.2009C251.217 62.3768 249.52 73.1802 246.564 84.6227C241.548 104.044 232.65 126.288 220.314 147.068C223.393 146.988 227.605 146.555 233.264 145.388L234.822 145.099C236.401 144.842 238.03 144.693 239.635 144.748C241.535 144.812 244.858 145.199 247.873 147.49C251.648 150.358 252.984 154.655 252.623 158.42C252.328 161.5 250.983 163.894 250.064 165.279C248.126 168.203 245.266 170.791 242.482 172.865C239.54 175.057 236.014 177.172 232.162 178.959L232.131 178.97L232.1 178.986C224.122 182.626 212.184 184.369 203.158 183.963L202.92 183.955L202.682 183.931L200.951 183.775C200.898 184.222 200.845 184.692 200.787 185.193C200.724 185.731 200.654 186.3 200.584 186.896C199.961 211.763 196.379 228.083 188.9 238.728C180.811 250.243 169.576 253.148 160.67 255.056L160.627 255.068C154.221 256.412 148.359 256.395 143.103 254.853C137.742 253.28 133.711 250.322 130.771 246.912C125.615 240.931 123.462 232.402 123.049 231.291C121.474 227.05 120.632 221.977 120.096 217.115C119.544 212.11 119.241 206.574 119.014 201.115C118.866 197.562 118.789 194.095 118.678 190.756C106.388 196.107 93.9907 193.839 88.498 192.463L88.4863 192.459C86.1552 191.872 83.5786 190.904 81.248 189.627C79.7687 188.816 77.317 187.312 75.3183 184.896C71.3317 188.239 66.6317 190.531 61.1894 190.771C53.4626 191.112 47.2528 187.18 42.8261 182.881C34.2743 174.573 27.5607 160.264 22.4081 146.24C17.07 131.71 12.7439 115.56 9.6972 101.951C7.07589 90.2413 5.2579 79.7838 4.65814 73.6188L4.47845 71.2477C3.31127 47.8797 8.63657 30.7967 19.4081 19.4118C30.0874 8.12494 44.3835 4.28643 57.2402 3.58758C70.1129 2.88793 82.774 5.24241 91.9355 7.61492C96.0557 8.68191 99.5781 9.78896 102.24 10.6891C110.974 5.51706 121.618 2.5681 134.353 2.75945H134.357C134.363 2.75953 134.368 2.75546 134.373 2.75554L134.369 2.75945C141.117 2.85245 147.198 3.42659 152.846 4.43523C152.991 4.39065 153.14 4.33686 153.295 4.2907C155.113 3.74734 157.612 3.07601 160.643 2.42742C166.68 1.13556 175.019 -0.10616 184.439 0.00554417ZM184.185 21.4938C176.741 21.4055 170.036 22.3951 165.139 23.443C162.703 23.9643 160.757 24.489 159.447 24.8805C158.942 25.0317 158.542 25.1603 158.256 25.2555L157.428 25.7165L155.678 26.029L155.4 26.0759L153.342 26.447L151.295 26.0134C146.351 24.9727 140.75 24.3355 134.064 24.2438H134.045C123.199 24.0782 115.659 27.0397 110.158 31.2048L105.26 34.9157L99.5761 32.5759V32.5719H99.5722C99.5486 32.5624 99.5014 32.5434 99.4355 32.5173C99.3036 32.4649 99.0892 32.382 98.7988 32.2712C98.2149 32.0484 97.3249 31.7171 96.1738 31.318C93.8656 30.5178 90.5363 29.4523 86.5488 28.4196C78.451 26.3225 68.1887 24.5132 58.4081 25.0446C48.6112 25.5771 40.5203 28.3655 35.0175 34.1813C29.6079 39.8994 24.9557 50.3986 25.9433 70.1735L26.0761 71.8298C26.5396 76.3838 28.0691 85.655 30.666 97.2555C33.5836 110.289 37.6707 125.463 42.58 138.826C47.6744 152.692 53.0422 162.846 57.7988 167.466C59.1404 168.77 59.9515 169.149 60.2636 169.259C60.6707 169.091 61.7768 168.47 63.541 166.345L63.5488 166.341C69.2198 159.52 74.7738 153.246 78.9003 148.689C80.9661 146.408 82.6806 144.546 83.8847 143.252C84.4867 142.604 84.9641 142.099 85.291 141.752C85.4542 141.578 85.5789 141.441 85.666 141.349C85.7093 141.303 85.744 141.269 85.7675 141.244C85.7785 141.232 85.7884 141.223 85.7949 141.216C85.7982 141.213 85.8007 141.207 85.8027 141.205H85.8066V141.201L92.0331 134.646L99.5566 139.658C102.098 141.35 104.943 142.373 107.912 142.611L125.482 127.748L123.162 153.795C123.091 154.599 123.123 155.409 123.26 156.205L124.139 161.318L120.678 165.185C120.646 165.22 120.615 165.256 120.584 165.291L128.928 169.15L133.166 163.861C135.527 165.752 136.726 168.099 137.322 169.486C137.984 171.026 138.408 172.595 138.697 173.935C139.277 176.619 139.594 179.68 139.799 182.56C140.196 188.157 140.285 195.394 140.486 200.224C140.709 205.585 140.987 210.517 141.455 214.759C141.939 219.144 142.558 222.101 143.193 223.81C143.563 224.807 143.948 226.017 144.209 226.81C144.514 227.738 144.798 228.568 145.115 229.369C145.762 231.003 146.399 232.122 147.049 232.877C147.595 233.51 148.195 233.955 149.154 234.236C150.219 234.549 152.369 234.839 156.213 234.033C164.407 232.275 168.28 230.701 171.318 226.377C174.954 221.201 178.517 210.358 179.107 186.189L189.85 186.451L190.76 186.47L189.83 186.361L179.162 185.08C179.532 181.998 179.859 178.86 180.252 176.486C180.603 174.367 181.28 170.734 183.475 167.603C186.421 163.399 190.711 161.782 194.596 161.533C195.748 161.459 196.919 161.501 198.064 161.611C197.598 161.138 197.163 160.656 196.771 160.158C195.862 159.001 195.218 157.87 194.768 156.857C194.544 156.354 194.372 155.882 194.236 155.459C194.169 155.247 194.11 155.045 194.06 154.857C194.036 154.764 194.011 154.674 193.99 154.588C193.98 154.544 193.972 154.5 193.963 154.459L193.939 154.365C193.936 154.35 193.934 154.333 204.439 152.08L193.935 154.334L192.975 149.865L195.529 146.076C210.07 124.5 220.412 99.9344 225.756 79.2477C228.43 68.8943 229.763 59.8507 229.869 52.8727C229.922 49.3871 229.664 46.6643 229.236 44.6735C229.026 43.6943 228.795 42.984 228.592 42.4977C228.393 42.0226 228.252 41.8376 228.252 41.8376L228.248 41.8298C215.911 26.0599 199.069 21.6706 184.185 21.4938Z" fill="black"/>
<path d="M235.35 156C206.45 161.96 204.35 152.17 204.35 152.17C234.88 106.87 247.65 49.3701 236.63 35.3001C206.59 -3.09992 154.58 15.0701 153.71 15.5401L153.43 15.5901C147.077 14.3154 140.619 13.6425 134.14 13.5801C121.06 13.3801 111.14 17.0101 103.6 22.7201C103.6 22.7201 10.82 -15.4999 15.14 70.7901C16.06 89.1501 41.44 209.79 71.74 173.29C82.9 159.87 93.6 148.6 93.6 148.6C98.9 152.13 105.27 153.93 111.94 153.28L112.46 152.84C112.307 154.569 112.378 156.31 112.67 158.02C104.87 166.74 107.17 168.27 91.57 171.48C75.79 174.73 85.07 180.52 91.11 182.04C98.45 183.88 115.43 186.48 126.91 170.42L126.45 172.25C129.51 174.7 131.65 188.18 131.29 200.4C130.93 212.62 130.69 221 133.09 227.56C135.49 234.12 137.89 248.86 158.39 244.56C175.52 240.89 184.39 231.36 185.64 215.5C186.52 204.22 188.5 205.88 188.64 195.8L190.24 191.02C192.07 175.72 190.54 170.79 201.09 173.09L203.66 173.32C211.43 173.67 221.6 172.07 227.56 169.3C240.41 163.34 248.02 153.38 235.35 156Z" fill="#336791"/>
<path d="M128.241 161.09C130.217 161.146 131.773 162.794 131.718 164.77C131.32 178.934 131.369 193.129 131.863 204.61C132.109 210.353 132.466 215.377 132.925 219.36C133.398 223.469 133.947 226.108 134.441 227.329C135.829 230.764 137.747 235.123 141.409 238.215C144.855 241.124 150.306 243.279 159.628 241.29C167.865 239.525 172.911 237.044 176.245 233.579C179.566 230.128 181.614 225.256 182.909 217.758L189.23 167.704C189.477 165.742 191.268 164.351 193.23 164.598C195.19 164.846 196.579 166.637 196.331 168.598L190.003 218.77C189.997 218.822 189.989 218.874 189.98 218.926C188.574 227.092 186.155 233.607 181.405 238.544C176.959 243.165 170.846 246.015 162.773 247.922L161.128 248.29C149.943 250.678 142.154 248.214 136.792 243.688C131.648 239.346 129.192 233.457 127.8 230.012C126.903 227.793 126.283 224.27 125.812 220.18C125.326 215.965 124.961 210.753 124.71 204.915C124.208 193.231 124.16 178.865 124.562 164.571C124.617 162.594 126.265 161.035 128.241 161.09ZM57.4758 10.231C69.3247 9.55356 81.1934 11.694 90.007 13.9498C94.4339 15.0828 98.1378 16.2583 100.741 17.1529C102.043 17.6003 103.074 17.9778 103.784 18.2467C104.139 18.3807 104.415 18.4882 104.605 18.5631C104.7 18.6005 104.776 18.6322 104.827 18.6529L104.905 18.6842H104.909C104.911 18.685 104.917 18.6872 103.562 22.0006L104.913 18.6881C106.743 19.4364 107.623 21.5259 106.874 23.356C106.126 25.1855 104.036 26.0607 102.206 25.3131H102.198C102.191 25.3099 102.178 25.301 102.159 25.2935C102.122 25.2784 102.06 25.2549 101.98 25.2232C101.819 25.1598 101.572 25.0641 101.249 24.942C100.602 24.697 99.6429 24.3436 98.4172 23.9224C95.9606 23.0783 92.4423 21.9645 88.2336 20.8873C79.7754 18.7224 68.7057 16.7611 57.8859 17.3795C47.0607 17.9984 36.8891 21.1664 29.6516 28.8326C22.4453 36.4658 17.5665 49.1806 18.6164 70.1529C18.8304 74.4167 20.526 85.143 23.5031 98.442C26.4638 111.668 30.6305 127.167 35.6828 140.919C40.7967 154.838 46.6139 166.377 52.6359 172.227C55.597 175.103 58.1707 176.18 60.3899 176.083C62.5887 175.985 65.4455 174.688 68.8859 170.544C74.4589 163.827 79.7599 157.845 83.6672 153.544C85.6217 151.392 87.2298 149.659 88.3508 148.462C88.9113 147.863 89.3517 147.399 89.6516 147.083C89.8015 146.924 89.9171 146.801 89.9953 146.719C90.034 146.679 90.0649 146.647 90.0852 146.626C90.0948 146.616 90.1034 146.608 90.1086 146.602L90.1125 146.594H90.1164C91.4848 145.167 93.7517 145.117 95.1789 146.485C96.6059 147.853 96.6524 150.12 95.2844 151.547L95.257 151.575C95.2389 151.594 95.2113 151.623 95.175 151.661C95.1014 151.738 94.9918 151.856 94.8469 152.008C94.5567 152.314 94.1268 152.769 93.5774 153.356C92.4778 154.531 90.8952 156.238 88.968 158.36C85.1105 162.606 79.8803 168.505 74.3938 175.118C70.26 180.097 65.6942 183.015 60.7024 183.235C55.731 183.454 51.3409 180.951 47.6477 177.364C40.3606 170.286 34.0936 157.36 28.9602 143.387C23.7651 129.247 19.5224 113.422 16.5188 100.004C13.5322 86.6632 11.7105 75.4256 11.4641 70.5084C10.3542 48.3372 15.4591 33.4369 24.4445 23.9185C33.3995 14.4331 45.631 10.9083 57.4758 10.231ZM182.183 6.82088C199.475 6.66135 221.399 11.2382 237.773 30.7115L239.339 32.6451C242.888 37.1844 244.119 44.4978 243.991 52.731C243.86 61.1736 242.282 71.3898 239.421 82.4693C233.697 104.634 222.716 130.712 207.21 153.719C206.105 155.359 203.877 155.793 202.238 154.688C200.599 153.583 200.168 151.358 201.273 149.719C216.296 127.428 226.954 102.107 232.488 80.6803C235.255 69.9638 236.711 60.3331 236.831 52.6217C236.954 44.7013 235.649 39.5507 233.698 37.0553V37.0513C219.04 18.3297 198.813 13.8243 182.249 13.9771C173.973 14.0536 166.714 15.3024 161.722 16.4693C159.231 17.0516 157.321 17.6073 156.155 17.981C155.752 18.1103 155.451 18.2191 155.253 18.2896C155.098 18.3643 154.938 18.4359 154.769 18.4888C154.706 18.5085 154.567 18.5503 154.413 18.5865C154.369 18.5969 154.294 18.6132 154.202 18.6295C154.143 18.64 153.927 18.6778 153.652 18.6842C153.492 18.6843 153.069 18.6488 152.808 18.6021C152.328 18.4622 151.101 17.7002 150.503 16.9576C150.067 15.859 150.175 13.9568 150.484 13.2818C150.693 12.9665 151.084 12.5219 151.241 12.3795C151.504 12.1554 151.743 12.0212 151.792 11.9928C151.884 11.9402 151.96 11.9008 152.003 11.8795C152.091 11.8364 152.167 11.8045 152.21 11.7857C152.303 11.7457 152.401 11.7067 152.48 11.6763C152.798 11.5544 153.306 11.3768 153.968 11.1646C155.311 10.7341 157.407 10.1245 160.093 9.49666C165.457 8.2429 173.254 6.90341 182.183 6.82088ZM152.773 11.6178C152.705 11.6336 152.653 11.6467 152.632 11.6529C152.675 11.6396 152.718 11.6294 152.761 11.6178H152.773Z" fill="white"/>
<path d="M134.183 9.52782C163.551 9.95797 182.933 25.0573 194.577 39.9536C200.386 47.3851 204.309 54.8084 206.652 60.4458C207.819 63.2565 208.621 65.687 209.062 67.5044C209.275 68.3863 209.439 69.2669 209.48 70.0278C209.498 70.3732 209.505 70.9511 209.355 71.5708C209.267 71.9336 208.715 73.9739 206.448 74.438L205.163 74.4653C190.455 72.1132 183.709 74.611 180.78 77.9614C177.8 81.3716 177.398 87.1925 179.343 94.9888C181.231 102.555 185.04 110.804 188.698 117.821C190.516 121.307 192.266 124.434 193.691 126.989C194.709 128.815 195.646 130.494 196.277 131.766L196.8 132.891V132.899C198.593 137.263 200.851 140.333 202.882 142.895C203.856 144.124 204.94 145.432 205.769 146.61C206.608 147.804 207.469 149.245 207.843 150.918L207.847 150.922C207.849 150.931 207.849 150.941 207.851 150.95C208.089 151.253 208.729 151.919 210.241 152.543C213.4 153.847 220.312 154.943 234.527 152.012L235.796 151.778C237.036 151.576 238.178 151.481 239.202 151.516C240.488 151.56 242.058 151.822 243.351 152.805C244.897 153.982 245.457 155.722 245.3 157.348C245.165 158.747 244.525 159.984 243.898 160.93C242.609 162.873 240.482 164.882 238.007 166.727C235.478 168.611 232.379 170.474 228.956 172.063L228.96 172.067C223.083 174.799 213.99 176.384 206.398 176.469C202.593 176.512 198.848 176.184 195.902 175.27C193.298 174.462 189.549 172.586 189.308 168.426V168.422C189.034 163.644 189.719 159.975 191.245 157.176C192.811 154.305 195.053 152.726 197.132 151.79C198.138 151.336 199.107 151.035 199.886 150.809C199.907 150.803 199.928 150.795 199.948 150.79C199.935 150.77 199.924 150.747 199.909 150.727C199.238 149.772 198.404 148.773 197.269 147.34C195.079 144.578 192.346 140.894 190.179 135.618V135.614C189.844 134.807 188.919 133.127 187.441 130.477C186.022 127.935 184.223 124.72 182.351 121.129C178.629 113.99 174.492 105.135 172.394 96.7231C170.352 88.5406 169.923 79.505 175.39 73.2505C180.291 67.643 188.866 65.4613 201.378 66.7466C201.032 65.715 200.589 64.5218 200.038 63.1958C197.912 58.0782 194.298 51.2278 188.933 44.3638C178.227 30.6677 160.709 17.0779 134.077 16.688C120.889 16.4949 111.343 20.432 104.323 26.2739C97.2369 32.172 92.5026 40.2051 89.3625 48.4966C86.2258 56.7796 84.7465 65.142 84.0578 71.4731C83.7145 74.6289 83.5694 77.256 83.5109 79.0825C83.4817 79.9937 83.4725 80.7042 83.4719 81.1802C83.4715 81.4182 83.4743 81.5995 83.4758 81.7153C83.4765 81.7728 83.4792 81.8146 83.4797 81.8403V81.8677L83.4679 82.2348C83.3304 84.0439 81.8441 85.4922 79.9914 85.5395C78.0152 85.5897 76.3703 84.0273 76.3195 82.0513L79.9015 81.9575L76.3195 82.0473V81.977C76.3187 81.9361 76.3165 81.8785 76.3156 81.8052C76.3138 81.6575 76.3152 81.4443 76.3156 81.1723C76.3164 80.6283 76.3229 79.8428 76.3547 78.852C76.4181 76.8718 76.5749 74.0621 76.9406 70.6997C77.67 63.9938 79.2468 54.9889 82.6672 45.9575C86.0845 36.9344 91.4103 27.7041 99.7414 20.77C108.14 13.7796 119.372 9.31094 134.183 9.52782ZM201.882 157.684C201.216 157.877 200.624 158.069 200.073 158.317C199.039 158.783 198.173 159.428 197.53 160.606C196.865 161.826 196.261 163.958 196.441 167.719C196.616 167.86 197.049 168.128 198.023 168.43C199.948 169.027 202.848 169.348 206.32 169.309C213.279 169.231 221.282 167.738 225.945 165.571C228.941 164.18 231.613 162.566 233.73 160.989C234.673 160.286 235.46 159.607 236.112 158.997C236.067 159.006 236.022 159.014 235.976 159.024H235.972C221.189 162.072 212.603 161.262 207.511 159.161C206.033 158.551 204.856 157.829 203.921 157.075C203.255 157.303 202.414 157.53 201.882 157.684Z" fill="white"/>
<path d="M117.503 150.942C120.033 150.719 122.13 151.617 123.253 152.082L123.257 152.079C126.8 153.54 129.476 156.893 130.773 160.387C132.083 163.918 132.279 168.436 129.628 172.149C116.764 190.156 97.6527 187.08 90.0422 185.172H90.0383C88.2554 184.723 86.2573 183.968 84.4992 183.004C82.8788 182.116 80.8725 180.732 79.8117 178.766C79.2234 177.675 78.8533 176.263 79.2102 174.707C79.5594 173.188 80.4885 172.023 81.5305 171.172C83.4895 169.574 86.5954 168.469 90.6516 167.633L93.3547 167.051C99.1154 165.748 101.217 164.792 102.616 163.676C103.442 163.018 104.153 162.198 105.273 160.786C106.364 159.408 107.765 157.573 109.804 155.293L110.12 154.989C112.455 152.484 114.91 151.17 117.503 150.942ZM118.128 158.075C117.704 158.112 116.719 158.331 115.163 160.075C115.117 160.126 115.06 160.167 115.011 160.215C113.224 162.224 112.016 163.804 110.886 165.231C109.756 166.658 108.606 168.058 107.081 169.274C103.981 171.746 99.8471 173.05 92.0969 174.645C90.2505 175.025 88.8629 175.424 87.8469 175.809C87.5255 175.931 87.2521 176.049 87.0227 176.157C87.2854 176.338 87.5906 176.535 87.9406 176.727C89.1271 177.377 90.5526 177.916 91.7883 178.227H91.7844C98.8538 179.999 113.704 182.12 123.8 167.989C124.648 166.802 124.833 164.968 124.058 162.879C123.269 160.754 121.783 159.218 120.527 158.7V158.696C119.328 158.2 118.718 158.023 118.128 158.075Z" fill="white"/>
<path d="M98.1554 68.6176C103.404 67.4081 109.33 67.0207 114.499 69.016C119.944 71.1182 124.016 75.6582 125.612 83.0434C129.367 100.42 128.952 112.13 126.937 121.004C125.934 125.422 124.557 129.044 123.202 132.196C121.789 135.485 120.608 137.837 119.648 140.418C118.289 144.078 117.08 147.193 116.28 150.063C115.484 152.924 115.215 155.152 115.499 156.977C115.804 158.93 114.468 160.762 112.515 161.067C110.561 161.371 108.73 160.036 108.425 158.082C108.35 157.602 108.3 157.12 108.269 156.637C88.4639 156.133 72.7142 136.928 75.7648 115.118C77.9815 99.1789 76.3314 85.9522 76.3312 81.9613C76.3312 80.3983 77.2335 79.263 77.5617 78.8637C78.0412 78.2804 78.6379 77.734 79.2413 77.2426C80.4682 76.2435 82.1136 75.1613 83.9953 74.1137C87.7646 72.015 92.8407 69.8426 98.1554 68.6176ZM111.921 75.6957C108.666 74.4392 104.382 74.5301 99.7648 75.5941C95.2144 76.6428 90.7676 78.5409 87.4796 80.3715C85.8324 81.2887 84.564 82.1393 83.7609 82.7934C83.6746 82.8637 83.5986 82.9295 83.5304 82.9887C83.7588 87.4388 84.9583 101.002 82.8585 116.102V116.106C80.2987 134.395 93.6503 149.402 109.034 149.473C109.143 149.028 109.263 148.586 109.386 148.145C110.289 144.904 111.646 141.405 112.937 137.926V137.922C113.966 135.154 115.426 132.155 116.624 129.368C117.881 126.442 119.084 123.259 119.956 119.418C121.691 111.776 122.198 101.148 118.612 84.5551C117.474 79.2918 114.901 76.8461 111.921 75.6957Z" fill="white"/>
<path d="M103.223 81.4492C103.053 82.6192 105.373 85.7492 108.383 86.1692C111.393 86.5892 113.963 84.1492 114.133 82.9692C114.303 81.7892 111.983 80.5092 108.973 80.0892C105.963 79.6692 103.373 80.2892 103.223 81.4492Z" fill="white"/>
<path d="M104.749 79.0121C105.968 78.7228 107.524 78.6813 109.14 78.9067C110.751 79.1317 112.233 79.5913 113.327 80.1996C113.871 80.5018 114.377 80.8726 114.745 81.3207C115.116 81.7714 115.422 82.4026 115.316 83.141C115.228 83.7429 114.886 84.3163 114.519 84.7739C114.128 85.2607 113.606 85.7426 112.995 86.1567C111.78 86.9805 110.09 87.6131 108.218 87.352C106.365 87.0934 104.801 86.0224 103.745 84.9145C103.211 84.3541 102.771 83.7506 102.472 83.1723C102.202 82.6517 101.952 81.9643 102.042 81.2973H102.038C102.134 80.5543 102.606 80.0314 103.081 79.7035C103.556 79.3754 104.144 79.1558 104.749 79.0121ZM108.808 81.2739C107.413 81.0793 106.166 81.1347 105.3 81.3403C104.864 81.444 104.587 81.5712 104.441 81.6723C104.437 81.6746 104.432 81.674 104.429 81.6762C104.45 81.752 104.499 81.8811 104.597 82.0707C104.778 82.4213 105.075 82.8454 105.476 83.266C106.29 84.1201 107.39 84.8228 108.546 84.9848C109.684 85.1436 110.787 84.766 111.652 84.1801C112.08 83.8895 112.423 83.5666 112.655 83.2778C112.809 83.0864 112.881 82.9451 112.917 82.8676C112.911 82.8597 112.906 82.8498 112.898 82.8403C112.785 82.7036 112.555 82.5071 112.163 82.2895C111.388 81.8582 110.205 81.4689 108.808 81.2739Z" fill="white"/>
<path d="M194.865 79.0586C195.025 80.2286 192.715 83.3586 189.705 83.7786C186.695 84.1986 184.105 81.7586 183.955 80.5786C183.805 79.3986 186.105 78.1186 189.115 77.6986C192.125 77.2786 194.715 77.8986 194.865 79.0586Z" fill="white"/>
<path d="M189.034 77.1099C190.593 76.8925 192.068 76.9396 193.198 77.2075C193.761 77.3411 194.271 77.5381 194.663 77.8091C195.055 78.0793 195.388 78.464 195.456 78.977L195.46 79.3481C195.424 79.7293 195.27 80.1329 195.077 80.5044C194.807 81.0251 194.405 81.5845 193.905 82.1099C192.912 83.154 191.466 84.1333 189.788 84.3677C188.101 84.6031 186.555 84.034 185.425 83.27C184.859 82.8871 184.381 82.4463 184.03 82.0083C183.691 81.5853 183.424 81.1066 183.366 80.6528C183.301 80.1409 183.51 79.6787 183.816 79.3091C184.12 78.9404 184.558 78.6135 185.062 78.3325C186.073 77.7686 187.477 77.3272 189.034 77.1099ZM192.925 78.3638C191.97 78.1373 190.648 78.0874 189.198 78.2895C187.747 78.492 186.493 78.896 185.64 79.3716C185.212 79.61 184.912 79.8512 184.734 80.0669C184.556 80.2822 184.536 80.4266 184.546 80.5044C184.564 80.6407 184.675 80.9106 184.956 81.2622C185.227 81.6 185.617 81.9639 186.093 82.2856C187.048 82.9312 188.302 83.3725 189.624 83.188C190.955 83.0019 192.169 82.2073 193.042 81.2895C193.476 80.8339 193.811 80.3657 194.023 79.9575C194.247 79.526 194.29 79.2479 194.276 79.1411V79.1333C194.268 79.0685 194.215 78.9429 193.987 78.7856C193.758 78.6279 193.403 78.4773 192.925 78.3638Z" fill="white"/>
<path d="M205.424 67.376C207.398 67.2687 209.086 68.7811 209.194 70.7549C209.465 75.7349 208.925 79.8967 208.319 83.8877C207.709 87.9035 207.049 91.6715 206.897 96.3057C206.791 99.5686 207.126 103.02 207.569 106.794C208.003 110.491 208.547 114.536 208.749 118.634C209.159 126.959 208.201 135.965 202.167 144.981C201.067 146.625 198.841 147.066 197.198 145.966C195.555 144.866 195.114 142.64 196.213 140.997C201.088 133.714 201.963 126.43 201.596 118.985C201.409 115.199 200.913 111.489 200.459 107.626C200.015 103.839 199.616 99.9218 199.741 96.0752C199.909 90.9213 200.652 86.6688 201.237 82.8135C201.826 78.9323 202.275 75.365 202.045 71.1455C201.938 69.1717 203.451 67.484 205.424 67.376Z" fill="white"/>
</g>
<defs>
<clipPath id="clip0_2115_2372">
<rect width="256" height="256" fill="white"/>
</clipPath>
</defs>
</svg>
