<svg width="256" height="256" viewBox="0 0 256 256" fill="none" xmlns="http://www.w3.org/2000/svg">
<g clip-path="url(#clip0_2115_2386)">
<path d="M251.969 195.338L256 84.3125L185.462 68.3125L125.356 108.519L153.319 191.025L251.969 195.338Z" fill="url(#paint0_linear_2115_2386)"/>
<path d="M236.244 135.794L256 84.3125L186.575 53.7063L125.356 108.519L236.244 135.794Z" fill="url(#paint1_linear_2115_2386)"/>
<path d="M163.756 256L251.969 195.337L39.9313 101.15L0 214.675L163.756 256Z" fill="url(#paint2_linear_2115_2386)"/>
<path d="M0 97.8063L141.081 205.356L236.244 135.794L128.137 15.8625L33.95 0L0 97.8063Z" fill="url(#paint3_linear_2115_2386)"/>
<path d="M206 50H50V206H206V50Z" fill="url(#paint4_linear_2115_2386)"/>
<path d="M125.4 179.131H67.3313V188.669H125.4V179.131Z" fill="white"/>
<path d="M68 69.5H91.9188C105.962 69.5 114.281 77.8188 114.281 89.7813V90.0375C114.281 103.562 103.881 110.581 90.6188 110.581H80.7375V128H68V69.5ZM91.1375 98.8813C97.6375 98.8813 101.281 94.9812 101.281 90.0375V89.7813C101.281 84.0625 97.3813 80.9375 90.8813 80.9375H81V98.8813H91.1375Z" fill="white"/>
<path d="M131.069 128.781C126.475 128.781 122.662 127.912 119.625 126.181C116.506 124.444 113.994 122.369 112 120.025L120.062 111.012C121.706 112.831 123.437 114.306 125.087 115.344C126.819 116.387 128.637 116.906 130.719 116.906C133.144 116.906 135.056 116.125 136.437 114.569C137.825 113.006 138.519 110.581 138.519 107.2V69.5874H151.694V107.806C151.694 111.275 151.262 114.306 150.306 116.906C149.356 119.506 147.969 121.675 146.231 123.406C144.412 125.225 142.244 126.525 139.644 127.481C137.044 128.344 134.187 128.781 131.069 128.781Z" fill="white"/>
</g>
<defs>
<linearGradient id="paint0_linear_2115_2386" x1="218.626" y1="177.979" x2="181.536" y2="70.8316" gradientUnits="userSpaceOnUse">
<stop offset="0.000825369" stop-color="#FF318C"/>
<stop offset="1" stop-color="#FE6C54"/>
</linearGradient>
<linearGradient id="paint1_linear_2115_2386" x1="228.274" y1="61.9523" x2="195.729" y2="103.285" gradientUnits="userSpaceOnUse">
<stop stop-color="#FF546A"/>
<stop offset="0.7814" stop-color="#FE764A"/>
</linearGradient>
<linearGradient id="paint2_linear_2115_2386" x1="214.802" y1="228.24" x2="28.0186" y2="160.844" gradientUnits="userSpaceOnUse">
<stop offset="0.016776" stop-color="#FF318C"/>
<stop offset="0.8106" stop-color="#6B57FF"/>
</linearGradient>
<linearGradient id="paint3_linear_2115_2386" x1="72.4826" y1="178.617" x2="151.919" y2="38.3138" gradientUnits="userSpaceOnUse">
<stop offset="0.3305" stop-color="#FF318C"/>
<stop offset="0.9422" stop-color="#FDB60D"/>
</linearGradient>
<linearGradient id="paint4_linear_2115_2386" x1="127.792" y1="12.0842" x2="127.792" y2="151.985" gradientUnits="userSpaceOnUse">
<stop offset="0.0842986" stop-color="#878585"/>
<stop offset="0.5377"/>
</linearGradient>
<clipPath id="clip0_2115_2386">
<rect width="256" height="256" fill="white"/>
</clipPath>
</defs>
</svg>
