<svg xmlns="http://www.w3.org/2000/svg" xmlns:xlink="http://www.w3.org/1999/xlink" id="Layer_1" x="0" y="0" version="1.1" viewBox="0 0 70 70" width="70px" height="70px" xml:space="preserve" style="enable-background:new 0 0 70 70"><g><g><linearGradient id="SVGID_1_" x1="24.998" x2="66.656" y1="27.046" y2="27.046" gradientUnits="userSpaceOnUse"><stop offset="0" style="stop-color:#21d789"/><stop offset="1" style="stop-color:#07c3f2"/></linearGradient><polygon style="fill:url(#SVGID_1_)" points="49.1 11 69.5 28.1 62.2 43 49.8 39.6 39.2 39.6"/><linearGradient id="SVGID_2_" x1="-24.559" x2="61.22" y1="59.081" y2="-4.241" gradientUnits="userSpaceOnUse"><stop offset=".011" style="stop-color:#fcf84a"/><stop offset=".112" style="stop-color:#a7eb62"/><stop offset=".206" style="stop-color:#5fe077"/><stop offset=".273" style="stop-color:#32da84"/><stop offset=".306" style="stop-color:#21d789"/><stop offset=".577" style="stop-color:#21d789"/><stop offset=".597" style="stop-color:#21d789"/><stop offset=".686" style="stop-color:#20d68c"/><stop offset=".763" style="stop-color:#1ed497"/><stop offset=".835" style="stop-color:#19d1a9"/><stop offset=".904" style="stop-color:#13ccc2"/><stop offset=".971" style="stop-color:#0bc6e1"/><stop offset="1" style="stop-color:#07c3f2"/></linearGradient><polygon style="fill:url(#SVGID_2_)" points="28.5 22.1 24.5 43 24.1 50.2 14.2 54.5 0 56 4.3 10.7 29.9 0 45.7 10.4"/><linearGradient id="SVGID_3_" x1="9.33" x2="23.637" y1="77.654" y2="32.76" gradientUnits="userSpaceOnUse"><stop offset="0" style="stop-color:#21d789"/><stop offset=".164" style="stop-color:#24d788"/><stop offset=".305" style="stop-color:#2fd886"/><stop offset=".437" style="stop-color:#41da82"/><stop offset=".564" style="stop-color:#5adc7d"/><stop offset=".688" style="stop-color:#7ae077"/><stop offset=".809" style="stop-color:#a1e36e"/><stop offset=".925" style="stop-color:#cfe865"/><stop offset="1" style="stop-color:#f1eb5e"/></linearGradient><polygon style="fill:url(#SVGID_3_)" points="28.5 22.1 30.4 62.5 24 70 0 56 19.7 26.6"/><linearGradient id="SVGID_4_" x1="28.275" x2="59.409" y1="38.623" y2="-3.236" gradientUnits="userSpaceOnUse"><stop offset="0" style="stop-color:#21d789"/><stop offset=".061" style="stop-color:#24d788"/><stop offset=".113" style="stop-color:#2fd886"/><stop offset=".162" style="stop-color:#41da82"/><stop offset=".209" style="stop-color:#5add7d"/><stop offset=".255" style="stop-color:#79e077"/><stop offset=".258" style="stop-color:#7ce076"/><stop offset=".499" style="stop-color:#8ce173"/><stop offset=".925" style="stop-color:#b2e56b"/></linearGradient><polygon style="fill:url(#SVGID_4_)" points="54.9 19.1 30.6 19.1 52.1 0"/><linearGradient id="SVGID_5_" x1="75.889" x2="13.158" y1="43.95" y2="43.369" gradientUnits="userSpaceOnUse"><stop offset=".387" style="stop-color:#fcf84a"/><stop offset=".536" style="stop-color:#ecf451"/><stop offset=".826" style="stop-color:#c2e964"/><stop offset=".925" style="stop-color:#b2e56b"/></linearGradient><polygon style="fill:url(#SVGID_5_)" points="70 62.6 48.6 69.9 20.2 61.9 28.5 22.1 31.8 19.1 49.1 17.5 47.5 34.9 61.3 29.6"/></g><g><rect style="fill:#000" width="43.2" height="43.2" x="13.4" y="13.4"/><rect style="fill:#fff" width="16.2" height="2.7" x="17.5" y="48.5"/><path style="fill:#fff" d="M17.3,19.1h7.3c4.3,0,6.9,2.5,6.9,6.2v0.1c0,4.1-3.2,6.3-7.2,6.3h-3V37h-3.9V19.1z M24.4,28.1 c2,0,3.1-1.2,3.1-2.7v-0.1c0-1.8-1.2-2.7-3.2-2.7h-3v5.5H24.4z"/><path style="fill:#fff" d="M33.1,28.1L33.1,28.1c0-5.1,3.8-9.3,9.3-9.3c3.4,0,5.4,1.1,7.1,2.8l-2.5,2.9c-1.4-1.3-2.8-2-4.6-2 c-3,0-5.2,2.5-5.2,5.6V28c0,3.1,2.1,5.6,5.2,5.6c2,0,3.3-0.8,4.7-2.1l2.5,2.5c-1.8,2-3.9,3.2-7.3,3.2C37,37.3,33.1,33.2,33.1,28.1"/></g></g></svg>
