<svg xmlns="http://www.w3.org/2000/svg" width="64" height="64" fill="none" viewBox="0 0 64 64">
  <defs>
    <linearGradient id="a" x1="7.62141" x2="61.2476" y1="64.7192" y2="39.8558" gradientUnits="userSpaceOnUse">
      <stop offset=".1" stop-color="#00D886"/>
      <stop offset=".59" stop-color="#F0EB18"/>
    </linearGradient>
    <linearGradient id="b" x1="60.0186" x2="1.31317" y1="59.7778" y2="1.07229" gradientUnits="userSpaceOnUse">
      <stop offset=".3" stop-color="#F0EB18"/>
      <stop offset=".7" stop-color="#00C4F4"/>
    </linearGradient>
  </defs>
  <path fill="#00D886" d="m5.81934 48.0512.00174 11.8755c0 2.2493 1.82342 4.0721 4.07273 4.0721H21.4004c1.1887 0 2.3186-.5196 3.0924-1.422L57.202 24.4154c.6325-.7383.9804-1.6786.9804-2.6508V9.88913c0-2.24931-1.8234-4.07272-4.0727-4.07272H42.6013c-1.1887 0-2.3185.51956-3.0924 1.42196L6.7997 45.3998c-.63302.7384-.98036 1.6786-.98036 2.6514Z"/>
  <path fill="url(#a)" d="M5.81836 49.4825v10.4466c0 2.2493 1.82342 4.0727 4.07273 4.0727H22.9837c.1926 0 .3852-.0139.576-.0407l36.9438-5.2771c2.0066-.2868 3.4967-2.0049 3.4967-4.032V38.979c0-2.2499-1.824-4.0733-4.0739-4.0727l-18.5385.0046c-.4375 0-.8721.0704-1.287.2089L8.60294 45.6193c-1.66284.5544-2.78458 2.1108-2.78458 3.8638v-.0006Z"/>
  <path fill="url(#b)" d="M0 4.07273V38.041c0 1.6291.971054 3.1017 2.46807 3.7434L39.9587 57.8525c.5068.217 1.0531.3293 1.6046.3293h18.364c2.2493 0 4.0727-1.8234 4.0727-4.0727v-17.966c0-.8046-.2385-1.5912-.6854-2.2609L41.9119 1.81353C41.1561.681309 39.8854.001745 38.5245.001745L4.07273 0C1.82342 0 0 1.82342 0 4.07273Z"/>
  <path fill="#000" d="M52 12H12v40h40V12Z"/>
  <path fill="#fff" fill-rule="evenodd" d="M23.5363 16.9676h-6.4407v15.0055h2.9261v-5.6702h3.4296c1.0715 0 2.0115-.1929 2.8188-.5788.8148-.3927 1.4401-.9434 1.8759-1.6508.4427-.7074.6643-1.5434.6643-2.465 0-.9216-.2182-1.7324-.654-2.4329-.4289-.7005-1.0433-1.2431-1.8437-1.629-.8005-.3859-1.7261-.5788-2.7763-.5788Zm1.0927 6.6349c-.3646.1785-.7929.2681-1.2862.2681h-3.3229v-4.4695h3.3229c.4933 0 .9216.0924 1.2862.2784.3715.178.6569.4353.8573.7718.2004.3278.3003.7286.3003 1.1788 0 .4502-.1005.8469-.3003 1.1897-.1998.3365-.4858.5966-.8573.7827Z" clip-rule="evenodd"/>
  <path fill="#fff" d="M33.3821 31.2232c1.1651.6713 2.4656 1.0077 3.9017 1.0077v-.0011c1.2144 0 2.3295-.2251 3.3441-.6753 1.0146-.4501 1.8575-1.0783 2.5294-1.8862.6787-.8148 1.1328-1.7473 1.3614-2.7975H41.453c-.2004.5426-.5001 1.0221-.9003 1.4361-.3933.4076-.8688.7223-1.4257.9434-.557.221-1.1645.3324-1.822.3324-.886 0-1.6864-.221-2.4007-.6643-.7149-.4433-1.2759-1.0502-1.683-1.8219-.4002-.7781-.6-1.6543-.6-2.6259 0-.9715.1998-1.8437.6-2.6154.4077-.7786.9681-1.3896 1.683-1.8329.7143-.4432 1.5147-.6643 2.4007-.6643.6569 0 1.2644.1114 1.822.3325.5575.221 1.0324.5397 1.4257.9537.4002.4077.6999.8831.9003 1.4257h3.0657c-.2291-1.0502-.6827-1.9787-1.3614-2.7866-.6719-.8147-1.5148-1.4469-2.5294-1.8971-1.0146-.4502-2.1297-.6753-3.3441-.6753-1.4367 0-2.7372.3388-3.9017 1.0181-1.165.6712-2.0797 1.6009-2.7441 2.7866-.6643 1.1788-.9968 2.4972-.9968 3.955 0 1.4579.3325 2.7803.9968 3.966.6649 1.1789 1.5791 2.1073 2.7441 2.7866Z"/>
  <path fill="#fff" d="M16.9941 44.001h16v3h-16v-3Z"/>
</svg>
