<svg width="256" height="256" viewBox="0 0 256 256" fill="none" xmlns="http://www.w3.org/2000/svg">
<g clip-path="url(#clip0_2115_2396)">
<path d="M23.2773 192.205L23.2843 239.707C23.2843 248.704 30.578 255.995 39.5752 255.995H85.6016C90.3564 255.995 94.876 253.917 97.9712 250.307L228.808 97.6616C231.338 94.7084 232.73 90.9472 232.73 87.0584V39.5565C232.73 30.5593 225.436 23.2656 216.439 23.2656H170.405C165.65 23.2656 161.131 25.3439 158.036 28.9535L27.1988 181.599C24.6667 184.553 23.2773 188.314 23.2773 192.205Z" fill="#00D886"/>
<path d="M23.2734 197.93V239.716C23.2734 248.714 30.5671 256.007 39.5644 256.007H91.9348C92.7052 256.007 93.4756 255.952 94.2388 255.844L242.014 234.736C250.04 233.589 256.001 226.716 256.001 218.608V155.916C256.001 146.916 248.705 139.623 239.705 139.625L165.551 139.644C163.801 139.644 162.063 139.925 160.403 140.479L34.4118 182.477C27.7604 184.695 23.2734 190.918 23.2734 197.93Z" fill="url(#paint0_linear_2115_2396)"/>
<path d="M0 16.2909V152.164C0 158.68 3.88422 164.571 9.87228 167.138L159.835 231.41C161.862 232.278 164.047 232.727 166.253 232.727H239.709C248.706 232.727 256 225.434 256 216.436V144.572C256 141.354 255.046 138.208 253.258 135.529L167.648 7.25412C164.624 2.72524 159.542 0.00698 154.098 0.00698L16.2909 0C7.29368 0 0 7.29368 0 16.2909Z" fill="url(#paint1_linear_2115_2396)"/>
<path d="M208 48H48V208H208V48Z" fill="black"/>
<path fill-rule="evenodd" clip-rule="evenodd" d="M94.1451 67.8704H68.3823V127.892H80.0867V105.212H93.8051C98.0911 105.212 101.851 104.44 105.08 102.896C108.34 101.326 110.841 99.1228 112.584 96.2932C114.355 93.4636 115.241 90.1196 115.241 86.4332C115.241 82.7468 114.368 79.5036 112.625 76.7016C110.91 73.8996 108.452 71.7292 105.25 70.1856C102.048 68.642 98.3459 67.8704 94.1451 67.8704ZM98.5159 94.41C97.0575 95.124 95.3443 95.4824 93.3711 95.4824H80.0795V77.6044H93.3711C95.3443 77.6044 97.0575 77.974 98.5159 78.718C100.002 79.43 101.144 80.4592 101.945 81.8052C102.747 83.1164 103.146 84.7196 103.146 86.5204C103.146 88.3212 102.744 89.908 101.945 91.2792C101.146 92.6252 100.002 93.6656 98.5159 94.41Z" fill="white"/>
<path d="M133.528 124.893C138.189 127.578 143.391 128.924 149.135 128.924V128.919C153.993 128.919 158.453 128.019 162.511 126.218C166.57 124.418 169.941 121.905 172.629 118.673C175.344 115.414 177.16 111.684 178.075 107.483H165.812C165.01 109.654 163.812 111.572 162.211 113.228C160.638 114.858 158.735 116.117 156.508 117.001C154.28 117.885 151.85 118.331 149.22 118.331C145.676 118.331 142.474 117.447 139.617 115.674C136.758 113.9 134.513 111.473 132.885 108.386C131.284 105.274 130.485 101.769 130.485 97.8823C130.485 93.9963 131.284 90.5075 132.885 87.4207C134.516 84.3063 136.758 81.8623 139.617 80.0891C142.474 78.3163 145.676 77.4319 149.22 77.4319C151.848 77.4319 154.277 77.8775 156.508 78.7619C158.738 79.6459 160.638 80.9207 162.211 82.5767C163.812 84.2075 165.01 86.1091 165.812 88.2795H178.075C177.158 84.0787 175.344 80.3647 172.629 77.1331C169.941 73.8743 166.57 71.3455 162.511 69.5447C158.453 67.7439 153.993 66.8435 149.135 66.8435C143.388 66.8435 138.186 68.1987 133.528 70.9159C128.868 73.6007 125.21 77.3195 122.552 82.0623C119.895 86.7775 118.565 92.0511 118.565 97.8823C118.565 103.714 119.895 109.004 122.552 113.746C125.212 118.462 128.868 122.176 133.528 124.893Z" fill="white"/>
<path d="M67.9763 176.004H131.976V188.004H67.9763V176.004Z" fill="white"/>
</g>
<defs>
<linearGradient id="paint0_linear_2115_2396" x1="30.4856" y1="258.877" x2="244.99" y2="159.423" gradientUnits="userSpaceOnUse">
<stop offset="0.1" stop-color="#00D886"/>
<stop offset="0.59" stop-color="#F0EB18"/>
</linearGradient>
<linearGradient id="paint1_linear_2115_2396" x1="240.074" y1="239.111" x2="5.25268" y2="4.28916" gradientUnits="userSpaceOnUse">
<stop offset="0.3" stop-color="#F0EB18"/>
<stop offset="0.7" stop-color="#00C4F4"/>
</linearGradient>
<clipPath id="clip0_2115_2396">
<rect width="256" height="256" fill="white"/>
</clipPath>
</defs>
</svg>
