<svg width="113" height="113" viewBox="0 0 113 113" fill="none" xmlns="http://www.w3.org/2000/svg">
<g clip-path="url(#clip0_27_2)">
<path d="M55.4091 0.000919274C50.7846 0.0222173 46.3682 0.413137 42.4822 1.09467C31.0347 3.09917 28.9563 7.29477 28.9563 15.0322V25.2509H56.0082V28.6572H28.9563H18.8039C10.9419 28.6572 4.05769 33.3409 1.90439 42.2509C-0.579412 52.4639 -0.689582 58.8369 1.90439 69.5009C3.82733 77.4388 8.41959 83.0947 16.2816 83.0947H25.5827V70.8447C25.5827 61.9948 33.3082 54.1884 42.4822 54.1884H69.5026C77.0241 54.1884 83.0286 48.0503 83.0286 40.5634V15.0322C83.0286 7.76583 76.8438 2.30739 69.5026 1.09467C64.8555 0.327944 60.0337 -0.020379 55.4091 0.000919274ZM40.7797 8.21967C43.5739 8.21967 45.8558 10.5183 45.8558 13.3447C45.8558 16.161 43.5739 18.4384 40.7797 18.4384C37.9754 18.4384 35.7035 16.161 35.7035 13.3447C35.7035 10.5183 37.9754 8.21967 40.7797 8.21967Z" fill="url(#paint0_linear_27_2)"/>
<path d="M86.4022 28.6572V40.5634C86.4022 49.7942 78.5064 57.5634 69.5026 57.5634H42.4822C35.0809 57.5634 28.9563 63.8419 28.9563 71.1884V96.7197C28.9563 103.986 35.3313 108.26 42.4822 110.345C51.0453 112.84 59.2569 113.291 69.5026 110.345C76.313 108.39 83.0286 104.457 83.0285 96.7197V86.5009H56.0082V83.0947H83.0285H96.5545C104.417 83.0947 107.346 77.6593 110.08 69.5009C112.905 61.102 112.785 53.0251 110.08 42.2509C108.137 34.4935 104.427 28.6572 96.5545 28.6572H86.4022ZM71.2052 93.3134C74.0095 93.3134 76.2813 95.5908 76.2813 98.4072C76.2813 101.234 74.0095 103.532 71.2052 103.532C68.4109 103.532 66.129 101.234 66.129 98.4072C66.129 95.5908 68.4109 93.3134 71.2052 93.3134Z" fill="url(#paint1_linear_27_2)"/>
</g>
<defs>
<linearGradient id="paint0_linear_27_2" x1="-3.36866e-07" y1="-2.90036e-07" x2="61.9116" y2="53.2283" gradientUnits="userSpaceOnUse">
<stop stop-color="#5A9FD4"/>
<stop offset="1" stop-color="#306998"/>
</linearGradient>
<linearGradient id="paint1_linear_27_2" x1="70.5551" y1="97.548" x2="48.4388" y2="66.2798" gradientUnits="userSpaceOnUse">
<stop stop-color="#FFD43B"/>
<stop offset="1" stop-color="#FFE873"/>
</linearGradient>
<clipPath id="clip0_27_2">
<rect width="113" height="113" fill="white"/>
</clipPath>
</defs>
</svg>
