<svg width="256" height="256" viewBox="0 0 256 256" fill="none" xmlns="http://www.w3.org/2000/svg">
<path d="M202.13 74.8525L183.203 93.8589C214.281 125.067 214.281 175.282 183.203 206.02C152.126 237.228 102.122 237.228 71.5114 206.02C40.4338 174.812 40.4338 124.598 71.5114 93.8589L127.825 37.309V0L53.5191 74.6179C12.1603 116.15 12.1603 183.26 53.5191 224.792C94.8779 266.325 161.706 266.325 202.364 224.792C243.489 183.26 243.489 116.62 202.13 74.8525Z" fill="#EE4C2C"/>
<path d="M164.978 70.3941C172.592 70.3941 178.764 64.1961 178.764 56.5502C178.764 48.9043 172.592 42.7059 164.978 42.7059C157.364 42.7059 151.191 48.9043 151.191 56.5502C151.191 64.1961 157.364 70.3941 164.978 70.3941Z" fill="#EE4C2C"/>
</svg>
