<svg width="16" height="16" viewBox="0 0 16 16" fill="none" xmlns="http://www.w3.org/2000/svg">
<path d="M15.4667 6.3332L5.00006 0.533203L12.0001 10.9332L13.4667 9.99987L15.4667 6.3332Z" fill="url(#paint0_linear_715:12230)"/>
<path d="M15.4667 6.33321L12.4667 6.53321L12.0001 10.9332L13.4667 9.99987L15.4667 6.33321Z" fill="url(#paint1_linear_715:12230)"/>
<path d="M10 0.7332L7.06671 3.59987L8.26671 13.9999L11.0667 15.4665L15.4667 12.9332L10 0.7332Z" fill="url(#paint2_linear_715:12230)"/>
<path d="M10.9334 3.79987L8.33338 2.33321L7.06671 3.59987L9.13338 6.66654L11.8 6.53321L10.9334 3.79987Z" fill="url(#paint3_linear_715:12230)"/>
<path d="M8.26671 13.9999L13.3334 11.6665L15.4667 12.9332L13.3334 11.6665L10 0.7332L7.06671 3.59987L8.26671 13.9999Z" fill="url(#paint4_linear_715:12230)"/>
<path d="M11.8 6.5332L7.40002 6.7332L7.53336 7.7332L12 10.9332L12.9334 10.3332L11.8 6.5332Z" fill="url(#paint5_linear_715:12230)"/>
<path d="M10.0001 0.7332L13.3334 11.6665L15.4667 12.9332L10.0001 0.7332Z" fill="url(#paint6_linear_715:12230)"/>
<path d="M12.9334 10.3332L13.4667 9.99987L13.8667 9.3332L12.6 6.5332H12.4667L12.3334 8.19987L12.9334 10.3332Z" fill="url(#paint7_linear_715:12230)"/>
<path d="M13.3334 11.6665L8.26672 13.9999L11.0667 15.4665L15.4667 12.9332L13.3334 11.6665Z" fill="url(#paint8_linear_715:12230)"/>
<path d="M8.26672 13.9999L11.0667 15.4665L10.2001 13.1332L8.26672 13.9999Z" fill="url(#paint9_linear_715:12230)"/>
<path d="M5.00005 0.533203L0.533386 3.5332L2.13339 13.7999L6.46672 15.4665L12.0001 10.9332L5.00005 0.533203Z" fill="url(#paint10_linear_715:12230)"/>
<path d="M5.00005 0.533203L0.533386 3.5332L3.53339 3.9332L5.00005 0.533203Z" fill="url(#paint11_linear_715:12230)"/>
<path d="M5.00005 0.533203L0.533386 3.5332L3.53339 3.9332L5.00005 0.533203Z" fill="url(#paint12_linear_715:12230)"/>
<path d="M4.60005 6.7332L0.533386 3.5332L3.53339 3.9332L4.60005 6.7332Z" fill="url(#paint13_linear_715:12230)"/>
<path d="M6.2667 11.1332L2.13336 13.7999L6.4667 15.4665L12 10.9332L6.2667 11.1332Z" fill="url(#paint14_linear_715:12230)"/>
<path d="M6.26672 11.1332L3.53339 3.9332L5.00005 0.533203L12.0001 10.9332L6.26672 11.1332Z" fill="url(#paint15_linear_715:12230)"/>
<path d="M5.06673 6.1332L5.00006 0.533203L7.06673 3.59987L5.06673 6.1332Z" fill="url(#paint16_linear_715:12230)"/>
<path d="M8.26671 13.9999L12 10.9332L7.06671 3.59987L2.06671 8.59987L8.26671 13.9999Z" fill="url(#paint17_linear_715:12230)"/>
<path d="M5.53336 11.6665L2.13336 13.7999L6.4667 15.4665L8.2667 13.9999L5.53336 11.6665Z" fill="url(#paint18_linear_715:12230)"/>
<path d="M12.6666 3.33333H3.33331V12.6667H12.6666V3.33333Z" fill="url(#paint19_linear_715:12230)"/>
<path d="M8.66663 10.6667H4.66663V11.3333H8.66663V10.6667Z" fill="white"/>
<path d="M4.66663 4.66666H6.26663C6.73329 4.66666 7.13329 4.79999 7.33329 5.06666C7.53329 5.26666 7.66663 5.59999 7.66663 5.99999C7.66663 6.66666 7.33329 7.06666 6.86663 7.26666L7.73329 8.66666H6.86663L6.06663 7.39999H5.46663V8.66666H4.66663V4.66666ZM6.26663 6.59999C6.66663 6.59999 6.86663 6.39999 6.86663 5.99999C6.86663 5.59999 6.59996 5.39999 6.26663 5.39999H5.46663V6.59999H6.26663Z" fill="white"/>
<path d="M8.1333 4.66666H9.5333C10.6666 4.66666 11.4666 5.54675 11.4666 6.69765C11.4666 7.84854 10.6666 8.72864 9.5333 8.72864H8.1333V4.66666ZM8.9333 5.47905V7.91624H9.5333C10.2 7.91624 10.6 7.44234 10.6 6.69765C10.6 5.95295 10.1333 5.47905 9.5333 5.47905H8.9333Z" fill="white"/>
<defs>
<linearGradient id="paint0_linear_715:12230" x1="14.5357" y1="9.09294" x2="2.97339" y2="2.45774" gradientUnits="userSpaceOnUse">
<stop stop-color="#DD1265"/>
<stop offset="0.4834" stop-color="#DD1265"/>
<stop offset="0.9424" stop-color="#FDB60D"/>
</linearGradient>
<linearGradient id="paint1_linear_715:12230" x1="14.2261" y1="8.89974" x2="11.7518" y2="7.47987" gradientUnits="userSpaceOnUse">
<stop stop-color="#DD1265"/>
<stop offset="0.9424" stop-color="#A7004D"/>
</linearGradient>
<linearGradient id="paint2_linear_715:12230" x1="7.66058" y1="1.80967" x2="12.2439" y2="14.4659" gradientUnits="userSpaceOnUse">
<stop offset="0.1392" stop-color="#087CFA"/>
<stop offset="0.4757" stop-color="#DD1265"/>
<stop offset="0.9581" stop-color="#0855FA"/>
</linearGradient>
<linearGradient id="paint3_linear_715:12230" x1="11.384" y1="2.55074" x2="9.78771" y2="4.59401" gradientUnits="userSpaceOnUse">
<stop offset="0.2971" stop-color="#DD1265" stop-opacity="0.96"/>
<stop offset="1" stop-color="#FF318C" stop-opacity="0"/>
</linearGradient>
<linearGradient id="paint4_linear_715:12230" x1="13.5448" y1="6.37267" x2="11.4589" y2="7.56453" gradientUnits="userSpaceOnUse">
<stop offset="0.0490531" stop-color="#46DBFF" stop-opacity="0.96"/>
<stop offset="0.2971" stop-color="#008DFF" stop-opacity="0.96"/>
<stop offset="0.603" stop-color="#447DFF" stop-opacity="0.2533"/>
<stop offset="0.7127" stop-color="#5D77FF" stop-opacity="0"/>
</linearGradient>
<linearGradient id="paint5_linear_715:12230" x1="11.8502" y1="4.83827" x2="10.2486" y2="8.40414" gradientUnits="userSpaceOnUse">
<stop stop-color="#0855FA"/>
<stop offset="0.9424" stop-color="#DD1265" stop-opacity="0"/>
</linearGradient>
<linearGradient id="paint6_linear_715:12230" x1="10.2883" y1="0.8432" x2="14.5759" y2="12.6831" gradientUnits="userSpaceOnUse">
<stop offset="0.00724206" stop-color="#0861FA"/>
<stop offset="0.3721" stop-color="#5E51BE"/>
<stop offset="1" stop-color="#B72580"/>
</linearGradient>
<linearGradient id="paint7_linear_715:12230" x1="14.7268" y1="8.946" x2="11.4934" y2="8.0696" gradientUnits="userSpaceOnUse">
<stop stop-color="#DD1265"/>
<stop offset="0.9424" stop-color="#A7004D" stop-opacity="0"/>
</linearGradient>
<linearGradient id="paint8_linear_715:12230" x1="7.97712" y1="11.9103" x2="14.4263" y2="14.4325" gradientUnits="userSpaceOnUse">
<stop offset="0.3285" stop-color="#083DFA"/>
<stop offset="0.8559" stop-color="#0062FC"/>
</linearGradient>
<linearGradient id="paint9_linear_715:12230" x1="11.179" y1="13.5611" x2="8.39513" y2="15.7788" gradientUnits="userSpaceOnUse">
<stop offset="0.2194" stop-color="#0855FA"/>
<stop offset="1" stop-color="#07A3F4"/>
</linearGradient>
<linearGradient id="paint10_linear_715:12230" x1="-1.07161" y1="2.89987" x2="6.62265" y2="9.95554" gradientUnits="userSpaceOnUse">
<stop offset="0.2775" stop-color="#DD1265"/>
<stop offset="0.9684" stop-color="#FDB60D"/>
</linearGradient>
<linearGradient id="paint11_linear_715:12230" x1="2.45745" y1="0.952936" x2="3.55865" y2="5.04307" gradientUnits="userSpaceOnUse">
<stop offset="0.2301" stop-color="#DD1265"/>
<stop offset="0.8122" stop-color="#F3802A"/>
</linearGradient>
<linearGradient id="paint12_linear_715:12230" x1="2.41872" y1="5.66607" x2="2.83379" y2="0.97287" gradientUnits="userSpaceOnUse">
<stop offset="0.2973" stop-color="#FFA149" stop-opacity="0.96"/>
<stop offset="0.5961" stop-color="#EF5D56" stop-opacity="0.4888"/>
<stop offset="0.906" stop-color="#DD1265" stop-opacity="0"/>
</linearGradient>
<linearGradient id="paint13_linear_715:12230" x1="6.85005" y1="4.08647" x2="-0.269547" y2="5.81047" gradientUnits="userSpaceOnUse">
<stop offset="0.2535" stop-color="#F3A309"/>
<stop offset="0.8544" stop-color="#DD1265"/>
</linearGradient>
<linearGradient id="paint14_linear_715:12230" x1="6.50123" y1="10.2801" x2="7.83023" y2="15.0033" gradientUnits="userSpaceOnUse">
<stop stop-color="#DD1265"/>
<stop offset="0.7086" stop-color="#FDB60D"/>
<stop offset="0.9966" stop-color="#FDD800"/>
</linearGradient>
<linearGradient id="paint15_linear_715:12230" x1="2.93879" y1="4.62414" x2="12.1974" y2="8.7426" gradientUnits="userSpaceOnUse">
<stop offset="0.2775" stop-color="#DD1265"/>
<stop offset="0.9684" stop-color="#FDB60D"/>
</linearGradient>
<linearGradient id="paint16_linear_715:12230" x1="3.89413" y1="2.81094" x2="6.61453" y2="4.02107" gradientUnits="userSpaceOnUse">
<stop offset="0.00397648" stop-color="#FC4B57"/>
<stop offset="0.9603" stop-color="#FC801D" stop-opacity="0"/>
</linearGradient>
<linearGradient id="paint17_linear_715:12230" x1="8.20691" y1="2.50527" x2="6.70638" y2="12.0193" gradientUnits="userSpaceOnUse">
<stop offset="0.0257838" stop-color="#6B57FF" stop-opacity="0.6"/>
<stop offset="0.3698" stop-color="#DD1265"/>
<stop offset="0.9603" stop-color="#DD1265" stop-opacity="0"/>
</linearGradient>
<linearGradient id="paint18_linear_715:12230" x1="9.38856" y1="14.2477" x2="4.92276" y2="13.3463" gradientUnits="userSpaceOnUse">
<stop offset="0.00397648" stop-color="#F26522"/>
<stop offset="0.9603" stop-color="#FF45ED" stop-opacity="0"/>
</linearGradient>
<linearGradient id="paint19_linear_715:12230" x1="3.18053" y1="3.18054" x2="11.9808" y2="11.9808" gradientUnits="userSpaceOnUse">
<stop offset="0.0284813" stop-color="#5A1F3A"/>
<stop offset="0.0797561" stop-color="#4E1B32"/>
<stop offset="0.2774" stop-color="#260D18"/>
<stop offset="0.3795" stop-color="#16080E"/>
<stop offset="0.3907" stop-color="#15080E"/>
<stop offset="0.6833" stop-color="#060204"/>
<stop offset="0.9138"/>
</linearGradient>
</defs>
</svg>
