<svg xmlns="http://www.w3.org/2000/svg" width="64" height="64" fill="none" viewBox="0 0 64 64">
  <defs>
    <linearGradient id="a" x1="64.7178" x2="39.855" y1="56.3782" y2="2.75258" gradientUnits="userSpaceOnUse">
      <stop offset=".21" stop-color="#007DFE"/>
      <stop offset=".55" stop-color="#FFB700"/>
    </linearGradient>
    <linearGradient id="b" x1="59.7777" x2="1.07287" y1="3.98138" y2="62.6868" gradientUnits="userSpaceOnUse">
      <stop offset=".23" stop-color="#FFB700"/>
      <stop offset=".73" stop-color="#FF0A67"/>
    </linearGradient>
  </defs>
  <path fill="#007DFE" d="m48.0521 58.18 11.8755-.0017c2.2493 0 4.0722-1.8234 4.0722-4.0727V42.599c0-1.1887-.5196-2.3186-1.422-3.0924L24.4164 6.79677c-.7384-.63244-1.6786-.98036-2.6508-.98036H9.89011c-2.24931 0-4.07273 1.82341-4.07273 4.07272V21.3975c0 1.1887.51957 2.3185 1.42197 3.0924L45.4002 57.1991c.7383.633 1.6786.9804 2.6514.9804l.0005.0005Z"/>
  <path fill="url(#a)" d="M49.4812 58.1818h10.4465c2.2493 0 4.0727-1.8234 4.0727-4.0727V41.0164c0-.1925-.0139-.3851-.0407-.576L58.682 3.49673C58.3952 1.49004 56.6771 0 54.65 0H38.977c-2.2499 0-4.0733 1.824-4.0727 4.07389l.0047 18.53851c0 .4375.0704.8721.2088 1.2869l10.4995 31.4979c.5545 1.6629 2.1109 2.7846 3.8639 2.7846Z"/>
  <path fill="url(#b)" d="M4.07273 64H38.041c1.6291 0 3.1017-.9711 3.7434-2.4681l16.0681-37.4906c.217-.5068.3293-1.0531.3293-1.6046V4.07273C58.1818 1.82342 56.3584 0 54.1091 0h-17.966c-.8046 0-1.5912.238545-2.2609.685382L1.81353 22.0881C.681309 22.8439.001745 24.1146.001745 25.4755L0 59.9273C0 62.1766 1.82342 64 4.07273 64Z"/>
  <path fill="#000" d="M52 12H12v40h40V12Z"/>
  <path fill="#fff" fill-rule="evenodd" d="M43.4485 20.643c-.636-1.1382-1.5182-2.0359-2.6466-2.6787-1.1215-.6429-2.3928-.9643-3.814-.9643h-5.7104v14.9994h5.7104c1.4212 0 2.6925-.3214 3.814-.9642 1.1284-.6429 2.0106-1.5268 2.6466-2.665.6353-1.1519.9533-2.4376.9533-3.8702 0-1.4326-.318-2.7189-.9533-3.857Zm-2.5926 6.5087c-.3645.7502-.8822 1.3253-1.5538 1.7139-.6715.4023-1.4538.6026-2.3463.6026h-2.7533v-9.937h2.7533c.8925 0 1.6748.2009 2.3463.6021.6716.3885 1.1893.9648 1.5538 1.7144.3644.7502.5464 1.6335.5464 2.6517s-.182 1.9021-.5464 2.6523Z" clip-rule="evenodd"/>
  <path fill="#fff" fill-rule="evenodd" d="M20.0197 26.335h2.5243L25.7732 32h3.3536l-3.5712-6.0083c.0732-.0233.1479-.0446.2225-.0659.1681-.0481.3362-.0962.4881-.1665.8144-.4018 1.4395-.9511 1.8751-1.6605.4426-.71.6641-1.5267.6641-2.4646s-.2181-1.7276-.6537-2.4239c-.4288-.6962-1.0429-1.2455-1.843-1.6335-.8001-.3885-1.7254-.5762-2.7752-.5762h-6.4393V32h2.925l.0005-5.665Zm0-6.8974h3.3216c.493 0 .9212.0942 1.2856.2681.3714.1877.6572.4419.857.7771.1997.3346.3002.7232.3002 1.1784 0 .4551-.0999.8437-.3002 1.1921-.2003.3346-.4856.5895-.857.7766-.3644.1871-.7926.268-1.2856.268h-3.3216v-4.4603Z" clip-rule="evenodd"/>
  <path fill="#fff" d="M16.9941 44h16v3h-16v-3Z"/>
</svg>
