<svg width="256" height="256" viewBox="0 0 256 256" fill="none" xmlns="http://www.w3.org/2000/svg">
<g clip-path="url(#clip0_2115_2426)">
<path d="M192.208 232.72L239.71 232.713C248.708 232.713 255.999 225.42 255.999 216.422V170.396C255.999 165.641 253.921 161.122 250.311 158.026L97.6656 27.1871C94.712 24.6573 90.9512 23.2656 87.0624 23.2656H39.5605C30.5632 23.2656 23.2695 30.5593 23.2695 39.5565V85.59C23.2695 90.3448 25.3478 94.864 28.9574 97.9596L181.601 228.796C184.554 231.328 188.317 232.72 192.208 232.72Z" fill="#007DFE"/>
<path d="M197.925 232.727H239.711C248.708 232.727 256.002 225.434 256.002 216.436V164.066C256.002 163.296 255.946 162.525 255.839 161.762L234.728 13.9869C233.581 5.96016 226.708 0 218.6 0H155.908C146.908 0 139.615 7.296 139.617 16.2956L139.636 90.4496C139.636 92.1996 139.918 93.938 140.471 95.5972L182.469 221.589C184.687 228.24 190.913 232.727 197.925 232.727Z" fill="url(#paint0_linear_2115_2426)"/>
<path d="M16.2909 256H152.164C158.68 256 164.571 252.116 167.138 246.128L231.41 96.1652C232.278 94.138 232.727 91.9528 232.727 89.7468V16.2909C232.727 7.29368 225.434 0 216.436 0H144.572C141.354 0 138.208 0.95418 135.529 2.74153L7.25412 88.3524C2.72524 91.3756 0.00698 96.4584 0.00698 101.902L0 239.709C0 248.706 7.29368 256 16.2909 256Z" fill="url(#paint1_linear_2115_2426)"/>
<path d="M208 48H48V208H208V48Z" fill="black"/>
<path fill-rule="evenodd" clip-rule="evenodd" d="M173.794 82.572C171.25 78.0192 167.721 74.4284 163.208 71.8572C158.722 69.2856 153.636 68 147.952 68H125.11V127.998H147.952C153.636 127.998 158.722 126.712 163.208 124.141C167.721 121.569 171.25 118.034 173.794 113.481C176.335 108.873 177.607 103.73 177.607 98C177.607 92.2696 176.335 87.1244 173.794 82.572ZM163.424 108.607C161.966 111.608 159.895 113.908 157.208 115.462C154.522 117.072 151.393 117.873 147.823 117.873H136.81V78.1248H147.823C151.393 78.1248 154.522 78.9284 157.208 80.5332C159.895 82.0872 161.966 84.3924 163.424 87.3908C164.881 90.3916 165.609 93.9248 165.609 97.9976C165.609 102.07 164.881 105.606 163.424 108.607Z" fill="white"/>
<path fill-rule="evenodd" clip-rule="evenodd" d="M80.0788 105.34H90.176L103.093 128H116.507L102.222 103.967C102.515 103.874 102.814 103.788 103.112 103.703C103.785 103.511 104.457 103.318 105.065 103.037C108.322 101.43 110.823 99.2328 112.565 96.3952C114.336 93.5552 115.222 90.2884 115.222 86.5368C115.222 82.7852 114.349 79.6264 112.607 76.8412C110.892 74.0564 108.435 71.8592 105.235 70.3072C102.034 68.7532 98.3332 68.0024 94.134 68.0024H68.3768V128H80.0768L80.0788 105.34ZM80.0788 77.7504H93.3652C95.3372 77.7504 97.05 78.1272 98.5076 78.8228C99.9932 79.5736 101.136 80.5904 101.936 81.9312C102.734 83.2696 103.136 84.824 103.136 86.6448C103.136 88.4652 102.737 90.0196 101.936 91.4132C101.134 92.7516 99.9932 93.7712 98.5076 94.5196C97.05 95.268 95.3372 95.5916 93.3652 95.5916H80.0788V77.7504Z" fill="white"/>
<path d="M67.9764 176H131.976V188H67.9764V176Z" fill="white"/>
</g>
<defs>
<linearGradient id="paint0_linear_2115_2426" x1="258.871" y1="225.513" x2="159.42" y2="11.0103" gradientUnits="userSpaceOnUse">
<stop offset="0.21" stop-color="#007DFE"/>
<stop offset="0.55" stop-color="#FFB700"/>
</linearGradient>
<linearGradient id="paint1_linear_2115_2426" x1="239.111" y1="15.9255" x2="4.2915" y2="250.747" gradientUnits="userSpaceOnUse">
<stop offset="0.23" stop-color="#FFB700"/>
<stop offset="0.73" stop-color="#FF0A67"/>
</linearGradient>
<clipPath id="clip0_2115_2426">
<rect width="256" height="256" fill="white"/>
</clipPath>
</defs>
</svg>
