<svg width="256" height="256" viewBox="0 0 256 256" fill="none" xmlns="http://www.w3.org/2000/svg">
<path d="M213.7 51.4245L209.003 68.3546C208.755 69.2509 207.817 69.7688 206.923 69.503L128.149 46.0693C127.625 45.9135 127.058 46.024 126.632 46.365L48.6177 108.742C48.3899 108.924 48.1181 109.043 47.8296 109.088L1.4115 116.22C0.552004 116.352 -0.0607743 117.121 0.00480471 117.986L0.2065 120.645C0.270918 121.495 0.969693 122.158 1.82377 122.18L55.7403 123.569L56.3552 123.586L96.1945 102.369C96.7517 102.071 97.4307 102.115 97.9454 102.481L126.17 122.541C126.612 122.856 126.873 123.366 126.868 123.908L126.63 150.525C126.627 150.87 126.732 151.206 126.929 151.489L166.632 208.289C166.943 208.735 167.453 209 167.998 209H180.567C181.821 209 182.625 207.67 182.039 206.565L153.741 153.116C153.464 152.593 153.487 151.962 153.801 151.462L168.555 127.896C168.716 127.639 168.944 127.432 169.214 127.294L221.963 100.606C222.499 100.335 223.14 100.373 223.64 100.705L238.713 110.723C238.987 110.905 239.308 111.001 239.637 111.001H253.332C254.659 111.001 255.452 109.531 254.722 108.427L216.694 50.9528C215.907 49.7629 214.081 50.0505 213.7 51.4245Z" fill="white"/>
</svg>
