<svg width="256" height="256" viewBox="0 0 256 256" fill="none" xmlns="http://www.w3.org/2000/svg">
<path fill-rule="evenodd" clip-rule="evenodd" d="M128.486 200.448C58.0777 200.448 1 162.292 1 115.224C1 68.1561 58.0777 30 128.486 30C198.895 30 255.972 68.1561 255.972 115.224C255.972 162.292 198.895 200.448 128.486 200.448ZM148 63.3198C94.4835 63.3198 51.0996 89.4049 51.0996 121.583C51.0996 153.76 94.4835 179.845 148 179.845C201.517 179.845 241.011 162.012 241.011 121.583C241.011 81.1662 201.517 63.3198 148 63.3198Z" fill="url(#paint0_linear_2115_2436)"/>
<path fill-rule="evenodd" clip-rule="evenodd" d="M195.156 162.001C195.156 162.001 202.872 164.325 207.355 166.589C208.91 167.375 211.601 168.942 213.542 171.001C215.444 173.017 216.371 175.059 216.371 175.059L246.78 226.236L197.631 226.258L174.647 183.177C174.647 183.177 169.941 175.106 167.045 172.765C164.63 170.813 163.6 170.118 161.211 170.118C159.548 170.118 149.533 170.118 149.533 170.118L149.542 226.227L106.051 226.245V82.9199H193.388C193.388 82.9199 233.167 83.636 233.167 121.412C233.167 159.189 195.156 162.001 195.156 162.001ZM176.239 114.009L149.909 113.992L149.896 138.363L176.239 138.354C176.239 138.354 188.438 138.317 188.438 125.957C188.438 113.349 176.239 114.009 176.239 114.009Z" fill="url(#paint1_linear_2115_2436)"/>
<defs>
<linearGradient id="paint0_linear_2115_2436" x1="1" y1="30" x2="158.502" y2="265.607" gradientUnits="userSpaceOnUse">
<stop stop-color="#CBCED0"/>
<stop offset="1" stop-color="#84838B"/>
</linearGradient>
<linearGradient id="paint1_linear_2115_2436" x1="106.051" y1="82.9199" x2="249.364" y2="223.625" gradientUnits="userSpaceOnUse">
<stop stop-color="#276DC3"/>
<stop offset="1" stop-color="#165CAA"/>
</linearGradient>
</defs>
</svg>
