<svg width="256" height="256" viewBox="0 0 256 256" fill="none" xmlns="http://www.w3.org/2000/svg">
<circle cx="128" cy="128" r="128" fill="#75AADB"/>
<path d="M171.796,168.862h13.883v10.784h-21.196L129.363,127.008h-18.717v41.854h18.303v10.784H82.882v-10.784h15.824V76.106l-15.824,-1.942v-10.205c5.991,1.363,11.197,2.314,17.725,2.314c9.833,0,19.873,-2.314,29.707,-2.314c19.088,0,36.813,8.677,36.813,29.872c0,16.403,-9.833,26.815,-25.079,31.236L171.796,168.862zM110.647,116.597l10.04,0.207c24.501,0.372,33.921,-9.048,33.921,-21.609c0,-14.668,-10.618,-20.452,-24.088,-20.452c-6.363,0,-12.932,0.578,-19.873,1.363V116.597z" fill="#FFFFFF"/>
</svg>
