<svg xmlns="http://www.w3.org/2000/svg" xmlns:xlink="http://www.w3.org/1999/xlink" id="Layer_1" x="0" y="0" version="1.1" viewBox="0 0 70 70" width="70px" height="70px" xml:space="preserve" style="enable-background:new 0 0 70 70"><g><g><linearGradient id="SVGID_1_" x1="49.609" x2="30.346" y1="52.554" y2="7.163" gradientUnits="userSpaceOnUse"><stop offset=".172" style="stop-color:#ff1f51"/><stop offset=".28" style="stop-color:#ff3648"/><stop offset=".468" style="stop-color:#ff593b"/><stop offset=".646" style="stop-color:#ff7231"/><stop offset=".809" style="stop-color:#ff812b"/><stop offset=".941" style="stop-color:#ff8629"/></linearGradient><polygon style="fill:url(#SVGID_1_)" points="58.2 0 38.2 7.2 22.4 0 6.9 38.9 24.7 31.8 24.4 51.5 62.5 52.2 70 13.7"/><linearGradient id="SVGID_2_" x1="33.259" x2="25.105" y1="12.887" y2="33.436" gradientUnits="userSpaceOnUse"><stop offset=".022" style="stop-color:#9039d0"/><stop offset=".629" style="stop-color:#ff1f51"/></linearGradient><polygon style="fill:url(#SVGID_2_)" points="50.8 22.7 25.6 6.2 5.3 18.7 49.8 35.9"/><linearGradient id="SVGID_3_" x1=".29" x2="45.284" y1="11.224" y2="68.42" gradientUnits="userSpaceOnUse"><stop offset=".107" style="stop-color:#9039d0"/><stop offset=".387" style="stop-color:#ff1f51"/><stop offset=".629" style="stop-color:#ff1f51"/><stop offset=".66" style="stop-color:#ff3648"/><stop offset=".714" style="stop-color:#ff593b"/><stop offset=".765" style="stop-color:#ff7231"/><stop offset=".812" style="stop-color:#ff812b"/><stop offset=".85" style="stop-color:#ff8629"/></linearGradient><polygon style="fill:url(#SVGID_3_)" points="29.1 68.2 55.3 64.7 47 48.7 52.5 42 53.1 37.9 25.6 6.1 0 12.4 0 49.1 14.8 70 29.1 68.2 29.1 68.2 29.1 68.2 29.1 68.2"/></g><g><rect style="fill:#000" width="43.2" height="43.2" x="13.4" y="13.4"/><rect style="fill:#fff" width="16.2" height="2.7" x="17.5" y="48.5"/><polygon style="fill:#fff" points="34.6 19 38.9 19 43.6 26.6 48.3 19 52.6 19 52.6 36.9 48.6 36.9 48.6 25.2 43.6 32.9 43.5 32.9 38.5 25.3 38.5 36.9 34.6 36.9"/><path style="fill:#fff" d="M17.4,19h8.2c2.3,0,4,0.6,5.2,1.8c1,1,1.5,2.4,1.5,4.1v0.1c0,1.5-0.4,2.6-1.1,3.5 c-0.7,0.9-1.6,1.6-2.8,2l4.4,6.4h-4.6l-3.7-5.5h-3.3l0,5.5h-3.9V19z M25.4,27.7c1,0,1.7-0.2,2.2-0.7c0.5-0.5,0.8-1.1,0.8-1.8v-0.1 c0-0.9-0.3-1.5-0.8-1.9c-0.5-0.4-1.3-0.6-2.3-0.6h-3.9v5.1H25.4z"/></g></g></svg>
