<svg width="256" height="256" viewBox="0 0 256 256" fill="none" xmlns="http://www.w3.org/2000/svg">
<g clip-path="url(#clip0_2115_2440)">
<path d="M239.71 0H103.837C97.3204 0 91.43 3.88422 88.8628 9.87228L24.5907 159.835C23.7226 161.862 23.2734 164.047 23.2734 166.253V239.709C23.2734 248.706 30.5671 256 39.5644 256H111.428C114.647 256 117.793 255.046 120.472 253.258L248.746 167.645C253.276 164.624 255.994 159.539 255.994 154.096L256.001 16.2909C256.001 7.29368 248.707 0 239.71 0Z" fill="url(#paint0_linear_2115_2440)"/>
<path d="M58.0772 23.2656H16.2909C7.29368 23.2656 0 30.5593 0 39.5565V91.9272C0 92.6976 0.055856 93.468 0.162908 94.2312L21.2713 242.006C22.4186 250.033 29.291 255.993 37.3993 255.993H100.091C109.091 255.993 116.384 248.697 116.382 239.697L116.364 165.544C116.364 163.793 116.082 162.055 115.528 160.396L73.5324 34.4039C71.3148 27.7526 65.0892 23.2656 58.0772 23.2656Z" fill="url(#paint1_linear_2115_2440)"/>
<path d="M63.7904 23.2656L16.2886 23.2726C7.29368 23.2749 0 30.5686 0 39.5635V85.59C0 90.3448 2.07826 94.864 5.68784 97.9596L158.331 228.799C161.285 231.328 165.046 232.72 168.934 232.72H216.436C225.434 232.72 232.727 225.426 232.727 216.429V170.396C232.727 165.641 230.649 161.122 227.04 158.026L74.396 27.1894C71.4428 24.6573 67.6816 23.2656 63.7904 23.2656Z" fill="#FF8100"/>
<path d="M208 48H48V208H208V48Z" fill="black"/>
<path fill-rule="evenodd" clip-rule="evenodd" d="M167.581 68L155.668 107.386L154.768 112.528L153.739 107.386L141.397 68H125.112V128H136.64V85.1868L136.468 82.3584L150.268 128H158.754L172.724 82.0576L172.554 85.1868V128H184.125V68H167.581ZM105.065 103.014C108.323 101.444 110.82 99.2424 112.565 96.414C114.336 93.558 115.222 90.2704 115.222 86.5556C115.222 82.8408 114.349 79.6288 112.607 76.828C110.892 74.0272 108.435 71.8576 105.235 70.3148C102.034 68.772 98.3356 68.0004 94.1344 68.0004H68.3768V127.998H80.0768V105.326H90.1576L103.093 127.998H116.507L102.209 103.96C102.494 103.87 102.785 103.786 103.076 103.703C103.762 103.506 104.447 103.31 105.065 103.014ZM80.0812 77.728H93.3672C95.3396 77.728 97.0524 78.0976 98.51 78.8416C99.9956 79.5532 101.139 80.584 101.938 81.9272C102.737 83.238 103.138 84.8132 103.138 86.6404C103.138 88.468 102.739 90.0268 101.938 91.3976C101.139 92.7428 99.9956 93.7808 98.51 94.5268C97.0524 95.2384 95.3396 95.5988 93.3672 95.5988H80.0812V77.728ZM67.9764 176H131.976V188H67.9764V176Z" fill="white"/>
</g>
<defs>
<linearGradient id="paint0_linear_2115_2440" x1="16.8897" y1="240.074" x2="251.709" y2="5.25263" gradientUnits="userSpaceOnUse">
<stop offset="0.29" stop-color="#FF2358"/>
<stop offset="0.75" stop-color="#7256FF"/>
</linearGradient>
<linearGradient id="paint1_linear_2115_2440" x1="-2.86953" y1="30.4801" x2="96.582" y2="244.982" gradientUnits="userSpaceOnUse">
<stop offset="0.29" stop-color="#FF8100"/>
<stop offset="0.56" stop-color="#FF2358"/>
</linearGradient>
<clipPath id="clip0_2115_2440">
<rect width="256" height="256" fill="white"/>
</clipPath>
</defs>
</svg>
