<svg xmlns="http://www.w3.org/2000/svg" width="64" height="64" fill="none" viewBox="0 0 64 64">
  <defs>
    <linearGradient id="a" x1="4.22243" x2="62.9273" y1="60.0186" y2="1.31316" gradientUnits="userSpaceOnUse">
      <stop offset=".29" stop-color="#FF2358"/>
      <stop offset=".75" stop-color="#7256FF"/>
    </linearGradient>
    <linearGradient id="b" x1="-.717382" x2="24.1455" y1="7.62004" y2="61.2456" gradientUnits="userSpaceOnUse">
      <stop offset=".29" stop-color="#FF8100"/>
      <stop offset=".56" stop-color="#FF2358"/>
    </linearGradient>
  </defs>
  <path fill="url(#a)" d="M59.9275 0H25.9592c-1.6291 0-3.1017.971054-3.7435 2.46807L6.14767 39.9587c-.21702.5068-.32931 1.0531-.32931 1.6046v18.364C5.81836 62.1766 7.64178 64 9.89109 64H27.8571c.8046 0 1.5912-.2385 2.2609-.6854l32.0686-21.4033c1.1323-.7552 1.8118-2.0265 1.8118-3.3874l.0018-34.45117C64.0002 1.82342 62.1768 0 59.9275 0Z"/>
  <path fill="url(#b)" d="M14.5193 5.81641H4.07273C1.82342 5.81641 0 7.63982 0 9.88913V22.9818c0 .1926.013964.3852.040727.576L5.31782 60.5015c.28683 2.0067 2.00494 3.4967 4.032 3.4967H25.0228c2.2499 0 4.0733-1.824 4.0728-4.0739l-.0047-18.5384c0-.4376-.0704-.8722-.2089-1.287L18.3831 8.60099c-.5544-1.66284-2.1108-2.78458-3.8638-2.78458Z"/>
  <path fill="#FF8100" d="m15.9476 5.81641-11.87545.00174C1.82342 5.81873 0 7.64215 0 9.89088V21.3975c0 1.1887.519564 2.3185 1.42196 3.0924L39.5828 57.1997c.7384.6324 1.6786.9803 2.6508.9803h11.8755c2.2493 0 4.0727-1.8234 4.0727-4.0727V42.599c0-1.1887-.5195-2.3186-1.4219-3.0924L18.599 6.79735c-.7383-.63302-1.6786-.98036-2.6514-.98036v-.00058Z"/>
  <path fill="#000" d="M52 12H12v40h40V12Z"/>
  <path fill="#fff" fill-rule="evenodd" d="m41.8953 17-2.9783 9.8464-.225 1.2857-.2572-1.2857L35.3492 17h-4.0711v15h2.8818V21.2967l-.043-.7071L37.567 32h2.1214l3.4925-11.4856-.0424.7823V32h2.8928V17h-4.136Zm-15.6291 8.7536c.8145-.3925 1.4389-.943 1.8751-1.6501.4426-.714.6641-1.5359.6641-2.4646 0-.9287-.2181-1.7317-.6537-2.4319-.4288-.7002-1.0429-1.2426-1.843-1.6283-.8001-.3857-1.7248-.5786-2.7751-.5786h-6.4394v14.9994h2.925v-5.6679h2.5202l3.2338 5.6679h3.3536l-3.5746-6.0094c.0714-.0227.144-.0435.2167-.0644.1715-.0491.3429-.0983.4973-.1721Zm-6.2459-6.3216h3.3215c.4931 0 .9213.0924 1.2857.2784.3714.1779.6572.4356.857.7714.1997.3277.3001.7215.3001 1.1783 0 .4569-.0998.8466-.3001 1.1893-.1998.3363-.4856.5958-.857.7823-.3644.1779-.7926.268-1.2857.268h-3.3215V19.432Zm-3.0262 24.5681h16v3h-16v-3Z" clip-rule="evenodd"/>
</svg>
