<?xml version="1.0" encoding="UTF-8"?>
<svg xmlns="http://www.w3.org/2000/svg" xmlns:xlink="http://www.w3.org/1999/xlink" width="112px" height="112px" viewBox="0 0 112 112" version="1.1">
<g id="surface1">
<path style=" stroke:none;fill-rule:nonzero;fill:rgb(0%,44.313726%,100%);fill-opacity:1;" d="M 17.5 -0.00390625 L 94.5 -0.00390625 C 104.164062 -0.00390625 112 7.832031 112 17.5 L 112 94.5 C 112 104.164062 104.164062 112 94.5 112 L 17.5 112 C 7.835938 112 0 104.164062 0 94.5 L 0 17.5 C 0 7.832031 7.835938 -0.00390625 17.5 -0.00390625 Z M 17.5 -0.00390625 "/>
<path style=" stroke:none;fill-rule:nonzero;fill:rgb(100%,100%,100%);fill-opacity:1;" d="M 44.929688 96.25 C 36.246094 94.398438 28.832031 89.546875 23.089844 81.972656 C 17.265625 74.28125 14.777344 65.4375 15.410156 54.667969 C 17.394531 36.148438 29.644531 22.785156 45.179688 18.707031 C 46.527344 18.410156 47.675781 17.671875 48.929688 18.3125 C 49.890625 18.800781 50.730469 19.644531 51.082031 20.476562 C 51.457031 21.359375 51.640625 26.910156 51.378906 29.238281 C 51.054688 32.0625 50.21875 32.945312 47.027344 33.832031 C 38.148438 36.878906 32.660156 44.007812 30.988281 52.058594 C 29.554688 60.917969 31.871094 69.898438 37.417969 75.570312 C 40.097656 78.257812 42.769531 79.824219 46.640625 80.972656 C 49.222656 81.738281 50.640625 82.691406 51.128906 83.988281 C 51.453125 84.847656 51.617188 90.855469 51.363281 92.582031 C 50.964844 95.285156 50.855469 95.507812 49.632812 96.066406 C 48.128906 96.753906 47.421875 96.78125 44.929688 96.25 Z M 60.074219 96.335938 C 59.148438 95.917969 58.378906 94.894531 58.0625 93.667969 C 58.023438 90.855469 57.355469 85.972656 58.367188 83.699219 C 58.929688 82.464844 59.757812 81.90625 62.082031 81.191406 C 68.433594 79.234375 73.308594 75.253906 76.058594 69.777344 C 79.378906 63.175781 79.605469 53.296875 76.601562 46.488281 C 73.867188 40.300781 68.925781 35.972656 62.097656 33.785156 C 59.449219 32.9375 58.511719 32.273438 58.226562 31.035156 C 57.925781 29.75 57.796875 25.101562 57.992188 22.609375 C 58.195312 19.988281 58.363281 19.625 59.832031 18.628906 C 60.9375 17.882812 61.46875 17.898438 64.976562 18.800781 C 75.941406 21.8125 84.679688 28.835938 89.773438 38.714844 C 95.296875 49.777344 95.503906 64.433594 90.292969 75.351562 C 85.144531 86.128906 75.183594 94.019531 63.824219 96.3125 C 61.382812 96.808594 61.113281 96.808594 60.074219 96.335938 Z M 60.074219 96.335938 "/>
</g>
</svg>
