<svg width="256" height="256" viewBox="0 0 256 256" fill="none" xmlns="http://www.w3.org/2000/svg">
<path d="M128.12 13.7178C65.1831 13.7178 13.959 64.9661 13.959 127.879C13.959 190.793 65.2073 242.041 128.12 242.041C191.034 242.041 242.282 190.793 242.282 127.879C242.282 64.9661 191.034 13.7178 128.12 13.7178ZM127.951 23.8612C129.903 23.9116 131.758 24.7253 133.121 26.1285C134.484 27.5317 135.246 29.4133 135.245 31.3721C135.245 33.3641 134.454 35.2747 133.045 36.6832C131.637 38.0917 129.726 38.8831 127.734 38.8831C125.742 38.8831 123.832 38.0917 122.423 36.6832C121.015 35.2747 120.223 33.3641 120.223 31.3721C120.223 30.3672 120.424 29.3724 120.815 28.4467C121.206 27.521 121.779 26.683 122.499 25.9826C123.22 25.2825 124.074 24.7338 125.01 24.3693C125.947 24.0049 126.947 23.8322 127.951 23.8612ZM145.147 36.2265C158.332 38.6962 170.822 44.0065 181.749 51.7889C192.676 59.571 201.778 69.6386 208.422 81.2921L199.559 101.289C198.037 104.743 199.607 108.8 203.037 110.346L220.087 117.905C220.616 123.235 220.681 128.6 220.28 133.941H210.789C209.847 133.941 209.461 134.569 209.461 135.487V139.834C209.461 150.074 203.689 152.32 198.617 152.876C193.787 153.431 188.45 150.847 187.773 147.9C184.924 131.888 180.19 128.483 172.703 122.566C182.001 116.673 191.662 107.955 191.662 96.314C191.662 83.7314 183.04 75.8099 177.171 71.9216C168.911 66.4876 159.782 65.4008 157.319 65.4008H59.2662C72.8245 50.2543 90.9983 40.0003 110.973 36.2265L122.542 48.3503C125.15 51.0793 129.473 51.2001 132.202 48.5676L145.147 36.2265ZM38.3997 91.822C40.3538 91.8785 42.2088 92.6948 43.5707 94.0972C44.9328 95.4997 45.694 97.3779 45.6933 99.3329C45.6933 101.325 44.9019 103.235 43.4934 104.644C42.0849 106.052 40.1744 106.844 38.1824 106.844C36.1904 106.844 34.2798 106.052 32.8713 104.644C31.4629 103.235 30.6714 101.325 30.6714 99.3329C30.671 98.328 30.8721 97.3332 31.2631 96.4075C31.6541 95.4818 32.227 94.6437 32.9477 93.9434C33.6683 93.2432 34.5221 92.6945 35.4586 92.3301C36.3952 91.9657 37.3953 91.793 38.3997 91.822ZM217.479 92.1601C219.433 92.2166 221.288 93.0329 222.65 94.4353C224.012 95.8378 224.773 97.716 224.773 99.671C224.773 101.663 223.98 103.574 222.572 104.982C221.164 106.391 219.254 107.182 217.262 107.182C215.269 107.182 213.359 106.391 211.951 104.982C210.543 103.574 209.751 101.663 209.751 99.671C209.751 98.6661 209.951 97.6713 210.342 96.7456C210.734 95.8199 211.306 94.9819 212.026 94.2815C212.748 93.5813 213.6 93.0326 214.537 92.6682C215.474 92.3038 216.474 92.1311 217.479 92.1601ZM52.5522 93.3676H65.642V152.393H39.2209C35.9578 140.934 34.9408 128.953 36.2262 117.108L52.4073 109.911C55.8609 108.365 57.4307 104.332 55.885 100.879L52.5522 93.3676ZM107.182 93.9955H138.361C139.979 93.9955 149.736 95.8552 149.736 103.173C149.736 109.235 142.249 111.408 136.09 111.408H107.157L107.182 93.9955ZM107.182 136.405H131.067C133.24 136.405 142.732 137.033 145.751 149.156C146.693 152.876 148.794 164.999 150.219 168.888C151.644 173.235 157.416 181.929 163.574 181.929H202.554C199.941 185.428 197.084 188.737 194.004 191.831L178.137 188.426C174.442 187.629 170.795 189.996 169.998 193.691L166.231 211.273C154.115 216.76 140.958 219.568 127.658 219.508C114.358 219.445 101.228 216.511 89.165 210.91L85.3975 193.328C84.6005 189.633 80.9779 187.266 77.2828 188.063L61.7537 191.396C58.872 188.424 56.1932 185.261 53.7356 181.929H129.256C130.101 181.929 130.68 181.784 130.68 180.987V154.276C130.68 153.503 130.101 153.334 129.256 153.334H107.157L107.182 136.405ZM72.3318 197.579C74.2859 197.635 76.1409 198.451 77.5028 199.854C78.8649 201.257 79.6261 203.136 79.6254 205.09C79.6254 207.082 78.834 208.993 77.4255 210.401C76.017 211.809 74.1064 212.601 72.1145 212.601C70.1225 212.601 68.2119 211.809 66.8034 210.401C65.3949 208.993 64.6035 207.082 64.6035 205.09C64.603 204.085 64.8042 203.09 65.1952 202.165C65.5862 201.238 66.1591 200.4 66.8797 199.699C67.6004 198.999 68.4541 198.451 69.3907 198.086C70.3273 197.723 71.3274 197.55 72.3318 197.579ZM183.547 197.917C185.501 197.974 187.356 198.789 188.718 200.192C190.08 201.595 190.841 203.474 190.84 205.428C190.84 207.42 190.049 209.331 188.641 210.739C187.232 212.147 185.322 212.939 183.33 212.939C181.338 212.939 179.427 212.147 178.019 210.739C176.61 209.331 175.819 207.42 175.819 205.428C175.818 204.423 176.02 203.428 176.41 202.503C176.801 201.576 177.374 200.738 178.095 200.037C178.816 199.337 179.669 198.789 180.606 198.424C181.542 198.06 182.542 197.888 183.547 197.917Z" fill="white"/>
<path fill-rule="evenodd" clip-rule="evenodd" d="M235.906 127.879C235.906 156.466 224.551 183.882 204.336 204.095C184.123 224.309 156.707 235.665 128.121 235.665C99.5342 235.665 72.1186 224.309 51.9047 204.095C31.6911 183.882 20.3351 156.466 20.3351 127.879C20.3351 99.293 31.6911 71.8773 51.9047 51.6635C72.1186 31.4498 99.5342 20.0939 128.121 20.0939C156.707 20.0939 184.123 31.4498 204.336 51.6635C224.551 71.8773 235.906 99.293 235.906 127.879ZM233.878 117.47L250.687 127.879L233.878 138.289L248.32 151.789L229.82 158.72L241.365 174.781L221.826 177.969L230.038 195.985L210.258 195.285L214.798 214.557L195.526 210.017L196.226 229.796L178.21 221.585L175.022 241.123L158.962 229.579L152.03 248.079L138.53 233.636L128.121 250.446L117.712 233.636L104.211 248.079L97.28 229.579L81.2196 241.123L78.0317 221.585L60.0151 229.796L60.7155 210.017L41.443 214.557L45.9834 195.285L26.2038 195.985L34.4151 177.969L14.877 174.781L26.4211 158.72L7.92148 151.789L22.3637 138.289L5.55469 127.879L22.3637 117.47L7.92148 103.97L26.4211 97.0387L14.877 80.9784L34.4151 77.7904L26.2038 59.7738L45.9834 60.4742L41.443 41.2017L60.7155 45.7421L60.0151 25.9625L78.0317 34.1738L81.2196 14.6357L97.28 26.1799L104.211 7.68027L117.712 22.1225L128.121 5.31348L138.53 22.1225L152.03 7.68027L158.962 26.1799L175.022 14.6357L178.21 34.1738L196.226 25.9625L195.526 45.7421L214.798 41.2017L210.258 60.4742L230.038 59.7738L221.826 77.7904L241.365 80.9784L229.82 97.0387L248.32 103.97L233.878 117.47Z" fill="white"/>
<path d="M128.121 3.81348C128.64 3.8136 129.123 4.08197 129.396 4.52344L138.41 19.0811C138.688 19.1073 138.966 19.1337 139.243 19.1621L150.935 6.65625L151.075 6.52344C151.42 6.23862 151.878 6.12029 152.323 6.20898C152.832 6.31038 153.252 6.66824 153.435 7.1543L159.438 23.1787C159.703 23.2579 159.967 23.3378 160.231 23.4189L174.146 13.418L174.311 13.3154C174.704 13.1031 175.177 13.0761 175.597 13.25C176.076 13.4489 176.418 13.8822 176.502 14.3945L179.261 31.2988C179.512 31.432 179.763 31.5669 180.014 31.7021L195.604 24.5977C196.077 24.3822 196.628 24.4271 197.06 24.7158C197.492 25.0046 197.744 25.4962 197.726 26.0156L197.119 43.1309C197.339 43.3098 197.558 43.4901 197.776 43.6709L214.454 39.7422C214.96 39.623 215.492 39.7733 215.859 40.1406C216.227 40.5081 216.378 41.0401 216.259 41.5459L212.329 58.2236C212.51 58.4422 212.69 58.661 212.869 58.8809L229.984 58.2744C230.504 58.256 230.996 58.5084 231.285 58.9404C231.574 59.3724 231.618 59.9228 231.402 60.3955L224.297 75.9844C224.432 76.2352 224.567 76.4864 224.7 76.7383L241.606 79.498C242.119 79.5818 242.551 79.9247 242.75 80.4043C242.949 80.8838 242.886 81.432 242.583 81.8535L232.58 95.7676C232.661 96.0316 232.741 96.2959 232.82 96.5605L248.847 102.565C249.332 102.748 249.69 103.168 249.791 103.677C249.892 104.186 249.724 104.711 249.345 105.065L236.838 116.757C236.866 117.034 236.893 117.312 236.919 117.59L251.477 126.604C251.918 126.878 252.187 127.361 252.187 127.88C252.186 128.399 251.918 128.881 251.477 129.154L236.919 138.168C236.893 138.446 236.866 138.724 236.838 139.001L249.345 150.693C249.724 151.048 249.892 151.573 249.791 152.082C249.69 152.591 249.332 153.011 248.847 153.193L232.82 159.197C232.741 159.462 232.661 159.726 232.58 159.99L242.583 173.905C242.886 174.327 242.949 174.875 242.75 175.354C242.551 175.834 242.119 176.177 241.606 176.261L224.7 179.02C224.567 179.271 224.432 179.523 224.297 179.773L231.402 195.363C231.618 195.836 231.574 196.386 231.285 196.818C230.996 197.25 230.504 197.503 229.984 197.484L212.868 196.878C212.689 197.097 212.51 197.316 212.329 197.534L216.259 214.213C216.378 214.719 216.227 215.251 215.859 215.618C215.492 215.986 214.96 216.137 214.454 216.018L197.775 212.087C197.557 212.268 197.339 212.448 197.119 212.627L197.726 229.743C197.744 230.263 197.492 230.755 197.06 231.044C196.628 231.332 196.077 231.377 195.604 231.161L180.015 224.056C179.764 224.191 179.513 224.326 179.261 224.459L176.502 241.365C176.418 241.877 176.076 242.31 175.597 242.509C175.117 242.708 174.568 242.644 174.146 242.341L160.232 232.339C159.968 232.42 159.703 232.5 159.438 232.579L153.435 248.605C153.252 249.091 152.832 249.448 152.323 249.55C151.814 249.651 151.289 249.482 150.935 249.104L139.242 236.597C138.965 236.625 138.687 236.651 138.409 236.678L129.396 251.235C129.123 251.677 128.64 251.945 128.121 251.945C127.602 251.945 127.119 251.677 126.846 251.235L117.831 236.678C117.553 236.651 117.276 236.625 116.998 236.597L105.307 249.104C104.952 249.482 104.427 249.651 103.918 249.55C103.409 249.448 102.989 249.091 102.807 248.605L96.8018 232.579C96.5371 232.5 96.2728 232.42 96.0088 232.339L82.0947 242.341C81.6731 242.644 81.1252 242.708 80.6455 242.509C80.1659 242.31 79.823 241.878 79.7393 241.365L76.9805 224.46C76.7282 224.326 76.4768 224.191 76.2256 224.056L60.6367 231.161C60.164 231.376 59.6136 231.333 59.1816 231.044C58.7496 230.755 58.4972 230.263 58.5156 229.743L59.1221 212.628C58.9021 212.449 58.6835 212.268 58.4648 212.087L41.7871 216.018C41.2815 216.137 40.7502 215.985 40.3828 215.618C40.0154 215.251 39.8642 214.719 39.9834 214.213L43.9121 197.535C43.7313 197.317 43.5511 197.098 43.3721 196.878L26.2568 197.484C25.7375 197.503 25.2459 197.25 24.957 196.818C24.6683 196.386 24.6235 195.836 24.8389 195.363L31.9434 179.772C31.8082 179.522 31.6733 179.271 31.54 179.02L14.6357 176.261C14.1232 176.177 13.69 175.834 13.4912 175.354C13.2926 174.875 13.3562 174.327 13.6592 173.905L23.6602 159.99C23.579 159.726 23.4991 159.462 23.4199 159.197L7.39551 153.193C6.90946 153.011 6.5516 152.591 6.4502 152.082C6.3488 151.573 6.51828 151.048 6.89746 150.693L19.4033 139.002C19.3749 138.724 19.3485 138.447 19.3223 138.169L4.76465 129.154C4.32344 128.881 4.05482 128.399 4.05469 127.88C4.05469 127.361 4.32327 126.878 4.76465 126.604L19.3223 117.589C19.3485 117.311 19.3749 117.033 19.4033 116.756L6.89746 105.065C6.51831 104.711 6.3488 104.186 6.4502 103.677C6.55165 103.168 6.90952 102.748 7.39551 102.565L23.4199 96.5605C23.4991 96.2959 23.579 96.0316 23.6602 95.7676L13.6592 81.8535C13.3562 81.4319 13.2925 80.8839 13.4912 80.4043C13.69 79.9246 14.1232 79.5817 14.6357 79.498L31.54 76.7383C31.6733 76.4867 31.8082 76.236 31.9434 75.9854L24.8389 60.3955C24.6235 59.9227 24.6683 59.3724 24.957 58.9404C25.2459 58.5084 25.7375 58.256 26.2568 58.2744L43.3711 58.8809C43.5504 58.6607 43.731 58.4416 43.9121 58.2227L39.9834 41.5459C39.8642 41.0401 40.0154 40.5081 40.3828 40.1406C40.7502 39.7735 41.2815 39.6231 41.7871 39.7422L58.4639 43.6709C58.6828 43.4898 58.9019 43.3091 59.1221 43.1299L58.5156 26.0156C58.4972 25.4963 58.7496 25.0047 59.1816 24.7158C59.6136 24.4271 60.1639 24.3823 60.6367 24.5977L76.2266 31.7021C76.4774 31.5668 76.7286 31.4322 76.9805 31.2988L79.7393 14.3945L79.7822 14.2061C79.9104 13.7771 80.2257 13.424 80.6455 13.25C81.1251 13.0513 81.6731 13.115 82.0947 13.418L96.0088 23.4189C96.2728 23.3378 96.5371 23.2579 96.8018 23.1787L102.807 7.1543L102.886 6.97754C103.095 6.58238 103.473 6.29775 103.918 6.20898C104.427 6.1076 104.952 6.27711 105.307 6.65625L116.997 19.1621C117.275 19.1337 117.552 19.1073 117.83 19.0811L126.846 4.52344L126.957 4.36621C127.24 4.01891 127.667 3.81348 128.121 3.81348ZM134.704 236.965C132.518 237.097 130.323 237.165 128.121 237.165C125.919 237.165 123.723 237.097 121.537 236.965L128.121 247.596L134.704 236.965ZM104.767 245.287L113.303 236.155C108.936 235.558 104.622 234.698 100.383 233.586L104.767 245.287ZM155.857 233.586C151.619 234.698 147.305 235.558 142.938 236.155L151.474 245.287L155.857 233.586ZM82.3096 238.491L92.4717 231.188C88.3149 229.753 84.2488 228.068 80.2949 226.144L82.3096 238.491ZM175.945 226.144C171.991 228.068 167.925 229.753 163.769 231.188L173.931 238.491L175.945 226.144ZM18.835 127.88C18.835 125.678 18.9023 123.482 19.0342 121.296L8.40332 127.879L19.0342 134.463C18.9024 132.277 18.835 130.082 18.835 127.88ZM61.5986 227.426L72.9844 222.236C69.2043 220.028 65.5491 217.588 62.042 214.926L61.5986 227.426ZM194.198 214.925C190.691 217.587 187.036 220.028 183.256 222.236L194.642 227.426L194.198 214.925ZM43.459 212.541L55.6406 209.671C54.0015 208.218 52.4012 206.713 50.8438 205.155C49.2862 203.598 47.7808 201.998 46.3281 200.358L43.459 212.541ZM209.912 200.358C208.46 201.997 206.955 203.598 205.397 205.155C203.84 206.713 202.239 208.218 200.6 209.671L212.782 212.541L209.912 200.358ZM28.5742 194.4L41.0742 193.958C38.4115 190.45 35.9716 186.795 33.7627 183.015L28.5742 194.4ZM222.478 183.015C220.269 186.795 217.829 190.45 215.166 193.957L227.667 194.4L222.478 183.015ZM17.5078 173.689L29.8555 175.704C27.9311 171.75 26.247 167.683 24.8125 163.526L17.5078 173.689ZM231.429 163.527C229.994 167.684 228.309 171.75 226.385 175.704L238.732 173.689L231.429 163.527ZM10.7129 151.232L22.4141 155.617C21.3016 151.378 20.4413 147.064 19.8438 142.697L10.7129 151.232ZM236.396 142.696C235.799 147.063 234.94 151.377 233.827 155.616L245.528 151.232L236.396 142.696ZM10.7129 104.525L19.8438 113.062C20.4413 108.694 21.3016 104.381 22.4141 100.142L10.7129 104.525ZM233.827 100.142C234.94 104.38 235.799 108.694 236.396 113.062L245.528 104.525L233.827 100.142ZM17.5078 82.0684L24.8125 92.2314C26.247 88.0745 27.9311 84.0078 29.8555 80.0537L17.5078 82.0684ZM226.385 80.0537C228.309 84.0076 229.994 88.0737 231.429 92.2305L238.732 82.0684L226.385 80.0537ZM33.7627 72.7432C35.9713 68.9631 38.4108 65.3079 41.0732 61.8008L28.5742 61.3574L33.7627 72.7432ZM215.167 61.8008C217.829 65.3079 220.269 68.9631 222.478 72.7432L227.667 61.3574L215.167 61.8008ZM46.3281 55.3994C47.7808 53.7602 49.2862 52.1601 50.8438 50.6025C52.4013 49.045 54.0014 47.5396 55.6406 46.0869L43.459 43.2178L46.3281 55.3994ZM200.6 46.0869C202.239 47.5398 203.84 49.0448 205.397 50.6025H205.396C206.954 52.16 208.459 53.7603 209.912 55.3994L212.782 43.2178L200.6 46.0869ZM183.256 33.5215C187.036 35.7304 190.692 38.1703 194.199 40.833L194.642 28.333L183.256 33.5215ZM62.042 40.832C65.5492 38.1696 69.2043 35.7301 72.9844 33.5215L61.5986 28.333L62.042 40.832ZM80.2949 29.6143C84.249 27.6899 88.3157 26.0058 92.4727 24.5713L82.3096 17.2666L80.2949 29.6143ZM163.768 24.5713C167.925 26.0058 171.991 27.6899 175.945 29.6143L173.931 17.2666L163.768 24.5713ZM100.383 22.1729C104.622 21.0604 108.936 20.2001 113.303 19.6025L104.767 10.4717L100.383 22.1729ZM142.938 19.6025C147.306 20.2001 151.619 21.0604 155.858 22.1729L151.474 10.4717L142.938 19.6025ZM121.537 18.793C123.723 18.6611 125.919 18.5938 128.121 18.5938C130.323 18.5938 132.518 18.6611 134.704 18.793L128.121 8.16211L121.537 18.793ZM21.835 127.88C21.835 130.737 21.9511 133.583 22.1787 136.41L23.1533 137.014C23.5503 137.26 23.8104 137.676 23.8564 138.141C23.9024 138.605 23.7289 139.066 23.3877 139.385L22.5488 140.168C23.2104 145.853 24.3282 151.452 25.8799 156.915L26.9473 157.315C27.3847 157.479 27.7208 157.838 27.8564 158.285C27.9919 158.732 27.9112 159.216 27.6387 159.596L26.9727 160.521C28.724 165.947 30.9093 171.224 33.5068 176.3L34.6562 176.488C35.1176 176.564 35.518 176.849 35.7383 177.262C35.9585 177.674 35.9741 178.166 35.7803 178.591L35.2969 179.648C38.0593 184.602 41.224 189.345 44.7705 193.827L45.9307 193.786C46.3979 193.77 46.8459 193.972 47.1426 194.333C47.4393 194.694 47.5506 195.174 47.4434 195.629L47.1768 196.758C49.0154 198.918 50.9451 201.013 52.9658 203.034C54.9863 205.055 57.081 206.984 59.2412 208.822L60.3711 208.557C60.8262 208.449 61.3056 208.561 61.667 208.857C62.0284 209.154 62.2314 209.603 62.2148 210.07L62.1729 211.229C66.6545 214.776 71.3976 217.94 76.3506 220.702L77.4092 220.221L77.5723 220.157C77.9567 220.034 78.3778 220.069 78.7383 220.262C79.1505 220.482 79.4364 220.882 79.5117 221.344L79.6982 222.492C84.7744 225.09 90.0518 227.275 95.4785 229.026L96.4043 228.361L96.5518 228.268C96.9046 228.072 97.3249 228.025 97.7158 228.144C98.1626 228.279 98.5207 228.615 98.6846 229.053L99.084 230.12C104.547 231.672 110.147 232.789 115.832 233.45L116.616 232.612L116.742 232.492C117.05 232.231 117.453 232.103 117.859 232.144C118.324 232.19 118.741 232.45 118.987 232.847L119.59 233.82C122.418 234.048 125.263 234.165 128.121 234.165C130.979 234.165 133.824 234.048 136.651 233.82L137.255 232.847L137.354 232.704C137.605 232.388 137.975 232.184 138.382 232.144C138.847 232.098 139.307 232.271 139.626 232.612L140.409 233.45C146.094 232.789 151.693 231.671 157.156 230.119L157.557 229.053C157.721 228.615 158.079 228.279 158.526 228.144C158.973 228.008 159.458 228.089 159.837 228.361L160.762 229.026C166.188 227.275 171.465 225.09 176.541 222.492L176.729 221.344L176.768 221.174C176.878 220.785 177.142 220.454 177.503 220.262C177.915 220.042 178.407 220.027 178.832 220.221L179.89 220.702C184.843 217.94 189.586 214.775 194.068 211.229L194.027 210.07C194.011 209.603 194.213 209.154 194.574 208.857C194.936 208.561 195.415 208.449 195.87 208.557L196.999 208.822C199.159 206.984 201.255 205.055 203.275 203.034C205.296 201.014 207.225 198.918 209.063 196.758L208.798 195.629C208.691 195.174 208.802 194.694 209.099 194.333C209.395 193.972 209.844 193.77 210.312 193.786L211.47 193.827C215.016 189.345 218.181 184.602 220.943 179.648L220.462 178.591C220.268 178.166 220.283 177.674 220.503 177.262C220.723 176.849 221.124 176.564 221.585 176.488L222.733 176.3C225.331 171.224 227.516 165.948 229.268 160.521L228.603 159.596C228.33 159.217 228.249 158.732 228.385 158.285C228.52 157.838 228.857 157.479 229.294 157.315L230.361 156.915C231.913 151.452 233.03 145.853 233.691 140.168L232.854 139.385C232.512 139.066 232.339 138.605 232.385 138.141C232.431 137.676 232.691 137.26 233.088 137.014L234.062 136.41C234.289 133.583 234.406 130.737 234.406 127.88C234.406 125.022 234.289 122.176 234.062 119.349L233.088 118.746C232.691 118.5 232.431 118.083 232.385 117.618C232.339 117.153 232.512 116.694 232.854 116.375L233.691 115.591C233.03 109.906 231.913 104.306 230.361 98.8428L229.294 98.4434C228.857 98.2795 228.52 97.9214 228.385 97.4746C228.249 97.0276 228.33 96.5424 228.603 96.1631L229.268 95.2363C227.516 89.8099 225.331 84.533 222.733 79.457L221.585 79.2705C221.124 79.1952 220.723 78.9093 220.503 78.4971C220.283 78.0849 220.268 77.5932 220.462 77.168L220.943 76.1094C218.181 71.1563 215.017 66.4133 211.471 61.9316L210.312 61.9736C209.844 61.9902 209.395 61.7872 209.099 61.4258C208.802 61.0644 208.691 60.585 208.798 60.1299L209.063 59C207.225 56.8398 205.296 54.7451 203.275 52.7246V52.7236C201.255 50.703 199.159 48.7741 196.999 46.9355L195.87 47.2021C195.415 47.3094 194.936 47.1981 194.574 46.9014C194.213 46.6047 194.011 46.1566 194.027 45.6895L194.068 44.5293C189.586 40.9828 184.843 37.8181 179.89 35.0557L178.832 35.5391C178.407 35.7329 177.915 35.7173 177.503 35.4971C177.091 35.2768 176.805 34.8764 176.729 34.415L176.541 33.2656C171.465 30.6681 166.188 28.4827 160.762 26.7314L159.837 27.3975C159.458 27.67 158.973 27.7507 158.526 27.6152C158.079 27.4796 157.721 27.1435 157.557 26.7061L157.156 25.6387C151.693 24.087 146.094 22.9692 140.409 22.3076L139.626 23.1465C139.307 23.4877 138.847 23.6612 138.382 23.6152C137.917 23.5692 137.501 23.3091 137.255 22.9121L136.651 21.9375C133.824 21.7099 130.978 21.5938 128.121 21.5938C125.264 21.5938 122.418 21.7099 119.59 21.9375L118.987 22.9121C118.741 23.3092 118.324 23.5692 117.859 23.6152C117.395 23.6612 116.935 23.4877 116.616 23.1465L115.832 22.3076C110.147 22.9692 104.547 24.0859 99.084 25.6377L98.6846 26.7061C98.5207 27.1434 98.1626 27.4796 97.7158 27.6152C97.2688 27.7508 96.7836 27.6701 96.4043 27.3975L95.4785 26.7314C90.0519 28.4829 84.7744 30.6679 79.6982 33.2656L79.5117 34.415C79.4364 34.8764 79.1505 35.2768 78.7383 35.4971C78.3261 35.7172 77.8344 35.7329 77.4092 35.5391L76.3506 35.0557C71.3975 37.8179 66.6546 40.9822 62.1729 44.5283L62.2148 45.6895C62.2313 46.1567 62.0283 46.6047 61.667 46.9014C61.3056 47.198 60.8262 47.3094 60.3711 47.2021L59.2412 46.9355C57.0808 48.7741 54.9865 50.704 52.9658 52.7246C50.9452 54.7452 49.0153 56.8396 47.1768 59L47.4434 60.1299C47.5506 60.585 47.4393 61.0644 47.1426 61.4258C46.8459 61.7871 46.3979 61.9901 45.9307 61.9736L44.7695 61.9316C41.2234 66.4133 38.0591 71.1563 35.2969 76.1094L35.7803 77.168C35.9741 77.5932 35.9584 78.0849 35.7383 78.4971C35.518 78.9093 35.1176 79.1952 34.6562 79.2705L33.5068 79.457C30.9091 84.5332 28.7241 89.8107 26.9727 95.2373L27.6387 96.1631C27.9113 96.5424 27.992 97.0276 27.8564 97.4746C27.7208 97.9214 27.3846 98.2795 26.9473 98.4434L25.8799 98.8428C24.3281 104.306 23.2104 109.906 22.5488 115.591L23.3877 116.375C23.7289 116.694 23.9024 117.153 23.8564 117.618C23.8104 118.083 23.5504 118.5 23.1533 118.746L22.1787 119.349C21.9511 122.176 21.835 125.022 21.835 127.88ZM237.406 127.88C237.406 130.082 237.339 132.277 237.207 134.462L247.838 127.879L237.207 121.297C237.339 123.482 237.406 125.678 237.406 127.88Z" fill="white"/>
</svg>
