<svg width="256" height="256" viewBox="0 0 256 256" fill="none" xmlns="http://www.w3.org/2000/svg">
<g clip-path="url(#clip0_2115_2450)">
<path d="M23.2734 192.205L23.2804 239.707C23.2804 248.704 30.5741 255.995 39.5713 255.995H85.5976C90.3524 255.995 94.872 253.917 97.9672 250.307L228.806 97.6616C231.336 94.7084 232.728 90.9472 232.728 87.0584V39.5565C232.728 30.5593 225.434 23.2656 216.437 23.2656H170.404C165.649 23.2656 161.13 25.3439 158.034 28.9535L27.1949 181.599C24.6628 184.552 23.2734 188.314 23.2734 192.205Z" fill="#00D886"/>
<path d="M23.2734 197.93V239.716C23.2734 248.714 30.5671 256.007 39.5644 256.007H91.9348C92.7052 256.007 93.4756 255.951 94.2388 255.844L242.014 234.736C250.04 233.589 256.001 226.716 256.001 218.608V155.916C256.001 146.916 248.705 139.623 239.705 139.625L165.551 139.644C163.801 139.644 162.063 139.925 160.403 140.479L34.4118 182.477C27.7604 184.695 23.2734 190.918 23.2734 197.93Z" fill="url(#paint0_linear_2115_2450)"/>
<path d="M0 16.2909V152.164C0 158.68 3.88422 164.571 9.87228 167.138L159.835 231.41C161.862 232.278 164.047 232.727 166.253 232.727H239.709C248.706 232.727 256 225.434 256 216.436V144.572C256 141.354 255.046 138.207 253.258 135.529L167.645 7.25412C164.624 2.72524 159.542 0.00698 154.096 0.00698L16.2909 0C7.29368 0 0 7.29368 0 16.2909Z" fill="url(#paint1_linear_2115_2450)"/>
<path d="M208 48H48V208H208V48Z" fill="black"/>
<path fill-rule="evenodd" clip-rule="evenodd" d="M80.0791 105.339H90.1767L103.094 128H116.509L102.224 103.966C102.517 103.873 102.815 103.788 103.114 103.702C103.786 103.51 104.459 103.318 105.066 103.036C108.324 101.429 110.822 99.2316 112.567 96.394C114.337 93.554 115.224 90.2868 115.224 86.5352C115.224 82.7836 114.351 79.6244 112.608 76.8396C110.893 74.0544 108.437 71.8572 105.236 70.3028C102.036 68.7484 98.3367 68 94.1351 68H68.3767V128H80.0771L80.0791 105.339ZM80.0791 77.7508H93.3659C95.3383 77.7508 97.0511 78.1252 98.5087 78.8232C99.9943 79.5716 101.138 80.5908 101.939 81.932C102.738 83.2704 103.14 84.8248 103.14 86.6456C103.14 88.466 102.74 90.0204 101.939 91.414C101.138 92.7528 99.9967 93.772 98.5087 94.5204C97.0511 95.2712 95.3383 95.5928 93.3659 95.5928H80.0791V77.7508Z" fill="white"/>
<path fill-rule="evenodd" clip-rule="evenodd" d="M174.268 128L159.983 103.966C160.276 103.873 160.574 103.788 160.873 103.702C161.545 103.51 162.218 103.318 162.825 103.036C166.083 101.429 168.584 99.2316 170.326 96.394C172.096 93.554 172.983 90.2868 172.983 86.5352C172.983 82.7836 172.11 79.6244 170.368 76.8396C168.652 74.0544 166.196 71.8572 162.995 70.3028C159.795 68.7484 156.096 68 151.894 68H126.136V128H137.836V105.339H147.934L160.851 128H174.268ZM137.841 77.7508H151.128C153.1 77.7508 154.812 78.1252 156.27 78.8232C157.756 79.5716 158.899 80.5908 159.698 81.932C160.497 83.2704 160.899 84.8248 160.899 86.6456C160.899 88.466 160.5 90.0204 159.698 91.414C158.897 92.7528 157.756 93.772 156.27 94.5204C154.812 95.2712 153.1 95.5928 151.128 95.5928H137.841V77.7508Z" fill="white"/>
<path d="M67.9763 176H131.976V188H67.9763V176Z" fill="white"/>
</g>
<defs>
<linearGradient id="paint0_linear_2115_2450" x1="30.4856" y1="258.877" x2="244.99" y2="159.426" gradientUnits="userSpaceOnUse">
<stop offset="0.08" stop-color="#00D886"/>
<stop offset="0.46" stop-color="#FFAB00"/>
</linearGradient>
<linearGradient id="paint1_linear_2115_2450" x1="240.074" y1="239.111" x2="5.25264" y2="4.2915" gradientUnits="userSpaceOnUse">
<stop offset="0.19" stop-color="#FFAB00"/>
<stop offset="0.83" stop-color="#FF004C"/>
</linearGradient>
<clipPath id="clip0_2115_2450">
<rect width="256" height="256" fill="white"/>
</clipPath>
</defs>
</svg>
