<svg width="256" height="256" viewBox="0 0 256 256" fill="none" xmlns="http://www.w3.org/2000/svg">
<g clip-path="url(#clip0_2115_2446)">
<path d="M40 -0.0090332H216C238.089 -0.0090332 256 17.9017 256 39.9999V216C256 238.089 238.089 256 216 256H40C17.9107 256 0 238.089 0 216V39.9999C0 17.9017 17.9107 -0.0090332 40 -0.0090332Z" fill="#0071FF"/>
<path d="M102.696 220C82.8481 215.768 65.9017 204.679 52.7767 187.366C39.4642 169.786 33.7767 149.571 35.2231 124.955C39.7588 82.625 67.7588 52.0804 103.268 42.7589C106.348 42.0804 108.973 40.3929 111.839 41.8571C114.036 42.9732 115.955 44.9018 116.759 46.8036C117.616 48.8214 118.036 61.5089 117.437 66.8304C116.696 73.2857 114.786 75.3036 107.491 77.3304C87.1963 84.2946 74.6517 100.589 70.8302 118.991C67.5535 139.241 72.8481 159.768 85.5267 172.732C91.6517 178.875 97.7588 182.455 106.607 185.08C112.509 186.83 115.75 189.009 116.866 191.973C117.607 193.938 117.982 207.67 117.402 211.616C116.491 217.795 116.241 218.304 113.446 219.58C110.009 221.152 108.393 221.214 102.696 220ZM137.312 220.196C135.196 219.241 133.437 216.902 132.714 214.098C132.625 207.67 131.098 196.509 133.411 191.313C134.696 188.491 136.589 187.214 141.902 185.58C156.42 181.107 167.562 172.009 173.848 159.491C181.437 144.402 181.955 121.821 175.089 106.259C168.839 92.1161 157.545 82.2232 141.937 77.2232C135.884 75.2857 133.741 73.7679 133.089 70.9375C132.402 68 132.107 57.375 132.553 51.6786C133.018 45.6875 133.402 44.8571 136.759 42.5804C139.286 40.875 140.5 40.9107 148.518 42.9732C173.58 49.8571 193.553 65.9107 205.196 88.4911C217.821 113.777 218.295 147.277 206.384 172.232C194.616 196.866 171.848 214.902 145.884 220.143C140.303 221.277 139.687 221.277 137.312 220.196Z" fill="white"/>
</g>
<defs>
<clipPath id="clip0_2115_2446">
<rect width="256" height="256" fill="white"/>
</clipPath>
</defs>
</svg>
