<svg width="106" height="106" viewBox="0 0 106 106" fill="none" xmlns="http://www.w3.org/2000/svg">
<g clip-path="url(#clip0_78_2)">
<path d="M53.05 5.67999C26.99 5.67999 5.78 26.9 5.78 52.95C5.78 79 27 100.22 53.05 100.22C79.1 100.22 100.32 79 100.32 52.95C100.32 26.9 79.1 5.67999 53.05 5.67999ZM52.98 9.87999C53.7882 9.90089 54.5563 10.2378 55.1205 10.8188C55.6847 11.3998 56.0003 12.1789 56 12.99C56 13.8148 55.6723 14.6059 55.0891 15.1891C54.5059 15.7723 53.7148 16.1 52.89 16.1C52.0652 16.1 51.2741 15.7723 50.6909 15.1891C50.1077 14.6059 49.78 13.8148 49.78 12.99C49.7798 12.5739 49.8631 12.162 50.025 11.7787C50.1869 11.3954 50.4241 11.0484 50.7225 10.7584C51.0209 10.4685 51.3744 10.2413 51.7622 10.0904C52.15 9.93949 52.5641 9.86799 52.98 9.87999ZM60.1 15C65.5596 16.0226 70.7312 18.2214 75.2556 21.4438C79.78 24.6661 83.549 28.8347 86.3 33.66L82.63 41.94C82 43.37 82.65 45.05 84.07 45.69L91.13 48.82C91.349 51.0268 91.376 53.2485 91.21 55.46H87.28C86.89 55.46 86.73 55.72 86.73 56.1V57.9C86.73 62.14 84.34 63.07 82.24 63.3C80.24 63.53 78.03 62.46 77.75 61.24C76.57 54.61 74.61 53.2 71.51 50.75C75.36 48.31 79.36 44.7 79.36 39.88C79.36 34.67 75.79 31.39 73.36 29.78C69.94 27.53 66.16 27.08 65.14 27.08H24.54C30.154 20.8084 37.6791 16.5626 45.95 15L50.74 20.02C51.82 21.15 53.61 21.2 54.74 20.11L60.1 15ZM15.9 38.02C16.7091 38.0434 17.4772 38.3814 18.0411 38.9621C18.6051 39.5428 18.9203 40.3205 18.92 41.13C18.92 41.9548 18.5923 42.7459 18.0091 43.3291C17.4259 43.9123 16.6348 44.24 15.81 44.24C14.9852 44.24 14.1941 43.9123 13.6109 43.3291C13.0277 42.7459 12.7 41.9548 12.7 41.13C12.6998 40.7139 12.7831 40.302 12.945 39.9187C13.1069 39.5354 13.3441 39.1884 13.6425 38.8984C13.9409 38.6085 14.2944 38.3813 14.6822 38.2304C15.07 38.0795 15.4841 38.008 15.9 38.02ZM90.05 38.16C90.859 38.1834 91.627 38.5214 92.191 39.1021C92.755 39.6828 93.07 40.4605 93.07 41.27C93.07 42.0948 92.742 42.8859 92.159 43.4691C91.576 44.0523 90.785 44.38 89.96 44.38C89.135 44.38 88.344 44.0523 87.761 43.4691C87.178 42.8859 86.85 42.0948 86.85 41.27C86.85 40.8539 86.933 40.442 87.095 40.0587C87.257 39.6754 87.494 39.3284 87.792 39.0384C88.091 38.7485 88.444 38.5213 88.832 38.3704C89.22 38.2195 89.634 38.148 90.05 38.16ZM21.76 38.66H27.18V63.1H16.24C14.8889 58.3554 14.4678 53.3944 15 48.49L21.7 45.51C23.13 44.87 23.78 43.2 23.14 41.77L21.76 38.66ZM44.38 38.92H57.29C57.96 38.92 62 39.69 62 42.72C62 45.23 58.9 46.13 56.35 46.13H44.37L44.38 38.92ZM44.38 56.48H54.27C55.17 56.48 59.1 56.74 60.35 61.76C60.74 63.3 61.61 68.32 62.2 69.93C62.79 71.73 65.18 75.33 67.73 75.33H83.87C82.788 76.7786 81.6054 78.1487 80.33 79.43L73.76 78.02C72.23 77.69 70.72 78.67 70.39 80.2L68.83 87.48C63.8135 89.752 58.3657 90.915 52.8586 90.89C47.3515 90.864 41.9149 89.649 36.92 87.33L35.36 80.05C35.03 78.52 33.53 77.54 32 77.87L25.57 79.25C24.3768 78.0192 23.2676 76.7095 22.25 75.33H53.52C53.87 75.33 54.11 75.27 54.11 74.94V63.88C54.11 63.56 53.87 63.49 53.52 63.49H44.37L44.38 56.48ZM29.95 81.81C30.7591 81.8334 31.5272 82.171 32.0911 82.752C32.6551 83.333 32.9703 84.111 32.97 84.92C32.97 85.745 32.6423 86.536 32.0591 87.119C31.4759 87.702 30.6848 88.03 29.86 88.03C29.0352 88.03 28.2441 87.702 27.6609 87.119C27.0777 86.536 26.75 85.745 26.75 84.92C26.7498 84.504 26.8331 84.092 26.995 83.709C27.1569 83.325 27.3941 82.978 27.6925 82.688C27.9909 82.398 28.3444 82.171 28.7322 82.02C29.12 81.8695 29.5341 81.7979 29.95 81.81ZM76 81.95C76.8091 81.9734 77.5772 82.311 78.1412 82.892C78.7051 83.473 79.0203 84.251 79.02 85.06C79.02 85.885 78.6923 86.676 78.1091 87.259C77.5259 87.842 76.7348 88.17 75.91 88.17C75.0852 88.17 74.2941 87.842 73.7109 87.259C73.1277 86.676 72.8 85.885 72.8 85.06C72.7998 84.644 72.8832 84.232 73.045 83.849C73.2069 83.465 73.4441 83.118 73.7425 82.828C74.0409 82.538 74.3944 82.311 74.7822 82.16C75.17 82.009 75.5841 81.9379 76 81.95Z" fill="white"/>
<path fill-rule="evenodd" clip-rule="evenodd" d="M97.68 52.95C97.68 64.7866 92.978 76.1384 84.608 84.508C76.2384 92.878 64.8866 97.58 53.05 97.58C41.2134 97.58 29.8616 92.878 21.4918 84.508C13.1221 76.1384 8.41999 64.7866 8.41999 52.95C8.41999 41.1134 13.1221 29.7616 21.4918 21.3918C29.8616 13.0221 41.2134 8.32001 53.05 8.32001C64.8866 8.32001 76.2384 13.0221 84.608 21.3918C92.978 29.7616 97.68 41.1134 97.68 52.95ZM96.84 48.64L103.8 52.95L96.84 57.26L102.82 62.85L95.16 65.72L99.94 72.37L91.85 73.69L95.25 81.15L87.06 80.86L88.94 88.84L80.96 86.96L81.25 95.15L73.79 91.75L72.47 99.84L65.82 95.06L62.95 102.72L57.36 96.74L53.05 103.7L48.74 96.74L43.15 102.72L40.28 95.06L33.63 99.84L32.31 91.75L24.85 95.15L25.14 86.96L17.16 88.84L19.04 80.86L10.85 81.15L14.25 73.69L6.15999 72.37L10.94 65.72L3.27999 62.85L9.25999 57.26L2.29999 52.95L9.25999 48.64L3.27999 43.05L10.94 40.18L6.15999 33.53L14.25 32.21L10.85 24.75L19.04 25.04L17.16 17.06L25.14 18.94L24.85 10.75L32.31 14.15L33.63 6.06001L40.28 10.84L43.15 3.18001L48.74 9.16001L53.05 2.20001L57.36 9.16001L62.95 3.18001L65.82 10.84L72.47 6.06001L73.79 14.15L81.25 10.75L80.96 18.94L88.94 17.06L87.06 25.04L95.25 24.75L91.85 32.21L99.94 33.53L95.16 40.18L102.82 43.05L96.84 48.64Z" fill="white" stroke="white" stroke-width="3" stroke-linecap="round" stroke-linejoin="round"/>
</g>
<defs>
<clipPath id="clip0_78_2">
<rect width="106" height="106" fill="white"/>
</clipPath>
</defs>
</svg>
