<svg width="144" height="144" viewBox="0 0 144 144" fill="none" xmlns="http://www.w3.org/2000/svg">
<path d="M71.05 23.68C44.99 23.68 23.78 44.9 23.78 70.95C23.78 97 45 118.22 71.05 118.22C97.1 118.22 118.32 97 118.32 70.95C118.32 44.9 97.1 23.68 71.05 23.68ZM70.98 27.88C71.7882 27.9009 72.5563 28.2378 73.1205 28.8188C73.6847 29.3998 74.0003 30.1789 74 30.99C74 31.8148 73.6723 32.6059 73.0891 33.1891C72.5059 33.7723 71.7148 34.1 70.89 34.1C70.0652 34.1 69.2741 33.7723 68.6909 33.1891C68.1077 32.6059 67.78 31.8148 67.78 30.99C67.7798 30.5739 67.8631 30.162 68.025 29.7787C68.1869 29.3954 68.4241 29.0484 68.7225 28.7584C69.0209 28.4685 69.3744 28.2413 69.7622 28.0904C70.15 27.9395 70.5641 27.868 70.98 27.88ZM78.1 33C83.5596 34.0226 88.7312 36.2214 93.2556 39.4438C97.78 42.6661 101.549 46.8347 104.3 51.66L100.63 59.94C100 61.37 100.65 63.05 102.07 63.69L109.13 66.82C109.349 69.0268 109.376 71.2485 109.21 73.46H105.28C104.89 73.46 104.73 73.72 104.73 74.1V75.9C104.73 80.14 102.34 81.07 100.24 81.3C98.24 81.53 96.03 80.46 95.75 79.24C94.57 72.61 92.61 71.2 89.51 68.75C93.36 66.31 97.36 62.7 97.36 57.88C97.36 52.67 93.79 49.39 91.36 47.78C87.94 45.53 84.16 45.08 83.14 45.08H42.54C48.154 38.8084 55.6791 34.5626 63.95 33L68.74 38.02C69.82 39.15 71.61 39.2 72.74 38.11L78.1 33ZM33.9 56.02C34.7091 56.0434 35.4772 56.3814 36.0411 56.9621C36.6051 57.5428 36.9203 58.3205 36.92 59.13C36.92 59.9548 36.5923 60.7459 36.0091 61.3291C35.4259 61.9123 34.6348 62.24 33.81 62.24C32.9852 62.24 32.1941 61.9123 31.6109 61.3291C31.0277 60.7459 30.7 59.9548 30.7 59.13C30.6998 58.7139 30.7831 58.302 30.945 57.9187C31.1069 57.5354 31.3441 57.1884 31.6425 56.8984C31.9409 56.6085 32.2944 56.3813 32.6822 56.2304C33.07 56.0795 33.4841 56.008 33.9 56.02ZM108.05 56.16C108.859 56.1834 109.627 56.5214 110.191 57.1021C110.755 57.6828 111.07 58.4605 111.07 59.27C111.07 60.0948 110.742 60.8859 110.159 61.4691C109.576 62.0523 108.785 62.38 107.96 62.38C107.135 62.38 106.344 62.0523 105.761 61.4691C105.178 60.8859 104.85 60.0948 104.85 59.27C104.85 58.8539 104.933 58.442 105.095 58.0587C105.257 57.6754 105.494 57.3284 105.792 57.0384C106.091 56.7485 106.444 56.5213 106.832 56.3704C107.22 56.2195 107.634 56.148 108.05 56.16ZM39.76 56.66H45.18V81.1H34.24C32.8889 76.3554 32.4678 71.3944 33 66.49L39.7 63.51C41.13 62.87 41.78 61.2 41.14 59.77L39.76 56.66ZM62.38 56.92H75.29C75.96 56.92 80 57.69 80 60.72C80 63.23 76.9 64.13 74.35 64.13H62.37L62.38 56.92ZM62.38 74.48H72.27C73.17 74.48 77.1 74.74 78.35 79.76C78.74 81.3 79.61 86.32 80.2 87.93C80.79 89.73 83.18 93.33 85.73 93.33H101.87C100.788 94.7786 99.6054 96.1487 98.33 97.43L91.76 96.02C90.23 95.69 88.72 96.67 88.39 98.2L86.83 105.48C81.8135 107.752 76.3657 108.915 70.8586 108.89C65.3515 108.864 59.9149 107.649 54.92 105.33L53.36 98.05C53.03 96.52 51.53 95.54 50 95.87L43.57 97.25C42.3768 96.0192 41.2676 94.7095 40.25 93.33H71.52C71.87 93.33 72.11 93.27 72.11 92.94V81.88C72.11 81.56 71.87 81.49 71.52 81.49H62.37L62.38 74.48ZM47.95 99.81C48.7591 99.8334 49.5272 100.171 50.0911 100.752C50.6551 101.333 50.9703 102.111 50.97 102.92C50.97 103.745 50.6423 104.536 50.0591 105.119C49.4759 105.702 48.6848 106.03 47.86 106.03C47.0352 106.03 46.2441 105.702 45.6609 105.119C45.0777 104.536 44.75 103.745 44.75 102.92C44.7498 102.504 44.8331 102.092 44.995 101.709C45.1569 101.325 45.3941 100.978 45.6925 100.688C45.9909 100.398 46.3444 100.171 46.7322 100.02C47.12 99.8695 47.5341 99.7979 47.95 99.81ZM94 99.95C94.8091 99.9734 95.5772 100.311 96.1412 100.892C96.7051 101.473 97.0203 102.251 97.02 103.06C97.02 103.885 96.6923 104.676 96.1091 105.259C95.5259 105.842 94.7348 106.17 93.91 106.17C93.0852 106.17 92.2941 105.842 91.7109 105.259C91.1277 104.676 90.8 103.885 90.8 103.06C90.7998 102.644 90.8832 102.232 91.045 101.849C91.2069 101.465 91.4441 101.118 91.7425 100.828C92.0409 100.538 92.3944 100.311 92.7822 100.16C93.17 100.009 93.5841 99.9379 94 99.95Z" fill="white"/>
<path fill-rule="evenodd" clip-rule="evenodd" d="M115.68 70.95C115.68 82.7866 110.978 94.1384 102.608 102.508C94.2384 110.878 82.8866 115.58 71.05 115.58C59.2134 115.58 47.8616 110.878 39.4918 102.508C31.1221 94.1384 26.42 82.7866 26.42 70.95C26.42 59.1134 31.1221 47.7616 39.4918 39.3918C47.8616 31.0221 59.2134 26.32 71.05 26.32C82.8866 26.32 94.2384 31.0221 102.608 39.3918C110.978 47.7616 115.68 59.1134 115.68 70.95ZM114.84 66.64L121.8 70.95L114.84 75.26L120.82 80.85L113.16 83.72L117.94 90.37L109.85 91.69L113.25 99.15L105.06 98.86L106.94 106.84L98.96 104.96L99.25 113.15L91.79 109.75L90.47 117.84L83.82 113.06L80.95 120.72L75.36 114.74L71.05 121.7L66.74 114.74L61.15 120.72L58.28 113.06L51.63 117.84L50.31 109.75L42.85 113.15L43.14 104.96L35.16 106.84L37.04 98.86L28.85 99.15L32.25 91.69L24.16 90.37L28.94 83.72L21.28 80.85L27.26 75.26L20.3 70.95L27.26 66.64L21.28 61.05L28.94 58.18L24.16 51.53L32.25 50.21L28.85 42.75L37.04 43.04L35.16 35.06L43.14 36.94L42.85 28.75L50.31 32.15L51.63 24.06L58.28 28.84L61.15 21.18L66.74 27.16L71.05 20.2L75.36 27.16L80.95 21.18L83.82 28.84L90.47 24.06L91.79 32.15L99.25 28.75L98.96 36.94L106.94 35.06L105.06 43.04L113.25 42.75L109.85 50.21L117.94 51.53L113.16 58.18L120.82 61.05L114.84 66.64Z" fill="white" stroke="white" stroke-width="3" stroke-linecap="round" stroke-linejoin="round"/>
</svg>
