<svg width="256" height="256" viewBox="0 0 256 256" fill="none" xmlns="http://www.w3.org/2000/svg">
<rect width="256" height="256" fill="white"/>
<path d="M143.912 49.0311C142.249 46.2757 139.9 43.9963 137.094 42.4139C134.287 40.8315 131.119 40 127.896 40C124.672 40 121.504 40.8315 118.698 42.4139C115.891 43.9963 113.542 46.2757 111.879 49.0311L85.5315 94.0703C105.66 104.1 122.809 119.21 135.277 137.9C147.745 156.59 155.098 178.21 156.605 200.614H138.106C136.602 181.41 130.099 162.931 119.241 147.006C108.384 131.081 93.5479 118.261 76.2017 109.816L51.8163 151.898C61.5678 156.263 70.0632 163.004 76.5214 171.503C82.9796 180.002 87.1932 189.985 88.7748 200.534H46.2906C45.7867 200.498 45.2997 200.338 44.8733 200.068C44.447 199.797 44.0948 199.425 43.8485 198.985C43.6022 198.545 43.4695 198.051 43.4624 197.546C43.4554 197.042 43.5741 196.545 43.808 196.098L55.5803 176.116C51.5919 172.795 47.0336 170.222 42.1262 168.523L30.4741 188.505C29.2611 190.581 28.4736 192.878 28.1574 195.261C27.8412 197.644 28.0025 200.066 28.6321 202.386C29.2618 204.706 30.347 206.878 31.8249 208.776C33.3028 210.674 35.1439 212.26 37.2412 213.442C40.0044 214.996 43.1189 215.821 46.2906 215.84H104.471C105.552 202.532 103.171 189.171 97.5585 177.052C91.9464 164.932 83.2935 154.465 72.4378 146.663L81.6874 130.677C95.3875 140.068 106.397 152.863 113.63 167.797C120.862 182.732 124.068 199.291 122.93 215.84H172.222C173.37 190.77 167.905 165.839 156.374 143.538C144.844 121.237 127.651 102.347 106.513 88.7551L125.213 56.7841C125.629 56.0873 126.305 55.583 127.092 55.3809C127.88 55.1788 128.715 55.2953 129.417 55.7051C131.539 56.864 210.662 194.659 212.143 196.258C212.404 196.725 212.537 197.252 212.528 197.787C212.519 198.322 212.369 198.845 212.093 199.303C211.817 199.761 211.424 200.138 210.955 200.397C210.485 200.655 209.956 200.785 209.42 200.773H190.361C190.601 205.862 190.601 210.938 190.361 216H209.501C211.931 216.015 214.34 215.55 216.589 214.63C218.838 213.711 220.882 212.355 222.603 210.641C224.323 208.928 225.686 206.891 226.613 204.648C227.539 202.406 228.01 200.002 228 197.576C228.002 194.372 227.145 191.226 225.517 188.465L143.912 49.0311Z" fill="#362D59"/>
</svg>
