<svg width="256" height="256" viewBox="0 0 256 256" fill="none" xmlns="http://www.w3.org/2000/svg">
<path d="M54.8283 161.26C54.8283 175.975 42.9354 187.868 28.2204 187.868C13.5055 187.868 1.61255 175.975 1.61255 161.26C1.61255 146.545 13.5055 134.652 28.2204 134.652H54.8283V161.26ZM68.1322 161.26C68.1322 146.545 80.0251 134.652 94.7401 134.652C109.455 134.652 121.348 146.545 121.348 161.26V227.779C121.348 242.494 109.455 254.387 94.7401 254.387C80.0251 254.387 68.1322 242.494 68.1322 227.779V161.26Z" fill="#E01E5A"/>
<path d="M94.7403 54.4252C80.0253 54.4252 68.1324 42.5323 68.1324 27.8173C68.1324 13.1024 80.0253 1.20947 94.7403 1.20947C109.455 1.20947 121.348 13.1024 121.348 27.8173V54.4252H94.7403ZM94.7403 67.9307C109.455 67.9307 121.348 79.8237 121.348 94.5386C121.348 109.254 109.455 121.146 94.7403 121.146H28.019C13.304 121.146 1.41113 109.254 1.41113 94.5386C1.41113 79.8237 13.304 67.9307 28.019 67.9307H94.7403Z" fill="#36C5F0"/>
<path d="M201.373 94.5386C201.373 79.8237 213.266 67.9307 227.981 67.9307C242.696 67.9307 254.589 79.8237 254.589 94.5386C254.589 109.254 242.696 121.146 227.981 121.146H201.373V94.5386ZM188.069 94.5386C188.069 109.254 176.176 121.146 161.461 121.146C146.746 121.146 134.854 109.254 134.854 94.5386V27.8173C134.854 13.1024 146.746 1.20947 161.461 1.20947C176.176 1.20947 188.069 13.1024 188.069 27.8173V94.5386Z" fill="#2EB67D"/>
<path d="M161.461 201.172C176.176 201.172 188.069 213.064 188.069 227.779C188.069 242.494 176.176 254.387 161.461 254.387C146.746 254.387 134.854 242.494 134.854 227.779V201.172H161.461ZM161.461 187.868C146.746 187.868 134.854 175.975 134.854 161.26C134.854 146.545 146.746 134.652 161.461 134.652H228.183C242.898 134.652 254.791 146.545 254.791 161.26C254.791 175.975 242.898 187.868 228.183 187.868H161.461Z" fill="#ECB22E"/>
</svg>
