<svg xmlns="http://www.w3.org/2000/svg" width="256" height="256" viewBox="0 0 256 256" fill="none"><g transform="translate(0.0000 0.0000) scale(9.142857)"><path fill-rule="evenodd" d="m27 12.094-3.3 1.908 3.3 1.902a1.739 1.739 0 1 1-1.737 3.012l-5.911-3.412a1.718 1.718 0 0 1-.79-.993 1.7 1.7 0 0 1-.078-.565c.004-.137.024-.274.06-.411a1.75 1.75 0 0 1 .806-1.045l5.909-3.408a1.737 1.737 0 0 1 2.373.638A1.73 1.73 0 0 1 27 12.093Zm-3.125 9.246-5.906-3.406a1.708 1.708 0 0 0-1.007-.228 1.735 1.735 0 0 0-1.608 1.734v6.82a1.739 1.739 0 1 0 3.477 0v-3.815l3.307 1.909a1.734 1.734 0 0 0 2.374-.634 1.744 1.744 0 0 0-.637-2.38Zm-6.816-6.672-2.456 2.453a.486.486 0 0 1-.308.13H13.574a.495.495 0 0 1-.308-.13l-2.456-2.453a.492.492 0 0 1-.127-.306V13.64c0-.1.056-.239.127-.31l2.454-2.452a.492.492 0 0 1 .308-.128H14.295c.1 0 .237.056.308.128l2.456 2.453c.07.07.127.209.127.31v.722a.501.501 0 0 1-.127.306Zm-1.963-.68a.517.517 0 0 0-.131-.31l-.71-.709a.5.5 0 0 0-.309-.129h-.028a.494.494 0 0 0-.306.13l-.71.708a.51.51 0 0 0-.125.31v.028c0 .099.054.236.124.306l.711.71c.07.071.207.13.306.13h.028a.504.504 0 0 0 .308-.13l.711-.71a.5.5 0 0 0 .13-.306v-.028ZM3.993 6.656l5.909 3.41c.318.183.67.256 1.008.228a1.74 1.74 0 0 0 1.609-1.736v-6.82a1.739 1.739 0 0 0-3.477 0v3.816l-3.31-1.912a1.74 1.74 0 0 0-1.74 3.014Zm12.97 3.638a1.72 1.72 0 0 0 1.006-.228l5.906-3.41a1.742 1.742 0 0 0 .637-2.378 1.738 1.738 0 0 0-2.374-.636L18.83 5.555V1.736a1.738 1.738 0 0 0-3.476 0v6.821a1.737 1.737 0 0 0 1.608 1.736Zm-6.053 7.412a1.708 1.708 0 0 0-1.008.228l-5.91 3.406a1.745 1.745 0 0 0-.635 2.38 1.738 1.738 0 0 0 2.373.634l3.31-1.909v3.816a1.737 1.737 0 1 0 3.477 0V19.44a1.734 1.734 0 0 0-1.607-1.734Zm-1.602-3.195c.058-.185.082-.376.078-.565a1.733 1.733 0 0 0-.872-1.456L2.61 9.082a1.736 1.736 0 0 0-2.374.638 1.733 1.733 0 0 0 .636 2.373l3.3 1.909L.87 15.904a1.739 1.739 0 1 0 1.738 3.012l5.905-3.412c.4-.228.67-.588.795-.993Z" clip-rule="evenodd"></path></g></svg>