<svg width="256" height="256" viewBox="0 0 256 256" fill="none" xmlns="http://www.w3.org/2000/svg">
<rect width="256" height="256" fill="white"/>
<g clip-path="url(#clip0_2_141)">
<path fill-rule="evenodd" clip-rule="evenodd" d="M212.217 115.373L189.711 128.33L212.217 141.178C213.563 141.955 214.742 142.99 215.688 144.222C216.634 145.455 217.327 146.862 217.729 148.362C218.131 149.863 218.232 151.428 218.029 152.967C217.825 154.507 217.32 155.992 216.542 157.337C215.764 158.681 214.729 159.86 213.495 160.805C212.261 161.75 210.853 162.443 209.351 162.844C207.85 163.245 206.284 163.347 204.742 163.143C203.201 162.94 201.715 162.435 200.37 161.658L160.044 138.447C158.196 137.379 156.671 135.832 155.629 133.97C154.588 132.107 154.069 129.998 154.127 127.866C154.159 126.942 154.301 126.025 154.551 125.135C155.376 122.15 157.338 119.607 160.017 118.049L200.342 94.9203C201.694 94.1398 203.187 93.6333 204.734 93.4298C206.282 93.2263 207.855 93.3298 209.363 93.7344C210.871 94.1389 212.284 94.8366 213.522 95.7874C214.76 96.7383 215.797 97.9237 216.576 99.2758C217.358 100.616 217.866 102.098 218.07 103.636C218.274 105.174 218.17 106.737 217.765 108.235C217.359 109.732 216.66 111.135 215.707 112.36C214.755 113.585 213.569 114.61 212.217 115.373ZM190.913 178.178L150.602 155.009C148.798 153.975 146.755 153.43 144.676 153.429C142.596 153.428 140.553 153.971 138.749 155.004C136.944 156.036 135.442 157.523 134.39 159.315C133.339 161.108 132.775 163.144 132.755 165.221V211.506C132.86 214.582 134.156 217.496 136.37 219.635C138.585 221.773 141.544 222.969 144.623 222.969C147.703 222.969 150.662 221.773 152.877 219.635C155.091 217.496 156.387 214.582 156.491 211.506V185.565L179.052 198.522C180.398 199.3 181.884 199.806 183.426 200.01C184.967 200.214 186.534 200.113 188.036 199.713C189.539 199.312 190.947 198.62 192.182 197.675C193.416 196.731 194.453 195.552 195.231 194.207C196.01 192.863 196.516 191.378 196.721 189.838C196.925 188.298 196.824 186.732 196.423 185.231C196.022 183.73 195.329 182.323 194.384 181.089C193.439 179.855 192.259 178.82 190.913 178.042V178.178ZM144.453 132.904L127.645 149.493C127.07 150.027 126.324 150.341 125.54 150.38H120.607C119.825 150.333 119.082 150.02 118.503 149.493L101.791 132.849C101.268 132.279 100.959 131.546 100.916 130.774V125.859C100.961 125.083 101.27 124.346 101.791 123.77L118.503 107.126C119.084 106.603 119.826 106.295 120.607 106.253H125.54C126.322 106.289 127.067 106.598 127.645 107.126L144.398 123.77C144.915 124.348 145.219 125.085 145.259 125.859V130.774C145.221 131.545 144.917 132.278 144.398 132.849L144.453 132.904ZM131.061 128.289C130.996 127.493 130.664 126.742 130.118 126.159L125.267 121.367C124.686 120.844 123.943 120.536 123.163 120.493H122.985C122.208 120.534 121.469 120.843 120.894 121.367L116.043 126.159C115.522 126.745 115.219 127.492 115.182 128.275V128.453C115.217 129.224 115.521 129.959 116.043 130.528L120.922 135.307C121.497 135.829 122.236 136.138 123.012 136.181H123.19C123.971 136.138 124.713 135.829 125.294 135.307L130.145 130.487C130.669 129.917 130.983 129.185 131.034 128.412L131.061 128.289ZM55.2342 78.4817L95.5595 101.583C97.365 102.617 99.4098 103.161 101.491 103.161C103.572 103.161 105.617 102.617 107.422 101.583C109.228 100.549 110.731 99.0614 111.783 97.2675C112.835 95.4736 113.399 93.4359 113.42 91.3568V45.1129C113.315 42.0376 112.019 39.1232 109.805 36.9846C107.59 34.846 104.631 33.6506 101.552 33.6506C98.4719 33.6506 95.5127 34.846 93.2984 36.9846C91.0841 39.1232 89.788 42.0376 89.6835 45.1129V71.0543L67.0954 58.0836C65.7495 57.3054 64.2634 56.7998 62.7219 56.5955C61.1805 56.3911 59.6138 56.4922 58.1114 56.8928C56.6091 57.2935 55.2004 57.9858 53.9658 58.9304C52.7312 59.875 51.6949 61.0533 50.9161 62.398C50.1373 63.7428 49.6312 65.2276 49.4267 66.7678C49.2222 68.308 49.3234 69.8733 49.7243 71.3744C50.1253 72.8755 50.8183 74.283 51.7637 75.5165C52.709 76.7501 53.8883 77.7855 55.2342 78.5636V78.4817ZM143.728 103.167C146.11 103.355 148.492 102.817 150.561 101.624L190.872 78.4134C192.218 77.6353 193.398 76.5999 194.343 75.3663C195.288 74.1328 195.981 72.7253 196.382 71.2242C196.783 69.7231 196.884 68.1578 196.68 66.6176C196.475 65.0774 195.969 63.5926 195.19 62.2479C194.412 60.9031 193.375 59.7248 192.141 58.7802C190.906 57.8357 189.498 57.1433 187.995 56.7426C184.961 55.9335 181.729 56.3619 179.011 57.9334L156.45 71.0133V45.072C156.346 41.9967 155.05 39.0822 152.836 36.9436C150.621 34.805 147.662 33.6096 144.582 33.6096C141.503 33.6096 138.544 34.805 136.329 36.9436C134.115 39.0822 132.819 41.9967 132.714 45.072V91.3568C132.711 94.3534 133.846 97.2397 135.89 99.432C137.935 101.624 140.736 102.959 143.728 103.167ZM102.447 153.466C100.065 153.273 97.681 153.811 95.6141 155.009L55.2342 178.124C52.5161 179.695 50.5341 182.281 49.7243 185.313C48.9145 188.345 49.3432 191.574 50.9161 194.289C52.489 197.005 55.0772 198.986 58.1114 199.795C61.1456 200.604 64.3773 200.175 67.0954 198.604L89.6835 185.647V211.588C89.788 214.663 91.0841 217.578 93.2984 219.716C95.5127 221.855 98.4719 223.051 101.552 223.051C104.631 223.051 107.59 221.855 109.805 219.716C112.019 217.578 113.315 214.663 113.42 211.588V165.221C113.413 162.24 112.279 159.371 110.244 157.191C108.208 155.01 105.423 153.68 102.447 153.466ZM91.5146 131.798C92.2931 129.24 92.1757 126.494 91.1821 124.012C90.1884 121.53 88.3777 119.46 86.0487 118.145L45.7644 94.9476C43.0438 93.3906 39.8173 92.9719 36.7888 93.7827C33.7603 94.5935 31.1757 96.5682 29.5988 99.2758C28.8181 100.616 28.3111 102.097 28.1071 103.634C27.9031 105.171 28.0061 106.733 28.4102 108.23C28.8143 109.727 29.5115 111.129 30.4614 112.355C31.4113 113.581 32.5951 114.607 33.9443 115.373L56.4504 128.33L33.9443 141.178C32.5984 141.953 31.4185 142.986 30.4721 144.217C29.5257 145.448 28.8312 146.853 28.4284 148.353C28.0255 149.852 27.9221 151.416 28.1241 152.955C28.3261 154.494 28.8295 155.978 29.6056 157.323C30.3818 158.668 31.4154 159.847 32.6475 160.792C33.8796 161.738 35.286 162.432 36.7865 162.834C38.287 163.237 39.8521 163.34 41.3925 163.138C42.933 162.936 44.4185 162.433 45.7644 161.658L86.0487 138.447C88.6428 137 90.5912 134.624 91.501 131.798H91.5146ZM218.804 55.0389H216.986V57.2644H218.79C219.623 57.2644 220.156 56.8821 220.156 56.1721C220.156 55.4621 219.664 55.0389 218.79 55.0389H218.804ZM214.786 52.9909H218.886C221.099 52.9909 222.575 54.206 222.575 56.0902C222.582 56.6147 222.449 57.1315 222.19 57.5875C221.93 58.0435 221.554 58.4221 221.099 58.6843L222.698 60.9781V61.4423H220.389L218.79 59.2578H216.986V61.4423H214.772L214.786 52.9909ZM226.128 57.3873C226.194 56.3537 226.045 55.3175 225.69 54.3445C225.335 53.3714 224.782 52.4827 224.065 51.7344C223.348 50.9862 222.484 50.3948 221.526 49.9977C220.569 49.6005 219.539 49.4063 218.503 49.4274C213.98 49.4274 210.973 52.6905 210.973 57.3873C210.973 61.8656 213.98 65.3335 218.503 65.3335C219.54 65.3584 220.57 65.1674 221.529 64.7727C222.488 64.3779 223.355 63.7881 224.073 63.0407C224.792 62.2933 225.347 61.4047 225.703 60.4314C226.059 59.4581 226.208 58.4214 226.142 57.3873H226.128ZM228.014 57.3873C228.014 62.6984 224.461 67.1358 218.448 67.1358C212.436 67.1358 209.033 62.6575 209.033 57.3873C209.033 52.1171 212.545 47.6388 218.448 47.6388C224.351 47.6388 228 52.0625 228 57.3873H228.014Z" fill="#29B5E8"/>
</g>
<defs>
<clipPath id="clip0_2_141">
<rect width="200" height="190" fill="white" transform="translate(28 33.3164)"/>
</clipPath>
</defs>
</svg>
