<svg width="256" height="256" viewBox="0 0 256 256" fill="none" xmlns="http://www.w3.org/2000/svg">
<g clip-path="url(#clip0_2115_2475)">
<path d="M256 70.9368C256 68.2827 256 65.8699 256 63.2158C255.759 57.6663 255.517 51.8755 254.552 46.3261C253.587 40.7766 251.898 35.4684 249.244 30.4014C246.59 25.3345 243.453 20.7502 239.352 16.8896C235.25 12.7879 230.665 9.65117 225.84 6.99707C220.773 4.34297 215.465 2.65404 209.915 1.68892C204.366 0.723789 198.816 0.241211 193.025 0.241211C190.371 0.241211 187.959 0.241211 185.304 0.241211C182.168 0.241211 179.272 0.241211 176.136 0.241211H108.336H80.3468C77.2102 0.241211 74.3148 0.241211 71.1781 0.241211C68.524 0.241211 66.1112 0.241211 63.4571 0.241211C62.0094 0.241211 60.5617 0.241226 59.3553 0.482507C55.2535 0.723789 50.9104 0.965071 46.8087 1.68892C42.7069 2.41276 38.6051 3.61916 34.7446 5.06685C33.5382 5.54941 32.0905 6.27329 30.8841 6.75585C27.0236 8.6861 23.6456 11.0989 20.2677 13.753C19.3025 14.7181 18.0961 15.6832 17.131 16.6483C13.0292 20.7501 9.89255 25.3345 7.23845 30.1601C4.58435 35.2271 2.89539 40.5353 1.93026 46.0848C0.965135 51.6342 0.723838 57.1837 0.482556 62.9745C0.482556 65.6286 0.482556 68.0414 0.482556 70.6955C0.482556 73.8322 0.482556 76.7275 0.482556 79.8642V121.606V175.653C0.482556 178.79 0.482556 181.685 0.482556 184.822C0.482556 187.476 0.482556 189.889 0.482556 192.543C0.723838 198.092 0.965135 203.883 1.93026 209.433C2.89539 214.982 4.58435 220.29 7.23845 225.357C9.89255 230.424 13.0292 235.008 17.131 238.869C21.2328 242.971 25.8171 246.107 30.6428 248.761C35.7097 251.416 41.0179 253.105 46.5674 254.07C52.1169 255.035 57.6664 255.517 63.4571 255.517C66.1112 255.517 68.524 255.517 71.1781 255.517C74.3148 255.517 77.2102 255.517 80.3468 255.517H176.136C179.272 255.517 182.168 255.517 185.304 255.517C187.959 255.517 190.371 255.517 193.025 255.517C198.575 255.276 204.366 255.035 209.915 254.07C215.465 253.105 220.773 251.416 225.84 248.761C230.907 246.107 235.491 242.971 239.352 238.869C243.453 234.767 246.59 230.183 249.244 225.357C251.898 220.29 253.587 214.982 254.552 209.433C255.517 203.883 256 198.334 256 192.543C256 189.889 256 187.476 256 184.822C256 181.685 256 178.79 256 175.653V79.8642C256 76.9688 256 74.0734 256 70.9368Z" fill="#F05138"/>
<path d="M202.677 158.04C202.918 157.074 203.159 156.109 203.401 155.144C214.017 112.92 188.2 62.7333 144.287 36.4336C163.589 62.492 172.034 94.0999 164.554 121.606C163.83 124.019 163.107 126.432 162.141 128.844C161.176 128.121 159.97 127.397 158.281 126.673C158.281 126.673 114.609 99.6494 67.3176 52.1169C66.1112 50.9105 92.6522 89.9981 122.571 121.606C108.336 113.644 69.0066 84.9313 43.9133 62.2508C47.0499 67.3177 50.6692 72.3846 54.5297 76.9689C75.2799 103.51 102.545 136.083 135.118 161.176C112.196 175.171 79.8643 176.377 47.7738 161.176C39.8115 157.557 32.3318 152.973 25.3346 147.906C38.8464 169.621 59.8379 188.441 85.4137 199.54C115.815 212.569 146.217 211.845 168.656 199.781C168.656 199.781 168.897 199.781 168.897 199.54C169.862 199.058 170.828 198.334 171.793 197.851C182.65 192.302 203.883 186.752 215.465 208.95C218.843 214.017 224.875 185.063 202.677 158.04Z" fill="white"/>
</g>
<defs>
<clipPath id="clip0_2115_2475">
<rect width="256" height="256" fill="white"/>
</clipPath>
</defs>
</svg>
