<svg width="256" height="256" viewBox="0 0 256 256" fill="none" xmlns="http://www.w3.org/2000/svg">
<g clip-path="url(#clip0_2115_2483)">
<path d="M144.571 39.3828V78.7693L212.854 118.156V78.7693L144.571 39.3828ZM8 78.7693V118.156L42.1417 137.845V98.4625L8 78.7693ZM110.425 98.4625L76.2834 118.156V236.307L110.425 256V177.231L144.571 196.925V157.538L110.425 137.845V98.4625Z" fill="#E55B2D"/>
<path d="M144.572 39.3828L42.1426 98.4625V137.845L110.426 98.4625V137.845L144.572 118.156V39.3828ZM247.001 59.0761L212.855 78.7693V118.156L247.001 98.4625V59.0761ZM178.713 137.845L144.572 157.538V196.925L178.713 177.231V137.845ZM144.572 196.925L110.426 177.231V256L144.572 236.307V196.925Z" fill="#ED8E24"/>
<path d="M144.571 0L8 78.7689L42.1417 98.4622L144.571 39.3824L212.854 78.7689L247 59.0757L144.571 0ZM144.571 118.155L110.425 137.845L144.571 157.538L178.713 137.845L144.571 118.155Z" fill="#F8BF3C"/>
</g>
<defs>
<clipPath id="clip0_2115_2483">
<rect width="256" height="256" fill="white"/>
</clipPath>
</defs>
</svg>
