<svg width="256" height="256" viewBox="0 0 256 256" fill="none" xmlns="http://www.w3.org/2000/svg">
<path d="M37.3333 213.333C33.0666 213.333 29.3333 211.733 26.1333 208.533C22.9333 205.333 21.3333 201.6 21.3333 197.333V58.6667C21.3333 54.4001 22.9333 50.6667 26.1333 47.4667C29.3333 44.2667 33.0666 42.6667 37.3333 42.6667H218.667C222.933 42.6667 226.667 44.2667 229.867 47.4667C233.067 50.6667 234.667 54.4001 234.667 58.6667V197.333C234.667 201.6 233.067 205.333 229.867 208.533C226.667 211.733 222.933 213.333 218.667 213.333H37.3333ZM37.3333 197.333H218.667V81.0668H37.3333V197.333ZM80 178.133L68.8 166.933L96.2666 139.2L68.5333 111.467L80 100.267L118.933 139.2L80 178.133ZM130.667 179.2V163.2H189.333V179.2H130.667Z" fill="white"/>
</svg>
