<svg width="256" height="256" viewBox="0 0 256 256" fill="none" xmlns="http://www.w3.org/2000/svg">
<path d="M128 230.4C184.554 230.4 230.4 184.554 230.4 128C230.4 71.4461 184.554 25.6001 128 25.6001C71.446 25.6001 25.6 71.4461 25.6 128C25.6 184.554 71.446 230.4 128 230.4Z" fill="black"/>
<path d="M167.672 91.9836C186.898 91.9836 202.47 108.114 202.47 128.027C202.47 147.927 186.898 164.071 167.672 164.071H90.9663C88.2235 164.071 86.0007 161.768 86.0007 158.927C86.0007 156.086 88.2235 153.784 90.9663 153.784H108.84C111.569 153.784 113.792 151.482 113.792 148.641C113.792 145.8 111.569 143.497 108.84 143.497H104.862C102.119 143.497 99.8965 141.195 99.8965 138.354C99.8965 135.513 102.119 133.211 104.862 133.211H116.782C119.54 133.203 121.679 130.875 121.748 128.067C121.748 125.226 119.525 122.924 116.782 122.924H75.0687C72.3259 122.924 70.1031 120.622 70.1031 117.781C70.1031 114.94 72.3259 112.638 75.0687 112.638H105.85C108.608 112.63 110.747 110.302 110.815 107.494C110.815 104.653 108.593 102.351 105.85 102.351H98.9086C96.1658 102.351 93.943 100.049 93.943 97.2076C93.943 94.3667 96.1658 91.9297 98.9086 91.9297L167.672 91.9836ZM162.109 103.994C151.424 103.994 142.78 112.961 142.78 124.015V132.026C142.78 143.093 151.424 152.047 162.109 152.047C172.781 152.047 181.438 143.093 181.438 132.026V124.015C181.438 112.961 172.781 103.994 162.109 103.994ZM168.712 122.924C171.286 122.924 173.379 125.092 173.379 127.758V128.377C173.379 131.043 171.286 133.211 168.712 133.211H154.206C151.632 133.211 149.539 131.043 149.539 128.377V127.758C149.539 125.092 151.632 122.924 154.206 122.924H168.712Z" fill="white"/>
<path d="M75.3676 153.784C77.9544 153.784 80.0342 155.938 80.0342 158.618V159.237C80.0342 161.903 77.9544 164.07 75.3676 164.07H58.1962C55.6224 164.07 53.5296 161.903 53.5296 159.237V158.618C53.5296 155.938 55.6224 153.784 58.1962 153.784H75.3676Z" fill="white"/>
<path d="M83.3229 92.0643C85.8967 92.0643 87.9765 94.2321 87.9765 96.8979V97.5308C87.9765 100.197 85.8967 102.351 83.3229 102.351H64.1496C61.5759 102.351 59.483 100.197 59.483 97.5308V96.8979C59.483 94.2321 61.5759 92.0643 64.1496 92.0643H83.3229Z" fill="white"/>
<path d="M89.2764 133.211C91.8502 133.211 93.943 135.378 93.943 138.044V138.664C93.943 141.33 91.8502 143.497 89.2764 143.497H78.7473C76.1736 143.497 74.0807 141.33 74.0807 138.664V138.044C74.0807 135.378 76.1736 133.211 78.7473 133.211H89.2764Z" fill="white"/>
</svg>
