<svg width="256" height="256" viewBox="0 0 256 256" fill="none" xmlns="http://www.w3.org/2000/svg">
<path d="M128 243.2C191.623 243.2 243.2 191.623 243.2 128C243.2 64.3768 191.623 12.8 128 12.8C64.3768 12.8 12.8 64.3768 12.8 128C12.8 191.623 64.3768 243.2 128 243.2Z" fill="#F47421"/>
<path d="M172.928 128.001C172.928 103.188 152.813 83.0734 128.001 83.0731C103.188 83.0731 83.0731 103.188 83.0731 128.001C83.0734 152.813 103.188 172.928 128.001 172.928C152.813 172.928 172.928 152.813 172.928 128.001ZM194.816 128.001C194.815 164.902 164.902 194.815 128.001 194.816C91.0993 194.816 61.1834 164.902 61.1831 128.001C61.1831 91.0992 91.0992 61.1831 128.001 61.1831C164.902 61.1834 194.816 91.0993 194.816 128.001Z" fill="white"/>
<path d="M49.6652 149.6C61.5947 149.6 71.2655 139.93 71.2655 128C71.2655 116.071 61.5947 106.4 49.6652 106.4C37.7357 106.4 28.0649 116.071 28.0649 128C28.0649 139.93 37.7357 149.6 49.6652 149.6Z" fill="#F47421"/>
<path d="M197.12 123.855V132.145H171.52V123.855H197.12Z" fill="#F47421"/>
<path d="M49.664 143.378C58.1576 143.378 65.0431 136.493 65.0431 127.999C65.0431 119.506 58.1576 112.62 49.664 112.62C41.1704 112.62 34.2849 119.506 34.2849 127.999C34.2849 136.493 41.1704 143.378 49.664 143.378Z" fill="white"/>
<path d="M148.462 49.3586C142.497 59.6898 146.037 72.9003 156.368 78.8651C166.7 84.8298 179.91 81.2901 185.875 70.9588C191.84 60.6276 188.3 47.4171 177.969 41.4523C167.637 35.4876 154.427 39.0273 148.462 49.3586Z" fill="#F47421"/>
<path d="M97.0301 189.933L89.8507 185.788L102.651 163.617L109.83 167.762L97.0301 189.933Z" fill="#F47421"/>
<path d="M153.848 52.4696C149.601 59.8253 152.122 69.231 159.477 73.4778C166.833 77.7246 176.239 75.2044 180.486 67.8487C184.732 60.493 182.212 51.0873 174.856 46.8405C167.501 42.5937 158.095 45.1139 153.848 52.4696Z" fill="white"/>
<path d="M185.873 185.041C179.908 174.71 166.697 171.17 156.366 177.135C146.035 183.099 142.495 196.31 148.46 206.641C154.425 216.972 167.635 220.512 177.966 214.547C188.298 208.583 191.837 195.372 185.873 185.041Z" fill="#F47421"/>
<path d="M89.8499 70.2123L97.0293 66.0673L109.829 88.2376L102.65 92.3826L89.8499 70.2123Z" fill="#F47421"/>
<path d="M180.483 188.152C176.236 180.797 166.83 178.276 159.475 182.523C152.119 186.77 149.599 196.176 153.845 203.531C158.092 210.887 167.498 213.407 174.854 209.161C182.209 204.914 184.73 195.508 180.483 188.152Z" fill="white"/>
</svg>
