<svg width="256" height="256" viewBox="0 0 256 256" fill="none" xmlns="http://www.w3.org/2000/svg">
<path d="M120.6 4.6001H40.3999C40.3999 4.6001 8.7999 6.2001 4.3999 40.6001V213.2C4.3999 213.2 6.5999 247.8 42.5999 251.4H112.8L123.4 240.8H43.7999C43.7999 240.8 18.5999 237.6 15.3999 212.4V42.8001C15.3999 42.8001 14.3999 17.2001 43.3999 14.8001H111.2L120.6 4.6001Z" fill="#00C1D5"/>
<path d="M135.4 251.4H215.6C215.6 251.4 247.2 249.8 251.6 215.4V42.8001C251.6 42.8001 249.4 8.2001 213.4 4.6001H143.4L132.8 15.2001H212.2C212.2 15.2001 237.4 18.4001 240.6 43.6001V213.2C240.6 213.2 241.6 238.8 212.6 241.2H145L135.4 251.4Z" fill="#78BD20"/>
<path d="M200.2 219.8H95.2C82.2 219.8 77.6 208.2 77 202V201.6V93.5999C77 78.9999 89.6 74.5999 96.2 74.3999H96.4L201.8 74.7999C215 74.7999 219.8 86.7999 220.4 92.9999V93.3999V199.4C220.4 205.4 218.6 210.4 214.8 214C209.2 219.6 201.4 219.8 200.2 219.8ZM85 201.2C85.2 202.8 86.8 211.8 95.2 211.8H200.2C200.4 211.8 205.8 211.8 209.4 208.4C211.4 206.4 212.4 203.4 212.4 199.6V93.7999C212.2 91.9999 210.4 82.7999 201.6 82.7999L96.4 82.3999C95 82.3999 85 83.3999 85 93.5999V201.2Z" fill="#0091DA"/>
<path d="M66.4001 170.8H52.4001C44.6001 170.8 43.2001 162.6 42.8001 161V53.4C42.8001 43.8 51.8001 42.9999 53.4001 42.7999L158.8 43.2C166.8 43.2 168.4 51.8 168.8 53.4V64.4H178.4V53.2V52.5999C177.6 45.9999 172.6 33.5999 159 33.5999L53.4001 33.2C46.6001 33.4 33.6001 38 33.6001 53.2V161V161.6C34.2001 168 39.2001 180.2 52.6001 180.2H66.6001V170.8H66.4001Z" fill="#0091DA"/>
</svg>
