<svg xmlns="http://www.w3.org/2000/svg" width="64" height="64" fill="none" viewBox="0 0 64 64">
  <defs>
    <linearGradient id="a" x1="7.62141" x2="61.2476" y1="64.7192" y2="39.8564" gradientUnits="userSpaceOnUse">
      <stop offset=".22" stop-color="#F0EB18"/>
      <stop offset=".59" stop-color="#00C4F4"/>
    </linearGradient>
    <linearGradient id="b" x1="60.0186" x2="1.31316" y1="59.7777" y2="1.07287" gradientUnits="userSpaceOnUse">
      <stop offset=".19" stop-color="#00C4F4"/>
      <stop offset=".83" stop-color="#007DFE"/>
    </linearGradient>
  </defs>
  <path fill="#F0EB18" d="m5.81836 48.0512.00174 11.8755c0 2.2493 1.82342 4.0721 4.07273 4.0721H21.3994c1.1887 0 2.3186-.5196 3.0924-1.422l32.7098-38.1614c.6325-.7383.9804-1.6786.9804-2.6508V9.88913c0-2.24931-1.8234-4.07272-4.0727-4.07272H42.6009c-1.1887 0-2.3185.51956-3.0924 1.42196L6.79872 45.3998c-.63302.7383-.98036 1.6786-.98036 2.6514Z"/>
  <path fill="url(#a)" d="M5.81836 49.4825v10.4466c0 2.2493 1.82342 4.0727 4.07273 4.0727H22.9837c.1926 0 .3852-.014.576-.0407l36.9437-5.2771c2.0067-.2868 3.4968-2.005 3.4968-4.032V38.979c0-2.2499-1.824-4.0733-4.0739-4.0727l-18.5385.0046c-.4375 0-.8721.0704-1.287.2089L8.60294 45.6193c-1.66284.5544-2.78458 2.1108-2.78458 3.8638v-.0006Z"/>
  <path fill="url(#b)" d="M0 4.07273V38.041c0 1.6291.971054 3.1017 2.46807 3.7434L39.9587 57.8525c.5067.217 1.0531.3293 1.6046.3293h18.364c2.2493 0 4.0727-1.8234 4.0727-4.0727v-17.966c0-.8046-.2386-1.5913-.6854-2.2609L41.9113 1.81353C41.1561.681309 39.8854.001745 38.5239.001745L4.07273 0C1.82342 0 0 1.82342 0 4.07273Z"/>
  <path fill="#000" d="M52 12H12v40h40V12Z"/>
  <path fill="#fff" d="m21.2377 27.961-2.4224-10.9532h-3.0321l3.6224 15.0044h3.3226l2.5613-10.8998 2.5292 10.8998h3.333l3.6441-15.0044h-2.9689L29.4797 27.961l-2.7008-10.9532h-2.9581L21.2377 27.961Z"/>
  <path fill="#fff" d="M38.2224 31.6804c.8429.3927 1.8074.5896 2.8937.5896s2.0515-.1998 2.8944-.6005c.8428-.4008 1.4968-.9503 1.9613-1.6507.4714-.7074.7073-1.5049.7073-2.3903 0-.7222-.1607-1.3865-.4822-1.9934-.3216-.6149-.7717-1.1294-1.3505-1.5434-.5718-.422-1.2252-.7073-1.9613-.8572l-2.551-.5575c-.4644-.1137-.8325-.3066-1.1041-.5787-.2646-.2722-.3967-.615-.3967-1.0289 0-.364.0965-.6815.2894-.9537.1929-.2785.461-.4932.8038-.643.3497-.1568.7539-.236 1.2109-.236.457 0 .8607.0815 1.2109.2463.3571.1567.6321.3818.8251.6752.1929.2854.2893.6109.2893.9755h2.9259c-.0074-.8572-.236-1.614-.6861-2.272-.4432-.6648-1.0645-1.1833-1.8649-1.5542-.8003-.3715-1.7253-.5575-2.7329-.5575-1.0077 0-1.908.1929-2.7009.5788-.7929.3789-1.4107.9106-1.8539 1.5967-.4427.6792-.6643 1.4469-.6643 2.3041 0 .7073.1464 1.3441.4392 1.9079.2934.5644.7039 1.0398 1.2327 1.4256.5288.379 1.1506.6471 1.8649.8038l2.6474.5897c.5076.1223.9037.3393 1.1897.654.2928.3146.4392.7113.4392 1.1896 0 .3859-.1074.7286-.3215 1.0289-.2073.3003-.5036.5357-.8894.7074-.3789.1648-.8004.2463-1.3292.2463-.5288 0-.9967-.0925-1.4038-.2785-.4071-.186-.7251-.4432-.9537-.7716-.2285-.3279-.3427-.7114-.3427-1.1466h-2.9368c.0143.9215.2572 1.7362.7286 2.4436.4788.7073 1.1362 1.2579 1.9722 1.6507Z"/>
  <path fill="#fff" d="M16.9932 44h16v3h-16v-3Z"/>
</svg>
