<svg width="256" height="256" viewBox="0 0 256 256" fill="none" xmlns="http://www.w3.org/2000/svg">
<g clip-path="url(#clip0_2115_2467)">
<path d="M23.2734 192.205L23.2804 239.707C23.2804 248.704 30.5741 255.995 39.5713 255.995H85.5976C90.3524 255.995 94.872 253.917 97.9672 250.307L228.806 97.6616C231.336 94.7084 232.728 90.9472 232.728 87.0584V39.5565C232.728 30.5593 225.434 23.2656 216.437 23.2656H170.404C165.649 23.2656 161.13 25.3439 158.034 28.9535L27.1949 181.599C24.6628 184.552 23.2734 188.314 23.2734 192.205Z" fill="#F0EB18"/>
<path d="M23.2734 197.93V239.716C23.2734 248.714 30.5671 256.007 39.5644 256.007H91.9348C92.7052 256.007 93.4756 255.951 94.2388 255.844L242.014 234.736C250.04 233.589 256.001 226.716 256.001 218.608V155.916C256.001 146.916 248.705 139.623 239.705 139.625L165.551 139.644C163.801 139.644 162.063 139.925 160.403 140.479L34.4118 182.477C27.7604 184.695 23.2734 190.918 23.2734 197.93Z" fill="url(#paint0_linear_2115_2467)"/>
<path d="M0 16.2909V152.164C0 158.68 3.88422 164.571 9.87228 167.138L159.835 231.41C161.862 232.278 164.047 232.727 166.253 232.727H239.709C248.706 232.727 256 225.434 256 216.436V144.572C256 141.354 255.046 138.207 253.258 135.529L167.645 7.25412C164.624 2.72524 159.542 0.00698 154.096 0.00698L16.2909 0C7.29368 0 0 7.29368 0 16.2909Z" fill="url(#paint1_linear_2115_2467)"/>
<path d="M208 48H48V208H208V48Z" fill="black"/>
<path d="M84.9508 111.844L75.2612 68.0312H63.1328L77.6224 128.049H90.9128L101.158 84.4497L111.275 128.049H124.607L139.183 68.0312H127.308L117.919 111.844L107.116 68.0312H95.2832L84.9508 111.844Z" fill="white"/>
<path d="M152.89 126.722C156.261 128.292 160.119 129.08 164.464 129.08C168.81 129.08 172.67 128.281 176.042 126.678C179.413 125.075 182.029 122.877 183.887 120.075C185.773 117.246 186.716 114.056 186.716 110.514C186.716 107.625 186.074 104.968 184.788 102.54C183.501 100.081 181.701 98.0228 179.386 96.3668C177.098 94.6788 174.485 93.5376 171.54 92.938L161.336 90.708C159.479 90.2532 158.006 89.4816 156.92 88.3932C155.862 87.3044 155.333 85.9332 155.333 84.2776C155.333 82.8216 155.719 81.5516 156.491 80.4628C157.262 79.3488 158.335 78.49 159.706 77.8908C161.105 77.2636 162.722 76.9468 164.55 76.9468C166.378 76.9468 167.992 77.2728 169.393 77.932C170.822 78.5588 171.922 79.4592 172.694 80.6328C173.465 81.7744 173.851 83.0764 173.851 84.5348H185.554C185.525 81.106 184.61 78.0788 182.81 75.4468C181.037 72.7876 178.552 70.7136 175.35 69.23C172.149 67.744 168.449 67 164.419 67C160.388 67 156.787 67.7716 153.615 69.3152C150.444 70.8308 147.972 72.9576 146.2 75.702C144.429 78.4188 143.542 81.4896 143.542 84.9184C143.542 87.7476 144.128 90.2948 145.299 92.55C146.473 94.8076 148.115 96.7092 150.23 98.2524C152.345 99.7684 154.832 100.841 157.69 101.468L168.279 103.826C170.31 104.316 171.894 105.184 173.038 106.442C174.209 107.701 174.795 109.288 174.795 111.201C174.795 112.744 174.365 114.115 173.509 115.316C172.68 116.518 171.494 117.459 169.951 118.146C168.436 118.805 166.75 119.131 164.634 119.131C162.519 119.131 160.648 118.761 159.019 118.017C157.391 117.273 156.119 116.244 155.204 114.931C154.29 113.619 153.834 112.085 153.834 110.344H142.086C142.144 114.03 143.115 117.289 145.001 120.119C146.916 122.948 149.546 125.15 152.89 126.722Z" fill="white"/>
<path d="M67.9729 176H131.973V188H67.9729V176Z" fill="white"/>
</g>
<defs>
<linearGradient id="paint0_linear_2115_2467" x1="30.4856" y1="258.877" x2="244.99" y2="159.426" gradientUnits="userSpaceOnUse">
<stop offset="0.22" stop-color="#F0EB18"/>
<stop offset="0.59" stop-color="#00C4F4"/>
</linearGradient>
<linearGradient id="paint1_linear_2115_2467" x1="240.074" y1="239.111" x2="5.25264" y2="4.2915" gradientUnits="userSpaceOnUse">
<stop offset="0.19" stop-color="#00C4F4"/>
<stop offset="0.83" stop-color="#007DFE"/>
</linearGradient>
<clipPath id="clip0_2115_2467">
<rect width="256" height="256" fill="white"/>
</clipPath>
</defs>
</svg>
