<svg width="256" height="256" viewBox="0 0 256 256" fill="none" xmlns="http://www.w3.org/2000/svg">
<g clip-path="url(#clip0_2115_2545)">
<path d="M254.14 54.0401H251.7C238.86 54.0201 228.441 64.4533 228.441 77.3342V129.43C228.441 139.833 219.871 148.26 209.672 148.26C203.612 148.26 197.563 145.2 193.973 140.064L140.945 64.072C136.545 57.762 129.385 54 121.635 54C109.545 54 98.666 64.3128 98.666 77.0433V129.44C98.666 139.843 90.1665 148.27 79.897 148.27C73.817 148.27 67.7775 145.21 64.1875 140.074L4.84983 55.0333C3.50988 53.1072 0.5 54.0602 0.5 56.4077V101.842C0.5 104.139 1.19997 106.366 2.50992 108.253L60.9075 191.929C64.3575 196.875 69.4475 200.546 75.317 201.88C90.0065 205.231 103.526 193.885 103.526 179.429V127.062C103.526 116.659 111.925 108.233 122.295 108.233H122.325C128.575 108.233 134.435 111.292 138.025 116.429L191.062 192.411C195.472 198.73 202.262 202.482 210.362 202.482C222.721 202.482 233.311 192.16 233.311 179.439V127.052C233.311 116.649 241.711 108.223 252.08 108.223H254.15C255.45 108.223 256.5 107.169 256.5 105.865V56.3976C256.5 55.0935 255.45 54.0401 254.15 54.0401H254.14Z" fill="white"/>
</g>
<defs>
<clipPath id="clip0_2115_2545">
<rect width="256" height="256" fill="white"/>
</clipPath>
</defs>
</svg>
