<svg width="256" height="256" viewBox="0 0 256 256" fill="none" xmlns="http://www.w3.org/2000/svg">
<g clip-path="url(#clip0_2115_2547)">
<path fill-rule="evenodd" clip-rule="evenodd" d="M24 16C19.5817 16 16 19.5817 16 24V200H0V24C0 10.7452 10.7452 0 24 0H238.343C249.034 0 254.388 12.9257 246.828 20.4853L114.814 152.5H152V136H168V156.5C168 163.127 162.627 168.5 156 168.5H98.8137L71.3136 196H196V96H212V196C212 204.836 204.836 212 196 212H55.3136L27.3137 240H232C236.418 240 240 236.418 240 232V56H256V232C256 245.255 245.255 256 232 256H17.6569C6.96599 256 1.61201 243.074 9.17157 235.515L140.686 104H104V120H88V99.9999C88 93.3726 93.3726 88 99.9999 88H156.686L184.686 60.0001H60.0001V160H44.0001V60.0001C44.0001 51.1633 51.1633 44.0001 60.0001 44.0001H200.686L228.686 16H24Z" fill="white"/>
</g>
<defs>
<clipPath id="clip0_2115_2547">
<rect width="256" height="256" fill="white"/>
</clipPath>
</defs>
</svg>
