<svg width="117" height="117" viewBox="0 0 117 117" fill="none" xmlns="http://www.w3.org/2000/svg">
<path d="M36.6445 35C53.8068 35.0001 63.4277 43.0452 63.7529 54.8877L48.9316 55.3389C48.5416 48.774 42.6579 44.4612 36.6445 44.5898C28.3883 44.7507 22.2773 50.1899 22.2773 58.8145C22.2775 67.4388 28.3884 72.7803 36.6445 72.7803C42.6578 72.7802 48.4114 68.6615 49.0615 62.0967L63.8838 62.418C63.4937 74.4537 53.2869 82.6279 36.6445 82.6279C20.0022 82.6279 7.00023 73.2958 7 58.8145C7 44.2686 19.482 35 36.6445 35ZM109.998 36.4072V81.4609H70.9922V36.4072H109.998Z" fill="white"/>
</svg>
