<svg width="117" height="117" viewBox="0 0 117 117" fill="none" xmlns="http://www.w3.org/2000/svg">
<path d="M36.6445 35C53.8068 35.0001 63.4277 43.0452 63.7529 54.8877L48.9316 55.3389C48.5416 48.774 42.6579 44.4612 36.6445 44.5898C28.3883 44.7507 22.2773 50.1899 22.2773 58.8145C22.2775 67.4388 28.3884 72.7803 36.6445 72.7803C42.6578 72.7802 48.4114 68.6615 49.0615 62.0967L63.8838 62.418C63.4937 74.4537 53.2869 82.6279 36.6445 82.6279C20.0022 82.6279 7.00023 73.2958 7 58.8145C7 44.2686 19.482 35 36.6445 35ZM109.998 61.6748C107.057 59.9738 103.642 59 100 59C88.9543 59 80 67.9543 80 79C80 79.8333 80.0524 80.6544 80.1514 81.4609H70.9922V36.4072H109.998V61.6748Z" fill="#090B0B"/>
<path d="M100 95C108.837 95 116 87.8366 116 79C116 70.1634 108.837 63 100 63C91.1634 63 84 70.1634 84 79C84 87.8366 91.1634 95 100 95Z" fill="#FFB74D"/>
</svg>
