<svg xmlns="http://www.w3.org/2000/svg" width="206" height="47" fill="none" viewBox="0 0 206 47">
  <rect width="206" height="47" fill="url(#a)" rx="8"/>
  <path fill="#fff" d="M78.704 23.182c0 1.269-.24 2.348-.721 3.239-.477.89-1.129 1.57-1.955 2.04-.822.465-1.746.698-2.772.698-1.034 0-1.962-.235-2.784-.704-.822-.47-1.472-1.15-1.95-2.04-.477-.89-.715-1.968-.715-3.233 0-1.27.239-2.349.716-3.239.477-.89 1.127-1.568 1.949-2.034.822-.47 1.75-.704 2.784-.704 1.026 0 1.95.234 2.772.704.826.466 1.478 1.144 1.955 2.034.481.89.721 1.97.721 3.239Zm-2.494 0c0-.822-.123-1.515-.37-2.08-.242-.564-.584-.992-1.028-1.284-.443-.292-.962-.437-1.556-.437-.595 0-1.114.145-1.557.437-.443.292-.788.72-1.034 1.284-.243.565-.364 1.258-.364 2.08 0 .822.121 1.515.364 2.08.246.564.59.992 1.034 1.284.443.291.962.437 1.557.437.594 0 1.113-.146 1.556-.438.444-.291.787-.72 1.029-1.284.246-.564.37-1.257.37-2.08Zm4.272 9.09v-12h2.386v1.467h.108a3.2 3.2 0 0 1 .46-.716 2.43 2.43 0 0 1 .795-.614c.33-.167.74-.25 1.228-.25a3.28 3.28 0 0 1 1.761.5c.538.33.968.828 1.29 1.494.322.663.483 1.495.483 2.495 0 .973-.157 1.795-.472 2.466-.31.666-.734 1.172-1.272 1.517a3.267 3.267 0 0 1-1.796.511c-.47 0-.87-.078-1.199-.233a2.48 2.48 0 0 1-.8-.585 2.973 2.973 0 0 1-.478-.722h-.074v4.67h-2.42Zm2.369-7.636c0 .52.072.972.216 1.358.144.387.352.688.625.904.273.212.604.318.994.318.394 0 .727-.108 1-.324.273-.22.48-.523.62-.909.143-.39.215-.84.215-1.347 0-.503-.07-.947-.21-1.33-.14-.382-.347-.681-.62-.897-.272-.216-.607-.324-1.005-.324-.394 0-.727.104-1 .313-.269.208-.475.503-.62.886-.143.383-.215.833-.215 1.352Zm11.733 4.535c-.898 0-1.67-.182-2.318-.546a3.736 3.736 0 0 1-1.489-1.557c-.349-.674-.523-1.471-.523-2.392 0-.898.174-1.685.523-2.363a3.864 3.864 0 0 1 1.472-1.586c.636-.378 1.382-.568 2.238-.568.576 0 1.112.093 1.608.279.5.181.936.456 1.307.823.375.368.667.83.875 1.387.208.553.313 1.2.313 1.943v.665h-7.37v-1.5h5.091c0-.349-.076-.657-.227-.927a1.627 1.627 0 0 0-.63-.63 1.798 1.798 0 0 0-.927-.233c-.367 0-.693.085-.977.256a1.8 1.8 0 0 0-.66.676c-.159.28-.24.593-.244.937v1.426c0 .432.08.805.239 1.12.163.314.392.556.687.727.296.17.646.256 1.052.256.269 0 .515-.038.738-.114a1.55 1.55 0 0 0 .574-.34c.16-.152.28-.338.364-.558l2.238.148a3.057 3.057 0 0 1-.698 1.41c-.349.397-.8.707-1.353.93-.549.22-1.183.33-1.903.33Zm8.005-5.216V29h-2.42v-8.727h2.307v1.54h.102a2.43 2.43 0 0 1 .972-1.205c.454-.3 1.005-.449 1.653-.449.606 0 1.135.133 1.585.398.451.265.801.644 1.051 1.136.25.489.375 1.072.375 1.75V29h-2.42v-5.125c.004-.534-.133-.95-.409-1.25-.277-.303-.657-.454-1.142-.454-.326 0-.614.07-.864.21-.246.14-.439.344-.579.613-.137.265-.207.585-.211.96ZM113.825 29v-8.727h2.421V29h-2.421Zm1.216-9.852c-.36 0-.668-.12-.926-.358a1.16 1.16 0 0 1-.381-.87c0-.333.127-.619.381-.858.258-.242.566-.363.926-.363.36 0 .667.121.921.363.257.24.386.525.386.858 0 .338-.129.627-.386.87a1.297 1.297 0 0 1-.921.358Zm5.564 4.806V29h-2.42v-8.727h2.306v1.54h.103c.193-.508.517-.91.971-1.205.455-.3 1.006-.449 1.654-.449.606 0 1.134.133 1.585.398.451.265.801.644 1.051 1.136.25.489.375 1.072.375 1.75V29h-2.42v-5.125c.003-.534-.133-.95-.409-1.25-.277-.303-.658-.454-1.142-.454-.326 0-.614.07-.864.21-.246.14-.44.344-.58.613-.136.265-.206.585-.21.96Zm21.548-2.517h-2.488a2.428 2.428 0 0 0-.279-.858c-.14-.253-.32-.47-.539-.647a2.381 2.381 0 0 0-.762-.41 2.912 2.912 0 0 0-.926-.141c-.602 0-1.127.15-1.574.448-.447.296-.793.728-1.04 1.296-.246.564-.369 1.25-.369 2.057 0 .83.123 1.526.369 2.09.25.565.599.991 1.046 1.28.447.287.964.431 1.551.431.33 0 .635-.044.915-.13.284-.088.536-.215.755-.381.22-.17.402-.377.546-.62.148-.242.25-.519.307-.83l2.488.012a4.484 4.484 0 0 1-.483 1.546 4.624 4.624 0 0 1-1.028 1.323 4.837 4.837 0 0 1-1.534.92c-.591.224-1.26.336-2.006.336-1.038 0-1.966-.235-2.784-.704-.814-.47-1.458-1.15-1.932-2.04-.469-.89-.704-1.968-.704-3.233 0-1.27.238-2.349.716-3.239.477-.89 1.125-1.568 1.943-2.034.818-.47 1.739-.704 2.761-.704.675 0 1.3.094 1.875.284a4.75 4.75 0 0 1 1.54.83c.447.359.811.8 1.091 1.323.284.523.466 1.121.545 1.796Zm5.662 7.733c-.882 0-1.645-.187-2.289-.562a3.84 3.84 0 0 1-1.483-1.58c-.349-.678-.523-1.464-.523-2.357 0-.902.174-1.69.523-2.364a3.795 3.795 0 0 1 1.483-1.58c.644-.378 1.407-.568 2.289-.568.883 0 1.644.19 2.284.568a3.79 3.79 0 0 1 1.489 1.58c.349.674.523 1.462.523 2.364 0 .893-.174 1.68-.523 2.357a3.835 3.835 0 0 1-1.489 1.58c-.64.375-1.401.563-2.284.563Zm.012-1.875c.401 0 .736-.113 1.005-.34.269-.231.472-.546.608-.944.14-.397.211-.85.211-1.358 0-.507-.071-.96-.211-1.357-.136-.398-.339-.713-.608-.944-.269-.23-.604-.346-1.005-.346-.406 0-.747.115-1.023.346-.273.231-.479.546-.619.944-.137.397-.205.85-.205 1.357 0 .508.068.96.205 1.358.14.398.346.713.619.944.276.227.617.34 1.023.34Zm9.074 1.847c-.663 0-1.264-.17-1.802-.511-.534-.345-.958-.85-1.272-1.517-.311-.67-.466-1.493-.466-2.466 0-1 .161-1.832.483-2.495.322-.666.75-1.164 1.284-1.494a3.291 3.291 0 0 1 1.767-.5c.489 0 .896.083 1.221.25.33.163.595.367.796.614.204.242.36.48.466.716h.074v-4.375h2.414V29h-2.386v-1.398h-.102a3.144 3.144 0 0 1-.483.722 2.41 2.41 0 0 1-.801.585c-.326.155-.724.233-1.193.233Zm.767-1.926c.39 0 .719-.106.988-.318.273-.216.481-.517.625-.904.148-.386.222-.839.222-1.358 0-.519-.072-.97-.216-1.352-.144-.383-.352-.678-.625-.886-.273-.209-.604-.313-.994-.313-.398 0-.733.108-1.006.324-.273.216-.479.515-.619.898-.141.382-.211.826-.211 1.33 0 .507.07.956.211 1.346.144.386.35.69.619.909.273.216.608.324 1.006.324Zm10.166 1.954c-.898 0-1.671-.181-2.318-.545a3.733 3.733 0 0 1-1.489-1.557c-.348-.674-.523-1.471-.523-2.392 0-.898.175-1.685.523-2.363a3.86 3.86 0 0 1 1.472-1.586c.636-.378 1.382-.568 2.238-.568.576 0 1.112.093 1.608.279.5.181.936.456 1.307.823.375.368.667.83.875 1.387.208.553.312 1.2.312 1.943v.665h-7.369v-1.5h5.091a1.86 1.86 0 0 0-.227-.927 1.632 1.632 0 0 0-.631-.63 1.799 1.799 0 0 0-.926-.233c-.367 0-.693.085-.977.256-.281.166-.5.392-.659.676-.159.28-.241.593-.245.937v1.426c0 .432.08.805.239 1.12.163.314.392.556.687.727.296.17.646.256 1.052.256.269 0 .515-.038.738-.114a1.53 1.53 0 0 0 .574-.34c.159-.152.28-.338.364-.558l2.238.148a3.044 3.044 0 0 1-.699 1.41c-.348.397-.799.707-1.352.93-.549.22-1.183.33-1.903.33Zm5.585-.17v-8.727h2.347v1.523h.091c.159-.542.426-.951.801-1.228.375-.28.806-.42 1.295-.42a3.65 3.65 0 0 1 .761.085v2.148a3.126 3.126 0 0 0-.471-.091 4.249 4.249 0 0 0-.551-.04 1.94 1.94 0 0 0-.955.233 1.72 1.72 0 0 0-.659.636 1.838 1.838 0 0 0-.239.944V29h-2.42ZM53.324 22.69c-.558 0-.93-.328-.93-1v-3.862c0-2.466-1.015-3.828-3.636-3.828h-1.217v2.603h.372c1.031 0 1.522.57 1.522 1.587v3.413c0 1.483.44 2.087 1.403 2.397-.964.293-1.403.914-1.403 2.396v2.535c0 .707 0 1.397-.186 2.104a5.205 5.205 0 0 1-.913 1.81c-.237.31-.508.569-.812.81V34h1.217c2.621 0 3.636-1.362 3.636-3.828V26.31c0-.69.355-1 .93-1H54v-2.603h-.676v-.017Zm-8.285-4.758h-3.754a.153.153 0 0 1-.152-.155v-.294c0-.086.067-.155.152-.155h3.77c.085 0 .153.07.153.155v.293c0 .087-.085.156-.17.156Zm.642 3.724h-2.74a.153.153 0 0 1-.151-.156v-.293c0-.086.067-.155.152-.155h2.74c.084 0 .151.07.151.155v.293c0 .07-.067.156-.152.156Zm1.082-1.862h-5.478a.153.153 0 0 1-.152-.155v-.294c0-.086.067-.155.152-.155h5.461c.085 0 .153.07.153.155v.294c0 .068-.051.155-.136.155Zm-9.823-1.018c.371 0 .743.034 1.098.12v-.706c0-1 .508-1.587 1.522-1.587h.372V14h-1.217c-2.621 0-3.636 1.362-3.636 3.828v1.275a5.635 5.635 0 0 1 1.86-.327Z"/>
  <path fill="#fff" d="M47.914 28.155c-.271-2.19-1.928-4.018-4.059-4.431a4.65 4.65 0 0 0-1.758-.035c-.017 0-.017-.017-.034-.017-.93-1.983-2.925-3.293-5.09-3.293-2.164 0-4.142 1.276-5.089 3.258-.017 0-.017.018-.034.018a5.033 5.033 0 0 0-1.826.12c-2.096.518-3.686 2.31-3.973 4.483a4.45 4.45 0 0 0-.051.655c0 .655.44 1.259 1.082 1.345.795.12 1.488-.5 1.471-1.293 0-.12 0-.259.017-.38a2.719 2.719 0 0 1 2.046-2.292c.338-.087.676-.104.998-.052 1.031.138 2.046-.397 2.485-1.328.322-.69.829-1.293 1.505-1.62a3.053 3.053 0 0 1 2.367-.138c.812.293 1.42.913 1.793 1.69.389.758.575 1.293 1.403 1.396.338.052 1.285.035 1.64.017.693 0 1.387.242 1.877.742.321.344.558.776.66 1.258a2.641 2.641 0 0 1-.49 2.138 2.448 2.448 0 0 1-1.252.862 2.503 2.503 0 0 1-.71.086h-3.737a1.341 1.341 0 0 1-1.336-1.362v-5.051a.38.38 0 0 0-.372-.38h-.524c-1.032.018-1.86 1.19-1.86 2.431v4.535c0 1.345 1.065 2.43 2.384 2.43l5.952-.016A5.046 5.046 0 0 0 46.849 32c.845-1.052 1.234-2.431 1.065-3.845Z"/>
  <defs>
    <linearGradient id="a" x1="0" x2="203.68" y1="0" y2="63.042" gradientUnits="userSpaceOnUse">
      <stop stop-color="#8635F7"/>
      <stop offset="1" stop-color="#4356FF"/>
    </linearGradient>
  </defs>
</svg>
