<?xml version="1.0" encoding="utf-8"?>
<!-- Uploaded to: SVG Repo, www.svgrepo.com, Generator: SVG Repo Mixer Tools -->
<svg width="800px" height="800px" viewBox="0 0 48 48" xmlns="http://www.w3.org/2000/svg">
  <title>computer-code</title>
  <g id="Layer_2" data-name="Layer 2">
    <g id="invisible_box" data-name="invisible box">
      <rect width="48" height="48" fill="none"/>
      <rect width="48" height="48" fill="none"/>
      <rect width="48" height="48" fill="none"/>
    </g>
    <g id="icons_Q2" data-name="icons Q2">
      <g>
        <path d="M7,34H41a2,2,0,0,0,2-2V8a2,2,0,0,0-2-2H7A2,2,0,0,0,5,8V32A2,2,0,0,0,7,34ZM39,10V30H9V10"/>
        <path d="M44,38H4a2,2,0,0,0,0,4H44a2,2,0,0,0,0-4Z"/>
        <path d="M29.5,12.6a2.1,2.1,0,0,0-2.7-.2,1.9,1.9,0,0,0-.2,3L31.2,20l-4.6,4.6a1.9,1.9,0,0,0,.2,3,2.1,2.1,0,0,0,2.7-.2l5.9-6a1.9,1.9,0,0,0,0-2.8Z"/>
        <path d="M21.2,12.4a2.1,2.1,0,0,0-2.7.2l-5.9,6a1.9,1.9,0,0,0,0,2.8l5.9,6a2.1,2.1,0,0,0,2.7.2,1.9,1.9,0,0,0,.2-3L16.8,20l4.6-4.6A1.9,1.9,0,0,0,21.2,12.4Z"/>
      </g>
    </g>
  </g>
</svg>