<?xml version="1.0" encoding="iso-8859-1"?>
<!-- Uploaded to: SVG Repo, www.svgrepo.com, Generator: SVG Repo Mixer Tools -->
<svg fill="#000000" height="800px" width="800px" version="1.1" id="Layer_1" xmlns="http://www.w3.org/2000/svg" xmlns:xlink="http://www.w3.org/1999/xlink" 
	 viewBox="0 0 512 512" xml:space="preserve">
<g>
	<g>
		<g>
			<polygon points="320,12.499 320,127.998 435.499,127.998 			"/>
			<path d="M298.667,170.667c-11.797,0-21.333-9.536-21.333-21.333V0h-192C73.536,0,64,9.536,64,21.333v469.333
				C64,502.464,73.536,512,85.333,512h341.333c11.797,0,21.333-9.536,21.333-21.333v-320H298.667z M149.333,213.333h21.333
				c11.797,0,21.333,9.536,21.333,21.333c0,11.797-9.536,21.333-21.333,21.333h-21.333C137.536,256,128,246.464,128,234.667
				C128,222.869,137.536,213.333,149.333,213.333z M192,426.667h-42.667c-11.797,0-21.333-9.536-21.333-21.333
				c0-11.797,9.536-21.333,21.333-21.333H192c11.797,0,21.333,9.536,21.333,21.333C213.333,417.131,203.797,426.667,192,426.667z
				 M234.667,341.333h-85.333C137.536,341.333,128,331.797,128,320s9.536-21.333,21.333-21.333h85.333
				c11.797,0,21.333,9.536,21.333,21.333S246.464,341.333,234.667,341.333z M362.667,426.667h-85.333
				c-11.797,0-21.333-9.536-21.333-21.333c0-11.797,9.536-21.333,21.333-21.333h85.333c11.797,0,21.333,9.536,21.333,21.333
				C384,417.131,374.464,426.667,362.667,426.667z M362.667,341.333H320c-11.797,0-21.333-9.536-21.333-21.333
				s9.536-21.333,21.333-21.333h42.667c11.797,0,21.333,9.536,21.333,21.333S374.464,341.333,362.667,341.333z M362.667,256H256
				c-11.797,0-21.333-9.536-21.333-21.333c0-11.797,9.536-21.333,21.333-21.333h106.667c11.797,0,21.333,9.536,21.333,21.333
				C384,246.464,374.464,256,362.667,256z"/>
		</g>
	</g>
</g>
</svg>