<svg viewBox="0 0 32 32" xmlns="http://www.w3.org/2000/svg"><ellipse cx="16" cy="16" rx="4" ry="3.11" transform="rotate(-30 15.991 16.005)" fill="#ffffff" class="fill-00bbff"></ellipse><ellipse cx="16" cy="16" rx="4" ry="3.11" transform="rotate(-30 15.991 16.005)" fill="none" stroke="#ffffff" stroke-linecap="round" stroke-linejoin="round" stroke-width="2px" class="stroke-000000"></ellipse><path d="M29 8.5c1.93 3.35-.18 8.19-4.73 10.82s-9.8 2-11.73-1.32" fill="none" stroke="#ffffff" stroke-linecap="round" stroke-linejoin="round" stroke-width="2px" class="stroke-000000"></path><path d="M17.49 3.06c4.69-.48 8.08 2.78 7.56 7.28a8.47 8.47 0 0 1-.18 1M4.46 11c2.76-3.83 8.27-5.51 12.31-3.76s5.07 6.27 2.31 10.1" fill="none" stroke="#ffffff" stroke-linecap="round" stroke-linejoin="round" stroke-width="2px" class="stroke-000000"></path><path d="M3 23.5c-1.93-3.35.18-8.19 4.73-10.82q.43-.25.86-.45M14.56 28.53C9.86 29 6.47 25.84 7 21.46s4.72-8.32 9.41-8.8" fill="none" stroke="#ffffff" stroke-linecap="round" stroke-linejoin="round" stroke-width="2px" class="stroke-000000"></path><path d="M27.54 21c-2.76 3.83-8.27 5.51-12.31 3.76a7.44 7.44 0 0 1-.72-.36" fill="none" stroke="#ffffff" stroke-linecap="round" stroke-linejoin="round" stroke-width="2px" class="stroke-000000"></path></svg>
