<svg xmlns="http://www.w3.org/2000/svg" viewBox="0 0 138 138">
  <path stroke="none" d="M135.968 121.08a6.75 6.75 0 0 1-8.895-3.425c-1.504-3.394.033-7.368 3.434-8.874a6.738 6.738 0 0 1 5.353-.043l-2.216-5.997a2.289 2.289 0 0 0-2.98-1.36l-4.615 1.785c-3.698 1.006-9.407 1.468-14.043.742-16.883-2.624-25.346 5.346-25.346 5.346 3.748.927 8.745 2.577 12.094 5.125-5.816 1.75-12.153 2.818-18.56 1.893-4.095-1.645-7.234-4.325-8.17-10.82 0 0-3.483 2.44-3.96 6.337-1.388-.874-7.554-5.9-9.196-7.191-3.132-3.792-5.07-6.814-4.583-12.343 0 0-4.492 1.422-5.24 5.405-4.426-2.725-8.536-4.658-12.478-5.886a37.282 37.282 0 0 0-5.23-1.237c5.635-4.89 18.648-14.171 37.644-15.747 1.773-.01 3.433.04 4.957.125-.804 1.724-.949 3.3.36 4.985 3.165 4.071 13.364 1.646 25.013 15.064l4.857-4.69a6.69 6.69 0 0 1-2.415-.451 6.72 6.72 0 0 1-3.865-8.697 6.747 6.747 0 0 1 8.716-3.85 6.695 6.695 0 0 1 3.812 3.748l2.684-5.808a2.281 2.281 0 0 0-1.143-3.066l-4.533-1.99c-3.32-1.898-7.687-5.598-10.453-9.38-10.08-13.767-21.713-14.106-21.713-14.106 2.517 4.159 5.623 10.54 4.955 15.277a90.677 90.677 0 0 0-3.28-.32 71.45 71.45 0 0 0-12.41-.998c-4.445-.388-7.703-2.001-9.88-6.646 0 0-2.262 3.688-.81 7.45C42.257 63.102 32.81 66.99 27.312 69.7c7.969-11.97 19.027-21.512 33.107-28.52 8.336-4.15 16.433-6.701 22.946-8.263-.312 2.337-.05 4.172 2.081 5.432 4.442 2.63 13.035-3.367 28.813 4.85l2.787-6.147a6.627 6.627 0 0 1-2.41.468c-3.719.027-6.76-2.963-6.792-6.674a6.73 6.73 0 0 1 6.69-6.776 6.704 6.704 0 0 1 4.922 2.075l.355-6.367a2.286 2.286 0 0 0-2.188-2.437l-4.949-.193c-3.79-.543-9.212-2.388-13.18-4.889C91.564 7.253 85.172 6 80.32 6c-3.767 0-6.21 1.096-6.21 1.096 3.627 2.755 8.447 7.137 9.968 11.501-1.773.25-5.584.867-10.693 2.12-7.294.445-11.049.117-16.455-4.747 0 0-.663 5.168 1.873 9.2a135.14 135.14 0 0 0-5.272 2.06c-4.415 1.31-9.28 1.721-13.828-2.974 0 0-1.174 5.554 1.583 8.838a114.06 114.06 0 0 0-7.044 4.193c-5.81 2.214-9.396 2.611-14.284.285 0 0 .138 4.519 3.655 7.543a95.876 95.876 0 0 0-7.496 7.01c-4.522 3.33-8.013 4.684-12.371 3.486 0 0 1.17 4.417 4.82 5.469C5.296 65.515 2.541 70.416 0 75.802v55.395c1.655-2.66 4.51-7.208 7.156-10.04 8.715-9.331 22.46-13.024 35.618-6.544 9.426 4.642 19.677 11.41 30.222 13.864 4.163 1.117 8.25 1.56 12.127 1.56 7.767 0 14.691-1.773 19.707-3.446.76 3.65 1.361 6.415 4.697 6.838 5.12.645 10.722-8.266 28.473-6.997v-6.734a6.754 6.754 0 0 1-2.032 1.383Z"/>
</svg>
