<?xml version="1.0" encoding="utf-8"?><!-- Uploaded to: SVG Repo, www.svgrepo.com, Generator: SVG Repo Mixer Tools -->
<svg width="800px" height="800px" viewBox="0 0 24 24" fill="none" xmlns="http://www.w3.org/2000/svg">
<path d="M12 2L12 10M12 10L15 7M12 10L9 7" stroke="#1C274C" stroke-width="1.5" stroke-linecap="round" stroke-linejoin="round"/>
<path d="M2 13H5.16026C6.06543 13 6.51802 13 6.91584 13.183C7.31367 13.3659 7.60821 13.7096 8.19729 14.3968L8.80271 15.1032C9.39179 15.7904 9.68633 16.1341 10.0842 16.317C10.482 16.5 10.9346 16.5 11.8397 16.5H12.1603C13.0654 16.5 13.518 16.5 13.9158 16.317C14.3137 16.1341 14.6082 15.7904 15.1973 15.1032L15.8027 14.3968C16.3918 13.7096 16.6863 13.3659 17.0842 13.183C17.482 13 17.9346 13 18.8397 13H22" stroke="#1C274C" stroke-width="1.5" stroke-linecap="round"/>
<path d="M17 2.12695C18.6251 2.28681 19.7191 2.64808 20.5355 3.46455C22 4.92902 22 7.28604 22 12.0001C22 16.7141 22 19.0712 20.5355 20.5356C19.0711 22.0001 16.714 22.0001 12 22.0001C7.28595 22.0001 4.92893 22.0001 3.46447 20.5356C2 19.0712 2 16.7141 2 12.0001C2 7.28604 2 4.92902 3.46447 3.46455C4.28094 2.64808 5.37486 2.28681 7 2.12695" stroke="#1C274C" stroke-width="1.5" stroke-linecap="round"/>
</svg>