<svg xmlns="http://www.w3.org/2000/svg" viewBox="0 0 16 16">
  <path d="m7.6.098-7.2 3.4c-.2.1-.2.4 0 .5l7.3 3.3c.2.1.5.1.7 0l7.2-3.3c.2-.1.2-.4 0-.5L8.4.098c-.3-.1-.5-.1-.8 0Z"/>
  <path d="m15.6 7.798-1.5-.7c-.2-.1-.5-.1-.7 0l-5.1 2.3c-.2.1-.5.1-.7 0l-5-2.3c-.3-.1-.5-.1-.7 0l-1.5.7c-.2.1-.2.4 0 .5l7.3 3.3c.2.1.5.1.7 0l7.3-3.3c.1-.1.1-.4-.1-.5Z"/>
  <path d="m15.598 12.098-1.5-.7c-.2-.1-.5-.1-.7 0l-5.1 2.3c-.2.1-.5.1-.7 0l-5.1-2.3c-.2-.1-.5-.1-.7 0l-1.5.7c-.2.1-.2.4 0 .5l7.3 3.3c.2.1.5.1.7 0l7.3-3.3c.2-.1.2-.4 0-.5Z"/>
</svg>
