<svg xml:space="preserve" style="max-height: 500px" viewBox="0 0 203.26680000000002 103.37142857142855" y="0px" x="0px" xmlns:xlink="http://www.w3.org/1999/xlink" xmlns="http://www.w3.org/2000/svg" id="Layer_1" version="1.1" width="203.26680000000002" height="103.37142857142855">
<style type="text/css">
	.st0{fill:#2453FF;}
	.st1{fill:#000000;}
	.st2{fill:#CCCCCC;}
	.st3{fill:#B3B3B3;}
	.st4{fill:#FFFFFF;}
</style>
<g>
	<g>
		<path d="M200.7,20.6l-2.2-13c-0.7-4.2-2.3-7.6-3.6-7.6c-1.3,0-2.4,3.5-2.4,7.7v3.4c0,4.2-3.5,7.7-7.7,7.7h-3.4&#10;&#9;&#9;&#9;c-0.2,0-0.5,0-0.7,0v9.4c0.2,0,0.5,0,0.7,0h12.8C198.5,28.2,201.4,24.8,200.7,20.6" class="st0"/>
		<path d="M170,9.6h-20.8c-0.2,0-0.3,0-0.5,0h-21.3c-0.3,0-0.5,0-0.7,0.1v-2c0-4.2-1.1-7.7-2.4-7.7&#10;&#9;&#9;&#9;c-1.3,0-2.9,3.4-3.6,7.6l-2.2,13c-0.7,4.2,2.2,7.6,6.4,7.6h12.8c1.3,0,2.6-0.2,3.6-0.6c-0.4,2.2-2.3,3.8-4.6,3.8h-18&#10;&#9;&#9;&#9;c-2.9,0-5.1-2.6-4.6-5.5l1.8-10.9c0.5-2.9-1.7-5.5-4.6-5.5H22.1c-1.9,0-3.5,1.1-4.3,2.8L1,38c-0.3,0.4-0.3,1,0.1,1.4l3.3,3.9&#10;&#9;&#9;&#9;c0.4,0.5,1.1,0.6,1.6,0.2l11.4-9v54.8c0,2.6,2.1,4.7,4.7,4.7h25.4c2.6,0,4.7-2.1,4.7-4.7v-19c0-2.6,2.1-4.7,4.7-4.7h63.3&#10;&#9;&#9;&#9;c2.6,0,4.7,2.1,4.7,4.7v19c0,2.6,2.1,4.7,4.7,4.7h25.4c2.6,0,4.7-2.1,4.7-4.7V68.6h-13.5c-4.2,0-7.7-3.5-7.7-7.7V47.8&#10;&#9;&#9;&#9;c0-2.5,1.2-4.7,3.1-6.1v15.7c0,4.2,3.5,7.7,7.7,7.7H170c4.2,0,7.7-3.5,7.7-7.7v-40C177.7,13.1,174.2,9.6,170,9.6" class="st0"/>
	</g>
	<g>
		<g>
			<path d="M217.7,12.2h28.6c13.6,0,22.7,6.6,22.7,19.3c0,10.4-7.1,16.6-14,18.8c2.1,1.7,3.6,4.1,4.8,6.6&#10;&#9;&#9;&#9;&#9;c2.9,5.9,4.8,12.3,10.9,12.3c1.5,0,2.8-0.5,2.8-0.5L272.1,81c0,0-3.7,0.9-6.9,0.9c-8.2,0-12.9-3.2-17.8-14.2&#10;&#9;&#9;&#9;&#9;c-2.1-4.9-4.9-13.6-8.7-13.6h-3.9v27.4h-17.2V12.2z M234.9,24.7v17h6.2c4.9,0,10.7-1.5,10.7-8.9c0-6.1-3.9-8.1-8.6-8.1H234.9z" class="st1"/>
			<path d="M292.2,12.2h17.4l23.4,69.3h-17.4l-4.3-13.1h-23.2l-4.2,13.1h-15L292.2,12.2z M292.2,55.7h14.9l-4.7-14.6&#10;&#9;&#9;&#9;&#9;c-1.6-4.9-2.4-11.9-2.4-11.9h-0.4c0,0-1,7.1-2.6,11.8L292.2,55.7z" class="st1"/>
			<path d="M333.6,12.2H352l18.2,34.4c1.5,3,3.6,8.2,5.2,12.3h0.4c-0.2-3.9-0.7-9.4-0.7-13.5V12.2h14.1v69.3h-18&#10;&#9;&#9;&#9;&#9;l-18.9-34.3c-1.7-3.1-3.6-7.6-5-11.3h-0.4c0.3,3.9,0.8,8.5,0.8,12.3v33.3h-14.1V12.2z" class="st1"/>
			<path d="M392.9,46.5c0-25.1,12.4-35.4,31.6-35.4c20.2,0,28.3,11.1,26.1,26.1l-16,1.4c1.7-11-2.6-15.4-10.4-15.4&#10;&#9;&#9;&#9;&#9;c-7.5,0-13.6,5.5-13.6,23.4c0,18.9,6.6,23.7,14.1,23.7c7.1,0,12.8-4.4,11.6-13.5l15,1.5c1.1,14.1-9,24.4-27.5,24.4&#10;&#9;&#9;&#9;&#9;C405,82.8,392.9,71.7,392.9,46.5" class="st1"/>
			<polygon points="454.8,12.2 472,12.2 472,38.4 493,38.4 493,12.2 510.2,12.2 510.2,81.6 493,81.6 493,52.2 472,52.2 &#10;&#9;&#9;&#9;&#9;472,81.6 454.8,81.6" class="st1"/>
			<polygon points="517.1,12.2 563,12.2 563,25 534.2,25 534.2,39.9 558.3,39.9 558.3,52.6 534.2,52.6 534.2,68.8 &#10;&#9;&#9;&#9;&#9;564,68.8 564,81.6 517.1,81.6" class="st1"/>
			<path d="M567.3,12.2h28.6c13.6,0,22.7,6.6,22.7,19.3c0,10.4-7.1,16.6-14,18.8c2.1,1.7,3.6,4.1,4.8,6.6&#10;&#9;&#9;&#9;&#9;c2.9,5.9,4.8,12.3,10.9,12.3c1.5,0,2.8-0.5,2.8-0.5L621.7,81c0,0-3.7,0.9-6.9,0.9c-8.2,0-12.9-3.2-17.8-14.2&#10;&#9;&#9;&#9;&#9;c-2.1-4.9-4.9-13.6-8.7-13.6h-3.9v27.4h-17.2V12.2z M584.4,24.7v17h6.2c4.9,0,10.7-1.5,10.7-8.9c0-6.1-3.9-8.1-8.6-8.1H584.4z" class="st1"/>
		</g>
		<g>
			<path d="M625.2,16.6c0-3.9,2.9-5.6,5.6-5.6c2.7,0,5.6,1.7,5.6,5.6c0,3.8-2.9,5.5-5.6,5.5&#10;&#9;&#9;&#9;&#9;C628.2,22.2,625.2,20.5,625.2,16.6z M635.1,16.6c0-3.1-2-4.4-4.2-4.4c-2.2,0-4.3,1.3-4.3,4.4c0,3,2.1,4.4,4.3,4.4&#10;&#9;&#9;&#9;&#9;C633.1,21,635.1,19.7,635.1,16.6z M629,13.8h2c1,0,2,0.3,2,1.7c0,0.8-0.6,1.3-1.3,1.5l1.3,2.3h-1.2l-1.2-2.2h-0.5v2.2H629V13.8z&#10;&#9;&#9;&#9;&#9; M631.1,16.3c0.5,0,0.9-0.3,0.9-0.8c0-0.6-0.5-0.7-0.9-0.7h-1v1.5H631.1z" class="st1"/>
		</g>
	</g>
</g>
</svg>