<svg width="201" height="94" viewBox="0 0 201 94" fill="none" xmlns="http://www.w3.org/2000/svg">
  <path d="M200.7 20.6L198.5 7.6C197.8 3.4 196.2 0 194.9 0C193.6 0 192.5 3.5 192.5 7.7V11.1C192.5 15.3 189 18.8 184.8 18.8H181.4C181.2 18.8 180.9 18.8 180.7 18.8V28.2C180.9 28.2 181.2 28.2 181.4 28.2H194.2C198.5 28.2 201.4 24.8 200.7 20.6Z" fill="white"/>
  <path d="M170 9.6H149.2C149 9.6 148.9 9.6 148.7 9.6H127.4C127.1 9.6 126.9 9.6 126.7 9.7V7.7C126.7 3.5 125.6 0 124.3 0C123 0 121.4 3.4 120.7 7.6L118.5 20.6C117.8 24.8 120.7 28.2 124.9 28.2H137.7C139 28.2 140.3 28 141.3 27.6C140.9 29.8 139 31.4 136.7 31.4H118.7C115.8 31.4 113.6 28.8 114.1 25.9L115.9 15C116.4 12.1 114.2 9.5 111.3 9.5H22.1C20.2 9.5 18.6 10.6 17.8 12.3L1.00001 38C0.700007 38.4 0.700007 39 1.10001 39.4L4.40001 43.3C4.80001 43.8 5.50001 43.9 6.00001 43.5L17.4 34.5V89.3C17.4 91.9 19.5 94 22.1 94H47.5C50.1 94 52.2 91.9 52.2 89.3V70.3C52.2 67.7 54.3 65.6 56.9 65.6H120.2C122.8 65.6 124.9 67.7 124.9 70.3V89.3C124.9 91.9 127 94 129.6 94H155C157.6 94 159.7 91.9 159.7 89.3V68.6H146.2C142 68.6 138.5 65.1 138.5 60.9V47.8C138.5 45.3 139.7 43.1 141.6 41.7V57.4C141.6 61.6 145.1 65.1 149.3 65.1H170C174.2 65.1 177.7 61.6 177.7 57.4V17.4C177.7 13.1 174.2 9.6 170 9.6Z" fill="white"/>
</svg>

