<?xml version="1.0" encoding="utf-8"?>

<!DOCTYPE svg PUBLIC "-//W3C//DTD SVG 1.1//EN" "http://www.w3.org/Graphics/SVG/1.1/DTD/svg11.dtd">
<!-- Uploaded to: SVG Repo, www.svgrepo.com, Generator: SVG Repo Mixer Tools -->
<svg height="800px" width="800px" version="1.1" id="_x32_" xmlns="http://www.w3.org/2000/svg" xmlns:xlink="http://www.w3.org/1999/xlink" 
	 viewBox="0 0 512 512"  xml:space="preserve">
<style type="text/css">
	.st0{fill:#000000;}
</style>
<g>
	<path class="st0" d="M315.664,0L193.969,32.069v98.468l-86.38,20.729v98.477l-86.381,20.73v117.37L196.337,512l6.388-1.532
		l288.068-71.995V124.166L315.664,0z M188.487,470.942L50.17,372.883v-68.175l138.317,98.799V470.942z M201.627,386.197
		L66.192,289.462l58.411-14.02l135.436,96.746L201.627,386.197z M274.868,356.078l-138.317-98.799v-71.778l138.317,98.8V356.078z
		 M288.008,266.992l-135.436-96.746l58.402-14.01l135.446,96.754L288.008,266.992z M361.248,236.881l-138.317-98.8V66.296
		l138.317,98.808V236.881z M374.388,147.803L238.943,51.057l70.699-19.833l136.193,96.572L374.388,147.803z"/>
</g>
</svg>