<svg width="18" height="16" viewBox="0 0 18 16" fill="none" xmlns="http://www.w3.org/2000/svg">
<path fill-rule="evenodd" clip-rule="evenodd" d="M0 1.70067C0 0.765844 0.720703 0.0287641 1.63477 0.0287641V0H9H16.3652C17.2793 0 18 0.737078 18 1.67191V4.19234V6.71282V8.38472V11.8077V14.3281C18 15.2629 17.2793 16 16.3652 16H9H1.63477C0.720703 16 0 15.2629 0 14.3281V11.8077V9.28718V8.43866V7.59011V6.74156V4.22112V1.70067ZM2.46446 3.40258V2.50987L6.56368 4.8103L2.46446 7.11073V6.21803L4.92891 4.8103L2.46446 3.40258ZM6.53555 7.21374V6.40344H10.6348V7.21374H6.53555Z" fill="black"/>
</svg>
