<svg xmlns="http://www.w3.org/2000/svg" viewBox="22.747 28.773 57.894 42.847" height="64" width="64"><defs><clipPath id="A"><path d="M525.438 782.113h33.964V681.938l97.8 100.175h44.836l-107.312-110.37 114.097-127.355H665.36l-105.957 118.86v-118.86H525.44z"/></clipPath><linearGradient id="B" spreadMethod="pad" gradientUnits="userSpaceOnUse" y2="790.912" x2="536.264" y1="550.499" x1="682.17"><stop offset="0" stop-color="#4f66b9"/><stop offset="1" stop-color="#484fab"/></linearGradient><clipPath id="C"><path d="M631.824 876.457l167.266-96.57a9.24 9.24 0 0 0 4.609-7.989V578.754c0-3.293 1.77-6.34 4.62-7.988l149.266-86.184c6.152-3.555 13.84.9 13.84 7.988v376.172c0 3.293-1.758 6.336-4.6 7.988l-325.76 188.08c-6.153 3.55-13.852-.9-13.852-8V884.445c0-3.3 1.762-6.336 4.62-7.988z"/></clipPath><linearGradient id="D" spreadMethod="pad" gradientUnits="userSpaceOnUse" y2="1086.135" x2="677.091" y1="516.667" x1="1007.83"><stop offset="0" stop-color="#4f66b9"/><stop offset="1" stop-color="#484fab"/></linearGradient><clipPath id="E"><path d="M775.75 530.344l-167.266-96.57c-2.85-1.652-6.375-1.652-9.226 0L408.652 543.82a9.26 9.26 0 0 0-4.62 8v220.097a9.25 9.25 0 0 0 4.621 7.989L575.92 876.47a9.22 9.22 0 0 1 4.617 7.984v172.367c0 7.1-7.695 11.54-13.847 8L240.926 876.73c-2.852-1.652-4.6-4.695-4.6-7.988v-413.77c0-3.3 1.758-6.336 4.6-8L599.258 240.1c2.85-1.653 6.375-1.653 9.226 0l325.762 188.074c6.152 3.554 6.152 12.433 0 15.984L784.98 530.344c-2.863 1.652-6.378 1.652-9.23 0z"/></clipPath><linearGradient id="F" spreadMethod="pad" gradientUnits="userSpaceOnUse" y2="920.709" x2="318.474" y1="284.03" x1="679.093"><stop offset="0" stop-color="#4c68bb"/><stop offset="1" stop-color="#5180c9"/></linearGradient></defs><g transform="matrix(.069988 0 0 -.069988 9.429963 95.860819)"><path d="M525.438 782.113h33.964V681.938l97.8 100.175h44.836l-107.312-110.37 114.097-127.355H665.36l-105.957 118.86v-118.86H525.44v237.726" fill="url(#B)" clip-path="url(#A)"/><path d="M631.824 876.457l167.266-96.57a9.24 9.24 0 0 0 4.609-7.989V578.754c0-3.293 1.77-6.34 4.62-7.988l149.266-86.184c6.152-3.555 13.84.9 13.84 7.988v376.172c0 3.293-1.758 6.336-4.6 7.988l-325.76 188.08c-6.153 3.55-13.852-.9-13.852-8V884.445c0-3.3 1.762-6.336 4.62-7.988" fill="url(#D)" clip-path="url(#C)"/><path d="M775.75 530.344l-167.266-96.57c-2.85-1.652-6.375-1.652-9.226 0L408.652 543.82a9.26 9.26 0 0 0-4.62 8v220.097a9.25 9.25 0 0 0 4.621 7.989L575.92 876.47a9.22 9.22 0 0 1 4.617 7.984v172.367c0 7.1-7.695 11.54-13.847 8L240.926 876.73c-2.852-1.652-4.6-4.695-4.6-7.988v-413.77c0-3.3 1.758-6.336 4.6-8L599.258 240.1c2.85-1.653 6.375-1.653 9.226 0l325.762 188.074c6.152 3.554 6.152 12.433 0 15.984L784.98 530.344c-2.863 1.652-6.378 1.652-9.23 0" fill="url(#F)" clip-path="url(#E)"/></g></svg>