<?xml version="1.0" encoding="utf-8"?>
<!-- Generator: Adobe Illustrator 19.1.1, SVG Export Plug-In . SVG Version: 6.00 Build 0)  -->
<svg version="1.1"  xmlns="http://www.w3.org/2000/svg" xmlns:xlink="http://www.w3.org/1999/xlink" x="0px" y="0px"
	 viewBox="0 0 48 48" enable-background="new 0 0 48 48" xml:space="preserve">
<path fill="#2196F3" d="M44.2,22.7L34.7,7.2C34.3,6.5,33.4,6,32.5,6H15.4c-0.9,0-1.7,0.5-2.2,1.2L3.8,22.7c-0.5,0.8-0.5,1.9,0,2.7
	l9.4,15.4c0.5,0.8,1.3,1.2,2.2,1.2h17.1c0.9,0,1.7-0.5,2.2-1.2l9.5-15.4C44.7,24.5,44.7,23.5,44.2,22.7z"/>
<path fill="#1976D2" d="M29,15l-2,2l-2-2l-2,2l-2-2l-2,4l-4,2l2,2l-2,2l2,2l-2,2l13,13h4.5c0.9,0,1.7-0.5,2.2-1.2l7.6-12.4L29,15z"
	/>
<g>
	<rect x="22" y="22" fill="#FFFFFF" width="4" height="4"/>
	<path fill="#FFFFFF" d="M33,21v-2h-3v-1h-1v-3h-2v3h-2v-3h-2v3h-2v-3h-2v3h-1v1h-3v2h3v2h-3v2h3v2h-3v2h3v1h1v3h2v-3h2v3h2v-3h2v3
		h2v-3h1v-1h3v-2h-3v-2h3v-2h-3v-2H33z M20,28v-8h8v8H20z"/>
</g>
</svg>
