<svg xmlns="http://www.w3.org/2000/svg" width="722.846" height="701.966">
  <g stroke="#fff">
    <path fill="#326ce5" stroke-width="0" d="M358.987 10.061a46.725 46.342 0 0 0-17.907 4.53L96.736 131.341a46.725 46.342 0 0 0-25.28 31.438l-60.282 262.25a46.725 46.342 0 0 0 6.344 35.532 46.725 46.342 0 0 0 2.656 3.687l169.125 210.281a46.725 46.342 0 0 0 36.531 17.438l271.219-.063a46.725 46.342 0 0 0 36.531-17.406l169.064-210.313a46.725 46.342 0 0 0 9.03-39.217l-60.375-262.25a46.725 46.342 0 0 0-25.281-31.438L381.643 14.592a46.725 46.342 0 0 0-22.656-4.531z"/>
    <path fill="#fff" stroke-width=".25" d="M367.734 274.06c-8.077 0-14.626 7.276-14.625 16.25 0 .137.028.269.03.406-.011 1.22-.07 2.688-.03 3.75.192 5.176 1.32 9.137 2 13.906 1.23 10.207 2.26 18.667 1.625 26.531-.619 2.966-2.803 5.678-4.75 7.563l-.344 6.187a190.337 190.337 0 0 0-26.438 4.063c-37.974 8.622-70.67 28.183-95.562 54.594a245.167 245.167 0 0 1-5.281-3.75c-2.612.352-5.25 1.158-8.688-.844-6.545-4.406-12.506-10.487-19.719-17.813-3.305-3.504-5.698-6.84-9.625-10.218-.891-.767-2.252-1.805-3.25-2.594-3.07-2.448-6.69-3.724-10.187-3.844-4.496-.154-8.824 1.604-11.656 5.156-5.036 6.316-3.424 15.968 3.593 21.563.072.057.147.1.22.156.963.782 2.144 1.783 3.03 2.438 4.167 3.076 7.974 4.651 12.125 7.093 8.747 5.402 15.999 9.881 21.75 15.282 2.246 2.394 2.639 6.613 2.938 8.437l4.687 4.188c-25.093 37.763-36.706 84.41-29.843 131.937l-6.125 1.781c-1.615 2.085-3.896 5.365-6.282 6.344-7.525 2.37-15.994 3.24-26.218 4.313-4.8.399-8.943.16-14.032 1.125-1.12.212-2.68.618-3.906.906-.042.009-.082.021-.125.031-.067.016-.154.048-.219.063-8.62 2.082-14.157 10.006-12.375 17.812 1.784 7.808 10.204 12.557 18.875 10.688.063-.015.154-.017.22-.032.097-.022.183-.07.28-.093 1.21-.266 2.724-.56 3.782-.844 5.003-1.34 8.627-3.308 13.125-5.031 9.677-3.471 17.691-6.37 25.5-7.5 3.26-.256 6.697 2.012 8.406 2.968l6.375-1.093c14.67 45.482 45.414 82.245 84.344 105.312l-2.657 6.375c.958 2.476 2.014 5.825 1.3 8.27-2.838 7.36-7.7 15.13-13.237 23.793-2.681 4.002-5.425 7.107-7.844 11.687-.579 1.096-1.316 2.78-1.875 3.938-3.759 8.042-1.002 17.305 6.219 20.78 7.266 3.499 16.284-.19 20.187-8.25.006-.01.026-.019.032-.03.004-.01-.004-.023 0-.031.555-1.143 1.343-2.645 1.812-3.72 2.072-4.746 2.762-8.814 4.219-13.405 3.87-9.72 5.995-19.92 11.322-26.275 1.46-1.74 3.837-2.41 6.303-3.07l3.312-6c33.939 13.028 71.927 16.523 109.875 7.907a189.77 189.77 0 0 0 25.094-7.562c.931 1.65 2.661 4.825 3.125 5.625 2.506.815 5.24 1.236 7.469 4.53 3.985 6.81 6.71 14.865 10.031 24.595 1.457 4.59 2.178 8.659 4.25 13.406.472 1.082 1.256 2.605 1.813 3.75 3.894 8.085 12.942 11.786 20.218 8.281 7.22-3.478 9.98-12.74 6.22-20.781-.56-1.158-1.328-2.842-1.907-3.938-2.42-4.58-5.163-7.654-7.844-11.656-5.537-8.662-10.13-15.858-12.969-23.219-1.187-3.796.2-6.157 1.125-8.625-.553-.634-1.738-4.22-2.437-5.906 40.457-23.888 70.298-62.021 84.312-106.062 1.893.297 5.182.879 6.25 1.093 2.2-1.45 4.222-3.343 8.188-3.031 7.808 1.13 15.823 4.03 25.5 7.5 4.498 1.723 8.121 3.723 13.125 5.063 1.057.283 2.572.547 3.781.812.097.024.183.071.281.094.066.014.156.017.22.03 8.671 1.868 17.093-2.878 18.874-10.687 1.78-7.807-3.754-15.732-12.375-17.812-1.254-.285-3.032-.77-4.25-1-5.09-.964-9.23-.726-14.031-1.125-10.225-1.071-18.694-1.943-26.219-4.313-3.068-1.19-5.251-4.84-6.312-6.343l-5.907-1.72c3.063-22.154 2.237-45.21-3.062-68.28-5.349-23.285-14.8-44.581-27.406-63.344 1.515-1.377 4.376-3.911 5.187-4.656.237-2.625.033-5.376 2.75-8.282 5.751-5.4 13.003-9.879 21.75-15.28 4.152-2.443 7.99-4.018 12.156-7.095.943-.695 2.23-1.797 3.219-2.593 7.015-5.597 8.63-15.249 3.594-21.563-5.037-6.314-14.797-6.909-21.813-1.312-.998.79-2.353 1.822-3.25 2.593-3.926 3.378-6.351 6.715-9.656 10.22-7.212 7.325-13.174 13.437-19.719 17.843-2.836 1.651-6.99 1.08-8.875.969l-5.562 3.968c-31.72-33.26-74.905-54.525-121.406-58.656-.13-1.949-.3-5.471-.344-6.531-1.904-1.822-4.204-3.377-4.781-7.313-.637-7.864.426-16.324 1.656-26.53.679-4.77 1.807-8.731 2-13.907.044-1.177-.027-2.884-.031-4.156-.001-8.974-6.548-16.251-14.625-16.25zM349.42 387.497l-4.344 76.719-.312.156c-.291 6.863-5.94 12.344-12.875 12.344-2.84 0-5.463-.912-7.594-2.469l-.125.063-62.906-44.594c19.334-19.011 44.063-33.06 72.562-39.531a154.125 154.125 0 0 1 15.594-2.688zm36.656 0c33.274 4.092 64.045 19.159 87.625 42.25l-62.5 44.313-.218-.094c-5.548 4.052-13.364 3.046-17.688-2.375a12.807 12.807 0 0 1-2.812-7.469l-.063-.031zm-147.625 70.875 57.438 51.375-.063.313c5.185 4.507 5.95 12.328 1.625 17.75a12.892 12.892 0 0 1-6.687 4.406l-.063.25-73.625 21.25c-3.747-34.265 4.329-67.574 21.375-95.344zm258.157.031c8.534 13.833 14.996 29.282 18.843 46.032 3.801 16.548 4.755 33.067 3.188 49.03l-74-21.312-.063-.312c-6.626-1.811-10.699-8.552-9.156-15.313a12.786 12.786 0 0 1 4.094-6.843l-.031-.157 57.125-51.125zm-140.657 55.313h23.532l14.625 18.281-5.25 22.813-21.125 10.156-21.188-10.188-5.25-22.812zm75.438 62.562c1-.05 1.995.04 2.969.22l.125-.157 76.156 12.875c-11.146 31.313-32.473 58.44-60.969 76.594l-29.562-71.407.093-.125c-2.715-6.31.002-13.71 6.25-16.718 1.6-.77 3.271-1.197 4.938-1.282zm-127.906.313c5.811.081 11.024 4.115 12.375 10.031.632 2.77.324 5.514-.72 7.938l.22.28-29.25 70.688c-27.347-17.548-49.13-43.824-60.782-76.062l75.5-12.813.125.157c.845-.156 1.701-.23 2.532-.22zm63.78 30.969a12.764 12.764 0 0 1 6.032 1.28c2.56 1.233 4.537 3.174 5.781 5.5h.282l37.218 67.25a154.256 154.256 0 0 1-14.875 4.157c-28.464 6.463-56.838 4.505-82.53-4.25l37.124-67.125h.063a12.91 12.91 0 0 1 10.906-6.812z" color="#000" font-family="Sans" font-weight="400" overflow="visible" style="text-indent:0;text-align:start;line-height:normal;text-transform:none;block-progression:tb;marker:none;-inkscape-font-specification:Sans" transform="translate(-6.326 -174.752)"/>
  </g>
</svg>
